<?xml version="1.0" encoding="utf-8"?>
<!-- Generator: Adobe Illustrator 24.1.1, SVG Export Plug-In . SVG Version: 6.00 Build 0)  -->
<svg version="1.1" id="Layer_1" xmlns="http://www.w3.org/2000/svg" xmlns:xlink="http://www.w3.org/1999/xlink" x="0px" y="0px"
	 viewBox="0 0 512 512" style="enable-background:new 0 0 512 512;" xml:space="preserve">
<g>
	<path d="M28.4,113.8h455.1c15.7,0,28.4-12.7,28.4-28.4c0-15.7-12.7-28.4-28.4-28.4H28.4C12.7,56.9,0,69.6,0,85.3
		C0,101,12.7,113.8,28.4,113.8z M28.4,284.4H256c15.7,0,28.4-12.7,28.4-28.4c0-15.7-12.7-28.4-28.4-28.4H28.4
		C12.7,227.6,0,240.3,0,256C0,271.7,12.7,284.4,28.4,284.4z M28.4,455.1h455.1c15.7,0,28.4-12.7,28.4-28.4
		c0-15.7-12.7-28.4-28.4-28.4H28.4C12.7,398.2,0,411,0,426.7C0,442.4,12.7,455.1,28.4,455.1z"/>
</g>
</svg>
