<svg xmlns="http://www.w3.org/2000/svg" width="80" height="80" viewBox="0 0 80 80"><g transform="translate(-86 -1)"><rect width="80" height="80" transform="translate(86 1)" fill="#f0f0f0"/><path d="M-14.252-1.488-24.33-6.551v-.691l10.078-5.648v1.758l-7.523,4.172v.047l7.523,3.68ZM-.634,0H-2.555V-6.914q0-3.75-2.789-3.75A3.041,3.041,0,0,0-7.712-9.58,4.039,4.039,0,0,0-8.673-6.8V0h-1.922V-17.766h1.922v7.758h.047a4.365,4.365,0,0,1,3.938-2.273q4.055,0,4.055,4.887Zm10.2-16.8v11.1h2.156v1.758H9.563V0h-1.9V-3.949h-7.9V-5.613q1.1-1.242,2.227-2.654t2.15-2.865q1.025-1.453,1.9-2.9A26.507,26.507,0,0,0,7.512-16.8ZM1.934-5.707h5.73v-8.227Q6.786-12.4,6-11.191T4.507-9Q3.8-8.016,3.153-7.219T1.934-5.707Zm22.431-.844L14.287-1.488V-3.234l7.547-3.656v-.07l-7.547-4.172v-1.758L24.365-7.242Z" transform="translate(126 51)" fill="#4d4d4d"/></g></svg>