<svg xmlns="http://www.w3.org/2000/svg" width="80" height="80" viewBox="0 0 80 80"><g transform="translate(-86 -1)"><rect width="80" height="80" transform="translate(86 1)" fill="#f0f0f0"/><path d="M-14.252-1.488-24.33-6.551v-.691l10.078-5.648v1.758l-7.523,4.172v.047l7.523,3.68ZM-.634,0H-2.555V-6.914q0-3.75-2.789-3.75A3.041,3.041,0,0,0-7.712-9.58,4.039,4.039,0,0,0-8.673-6.8V0h-1.922V-17.766h1.922v7.758h.047a4.365,4.365,0,0,1,3.938-2.273q4.055,0,4.055,4.887ZM10.958-5.133a5.656,5.656,0,0,1-.422,2.227A4.868,4.868,0,0,1,9.335-1.2a5.379,5.379,0,0,1-1.881,1.1A7.356,7.356,0,0,1,5,.293a6.766,6.766,0,0,1-3.48-.7V-2.449a6.4,6.4,0,0,0,3.5,1.1,4.742,4.742,0,0,0,1.646-.27,3.659,3.659,0,0,0,1.248-.75,3.211,3.211,0,0,0,.791-1.16,3.927,3.927,0,0,0,.275-1.488,3.188,3.188,0,0,0-1.1-2.572,4.831,4.831,0,0,0-3.2-.932q-.34,0-.715.012t-.75.029q-.375.018-.732.041t-.65.059L2.415-16.8h7.77v1.734H4.079l-.34,4.934q.375-.023.8-.041t.75-.018a7.542,7.542,0,0,1,2.391.352,5.065,5.065,0,0,1,1.787,1,4.2,4.2,0,0,1,1.113,1.594A5.606,5.606,0,0,1,10.958-5.133ZM24.365-6.551,14.287-1.488V-3.234l7.547-3.656v-.07l-7.547-4.172v-1.758L24.365-7.242Z" transform="translate(126 51)" fill="#4d4d4d"/></g></svg>