<?xml version="1.0" encoding="utf-8"?>
<!-- Generator: Adobe Illustrator 27.0.0, SVG Export Plug-In . SVG Version: 6.00 Build 0)  -->
<svg version="1.1" id="Layer_1" xmlns="http://www.w3.org/2000/svg" xmlns:xlink="http://www.w3.org/1999/xlink" x="0px" y="0px"
	 viewBox="0 0 80 80" style="enable-background:new 0 0 80 80;" xml:space="preserve">
<style type="text/css">
	.st0{fill:#F0F0F0;}
	.st1{fill:#4D4D4D;}
</style>
<rect class="st0" width="80" height="80"/>
<rect x="30" y="15" class="st1" width="35" height="10"/>
<rect x="30" y="35" class="st1" width="35" height="10"/>
<rect x="30" y="55" class="st1" width="35" height="10"/>
<polygon class="st1" points="20,18.4 16.7,15.1 13.4,18.4 20,25.1 20,25.1 23.3,21.8 26.7,18.4 23.4,15.1 "/>
<polygon class="st1" points="20,38.4 16.7,35 13.4,38.4 20,45 20,45 23.3,41.7 26.7,38.3 23.4,35 "/>
<polygon class="st1" points="20,58.4 16.7,55 13.4,58.4 20,65 20,65 23.3,61.7 26.7,58.3 23.4,55 "/>
</svg>
