<svg xmlns="http://www.w3.org/2000/svg" width="408" height="92" viewBox="0 0 408 92"><g transform="translate(33 -1)"><g transform="translate(-33 1)" fill="#d9d9d9" stroke="#bfbfbf" stroke-miterlimit="10" stroke-width="2"><rect width="408" height="92" stroke="none"/><rect x="1" y="1" width="406" height="90" fill="none"/></g><g transform="translate(-20 16)"><rect width="60" height="32" transform="translate(41 15)" fill="#666"/></g><g transform="translate(60 16)"><rect width="60" height="32" transform="translate(41 15)" fill="#666"/></g><g transform="translate(140 16)"><rect width="60" height="32" transform="translate(41 15)" fill="#666"/></g><g transform="translate(220 16)"><rect width="60" height="32" transform="translate(41 15)" fill="#666"/></g><path d="M-69.911-423.9l.069-.069-.069-.069L-56.124-438l.276.28-13.58,13.752,13.58,13.752-.276.279Z" transform="translate(56.879 470.969)" fill="none" stroke="#666" stroke-linecap="round" stroke-width="4"/><path d="M0,14.1l.069-.069L0,13.962,13.787,0l.276.28L.484,14.031l13.58,13.752-.276.279Z" transform="translate(355.032 61.031) rotate(180)" fill="none" stroke="#666" stroke-linecap="round" stroke-width="4"/></g></svg>