<svg xmlns="http://www.w3.org/2000/svg" width="80" height="80" viewBox="0 0 80 80"><g transform="translate(-1 -1)"><rect width="80" height="80" transform="translate(1 1)" fill="#f0f0f0"/><rect width="8" height="6" transform="translate(65 46)" fill="#4d4d4d"/><rect width="8" height="6" transform="translate(65 57)" fill="#4d4d4d"/><rect width="8" height="6" transform="translate(65 35)" fill="#4d4d4d"/><rect width="8" height="6" transform="translate(65 24)" fill="#4d4d4d"/><rect width="8" height="6" transform="translate(65 13)" fill="#4d4d4d"/><rect width="8" height="6" transform="translate(51 46)" fill="#4d4d4d"/><rect width="8" height="6" transform="translate(51 57)" fill="#4d4d4d"/><rect width="8" height="6" transform="translate(51 35)" fill="#4d4d4d"/><rect width="8" height="6" transform="translate(51 24)" fill="#4d4d4d"/><rect width="8" height="6" transform="translate(51 13)" fill="#4d4d4d"/><rect width="8" height="6" transform="translate(37 46)" fill="#4d4d4d"/><rect width="8" height="6" transform="translate(37 57)" fill="#4d4d4d"/><rect width="8" height="6" transform="translate(37 35)" fill="#4d4d4d"/><rect width="8" height="6" transform="translate(37 24)" fill="#4d4d4d"/><rect width="8" height="6" transform="translate(37 13)" fill="#4d4d4d"/><rect width="8" height="6" transform="translate(23 46)" fill="#4d4d4d"/><rect width="8" height="6" transform="translate(23 57)" fill="#4d4d4d"/><rect width="8" height="6" transform="translate(23 35)" fill="#4d4d4d"/><rect width="8" height="6" transform="translate(23 24)" fill="#4d4d4d"/><rect width="8" height="6" transform="translate(23 13)" fill="#4d4d4d"/><rect width="8" height="6" transform="translate(9 46)" fill="#4d4d4d"/><rect width="8" height="6" transform="translate(9 57)" fill="#4d4d4d"/><rect width="8" height="6" transform="translate(9 35)" fill="#4d4d4d"/><rect width="8" height="6" transform="translate(9 24)" fill="#4d4d4d"/><rect width="8" height="6" transform="translate(9 13)" fill="#4d4d4d"/><text transform="translate(41 78)" fill="#4d4d4d" font-size="12" font-family="SegoeUI-Bold, Segoe UI" font-weight="700" letter-spacing="0.036em"><tspan x="-3.451" y="0">5</tspan></text></g></svg>