<svg xmlns="http://www.w3.org/2000/svg" width="80" height="80" viewBox="0 0 80 80"><g transform="translate(-1 -1)"><rect width="80" height="80" transform="translate(1 1)" fill="#f0f0f0"/><rect width="12" height="9" transform="translate(10 12)" fill="#4d4d4d"/><rect width="12" height="9" transform="translate(27 12)" fill="#4d4d4d"/><rect width="12" height="9" transform="translate(44 12)" fill="#4d4d4d"/><rect width="12" height="9" transform="translate(61 12)" fill="#4d4d4d"/><rect width="12" height="9" transform="translate(10 26)" fill="#4d4d4d"/><rect width="12" height="9" transform="translate(10 40)" fill="#4d4d4d"/><rect width="12" height="9" transform="translate(10 54)" fill="#4d4d4d"/><rect width="12" height="9" transform="translate(27 26)" fill="#4d4d4d"/><rect width="12" height="9" transform="translate(27 40)" fill="#4d4d4d"/><rect width="12" height="9" transform="translate(27 54)" fill="#4d4d4d"/><rect width="12" height="9" transform="translate(44 26)" fill="#4d4d4d"/><rect width="12" height="9" transform="translate(61 26)" fill="#4d4d4d"/><rect width="12" height="9" transform="translate(44 40)" fill="#4d4d4d"/><rect width="12" height="9" transform="translate(44 54)" fill="#4d4d4d"/><rect width="12" height="9" transform="translate(61 40)" fill="#4d4d4d"/><rect width="12" height="9" transform="translate(61 54)" fill="#4d4d4d"/><text transform="translate(41 78)" fill="#4d4d4d" font-size="12" font-family="SegoeUI-Bold, Segoe UI" font-weight="700" letter-spacing="0.036em"><tspan x="-3.451" y="0">4</tspan></text></g></svg>