<svg xmlns="http://www.w3.org/2000/svg" width="140" height="92" viewBox="0 0 140 92"><g transform="translate(-1 -1)"><g transform="translate(1 1)" fill="#d9d9d9" stroke="#bfbfbf" stroke-miterlimit="10" stroke-width="2"><rect width="140" height="92" stroke="none"/><rect x="1" y="1" width="138" height="90" fill="none"/></g><g transform="translate(0 6)"><rect width="60" height="5" transform="translate(41 52)" fill="#666"/><rect width="30" height="5" transform="translate(41 62)" fill="#666"/><rect width="60" height="32" transform="translate(41 15)" fill="#666"/><path d="M46.046,15.045A3.729,3.729,0,0,0,42.622,17a2.9,2.9,0,0,0,.771,3.5A4.082,4.082,0,0,0,47.4,21.2a3.229,3.229,0,0,0,2.279-2.958A3.446,3.446,0,0,0,46.046,15.045Zm-2.92,16h29.2V24.64l-8.781-7.284L51.887,27.2c-3.81-3.344-4.381-3.446-4.381-3.446s-.571.1-4.381,3.446Z" transform="translate(13.67 7.955)" fill="#d9d9d9"/></g></g></svg>