<svg xmlns="http://www.w3.org/2000/svg" width="240" height="80" viewBox="0 0 240 80"><g transform="translate(-1 -1)"><g transform="translate(1 1)" fill="#d9d9d9" stroke="#bfbfbf" stroke-miterlimit="10" stroke-width="2"><rect width="240" height="80" stroke="none"/><rect x="1" y="1" width="238" height="78" fill="none"/></g><g transform="translate(-10 -1)"><rect width="32" height="5" transform="translate(21 58)" fill="#666"/><rect width="15.98" height="5" transform="translate(21 68)" fill="#666"/><g transform="translate(21 11)"><rect width="32" height="42" fill="#666"/><path d="M44.807,15.045a2.486,2.486,0,0,0-2.283,1.3,1.933,1.933,0,0,0,.514,2.331,2.722,2.722,0,0,0,2.674.473,2.153,2.153,0,0,0,1.519-1.972A2.3,2.3,0,0,0,44.807,15.045ZM42.86,25.712H62.33v-4.27l-5.854-4.856L48.7,23.147c-2.54-2.229-2.92-2.3-2.92-2.3s-.381.068-2.92,2.3Z" transform="translate(-36.33 0.622)" fill="#d9d9d9"/></g></g><g transform="translate(32 -1)"><rect width="32" height="5" transform="translate(21 58)" fill="#666"/><rect width="15.98" height="5" transform="translate(21 68)" fill="#666"/><g transform="translate(21 11)"><rect width="32" height="42" fill="#666"/><path d="M44.807,15.045a2.486,2.486,0,0,0-2.283,1.3,1.933,1.933,0,0,0,.514,2.331,2.722,2.722,0,0,0,2.674.473,2.153,2.153,0,0,0,1.519-1.972A2.3,2.3,0,0,0,44.807,15.045ZM42.86,25.712H62.33v-4.27l-5.854-4.856L48.7,23.147c-2.54-2.229-2.92-2.3-2.92-2.3s-.381.068-2.92,2.3Z" transform="translate(-36.33 0.621)" fill="#d9d9d9"/></g></g><g transform="translate(74 -1)"><rect width="33" height="5" transform="translate(21 58)" fill="#666"/><rect width="16.48" height="5" transform="translate(21 68)" fill="#666"/><g transform="translate(21 11)"><rect width="33" height="42" fill="#666"/><path d="M44.807,15.045a2.486,2.486,0,0,0-2.283,1.3,1.933,1.933,0,0,0,.514,2.331,2.722,2.722,0,0,0,2.674.473,2.153,2.153,0,0,0,1.519-1.972A2.3,2.3,0,0,0,44.807,15.045ZM42.86,25.712H62.33v-4.27l-5.854-4.856L48.7,23.147c-2.54-2.229-2.92-2.3-2.92-2.3s-.381.068-2.92,2.3Z" transform="translate(-35.33 0.621)" fill="#d9d9d9"/></g></g><g transform="translate(117 -1)"><rect width="33" height="5" transform="translate(21 58)" fill="#666"/><rect width="16.48" height="5" transform="translate(21 68)" fill="#666"/><g transform="translate(21 11)"><rect width="33" height="42" fill="#666"/><path d="M44.807,15.045a2.486,2.486,0,0,0-2.283,1.3,1.933,1.933,0,0,0,.514,2.331,2.722,2.722,0,0,0,2.674.473,2.153,2.153,0,0,0,1.519-1.972A2.3,2.3,0,0,0,44.807,15.045ZM42.86,25.712H62.33v-4.27l-5.854-4.856L48.7,23.147c-2.54-2.229-2.92-2.3-2.92-2.3s-.381.068-2.92,2.3Z" transform="translate(-35.33 0.621)" fill="#d9d9d9"/></g></g><g transform="translate(160 -1)"><rect width="33" height="5" transform="translate(21 58)" fill="#666"/><rect width="16.48" height="5" transform="translate(21 68)" fill="#666"/><g transform="translate(21 11)"><rect width="33" height="42" fill="#666"/><path d="M44.807,15.045a2.486,2.486,0,0,0-2.283,1.3,1.933,1.933,0,0,0,.514,2.331,2.722,2.722,0,0,0,2.674.473,2.153,2.153,0,0,0,1.519-1.972A2.3,2.3,0,0,0,44.807,15.045ZM42.86,25.712H62.33v-4.27l-5.854-4.856L48.7,23.147c-2.54-2.229-2.92-2.3-2.92-2.3s-.381.068-2.92,2.3Z" transform="translate(-35.33 0.621)" fill="#d9d9d9"/></g></g><g transform="translate(203 -1)"><rect width="15" height="5" transform="translate(21 58)" fill="#666"/><rect width="15" height="5" transform="translate(21 68)" fill="#666"/><g transform="translate(21 11)"><rect width="15" height="42" fill="#666"/></g></g></g></svg>