<svg xmlns="http://www.w3.org/2000/svg" width="80" height="80" viewBox="0 0 80 80"><g transform="translate(-1 -1)"><rect width="80" height="80" transform="translate(1 1)" fill="#f0f0f0"/><rect width="12" height="9" transform="translate(10 16)" fill="#4d4d4d"/><rect width="12" height="9" transform="translate(27 16)" fill="#4d4d4d"/><rect width="12" height="9" transform="translate(44 16)" fill="#4d4d4d"/><rect width="12" height="9" transform="translate(61 16)" fill="#4d4d4d"/><rect width="12" height="9" transform="translate(10 30)" fill="#4d4d4d"/><rect width="12" height="9" transform="translate(10 44)" fill="#4d4d4d"/><rect width="12" height="9" transform="translate(10 58)" fill="#4d4d4d"/><rect width="12" height="9" transform="translate(27 30)" fill="#4d4d4d"/><rect width="12" height="9" transform="translate(27 44)" fill="#4d4d4d"/><rect width="12" height="9" transform="translate(27 58)" fill="#4d4d4d"/><rect width="12" height="9" transform="translate(44 30)" fill="#4d4d4d"/><rect width="12" height="9" transform="translate(61 30)" fill="#4d4d4d"/><rect width="12" height="9" transform="translate(44 44)" fill="#4d4d4d"/><rect width="12" height="9" transform="translate(44 58)" fill="#4d4d4d"/><rect width="12" height="9" transform="translate(61 44)" fill="#4d4d4d"/><rect width="12" height="9" transform="translate(61 58)" fill="#4d4d4d"/></g></svg>