<svg xmlns="http://www.w3.org/2000/svg" width="240" height="80" viewBox="0 0 240 80"><g transform="translate(-1 -1)"><g transform="translate(1 1)" fill="#d9d9d9" stroke="#bfbfbf" stroke-miterlimit="10" stroke-width="2"><rect width="240" height="80" stroke="none"/><rect x="1" y="1" width="238" height="78" fill="none"/></g><g transform="translate(-10 -1)"><rect width="43" height="5" transform="translate(21 58)" fill="#666"/><rect width="21" height="5" transform="translate(21 68)" fill="#666"/><g transform="translate(21 11)"><rect width="43" height="42" fill="#666"/><path d="M46.046,15.045A3.729,3.729,0,0,0,42.622,17a2.9,2.9,0,0,0,.771,3.5A4.082,4.082,0,0,0,47.4,21.2a3.229,3.229,0,0,0,2.279-2.958A3.446,3.446,0,0,0,46.046,15.045Zm-2.92,16h29.2V24.64l-8.781-7.284L51.887,27.2c-3.81-3.344-4.381-3.446-4.381-3.446s-.571.1-4.381,3.446Z" transform="translate(-35.33 -2.045)" fill="#d9d9d9"/></g></g><g transform="translate(43 -1)"><rect width="43" height="5" transform="translate(21 58)" fill="#666"/><rect width="21" height="5" transform="translate(21 68)" fill="#666"/><g transform="translate(21 11)"><rect width="43" height="42" fill="#666"/><path d="M46.046,15.045A3.729,3.729,0,0,0,42.622,17a2.9,2.9,0,0,0,.771,3.5A4.082,4.082,0,0,0,47.4,21.2a3.229,3.229,0,0,0,2.279-2.958A3.446,3.446,0,0,0,46.046,15.045Zm-2.92,16h29.2V24.64l-8.781-7.284L51.887,27.2c-3.81-3.344-4.381-3.446-4.381-3.446s-.571.1-4.381,3.446Z" transform="translate(-35.33 -2.045)" fill="#d9d9d9"/></g></g><g transform="translate(96 -1)"><rect width="44" height="5" transform="translate(21 58)" fill="#666"/><rect width="22" height="5" transform="translate(21 68)" fill="#666"/><g transform="translate(21 11)"><rect width="44" height="42" fill="#666"/><path d="M46.046,15.045A3.729,3.729,0,0,0,42.622,17a2.9,2.9,0,0,0,.771,3.5A4.082,4.082,0,0,0,47.4,21.2a3.229,3.229,0,0,0,2.279-2.958A3.446,3.446,0,0,0,46.046,15.045Zm-2.92,16h29.2V24.64l-8.781-7.284L51.887,27.2c-3.81-3.344-4.381-3.446-4.381-3.446s-.571.1-4.381,3.446Z" transform="translate(-35.33 -2.045)" fill="#d9d9d9"/></g></g><g transform="translate(150 -1)"><rect width="43" height="5" transform="translate(21 58)" fill="#666"/><rect width="21" height="5" transform="translate(21 68)" fill="#666"/><g transform="translate(21 11)"><rect width="43" height="42" fill="#666"/><path d="M46.046,15.045A3.729,3.729,0,0,0,42.622,17a2.9,2.9,0,0,0,.771,3.5A4.082,4.082,0,0,0,47.4,21.2a3.229,3.229,0,0,0,2.279-2.958A3.446,3.446,0,0,0,46.046,15.045Zm-2.92,16h29.2V24.64l-8.781-7.284L51.887,27.2c-3.81-3.344-4.381-3.446-4.381-3.446s-.571.1-4.381,3.446Z" transform="translate(-35.33 -2.045)" fill="#d9d9d9"/></g></g><g transform="translate(203 -1)"><rect width="15" height="5" transform="translate(21 58)" fill="#666"/><rect width="15" height="5" transform="translate(21 68)" fill="#666"/><g transform="translate(21 11)"><rect width="15" height="42" fill="#666"/></g></g></g></svg>