<svg xmlns="http://www.w3.org/2000/svg" width="328" height="92" viewBox="0 0 328 92"><g transform="translate(-1 -1)"><g transform="translate(1 1)" fill="#d9d9d9" stroke="#bfbfbf" stroke-miterlimit="10" stroke-width="2"><rect width="328" height="92" stroke="none"/><rect x="1" y="1" width="326" height="90" fill="none"/></g><rect width="60" height="32" transform="translate(55 31)" fill="#666"/><rect width="60" height="32" transform="translate(135 31)" fill="#666"/><rect width="60" height="32" transform="translate(215 31)" fill="#666"/><path d="M0,13.962l.069.069L0,14.1,13.787,28.063l.276-.28L.484,14.031,14.063.279,13.787,0Z" transform="translate(20.968 32.969)" fill="none" stroke="#666" stroke-linecap="round" stroke-width="4"/><path d="M0,14.1l.069-.069L0,13.962,13.787,0l.276.28L.484,14.031l13.58,13.752-.276.279Z" transform="translate(309.032 61.031) rotate(180)" fill="none" stroke="#666" stroke-linecap="round" stroke-width="4"/></g></svg>