<svg xmlns="http://www.w3.org/2000/svg" width="80" height="80" viewBox="0 0 80 80"><g transform="translate(2 -1.25)"><rect width="80" height="80" transform="translate(-2 1.25)" fill="#f0f0f0"/><rect width="40" height="22.5" transform="translate(18 30.25)" fill="#4d4d4d"/><path d="M-9.264-8.59V0H-11.11V-6.5a2.21,2.21,0,0,1-.36.255,3.72,3.72,0,0,1-.442.217,3.95,3.95,0,0,1-.486.164,3.552,3.552,0,0,1-.5.1V-7.33a7.7,7.7,0,0,0,1.359-.539,7.736,7.736,0,0,0,1.154-.721ZM.707-2.795A3.08,3.08,0,0,1,.49-1.635a2.832,2.832,0,0,1-.6.935,2.792,2.792,0,0,1-.92.621A2.962,2.962,0,0,1-2.2.146,2.941,2.941,0,0,1-3.468-.117a2.561,2.561,0,0,1-.946-.765,3.575,3.575,0,0,1-.592-1.228,6.066,6.066,0,0,1-.205-1.646,6.779,6.779,0,0,1,.267-1.966A4.513,4.513,0,0,1-4.183-7.23a3.421,3.421,0,0,1,1.2-.97A3.563,3.563,0,0,1-1.4-8.543a3.99,3.99,0,0,1,1.512.229v1.547a2.772,2.772,0,0,0-1.395-.363,1.949,1.949,0,0,0-.85.182,1.878,1.878,0,0,0-.653.516,2.493,2.493,0,0,0-.428.806,3.586,3.586,0,0,0-.167,1.052h.035A2.038,2.038,0,0,1-1.584-5.4a2.3,2.3,0,0,1,.943.188,2.047,2.047,0,0,1,.721.53,2.433,2.433,0,0,1,.463.823A3.284,3.284,0,0,1,.707-2.795ZM-1.1-2.678q0-1.354-1.107-1.354a1.087,1.087,0,0,0-.457.094,1.017,1.017,0,0,0-.352.264,1.2,1.2,0,0,0-.226.4,1.578,1.578,0,0,0-.079.513,1.983,1.983,0,0,0,.082.58,1.541,1.541,0,0,0,.231.472,1.146,1.146,0,0,0,.354.319.9.9,0,0,0,.457.117.989.989,0,0,0,.454-.1A1.017,1.017,0,0,0-1.4-1.661a1.32,1.32,0,0,0,.22-.445A2.031,2.031,0,0,0-1.1-2.678ZM4.151-4.143a1.087,1.087,0,0,1-.762-.278.9.9,0,0,1-.3-.688A.871.871,0,0,1,3.4-5.8a1.158,1.158,0,0,1,.782-.27,1.114,1.114,0,0,1,.776.272.888.888,0,0,1,.3.688.884.884,0,0,1-.308.7A1.169,1.169,0,0,1,4.151-4.143Zm0,4.289a1.08,1.08,0,0,1-.762-.281.9.9,0,0,1-.3-.691A.871.871,0,0,1,3.4-1.518a1.158,1.158,0,0,1,.782-.27,1.114,1.114,0,0,1,.776.272.888.888,0,0,1,.3.688.893.893,0,0,1-.308.7A1.161,1.161,0,0,1,4.151.146Zm9.456-4.752a7.453,7.453,0,0,1-.246,2,4.292,4.292,0,0,1-.718,1.491,3.17,3.17,0,0,1-1.151.935A3.527,3.527,0,0,1,9.95.146,4.379,4.379,0,0,1,8.175-.182V-1.705a2.845,2.845,0,0,0,1.594.434,1.835,1.835,0,0,0,1.494-.65A2.9,2.9,0,0,0,11.807-3.8l-.035-.012a1.9,1.9,0,0,1-1.693.826,2.324,2.324,0,0,1-.952-.193,2.288,2.288,0,0,1-.756-.536,2.45,2.45,0,0,1-.5-.817,2.938,2.938,0,0,1-.179-1.043,3.238,3.238,0,0,1,.217-1.207,2.763,2.763,0,0,1,.606-.937,2.676,2.676,0,0,1,.935-.606,3.278,3.278,0,0,1,1.207-.214,2.763,2.763,0,0,1,1.23.267,2.585,2.585,0,0,1,.929.771A3.6,3.6,0,0,1,13.4-6.27,6.264,6.264,0,0,1,13.606-4.605ZM11.737-5.59a2.177,2.177,0,0,0-.082-.606,1.6,1.6,0,0,0-.229-.489,1.112,1.112,0,0,0-.357-.325.919.919,0,0,0-.463-.12.942.942,0,0,0-.442.105,1.079,1.079,0,0,0-.349.29,1.374,1.374,0,0,0-.229.442,1.826,1.826,0,0,0-.082.557,1.9,1.9,0,0,0,.082.583,1.245,1.245,0,0,0,.231.431.971.971,0,0,0,.36.267,1.173,1.173,0,0,0,.469.091,1.007,1.007,0,0,0,.445-.1,1.073,1.073,0,0,0,.343-.261,1.18,1.18,0,0,0,.223-.387A1.425,1.425,0,0,0,11.737-5.59Z" transform="translate(38 76.25)" fill="#4d4d4d"/></g></svg>