<svg xmlns="http://www.w3.org/2000/svg" width="80" height="80" viewBox="0 0 80 80"><g transform="translate(2.5 -1)"><rect width="80" height="80" transform="translate(-2.5 1)" fill="#f0f0f0"/><rect width="40" height="30" transform="translate(17.5 22)" fill="none" stroke="#4d4d4d" stroke-linecap="square" stroke-linejoin="round" stroke-miterlimit="10" stroke-width="2" stroke-dasharray="1 4"/><path d="M6.572,12V3.813L9.829,7.07l1.414-1.414L7.036,1.449l.036-.036L5.657,0,5.622.036,5.586,0l-1,1H4.571v.015l-.4.4.035.035L0,5.656,1.415,7.07,4.571,3.914V12Z" transform="translate(42.743 60) rotate(180)" fill="#4d4d4d"/><path d="M-18.407,0h-1.869V-5.027q0-.814.07-1.8h-.047a8.852,8.852,0,0,1-.264,1.113L-22.485,0h-1.547l-2-5.654A11,11,0,0,1-26.3-6.826h-.053q.076,1.242.076,2.18V0h-1.705V-8.4h2.771l1.717,4.98a7.012,7.012,0,0,1,.3,1.2h.035a12.094,12.094,0,0,1,.334-1.213L-21.108-8.4h2.7Zm8.389,0h-5.039V-8.4h4.846v1.541h-2.953v1.869h2.748v1.535h-2.748v1.922h3.146ZM-7.23,0V-8.4h2.977q4.477,0,4.477,4.1A4.142,4.142,0,0,1-1-1.172,4.5,4.5,0,0,1-4.253,0Zm1.893-6.861v5.326H-4.4a2.533,2.533,0,0,0,1.931-.738,2.8,2.8,0,0,0,.7-2.01,2.541,2.541,0,0,0-.694-1.89,2.647,2.647,0,0,0-1.948-.688ZM4.95,0H3.058V-8.4H4.95Zm10.2-3.639q0,3.785-3.527,3.785Q8.2.146,8.2-3.551V-8.4h1.9v4.875q0,2.039,1.594,2.039,1.564,0,1.564-1.969V-8.4H15.15ZM27.993,0H26.123V-5.027q0-.814.07-1.8h-.047a8.852,8.852,0,0,1-.264,1.113L23.914,0H22.368l-2-5.654A11,11,0,0,1,20.1-6.826h-.053q.076,1.242.076,2.18V0H18.418V-8.4H21.19l1.717,4.98a7.012,7.012,0,0,1,.3,1.2h.035a12.094,12.094,0,0,1,.334-1.213L25.291-8.4h2.7Z" transform="translate(37.5 76)" fill="#4d4d4d"/></g></svg>