<svg xmlns="http://www.w3.org/2000/svg" width="50" height="49.82" viewBox="0 0 50 49.82"><g transform="translate(0 -0.25)"><rect width="48" height="47.82" transform="translate(1 1.25)" fill="#d9d9d9" stroke="#bfbfbf" stroke-miterlimit="10" stroke-width="2"/><path d="M2.979-6.545V0H2.186V-5.714H2.148L.55-4.653v-.805L2.186-6.545ZM7.031.089a2.45,2.45,0,0,1-.805-.153,1.921,1.921,0,0,1-.735-.5,2.526,2.526,0,0,1-.534-.949,4.8,4.8,0,0,1-.2-1.507,4.758,4.758,0,0,1,.636-2.677,2,2,0,0,1,1.742-.941,2.128,2.128,0,0,1,.98.219,1.882,1.882,0,0,1,.7.609,2.125,2.125,0,0,1,.352.9h-.78a1.446,1.446,0,0,0-.422-.732,1.172,1.172,0,0,0-.831-.291,1.362,1.362,0,0,0-1.2.662A3.374,3.374,0,0,0,5.5-3.413h.051a1.94,1.94,0,0,1,.687-.638,1.875,1.875,0,0,1,.924-.232A1.964,1.964,0,0,1,8.188-4a2.093,2.093,0,0,1,.748.77,2.218,2.218,0,0,1,.281,1.123A2.3,2.3,0,0,1,8.946-1a2.058,2.058,0,0,1-.762.8A2.148,2.148,0,0,1,7.031.089Zm0-.7a1.335,1.335,0,0,0,.724-.2,1.457,1.457,0,0,0,.508-.54,1.535,1.535,0,0,0,.187-.754,1.53,1.53,0,0,0-.181-.74,1.409,1.409,0,0,0-.5-.532,1.318,1.318,0,0,0-.718-.2,1.333,1.333,0,0,0-.732.208,1.538,1.538,0,0,0-.518.545,1.478,1.478,0,0,0-.195.73,1.5,1.5,0,0,0,.184.729,1.482,1.482,0,0,0,.5.547A1.315,1.315,0,0,0,7.031-.614Zm4-.224a.554.554,0,0,1-.406-.169.554.554,0,0,1-.169-.406.554.554,0,0,1,.169-.406.554.554,0,0,1,.406-.169.554.554,0,0,1,.406.169.554.554,0,0,1,.169.406.554.554,0,0,1-.169.406A.554.554,0,0,1,11.033-.837Zm0-3.311a.554.554,0,0,1-.406-.169.554.554,0,0,1-.169-.406.554.554,0,0,1,.169-.406.554.554,0,0,1,.406-.169.554.554,0,0,1,.406.169.554.554,0,0,1,.169.406.554.554,0,0,1-.169.406A.554.554,0,0,1,11.033-4.148Zm4-2.487a2.345,2.345,0,0,1,.805.153,1.97,1.97,0,0,1,.735.5,2.5,2.5,0,0,1,.534.944,4.757,4.757,0,0,1,.2,1.5,4.778,4.778,0,0,1-.638,2.688,2,2,0,0,1-1.74.943,2,2,0,0,1-1.371-.481A2.008,2.008,0,0,1,12.9-1.649h.78a1.433,1.433,0,0,0,.42.743,1.174,1.174,0,0,0,.833.292,1.367,1.367,0,0,0,1.2-.662,3.365,3.365,0,0,0,.439-1.87h-.051a1.969,1.969,0,0,1-.686.636,1.863,1.863,0,0,1-.925.233,1.973,1.973,0,0,1-1.031-.28,2.077,2.077,0,0,1-.748-.77,2.228,2.228,0,0,1-.28-1.123,2.28,2.28,0,0,1,.27-1.1,2.064,2.064,0,0,1,.761-.8A2.125,2.125,0,0,1,15.034-6.635Zm0,.7a1.343,1.343,0,0,0-.724.2A1.448,1.448,0,0,0,13.8-5.2a1.513,1.513,0,0,0-.187.746,1.537,1.537,0,0,0,.181.743,1.4,1.4,0,0,0,.5.531,1.326,1.326,0,0,0,.718.2,1.335,1.335,0,0,0,.73-.208,1.543,1.543,0,0,0,.521-.547,1.446,1.446,0,0,0,.193-.729,1.474,1.474,0,0,0-.184-.719,1.489,1.489,0,0,0-.5-.543A1.315,1.315,0,0,0,15.034-5.932Z" transform="translate(15.27 46.25)" fill="#616161"/><rect width="24" height="13.5" rx="2" transform="translate(13 18.409)" fill="#666"/></g></svg>