<?xml version="1.0" encoding="utf-8"?>
<!-- Generator: Adobe Illustrator 26.0.1, SVG Export Plug-In . SVG Version: 6.00 Build 0)  -->
<svg version="1.1" id="Layer_1" xmlns="http://www.w3.org/2000/svg" xmlns:xlink="http://www.w3.org/1999/xlink" x="0px" y="0px"
	 viewBox="0 0 50 49.9" style="enable-background:new 0 0 50 49.9;" xml:space="preserve">
<style type="text/css">
	.st0{fill:#D9D9D9;stroke:#BFBFBF;stroke-width:2;stroke-miterlimit:10;}
	.st1{fill:none;stroke:#666666;stroke-width:2;stroke-miterlimit:10;stroke-dasharray:4,2;}
	.st2{fill:#666666;}
	.st3{enable-background:new    ;}
</style>
<g transform="translate(0.5)">
	<rect x="0.5" y="1" class="st0" width="48" height="47.9"/>
	<path class="st1" d="M15,8.2h20c1.1,0,2,0.7,2,1.5v14.6c0,0.8-0.9,1.5-2,1.5H15c-1.1,0-2-0.7-2-1.5V9.7C13,8.9,13.9,8.2,15,8.2z"/>
	<path class="st2" d="M23.6,24.4h2.6c0.4,0,0.7,0.3,0.7,0.6l0,0v5.4h2.8c0.4,0,0.7,0.3,0.7,0.6c0,0.2-0.1,0.3-0.2,0.5l-4.8,4.8
		c-0.2,0.3-0.7,0.3-0.9,0l0,0l-4.8-4.8c-0.3-0.3-0.3-0.7,0-0.9c0.1-0.1,0.3-0.2,0.5-0.2H23V25C22.9,24.7,23.2,24.4,23.6,24.4
		L23.6,24.4z"/>
</g>
<g class="st3">
	<path class="st2" d="M9.1,43.5c0,0.1,0.1,0.2,0.1,0.3c0-0.1,0.1-0.2,0.1-0.3s0.1-0.2,0.1-0.3l2.4-4.4c0-0.1,0.1-0.1,0.1-0.1
		c0,0,0.1,0,0.2,0h0.7v7.2h-0.9v-5.3c0-0.1,0-0.1,0-0.2s0-0.2,0-0.2l-2.5,4.5c-0.1,0.1-0.2,0.2-0.4,0.2H9.1c-0.1,0-0.3-0.1-0.3-0.2
		l-2.5-4.5c0,0.1,0,0.2,0,0.3s0,0.2,0,0.2v5.3H5.5v-7.2h0.7c0.1,0,0.2,0,0.2,0c0,0,0.1,0.1,0.1,0.1L9,43.3C9,43.3,9.1,43.4,9.1,43.5
		z"/>
	<path class="st2" d="M15.7,39.2c0,0.1,0,0.2-0.1,0.2c0,0.1-0.1,0.1-0.1,0.2c-0.1,0.1-0.1,0.1-0.2,0.1s-0.2,0-0.2,0
		c-0.1,0-0.2,0-0.2,0c-0.1,0-0.1-0.1-0.2-0.1c-0.1-0.1-0.1-0.1-0.1-0.2c0-0.1-0.1-0.2-0.1-0.2c0-0.1,0-0.2,0.1-0.2
		c0-0.1,0.1-0.1,0.1-0.2c0.1-0.1,0.1-0.1,0.2-0.1c0.1,0,0.2,0,0.2,0c0.1,0,0.2,0,0.2,0s0.1,0.1,0.2,0.1c0.1,0.1,0.1,0.1,0.1,0.2
		C15.7,39,15.7,39.1,15.7,39.2z M15.5,40.8v5.1h-0.9v-5.1H15.5z"/>
	<path class="st2" d="M17.1,45.9v-5.1h0.5c0.1,0,0.2,0.1,0.2,0.2l0.1,0.5c0.2-0.2,0.5-0.4,0.7-0.6c0.3-0.2,0.6-0.2,0.9-0.2
		c0.3,0,0.5,0,0.7,0.1c0.2,0.1,0.4,0.2,0.5,0.4c0.1,0.2,0.2,0.4,0.3,0.6c0.1,0.2,0.1,0.5,0.1,0.8v3.2h-0.9v-3.2
		c0-0.4-0.1-0.7-0.3-0.9c-0.2-0.2-0.4-0.3-0.8-0.3c-0.3,0-0.5,0.1-0.7,0.2s-0.4,0.3-0.6,0.5v3.7H17.1z"/>
	<path class="st2" d="M22.3,45.3c0-0.1,0-0.2,0-0.2c0-0.1,0.1-0.1,0.1-0.2c0.1-0.1,0.1-0.1,0.2-0.1s0.2,0,0.2,0c0.1,0,0.2,0,0.2,0
		s0.1,0.1,0.2,0.1s0.1,0.1,0.1,0.2c0,0.1,0,0.2,0,0.2c0,0.1,0,0.2,0,0.2c0,0.1-0.1,0.1-0.1,0.2c-0.1,0.1-0.1,0.1-0.2,0.1
		c-0.1,0-0.2,0-0.2,0c-0.1,0-0.2,0-0.2,0c-0.1,0-0.1-0.1-0.2-0.1c-0.1-0.1-0.1-0.1-0.1-0.2S22.3,45.4,22.3,45.3z"/>
	<path class="st2" d="M30.8,39.1c0,0.1,0,0.2-0.1,0.3c-0.1,0.1-0.2,0.1-0.4,0.1h-2.2l-0.3,1.9c0.4-0.1,0.7-0.1,1-0.1
		c0.4,0,0.7,0.1,1,0.2c0.3,0.1,0.5,0.3,0.7,0.5s0.3,0.4,0.4,0.7c0.1,0.3,0.1,0.6,0.1,0.9c0,0.4-0.1,0.7-0.2,1
		c-0.1,0.3-0.3,0.6-0.5,0.8c-0.2,0.2-0.5,0.4-0.8,0.5c-0.3,0.1-0.7,0.2-1,0.2c-0.2,0-0.4,0-0.6-0.1s-0.4-0.1-0.5-0.2
		c-0.2-0.1-0.3-0.1-0.5-0.2c-0.1-0.1-0.3-0.2-0.4-0.3l0.3-0.4c0.1-0.1,0.1-0.1,0.2-0.1c0.1,0,0.1,0,0.2,0.1s0.2,0.1,0.3,0.2
		c0.1,0.1,0.3,0.1,0.4,0.2c0.2,0.1,0.4,0.1,0.6,0.1c0.2,0,0.5,0,0.7-0.1s0.4-0.2,0.5-0.3s0.2-0.3,0.3-0.5c0.1-0.2,0.1-0.4,0.1-0.7
		c0-0.2,0-0.4-0.1-0.6c-0.1-0.2-0.2-0.3-0.3-0.5c-0.1-0.1-0.3-0.2-0.5-0.3C29.1,42,28.9,42,28.6,42c-0.2,0-0.4,0-0.6,0
		c-0.2,0-0.4,0.1-0.6,0.1L26.9,42l0.6-3.3h3.4V39.1z"/>
	<path class="st2" d="M37.3,42.3c0,0.6-0.1,1.2-0.2,1.6c-0.1,0.5-0.3,0.8-0.6,1.1c-0.2,0.3-0.5,0.5-0.8,0.7c-0.3,0.1-0.7,0.2-1,0.2
		c-0.4,0-0.7-0.1-1-0.2c-0.3-0.1-0.6-0.4-0.8-0.7c-0.2-0.3-0.4-0.7-0.5-1.1c-0.1-0.5-0.2-1-0.2-1.6s0.1-1.2,0.2-1.6
		c0.1-0.5,0.3-0.8,0.5-1.1s0.5-0.5,0.8-0.7c0.3-0.1,0.7-0.2,1-0.2c0.4,0,0.7,0.1,1,0.2c0.3,0.1,0.6,0.4,0.8,0.7s0.4,0.7,0.6,1.1
		C37.2,41.1,37.3,41.6,37.3,42.3z M36.3,42.3c0-0.5,0-1-0.1-1.4c-0.1-0.4-0.2-0.7-0.4-0.9c-0.2-0.2-0.3-0.4-0.5-0.5
		c-0.2-0.1-0.4-0.1-0.6-0.1c-0.2,0-0.4,0-0.6,0.1c-0.2,0.1-0.4,0.3-0.5,0.5c-0.2,0.2-0.3,0.5-0.4,0.9C33,41.3,33,41.7,33,42.3
		s0,1,0.1,1.4s0.2,0.7,0.4,0.9c0.2,0.2,0.3,0.4,0.5,0.5c0.2,0.1,0.4,0.1,0.6,0.1c0.2,0,0.4,0,0.6-0.1c0.2-0.1,0.4-0.3,0.5-0.5
		c0.2-0.2,0.3-0.5,0.4-0.9S36.3,42.8,36.3,42.3z"/>
	<path class="st2" d="M41.1,40.4c0,0.3,0,0.5-0.1,0.8s-0.2,0.4-0.3,0.6c-0.1,0.2-0.3,0.3-0.5,0.3s-0.4,0.1-0.6,0.1
		c-0.2,0-0.4,0-0.6-0.1c-0.2-0.1-0.4-0.2-0.5-0.3c-0.1-0.2-0.3-0.3-0.3-0.6s-0.1-0.5-0.1-0.8c0-0.3,0-0.5,0.1-0.8
		c0.1-0.2,0.2-0.4,0.3-0.6s0.3-0.3,0.5-0.4c0.2-0.1,0.4-0.1,0.6-0.1c0.2,0,0.4,0,0.6,0.1c0.2,0.1,0.4,0.2,0.5,0.4
		c0.1,0.2,0.3,0.3,0.3,0.6C41,39.9,41.1,40.1,41.1,40.4z M43.6,38.9c0-0.1,0.1-0.1,0.1-0.1c0,0,0.1,0,0.2,0h0.6l-5.2,7
		c0,0-0.1,0.1-0.1,0.1s-0.1,0-0.2,0h-0.7L43.6,38.9z M40.4,40.4c0-0.2,0-0.4-0.1-0.6c0-0.2-0.1-0.3-0.2-0.4
		c-0.1-0.1-0.2-0.2-0.3-0.2s-0.2-0.1-0.3-0.1s-0.2,0-0.3,0.1s-0.2,0.1-0.3,0.2c-0.1,0.1-0.1,0.2-0.2,0.4s-0.1,0.3-0.1,0.6
		c0,0.2,0,0.4,0.1,0.6c0,0.2,0.1,0.3,0.2,0.4s0.2,0.2,0.3,0.2s0.2,0.1,0.3,0.1s0.2,0,0.3-0.1s0.2-0.1,0.3-0.2
		c0.1-0.1,0.1-0.2,0.2-0.4C40.4,40.8,40.4,40.6,40.4,40.4z M45,44.2c0,0.3,0,0.5-0.1,0.8c-0.1,0.2-0.2,0.4-0.3,0.6
		c-0.1,0.2-0.3,0.3-0.5,0.3s-0.4,0.1-0.6,0.1c-0.2,0-0.4,0-0.6-0.1c-0.2-0.1-0.4-0.2-0.5-0.3c-0.1-0.2-0.3-0.3-0.3-0.6
		c-0.1-0.2-0.1-0.5-0.1-0.8c0-0.3,0-0.5,0.1-0.8c0.1-0.2,0.2-0.4,0.3-0.6s0.3-0.3,0.5-0.3c0.2-0.1,0.4-0.1,0.6-0.1
		c0.2,0,0.4,0,0.6,0.1s0.4,0.2,0.5,0.3s0.3,0.3,0.3,0.6C45,43.6,45,43.9,45,44.2z M44.4,44.2c0-0.2,0-0.4-0.1-0.6
		c0-0.2-0.1-0.3-0.2-0.4c-0.1-0.1-0.2-0.2-0.3-0.2s-0.2-0.1-0.3-0.1s-0.2,0-0.3,0.1s-0.2,0.1-0.3,0.2s-0.1,0.2-0.2,0.4
		c0,0.2-0.1,0.3-0.1,0.6c0,0.2,0,0.4,0.1,0.6c0,0.1,0.1,0.3,0.2,0.4s0.2,0.2,0.3,0.2s0.2,0.1,0.3,0.1s0.2,0,0.3-0.1s0.2-0.1,0.3-0.2
		c0.1-0.1,0.1-0.2,0.2-0.4C44.3,44.6,44.4,44.4,44.4,44.2z"/>
</g>
</svg>
