<svg xmlns="http://www.w3.org/2000/svg" width="50" height="50" viewBox="0 0 50 50"><g transform="translate(0.3 0.2)"><rect width="48" height="48" transform="translate(0.7 0.8)" fill="#d9d9d9" stroke="#bfbfbf" stroke-miterlimit="10" stroke-width="2"/><path d="M2.979-6.545V0H2.186V-5.714H2.148L.55-4.653v-.805L2.186-6.545ZM6.993.089a1.914,1.914,0,0,1-1.68-.879,4.4,4.4,0,0,1-.6-2.483,4.375,4.375,0,0,1,.6-2.477,1.913,1.913,0,0,1,1.675-.885,1.913,1.913,0,0,1,1.675.885,4.375,4.375,0,0,1,.6,2.477,4.4,4.4,0,0,1-.6,2.483A1.914,1.914,0,0,1,6.993.089Zm0-.7A1.228,1.228,0,0,0,8.105-1.3a4,4,0,0,0,.4-1.969,4.013,4.013,0,0,0-.4-1.974,1.229,1.229,0,0,0-1.109-.7,1.229,1.229,0,0,0-1.109.7,4.013,4.013,0,0,0-.4,1.974,3.987,3.987,0,0,0,.4,1.969A1.229,1.229,0,0,0,6.993-.614Zm4.053-.224a.554.554,0,0,1-.406-.169.554.554,0,0,1-.169-.406.554.554,0,0,1,.169-.406.554.554,0,0,1,.406-.169.554.554,0,0,1,.406.169.554.554,0,0,1,.169.406.554.554,0,0,1-.169.406A.554.554,0,0,1,11.045-.837Zm0-3.311a.554.554,0,0,1-.406-.169.554.554,0,0,1-.169-.406.554.554,0,0,1,.169-.406.554.554,0,0,1,.406-.169.554.554,0,0,1,.406.169.554.554,0,0,1,.169.406.554.554,0,0,1-.169.406A.554.554,0,0,1,11.045-4.148Zm4.219-2.4V0h-.793V-5.714h-.038l-1.6,1.061v-.805l1.636-1.087Z" transform="translate(16.32 45.8)" fill="#616161"/><rect width="24" height="2.4" rx="1" transform="translate(12.7 23.6)" fill="#666"/></g></svg>