<svg xmlns="http://www.w3.org/2000/svg" width="80" height="80" viewBox="0 0 80 80"><g transform="translate(2.5 -1)"><rect width="80" height="80" transform="translate(-2.5 1)" fill="#f0f0f0"/><rect width="40" height="40" transform="translate(17.5 14)" fill="none" stroke="#4d4d4d" stroke-linecap="square" stroke-linejoin="round" stroke-miterlimit="10" stroke-width="2" stroke-dasharray="1 4"/><path d="M6.572,12V3.813L9.829,7.07l1.414-1.414L7.036,1.449l.036-.036L5.657,0,5.622.036,5.586,0l-1,1H4.571v.015l-.4.4.035.035L0,5.656,1.415,7.07,4.571,3.914V12Z" transform="translate(42.121 62) rotate(180)" fill="#4d4d4d"/><path d="M-15.651,0h-5V-8.4h1.893v6.867h3.111ZM-5.427,0H-7.49l-.6-1.869h-2.988L-11.668,0h-2.051l3.059-8.4h2.244ZM-8.521-3.322l-.9-2.824A3.68,3.68,0,0,1-9.564-6.9h-.047a3.2,3.2,0,0,1-.146.732l-.914,2.848ZM4.11,0H1.937L.63-2.162Q.483-2.408.349-2.6a2.442,2.442,0,0,0-.272-.331,1.083,1.083,0,0,0-.287-.211.729.729,0,0,0-.325-.073h-.51V0H-2.938V-8.4h3Q3.12-8.4,3.12-6.117a2.366,2.366,0,0,1-.135.812,2.254,2.254,0,0,1-.381.671,2.414,2.414,0,0,1-.595.516,3.067,3.067,0,0,1-.776.34v.023a1.2,1.2,0,0,1,.363.19,2.6,2.6,0,0,1,.34.308,4.292,4.292,0,0,1,.313.378q.149.2.272.4ZM-1.046-6.984v2.338h.82A1.36,1.36,0,0,0,.753-5a1.173,1.173,0,0,0,.375-.885q0-1.1-1.318-1.1ZM13.115-.562a6.047,6.047,0,0,1-3.059.709A4.423,4.423,0,0,1,6.86-.976,4.082,4.082,0,0,1,5.691-4.066,4.315,4.315,0,0,1,6.968-7.295a4.654,4.654,0,0,1,3.4-1.248,6.9,6.9,0,0,1,2.355.369V-6.4a4.682,4.682,0,0,0-2.379-.562A2.554,2.554,0,0,0,8.424-6.2a2.809,2.809,0,0,0-.741,2.042,2.817,2.817,0,0,0,.665,2,2.344,2.344,0,0,0,1.8.709,2.5,2.5,0,0,0,1.078-.193V-3.275H9.541V-4.787h3.574ZM21.229,0H16.19V-8.4h4.846v1.541H18.082v1.869H20.83v1.535H18.082v1.922h3.146Z" transform="translate(37.5 76)" fill="#4d4d4d"/></g></svg>