<svg xmlns="http://www.w3.org/2000/svg" width="50" height="49.865" viewBox="0 0 50 49.865"><g transform="translate(0.5)"><rect width="48" height="47.865" transform="translate(0.5 1)" fill="#d9d9d9" stroke="#bfbfbf" stroke-miterlimit="10" stroke-width="2"/><path d="M.793,0V-6.545H4.717v.7H1.585v2.212H4.423v.7H1.585V0ZM5.97,0V-4.909h.754V0Zm.384-5.727a.531.531,0,0,1-.379-.15.48.48,0,0,1-.158-.361A.48.48,0,0,1,5.975-6.6a.531.531,0,0,1,.379-.15.531.531,0,0,1,.379.15.48.48,0,0,1,.158.361.48.48,0,0,1-.158.361A.531.531,0,0,1,6.354-5.727Zm2.506-.818V0H8.105V-6.545Zm2.135,0V0H10.24V-6.545Z" transform="translate(18.486 46)" fill="#616161"/><rect width="24" height="24" rx="2" transform="translate(12.98 5)" fill="none" stroke="#666" stroke-miterlimit="10" stroke-width="2" stroke-dasharray="4 2"/><path d="M23.7,25.4h2.6a.65.65,0,0,1,.65.66v5.42h2.82a.65.65,0,0,1,.46,1.11l-4.77,4.78a.64.64,0,0,1-.92,0l-4.77-4.78a.65.65,0,0,1,.46-1.11h2.82V26.06a.65.65,0,0,1,.65-.66Z" transform="translate(-0.099)" fill="#666"/></g></svg>