<svg xmlns="http://www.w3.org/2000/svg" width="50" height="50" viewBox="0 0 50 50"><g transform="translate(0 0.37)"><rect width="48" height="48" transform="translate(1 0.63)" fill="#d9d9d9" stroke="#bfbfbf" stroke-miterlimit="10" stroke-width="2"/><path d="M2.889.089A2.771,2.771,0,0,1,1.763-.128,1.913,1.913,0,0,1,.98-.733a1.609,1.609,0,0,1-.315-.9H1.47a.953.953,0,0,0,.436.748,1.674,1.674,0,0,0,.97.275A1.624,1.624,0,0,0,3.914-.935a1.021,1.021,0,0,0,.407-.842,1.109,1.109,0,0,0-.4-.885A1.717,1.717,0,0,0,2.774-3H2.25v-.7h.524a1.422,1.422,0,0,0,.949-.31,1.028,1.028,0,0,0,.368-.828,1.041,1.041,0,0,0-.323-.8,1.217,1.217,0,0,0-.866-.3,1.658,1.658,0,0,0-.638.123,1.208,1.208,0,0,0-.487.355.931.931,0,0,0-.2.558H.805a1.566,1.566,0,0,1,.31-.9,1.955,1.955,0,0,1,.762-.606,2.447,2.447,0,0,1,1.037-.217,2.093,2.093,0,0,1,1.042.244,1.743,1.743,0,0,1,.668.644,1.682,1.682,0,0,1,.233.863,1.538,1.538,0,0,1-.289.943,1.482,1.482,0,0,1-.785.54v.051a1.523,1.523,0,0,1,.968.526A1.593,1.593,0,0,1,5.1-1.777a1.658,1.658,0,0,1-.289.957,1.983,1.983,0,0,1-.788.666A2.558,2.558,0,0,1,2.889.089ZM6.4,0V-.575L8.565-2.94q.38-.415.626-.724a2.677,2.677,0,0,0,.366-.582,1.413,1.413,0,0,0,.12-.574,1.019,1.019,0,0,0-.36-.821,1.337,1.337,0,0,0-.893-.3,1.213,1.213,0,0,0-.9.34,1.226,1.226,0,0,0-.336.9H6.43A1.9,1.9,0,0,1,6.7-5.714a1.84,1.84,0,0,1,.724-.678A2.168,2.168,0,0,1,8.45-6.635a2.091,2.091,0,0,1,1.02.243,1.827,1.827,0,0,1,.7.655,1.722,1.722,0,0,1,.252.917,1.984,1.984,0,0,1-.129.7,3.151,3.151,0,0,1-.447.764q-.318.42-.881,1.024L7.491-.754V-.7h3.043V0Zm6.009-.837a.554.554,0,0,1-.406-.169.554.554,0,0,1-.169-.406.554.554,0,0,1,.169-.406.554.554,0,0,1,.406-.169.554.554,0,0,1,.406.169.554.554,0,0,1,.169.406.554.554,0,0,1-.169.406A.554.554,0,0,1,12.413-.837Zm0-3.311a.554.554,0,0,1-.406-.169.554.554,0,0,1-.169-.406.554.554,0,0,1,.169-.406.554.554,0,0,1,.406-.169.554.554,0,0,1,.406.169.554.554,0,0,1,.169.406.554.554,0,0,1-.169.406A.554.554,0,0,1,12.413-4.148Zm4-2.487a2.345,2.345,0,0,1,.805.153,1.97,1.97,0,0,1,.735.5,2.5,2.5,0,0,1,.534.944,4.757,4.757,0,0,1,.2,1.5,4.778,4.778,0,0,1-.638,2.688,2,2,0,0,1-1.74.943,2,2,0,0,1-1.371-.481,2.008,2.008,0,0,1-.662-1.258h.78a1.433,1.433,0,0,0,.42.743,1.174,1.174,0,0,0,.833.292,1.367,1.367,0,0,0,1.2-.662,3.365,3.365,0,0,0,.439-1.87H17.9a1.969,1.969,0,0,1-.686.636,1.863,1.863,0,0,1-.925.233,1.973,1.973,0,0,1-1.031-.28,2.077,2.077,0,0,1-.748-.77,2.228,2.228,0,0,1-.28-1.123,2.28,2.28,0,0,1,.27-1.1,2.064,2.064,0,0,1,.761-.8A2.125,2.125,0,0,1,16.415-6.635Zm0,.7a1.343,1.343,0,0,0-.724.2,1.448,1.448,0,0,0-.508.537A1.513,1.513,0,0,0,15-4.449a1.537,1.537,0,0,0,.181.743,1.4,1.4,0,0,0,.5.531,1.326,1.326,0,0,0,.718.2,1.335,1.335,0,0,0,.73-.208,1.543,1.543,0,0,0,.521-.547,1.446,1.446,0,0,0,.193-.729,1.474,1.474,0,0,0-.184-.719,1.489,1.489,0,0,0-.5-.543A1.315,1.315,0,0,0,16.415-5.932Z" transform="translate(14.58 45.63)" fill="#616161"/><rect width="24" height="6.75" rx="2" transform="translate(13 21.255)" fill="#666"/></g></svg>