<svg xmlns="http://www.w3.org/2000/svg" width="80" height="80" viewBox="0 0 80 80"><g transform="translate(-1 -1)"><rect width="80" height="80" transform="translate(1 1)" fill="#f0f0f0"/><path d="M-2.234,0H-4.8V-2.5h-.062A5.365,5.365,0,0,1-9.781.375,5.26,5.26,0,0,1-13.523-.891,4.385,4.385,0,0,1-14.875-4.25q0-4.484,5.281-5.219l4.8-.672q0-4.078-3.3-4.078a7.877,7.877,0,0,0-5.219,1.969v-2.625a9.915,9.915,0,0,1,5.438-1.5q5.641,0,5.641,5.969ZM-4.8-8.094l-3.859.531a6.266,6.266,0,0,0-2.687.883,2.546,2.546,0,0,0-.906,2.242,2.442,2.442,0,0,0,.836,1.914,3.23,3.23,0,0,0,2.227.742A4.113,4.113,0,0,0-6.039-3.117,4.773,4.773,0,0,0-4.8-6.5ZM14.047,0H11.484V-2.5h-.062A5.365,5.365,0,0,1,6.5.375,5.26,5.26,0,0,1,2.758-.891,4.385,4.385,0,0,1,1.406-4.25q0-4.484,5.281-5.219l4.8-.672q0-4.078-3.3-4.078A7.877,7.877,0,0,0,2.969-12.25v-2.625a9.915,9.915,0,0,1,5.438-1.5q5.641,0,5.641,5.969ZM11.484-8.094l-3.859.531a6.266,6.266,0,0,0-2.687.883,2.546,2.546,0,0,0-.906,2.242,2.442,2.442,0,0,0,.836,1.914,3.23,3.23,0,0,0,2.227.742,4.113,4.113,0,0,0,3.148-1.336A4.773,4.773,0,0,0,11.484-6.5Z" transform="translate(41 55)" fill="#4d4d4d"/></g></svg>