<svg xmlns="http://www.w3.org/2000/svg" width="210" height="80" viewBox="0 0 210 80"><g fill="#d9d9d9" stroke="#bfbfbf" stroke-width="2"><rect width="210" height="80" stroke="none"/><rect x="1" y="1" width="208" height="78" fill="none"/></g><path d="M2.466-35.437H15.153V0h6.125V-35.437H33.985v-5.29H2.466ZM40.449,0h5.946V-30.545H40.449Zm3-35.258A3.676,3.676,0,0,0,47.21-38.8a3.692,3.692,0,0,0-3.758-3.56,3.679,3.679,0,0,0-3.758,3.56A3.663,3.663,0,0,0,43.452-35.258Zm25.2,4.713H62.383v-7.318H56.437v7.318H51.963v4.773h4.474V-7.736C56.418-2.187,60.653.5,65.346.4A11.384,11.384,0,0,0,69.2-.239L68.13-5.15a9.668,9.668,0,0,1-2.088.259c-1.929,0-3.659-.636-3.659-4.077v-16.8h6.264ZM81.792-40.727H75.847V0h5.946ZM102.951.616c6.662,0,11.375-3.281,12.727-8.253L110.051-8.65c-1.074,2.883-3.659,4.355-7.04,4.355-5.091,0-8.511-3.3-8.67-9.187h21.716v-2.108c0-11.037-6.6-15.352-13.523-15.352-8.511,0-14.119,6.483-14.119,15.869C88.415-5.588,93.943.616,102.951.616ZM94.361-17.937c.239-4.335,3.381-8.094,8.213-8.094,4.614,0,7.636,3.42,7.656,8.094ZM137.435,0h26.806V-5.27H145.906v-.3L154-14.04c7.457-7.537,9.585-11.136,9.585-15.69,0-6.543-5.329-11.554-13.005-11.554-7.616,0-13.184,4.932-13.184,12.369h5.866c-.02-4.375,2.8-7.239,7.2-7.239,4.136,0,7.278,2.545,7.278,6.6,0,3.6-2.148,6.185-6.523,10.818L137.435-4.454Z" transform="translate(10 60)" fill="#666"/></svg>