<svg xmlns="http://www.w3.org/2000/svg" width="275" height="80" viewBox="0 0 275 80"><g transform="translate(42 13)"><g transform="translate(-42 -13)" fill="#d9d9d9" stroke="#bfbfbf" stroke-width="2"><rect width="275" height="80" stroke="none"/><rect x="1" y="1" width="273" height="78" fill="none"/></g><path d="M18.58,0H5.8V-43.636H19.347a20.8,20.8,0,0,1,10.685,2.6,17.055,17.055,0,0,1,6.808,7.457A26.4,26.4,0,0,1,39.2-21.925q-.021,10.291-5.4,16.108T18.58,0ZM9.78-3.58h8.565q8.438,0,12.72-4.9t4.283-13.445q-.021-8.48-4.155-13.306T19.112-40.057H9.78ZM48.089,0V-32.727H51.9V0Zm1.939-38.352a2.766,2.766,0,0,1-2-.81,2.588,2.588,0,0,1-.831-1.918,2.578,2.578,0,0,1,.831-1.928,2.786,2.786,0,0,1,2-.8,2.822,2.822,0,0,1,2.013.8,2.563,2.563,0,0,1,.842,1.928,2.573,2.573,0,0,1-.842,1.918A2.8,2.8,0,0,1,50.028-38.352Zm33.92,12.805-3.473.98a8.535,8.535,0,0,0-2.536-3.739,7.548,7.548,0,0,0-5.071-1.523,8.941,8.941,0,0,0-5.444,1.577,4.843,4.843,0,0,0-2.141,4.07,4.371,4.371,0,0,0,1.46,3.43,10.71,10.71,0,0,0,4.506,2.067l4.943,1.214q8.224,2.024,8.224,8.629A8.266,8.266,0,0,1,82.884-3.92,10.235,10.235,0,0,1,78.612-.543,15.387,15.387,0,0,1,72.273.682a13.526,13.526,0,0,1-7.915-2.163,9.778,9.778,0,0,1-3.974-6.254l3.643-.895q1.385,5.9,8.182,5.9a9.812,9.812,0,0,0,6.03-1.694A5.124,5.124,0,0,0,80.5-8.672q0-4.07-5.327-5.327l-5.348-1.278a12.262,12.262,0,0,1-6.307-3.239,7.8,7.8,0,0,1-2.045-5.5,7.976,7.976,0,0,1,1.47-4.762A9.863,9.863,0,0,1,66.989-32a14.067,14.067,0,0,1,5.881-1.172A11.646,11.646,0,0,1,80.06-31.14,11.287,11.287,0,0,1,83.949-25.547Zm8.778,37.82v-45h3.686v6.243h.447A16.264,16.264,0,0,1,98.725-29.5a9.674,9.674,0,0,1,3.164-2.61,10.45,10.45,0,0,1,4.986-1.065,12.063,12.063,0,0,1,7.085,2.12,13.935,13.935,0,0,1,4.73,5.923,21.588,21.588,0,0,1,1.694,8.853,21.72,21.72,0,0,1-1.694,8.885,14,14,0,0,1-4.73,5.945A11.95,11.95,0,0,1,106.918.682a10.413,10.413,0,0,1-4.954-1.065,9.99,9.99,0,0,1-3.217-2.631,14.635,14.635,0,0,1-1.886-3.058H96.52V12.273Zm3.75-28.615a19.392,19.392,0,0,0,1.183,7.01,10.846,10.846,0,0,0,3.42,4.8,8.528,8.528,0,0,0,5.391,1.737,8.575,8.575,0,0,0,5.518-1.8,11.148,11.148,0,0,0,3.43-4.869,19.164,19.164,0,0,0,1.172-6.882,18.846,18.846,0,0,0-1.161-6.8,10.985,10.985,0,0,0-3.409-4.8,8.665,8.665,0,0,0-5.55-1.779,8.666,8.666,0,0,0-5.433,1.715,10.582,10.582,0,0,0-3.4,4.73A19.21,19.21,0,0,0,96.477-16.342Zm36.03-27.294V0h-3.793V-43.636ZM151.662.746A12.476,12.476,0,0,1,146.25-.415a9.364,9.364,0,0,1-3.9-3.366A9.545,9.545,0,0,1,140.9-9.141a7.757,7.757,0,0,1,1.6-5.146,9.8,9.8,0,0,1,4.442-2.887,31.912,31.912,0,0,1,6.531-1.428q4.134-.511,6.349-.927t2.216-2.269v-.767a6.989,6.989,0,0,0-1.992-5.284,7.924,7.924,0,0,0-5.721-1.918,9.85,9.85,0,0,0-5.763,1.555,8.594,8.594,0,0,0-3.121,3.665l-3.6-1.3a10.707,10.707,0,0,1,3.068-4.293,12.331,12.331,0,0,1,4.389-2.322,17.372,17.372,0,0,1,4.922-.714,16.559,16.559,0,0,1,3.9.49,11.388,11.388,0,0,1,3.782,1.694,8.768,8.768,0,0,1,2.844,3.335,11.93,11.93,0,0,1,1.087,5.433V0h-3.793V-5.178H161.8a11.063,11.063,0,0,1-3.537,4.048A10.776,10.776,0,0,1,151.662.746Zm.511-3.473a9.983,9.983,0,0,0,5.241-1.332,9.17,9.17,0,0,0,3.42-3.569,10.22,10.22,0,0,0,1.2-4.922v-4.73a4.88,4.88,0,0,1-2.088.927,30.864,30.864,0,0,1-3.335.65q-1.8.256-3.143.426a16.43,16.43,0,0,0-6.467,1.918,4.77,4.77,0,0,0-2.312,4.389,5.475,5.475,0,0,0,2.131,4.6A8.507,8.507,0,0,0,152.173-2.727Zm25.185,15a10.47,10.47,0,0,1-2.1-.2,6.886,6.886,0,0,1-1.566-.479l1.023-3.345a6.715,6.715,0,0,0,4.879.011q1.982-.906,3.345-4.613L184.134.32,172.1-32.727h4.112l9.716,27.72h.3l9.716-27.72h4.112L186.2,5.178Q183.6,12.273,177.358,12.273Zm60.277-55.909V0h-3.984V-39.46h-.256l-10.227,6.8V-36.8l10.313-6.839Z" transform="translate(-32 49)" fill="#666"/></g></svg>