<svg xmlns="http://www.w3.org/2000/svg" width="210" height="80" viewBox="0 0 210 80"><g fill="#d9d9d9" stroke="#bfbfbf" stroke-width="2"><rect width="210" height="80" stroke="none"/><rect x="1" y="1" width="208" height="78" fill="none"/></g><path d="M1.937-27.843h9.969V0h4.812V-27.843H26.7V-32H1.937ZM31.781,0h4.672V-24H31.781Zm2.359-27.7a2.888,2.888,0,0,0,2.953-2.781,2.9,2.9,0,0,0-2.953-2.8,2.891,2.891,0,0,0-2.953,2.8A2.878,2.878,0,0,0,34.141-27.7Zm19.8,3.7H49.015v-5.75H44.344V-24H40.828v3.75h3.516V-6.078c-.016,4.359,3.312,6.469,7,6.391a8.945,8.945,0,0,0,3.031-.5l-.844-3.859a7.6,7.6,0,0,1-1.641.2c-1.516,0-2.875-.5-2.875-3.2v-13.2h4.922Zm10.328-8H59.594V0h4.672ZM80.89.484c5.234,0,8.937-2.578,10-6.484l-4.422-.8c-.844,2.266-2.875,3.422-5.531,3.422-4,0-6.687-2.594-6.812-7.219H91.187V-12.25c0-8.672-5.187-12.062-10.625-12.062-6.687,0-11.094,5.094-11.094,12.469C69.469-4.391,73.812.484,80.89.484Zm-6.75-14.578a6.446,6.446,0,0,1,6.453-6.359c3.625,0,6,2.687,6.016,6.359ZM118.547.437c6.437,0,11.031-4.547,11.015-10.781.016-6.187-4.3-10.687-10.125-10.687a8.622,8.622,0,0,0-5.828,2.125h-.187l1.016-8.953h13.578V-32H110.422l-1.8,16.125,4.422.656a8.525,8.525,0,0,1,5.3-1.812,6.477,6.477,0,0,1,6.547,6.781,6.275,6.275,0,0,1-6.344,6.625c-3.094,0-5.547-1.969-5.8-4.719h-4.687C108.25-3.25,112.672.437,118.547.437Z" transform="translate(10 56)" fill="#666"/></svg>