<svg xmlns="http://www.w3.org/2000/svg" width="275" height="80" viewBox="0 0 275 80"><g fill="#d9d9d9" stroke="#bfbfbf" stroke-width="2"><rect width="275" height="80" stroke="none"/><rect x="1" y="1" width="273" height="78" fill="none"/></g><path d="M16.1,0H5.023V-37.818H16.767a18.03,18.03,0,0,1,9.261,2.253,14.781,14.781,0,0,1,5.9,6.463A22.883,22.883,0,0,1,33.977-19q-.018,8.919-4.681,13.96T16.1,0ZM8.476-3.1H15.9q7.312,0,11.024-4.247T30.635-19q-.018-7.349-3.6-11.532t-10.47-4.183H8.476ZM41.678,0V-28.364h3.305V0Zm1.68-33.239a2.4,2.4,0,0,1-1.736-.7A2.243,2.243,0,0,1,40.9-35.6a2.234,2.234,0,0,1,.72-1.671,2.414,2.414,0,0,1,1.736-.692,2.446,2.446,0,0,1,1.745.692,2.221,2.221,0,0,1,.729,1.671A2.23,2.23,0,0,1,45.1-33.94,2.429,2.429,0,0,1,43.358-33.239Zm29.4,11.1-3.01.849a7.4,7.4,0,0,0-2.2-3.241,6.542,6.542,0,0,0-4.395-1.32,7.749,7.749,0,0,0-4.718,1.366,4.2,4.2,0,0,0-1.856,3.527,3.788,3.788,0,0,0,1.265,2.973,9.282,9.282,0,0,0,3.906,1.791l4.284,1.053q7.128,1.754,7.128,7.479A7.164,7.164,0,0,1,71.832-3.4a8.87,8.87,0,0,1-3.7,2.927A13.335,13.335,0,0,1,62.636.591a11.722,11.722,0,0,1-6.86-1.874A8.474,8.474,0,0,1,52.332-6.7l3.158-.776q1.2,5.115,7.091,5.115a8.5,8.5,0,0,0,5.226-1.468,4.441,4.441,0,0,0,1.957-3.684q0-3.527-4.616-4.616L60.513-13.24a10.627,10.627,0,0,1-5.466-2.807,6.758,6.758,0,0,1-1.773-4.764,6.913,6.913,0,0,1,1.274-4.127,8.548,8.548,0,0,1,3.509-2.8,12.191,12.191,0,0,1,5.1-1.016,10.093,10.093,0,0,1,6.232,1.763A9.782,9.782,0,0,1,72.756-22.141Zm7.608,32.777v-39h3.195v5.411h.388a14.1,14.1,0,0,1,1.616-2.613A8.384,8.384,0,0,1,88.3-27.828a9.057,9.057,0,0,1,4.321-.923,10.455,10.455,0,0,1,6.14,1.837,12.077,12.077,0,0,1,4.1,5.134,18.709,18.709,0,0,1,1.468,7.673,18.824,18.824,0,0,1-1.468,7.7,12.134,12.134,0,0,1-4.1,5.152,10.357,10.357,0,0,1-6.1,1.847,9.025,9.025,0,0,1-4.293-.923A8.658,8.658,0,0,1,85.58-2.613a12.683,12.683,0,0,1-1.634-2.65h-.3v15.9Zm3.25-24.8a16.806,16.806,0,0,0,1.025,6.075A9.4,9.4,0,0,0,87.6-3.924a7.391,7.391,0,0,0,4.672,1.5,7.432,7.432,0,0,0,4.783-1.56A9.661,9.661,0,0,0,100.03-8.2a16.608,16.608,0,0,0,1.016-5.964,16.333,16.333,0,0,0-1.006-5.891,9.52,9.52,0,0,0-2.955-4.164,7.509,7.509,0,0,0-4.81-1.542,7.51,7.51,0,0,0-4.709,1.487,9.171,9.171,0,0,0-2.945,4.1A16.648,16.648,0,0,0,83.614-14.163Zm31.226-23.655V0h-3.287V-37.818ZM131.44.646A10.813,10.813,0,0,1,126.75-.36a8.116,8.116,0,0,1-3.379-2.918,8.272,8.272,0,0,1-1.256-4.644,6.723,6.723,0,0,1,1.385-4.46,8.489,8.489,0,0,1,3.85-2.5,27.657,27.657,0,0,1,5.66-1.237q3.582-.443,5.5-.8t1.92-1.967v-.665a6.058,6.058,0,0,0-1.727-4.58,6.868,6.868,0,0,0-4.958-1.662,8.537,8.537,0,0,0-5,1.348,7.448,7.448,0,0,0-2.705,3.176L122.928-22.4a9.28,9.28,0,0,1,2.659-3.721,10.687,10.687,0,0,1,3.8-2.013,15.056,15.056,0,0,1,4.266-.619,14.351,14.351,0,0,1,3.379.425,9.87,9.87,0,0,1,3.278,1.468,7.6,7.6,0,0,1,2.465,2.89,10.339,10.339,0,0,1,.942,4.709V0h-3.287V-4.487h-.2a9.588,9.588,0,0,1-3.065,3.509A9.339,9.339,0,0,1,131.44.646Zm.443-3.01a8.652,8.652,0,0,0,4.543-1.154,7.947,7.947,0,0,0,2.964-3.093,8.858,8.858,0,0,0,1.043-4.266v-4.1a4.229,4.229,0,0,1-1.81.8,26.75,26.75,0,0,1-2.89.563q-1.56.222-2.724.369a14.24,14.24,0,0,0-5.6,1.662,4.134,4.134,0,0,0-2,3.8,4.745,4.745,0,0,0,1.847,3.989A7.373,7.373,0,0,0,131.884-2.364Zm21.827,13a9.074,9.074,0,0,1-1.819-.175,5.967,5.967,0,0,1-1.357-.415l.886-2.9a5.819,5.819,0,0,0,4.229.009q1.717-.785,2.9-4L159.582.277,149.149-28.364h3.564l8.42,24.024h.259l8.42-24.024h3.564l-12,32.851Q159.121,10.636,153.71,10.636ZM206.56.517a14.763,14.763,0,0,1-6.251-1.265,10.733,10.733,0,0,1-4.349-3.518,9.229,9.229,0,0,1-1.7-5.189h3.49a6.242,6.242,0,0,0,1.274,3.61,7.824,7.824,0,0,0,3.139,2.4,10.735,10.735,0,0,0,4.358.859,10.414,10.414,0,0,0,4.626-.979,7.8,7.8,0,0,0,3.139-2.678,6.817,6.817,0,0,0,1.136-3.878,6.935,6.935,0,0,0-2.594-5.6,10.762,10.762,0,0,0-7.082-2.151h-2.216v-3.1h2.216a9.16,9.16,0,0,0,6.048-1.967,6.5,6.5,0,0,0,2.373-5.272,6.712,6.712,0,0,0-2.077-5.106,7.663,7.663,0,0,0-5.494-1.967,9.5,9.5,0,0,0-4.035.849,7.378,7.378,0,0,0-2.955,2.4,6.418,6.418,0,0,0-1.173,3.675h-3.342a9.3,9.3,0,0,1,1.634-5.2,10.625,10.625,0,0,1,4.155-3.509,12.949,12.949,0,0,1,5.752-1.265,11.647,11.647,0,0,1,5.771,1.366,9.9,9.9,0,0,1,3.786,3.629,9.591,9.591,0,0,1,1.339,4.977,8.85,8.85,0,0,1-1.754,5.531,9,9,0,0,1-4.727,3.185v.24a9.59,9.59,0,0,1,5.7,3.2,9.166,9.166,0,0,1,2.077,6.085,9.663,9.663,0,0,1-1.588,5.438,11.037,11.037,0,0,1-4.358,3.8A13.856,13.856,0,0,1,206.56.517Z" transform="translate(10 59)" fill="#666"/></svg>