<svg xmlns="http://www.w3.org/2000/svg" width="275" height="80" viewBox="0 0 275 80"><g fill="#d9d9d9" stroke="#bfbfbf" stroke-width="2"><rect width="275" height="80" stroke="none"/><rect x="1" y="1" width="273" height="78" fill="none"/></g><path d="M14.864,0H4.636V-34.909H15.477a16.643,16.643,0,0,1,8.548,2.08,13.644,13.644,0,0,1,5.446,5.966,21.123,21.123,0,0,1,1.892,9.324q-.017,8.233-4.321,12.886T14.864,0ZM7.824-2.864h6.852q6.75,0,10.176-3.92T28.278-17.54q-.017-6.784-3.324-10.645T15.29-32.045H7.824ZM38.472,0V-26.182h3.051V0Zm1.551-30.682a2.213,2.213,0,0,1-1.6-.648,2.071,2.071,0,0,1-.665-1.534,2.062,2.062,0,0,1,.665-1.543,2.228,2.228,0,0,1,1.6-.639,2.258,2.258,0,0,1,1.611.639,2.05,2.05,0,0,1,.673,1.543,2.058,2.058,0,0,1-.673,1.534A2.242,2.242,0,0,1,40.023-30.682ZM67.159-20.437l-2.778.784a6.828,6.828,0,0,0-2.028-2.991A6.039,6.039,0,0,0,58.3-23.864,7.153,7.153,0,0,0,53.94-22.6a3.874,3.874,0,0,0-1.713,3.256A3.5,3.5,0,0,0,53.395-16.6,8.568,8.568,0,0,0,57-14.949l3.955.972q6.58,1.619,6.58,6.9a6.613,6.613,0,0,1-1.227,3.937,8.188,8.188,0,0,1-3.418,2.7,12.309,12.309,0,0,1-5.071.98,10.821,10.821,0,0,1-6.332-1.73,7.823,7.823,0,0,1-3.179-5L51.222-6.9q1.108,4.722,6.545,4.722a7.85,7.85,0,0,0,4.824-1.355,4.1,4.1,0,0,0,1.807-3.4q0-3.256-4.261-4.261l-4.278-1.023a9.809,9.809,0,0,1-5.045-2.591,6.239,6.239,0,0,1-1.636-4.4,6.381,6.381,0,0,1,1.176-3.81A7.89,7.89,0,0,1,53.591-25.6a11.253,11.253,0,0,1,4.7-.937,9.317,9.317,0,0,1,5.753,1.628A9.029,9.029,0,0,1,67.159-20.437ZM74.182,9.818v-36h2.949v4.994h.358A13.011,13.011,0,0,1,78.98-23.6a7.74,7.74,0,0,1,2.531-2.088A8.36,8.36,0,0,1,85.5-26.54a9.65,9.65,0,0,1,5.668,1.7,11.148,11.148,0,0,1,3.784,4.739,17.27,17.27,0,0,1,1.355,7.082,17.376,17.376,0,0,1-1.355,7.108,11.2,11.2,0,0,1-3.784,4.756,9.56,9.56,0,0,1-5.634,1.7,8.33,8.33,0,0,1-3.963-.852A7.992,7.992,0,0,1,79-2.412a11.708,11.708,0,0,1-1.509-2.446h-.273V9.818Zm3-22.892a15.513,15.513,0,0,0,.946,5.608,8.677,8.677,0,0,0,2.736,3.844,6.822,6.822,0,0,0,4.313,1.389,6.86,6.86,0,0,0,4.415-1.44,8.918,8.918,0,0,0,2.744-3.895,15.331,15.331,0,0,0,.938-5.506,15.077,15.077,0,0,0-.929-5.437,8.788,8.788,0,0,0-2.727-3.844,6.932,6.932,0,0,0-4.44-1.423,6.933,6.933,0,0,0-4.347,1.372,8.466,8.466,0,0,0-2.719,3.784A15.368,15.368,0,0,0,77.182-13.074Zm28.824-21.835V0h-3.034V-34.909ZM121.33.6A9.981,9.981,0,0,1,117-.332a7.491,7.491,0,0,1-3.119-2.693,7.636,7.636,0,0,1-1.159-4.287A6.206,6.206,0,0,1,114-11.429a7.836,7.836,0,0,1,3.554-2.31,25.53,25.53,0,0,1,5.224-1.142q3.307-.409,5.08-.741t1.773-1.815v-.614a5.592,5.592,0,0,0-1.594-4.227,6.339,6.339,0,0,0-4.577-1.534,7.88,7.88,0,0,0-4.611,1.244,6.875,6.875,0,0,0-2.5,2.932l-2.881-1.04a8.566,8.566,0,0,1,2.455-3.435,9.865,9.865,0,0,1,3.511-1.858,13.9,13.9,0,0,1,3.938-.571,13.247,13.247,0,0,1,3.119.392,9.11,9.11,0,0,1,3.026,1.355,7.014,7.014,0,0,1,2.276,2.668,9.544,9.544,0,0,1,.869,4.347V0h-3.034V-4.142h-.187A8.851,8.851,0,0,1,126.614-.9,8.62,8.62,0,0,1,121.33.6Zm.409-2.778a7.987,7.987,0,0,0,4.193-1.065A7.336,7.336,0,0,0,128.668-6.1a8.176,8.176,0,0,0,.963-3.937v-3.784a3.9,3.9,0,0,1-1.67.741,24.692,24.692,0,0,1-2.668.52q-1.44.2-2.514.341a13.144,13.144,0,0,0-5.173,1.534,3.816,3.816,0,0,0-1.849,3.511,4.38,4.38,0,0,0,1.7,3.682A6.806,6.806,0,0,0,121.739-2.182Zm20.148,12a8.376,8.376,0,0,1-1.679-.162,5.508,5.508,0,0,1-1.253-.384l.818-2.676a5.372,5.372,0,0,0,3.9.009q1.585-.724,2.676-3.69l.955-2.659-9.631-26.438h3.29l7.773,22.176h.239l7.773-22.176h3.29L148.96,4.142Q146.881,9.818,141.886,9.818ZM178.5-7.5v-2.591l15.563-24.818h3.767v24.545h4.636V-7.5H197.83V0H194.8V-7.5Zm16.3-2.864v-20.2h-.239L182.063-10.585v.222Z" transform="translate(10 58)" fill="#666"/></svg>