<svg xmlns="http://www.w3.org/2000/svg" width="275" height="80" viewBox="0 0 275 80"><g fill="#d9d9d9" stroke="#bfbfbf" stroke-width="2"><rect width="275" height="80" stroke="none"/><rect x="1" y="1" width="273" height="78" fill="none"/></g><path d="M13.625,0H4.25V-32h9.938a15.256,15.256,0,0,1,7.836,1.906,12.507,12.507,0,0,1,4.992,5.469,19.362,19.362,0,0,1,1.734,8.547q-.016,7.547-3.961,11.813T13.625,0ZM7.172-2.625h6.281q6.188,0,9.328-3.594t3.141-9.859q-.016-6.219-3.047-9.758t-8.859-3.539H7.172ZM35.266,0V-24h2.8V0Zm1.422-28.125a2.029,2.029,0,0,1-1.469-.594,1.9,1.9,0,0,1-.609-1.406,1.89,1.89,0,0,1,.609-1.414,2.043,2.043,0,0,1,1.469-.586,2.07,2.07,0,0,1,1.477.586,1.879,1.879,0,0,1,.617,1.414,1.887,1.887,0,0,1-.617,1.406A2.055,2.055,0,0,1,36.688-28.125Zm24.875,9.391-2.547.719a6.259,6.259,0,0,0-1.859-2.742,5.536,5.536,0,0,0-3.719-1.117,6.557,6.557,0,0,0-3.992,1.156,3.551,3.551,0,0,0-1.57,2.984,3.206,3.206,0,0,0,1.07,2.516,7.854,7.854,0,0,0,3.3,1.516l3.625.891q6.031,1.484,6.031,6.328a6.062,6.062,0,0,1-1.125,3.609A7.506,7.506,0,0,1,57.648-.4,11.283,11.283,0,0,1,53,.5a9.919,9.919,0,0,1-5.8-1.586,7.171,7.171,0,0,1-2.914-4.586l2.672-.656Q47.969-2,52.953-2a7.2,7.2,0,0,0,4.422-1.242,3.758,3.758,0,0,0,1.656-3.117q0-2.984-3.906-3.906L51.2-11.2a8.992,8.992,0,0,1-4.625-2.375,5.719,5.719,0,0,1-1.5-4.031A5.849,5.849,0,0,1,46.156-21.1a7.233,7.233,0,0,1,2.969-2.367,10.315,10.315,0,0,1,4.313-.859,8.54,8.54,0,0,1,5.273,1.492A8.277,8.277,0,0,1,61.563-18.734ZM68,9V-24h2.7v4.578h.328A11.927,11.927,0,0,1,72.4-21.633a7.1,7.1,0,0,1,2.32-1.914,7.663,7.663,0,0,1,3.656-.781,8.846,8.846,0,0,1,5.2,1.555,10.219,10.219,0,0,1,3.469,4.344,15.831,15.831,0,0,1,1.242,6.492,15.928,15.928,0,0,1-1.242,6.516A10.267,10.267,0,0,1,83.57-1.062,8.763,8.763,0,0,1,78.406.5a7.636,7.636,0,0,1-3.633-.781,7.326,7.326,0,0,1-2.359-1.93,10.732,10.732,0,0,1-1.383-2.242h-.25V9Zm2.75-20.984a14.221,14.221,0,0,0,.867,5.141A7.954,7.954,0,0,0,74.125-3.32a6.254,6.254,0,0,0,3.953,1.273,6.288,6.288,0,0,0,4.047-1.32,8.175,8.175,0,0,0,2.516-3.57,14.053,14.053,0,0,0,.859-5.047,13.82,13.82,0,0,0-.852-4.984,8.056,8.056,0,0,0-2.5-3.523,6.354,6.354,0,0,0-4.07-1.3,6.355,6.355,0,0,0-3.984,1.258A7.76,7.76,0,0,0,71.6-17.07,14.087,14.087,0,0,0,70.75-11.984ZM97.172-32V0H94.391V-32ZM111.219.547A9.149,9.149,0,0,1,107.25-.3a6.867,6.867,0,0,1-2.859-2.469,7,7,0,0,1-1.062-3.93,5.689,5.689,0,0,1,1.172-3.773,7.183,7.183,0,0,1,3.258-2.117,23.4,23.4,0,0,1,4.789-1.047q3.031-.375,4.656-.68t1.625-1.664v-.562a5.126,5.126,0,0,0-1.461-3.875,5.811,5.811,0,0,0-4.2-1.406,7.224,7.224,0,0,0-4.227,1.141A6.3,6.3,0,0,0,106.656-18l-2.641-.953a7.852,7.852,0,0,1,2.25-3.148,9.043,9.043,0,0,1,3.219-1.7,12.74,12.74,0,0,1,3.609-.523,12.143,12.143,0,0,1,2.859.359,8.351,8.351,0,0,1,2.773,1.242,6.43,6.43,0,0,1,2.086,2.445,8.749,8.749,0,0,1,.8,3.984V0h-2.781V-3.8h-.172a8.113,8.113,0,0,1-2.594,2.969A7.9,7.9,0,0,1,111.219.547ZM111.594-2a7.321,7.321,0,0,0,3.844-.977,6.725,6.725,0,0,0,2.508-2.617,7.5,7.5,0,0,0,.883-3.609v-3.469a3.579,3.579,0,0,1-1.531.68,22.634,22.634,0,0,1-2.445.477q-1.32.188-2.3.312A12.049,12.049,0,0,0,107.8-9.8a3.5,3.5,0,0,0-1.7,3.219A4.015,4.015,0,0,0,107.672-3.2,6.239,6.239,0,0,0,111.594-2ZM130.063,9a7.678,7.678,0,0,1-1.539-.148,5.049,5.049,0,0,1-1.148-.352l.75-2.453a4.924,4.924,0,0,0,3.578.008q1.453-.664,2.453-3.383l.875-2.437L126.2-24h3.016l7.125,20.328h.219L143.688-24H146.7L136.547,3.8Q134.641,9,130.063,9ZM173.75.438a10.2,10.2,0,0,1-4.766-1.094,8.693,8.693,0,0,1-3.352-3A8.282,8.282,0,0,1,164.313-8h2.828a5.774,5.774,0,0,0,1.992,4.18,6.727,6.727,0,0,0,4.617,1.633,7.1,7.1,0,0,0,3.82-1.031,7.24,7.24,0,0,0,2.609-2.8,8.453,8.453,0,0,0,.945-4.039,8.276,8.276,0,0,0-1.008-4.133A7.443,7.443,0,0,0,177.4-17a7.371,7.371,0,0,0-3.836-1.016,9.135,9.135,0,0,0-3.156.531,8.316,8.316,0,0,0-2.578,1.406l-2.922-.375L166.828-32h15.813v2.625H169.281L168-18.672h.156a8.645,8.645,0,0,1,2.586-1.453,9.24,9.24,0,0,1,3.227-.562,9.71,9.71,0,0,1,5.086,1.352,9.835,9.835,0,0,1,3.586,3.742,10.985,10.985,0,0,1,1.313,5.484,10.982,10.982,0,0,1-1.32,5.414,9.856,9.856,0,0,1-3.625,3.758A10.063,10.063,0,0,1,173.75.438Z" transform="translate(10 56)" fill="#666"/></svg>