<svg xmlns="http://www.w3.org/2000/svg" width="275" height="80" viewBox="0 0 275 80"><g fill="#d9d9d9" stroke="#bfbfbf" stroke-width="2"><rect width="275" height="80" stroke="none"/><rect x="1" y="1" width="273" height="78" fill="none"/></g><path d="M17.341,0H5.409V-40.727H18.057A19.417,19.417,0,0,1,28.03-38.3a15.918,15.918,0,0,1,6.354,6.96,24.643,24.643,0,0,1,2.207,10.878q-.02,9.605-5.041,15.034T17.341,0ZM9.128-3.341h7.994q7.875,0,11.872-4.574t4-12.548q-.02-7.915-3.878-12.419t-11.276-4.5H9.128ZM44.884,0V-30.545h3.56V0Zm1.81-35.8a2.582,2.582,0,0,1-1.869-.756,2.416,2.416,0,0,1-.776-1.79,2.406,2.406,0,0,1,.776-1.8,2.6,2.6,0,0,1,1.869-.746,2.634,2.634,0,0,1,1.879.746,2.392,2.392,0,0,1,.786,1.8,2.4,2.4,0,0,1-.786,1.79A2.616,2.616,0,0,1,46.693-35.8ZM78.352-23.844l-3.241.915a7.966,7.966,0,0,0-2.366-3.49,7.045,7.045,0,0,0-4.733-1.422,8.345,8.345,0,0,0-5.081,1.472,4.52,4.52,0,0,0-2,3.8,4.08,4.08,0,0,0,1.362,3.2A10,10,0,0,0,66.5-17.44l4.614,1.134q7.676,1.889,7.676,8.054a7.715,7.715,0,0,1-1.432,4.594A9.553,9.553,0,0,1,73.371-.507,14.361,14.361,0,0,1,67.455.636a12.624,12.624,0,0,1-7.388-2.018,9.126,9.126,0,0,1-3.709-5.837l3.4-.835q1.293,5.509,7.636,5.509a9.158,9.158,0,0,0,5.628-1.581,4.782,4.782,0,0,0,2.108-3.967q0-3.8-4.972-4.972l-4.991-1.193a11.444,11.444,0,0,1-5.886-3.023,7.278,7.278,0,0,1-1.909-5.131,7.445,7.445,0,0,1,1.372-4.445,9.205,9.205,0,0,1,3.778-3.013,13.129,13.129,0,0,1,5.489-1.094,10.869,10.869,0,0,1,6.712,1.9A10.534,10.534,0,0,1,78.352-23.844Zm8.193,35.3v-42h3.44v5.827H90.4a15.179,15.179,0,0,1,1.74-2.814A9.029,9.029,0,0,1,95.1-29.969a9.753,9.753,0,0,1,4.653-.994,11.259,11.259,0,0,1,6.612,1.979,13.006,13.006,0,0,1,4.415,5.528,20.148,20.148,0,0,1,1.581,8.263A20.272,20.272,0,0,1,110.777-6.9a13.067,13.067,0,0,1-4.415,5.548A11.153,11.153,0,0,1,99.79.636a9.719,9.719,0,0,1-4.624-.994,9.324,9.324,0,0,1-3-2.456A13.659,13.659,0,0,1,90.4-5.668h-.318V11.455Zm3.5-26.707a18.1,18.1,0,0,0,1.1,6.543,10.123,10.123,0,0,0,3.192,4.484,7.959,7.959,0,0,0,5.031,1.621,8,8,0,0,0,5.151-1.68,10.4,10.4,0,0,0,3.2-4.544,17.886,17.886,0,0,0,1.094-6.423,17.59,17.59,0,0,0-1.084-6.344,10.253,10.253,0,0,0-3.182-4.484,8.087,8.087,0,0,0-5.18-1.661,8.088,8.088,0,0,0-5.071,1.6,9.877,9.877,0,0,0-3.172,4.415A17.929,17.929,0,0,0,90.045-15.253Zm33.628-25.474V0h-3.54V-40.727ZM141.551.7A11.644,11.644,0,0,1,136.5-.388a8.74,8.74,0,0,1-3.639-3.142,8.908,8.908,0,0,1-1.352-5,7.24,7.24,0,0,1,1.491-4.8,9.142,9.142,0,0,1,4.146-2.695,29.784,29.784,0,0,1,6.1-1.332q3.858-.477,5.926-.865t2.068-2.118v-.716a6.524,6.524,0,0,0-1.859-4.932,7.4,7.4,0,0,0-5.339-1.79,9.194,9.194,0,0,0-5.379,1.452,8.021,8.021,0,0,0-2.913,3.42l-3.361-1.213a9.993,9.993,0,0,1,2.864-4.007,11.509,11.509,0,0,1,4.1-2.168,16.214,16.214,0,0,1,4.594-.666,15.455,15.455,0,0,1,3.639.457,10.629,10.629,0,0,1,3.53,1.581,8.183,8.183,0,0,1,2.655,3.112,11.135,11.135,0,0,1,1.014,5.071V0h-3.54V-4.832h-.219a10.326,10.326,0,0,1-3.3,3.778A10.057,10.057,0,0,1,141.551.7Zm.477-3.241a9.318,9.318,0,0,0,4.892-1.243,8.559,8.559,0,0,0,3.192-3.331,9.539,9.539,0,0,0,1.124-4.594v-4.415a4.555,4.555,0,0,1-1.949.865,28.808,28.808,0,0,1-3.112.607q-1.68.239-2.933.4a15.335,15.335,0,0,0-6.036,1.79,4.452,4.452,0,0,0-2.158,4.1,5.11,5.11,0,0,0,1.989,4.3A7.94,7.94,0,0,0,142.028-2.545Zm23.506,14a9.772,9.772,0,0,1-1.959-.189,6.426,6.426,0,0,1-1.462-.447l.955-3.122a6.267,6.267,0,0,0,4.554.01q1.849-.845,3.122-4.305L171.858.3,160.622-30.545h3.838l9.068,25.872h.278l9.068-25.872h3.838L173.787,4.832Q171.361,11.455,165.534,11.455ZM209.224,0V-2.724l13.3-14.955q2.605-2.923,4.2-5.021a17.793,17.793,0,0,0,2.317-3.858,9.582,9.582,0,0,0,.726-3.689,7.188,7.188,0,0,0-2.376-5.628A8.569,8.569,0,0,0,221.455-38a8.051,8.051,0,0,0-6.055,2.347,8.215,8.215,0,0,0-2.277,5.966h-3.56a11.47,11.47,0,0,1,1.561-6,11.12,11.12,0,0,1,4.276-4.107,12.568,12.568,0,0,1,6.155-1.491,12.208,12.208,0,0,1,6.055,1.472,11.045,11.045,0,0,1,4.146,3.967,10.594,10.594,0,0,1,1.511,5.6,12.293,12.293,0,0,1-.786,4.345,20.071,20.071,0,0,1-2.695,4.693q-1.909,2.6-5.29,6.334L214.395-3.6v.259H234.54V0Z" transform="translate(10 60)" fill="#666"/></svg>