<svg xmlns="http://www.w3.org/2000/svg" width="275" height="80" viewBox="0 0 275 80"><g fill="#d9d9d9" stroke="#bfbfbf" stroke-width="2"><rect width="275" height="80" stroke="none"/><rect x="1" y="1" width="273" height="78" fill="none"/></g><path d="M12.386,0H3.864V-29.091H12.9a13.87,13.87,0,0,1,7.124,1.733,11.37,11.37,0,0,1,4.538,4.972,17.6,17.6,0,0,1,1.577,7.77q-.014,6.861-3.6,10.739T12.386,0ZM6.52-2.386h5.71q5.625,0,8.48-3.267t2.855-8.963q-.014-5.653-2.77-8.871T12.741-26.7H6.52ZM32.06,0V-21.818H34.6V0Zm1.293-25.568a1.844,1.844,0,0,1-1.335-.54,1.726,1.726,0,0,1-.554-1.278,1.719,1.719,0,0,1,.554-1.286,1.857,1.857,0,0,1,1.335-.533,1.881,1.881,0,0,1,1.342.533,1.708,1.708,0,0,1,.561,1.286,1.715,1.715,0,0,1-.561,1.278A1.868,1.868,0,0,1,33.352-25.568Zm22.614,8.537-2.315.653a5.69,5.69,0,0,0-1.69-2.493,5.032,5.032,0,0,0-3.381-1.016,5.961,5.961,0,0,0-3.629,1.051,3.229,3.229,0,0,0-1.428,2.713,2.914,2.914,0,0,0,.973,2.287,7.14,7.14,0,0,0,3,1.378l3.3.81q5.483,1.349,5.483,5.753a5.511,5.511,0,0,1-1.023,3.281A6.823,6.823,0,0,1,52.408-.362a10.258,10.258,0,0,1-4.226.817A9.017,9.017,0,0,1,42.9-.987a6.519,6.519,0,0,1-2.649-4.169l2.429-.6q.923,3.935,5.455,3.935a6.542,6.542,0,0,0,4.02-1.129,3.416,3.416,0,0,0,1.506-2.834q0-2.713-3.551-3.551l-3.565-.852a8.174,8.174,0,0,1-4.2-2.159,5.2,5.2,0,0,1-1.364-3.665,5.318,5.318,0,0,1,.98-3.175,6.575,6.575,0,0,1,2.7-2.152,9.378,9.378,0,0,1,3.92-.781,7.764,7.764,0,0,1,4.794,1.357A7.524,7.524,0,0,1,55.966-17.031ZM61.818,8.182v-30h2.457v4.162h.3a10.843,10.843,0,0,1,1.243-2.01,6.449,6.449,0,0,1,2.109-1.74,6.967,6.967,0,0,1,3.324-.71A8.042,8.042,0,0,1,75.973-20.7a9.29,9.29,0,0,1,3.153,3.949,14.392,14.392,0,0,1,1.129,5.9,14.48,14.48,0,0,1-1.129,5.923A9.333,9.333,0,0,1,75.973-.966,7.967,7.967,0,0,1,71.278.455a6.942,6.942,0,0,1-3.3-.71A6.66,6.66,0,0,1,65.831-2.01a9.757,9.757,0,0,1-1.257-2.038h-.227V8.182Zm2.5-19.077a12.928,12.928,0,0,0,.788,4.673,7.231,7.231,0,0,0,2.28,3.2A5.685,5.685,0,0,0,70.98-1.861a5.717,5.717,0,0,0,3.679-1.2,7.432,7.432,0,0,0,2.287-3.246,12.776,12.776,0,0,0,.781-4.588,12.564,12.564,0,0,0-.774-4.531,7.323,7.323,0,0,0-2.273-3.2,5.777,5.777,0,0,0-3.7-1.186,5.777,5.777,0,0,0-3.622,1.143,7.055,7.055,0,0,0-2.266,3.153A12.806,12.806,0,0,0,64.318-10.895Zm24.02-18.2V0H85.81V-29.091ZM101.108.5A8.317,8.317,0,0,1,97.5-.277a6.243,6.243,0,0,1-2.6-2.244,6.363,6.363,0,0,1-.966-3.572A5.171,5.171,0,0,1,95-9.524a6.53,6.53,0,0,1,2.962-1.925,21.275,21.275,0,0,1,4.354-.952q2.756-.341,4.233-.618t1.477-1.513v-.511a4.66,4.66,0,0,0-1.328-3.523,5.283,5.283,0,0,0-3.814-1.278,6.567,6.567,0,0,0-3.842,1.037,5.729,5.729,0,0,0-2.081,2.443l-2.4-.866a7.138,7.138,0,0,1,2.045-2.862,8.221,8.221,0,0,1,2.926-1.548,11.581,11.581,0,0,1,3.281-.476,11.039,11.039,0,0,1,2.6.327,7.592,7.592,0,0,1,2.521,1.129,5.845,5.845,0,0,1,1.9,2.223,7.953,7.953,0,0,1,.724,3.622V0h-2.528V-3.452h-.156a7.376,7.376,0,0,1-2.358,2.7A7.184,7.184,0,0,1,101.108.5Zm.341-2.315a6.656,6.656,0,0,0,3.494-.888,6.113,6.113,0,0,0,2.28-2.379,6.814,6.814,0,0,0,.8-3.281V-11.52a3.253,3.253,0,0,1-1.392.618,20.576,20.576,0,0,1-2.223.433q-1.2.17-2.1.284A10.954,10.954,0,0,0,98-8.906,3.18,3.18,0,0,0,96.463-5.98a3.65,3.65,0,0,0,1.42,3.068A5.672,5.672,0,0,0,101.449-1.818Zm16.79,10a6.98,6.98,0,0,1-1.4-.135,4.59,4.59,0,0,1-1.044-.32l.682-2.23a4.476,4.476,0,0,0,3.253.007q1.321-.6,2.23-3.075l.8-2.216L114.73-21.818h2.741l6.477,18.48h.2l6.477-18.48h2.741l-9.233,25.27Q122.4,8.182,118.239,8.182ZM158.608.4a9.258,9.258,0,0,1-3.523-.732,8.324,8.324,0,0,1-3.1-2.315A11.645,11.645,0,0,1,149.8-6.875a22.212,22.212,0,0,1-.81-6.463,28.815,28.815,0,0,1,1.108-8.374,12.575,12.575,0,0,1,3.338-5.71,7.878,7.878,0,0,1,5.568-2.067,8.121,8.121,0,0,1,5.8,2.138,8.841,8.841,0,0,1,2.7,5.533h-2.614A6.861,6.861,0,0,0,163-25.611a5.394,5.394,0,0,0-3.991-1.491,6.125,6.125,0,0,0-5.54,3.317q-1.96,3.317-1.974,9.411h.185a7.9,7.9,0,0,1,2.976-3.089,8.2,8.2,0,0,1,4.283-1.158,8.382,8.382,0,0,1,4.446,1.229,9.1,9.1,0,0,1,3.224,3.366,9.748,9.748,0,0,1,1.207,4.879,10.121,10.121,0,0,1-1.143,4.787,8.958,8.958,0,0,1-3.21,3.473A8.832,8.832,0,0,1,158.608.4Zm0-2.386A6.117,6.117,0,0,0,162-2.955a6.92,6.92,0,0,0,2.372-2.592,7.488,7.488,0,0,0,.874-3.6,7.365,7.365,0,0,0-.874-3.58A6.851,6.851,0,0,0,162-15.284a6.185,6.185,0,0,0-3.388-.952,6.24,6.24,0,0,0-3.487,1.016,6.977,6.977,0,0,0-2.415,2.67,6.552,6.552,0,0,0-.717,3.572,8.581,8.581,0,0,0,1.044,3.594,6.848,6.848,0,0,0,2.33,2.486A5.958,5.958,0,0,0,158.608-1.989Z" transform="translate(10 55)" fill="#666"/></svg>