<svg xmlns="http://www.w3.org/2000/svg" width="80" height="80" viewBox="0 0 80 80"><g transform="translate(-86 -1)"><rect width="80" height="80" transform="translate(86 1)" fill="#f0f0f0"/><path d="M-28.8-6.861H-31.77V-4.8h2.725v1.535H-31.77V0h-1.893V-8.4H-28.8ZM-22.431.146a3.911,3.911,0,0,1-2.941-1.175A4.218,4.218,0,0,1-26.509-4.09a4.52,4.52,0,0,1,1.154-3.223A4,4,0,0,1-22.3-8.543a3.814,3.814,0,0,1,2.909,1.178,4.342,4.342,0,0,1,1.11,3.105,4.447,4.447,0,0,1-1.151,3.193A3.952,3.952,0,0,1-22.431.146Zm.082-7.061a1.905,1.905,0,0,0-1.582.747,3.115,3.115,0,0,0-.586,1.978,3.058,3.058,0,0,0,.586,1.975,1.877,1.877,0,0,0,1.535.727,1.9,1.9,0,0,0,1.553-.706,3.024,3.024,0,0,0,.574-1.96,3.277,3.277,0,0,0-.557-2.033A1.815,1.815,0,0,0-22.349-6.914ZM-7.884,0h-1.91l-3.463-5.279a7.634,7.634,0,0,1-.422-.7H-13.7q.047.445.047,1.359V0h-1.787V-8.4H-13.4l3.334,5.115q.229.346.422.686h.023a8.984,8.984,0,0,1-.047-1.154V-8.4h1.787ZM1.378-6.861h-2.4V0h-1.9V-6.861H-5.3V-8.4h6.68Zm12.179,0H10.592V-4.8h2.725v1.535H10.592V0H8.7V-8.4h4.857ZM18.273,0H16.38V-8.4h1.893Zm8.354,0h-5V-8.4h1.893v6.867h3.111Zm7.61,0H29.2V-8.4h4.846v1.541H31.09v1.869h2.748v1.535H31.09v1.922h3.146Z" transform="translate(125 76)" fill="#4d4d4d"/><g transform="translate(105 12.138)"><path d="M23.288,2h-15A4.286,4.286,0,0,0,4,6.286V40.576a4.286,4.286,0,0,0,4.286,4.286H34a4.286,4.286,0,0,0,4.286-4.286V17Z" transform="translate(0 0)" fill="none" stroke="#4d4d4d" stroke-linecap="round" stroke-linejoin="round" stroke-width="3"/><path d="M13,2V17H28" transform="translate(10.288 0)" fill="none" stroke="#4d4d4d" stroke-linecap="round" stroke-linejoin="round" stroke-width="3"/><path d="M4.008-14.4a.968.968,0,0,0-.3-.708.968.968,0,0,0-.708-.3H-9a.968.968,0,0,0-.708.3.968.968,0,0,0-.3.708.968.968,0,0,0,.3.708.968.968,0,0,0,.708.3h4.992V-2.4a.968.968,0,0,0,.3.708.968.968,0,0,0,.708.3.968.968,0,0,0,.708-.3.968.968,0,0,0,.3-.708V-13.392H3a.968.968,0,0,0,.708-.3A.968.968,0,0,0,4.008-14.4ZM9-9.408H3a.968.968,0,0,0-.708.3.968.968,0,0,0-.3.708.968.968,0,0,0,.3.708.968.968,0,0,0,.708.3H4.992V-2.4a.968.968,0,0,0,.3.708.968.968,0,0,0,.708.3.968.968,0,0,0,.708-.3.968.968,0,0,0,.3-.708V-7.392H9a.968.968,0,0,0,.708-.3.968.968,0,0,0,.3-.708.968.968,0,0,0-.3-.708A.968.968,0,0,0,9-9.408Z" transform="translate(20 39.862)" fill="#4d4d4d"/></g></g></svg>