<svg xmlns="http://www.w3.org/2000/svg" width="80" height="80" viewBox="0 0 80 80"><g transform="translate(-86 -1)"><rect width="80" height="80" transform="translate(86 1)" fill="#f0f0f0"/><path d="M-21.647-.3a5.541,5.541,0,0,1-2.4.445A4.049,4.049,0,0,1-27.09-.99,4.155,4.155,0,0,1-28.2-4.02a4.439,4.439,0,0,1,1.245-3.27,4.355,4.355,0,0,1,3.231-1.254,6.043,6.043,0,0,1,2.074.311V-6.41a3.675,3.675,0,0,0-1.922-.5,2.549,2.549,0,0,0-1.91.744,2.761,2.761,0,0,0-.727,2.016,2.708,2.708,0,0,0,.686,1.942,2.422,2.422,0,0,0,1.846.724,3.937,3.937,0,0,0,2.027-.539Zm9.754-3.34q0,3.785-3.527,3.785-3.422,0-3.422-3.7V-8.4h1.9v4.875q0,2.039,1.594,2.039,1.564,0,1.564-1.969V-8.4h1.893ZM-9.011-.322V-2.2A3.6,3.6,0,0,0-7.9-1.556,3.56,3.56,0,0,0-6.7-1.342a2.677,2.677,0,0,0,.624-.064,1.462,1.462,0,0,0,.445-.179.779.779,0,0,0,.267-.27.672.672,0,0,0,.088-.337.728.728,0,0,0-.141-.439A1.513,1.513,0,0,0-5.8-2.988,4.01,4.01,0,0,0-6.374-3.3q-.334-.152-.721-.311a3.678,3.678,0,0,1-1.468-1,2.187,2.187,0,0,1-.483-1.43,2.277,2.277,0,0,1,.264-1.128,2.239,2.239,0,0,1,.718-.776A3.218,3.218,0,0,1-7.013-8.4a5.4,5.4,0,0,1,1.266-.144,7.612,7.612,0,0,1,1.163.079,4.574,4.574,0,0,1,.935.243v1.752a2.826,2.826,0,0,0-.46-.258,3.644,3.644,0,0,0-.513-.185,3.911,3.911,0,0,0-.524-.108,3.711,3.711,0,0,0-.5-.035,2.582,2.582,0,0,0-.586.062,1.5,1.5,0,0,0-.445.173.86.86,0,0,0-.281.267.632.632,0,0,0-.1.349.666.666,0,0,0,.111.378,1.277,1.277,0,0,0,.316.316,3.358,3.358,0,0,0,.5.293q.293.144.662.3a7.378,7.378,0,0,1,.905.448,3.218,3.218,0,0,1,.688.536,2.089,2.089,0,0,1,.439.683,2.412,2.412,0,0,1,.152.894,2.393,2.393,0,0,1-.267,1.181,2.164,2.164,0,0,1-.724.773A3.138,3.138,0,0,1-5.334.018a6.146,6.146,0,0,1-1.28.129A7.119,7.119,0,0,1-7.93.029,3.971,3.971,0,0,1-9.011-.322ZM5.443-6.861h-2.4V0h-1.9V-6.861H-1.237V-8.4h6.68ZM11.119.146A3.911,3.911,0,0,1,8.178-1.028,4.218,4.218,0,0,1,7.041-4.09,4.52,4.52,0,0,1,8.2-7.312a4,4,0,0,1,3.059-1.23,3.814,3.814,0,0,1,2.909,1.178,4.342,4.342,0,0,1,1.11,3.105,4.447,4.447,0,0,1-1.151,3.193A3.952,3.952,0,0,1,11.119.146ZM11.2-6.914a1.905,1.905,0,0,0-1.582.747,3.115,3.115,0,0,0-.586,1.978,3.058,3.058,0,0,0,.586,1.975,1.877,1.877,0,0,0,1.535.727,1.9,1.9,0,0,0,1.553-.706,3.024,3.024,0,0,0,.574-1.96,3.277,3.277,0,0,0-.557-2.033A1.815,1.815,0,0,0,11.2-6.914ZM27.682,0H25.813V-5.027q0-.814.07-1.8h-.047a8.852,8.852,0,0,1-.264,1.113L23.6,0H22.057l-2-5.654a11,11,0,0,1-.264-1.172h-.053q.076,1.242.076,2.18V0H18.108V-8.4h2.771L22.6-3.422a7.012,7.012,0,0,1,.3,1.2h.035a12.094,12.094,0,0,1,.334-1.213L24.981-8.4h2.7Z" transform="translate(125 76)" fill="#4d4d4d"/><g transform="translate(105 12.138)"><path d="M23.288,2h-15A4.286,4.286,0,0,0,4,6.286V40.576a4.286,4.286,0,0,0,4.286,4.286H34a4.286,4.286,0,0,0,4.286-4.286V17Z" transform="translate(0 0)" fill="none" stroke="#4d4d4d" stroke-linecap="round" stroke-linejoin="round" stroke-width="3"/><path d="M13,2V17H28" transform="translate(10.288 0)" fill="none" stroke="#4d4d4d" stroke-linecap="round" stroke-linejoin="round" stroke-width="3"/><text transform="translate(20 39.862)" fill="#4d4d4d" font-size="24" font-family="unicons-line"><tspan x="-12" y="0"></tspan></text></g></g></svg>