<svg xmlns="http://www.w3.org/2000/svg" width="80" height="80" viewBox="0 0 80 80"><g transform="translate(-1 -1)"><g transform="translate(1 1)" fill="#d9d9d9" stroke="#bfbfbf" stroke-miterlimit="10" stroke-width="2"><rect width="80" height="80" stroke="none"/><rect x="1" y="1" width="78" height="78" fill="none"/></g><g transform="translate(0.001 -5.999)"><path d="M-645-9872v-45.172l-12.585,12.587a2,2,0,0,1-2.829,0,2,2,0,0,1,0-2.829l16-16a2,2,0,0,1,2.829,0l16,16a2,2,0,0,1,0,2.829A2,2,0,0,1-627-9904a2,2,0,0,1-1.415-.585L-641-9917.172V-9872a2,2,0,0,1-2,2A2,2,0,0,1-645-9872Z" transform="translate(684 9944)" fill="#666"/></g></g></svg>