<svg xmlns="http://www.w3.org/2000/svg" width="275" height="80" viewBox="0 0 275 80"><g fill="#d9d9d9" stroke="#bfbfbf" stroke-width="2"><rect width="275" height="80" stroke="none"/><rect x="1" y="1" width="273" height="78" fill="none"/></g><path d="M1.011,0V-11.636h2.46v4.8H8.466v-4.8H10.92V0H8.466V-4.807H3.472V0ZM16.881.17a4.631,4.631,0,0,1-2.312-.548,3.7,3.7,0,0,1-1.494-1.557,5.128,5.128,0,0,1-.523-2.389,5.1,5.1,0,0,1,.523-2.364,3.858,3.858,0,0,1,1.474-1.585,4.279,4.279,0,0,1,2.236-.568,4.4,4.4,0,0,1,2.082.489,3.568,3.568,0,0,1,1.474,1.474,5.049,5.049,0,0,1,.545,2.469v.665H14.943v.006a2.145,2.145,0,0,0,.534,1.54,1.9,1.9,0,0,0,1.443.563,2.068,2.068,0,0,0,1.051-.256,1.391,1.391,0,0,0,.625-.756l2.239.148a3.068,3.068,0,0,1-1.3,1.943A4.535,4.535,0,0,1,16.881.17ZM14.943-5.244h3.665a1.781,1.781,0,0,0-.5-1.284,1.716,1.716,0,0,0-1.284-.506,1.782,1.782,0,0,0-1.324.523A1.886,1.886,0,0,0,14.943-5.244ZM24.955.165a3.234,3.234,0,0,1-2.074-.653,2.337,2.337,0,0,1-.824-1.949,2.339,2.339,0,0,1,.46-1.534,2.652,2.652,0,0,1,1.207-.815,6.825,6.825,0,0,1,1.611-.338,12.332,12.332,0,0,0,1.625-.239q.489-.125.489-.545v-.034a1.05,1.05,0,0,0-.338-.835,1.409,1.409,0,0,0-.957-.3,1.718,1.718,0,0,0-1.04.284,1.333,1.333,0,0,0-.511.722L22.364-6.25a2.985,2.985,0,0,1,1.241-1.892,4.345,4.345,0,0,1,2.56-.7,5.3,5.3,0,0,1,1.818.307,3.025,3.025,0,0,1,1.366.957,2.625,2.625,0,0,1,.52,1.69V0h-2.3V-1.21h-.068a2.513,2.513,0,0,1-.952.991A3.045,3.045,0,0,1,24.955.165Zm.693-1.67a1.872,1.872,0,0,0,1.307-.463,1.489,1.489,0,0,0,.511-1.151v-.926a1.416,1.416,0,0,1-.44.17q-.3.074-.636.128t-.605.094a2.4,2.4,0,0,0-1.026.358.885.885,0,0,0-.389.778.867.867,0,0,0,.361.756A1.549,1.549,0,0,0,25.648-1.506ZM34.966.142a3.253,3.253,0,0,1-1.8-.514A3.526,3.526,0,0,1,31.9-1.889a5.766,5.766,0,0,1-.472-2.463,5.686,5.686,0,0,1,.486-2.5A3.5,3.5,0,0,1,33.2-8.344a3.28,3.28,0,0,1,1.759-.5,2.711,2.711,0,0,1,1.224.247,2.457,2.457,0,0,1,.8.611,3.1,3.1,0,0,1,.463.722h.074v-4.375h2.415V0H37.545V-1.4h-.1a2.923,2.923,0,0,1-.477.719,2.451,2.451,0,0,1-.8.588A2.777,2.777,0,0,1,34.966.142Zm.767-1.926a1.544,1.544,0,0,0,1.355-.707,3.278,3.278,0,0,0,.48-1.872,3.221,3.221,0,0,0-.477-1.861,1.553,1.553,0,0,0-1.358-.69,1.537,1.537,0,0,0-1.366.707A3.282,3.282,0,0,0,33.9-4.364,3.335,3.335,0,0,0,34.369-2.5,1.532,1.532,0,0,0,35.733-1.784Zm8.6-9.852V0h-2.42V-11.636ZM46.267,0V-8.727h2.42V0Zm1.216-9.852a1.3,1.3,0,0,1-.92-.361,1.144,1.144,0,0,1-.386-.866,1.135,1.135,0,0,1,.386-.864,1.308,1.308,0,0,1,.92-.358,1.315,1.315,0,0,1,.926.358,1.135,1.135,0,0,1,.386.864,1.144,1.144,0,0,1-.386.866A1.309,1.309,0,0,1,47.483-9.852ZM53.04-5.045V0h-2.42V-8.727h2.307v1.54h.1A2.486,2.486,0,0,1,54-8.395a2.94,2.94,0,0,1,1.651-.446,2.858,2.858,0,0,1,2.188.878,3.376,3.376,0,0,1,.824,2.406V0h-2.42V-5.125a1.763,1.763,0,0,0-.409-1.253,1.473,1.473,0,0,0-1.142-.452,1.589,1.589,0,0,0-1.19.469A1.823,1.823,0,0,0,53.04-5.045ZM64.545.17a4.631,4.631,0,0,1-2.312-.548,3.7,3.7,0,0,1-1.494-1.557,5.128,5.128,0,0,1-.523-2.389,5.1,5.1,0,0,1,.523-2.364,3.858,3.858,0,0,1,1.474-1.585,4.279,4.279,0,0,1,2.236-.568,4.4,4.4,0,0,1,2.082.489,3.568,3.568,0,0,1,1.474,1.474,5.049,5.049,0,0,1,.545,2.469v.665H62.608v.006a2.145,2.145,0,0,0,.534,1.54,1.9,1.9,0,0,0,1.443.563,2.068,2.068,0,0,0,1.051-.256,1.391,1.391,0,0,0,.625-.756L68.5-2.5A3.068,3.068,0,0,1,67.2-.557,4.535,4.535,0,0,1,64.545.17ZM62.608-5.244h3.665a1.781,1.781,0,0,0-.5-1.284,1.716,1.716,0,0,0-1.284-.506,1.782,1.782,0,0,0-1.324.523A1.886,1.886,0,0,0,62.608-5.244ZM78.284.159a5.189,5.189,0,0,1-1.73-.3,3.987,3.987,0,0,1-1.491-.96A4.6,4.6,0,0,1,74.02-2.864a8.222,8.222,0,0,1-.384-2.693,8.727,8.727,0,0,1,.591-3.352,4.8,4.8,0,0,1,1.645-2.142,4.233,4.233,0,0,1,2.5-.744,4.452,4.452,0,0,1,2.054.455,3.9,3.9,0,0,1,1.435,1.224,3.7,3.7,0,0,1,.659,1.73H80.091a1.62,1.62,0,0,0-.6-.955,1.8,1.8,0,0,0-1.125-.347,1.889,1.889,0,0,0-1.724.989,5.319,5.319,0,0,0-.6,2.688h.08a2.806,2.806,0,0,1,1.182-1.207,3.569,3.569,0,0,1,1.75-.435,3.513,3.513,0,0,1,1.844.486,3.479,3.479,0,0,1,1.276,1.332,3.909,3.909,0,0,1,.46,1.938,3.974,3.974,0,0,1-.545,2.1A3.846,3.846,0,0,1,80.56-.355,4.74,4.74,0,0,1,78.284.159Zm-.011-1.932a1.88,1.88,0,0,0,1.418-.591,2.018,2.018,0,0,0,.56-1.466A2.02,2.02,0,0,0,79.7-5.284a1.853,1.853,0,0,0-1.409-.591,1.894,1.894,0,0,0-1.014.278,2.028,2.028,0,0,0-.713.741A2.105,2.105,0,0,0,76.3-3.824a2.1,2.1,0,0,0,.259,1.034,1.992,1.992,0,0,0,.7.741A1.89,1.89,0,0,0,78.273-1.773Z" transform="translate(10 46)" fill="#666"/></svg>