<svg xmlns="http://www.w3.org/2000/svg" width="80" height="80" viewBox="0 0 80 80"><g transform="translate(-86 -1)"><rect width="80" height="80" transform="translate(86 1)" fill="#f0f0f0"/><path d="M-8.258,0h-2.18l-1.781-4.711h-7.125L-21.02,0h-2.191l6.445-16.8h2.039Zm-4.605-6.48-2.637-7.16a6.856,6.856,0,0,1-.258-1.125H-15.8a6.277,6.277,0,0,1-.27,1.125l-2.613,7.16ZM2.22,0H.3V-1.9H.251a3.947,3.947,0,0,1-3.7,2.18q-4.289,0-4.289-5.109V-12h1.91v6.867q0,3.8,2.906,3.8A2.94,2.94,0,0,0-.61-2.373,3.968,3.968,0,0,0,.3-5.086V-12H2.22Zm8.005-.117A3.705,3.705,0,0,1,8.432.258Q5.28.258,5.28-3.258v-7.1H3.217V-12H5.28v-2.93L7.2-15.551V-12h3.023v1.641H7.2V-3.6a2.8,2.8,0,0,0,.41,1.723,1.637,1.637,0,0,0,1.359.516,2.021,2.021,0,0,0,1.254-.4Zm6.142.4A5.566,5.566,0,0,1,12.119-1.4a6.229,6.229,0,0,1-1.588-4.459,6.489,6.489,0,0,1,1.652-4.723,5.94,5.94,0,0,1,4.465-1.7,5.382,5.382,0,0,1,4.189,1.652,6.552,6.552,0,0,1,1.506,4.582,6.447,6.447,0,0,1-1.623,4.6A5.687,5.687,0,0,1,16.367.281Zm.141-10.945a3.656,3.656,0,0,0-2.93,1.26A5.174,5.174,0,0,0,12.5-5.93a4.893,4.893,0,0,0,1.09,3.363,3.7,3.7,0,0,0,2.918,1.23,3.513,3.513,0,0,0,2.865-1.207,5.238,5.238,0,0,0,1-3.434,5.328,5.328,0,0,0-1-3.469A3.5,3.5,0,0,0,16.508-10.664Z" transform="translate(126 51)" fill="#4d4d4d"/></g></svg>