<svg xmlns="http://www.w3.org/2000/svg" width="275" height="80" viewBox="0 0 275 80"><g fill="#d9d9d9" stroke="#bfbfbf" stroke-width="2"><rect width="275" height="80" stroke="none"/><rect x="1" y="1" width="273" height="78" fill="none"/></g><path d="M1.77,0V-20.364H6.075v8.4h8.74v-8.4h4.3V0h-4.3V-8.412H6.075V0ZM29.541.3a8.1,8.1,0,0,1-4.047-.96,6.482,6.482,0,0,1-2.615-2.724,8.974,8.974,0,0,1-.915-4.181,8.928,8.928,0,0,1,.915-4.136,6.752,6.752,0,0,1,2.58-2.774,7.489,7.489,0,0,1,3.913-.994,7.707,7.707,0,0,1,3.644.855,6.243,6.243,0,0,1,2.58,2.58,8.836,8.836,0,0,1,.955,4.32v1.163h-10.4v.01a3.754,3.754,0,0,0,.935,2.695,3.317,3.317,0,0,0,2.526.984,3.619,3.619,0,0,0,1.839-.447,2.434,2.434,0,0,0,1.094-1.322l3.918.259a5.37,5.37,0,0,1-2.267,3.4A7.937,7.937,0,0,1,29.541.3ZM26.151-9.178h6.413a3.117,3.117,0,0,0-.875-2.247,3,3,0,0,0-2.247-.885,3.119,3.119,0,0,0-2.317.915A3.3,3.3,0,0,0,26.151-9.178ZM43.67.288A5.659,5.659,0,0,1,40.041-.855,4.089,4.089,0,0,1,38.6-4.266,4.093,4.093,0,0,1,39.4-6.95a4.641,4.641,0,0,1,2.113-1.427,11.943,11.943,0,0,1,2.819-.592,21.58,21.58,0,0,0,2.844-.418q.855-.219.855-.955v-.06a1.838,1.838,0,0,0-.592-1.462,2.466,2.466,0,0,0-1.675-.517,3.007,3.007,0,0,0-1.82.5,2.332,2.332,0,0,0-.895,1.263l-3.918-.318a5.223,5.223,0,0,1,2.173-3.311,7.6,7.6,0,0,1,4.479-1.223,9.268,9.268,0,0,1,3.182.537,5.294,5.294,0,0,1,2.391,1.675,4.594,4.594,0,0,1,.91,2.958V0H48.254V-2.118h-.119A4.4,4.4,0,0,1,46.469-.383,5.328,5.328,0,0,1,43.67.288Zm1.213-2.923a3.277,3.277,0,0,0,2.287-.81,2.606,2.606,0,0,0,.895-2.013V-7.08a2.478,2.478,0,0,1-.771.3q-.522.129-1.114.224t-1.059.164a4.2,4.2,0,0,0-1.795.626A1.548,1.548,0,0,0,42.646-4.4a1.516,1.516,0,0,0,.631,1.322A2.711,2.711,0,0,0,44.884-2.635ZM61.19.249a5.693,5.693,0,0,1-3.142-.9,6.171,6.171,0,0,1-2.227-2.655A10.09,10.09,0,0,1,55-7.616a9.95,9.95,0,0,1,.85-4.37A6.121,6.121,0,0,1,58.1-14.6a5.74,5.74,0,0,1,3.077-.87,4.745,4.745,0,0,1,2.143.433,4.3,4.3,0,0,1,1.392,1.069,5.425,5.425,0,0,1,.81,1.263h.129v-7.656h4.226V0H65.7V-2.446h-.179a5.116,5.116,0,0,1-.835,1.258A4.29,4.29,0,0,1,63.283-.159,4.86,4.86,0,0,1,61.19.249Zm1.342-3.371A2.7,2.7,0,0,0,64.9-4.36a5.737,5.737,0,0,0,.84-3.276,5.636,5.636,0,0,0-.835-3.256A2.718,2.718,0,0,0,62.533-12.1a2.69,2.69,0,0,0-2.391,1.238,5.744,5.744,0,0,0-.82,3.227,5.837,5.837,0,0,0,.825,3.256A2.681,2.681,0,0,0,62.533-3.122ZM77.587-20.364V0H73.351V-20.364ZM80.967,0V-15.273H85.2V0ZM83.1-17.241a2.279,2.279,0,0,1-1.611-.631,2,2,0,0,1-.676-1.516,1.987,1.987,0,0,1,.676-1.511,2.289,2.289,0,0,1,1.611-.626,2.3,2.3,0,0,1,1.621.626,1.987,1.987,0,0,1,.676,1.511,2,2,0,0,1-.676,1.516A2.291,2.291,0,0,1,83.1-17.241ZM92.82-8.83V0H88.584V-15.273h4.037v2.695H92.8A4.351,4.351,0,0,1,94.5-14.691a5.146,5.146,0,0,1,2.888-.781,5,5,0,0,1,3.828,1.536,5.908,5.908,0,0,1,1.442,4.211V0H98.428V-8.969a3.086,3.086,0,0,0-.716-2.192,2.578,2.578,0,0,0-2-.79,2.781,2.781,0,0,0-2.083.82A3.19,3.19,0,0,0,92.82-8.83ZM112.955.3a8.1,8.1,0,0,1-4.047-.96,6.482,6.482,0,0,1-2.615-2.724,8.974,8.974,0,0,1-.915-4.181,8.928,8.928,0,0,1,.915-4.136,6.752,6.752,0,0,1,2.58-2.774,7.489,7.489,0,0,1,3.913-.994,7.707,7.707,0,0,1,3.644.855,6.243,6.243,0,0,1,2.58,2.58,8.836,8.836,0,0,1,.955,4.32v1.163h-10.4v.01a3.754,3.754,0,0,0,.935,2.695,3.317,3.317,0,0,0,2.526.984,3.619,3.619,0,0,0,1.839-.447,2.434,2.434,0,0,0,1.094-1.322l3.918.259a5.37,5.37,0,0,1-2.267,3.4A7.937,7.937,0,0,1,112.955.3Zm-3.391-9.476h6.413a3.117,3.117,0,0,0-.875-2.247,3,3,0,0,0-2.247-.885,3.119,3.119,0,0,0-2.317.915A3.3,3.3,0,0,0,109.564-9.178ZM136.709.278a9.716,9.716,0,0,1-3.967-.766,6.582,6.582,0,0,1-2.724-2.128,5.4,5.4,0,0,1-1.034-3.142h4.335a2.276,2.276,0,0,0,1.019,1.8,3.989,3.989,0,0,0,2.381.686,3.726,3.726,0,0,0,2.421-.761,2.394,2.394,0,0,0,.93-1.974,2.407,2.407,0,0,0-1-2.013,4.368,4.368,0,0,0-2.739-.781h-1.9v-3.162h1.9a3.715,3.715,0,0,0,2.4-.741,2.344,2.344,0,0,0,.915-1.944,2.36,2.36,0,0,0-.79-1.869,3.036,3.036,0,0,0-2.1-.716,3.672,3.672,0,0,0-2.257.7,2.309,2.309,0,0,0-.974,1.859h-4.126a5.325,5.325,0,0,1,1-3.107,6.5,6.5,0,0,1,2.63-2.1,8.918,8.918,0,0,1,3.744-.756,8.373,8.373,0,0,1,3.689.766,6.112,6.112,0,0,1,2.461,2.063,5.007,5.007,0,0,1,.87,2.908,3.982,3.982,0,0,1-1.059,2.854A4.865,4.865,0,0,1,139.95-10.6v.159a5.39,5.39,0,0,1,3.425,1.551,4.454,4.454,0,0,1,1.168,3.172,4.985,4.985,0,0,1-1,3.092A6.763,6.763,0,0,1,140.766-.5,10.02,10.02,0,0,1,136.709.278Z" transform="translate(10 50)" fill="#666"/></svg>