<svg xmlns="http://www.w3.org/2000/svg" width="275" height="80" viewBox="0 0 275 80"><g fill="#d9d9d9" stroke="#bfbfbf" stroke-width="2"><rect width="275" height="80" stroke="none"/><rect x="1" y="1" width="273" height="78" fill="none"/></g><path d="M1.517,0V-17.455h3.69v7.2H12.7v-7.2h3.682V0H12.7V-7.21H5.207V0Zm23.8.256a6.947,6.947,0,0,1-3.469-.822A5.556,5.556,0,0,1,19.611-2.9a7.692,7.692,0,0,1-.784-3.584,7.653,7.653,0,0,1,.784-3.545,5.787,5.787,0,0,1,2.212-2.378,6.419,6.419,0,0,1,3.354-.852,6.606,6.606,0,0,1,3.124.733,5.351,5.351,0,0,1,2.212,2.212,7.574,7.574,0,0,1,.818,3.7v1H22.415v.009a3.218,3.218,0,0,0,.8,2.31,2.844,2.844,0,0,0,2.165.844,3.1,3.1,0,0,0,1.577-.384,2.086,2.086,0,0,0,.938-1.134l3.358.222A4.6,4.6,0,0,1,29.31-.835,6.8,6.8,0,0,1,25.321.256ZM22.415-7.866h5.5a2.671,2.671,0,0,0-.75-1.926,2.574,2.574,0,0,0-1.926-.759,2.673,2.673,0,0,0-1.986.784A2.829,2.829,0,0,0,22.415-7.866ZM37.432.247a4.85,4.85,0,0,1-3.111-.98,3.505,3.505,0,0,1-1.236-2.923,3.508,3.508,0,0,1,.69-2.3A3.978,3.978,0,0,1,35.587-7.18,10.237,10.237,0,0,1,38-7.687a18.5,18.5,0,0,0,2.438-.358q.733-.187.733-.818v-.051a1.575,1.575,0,0,0-.507-1.253,2.114,2.114,0,0,0-1.436-.443,2.577,2.577,0,0,0-1.56.426A2,2,0,0,0,36.9-9.1l-3.358-.273a4.477,4.477,0,0,1,1.862-2.838,6.517,6.517,0,0,1,3.839-1.048,7.944,7.944,0,0,1,2.727.46,4.538,4.538,0,0,1,2.05,1.436A3.938,3.938,0,0,1,44.8-8.83V0H41.361V-1.815h-.1A3.77,3.77,0,0,1,39.831-.328,4.567,4.567,0,0,1,37.432.247Zm1.04-2.506a2.809,2.809,0,0,0,1.96-.695A2.234,2.234,0,0,0,41.2-4.679V-6.068a2.124,2.124,0,0,1-.661.256q-.447.111-.955.192t-.908.141a3.6,3.6,0,0,0-1.538.537,1.327,1.327,0,0,0-.584,1.168A1.3,1.3,0,0,0,37.1-2.642,2.324,2.324,0,0,0,38.472-2.259ZM52.449.213a4.88,4.88,0,0,1-2.693-.771,5.289,5.289,0,0,1-1.909-2.276,8.648,8.648,0,0,1-.707-3.695,8.529,8.529,0,0,1,.729-3.746A5.246,5.246,0,0,1,49.8-12.516a4.92,4.92,0,0,1,2.638-.746,4.067,4.067,0,0,1,1.837.371,3.685,3.685,0,0,1,1.193.916,4.65,4.65,0,0,1,.695,1.082h.111v-6.562H59.9V0h-3.58V-2.1h-.153a4.385,4.385,0,0,1-.716,1.078,3.677,3.677,0,0,1-1.206.882A4.166,4.166,0,0,1,52.449.213ZM53.6-2.676a2.316,2.316,0,0,0,2.033-1.061,4.917,4.917,0,0,0,.72-2.808,4.831,4.831,0,0,0-.716-2.791A2.33,2.33,0,0,0,53.6-10.372a2.305,2.305,0,0,0-2.05,1.061,4.923,4.923,0,0,0-.7,2.766,5,5,0,0,0,.707,2.791A2.3,2.3,0,0,0,53.6-2.676ZM66.5-17.455V0H62.872V-17.455ZM69.4,0V-13.091h3.631V0Zm1.824-14.778a1.954,1.954,0,0,1-1.381-.541,1.716,1.716,0,0,1-.58-1.3,1.7,1.7,0,0,1,.58-1.3,1.962,1.962,0,0,1,1.381-.537,1.973,1.973,0,0,1,1.389.537,1.7,1.7,0,0,1,.58,1.3,1.716,1.716,0,0,1-.58,1.3A1.964,1.964,0,0,1,71.224-14.778Zm8.335,7.21V0H75.929V-13.091h3.46v2.31h.153A3.73,3.73,0,0,1,81-12.592a4.41,4.41,0,0,1,2.476-.669,4.288,4.288,0,0,1,3.281,1.317A5.064,5.064,0,0,1,88-8.335V0H84.366V-7.687a2.645,2.645,0,0,0-.614-1.879,2.21,2.21,0,0,0-1.713-.678,2.384,2.384,0,0,0-1.786.7A2.734,2.734,0,0,0,79.56-7.568ZM96.818.256a6.947,6.947,0,0,1-3.469-.822A5.556,5.556,0,0,1,91.108-2.9a7.692,7.692,0,0,1-.784-3.584,7.653,7.653,0,0,1,.784-3.545,5.787,5.787,0,0,1,2.212-2.378,6.419,6.419,0,0,1,3.354-.852,6.606,6.606,0,0,1,3.124.733,5.351,5.351,0,0,1,2.212,2.212,7.574,7.574,0,0,1,.818,3.7v1H93.912v.009a3.217,3.217,0,0,0,.8,2.31,2.844,2.844,0,0,0,2.165.844,3.1,3.1,0,0,0,1.577-.384,2.086,2.086,0,0,0,.938-1.134l3.358.222a4.6,4.6,0,0,1-1.943,2.915A6.8,6.8,0,0,1,96.818.256ZM93.912-7.866h5.5a2.671,2.671,0,0,0-.75-1.926,2.574,2.574,0,0,0-1.926-.759,2.673,2.673,0,0,0-1.986.784A2.829,2.829,0,0,0,93.912-7.866Zm16.551,4.8V-5.974l7.287-11.48h4.619V-6.026h2.165v2.957h-2.165V0h-3.528V-3.068Zm8.446-2.957v-7.406h-.136l-4.594,7.27v.136Z" transform="translate(10 49)" fill="#666"/></svg>