<svg xmlns="http://www.w3.org/2000/svg" width="210" height="80" viewBox="0 0 210 80"><g fill="#d9d9d9" stroke="#bfbfbf" stroke-width="2"><rect width="210" height="80" stroke="none"/><rect x="1" y="1" width="208" height="78" fill="none"/></g><path d="M1.057-15.187H6.494V0H9.119V-15.187h5.446v-2.267H1.057ZM17.335,0h2.548V-13.091H17.335Zm1.287-15.111a1.575,1.575,0,0,0,1.611-1.517,1.582,1.582,0,0,0-1.611-1.526,1.577,1.577,0,0,0-1.611,1.526A1.57,1.57,0,0,0,18.622-15.111Zm10.8,2.02H26.736v-3.136H24.187v3.136H22.27v2.045h1.918v7.73C24.179-.937,25.994.213,28.006.17A4.879,4.879,0,0,0,29.659-.1L29.2-2.207A4.144,4.144,0,0,1,28.3-2.1c-.827,0-1.568-.273-1.568-1.747v-7.2H29.42Zm5.634-4.364H32.506V0h2.548ZM44.122.264c2.855,0,4.875-1.406,5.454-3.537l-2.412-.435a2.961,2.961,0,0,1-3.017,1.866c-2.182,0-3.648-1.415-3.716-3.937h9.307v-.9c0-4.73-2.83-6.579-5.8-6.579-3.648,0-6.051,2.778-6.051,6.8C37.892-2.395,40.261.264,44.122.264ZM40.44-7.687a3.516,3.516,0,0,1,3.52-3.469,3.233,3.233,0,0,1,3.281,3.469Zm25.082-9.767H62.957L58.6-14.608v2.523l4.176-2.727h.1V0h2.642ZM76.321.29c4.031,0,6.392-3.29,6.392-9.008,0-5.676-2.395-8.974-6.392-8.974s-6.392,3.29-6.4,8.974C69.92-3.008,72.281.281,76.321.29Zm0-2.276c-2.361,0-3.784-2.369-3.784-6.733.009-4.347,1.432-6.741,3.784-6.741S80.1-13.065,80.1-8.719C80.1-4.355,78.673-1.986,76.321-1.986Z" transform="translate(10 49)" fill="#666"/></svg>