<svg xmlns="http://www.w3.org/2000/svg" width="275" height="80" viewBox="0 0 275 80"><g fill="#d9d9d9" stroke="#bfbfbf" stroke-width="2"><rect width="275" height="80" stroke="none"/><rect x="1" y="1" width="273" height="78" fill="none"/></g><path d="M2.023,0V-23.273h4.92v9.6h9.989v-9.6h4.909V0H16.932V-9.614H6.943V0ZM33.761.341a9.263,9.263,0,0,1-4.625-1.1,7.408,7.408,0,0,1-2.989-3.114A10.256,10.256,0,0,1,25.1-8.648a10.2,10.2,0,0,1,1.045-4.727,7.716,7.716,0,0,1,2.949-3.17,8.559,8.559,0,0,1,4.472-1.136,8.808,8.808,0,0,1,4.165.977,7.135,7.135,0,0,1,2.949,2.949,10.1,10.1,0,0,1,1.091,4.938v1.33H29.886v.011A4.29,4.29,0,0,0,30.955-4.4a3.791,3.791,0,0,0,2.886,1.125,4.136,4.136,0,0,0,2.1-.511A2.782,2.782,0,0,0,37.193-5.3L41.67-5A6.137,6.137,0,0,1,39.08-1.114,9.071,9.071,0,0,1,33.761.341Zm-3.875-10.83h7.33a3.562,3.562,0,0,0-1-2.568,3.432,3.432,0,0,0-2.568-1.011A3.564,3.564,0,0,0,31-13.023,3.772,3.772,0,0,0,29.886-10.489ZM49.909.33A6.467,6.467,0,0,1,45.761-.977a4.674,4.674,0,0,1-1.648-3.9,4.677,4.677,0,0,1,.92-3.068,5.3,5.3,0,0,1,2.415-1.631,13.649,13.649,0,0,1,3.222-.676,24.664,24.664,0,0,0,3.25-.477q.977-.25.977-1.091v-.068a2.1,2.1,0,0,0-.676-1.67,2.819,2.819,0,0,0-1.915-.591,3.436,3.436,0,0,0-2.08.568A2.665,2.665,0,0,0,49.2-12.136L44.727-12.5a5.97,5.97,0,0,1,2.483-3.784,8.689,8.689,0,0,1,5.119-1.4,10.592,10.592,0,0,1,3.636.614A6.05,6.05,0,0,1,58.7-15.153a5.25,5.25,0,0,1,1.04,3.381V0H55.148V-2.42h-.136a5.026,5.026,0,0,1-1.9,1.983A6.089,6.089,0,0,1,49.909.33ZM51.3-3.011a3.745,3.745,0,0,0,2.614-.926,2.978,2.978,0,0,0,1.023-2.3V-8.091a2.832,2.832,0,0,1-.881.341q-.6.148-1.273.256t-1.21.188a4.794,4.794,0,0,0-2.051.716,1.769,1.769,0,0,0-.778,1.557,1.733,1.733,0,0,0,.722,1.511A3.1,3.1,0,0,0,51.3-3.011ZM69.932.284A6.507,6.507,0,0,1,66.341-.744,7.052,7.052,0,0,1,63.8-3.778,11.531,11.531,0,0,1,62.852-8.7a11.372,11.372,0,0,1,.972-4.994,7,7,0,0,1,2.58-2.989,6.56,6.56,0,0,1,3.517-.994,5.422,5.422,0,0,1,2.449.494,4.914,4.914,0,0,1,1.591,1.222,6.2,6.2,0,0,1,.926,1.443h.148v-8.75h4.83V0H75.091V-2.8h-.2a5.847,5.847,0,0,1-.955,1.438A4.9,4.9,0,0,1,72.324-.182,5.554,5.554,0,0,1,69.932.284Zm1.534-3.852a3.088,3.088,0,0,0,2.71-1.415,6.557,6.557,0,0,0,.96-3.744,6.441,6.441,0,0,0-.955-3.722,3.106,3.106,0,0,0-2.716-1.381,3.074,3.074,0,0,0-2.733,1.415A6.564,6.564,0,0,0,67.8-8.727a6.67,6.67,0,0,0,.943,3.722A3.064,3.064,0,0,0,71.466-3.568Zm17.2-19.7V0H83.83V-23.273ZM92.534,0V-17.455h4.841V0Zm2.432-19.7a2.6,2.6,0,0,1-1.841-.722,2.288,2.288,0,0,1-.773-1.733,2.27,2.27,0,0,1,.773-1.727,2.616,2.616,0,0,1,1.841-.716,2.63,2.63,0,0,1,1.852.716,2.27,2.27,0,0,1,.773,1.727,2.288,2.288,0,0,1-.773,1.733A2.619,2.619,0,0,1,94.966-19.7Zm11.114,9.614V0h-4.841V-17.455h4.614v3.08h.2a4.973,4.973,0,0,1,1.949-2.415,5.881,5.881,0,0,1,3.3-.892,5.717,5.717,0,0,1,4.375,1.756,6.752,6.752,0,0,1,1.648,4.813V0h-4.841V-10.25a3.527,3.527,0,0,0-.818-2.506,2.947,2.947,0,0,0-2.284-.9,3.178,3.178,0,0,0-2.381.938A3.646,3.646,0,0,0,106.08-10.091ZM129.091.341a9.263,9.263,0,0,1-4.625-1.1,7.408,7.408,0,0,1-2.989-3.114,10.256,10.256,0,0,1-1.045-4.778,10.2,10.2,0,0,1,1.045-4.727,7.716,7.716,0,0,1,2.949-3.17,8.559,8.559,0,0,1,4.472-1.136,8.808,8.808,0,0,1,4.165.977,7.135,7.135,0,0,1,2.949,2.949A10.1,10.1,0,0,1,137.1-8.818v1.33H125.216v.011a4.29,4.29,0,0,0,1.068,3.08,3.791,3.791,0,0,0,2.886,1.125,4.136,4.136,0,0,0,2.1-.511,2.782,2.782,0,0,0,1.25-1.511L137-5a6.137,6.137,0,0,1-2.591,3.886A9.071,9.071,0,0,1,129.091.341Zm-3.875-10.83h7.33a3.562,3.562,0,0,0-1-2.568,3.432,3.432,0,0,0-2.568-1.011,3.564,3.564,0,0,0-2.648,1.045A3.772,3.772,0,0,0,125.216-10.489ZM147.636,0V-3.545l8.284-7.67a21.676,21.676,0,0,0,2.42-2.648,4.13,4.13,0,0,0,.83-2.511,3.062,3.062,0,0,0-1.017-2.426,3.728,3.728,0,0,0-2.551-.892,3.487,3.487,0,0,0-2.562.96,3.5,3.5,0,0,0-.96,2.631h-4.67a7.42,7.42,0,0,1,1.034-3.966,6.914,6.914,0,0,1,2.892-2.6,9.571,9.571,0,0,1,4.3-.92,10.078,10.078,0,0,1,4.358.881,6.968,6.968,0,0,1,2.892,2.432A6.293,6.293,0,0,1,163.92-16.7a6.848,6.848,0,0,1-.523,2.6,11.141,11.141,0,0,1-1.835,2.847,40.979,40.979,0,0,1-3.71,3.744l-3.4,3.33v.159h9.773V0Z" transform="translate(10 52)" fill="#666"/></svg>