<svg xmlns="http://www.w3.org/2000/svg" width="80" height="80" viewBox="0 0 80 80"><g transform="translate(-86 -1)"><rect width="80" height="80" transform="translate(86 1)" fill="#f0f0f0"/><path d="M20.8,35H18.172V24.781H6.578V35H3.953V12.594H6.578v9.828H18.172V12.594H20.8ZM39.7,27.891a8.3,8.3,0,0,1-.531,3.016A7.249,7.249,0,0,1,37.7,33.281a6.562,6.562,0,0,1-2.234,1.555,7.076,7.076,0,0,1-2.812.555,6.2,6.2,0,0,1-5.289-2.727,9.705,9.705,0,0,1-1.414-3.227,17.48,17.48,0,0,1-.484-4.3,20.192,20.192,0,0,1,.648-5.3,12.887,12.887,0,0,1,1.844-4.078,8.5,8.5,0,0,1,2.883-2.617,7.724,7.724,0,0,1,3.766-.922,9.07,9.07,0,0,1,3.719.641v2.422a7.9,7.9,0,0,0-3.656-.891,5.448,5.448,0,0,0-2.7.672,6.207,6.207,0,0,0-2.062,1.9,9.26,9.26,0,0,0-1.32,2.961,15.023,15.023,0,0,0-.461,3.859h.063a5.381,5.381,0,0,1,5.109-2.8,6.725,6.725,0,0,1,2.648.5A5.718,5.718,0,0,1,37.961,22.9a6.367,6.367,0,0,1,1.289,2.18A8.3,8.3,0,0,1,39.7,27.891Zm-2.625.328a6.973,6.973,0,0,0-.3-2.109,4.575,4.575,0,0,0-.852-1.594,3.672,3.672,0,0,0-1.367-1.008,4.6,4.6,0,0,0-1.844-.352,4.316,4.316,0,0,0-1.766.359,4.4,4.4,0,0,0-1.406.977,4.572,4.572,0,0,0-1.266,3.18,6.95,6.95,0,0,0,.328,2.164,5.59,5.59,0,0,0,.922,1.758,4.384,4.384,0,0,0,1.414,1.18,3.863,3.863,0,0,0,1.82.43,4.169,4.169,0,0,0,1.766-.367,3.939,3.939,0,0,0,1.359-1.023,4.738,4.738,0,0,0,.875-1.57A6.224,6.224,0,0,0,37.078,28.219Z" transform="translate(105 20)" fill="#4d4d4d"/></g></svg>