<svg xmlns="http://www.w3.org/2000/svg" width="210" height="80" viewBox="0 0 210 80"><g fill="#d9d9d9" stroke="#bfbfbf" stroke-width="2"><rect width="210" height="80" stroke="none"/><rect x="1" y="1" width="208" height="78" fill="none"/></g><path d="M.881-12.656H5.412V0H7.6V-12.656h4.538v-1.889H.881ZM14.446,0H16.57V-10.909H14.446Zm1.072-12.592a1.313,1.313,0,0,0,1.342-1.264,1.319,1.319,0,0,0-1.342-1.271,1.314,1.314,0,0,0-1.342,1.271A1.308,1.308,0,0,0,15.518-12.592Zm9,1.683H22.28v-2.614H20.156v2.614h-1.6v1.7h1.6v6.442a2.849,2.849,0,0,0,3.182,2.9,4.066,4.066,0,0,0,1.378-.227l-.384-1.754a3.453,3.453,0,0,1-.746.092c-.689,0-1.307-.227-1.307-1.456v-6h2.237Zm4.695-3.636H27.088V0h2.124ZM36.768.22c2.379,0,4.062-1.172,4.545-2.947L39.3-3.089A2.468,2.468,0,0,1,36.79-1.534c-1.818,0-3.04-1.179-3.1-3.281h7.756v-.753c0-3.942-2.358-5.483-4.829-5.483-3.04,0-5.043,2.315-5.043,5.668C31.577-2,33.551.22,36.768.22ZM33.7-6.406A2.93,2.93,0,0,1,36.633-9.3a2.7,2.7,0,0,1,2.734,2.891Zm20.9-8.139H52.464l-3.629,2.372v2.1l3.48-2.273H52.4V0h2.2Zm9.453,0H61.918l-3.629,2.372v2.1l3.48-2.273h.085V0h2.2Z" transform="translate(10 47)" fill="#666"/></svg>