<svg xmlns="http://www.w3.org/2000/svg" xmlns:xlink="http://www.w3.org/1999/xlink" width="144" height="84" viewBox="0 0 144 84"><defs><clipPath id="a"><rect width="85" height="40" fill="#fff"/></clipPath></defs><g transform="translate(1 1)"><g transform="translate(1 1)" fill="#d9d9d9" stroke="#bfbfbf" stroke-miterlimit="10" stroke-width="2"><rect width="140" height="80" stroke="none"/><rect x="-1" y="-1" width="142" height="82" fill="none"/></g><g transform="translate(-4 19)"><rect width="105" height="50" transform="translate(23 12)" fill="#fff"/><g transform="translate(33 22)" clip-path="url(#a)"><g fill="none"><path d="M3.953,0H81.047A4.134,4.134,0,0,1,85,4.293V39.707A4.134,4.134,0,0,1,81.047,44H3.953A4.134,4.134,0,0,1,0,39.707V4.293A4.134,4.134,0,0,1,3.953,0Z" stroke="none"/><path d="M 4.074630737304688 4 C 4.040763854980469 4.052345275878906 4 4.149303436279297 4 4.292686462402344 L 4 39.70731353759766 C 4 39.85069274902344 4.040763854980469 39.94765472412109 4.074630737304688 40 L 80.92536926269531 40 C 80.95923614501953 39.94765472412109 81 39.85068511962891 81 39.70731353759766 L 81 4.292686462402344 C 81 4.149314880371094 80.95923614501953 4.052345275878906 80.92536926269531 4 L 4.074630737304688 4 M 3.953483581542969 0 L 81.04650115966797 0 C 83.22995758056641 0 85 1.921901702880859 85 4.292686462402344 L 85 39.70731353759766 C 85 42.07809829711914 83.22995758056641 44 81.04650115966797 44 L 3.953483581542969 44 C 1.770027160644531 44 0 42.07809829711914 0 39.70731353759766 L 0 4.292686462402344 C 0 1.921901702880859 1.770027160644531 0 3.953483581542969 0 Z" stroke="none" fill="#707070"/></g><path d="M46.046,15.045A3.729,3.729,0,0,0,42.622,17a2.9,2.9,0,0,0,.771,3.5A4.082,4.082,0,0,0,47.4,21.2a3.229,3.229,0,0,0,2.279-2.958A3.446,3.446,0,0,0,46.046,15.045Zm-2.92,16h29.2V24.64l-8.781-7.284L51.887,27.2c-3.81-3.344-4.381-3.446-4.381-3.446s-.571.1-4.381,3.446Z" transform="translate(-14.584 -1.09)" fill="#666"/></g></g><rect width="140" height="30" transform="translate(1 1)" fill="#666"/></g></svg>