<svg xmlns="http://www.w3.org/2000/svg" width="80" height="80" viewBox="0 0 80 80"><g transform="translate(-0.682 -1)"><rect width="80" height="80" transform="translate(0.682 1)" fill="#f0f0f0"/><path d="M20.8,35H18.172V24.781H6.578V35H3.953V12.594H6.578v9.828H18.172V12.594H20.8Zm15-16.531a4.633,4.633,0,0,0-.32-1.8,3.479,3.479,0,0,0-2.18-2.031,5.109,5.109,0,0,0-1.625-.25,5.375,5.375,0,0,0-1.469.2,7.14,7.14,0,0,0-1.4.563,8.6,8.6,0,0,0-1.312.859,9.481,9.481,0,0,0-1.18,1.109v-2.75a7.661,7.661,0,0,1,2.414-1.6,8.5,8.5,0,0,1,3.258-.555,7.865,7.865,0,0,1,2.547.4,5.839,5.839,0,0,1,2.031,1.164,5.381,5.381,0,0,1,1.352,1.891,6.377,6.377,0,0,1,.492,2.578,8.841,8.841,0,0,1-.3,2.406,7.442,7.442,0,0,1-.922,2.031,9.8,9.8,0,0,1-1.555,1.828,22.022,22.022,0,0,1-2.2,1.781q-1.578,1.125-2.6,1.922A11.5,11.5,0,0,0,29.2,29.711a4.33,4.33,0,0,0-.844,1.391,4.861,4.861,0,0,0-.242,1.6H39.266V35H25.438V33.891a9.245,9.245,0,0,1,.313-2.531,6.573,6.573,0,0,1,1.031-2.078,11.533,11.533,0,0,1,1.883-1.969q1.164-.984,2.852-2.219a18.028,18.028,0,0,0,2.039-1.672,8.692,8.692,0,0,0,1.32-1.594,5.724,5.724,0,0,0,.711-1.617A6.973,6.973,0,0,0,35.8,18.469Z" transform="translate(19.682 20)" fill="#4d4d4d"/></g></svg>