<svg xmlns="http://www.w3.org/2000/svg" width="275" height="80" viewBox="0 0 275 80"><g fill="#d9d9d9" stroke="#bfbfbf" stroke-width="2"><rect width="275" height="80" stroke="none"/><rect x="1" y="1" width="273" height="78" fill="none"/></g><path d="M1.264,0V-14.545H4.339v6h6.243v-6h3.068V0H10.582V-6.009H4.339V0ZM21.1.213A5.789,5.789,0,0,1,18.21-.472a4.63,4.63,0,0,1-1.868-1.946A6.41,6.41,0,0,1,15.689-5.4a6.377,6.377,0,0,1,.653-2.955,4.823,4.823,0,0,1,1.843-1.982,5.349,5.349,0,0,1,2.795-.71,5.505,5.505,0,0,1,2.6.611A4.459,4.459,0,0,1,25.426-8.6a6.312,6.312,0,0,1,.682,3.086v.831H18.679v.007a2.681,2.681,0,0,0,.668,1.925,2.37,2.37,0,0,0,1.8.7,2.585,2.585,0,0,0,1.314-.32,1.739,1.739,0,0,0,.781-.945l2.8.185A3.836,3.836,0,0,1,24.425-.7,5.669,5.669,0,0,1,21.1.213ZM18.679-6.555H23.26a2.226,2.226,0,0,0-.625-1.605,2.145,2.145,0,0,0-1.605-.632,2.228,2.228,0,0,0-1.655.653A2.358,2.358,0,0,0,18.679-6.555ZM31.193.206A4.042,4.042,0,0,1,28.6-.611a2.921,2.921,0,0,1-1.03-2.436,2.923,2.923,0,0,1,.575-1.918,3.315,3.315,0,0,1,1.509-1.019,8.531,8.531,0,0,1,2.013-.423A15.415,15.415,0,0,0,33.7-6.7q.611-.156.611-.682v-.043a1.313,1.313,0,0,0-.423-1.044,1.762,1.762,0,0,0-1.2-.369,2.148,2.148,0,0,0-1.3.355,1.666,1.666,0,0,0-.639.9l-2.8-.227a3.731,3.731,0,0,1,1.552-2.365,5.431,5.431,0,0,1,3.2-.874,6.62,6.62,0,0,1,2.273.384,3.782,3.782,0,0,1,1.708,1.2,3.281,3.281,0,0,1,.65,2.113V0H34.467V-1.513h-.085a3.141,3.141,0,0,1-1.19,1.239A3.806,3.806,0,0,1,31.193.206Zm.866-2.088a2.34,2.34,0,0,0,1.634-.579A1.862,1.862,0,0,0,34.332-3.9V-5.057a1.77,1.77,0,0,1-.55.213q-.373.092-.8.16t-.756.117a3,3,0,0,0-1.282.447,1.106,1.106,0,0,0-.487.973,1.083,1.083,0,0,0,.451.945A1.937,1.937,0,0,0,32.06-1.882ZM43.707.178a4.067,4.067,0,0,1-2.244-.643,4.408,4.408,0,0,1-1.591-1.9,7.207,7.207,0,0,1-.589-3.079,7.107,7.107,0,0,1,.607-3.121A4.372,4.372,0,0,1,41.5-10.43a4.1,4.1,0,0,1,2.2-.621,3.389,3.389,0,0,1,1.531.309,3.071,3.071,0,0,1,.994.763,3.875,3.875,0,0,1,.579.9H46.9v-5.469h3.018V0H46.932V-1.747H46.8a3.654,3.654,0,0,1-.6.9,3.064,3.064,0,0,1-1,.735A3.471,3.471,0,0,1,43.707.178Zm.959-2.408a1.93,1.93,0,0,0,1.694-.884,4.1,4.1,0,0,0,.6-2.34,4.026,4.026,0,0,0-.6-2.326,1.941,1.941,0,0,0-1.7-.863,1.921,1.921,0,0,0-1.708.884,4.1,4.1,0,0,0-.586,2.3,4.169,4.169,0,0,0,.589,2.326A1.915,1.915,0,0,0,44.666-2.23ZM55.419-14.545V0H52.393V-14.545ZM57.834,0V-10.909h3.026V0Zm1.52-12.315a1.628,1.628,0,0,1-1.151-.451,1.43,1.43,0,0,1-.483-1.083,1.419,1.419,0,0,1,.483-1.08,1.635,1.635,0,0,1,1.151-.447,1.644,1.644,0,0,1,1.158.447,1.419,1.419,0,0,1,.483,1.08,1.43,1.43,0,0,1-.483,1.083A1.637,1.637,0,0,1,59.354-12.315ZM66.3-6.307V0H63.274V-10.909h2.884v1.925h.128A3.108,3.108,0,0,1,67.5-10.494a3.675,3.675,0,0,1,2.063-.558,3.573,3.573,0,0,1,2.734,1.1,4.22,4.22,0,0,1,1.03,3.008V0H70.305V-6.406a2.2,2.2,0,0,0-.511-1.566,1.842,1.842,0,0,0-1.428-.565,1.986,1.986,0,0,0-1.488.586A2.279,2.279,0,0,0,66.3-6.307ZM80.682.213a5.789,5.789,0,0,1-2.891-.685,4.63,4.63,0,0,1-1.868-1.946A6.41,6.41,0,0,1,75.27-5.4a6.377,6.377,0,0,1,.653-2.955,4.823,4.823,0,0,1,1.843-1.982,5.349,5.349,0,0,1,2.795-.71,5.505,5.505,0,0,1,2.6.611A4.46,4.46,0,0,1,85.007-8.6a6.312,6.312,0,0,1,.682,3.086v.831H78.26v.007a2.681,2.681,0,0,0,.668,1.925,2.37,2.37,0,0,0,1.8.7,2.585,2.585,0,0,0,1.314-.32,1.739,1.739,0,0,0,.781-.945l2.8.185A3.836,3.836,0,0,1,84.006-.7,5.669,5.669,0,0,1,80.682.213ZM78.26-6.555h4.581a2.226,2.226,0,0,0-.625-1.605,2.145,2.145,0,0,0-1.605-.632,2.228,2.228,0,0,0-1.655.653A2.358,2.358,0,0,0,78.26-6.555ZM97.585.2A6.241,6.241,0,0,1,94.9-.355a4.636,4.636,0,0,1-1.864-1.527,3.937,3.937,0,0,1-.714-2.23h2.983a1.845,1.845,0,0,0,.71,1.371,2.426,2.426,0,0,0,1.57.526,2.379,2.379,0,0,0,1.776-.71,2.526,2.526,0,0,0,.7-1.847,2.55,2.55,0,0,0-.707-1.864,2.446,2.446,0,0,0-1.808-.728A3.051,3.051,0,0,0,96.3-7.1a2.245,2.245,0,0,0-.93.717l-2.734-.49.689-7.67h8.892v2.514H95.859l-.376,3.643h.085a2.817,2.817,0,0,1,1.158-.895,4.109,4.109,0,0,1,1.733-.355,4.466,4.466,0,0,1,2.344.618,4.45,4.45,0,0,1,1.626,1.7,4.971,4.971,0,0,1,.589,2.472,4.918,4.918,0,0,1-.678,2.61,4.806,4.806,0,0,1-1.911,1.79A5.982,5.982,0,0,1,97.585.2Z" transform="translate(10 47)" fill="#666"/></svg>