<svg xmlns="http://www.w3.org/2000/svg" width="80" height="80" viewBox="0 0 80 80"><g transform="translate(-86 -1)"><rect width="80" height="80" transform="translate(86 1)" fill="#f0f0f0"/><path d="M20.8,35H18.172V24.781H6.578V35H3.953V12.594H6.578v9.828H18.172V12.594H20.8ZM37.016,12.594v14.8h2.875v2.344H37.016V35H34.484V29.734H23.953V27.516q1.469-1.656,2.969-3.539t2.867-3.82q1.367-1.937,2.531-3.867a35.342,35.342,0,0,0,1.961-3.7Zm-10.172,14.8h7.641V16.422q-1.172,2.047-2.219,3.656T30.273,23q-.945,1.313-1.8,2.375T26.844,27.391Z" transform="translate(105 20)" fill="#4d4d4d"/></g></svg>