<svg xmlns="http://www.w3.org/2000/svg" width="275" height="80" viewBox="0 0 275 80"><g fill="#d9d9d9" stroke="#bfbfbf" stroke-width="2"><rect width="275" height="80" stroke="none"/><rect x="1" y="1" width="273" height="78" fill="none"/></g><path d="M2.276,0V-26.182H7.811v10.8H19.048v-10.8h5.523V0H19.048V-10.815H7.811V0ZM37.982.384a10.421,10.421,0,0,1-5.2-1.234,8.334,8.334,0,0,1-3.362-3.5A11.538,11.538,0,0,1,28.24-9.729a11.479,11.479,0,0,1,1.176-5.318,8.681,8.681,0,0,1,3.317-3.567,9.628,9.628,0,0,1,5.031-1.278,9.909,9.909,0,0,1,4.685,1.1,8.027,8.027,0,0,1,3.317,3.317A11.361,11.361,0,0,1,46.994-9.92v1.5H33.622v.013a4.826,4.826,0,0,0,1.2,3.464,4.265,4.265,0,0,0,3.247,1.266,4.653,4.653,0,0,0,2.365-.575,3.13,3.13,0,0,0,1.406-1.7l5.037.332a6.9,6.9,0,0,1-2.915,4.372A10.2,10.2,0,0,1,37.982.384ZM33.622-11.8h8.246a4.007,4.007,0,0,0-1.125-2.889,3.861,3.861,0,0,0-2.889-1.138,4.01,4.01,0,0,0-2.979,1.176A4.244,4.244,0,0,0,33.622-11.8ZM56.148.371A7.276,7.276,0,0,1,51.482-1.1a5.258,5.258,0,0,1-1.854-4.385,5.262,5.262,0,0,1,1.036-3.452,5.967,5.967,0,0,1,2.717-1.835A15.356,15.356,0,0,1,57-11.531a27.746,27.746,0,0,0,3.656-.537q1.1-.281,1.1-1.227v-.077A2.363,2.363,0,0,0,61-15.251a3.171,3.171,0,0,0-2.154-.665,3.866,3.866,0,0,0-2.339.639,3,3,0,0,0-1.151,1.624l-5.037-.409a6.716,6.716,0,0,1,2.793-4.257,9.775,9.775,0,0,1,5.759-1.572,11.916,11.916,0,0,1,4.091.69,6.807,6.807,0,0,1,3.075,2.154,5.907,5.907,0,0,1,1.17,3.8V0H62.041V-2.723h-.153A5.655,5.655,0,0,1,59.746-.492,6.85,6.85,0,0,1,56.148.371Zm1.56-3.759a4.213,4.213,0,0,0,2.94-1.042A3.351,3.351,0,0,0,61.8-7.018V-9.1a3.186,3.186,0,0,1-.991.384q-.671.166-1.432.288t-1.362.211a5.394,5.394,0,0,0-2.308.805,1.991,1.991,0,0,0-.876,1.751,1.95,1.95,0,0,0,.812,1.7A3.486,3.486,0,0,0,57.707-3.388ZM78.673.32a7.32,7.32,0,0,1-4.04-1.157A7.934,7.934,0,0,1,71.77-4.251a12.972,12.972,0,0,1-1.061-5.542A12.793,12.793,0,0,1,71.8-15.411a7.869,7.869,0,0,1,2.9-3.362,7.38,7.38,0,0,1,3.957-1.119,6.1,6.1,0,0,1,2.755.556,5.528,5.528,0,0,1,1.79,1.374,6.975,6.975,0,0,1,1.042,1.624h.166v-9.844h5.433V0H84.477V-3.145h-.23a6.578,6.578,0,0,1-1.074,1.617A5.515,5.515,0,0,1,81.364-.2,6.249,6.249,0,0,1,78.673.32ZM80.4-4.014a3.474,3.474,0,0,0,3.049-1.592,7.376,7.376,0,0,0,1.08-4.212A7.247,7.247,0,0,0,83.455-14,3.5,3.5,0,0,0,80.4-15.558a3.458,3.458,0,0,0-3.075,1.592A7.385,7.385,0,0,0,76.27-9.818a7.5,7.5,0,0,0,1.061,4.187A3.447,3.447,0,0,0,80.4-4.014ZM99.754-26.182V0H94.308V-26.182ZM104.1,0V-19.636h5.446V0Zm2.736-22.168a2.93,2.93,0,0,1-2.071-.812,2.574,2.574,0,0,1-.869-1.95,2.554,2.554,0,0,1,.869-1.943,2.943,2.943,0,0,1,2.071-.805,2.959,2.959,0,0,1,2.084.805,2.554,2.554,0,0,1,.869,1.943,2.574,2.574,0,0,1-.869,1.95A2.946,2.946,0,0,1,106.837-22.168Zm12.5,10.815V0h-5.446V-19.636h5.19v3.464h.23a5.594,5.594,0,0,1,2.192-2.717,6.616,6.616,0,0,1,3.714-1,6.432,6.432,0,0,1,4.922,1.975A7.6,7.6,0,0,1,132-12.5V0H126.55V-11.531a3.968,3.968,0,0,0-.92-2.819,3.315,3.315,0,0,0-2.57-1.016,3.576,3.576,0,0,0-2.678,1.055A4.1,4.1,0,0,0,119.34-11.352ZM145.227.384a10.42,10.42,0,0,1-5.2-1.234,8.334,8.334,0,0,1-3.362-3.5,11.538,11.538,0,0,1-1.176-5.376,11.479,11.479,0,0,1,1.176-5.318,8.681,8.681,0,0,1,3.317-3.567,9.628,9.628,0,0,1,5.031-1.278,9.909,9.909,0,0,1,4.685,1.1,8.027,8.027,0,0,1,3.317,3.317A11.361,11.361,0,0,1,154.24-9.92v1.5H140.868v.013a4.826,4.826,0,0,0,1.2,3.464,4.265,4.265,0,0,0,3.247,1.266,4.653,4.653,0,0,0,2.365-.575,3.13,3.13,0,0,0,1.406-1.7l5.037.332a6.9,6.9,0,0,1-2.915,4.372A10.2,10.2,0,0,1,145.227.384ZM140.868-11.8h8.246a4.007,4.007,0,0,0-1.125-2.889,3.861,3.861,0,0,0-2.889-1.138,4.01,4.01,0,0,0-2.979,1.176A4.244,4.244,0,0,0,140.868-11.8Zm36.614-14.382V0h-5.536V-20.928h-.153l-6,3.759v-4.909l6.482-4.1Z" transform="translate(10 53)" fill="#666"/></svg>