<svg xmlns="http://www.w3.org/2000/svg" width="80" height="80" viewBox="0 0 80 80"><g transform="translate(-86 -1)"><rect width="80" height="80" transform="translate(86 1)" fill="#f0f0f0"/><path d="M-14.252-1.488-24.33-6.551v-.691l10.078-5.648v1.758l-7.523,4.172v.047l7.523,3.68ZM-.634,0H-2.555V-6.914q0-3.75-2.789-3.75A3.041,3.041,0,0,0-7.712-9.58,4.039,4.039,0,0,0-8.673-6.8V0h-1.922V-17.766h1.922v7.758h.047a4.365,4.365,0,0,1,3.938-2.273q4.055,0,4.055,4.887ZM11.579-5.332a6.225,6.225,0,0,1-.4,2.262,5.437,5.437,0,0,1-1.1,1.781A4.921,4.921,0,0,1,8.4-.123,5.307,5.307,0,0,1,6.294.293,4.794,4.794,0,0,1,4.026-.234a4.8,4.8,0,0,1-1.7-1.518,7.279,7.279,0,0,1-1.061-2.42A13.11,13.11,0,0,1,.9-7.395a15.144,15.144,0,0,1,.486-3.979,9.665,9.665,0,0,1,1.383-3.059,6.375,6.375,0,0,1,2.162-1.963,5.793,5.793,0,0,1,2.824-.691,6.8,6.8,0,0,1,2.789.48v1.816a5.923,5.923,0,0,0-2.742-.668,4.086,4.086,0,0,0-2.027.5,4.656,4.656,0,0,0-1.547,1.424,6.945,6.945,0,0,0-.99,2.221A11.267,11.267,0,0,0,2.9-8.414h.047a4.035,4.035,0,0,1,3.832-2.1,5.044,5.044,0,0,1,1.986.375,4.288,4.288,0,0,1,1.512,1.061,4.775,4.775,0,0,1,.967,1.635A6.223,6.223,0,0,1,11.579-5.332ZM9.61-5.086a5.23,5.23,0,0,0-.223-1.582,3.432,3.432,0,0,0-.639-1.2,2.754,2.754,0,0,0-1.025-.756,3.451,3.451,0,0,0-1.383-.264,3.237,3.237,0,0,0-1.324.27,3.3,3.3,0,0,0-1.055.732,3.393,3.393,0,0,0-.7,1.078A3.414,3.414,0,0,0,3.012-5.5a5.212,5.212,0,0,0,.246,1.623A4.192,4.192,0,0,0,3.95-2.555,3.288,3.288,0,0,0,5.01-1.67a2.9,2.9,0,0,0,1.365.322A3.127,3.127,0,0,0,7.7-1.623a2.954,2.954,0,0,0,1.02-.768,3.553,3.553,0,0,0,.656-1.178A4.668,4.668,0,0,0,9.61-5.086ZM24.365-6.551,14.287-1.488V-3.234l7.547-3.656v-.07l-7.547-4.172v-1.758L24.365-7.242Z" transform="translate(126 51)" fill="#4d4d4d"/></g></svg>