<svg xmlns="http://www.w3.org/2000/svg" width="210" height="80" viewBox="0 0 210 80"><g fill="#d9d9d9" stroke="#bfbfbf" stroke-width="2"><rect width="210" height="80" stroke="none"/><rect x="1" y="1" width="208" height="78" fill="none"/></g><path d="M1.409-20.25h7.25V0h3.5V-20.25H19.42v-3.023H1.409ZM23.114,0h3.4V-17.454h-3.4Zm1.716-20.147a2.1,2.1,0,0,0,2.148-2.023A2.11,2.11,0,0,0,24.829-24.2a2.1,2.1,0,0,0-2.148,2.034A2.093,2.093,0,0,0,24.829-20.147Zm14.4,2.693H35.648v-4.182h-3.4v4.182H29.693v2.727H32.25V-4.42c-.011,3.17,2.409,4.7,5.091,4.648a6.505,6.505,0,0,0,2.2-.364l-.614-2.807a5.525,5.525,0,0,1-1.193.148c-1.1,0-2.091-.364-2.091-2.33v-9.6h3.579Zm7.511-5.818h-3.4V0h3.4ZM58.829.352c3.807,0,6.5-1.875,7.273-4.716l-3.216-.58a3.949,3.949,0,0,1-4.023,2.489c-2.909,0-4.864-1.886-4.954-5.25H66.318v-1.2c0-6.307-3.773-8.773-7.727-8.773-4.864,0-8.068,3.7-8.068,9.068C50.523-3.193,53.682.352,58.829.352ZM53.92-10.25a4.688,4.688,0,0,1,4.693-4.625,4.311,4.311,0,0,1,4.375,4.625ZM86.4.318c4.841,0,8.261-2.75,8.284-6.523A5.942,5.942,0,0,0,90-12.068V-12.2a5.206,5.206,0,0,0,3.818-5.182c-.023-3.557-3.159-6.2-7.42-6.2-4.307,0-7.443,2.648-7.42,6.2A5.118,5.118,0,0,0,82.8-12.2v.136A5.853,5.853,0,0,0,78.114-6.2C78.091-2.432,81.511.318,86.4.318Zm0-2.875c-2.909,0-4.75-1.545-4.727-3.875-.023-2.42,1.977-4.148,4.727-4.148,2.7,0,4.7,1.727,4.727,4.148C91.1-4.1,89.273-2.557,86.4-2.557Zm0-10.829c-2.352,0-4.023-1.489-4-3.7-.023-2.182,1.591-3.625,4-3.625,2.364,0,3.977,1.443,4,3.625A3.706,3.706,0,0,1,86.4-13.386Z" transform="translate(10 52)" fill="#666"/></svg>