<svg xmlns="http://www.w3.org/2000/svg" width="80" height="80" viewBox="0 0 80 80"><g transform="translate(-1 -1)"><rect width="80" height="80" transform="translate(1 1)" fill="#f0f0f0"/><path d="M20.8,35H18.172V24.781H6.578V35H3.953V12.594H6.578v9.828H18.172V12.594H20.8Zm17.828-6.344a6.532,6.532,0,0,1-.57,2.758,6.089,6.089,0,0,1-1.609,2.125,7.428,7.428,0,0,1-2.492,1.367,10.081,10.081,0,0,1-3.2.484,9.308,9.308,0,0,1-5.094-1.219v-2.75A8.163,8.163,0,0,0,30.844,33.2a7.05,7.05,0,0,0,2.117-.3,4.747,4.747,0,0,0,1.625-.859,3.817,3.817,0,0,0,1.047-1.359,4.245,4.245,0,0,0,.367-1.8Q36,24.5,29.75,24.5H27.891V22.328h1.766q5.531,0,5.531-4.125,0-3.813-4.219-3.812a7.183,7.183,0,0,0-4.453,1.594V13.5a9.735,9.735,0,0,1,5.094-1.281,7.827,7.827,0,0,1,2.547.391A5.836,5.836,0,0,1,36.109,13.7a4.847,4.847,0,0,1,1.258,1.688,5.209,5.209,0,0,1,.445,2.172q0,4.422-4.469,5.688v.063a7.069,7.069,0,0,1,2.109.555,5.629,5.629,0,0,1,1.672,1.117,4.98,4.98,0,0,1,1.1,1.617A5.163,5.163,0,0,1,38.625,28.656Z" transform="translate(20 20)" fill="#4d4d4d"/></g></svg>