<svg xmlns="http://www.w3.org/2000/svg" width="80" height="80" viewBox="0 0 80 80"><g transform="translate(-1 -1)"><rect width="80" height="80" transform="translate(1 1)" fill="#f0f0f0"/><path d="M20.8,35H18.172V24.781H6.578V35H3.953V12.594H6.578v9.828H18.172V12.594H20.8Zm14.25,0H32.484V15.641a5.931,5.931,0,0,1-.867.68,14.135,14.135,0,0,1-1.281.758q-.711.375-1.5.7A10.9,10.9,0,0,1,27.3,18.3V15.7a14.9,14.9,0,0,0,1.789-.633q.945-.4,1.859-.891t1.727-1.031a13.707,13.707,0,0,0,1.406-1.055h.969Z" transform="translate(20 20)" fill="#4d4d4d"/></g></svg>