<svg xmlns="http://www.w3.org/2000/svg" width="80" height="80" viewBox="0 0 80 80"><g transform="translate(-86 -1)"><rect width="80" height="80" transform="translate(86 1)" fill="#f0f0f0"/><path d="M20.8,35H18.172V24.781H6.578V35H3.953V12.594H6.578v9.828H18.172V12.594H20.8Zm18.078-6.844a7.541,7.541,0,0,1-.562,2.969,6.491,6.491,0,0,1-1.6,2.281A7.171,7.171,0,0,1,34.2,34.875a9.808,9.808,0,0,1-3.266.516,9.021,9.021,0,0,1-4.641-.937V31.734A8.533,8.533,0,0,0,30.969,33.2a6.322,6.322,0,0,0,2.2-.359,4.878,4.878,0,0,0,1.664-1A4.282,4.282,0,0,0,35.883,30.3a5.236,5.236,0,0,0,.367-1.984,4.251,4.251,0,0,0-1.469-3.43,6.441,6.441,0,0,0-4.266-1.242q-.453,0-.953.016t-1,.039q-.5.023-.977.055t-.867.078l.766-11.234H37.844v2.313H29.7l-.453,6.578q.5-.031,1.063-.055t1-.023a10.056,10.056,0,0,1,3.188.469,6.753,6.753,0,0,1,2.383,1.336,5.6,5.6,0,0,1,1.484,2.125A7.474,7.474,0,0,1,38.875,28.156Z" transform="translate(105 20)" fill="#4d4d4d"/></g></svg>