<svg xmlns="http://www.w3.org/2000/svg" width="80" height="80" viewBox="0 0 80 80"><g transform="translate(86 -2) rotate(90)"><rect width="80" height="80" transform="translate(2 6)" fill="#f0f0f0"/><path d="M7.535,4.639A13.654,13.654,0,0,1,16,1.6a14.078,14.078,0,0,1,9.63,4.03,19.371,19.371,0,0,1,4.645,6.555,1.59,1.59,0,0,1,0,1.23,19.824,19.824,0,0,1-3.995,5.92l5.26,4.12a1.2,1.2,0,1,1-1.48,1.89L.46,2.145A1.2,1.2,0,1,1,1.941.256Zm3.62,2.836,4.515,3.54A3.237,3.237,0,0,0,16,9.555a3.649,3.649,0,0,0-.42-1.535A4.064,4.064,0,0,1,16,7.955a4.8,4.8,0,0,1,4.8,4.8,4.261,4.261,0,0,1-.445,1.97l1.975,1.51a7.189,7.189,0,0,0-11.175-8.76ZM16,24a14.069,14.069,0,0,1-9.63-4.03,20.361,20.361,0,0,1-4.647-6.555,1.6,1.6,0,0,1,0-1.23,19.012,19.012,0,0,1,2.431-4.11L8.87,11.79a7.309,7.309,0,0,0-.07.965,7.2,7.2,0,0,0,9.85,6.74l3.66,2.88A13.143,13.143,0,0,1,16,24Z" transform="translate(29 62) rotate(-90)" fill="#4d4d4d"/></g></svg>