<svg xmlns="http://www.w3.org/2000/svg" xmlns:xlink="http://www.w3.org/1999/xlink" width="80" height="80" viewBox="0 0 80 80"><defs><clipPath id="a"><rect width="80" height="80" transform="translate(1 1)" fill="none"/></clipPath></defs><g transform="translate(-1 -1)"><rect width="80" height="80" transform="translate(1 1)" fill="#f0f0f0"/><g clip-path="url(#a)"><g transform="translate(-33 -23.922)"><path d="M31-1V23H-1V-1Z" transform="translate(19 21.922)" fill="#4d4d4d"/><path d="M1796.956-416.444l3.9-5.045,2.182,2.87,4.705-5.826,5.21,8Z" transform="translate(-1770.956 453.342)" fill="#f0f0f0"/></g><g transform="translate(-33 8.078)"><path d="M31-1V23H-1V-1Z" transform="translate(19 21.922)" fill="#4d4d4d"/><path d="M1796.956-416.444l3.9-5.045,2.182,2.87,4.705-5.826,5.21,8Z" transform="translate(-1770.956 453.342)" fill="#f0f0f0"/></g><g transform="translate(-33 40.078)"><path d="M31-1V23H-1V-1Z" transform="translate(19 21.922)" fill="#4d4d4d"/><path d="M1796.956-416.444l3.9-5.045,2.182,2.87,4.705-5.826,5.21,8Z" transform="translate(-1770.956 453.342)" fill="#f0f0f0"/></g><g transform="translate(7 -23.922)"><path d="M31-1V23H-1V-1Z" transform="translate(19 21.922)" fill="#4d4d4d"/><path d="M1796.956-416.444l3.9-5.045,2.182,2.87,4.705-5.826,5.21,8Z" transform="translate(-1770.956 453.342)" fill="#f0f0f0"/></g><g transform="translate(7 8.078)"><path d="M31-1V23H-1V-1Z" transform="translate(19 21.922)" fill="#4d4d4d"/><path d="M1796.956-416.444l3.9-5.045,2.182,2.87,4.705-5.826,5.21,8Z" transform="translate(-1770.956 453.342)" fill="#f0f0f0"/></g><g transform="translate(7 40.078)"><path d="M31-1V23H-1V-1Z" transform="translate(19 21.922)" fill="#4d4d4d"/><path d="M1796.956-416.444l3.9-5.045,2.182,2.87,4.705-5.826,5.21,8Z" transform="translate(-1770.956 453.342)" fill="#f0f0f0"/></g><g transform="translate(47 -23.922)"><path d="M31-1V23H-1V-1Z" transform="translate(19 21.922)" fill="#4d4d4d"/><path d="M1796.956-416.444l3.9-5.045,2.182,2.87,4.705-5.826,5.21,8Z" transform="translate(-1770.956 453.342)" fill="#f0f0f0"/></g><g transform="translate(47 8.078)"><path d="M31-1V23H-1V-1Z" transform="translate(19 21.922)" fill="#4d4d4d"/><path d="M1796.956-416.444l3.9-5.045,2.182,2.87,4.705-5.826,5.21,8Z" transform="translate(-1770.956 453.342)" fill="#f0f0f0"/></g><g transform="translate(47 40.078)"><path d="M31-1V23H-1V-1Z" transform="translate(19 21.922)" fill="#4d4d4d"/><path d="M1796.956-416.444l3.9-5.045,2.182,2.87,4.705-5.826,5.21,8Z" transform="translate(-1770.956 453.342)" fill="#f0f0f0"/></g></g></g></svg>