<svg xmlns="http://www.w3.org/2000/svg" xmlns:xlink="http://www.w3.org/1999/xlink" width="80" height="80" viewBox="0 0 80 80"><defs><clipPath id="a"><rect width="76" height="76" transform="translate(3 3)" fill="#d9d9d9" stroke="#bfbfbf" stroke-miterlimit="10" stroke-width="2"/></clipPath></defs><g transform="translate(-1 -1)"><g transform="translate(1 1)" fill="#d9d9d9" stroke="#bfbfbf" stroke-miterlimit="10" stroke-width="2"><rect width="80" height="80" stroke="none"/><rect x="1" y="1" width="78" height="78" fill="none"/></g><g clip-path="url(#a)"><path d="M-473-10216.5a3.04,3.04,0,0,1-3-3.075v-14.351a3.04,3.04,0,0,1,3-3.075h14a3.042,3.042,0,0,1,3,3.075v14.351a3.042,3.042,0,0,1-3,3.075Zm14-2.05a1.013,1.013,0,0,0,1-1.025v-3.684l-4-4.1-8.593,8.81Zm-14.359-.067,10.652-10.918a.988.988,0,0,1,1.416,0l3.291,3.375v-7.766a1.013,1.013,0,0,0-1-1.025h-14a1.015,1.015,0,0,0-1,1.025v14.351A1.028,1.028,0,0,0-473.358-10218.616Z" transform="translate(470.999 10233)" fill="#666"/><path d="M-473-10216.5a3.04,3.04,0,0,1-3-3.075v-14.351a3.04,3.04,0,0,1,3-3.075h14a3.042,3.042,0,0,1,3,3.075v14.351a3.042,3.042,0,0,1-3,3.075Zm14-2.05a1.013,1.013,0,0,0,1-1.025v-3.684l-4-4.1-8.593,8.81Zm-14.359-.067,10.652-10.918a.988.988,0,0,1,1.416,0l3.291,3.375v-7.766a1.013,1.013,0,0,0-1-1.025h-14a1.015,1.015,0,0,0-1,1.025v14.351A1.028,1.028,0,0,0-473.358-10218.616Z" transform="translate(470.999 10256)" fill="#666"/><path d="M-473-10216.5a3.04,3.04,0,0,1-3-3.075v-14.351a3.04,3.04,0,0,1,3-3.075h14a3.042,3.042,0,0,1,3,3.075v14.351a3.042,3.042,0,0,1-3,3.075Zm14-2.05a1.013,1.013,0,0,0,1-1.025v-3.684l-4-4.1-8.593,8.81Zm-14.359-.067,10.652-10.918a.988.988,0,0,1,1.416,0l3.291,3.375v-7.766a1.013,1.013,0,0,0-1-1.025h-14a1.015,1.015,0,0,0-1,1.025v14.351A1.028,1.028,0,0,0-473.358-10218.616Z" transform="translate(470.999 10279)" fill="#666"/><path d="M-473-10216.5a3.04,3.04,0,0,1-3-3.075v-14.351a3.04,3.04,0,0,1,3-3.075h14a3.042,3.042,0,0,1,3,3.075v14.351a3.042,3.042,0,0,1-3,3.075Zm14-2.05a1.013,1.013,0,0,0,1-1.025v-3.684l-4-4.1-8.593,8.81Zm-14.359-.067,10.652-10.918a.988.988,0,0,1,1.416,0l3.291,3.375v-7.766a1.013,1.013,0,0,0-1-1.025h-14a1.015,1.015,0,0,0-1,1.025v14.351A1.028,1.028,0,0,0-473.358-10218.616Z" transform="translate(470.999 10302)" fill="#666"/><path d="M-473-10216.5a3.04,3.04,0,0,1-3-3.075v-14.351a3.04,3.04,0,0,1,3-3.075h14a3.042,3.042,0,0,1,3,3.075v14.351a3.042,3.042,0,0,1-3,3.075Zm14-2.05a1.013,1.013,0,0,0,1-1.025v-3.684l-4-4.1-8.593,8.81Zm-14.359-.067,10.652-10.918a.988.988,0,0,1,1.416,0l3.291,3.375v-7.766a1.013,1.013,0,0,0-1-1.025h-14a1.015,1.015,0,0,0-1,1.025v14.351A1.028,1.028,0,0,0-473.358-10218.616Z" transform="translate(494.999 10233)" fill="#666"/><path d="M-473-10216.5a3.04,3.04,0,0,1-3-3.075v-14.351a3.04,3.04,0,0,1,3-3.075h14a3.042,3.042,0,0,1,3,3.075v14.351a3.042,3.042,0,0,1-3,3.075Zm14-2.05a1.013,1.013,0,0,0,1-1.025v-3.684l-4-4.1-8.593,8.81Zm-14.359-.067,10.652-10.918a.988.988,0,0,1,1.416,0l3.291,3.375v-7.766a1.013,1.013,0,0,0-1-1.025h-14a1.015,1.015,0,0,0-1,1.025v14.351A1.028,1.028,0,0,0-473.358-10218.616Z" transform="translate(494.999 10256)" fill="#666"/><path d="M-473-10216.5a3.04,3.04,0,0,1-3-3.075v-14.351a3.04,3.04,0,0,1,3-3.075h14a3.042,3.042,0,0,1,3,3.075v14.351a3.042,3.042,0,0,1-3,3.075Zm14-2.05a1.013,1.013,0,0,0,1-1.025v-3.684l-4-4.1-8.593,8.81Zm-14.359-.067,10.652-10.918a.988.988,0,0,1,1.416,0l3.291,3.375v-7.766a1.013,1.013,0,0,0-1-1.025h-14a1.015,1.015,0,0,0-1,1.025v14.351A1.028,1.028,0,0,0-473.358-10218.616Z" transform="translate(494.999 10279)" fill="#666"/><path d="M-473-10216.5a3.04,3.04,0,0,1-3-3.075v-14.351a3.04,3.04,0,0,1,3-3.075h14a3.042,3.042,0,0,1,3,3.075v14.351a3.042,3.042,0,0,1-3,3.075Zm14-2.05a1.013,1.013,0,0,0,1-1.025v-3.684l-4-4.1-8.593,8.81Zm-14.359-.067,10.652-10.918a.988.988,0,0,1,1.416,0l3.291,3.375v-7.766a1.013,1.013,0,0,0-1-1.025h-14a1.015,1.015,0,0,0-1,1.025v14.351A1.028,1.028,0,0,0-473.358-10218.616Z" transform="translate(494.999 10302)" fill="#666"/><path d="M-473-10216.5a3.04,3.04,0,0,1-3-3.075v-14.351a3.04,3.04,0,0,1,3-3.075h14a3.042,3.042,0,0,1,3,3.075v14.351a3.042,3.042,0,0,1-3,3.075Zm14-2.05a1.013,1.013,0,0,0,1-1.025v-3.684l-4-4.1-8.593,8.81Zm-14.359-.067,10.652-10.918a.988.988,0,0,1,1.416,0l3.291,3.375v-7.766a1.013,1.013,0,0,0-1-1.025h-14a1.015,1.015,0,0,0-1,1.025v14.351A1.028,1.028,0,0,0-473.358-10218.616Z" transform="translate(518.999 10233)" fill="#666"/><path d="M-473-10216.5a3.04,3.04,0,0,1-3-3.075v-14.351a3.04,3.04,0,0,1,3-3.075h14a3.042,3.042,0,0,1,3,3.075v14.351a3.042,3.042,0,0,1-3,3.075Zm14-2.05a1.013,1.013,0,0,0,1-1.025v-3.684l-4-4.1-8.593,8.81Zm-14.359-.067,10.652-10.918a.988.988,0,0,1,1.416,0l3.291,3.375v-7.766a1.013,1.013,0,0,0-1-1.025h-14a1.015,1.015,0,0,0-1,1.025v14.351A1.028,1.028,0,0,0-473.358-10218.616Z" transform="translate(518.999 10256)" fill="#666"/><path d="M-473-10216.5a3.04,3.04,0,0,1-3-3.075v-14.351a3.04,3.04,0,0,1,3-3.075h14a3.042,3.042,0,0,1,3,3.075v14.351a3.042,3.042,0,0,1-3,3.075Zm14-2.05a1.013,1.013,0,0,0,1-1.025v-3.684l-4-4.1-8.593,8.81Zm-14.359-.067,10.652-10.918a.988.988,0,0,1,1.416,0l3.291,3.375v-7.766a1.013,1.013,0,0,0-1-1.025h-14a1.015,1.015,0,0,0-1,1.025v14.351A1.028,1.028,0,0,0-473.358-10218.616Z" transform="translate(518.999 10279)" fill="#666"/><path d="M-473-10216.5a3.04,3.04,0,0,1-3-3.075v-14.351a3.04,3.04,0,0,1,3-3.075h14a3.042,3.042,0,0,1,3,3.075v14.351a3.042,3.042,0,0,1-3,3.075Zm14-2.05a1.013,1.013,0,0,0,1-1.025v-3.684l-4-4.1-8.593,8.81Zm-14.359-.067,10.652-10.918a.988.988,0,0,1,1.416,0l3.291,3.375v-7.766a1.013,1.013,0,0,0-1-1.025h-14a1.015,1.015,0,0,0-1,1.025v14.351A1.028,1.028,0,0,0-473.358-10218.616Z" transform="translate(518.999 10302)" fill="#666"/><path d="M-473-10216.5a3.04,3.04,0,0,1-3-3.075v-14.351a3.04,3.04,0,0,1,3-3.075h14a3.042,3.042,0,0,1,3,3.075v14.351a3.042,3.042,0,0,1-3,3.075Zm14-2.05a1.013,1.013,0,0,0,1-1.025v-3.684l-4-4.1-8.593,8.81Zm-14.359-.067,10.652-10.918a.988.988,0,0,1,1.416,0l3.291,3.375v-7.766a1.013,1.013,0,0,0-1-1.025h-14a1.015,1.015,0,0,0-1,1.025v14.351A1.028,1.028,0,0,0-473.358-10218.616Z" transform="translate(542.999 10233)" fill="#666"/><path d="M-473-10216.5a3.04,3.04,0,0,1-3-3.075v-14.351a3.04,3.04,0,0,1,3-3.075h14a3.042,3.042,0,0,1,3,3.075v14.351a3.042,3.042,0,0,1-3,3.075Zm14-2.05a1.013,1.013,0,0,0,1-1.025v-3.684l-4-4.1-8.593,8.81Zm-14.359-.067,10.652-10.918a.988.988,0,0,1,1.416,0l3.291,3.375v-7.766a1.013,1.013,0,0,0-1-1.025h-14a1.015,1.015,0,0,0-1,1.025v14.351A1.028,1.028,0,0,0-473.358-10218.616Z" transform="translate(542.999 10256)" fill="#666"/><path d="M-473-10216.5a3.04,3.04,0,0,1-3-3.075v-14.351a3.04,3.04,0,0,1,3-3.075h14a3.042,3.042,0,0,1,3,3.075v14.351a3.042,3.042,0,0,1-3,3.075Zm14-2.05a1.013,1.013,0,0,0,1-1.025v-3.684l-4-4.1-8.593,8.81Zm-14.359-.067,10.652-10.918a.988.988,0,0,1,1.416,0l3.291,3.375v-7.766a1.013,1.013,0,0,0-1-1.025h-14a1.015,1.015,0,0,0-1,1.025v14.351A1.028,1.028,0,0,0-473.358-10218.616Z" transform="translate(542.999 10279)" fill="#666"/><path d="M-473-10216.5a3.04,3.04,0,0,1-3-3.075v-14.351a3.04,3.04,0,0,1,3-3.075h14a3.042,3.042,0,0,1,3,3.075v14.351a3.042,3.042,0,0,1-3,3.075Zm14-2.05a1.013,1.013,0,0,0,1-1.025v-3.684l-4-4.1-8.593,8.81Zm-14.359-.067,10.652-10.918a.988.988,0,0,1,1.416,0l3.291,3.375v-7.766a1.013,1.013,0,0,0-1-1.025h-14a1.015,1.015,0,0,0-1,1.025v14.351A1.028,1.028,0,0,0-473.358-10218.616Z" transform="translate(542.999 10302)" fill="#666"/></g></g></svg>