<svg xmlns="http://www.w3.org/2000/svg" width="80" height="80" viewBox="0 0 80 80"><g transform="translate(-1 -1)"><g transform="translate(1 1)" fill="#d9d9d9" stroke="#bfbfbf" stroke-miterlimit="10" stroke-width="2"><rect width="80" height="80" stroke="none"/><rect x="1" y="1" width="78" height="78" fill="none"/></g><path d="M-471.5-10206.5a4.543,4.543,0,0,1-4.5-4.576v-21.35a4.544,4.544,0,0,1,4.5-4.575h21a4.544,4.544,0,0,1,4.5,4.575v21.35a4.543,4.543,0,0,1-4.5,4.576Zm21-3.05a1.512,1.512,0,0,0,1.5-1.526v-5.674a1.488,1.488,0,0,1-.56-.358l-6.438-6.549-13.876,14.107Zm-22.5-22.876v21.35a1.547,1.547,0,0,0,.04.351l15.9-16.166a1.487,1.487,0,0,1,2.122,0l5.937,6.037v-11.571a1.514,1.514,0,0,0-1.5-1.526h-21A1.516,1.516,0,0,0-473-10232.425Z" transform="translate(502 10262.75)" fill="#666"/></g></svg>