<svg xmlns="http://www.w3.org/2000/svg" xmlns:xlink="http://www.w3.org/1999/xlink" width="100" height="100" viewBox="0 0 100 100"><defs><clipPath id="a"><rect width="60" height="58" fill="none"/></clipPath></defs><g transform="translate(-126 -130)"><rect width="100" height="100" transform="translate(126 130)" fill="#efefef"/><g transform="translate(136 151)" clip-path="url(#a)"><g transform="translate(-126 -159)"><rect width="80" height="8" transform="translate(126 159)" fill="#787878"/></g><g transform="translate(-126 -134)"><rect width="80" height="8" transform="translate(126 159)" fill="#787878"/></g><g transform="translate(-126 -109)"><rect width="80" height="8" transform="translate(126 159)" fill="#787878"/></g></g><g transform="translate(2 1)"><path d="M6.924,166.854.635,160.729a1.469,1.469,0,0,1-.563-1.123h0c0-.012,0-.023,0-.035h0a1.467,1.467,0,0,1,.561-1.156l6.292-6.126a1.54,1.54,0,0,1,2.137,0,1.445,1.445,0,0,1,0,2.081L5.229,158.1H30.6a1.471,1.471,0,1,1,0,2.942H5.23l3.831,3.73a1.445,1.445,0,0,1,0,2.081,1.54,1.54,0,0,1-2.137,0Z" transform="translate(49.428 215.072) rotate(-90)" fill="#434343"/><path d="M6.924,166.854.635,160.729a1.469,1.469,0,0,1-.563-1.123h0c0-.012,0-.023,0-.035h0a1.467,1.467,0,0,1,.561-1.156l6.292-6.126a1.54,1.54,0,0,1,2.137,0,1.445,1.445,0,0,1,0,2.081L5.229,158.1H30.6a1.471,1.471,0,1,1,0,2.942H5.23l3.831,3.73a1.445,1.445,0,0,1,0,2.081,1.54,1.54,0,0,1-2.137,0Z" transform="translate(368.571 142.929) rotate(90)" fill="#434343"/></g></g></svg>