<svg xmlns="http://www.w3.org/2000/svg" xmlns:xlink="http://www.w3.org/1999/xlink" width="80" height="80" viewBox="0 0 80 80">
  <defs>
    <clipPath id="clip-path">
      <rect width="40" height="50" fill="none"/>
    </clipPath>
  </defs>
  <g id="LineHeight_2" transform="translate(-126 -130)">
    <rect id="Background" width="80" height="80" transform="translate(126 130)" fill="#efefef"/>
    <g id="Repeat_Grid_8" data-name="Repeat Grid 8" transform="translate(141 145)" clip-path="url(#clip-path)">
      <g transform="translate(-136 -153)">
        <rect id="Path" width="40" height="6" transform="translate(136 153)" fill="#4d4d4d"/>
      </g>
      <g transform="translate(-136 -131)">
        <rect id="Path-2" data-name="Path" width="40" height="6" transform="translate(136 153)" fill="#4d4d4d"/>
      </g>
      <g transform="translate(-136 -109)">
        <rect id="Path-3" data-name="Path" width="40" height="6" transform="translate(136 153)" fill="#4d4d4d"/>
      </g>
    </g>
    <path id="Union" d="M5.621,31.107l-.036.036L4.172,29.728l.035-.035L0,25.485l1.414-1.414,3.208,3.207V6.142h2V27.278l3.207-3.207,1.415,1.414L7.036,29.692l.036.036L5.657,31.143Z" transform="translate(186.757 168.858)" fill="#4d4d4d"/>
    <path id="Union-2" data-name="Union" d="M4.622,25V3.864L1.414,7.071,0,5.657,4.207,1.45l-.035-.035L5.585,0l.036.036L5.657,0,7.071,1.415l-.036.036,4.207,4.207L9.828,7.071,6.621,3.865V25Z" transform="translate(186.757 140)" fill="#4d4d4d"/>
  </g>
</svg>
