<svg xmlns="http://www.w3.org/2000/svg" xmlns:xlink="http://www.w3.org/1999/xlink" width="140" height="80" viewBox="0 0 140 80"><defs><clipPath id="a"><rect width="72" height="56" fill="none"/></clipPath></defs><g transform="translate(-1 -1)"><g transform="translate(1 1)" fill="#d9d9d9" stroke="#bfbfbf" stroke-miterlimit="10" stroke-width="2"><rect width="140" height="80" stroke="none"/><rect x="1" y="1" width="138" height="78" fill="none"/></g><g transform="translate(11 13)" clip-path="url(#a)"><g transform="translate(-12 -12)"><rect width="20" height="8" transform="translate(12 12)" fill="#666"/></g><g transform="translate(14 -12)"><rect width="20" height="8" transform="translate(12 12)" fill="#666"/></g><g transform="translate(40 -12)"><rect width="20" height="8" transform="translate(12 12)" fill="#666"/></g><g transform="translate(-12 4)"><rect width="20" height="8" transform="translate(12 12)" fill="#666"/></g><g transform="translate(14 4)"><rect width="20" height="8" transform="translate(12 12)" fill="#666"/></g><g transform="translate(40 4)"><rect width="20" height="8" transform="translate(12 12)" fill="#666"/></g><g transform="translate(-12 20)"><rect width="20" height="8" transform="translate(12 12)" fill="#666"/></g><g transform="translate(14 20)"><rect width="20" height="8" transform="translate(12 12)" fill="#666"/></g><g transform="translate(40 20)"><rect width="20" height="8" transform="translate(12 12)" fill="#666"/></g><g transform="translate(-12 36)"><rect width="20" height="8" transform="translate(12 12)" fill="#666"/></g><g transform="translate(14 36)"><rect width="20" height="8" transform="translate(12 12)" fill="#666"/></g><g transform="translate(40 36)"><rect width="20" height="8" transform="translate(12 12)" fill="#666"/></g></g></g></svg>