<svg xmlns="http://www.w3.org/2000/svg" width="140" height="80" viewBox="0 0 140 80"><g transform="translate(-2 -1)"><g transform="translate(2 1)" fill="#d9d9d9" stroke="#bfbfbf" stroke-miterlimit="10" stroke-width="2"><rect width="140" height="80" stroke="none"/><rect x="1" y="1" width="138" height="78" fill="none"/></g><g transform="translate(1 -9)"><g transform="translate(31 25)" fill="none" stroke="#707070" stroke-width="4"><rect width="80" height="48" rx="4" stroke="none"/><rect x="2" y="2" width="76" height="44" rx="2" fill="none"/></g><path d="M45.985,15.045a3.637,3.637,0,0,0-3.368,2.033,3.146,3.146,0,0,0,.758,3.646,3.839,3.839,0,0,0,3.945.739,3.344,3.344,0,0,0,2.241-3.084A3.47,3.47,0,0,0,45.985,15.045ZM43.113,31.726H71.837V25.048L63.2,17.454,51.73,27.716c-3.747-3.486-4.309-3.593-4.309-3.593s-.562.106-4.309,3.593Z" transform="translate(14.22 24.951)" fill="#666"/></g></g></svg>