<svg xmlns="http://www.w3.org/2000/svg" width="120" height="80" viewBox="0 0 120 80"><g fill="#d9d9d9" stroke="#bfbfbf" stroke-width="2"><rect width="120" height="80" stroke="none"/><rect x="1" y="1" width="118" height="78" fill="none"/></g><g transform="translate(33 13.142)"><path d="M46.046,15.045A3.729,3.729,0,0,0,42.622,17a2.9,2.9,0,0,0,.771,3.5A4.082,4.082,0,0,0,47.4,21.2a3.229,3.229,0,0,0,2.279-2.958A3.446,3.446,0,0,0,46.046,15.045Zm-2.92,16h29.2V24.64l-8.781-7.284L51.887,27.2c-3.81-3.344-4.381-3.446-4.381-3.446s-.571.1-4.381,3.446Z" transform="translate(-30.083 4.042)" fill="#666"/><g transform="translate(0 -0.142)" fill="none" stroke="#707070" stroke-width="4"><rect width="54" height="54" stroke="none"/><rect x="2" y="2" width="50" height="50" fill="none"/></g></g></svg>