<svg xmlns="http://www.w3.org/2000/svg" width="140" height="80" viewBox="0 0 140 80"><g transform="translate(-1 -1)"><g transform="translate(1 1)" fill="#d9d9d9" stroke="#bfbfbf" stroke-miterlimit="10" stroke-width="2"><rect width="140" height="80" stroke="none"/><rect x="1" y="1" width="138" height="78" fill="none"/></g><rect width="48" height="8" transform="translate(69 37)" fill="#666"/><g transform="translate(11 15.142)"><path d="M45.3,15.045a2.984,2.984,0,0,0-2.74,1.56,2.32,2.32,0,0,0,.617,2.8,3.266,3.266,0,0,0,3.208.567A2.583,2.583,0,0,0,48.211,17.6,2.757,2.757,0,0,0,45.3,15.045Zm-2.336,12.8H66.33V22.721l-7.025-5.828-9.33,7.874c-3.048-2.675-3.5-2.757-3.5-2.757s-.457.081-3.5,2.757Z" transform="translate(-30.33 4.413)" fill="#666"/><g transform="translate(0 1.858)" fill="none" stroke="#666" stroke-width="4"><rect width="48" height="48" stroke="none"/><rect x="2" y="2" width="44" height="44" fill="none"/></g></g></g></svg>