<svg xmlns="http://www.w3.org/2000/svg" width="100" height="100" viewBox="0 0 100 100"><g transform="translate(5 -141)"><rect width="100" height="100" transform="translate(-5 141)" fill="#efefef"/><g transform="translate(-5 143)"><g transform="translate(10 23)" fill="#dcdcdc" stroke="#707070" stroke-width="1" stroke-dasharray="3 3"><rect width="80" height="20" stroke="none"/><rect x="0.5" y="0.5" width="79" height="19" fill="none"/></g><g transform="translate(10 53)" fill="#dcdcdc" stroke="#707070" stroke-width="1" stroke-dasharray="3 3"><rect width="80" height="20" stroke="none"/><rect x="0.5" y="0.5" width="79" height="19" fill="none"/></g></g><path d="M6.924,166.854.635,160.729a1.469,1.469,0,0,1-.563-1.123h0c0-.012,0-.023,0-.035h0a1.467,1.467,0,0,1,.561-1.156l6.292-6.126a1.54,1.54,0,0,1,2.137,0,1.445,1.445,0,0,1,0,2.081L5.229,158.1H40.6a1.471,1.471,0,0,1,0,2.942H5.23l3.831,3.73a1.445,1.445,0,0,1,0,2.081,1.54,1.54,0,0,1-2.137,0Z" transform="translate(-114.572 211.571) rotate(-90)" fill="#434343"/></g></svg>