<svg xmlns="http://www.w3.org/2000/svg" width="80" height="80" viewBox="0 0 80 80"><g transform="translate(-1 81) rotate(-90)"><rect width="80" height="80" transform="translate(1 1)" fill="#f0f0f0"/><path d="M15.534,39.134A4.374,4.374,0,0,1,16,39.111a5.334,5.334,0,1,1-5.334,5.334,4.374,4.374,0,0,1,.022-.467,4.078,4.078,0,0,0,1.756.467A3.559,3.559,0,0,0,16,40.889,4.078,4.078,0,0,0,15.534,39.134ZM26.7,36.478a21.524,21.524,0,0,1,5.161,7.284,1.767,1.767,0,0,1,0,1.367A22.526,22.526,0,0,1,26.7,52.412,15.634,15.634,0,0,1,16,56.89,15.629,15.629,0,0,1,5.3,52.412,22.612,22.612,0,0,1,.137,45.128a1.776,1.776,0,0,1,0-1.367A21.6,21.6,0,0,1,5.3,36.478,15.638,15.638,0,0,1,16,32a15.643,15.643,0,0,1,10.7,4.478ZM16,36.445a8,8,0,1,0,8,8A8,8,0,0,0,16,36.445Z" transform="translate(85.445 25) rotate(90)" fill="#4d4d4d"/></g></svg>