<svg xmlns="http://www.w3.org/2000/svg" width="80" height="48" viewBox="0 0 80 48"><g transform="translate(-5364 276.055)"><g transform="translate(5364 -276.055)" fill="#d9d9d9" stroke="#bfbfbf" stroke-width="2"><rect width="80" height="48" stroke="none"/><rect x="1" y="1" width="78" height="46" fill="none"/></g><path d="M7.625-8.579H9.318c-.051-1.864-1.7-3.216-4.062-3.216-2.335,0-4.125,1.335-4.125,3.341,0,1.619,1.159,2.568,3.028,3.074l1.375.375c1.244.33,2.2.739,2.2,1.773,0,1.136-1.085,1.886-2.58,1.886-1.352,0-2.477-.6-2.58-1.869H.818C.932-1.108,2.562.193,5.17.193,7.9.193,9.477-1.244,9.477-3.216c0-2.1-1.869-2.909-3.347-3.273l-1.136-.3c-.909-.233-2.119-.659-2.114-1.773,0-.989.9-1.722,2.335-1.722C6.551-10.278,7.5-9.653,7.625-8.579Z" transform="translate(5399 -246.055)" fill="#666"/></g></svg>