<svg xmlns="http://www.w3.org/2000/svg" width="80" height="80" viewBox="0 0 80 80"><defs><style>.a{fill:#f0f0f0;}.b{fill:#4d4d4d;}</style></defs><g transform="translate(-1 -1)"><rect class="a" width="80" height="80" transform="translate(1 1)"/><rect class="b" width="56" height="38" transform="translate(13 22)"/><path class="a" d="M3.11,6.69.27,3.971a.657.657,0,0,1,0-1.061L3.11.192a.708.708,0,0,1,.969,0,.638.638,0,0,1,0,.929L2.34,2.785H7.51a.656.656,0,1,1,0,1.312H2.34L4.079,5.761a.638.638,0,0,1,0,.929.707.707,0,0,1-.969,0Z" transform="translate(68.031 44.654) rotate(-180)"/><path class="a" d="M3.11,6.69.27,3.971a.657.657,0,0,1,0-1.061L3.11.192a.708.708,0,0,1,.969,0,.638.638,0,0,1,0,.929L2.34,2.785H7.51a.656.656,0,1,1,0,1.312H2.34L4.079,5.761a.638.638,0,0,1,0,.929.707.707,0,0,1-.969,0Z" transform="translate(13.969 37.772)"/></g></svg>