<svg xmlns="http://www.w3.org/2000/svg" width="240" height="104" viewBox="0 0 240 104"><g transform="translate(-2 -1)"><g transform="translate(2 1)" fill="#d9d9d9" stroke="#bfbfbf" stroke-miterlimit="10" stroke-width="2"><rect width="240" height="104" stroke="none"/><rect x="1" y="1" width="238" height="102" fill="none"/></g><g transform="translate(-155 -6)"><rect width="40" height="20" transform="translate(182 18)" fill="#666"/></g><g transform="translate(-105 -9)"><rect width="40" height="20" transform="translate(182 21)" fill="#666"/></g><g transform="translate(-55 -9)"><rect width="40" height="20" transform="translate(182 21)" fill="#666"/></g><g transform="translate(-5 -8)"><rect width="40" height="20" transform="translate(182 20)" fill="#666"/></g><g transform="translate(-55 37)"><rect width="40" height="20" transform="translate(182 21)" fill="#666"/></g><g transform="translate(-105 37)"><rect width="40" height="20" transform="translate(182 21)" fill="#666"/></g><g transform="translate(-155 37)"><rect width="40" height="20" transform="translate(182 21)" fill="#666"/></g><rect width="40" height="4" transform="translate(27 36)" fill="#666"/><rect width="40" height="4" transform="translate(77 36)" fill="#666"/><rect width="40" height="4" transform="translate(127 36)" fill="#666"/><rect width="40" height="4" transform="translate(177 36)" fill="#666"/><rect width="40" height="4" transform="translate(127 82)" fill="#666"/><rect width="40" height="4" transform="translate(77 82)" fill="#666"/><rect width="40" height="4" transform="translate(27 82)" fill="#666"/><rect width="20" height="4" transform="translate(27 44)" fill="#666"/><rect width="20" height="4" transform="translate(77 44)" fill="#666"/><rect width="20" height="4" transform="translate(127 44)" fill="#666"/><rect width="20" height="4" transform="translate(177 44)" fill="#666"/><rect width="20" height="4" transform="translate(127 90)" fill="#666"/><rect width="20" height="4" transform="translate(77 90)" fill="#666"/><rect width="20" height="4" transform="translate(27 90)" fill="#666"/></g></svg>