<svg xmlns="http://www.w3.org/2000/svg" width="80" height="80" viewBox="0 0 80 80"><defs><style>.a{fill:#f0f0f0;}.b{fill:#4d4d4d;}</style></defs><g transform="translate(-1 -1)"><rect class="a" width="80" height="80" transform="translate(1 1)"/><rect class="b" width="56" height="38" transform="translate(13 22)"/><path class="b" d="M3.11,6.688.27,3.97a.656.656,0,0,1,0-1.063L3.11.192a.708.708,0,0,1,.969,0,.636.636,0,0,1,0,.928L2.341,2.784H7.514a.656.656,0,1,1,0,1.312H2.341L4.08,5.76a.636.636,0,0,1,0,.928.707.707,0,0,1-.969,0Z" transform="translate(79.584 44.88) rotate(-180)"/><path class="b" d="M3.11,6.688.27,3.97a.656.656,0,0,1,0-1.063L3.11.192a.708.708,0,0,1,.969,0,.636.636,0,0,1,0,.928L2.341,2.784H7.514a.656.656,0,1,1,0,1.312H2.341L4.08,5.76a.636.636,0,0,1,0,.928.707.707,0,0,1-.969,0Z" transform="translate(2.416 38)"/></g></svg>