<svg xmlns="http://www.w3.org/2000/svg" width="275" height="80" viewBox="0 0 275 80"><g fill="#d9d9d9" stroke="#bfbfbf" stroke-width="2"><rect width="275" height="80" stroke="none"/><rect x="1" y="1" width="273" height="78" fill="none"/></g><path d="M7.625-8.579H9.318c-.051-1.864-1.7-3.216-4.062-3.216-2.335,0-4.125,1.335-4.125,3.341,0,1.619,1.159,2.568,3.028,3.074l1.375.375c1.244.33,2.2.739,2.2,1.773,0,1.136-1.085,1.886-2.58,1.886-1.352,0-2.477-.6-2.58-1.869H.818C.932-1.108,2.562.193,5.17.193,7.9.193,9.477-1.244,9.477-3.216c0-2.1-1.869-2.909-3.347-3.273l-1.136-.3c-.909-.233-2.119-.659-2.114-1.773,0-.989.9-1.722,2.335-1.722C6.551-10.278,7.5-9.653,7.625-8.579Zm9.341,4.96a2.056,2.056,0,0,1-2.051,2.187,1.765,1.765,0,0,1-1.778-1.949V-8.727h-1.7v5.551c0,2.165,1.187,3.29,2.864,3.29a2.7,2.7,0,0,0,2.608-1.625H17V0h1.67V-8.727h-1.7ZM21.085,0h1.659V-1.358h.142A2.664,2.664,0,0,0,25.409.17c2.114,0,3.648-1.693,3.648-4.517S27.5-8.841,25.392-8.841a2.621,2.621,0,0,0-2.506,1.528h-.1v-4.324h-1.7ZM22.75-4.364c0-1.824.8-3.034,2.278-3.034,1.54,0,2.312,1.3,2.312,3.034,0,1.75-.8,3.085-2.312,3.085C23.568-1.278,22.75-2.528,22.75-4.364ZM35.034-8.727h-1.79v-2.091h-1.7v2.091H30.267v1.364h1.278V-2.21A2.279,2.279,0,0,0,34.091.114a3.253,3.253,0,0,0,1.1-.182l-.307-1.4a2.762,2.762,0,0,1-.6.074c-.551,0-1.045-.182-1.045-1.165v-4.8h1.79ZM36.909,0h1.7V-8.727h-1.7Zm.858-10.074a1.05,1.05,0,0,0,1.074-1.011A1.055,1.055,0,0,0,37.767-12.1a1.051,1.051,0,0,0-1.074,1.017A1.047,1.047,0,0,0,37.767-10.074Zm7.2,1.347h-1.79v-2.091h-1.7v2.091H40.2v1.364h1.278V-2.21A2.279,2.279,0,0,0,44.023.114a3.253,3.253,0,0,0,1.1-.182l-.307-1.4a2.762,2.762,0,0,1-.6.074c-.551,0-1.045-.182-1.045-1.165v-4.8h1.79Zm3.756-2.909h-1.7V0h1.7ZM54.767.176A3.464,3.464,0,0,0,58.4-2.182L56.8-2.472a1.974,1.974,0,0,1-2.011,1.244,2.4,2.4,0,0,1-2.477-2.625h6.2v-.6c0-3.153-1.886-4.386-3.864-4.386-2.432,0-4.034,1.852-4.034,4.534C50.614-1.6,52.193.176,54.767.176Zm-2.455-5.3a2.344,2.344,0,0,1,2.347-2.312,2.156,2.156,0,0,1,2.187,2.312ZM68.682.159a3.837,3.837,0,0,0,4.04-3.96,3.649,3.649,0,0,0-3.631-3.824A3.31,3.31,0,0,0,66.2-6.051h-.085c.006-2.642,1.006-4.21,2.71-4.21a2.025,2.025,0,0,1,2.062,1.648h1.733a3.656,3.656,0,0,0-3.8-3.182c-2.7,0-4.392,2.324-4.392,6.369C64.432-1.142,66.614.142,68.682.159Zm-.006-1.477a2.382,2.382,0,0,1-2.341-2.443A2.425,2.425,0,0,1,68.716-6.2a2.317,2.317,0,0,1,2.3,2.42A2.366,2.366,0,0,1,68.676-1.318Z" transform="translate(10 61)" fill="#666"/></svg>