<svg xmlns="http://www.w3.org/2000/svg" width="275" height="80" viewBox="0 0 275 80"><g fill="#d9d9d9" stroke="#bfbfbf" stroke-width="2"><rect width="275" height="80" stroke="none"/><rect x="1" y="1" width="273" height="78" fill="none"/></g><path d="M17.156-19.3h3.81c-.115-4.193-3.822-7.236-9.14-7.236-5.254,0-9.281,3-9.281,7.517,0,3.643,2.608,5.778,6.814,6.916l3.094.844c2.8.741,4.96,1.662,4.96,3.989,0,2.557-2.442,4.244-5.8,4.244-3.043,0-5.574-1.355-5.8-4.206H1.841C2.1-2.493,5.766.435,11.633.435c6.149,0,9.69-3.234,9.69-7.67,0-4.717-4.206-6.545-7.53-7.364l-2.557-.665c-2.045-.524-4.768-1.483-4.756-3.989,0-2.224,2.033-3.874,5.254-3.874C14.74-23.126,16.875-21.72,17.156-19.3ZM38.173-8.143a4.626,4.626,0,0,1-4.615,4.922c-2.365,0-4-1.713-4-4.385v-12.03H25.734v12.49c0,4.871,2.672,7.4,6.443,7.4A6.084,6.084,0,0,0,38.045-3.4h.2V0h3.758V-19.636H38.173ZM47.442,0h3.733V-3.055h.32A5.994,5.994,0,0,0,57.17.384c4.756,0,8.207-3.81,8.207-10.163s-3.5-10.112-8.246-10.112a5.9,5.9,0,0,0-5.638,3.439h-.23v-9.729H47.442Zm3.746-9.818c0-4.1,1.79-6.827,5.126-6.827,3.464,0,5.2,2.928,5.2,6.827,0,3.937-1.79,6.942-5.2,6.942C53.028-2.876,51.187-5.689,51.187-9.818Zm27.639-9.818H74.8v-4.7H70.977v4.7H68.1v3.068h2.876V-4.973C70.964-1.406,73.687.32,76.7.256a7.319,7.319,0,0,0,2.48-.409l-.69-3.158a6.215,6.215,0,0,1-1.342.166c-1.24,0-2.352-.409-2.352-2.621v-10.8h4.027ZM83.045,0h3.822V-19.636H83.045Zm1.93-22.666a2.363,2.363,0,0,0,2.416-2.276,2.373,2.373,0,0,0-2.416-2.288,2.365,2.365,0,0,0-2.416,2.288A2.355,2.355,0,0,0,84.976-22.666Zm16.2,3.03H97.146v-4.7H93.324v4.7H90.447v3.068h2.876V-4.973C93.311-1.406,96.034.32,99.051.256a7.319,7.319,0,0,0,2.48-.409l-.69-3.158a6.215,6.215,0,0,1-1.342.166c-1.24,0-2.352-.409-2.352-2.621v-10.8h4.027Zm8.45-6.545H105.8V0h3.822ZM123.226.4c4.283,0,7.312-2.109,8.182-5.305l-3.618-.652a4.442,4.442,0,0,1-4.525,2.8c-3.273,0-5.472-2.122-5.574-5.906h13.96v-1.355c0-7.1-4.244-9.869-8.693-9.869-5.472,0-9.077,4.168-9.077,10.2C113.881-3.592,117.435.4,123.226.4ZM117.7-11.531a5.274,5.274,0,0,1,5.28-5.2c2.966,0,4.909,2.2,4.922,5.2Zm37.623-14.65h-3.848l-6.533,4.27v3.784l6.264-4.091h.153V0h3.963Z" transform="translate(9 60)" fill="#666"/></svg>