<svg xmlns="http://www.w3.org/2000/svg" width="275" height="80" viewBox="0 0 275 80"><g fill="#d9d9d9" stroke="#bfbfbf" stroke-width="2"><rect width="275" height="80" stroke="none"/><rect x="1" y="1" width="273" height="78" fill="none"/></g><path d="M13.344-15.014h2.963c-.089-3.261-2.973-5.628-7.109-5.628-4.087,0-7.219,2.337-7.219,5.847,0,2.834,2.028,4.494,5.3,5.379l2.406.656c2.178.577,3.858,1.293,3.858,3.1,0,1.989-1.9,3.3-4.514,3.3-2.366,0-4.335-1.054-4.514-3.271H1.432C1.631-1.939,4.484.338,9.048.338c4.783,0,7.537-2.516,7.537-5.966,0-3.669-3.271-5.091-5.856-5.727L8.74-11.872c-1.591-.408-3.709-1.153-3.7-3.1,0-1.73,1.581-3.013,4.087-3.013C11.464-17.987,13.125-16.893,13.344-15.014ZM29.69-6.334A3.6,3.6,0,0,1,26.1-2.506a3.088,3.088,0,0,1-3.112-3.41v-9.356H20.016v9.714C20.016-1.77,22.094.2,25.027.2a4.732,4.732,0,0,0,4.564-2.844h.159V0h2.923V-15.272H29.69ZM36.9,0h2.9V-2.376h.249A4.662,4.662,0,0,0,44.466.3c3.7,0,6.383-2.963,6.383-7.9s-2.724-7.865-6.413-7.865A4.586,4.586,0,0,0,40.051-12.8h-.179v-7.567H36.9Zm2.913-7.636c0-3.192,1.392-5.31,3.987-5.31,2.695,0,4.047,2.277,4.047,5.31,0,3.062-1.392,5.4-4.047,5.4C41.244-2.237,39.812-4.425,39.812-7.636Zm21.5-7.636H58.177v-3.659H55.2v3.659H52.967v2.386H55.2v9.018C55.195-1.094,57.312.249,59.659.2a5.692,5.692,0,0,0,1.929-.318l-.537-2.456a4.834,4.834,0,0,1-1.044.129c-.964,0-1.83-.318-1.83-2.038v-8.4H61.31ZM64.591,0h2.973V-15.272H64.591Zm1.5-17.629a1.838,1.838,0,0,0,1.879-1.77,1.846,1.846,0,0,0-1.879-1.78,1.84,1.84,0,0,0-1.879,1.78A1.831,1.831,0,0,0,66.092-17.629Zm12.6,2.356H75.558v-3.659H72.585v3.659H70.348v2.386h2.237v9.018C72.575-1.094,74.693.249,77.04.2a5.692,5.692,0,0,0,1.929-.318l-.537-2.456a4.834,4.834,0,0,1-1.044.129c-.964,0-1.83-.318-1.83-2.038v-8.4H78.69Zm6.573-5.091H82.29V0h2.973ZM95.842.308c3.331,0,5.687-1.641,6.364-4.126l-2.814-.507a3.455,3.455,0,0,1-3.52,2.178c-2.545,0-4.256-1.651-4.335-4.594h10.858V-7.8c0-5.518-3.3-7.676-6.761-7.676-4.256,0-7.06,3.241-7.06,7.935C88.574-2.794,91.338.308,95.842.308Zm-4.3-9.277a4.1,4.1,0,0,1,4.106-4.047,3.772,3.772,0,0,1,3.828,4.047ZM120.173.278c4.156,0,7.209-2.486,7.2-5.866a4.648,4.648,0,0,0-4.256-4.842v-.159a4.452,4.452,0,0,0,3.5-4.5c.01-2.993-2.446-5.548-6.364-5.548-3.739,0-6.741,2.257-6.841,5.568h2.973c.07-1.869,1.83-3,3.828-3,2.078,0,3.44,1.263,3.43,3.142.01,1.969-1.571,3.261-3.828,3.261H118.1v2.506h1.72c2.824,0,4.454,1.432,4.454,3.48,0,1.979-1.72,3.321-4.116,3.321-2.207,0-3.927-1.134-4.047-2.943h-3.122C113.114-1.989,116.057.278,120.173.278Z" transform="translate(11 60)" fill="#666"/></svg>