<svg xmlns="http://www.w3.org/2000/svg" width="275" height="80" viewBox="0 0 275 80"><g fill="#d9d9d9" stroke="#bfbfbf" stroke-width="2"><rect width="275" height="80" stroke="none"/><rect x="1" y="1" width="273" height="78" fill="none"/></g><path d="M11.437-12.869h2.54c-.077-2.8-2.548-4.824-6.094-4.824-3.5,0-6.187,2-6.187,5.011,0,2.429,1.739,3.852,4.543,4.611L8.3-7.508c1.866.494,3.307,1.108,3.307,2.659,0,1.7-1.628,2.83-3.869,2.83-2.028,0-3.716-.9-3.869-2.8H1.227C1.4-1.662,3.844.29,7.756.29c4.1,0,6.46-2.156,6.46-5.114,0-3.145-2.8-4.364-5.02-4.909l-1.7-.443c-1.364-.349-3.179-.989-3.17-2.659,0-1.483,1.355-2.582,3.5-2.582C9.827-15.417,11.25-14.48,11.437-12.869Zm14.011,7.44a3.084,3.084,0,0,1-3.077,3.281A2.647,2.647,0,0,1,19.7-5.071v-8.02H17.156v8.327c0,3.247,1.781,4.935,4.3,4.935a4.056,4.056,0,0,0,3.912-2.437H25.5V0h2.506V-13.091H25.449ZM31.628,0h2.489V-2.037h.213A4,4,0,0,0,38.114.256c3.17,0,5.472-2.54,5.472-6.775s-2.335-6.741-5.5-6.741a3.931,3.931,0,0,0-3.758,2.293h-.153v-6.486H31.628Zm2.5-6.545c0-2.736,1.193-4.551,3.418-4.551,2.31,0,3.469,1.952,3.469,4.551,0,2.625-1.193,4.628-3.469,4.628C35.352-1.918,34.125-3.793,34.125-6.545Zm18.426-6.545H49.866v-3.136H47.318v3.136H45.4v2.045h1.918v7.73C47.31-.937,49.125.213,51.136.17A4.879,4.879,0,0,0,52.79-.1l-.46-2.105a4.144,4.144,0,0,1-.895.111c-.827,0-1.568-.273-1.568-1.747v-7.2h2.685ZM55.364,0h2.548V-13.091H55.364Zm1.287-15.111a1.575,1.575,0,0,0,1.611-1.517,1.582,1.582,0,0,0-1.611-1.526,1.577,1.577,0,0,0-1.611,1.526A1.57,1.57,0,0,0,56.651-15.111Zm10.8,2.02H64.764v-3.136H62.216v3.136H60.3v2.045h1.918v7.73C62.207-.937,64.023.213,66.034.17A4.879,4.879,0,0,0,67.687-.1l-.46-2.105a4.144,4.144,0,0,1-.895.111c-.827,0-1.568-.273-1.568-1.747v-7.2h2.685Zm5.634-4.364H70.534V0h2.548ZM82.15.264c2.855,0,4.875-1.406,5.454-3.537l-2.412-.435a2.961,2.961,0,0,1-3.017,1.866c-2.182,0-3.648-1.415-3.716-3.937h9.307v-.9c0-4.73-2.829-6.579-5.8-6.579-3.648,0-6.051,2.778-6.051,6.8C75.92-2.395,78.29.264,82.15.264ZM78.469-7.687a3.516,3.516,0,0,1,3.52-3.469A3.233,3.233,0,0,1,85.27-7.687ZM96.562-3.409h8.275V0h2.514V-3.409h2.31V-5.642h-2.31V-17.454H104.1L96.562-5.54Zm8.292-2.233H99.324v-.136l5.395-8.54h.136Z" transform="translate(10 60)" fill="#666"/></svg>