<svg xmlns="http://www.w3.org/2000/svg" width="275" height="80" viewBox="0 0 275 80"><g fill="#d9d9d9" stroke="#bfbfbf" stroke-width="2"><rect width="275" height="80" stroke="none"/><rect x="1" y="1" width="273" height="78" fill="none"/></g><path d="M9.531-10.724h2.116c-.064-2.33-2.124-4.02-5.078-4.02-2.919,0-5.156,1.669-5.156,4.176,0,2.024,1.449,3.21,3.785,3.842l1.719.469c1.555.412,2.756.923,2.756,2.216,0,1.42-1.357,2.358-3.224,2.358-1.69,0-3.1-.753-3.224-2.337h-2.2C1.165-1.385,3.2.241,6.463.241c3.416,0,5.383-1.8,5.383-4.261,0-2.621-2.337-3.636-4.183-4.091L6.243-8.48C5.106-8.771,3.594-9.3,3.6-10.7c0-1.236,1.129-2.152,2.919-2.152C8.189-12.848,9.375-12.067,9.531-10.724Zm11.676,6.2A2.57,2.57,0,0,1,18.643-1.79,2.206,2.206,0,0,1,16.42-4.226v-6.683H14.3V-3.97c0,2.706,1.484,4.112,3.579,4.112a3.38,3.38,0,0,0,3.26-2.031h.114V0h2.088V-10.909H21.207ZM26.357,0H28.43V-1.7h.178A3.33,3.33,0,0,0,31.761.213c2.642,0,4.56-2.116,4.56-5.646s-1.946-5.618-4.581-5.618a3.276,3.276,0,0,0-3.132,1.91H28.48v-5.4H26.357Zm2.081-5.454c0-2.28.994-3.793,2.848-3.793,1.925,0,2.891,1.626,2.891,3.793,0,2.187-.994,3.856-2.891,3.856C29.46-1.6,28.437-3.16,28.437-5.454Zm15.355-5.454H41.555v-2.614H39.432v2.614h-1.6v1.7h1.6v6.442a2.849,2.849,0,0,0,3.182,2.9,4.066,4.066,0,0,0,1.378-.227l-.384-1.754a3.453,3.453,0,0,1-.746.092c-.689,0-1.307-.227-1.307-1.456v-6h2.237ZM46.136,0H48.26V-10.909H46.136Zm1.072-12.592a1.313,1.313,0,0,0,1.342-1.264,1.319,1.319,0,0,0-1.342-1.271,1.314,1.314,0,0,0-1.342,1.271A1.308,1.308,0,0,0,47.209-12.592Zm9,1.683H53.97v-2.614H51.847v2.614h-1.6v1.7h1.6v6.442a2.849,2.849,0,0,0,3.182,2.9,4.066,4.066,0,0,0,1.378-.227l-.384-1.754a3.453,3.453,0,0,1-.746.092c-.689,0-1.307-.227-1.307-1.456v-6h2.237ZM60.9-14.545H58.778V0H60.9ZM68.459.22C70.838.22,72.521-.952,73-2.727l-2.01-.362A2.468,2.468,0,0,1,68.48-1.534c-1.818,0-3.04-1.179-3.1-3.281h7.756v-.753c0-3.942-2.358-5.483-4.829-5.483-3.04,0-5.043,2.315-5.043,5.668C63.267-2,65.241.22,68.459.22ZM65.391-6.406A2.93,2.93,0,0,1,68.324-9.3a2.7,2.7,0,0,1,2.734,2.891ZM85.575.2a4.777,4.777,0,0,0,5.007-4.9,4.587,4.587,0,0,0-4.6-4.858,3.919,3.919,0,0,0-2.649.966h-.085l.462-4.07h6.172v-1.882h-8l-.817,7.329,2.01.3a3.875,3.875,0,0,1,2.408-.824,2.944,2.944,0,0,1,2.976,3.082,2.852,2.852,0,0,1-2.883,3.011A2.486,2.486,0,0,1,82.94-3.793H80.81C80.895-1.477,82.9.2,85.575.2Z" transform="translate(10 60)" fill="#666"/></svg>