<svg xmlns="http://www.w3.org/2000/svg" width="275" height="80" viewBox="0 0 275 80"><g fill="#d9d9d9" stroke="#bfbfbf" stroke-width="2"><rect width="275" height="80" stroke="none"/><rect x="1" y="1" width="273" height="78" fill="none"/></g><path d="M15.25-17.159h3.386c-.1-3.727-3.4-6.432-8.125-6.432-4.67,0-8.25,2.67-8.25,6.682,0,3.239,2.318,5.136,6.057,6.148l2.75.75c2.489.659,4.409,1.477,4.409,3.545,0,2.273-2.17,3.773-5.159,3.773-2.7,0-4.954-1.2-5.159-3.739H1.636C1.864-2.216,5.125.386,10.341.386c5.466,0,8.614-2.875,8.614-6.818,0-4.193-3.739-5.818-6.693-6.545l-2.273-.591c-1.818-.466-4.239-1.318-4.227-3.545,0-1.977,1.807-3.443,4.67-3.443C13.1-20.557,15-19.307,15.25-17.159Zm18.682,9.92a4.112,4.112,0,0,1-4.1,4.375c-2.1,0-3.557-1.523-3.557-3.9V-17.454h-3.4v11.1C22.875-2.023,25.25.227,28.6.227a5.408,5.408,0,0,0,5.216-3.25H34V0h3.341V-17.454H33.932ZM42.17,0h3.318V-2.716h.284A5.328,5.328,0,0,0,50.818.341c4.227,0,7.3-3.386,7.3-9.034S55-17.682,50.784-17.682a5.241,5.241,0,0,0-5.011,3.057h-.2v-8.648h-3.4ZM45.5-8.727c0-3.648,1.591-6.068,4.557-6.068,3.079,0,4.625,2.6,4.625,6.068,0,3.5-1.591,6.17-4.625,6.17C47.136-2.557,45.5-5.057,45.5-8.727Zm24.568-8.727H66.489v-4.182h-3.4v4.182H60.534v2.727h2.557V-4.42C63.079-1.25,65.5.284,68.182.227a6.505,6.505,0,0,0,2.2-.364l-.614-2.807a5.525,5.525,0,0,1-1.193.148c-1.1,0-2.091-.364-2.091-2.33v-9.6h3.579ZM73.818,0h3.4V-17.454h-3.4Zm1.716-20.147a2.1,2.1,0,0,0,2.148-2.023A2.11,2.11,0,0,0,75.534-24.2a2.1,2.1,0,0,0-2.148,2.034A2.093,2.093,0,0,0,75.534-20.147Zm14.4,2.693H86.352v-4.182h-3.4v4.182H80.4v2.727h2.557V-4.42c-.011,3.17,2.409,4.7,5.091,4.648a6.505,6.505,0,0,0,2.2-.364l-.614-2.807a5.525,5.525,0,0,1-1.193.148c-1.1,0-2.091-.364-2.091-2.33v-9.6h3.579Zm7.511-5.818h-3.4V0h3.4ZM109.534.352c3.807,0,6.5-1.875,7.273-4.716l-3.216-.58a3.949,3.949,0,0,1-4.023,2.489c-2.909,0-4.864-1.886-4.954-5.25h12.409v-1.2c0-6.307-3.773-8.773-7.727-8.773-4.864,0-8.068,3.7-8.068,9.068C101.227-3.193,104.386.352,109.534.352Zm-4.909-10.6a4.688,4.688,0,0,1,4.693-4.625,4.311,4.311,0,0,1,4.375,4.625ZM129.239,0h15.318V-3.011H134.079v-.17L138.7-8.023c4.261-4.307,5.477-6.364,5.477-8.966,0-3.739-3.045-6.6-7.432-6.6-4.352,0-7.534,2.818-7.534,7.068h3.352a3.86,3.86,0,0,1,4.114-4.136c2.364,0,4.159,1.455,4.159,3.773,0,2.057-1.227,3.534-3.727,6.182l-7.875,8.159Z" transform="translate(10 60)" fill="#666"/></svg>