<svg xmlns="http://www.w3.org/2000/svg" width="80" height="80" viewBox="0 0 80 80"><g transform="translate(2 -1)"><rect width="80" height="80" transform="translate(-2 1)" fill="#f0f0f0"/><rect width="40" height="40" transform="translate(18 21)" fill="#4d4d4d"/><path d="M-6.415-7.336q-.562,1.014-1.008,1.9t-.785,1.752a16.522,16.522,0,0,0-.58,1.758A16.978,16.978,0,0,0-9.181,0h-1.934a15.821,15.821,0,0,1,.434-1.887,17.694,17.694,0,0,1,.624-1.761q.354-.853.785-1.661t.911-1.582h-3.9V-8.4h5.848ZM-4.371-.217V-1.8a3.454,3.454,0,0,0,1.834.527A1.723,1.723,0,0,0-1.392-1.62a1.174,1.174,0,0,0,.413-.946q0-1.248-1.764-1.248a13.06,13.06,0,0,0-1.5.1L-3.926-8.4H.521v1.512H-2.514l-.117,1.682q.451-.035.779-.035a2.866,2.866,0,0,1,2.027.68A2.373,2.373,0,0,1,.908-2.736,2.7,2.7,0,0,1,.035-.659,3.354,3.354,0,0,1-2.332.146,5.065,5.065,0,0,1-4.371-.217Zm9.31-3.926a1.914,1.914,0,0,1-1.444-.568A2.111,2.111,0,0,1,2.947-6.24,2.32,2.32,0,0,1,3.53-7.9,2.042,2.042,0,0,1,5.085-8.52a1.9,1.9,0,0,1,1.456.557A2.193,2.193,0,0,1,7.066-6.4a2.289,2.289,0,0,1-.58,1.646A2.036,2.036,0,0,1,4.939-4.143ZM5.05-7.488q-.855,0-.855,1.189,0,1.125.814,1.125.832,0,.832-1.172Q5.841-7.488,5.05-7.488ZM11.074-8.4,5.6,0H4.171L9.632-8.4Zm-.9,8.52A1.914,1.914,0,0,1,8.727-.451,2.111,2.111,0,0,1,8.179-1.98a2.32,2.32,0,0,1,.583-1.664,2.042,2.042,0,0,1,1.556-.615,1.913,1.913,0,0,1,1.459.551A2.179,2.179,0,0,1,12.3-2.15,2.31,2.31,0,0,1,11.718-.5,2.026,2.026,0,0,1,10.171.117Zm.094-3.346q-.85,0-.85,1.189,0,1.125.826,1.125t.832-1.172a1.39,1.39,0,0,0-.223-.844A.7.7,0,0,0,10.265-3.229Z" transform="translate(38 76)" fill="#4d4d4d"/><g transform="translate(26 29)" opacity="0.25"><path d="M4,7V4H20V7" fill="none" stroke="#fff" stroke-linecap="round" stroke-linejoin="round" stroke-width="2"/><line x2="6" transform="translate(9 20)" fill="none" stroke="#fff" stroke-linecap="round" stroke-linejoin="round" stroke-width="2"/><line y2="16" transform="translate(12 4)" fill="none" stroke="#fff" stroke-linecap="round" stroke-linejoin="round" stroke-width="2"/></g></g></svg>