<svg xmlns="http://www.w3.org/2000/svg" width="80" height="80" viewBox="0 0 80 80"><g transform="translate(2 -1)"><rect width="80" height="80" transform="translate(-2 1)" fill="#f0f0f0"/><rect width="40" height="40" transform="translate(18 21)" fill="#4d4d4d"/><path d="M-11.762-8.59V0h-1.846V-6.5a2.21,2.21,0,0,1-.36.255,3.72,3.72,0,0,1-.442.217,3.95,3.95,0,0,1-.486.164,3.552,3.552,0,0,1-.5.1V-7.33a7.7,7.7,0,0,0,1.359-.539,7.736,7.736,0,0,0,1.154-.721ZM-5.61.146q-3,0-3-4.213A5.733,5.733,0,0,1-7.8-7.4,2.7,2.7,0,0,1-5.446-8.543q2.93,0,2.93,4.283a5.644,5.644,0,0,1-.8,3.27A2.635,2.635,0,0,1-5.61.146Zm.082-7.277q-1.2,0-1.2,3.018,0,2.842,1.178,2.842Q-4.4-1.271-4.4-4.2T-5.528-7.131ZM2.012.146q-3,0-3-4.213A5.733,5.733,0,0,1-.176-7.4,2.7,2.7,0,0,1,2.176-8.543q2.93,0,2.93,4.283a5.644,5.644,0,0,1-.8,3.27A2.635,2.635,0,0,1,2.012.146Zm.082-7.277q-1.2,0-1.2,3.018,0,2.842,1.178,2.842,1.148,0,1.148-2.93T2.094-7.131ZM8.75-4.143a1.914,1.914,0,0,1-1.444-.568A2.111,2.111,0,0,1,6.758-6.24,2.32,2.32,0,0,1,7.341-7.9,2.042,2.042,0,0,1,8.9-8.52a1.9,1.9,0,0,1,1.456.557A2.193,2.193,0,0,1,10.877-6.4a2.289,2.289,0,0,1-.58,1.646A2.036,2.036,0,0,1,8.75-4.143Zm.111-3.346q-.855,0-.855,1.189,0,1.125.814,1.125.832,0,.832-1.172Q9.652-7.488,8.861-7.488ZM14.885-8.4,9.412,0H7.982l5.461-8.4Zm-.9,8.52a1.914,1.914,0,0,1-1.444-.568A2.111,2.111,0,0,1,11.99-1.98a2.32,2.32,0,0,1,.583-1.664,2.042,2.042,0,0,1,1.556-.615,1.913,1.913,0,0,1,1.459.551,2.179,2.179,0,0,1,.521,1.559A2.31,2.31,0,0,1,15.529-.5,2.026,2.026,0,0,1,13.982.117Zm.094-3.346q-.85,0-.85,1.189,0,1.125.826,1.125t.832-1.172a1.39,1.39,0,0,0-.223-.844A.7.7,0,0,0,14.076-3.229Z" transform="translate(38 76)" fill="#4d4d4d"/><g transform="translate(26 29)"><path d="M4,7V4H20V7" fill="none" stroke="#fff" stroke-linecap="round" stroke-linejoin="round" stroke-width="2"/><line x2="6" transform="translate(9 20)" fill="none" stroke="#fff" stroke-linecap="round" stroke-linejoin="round" stroke-width="2"/><line y2="16" transform="translate(12 4)" fill="none" stroke="#fff" stroke-linecap="round" stroke-linejoin="round" stroke-width="2"/></g></g></svg>