<svg xmlns="http://www.w3.org/2000/svg" width="80" height="80" viewBox="0 0 80 80"><g transform="translate(-1 -1)"><g transform="translate(1 1)" fill="#d9d9d9" stroke="#bfbfbf" stroke-miterlimit="10" stroke-width="2"><rect width="80" height="80" stroke="none"/><rect x="1" y="1" width="78" height="78" fill="none"/></g><path d="M31.968,8.021q-.21,4.676-6.525,12.812-6.536,8.494-11.053,8.493c-1.879,0-3.437-1.725-4.737-5.175L7.1,14.666Q5.658,9.5,4.013,9.5A9.884,9.884,0,0,0,1.505,11L0,9.062q2.35-2.068,4.668-4.171Q7.826,2.156,9.406,2.013,13.14,1.653,14,7.13q.93,5.906,1.295,7.342,1.078,4.9,2.368,4.9,1,0,3.02-3.18a12.5,12.5,0,0,0,2.149-4.837c.192-1.828-.527-2.748-2.152-2.748a5.8,5.8,0,0,0-2.369.521c1.581-5.157,4.579-7.676,9.016-7.516,3.3.08,4.837,2.219,4.657,6.4Z" transform="translate(25 25.535)" fill="#666"/></g></svg>