<svg xmlns="http://www.w3.org/2000/svg" width="80" height="48" viewBox="0 0 80 48"><g transform="translate(-1 -1)"><g transform="translate(1 1)" fill="#d9d9d9" stroke="#bfbfbf" stroke-miterlimit="10" stroke-width="2"><rect width="80" height="48" stroke="none"/><rect x="1" y="1" width="78" height="46" fill="none"/></g><path d="M-19.568,0h-1.67l6.349-17.455h1.7L-6.835,0h-1.67l-1.866-5.259H-17.7Zm2.378-6.69h6.307l-3.094-8.693H-14.1ZM-3.844,0V-17.455h1.526v6.861h.136A6.048,6.048,0,0,1-1.44-11.8,3.917,3.917,0,0,1-.17-12.844a4.16,4.16,0,0,1,1.986-.426,4.825,4.825,0,0,1,2.834.848,5.6,5.6,0,0,1,1.9,2.369,8.588,8.588,0,0,1,.682,3.541A8.718,8.718,0,0,1,6.55-2.953,5.579,5.579,0,0,1,4.662-.575,4.792,4.792,0,0,1,1.841.273,4.186,4.186,0,0,1-.149-.153,3.948,3.948,0,0,1-1.432-1.206a5.946,5.946,0,0,1-.75-1.223h-.187V0Zm1.5-6.537a7.82,7.82,0,0,0,.469,2.8A4.309,4.309,0,0,0-.511-1.811a3.424,3.424,0,0,0,2.165.695,3.43,3.43,0,0,0,2.207-.72A4.459,4.459,0,0,0,5.233-3.784,7.665,7.665,0,0,0,5.7-6.537a7.538,7.538,0,0,0-.464-2.719,4.379,4.379,0,0,0-1.368-1.922,3.47,3.47,0,0,0-2.216-.712A3.466,3.466,0,0,0-.52-11.2,4.233,4.233,0,0,0-1.879-9.311,7.684,7.684,0,0,0-2.344-6.537ZM15.673.273a5.348,5.348,0,0,1-3.06-.878,5.761,5.761,0,0,1-2.016-2.4,8.134,8.134,0,0,1-.712-3.477,8.07,8.07,0,0,1,.729-3.5A5.865,5.865,0,0,1,12.639-12.4a5.253,5.253,0,0,1,3.009-.874,5.452,5.452,0,0,1,2.382.511,4.726,4.726,0,0,1,1.76,1.423A4.564,4.564,0,0,1,20.659-9.2H19.125a3.4,3.4,0,0,0-1.146-1.9,3.4,3.4,0,0,0-2.305-.784,3.755,3.755,0,0,0-2.216.678,4.484,4.484,0,0,0-1.5,1.884,6.758,6.758,0,0,0-.541,2.791,7,7,0,0,0,.533,2.817,4.513,4.513,0,0,0,1.491,1.913,3.728,3.728,0,0,0,2.237.69,3.593,3.593,0,0,0,2.25-.724,3.24,3.24,0,0,0,1.21-1.977h1.534a4.676,4.676,0,0,1-.839,2.109A4.663,4.663,0,0,1,18.1-.256,5.368,5.368,0,0,1,15.673.273Z" transform="translate(41 34)" fill="#666"/></g></svg>