<svg xmlns="http://www.w3.org/2000/svg" width="80" height="80" viewBox="0 0 80 80"><g transform="translate(-1 -1)"><g transform="translate(1 1)" fill="#d9d9d9" stroke="#bfbfbf" stroke-miterlimit="10" stroke-width="2"><rect width="80" height="80" stroke="none"/><rect x="1" y="1" width="78" height="78" fill="none"/></g><path d="M31.331,7.066A4.021,4.021,0,0,0,28.5,4.218C26.007,3.545,16,3.545,16,3.545s-10.007,0-12.5.673A4.023,4.023,0,0,0,.669,7.066,42.139,42.139,0,0,0,0,14.818,42.139,42.139,0,0,0,.669,22.57,4.021,4.021,0,0,0,3.5,25.418c2.495.673,12.5.673,12.5.673s10.007,0,12.5-.673a4.02,4.02,0,0,0,2.829-2.848A42.221,42.221,0,0,0,32,14.818,42.139,42.139,0,0,0,31.331,7.066Zm-18.6,12.509V10.061l8.364,4.757Z" transform="translate(25 26.182)" fill="#666"/></g></svg>