<svg width="85" height="112" viewBox="0 0 85 112" fill="none" xmlns="http://www.w3.org/2000/svg">
<g clip-path="url(#clip0_27_678)">
<path d="M0.339986 14.1301C0.339986 13.4801 0.559987 13.2401 1.14999 13.0501C14.61 8.74006 28.05 4.41006 41.51 0.110059C41.97 -0.0399414 42.55 -0.0399414 43.01 0.110059C56.44 4.40006 69.85 8.73006 83.28 13.0301C83.86 13.2201 84.18 13.4201 84.18 14.1401C84.26 28.2101 84.47 42.2801 84.44 56.3601C84.41 72.2501 78.36 85.6101 66.92 96.5801C61.37 101.91 54.96 105.96 47.99 109.16C46.24 109.96 44.55 110.88 42.81 111.71C42.54 111.84 42.11 111.91 41.86 111.78C37.54 109.6 33.11 107.61 28.95 105.15C19.82 99.7601 12.4 92.5501 7.10999 83.2901C2.94999 76.0001 0.499985 68.1501 0.229985 59.7601C0.00998518 52.6201 0.369986 21.9001 0.339986 14.1301ZM5.84998 56.7201C5.87998 61.5901 6.57999 66.3701 8.03999 71.0201C11.35 81.5901 17.79 89.8801 26.49 96.5701C30.92 99.9801 35.93 102.34 40.87 104.86C41.89 105.38 42.64 105.36 43.66 104.85C48.38 102.43 53.2 100.2 57.47 96.9801C71.47 86.4101 78.86 72.5701 78.67 54.8601C78.54 42.7101 78.47 30.5701 78.4 18.4201C78.4 17.8101 78.24 17.5101 77.62 17.3101C66.11 13.6301 54.6 9.91006 43.09 6.23006C42.6 6.07006 41.98 6.06006 41.5 6.22006C29.96 9.90006 18.42 13.6301 6.87998 17.3201C6.29998 17.5101 6.11999 17.7601 6.11999 18.3601C6.13999 25.3701 5.81999 50.9501 5.85999 56.7301" fill="#58595B"/>
<path d="M10.59 22.15C10.59 21.44 10.82 21.14 11.48 20.93C21.53 17.72 31.56 14.49 41.61 11.29C41.99 11.17 42.48 11.16 42.86 11.29C52.93 14.5 63 17.75 73.07 20.97C73.65 21.16 73.89 21.39 73.89 22.06C73.95 33.48 74.08 44.89 74.11 56.31C74.15 69.9 68.93 81.18 58.92 90.31C54.39 94.4399 49.2 97.53 43.69 100.15C42.59 100.67 41.8 100.62 40.74 100.12C34.92 97.38 29.51 94.05 24.81 89.61C17.95 83.12 13.31 75.36 11.33 66.07C10.33 61.38 10.61 28.57 10.58 22.17" fill="#D5352D"/>
<path d="M44.62 46.47C44.62 48.08 45.92 49.38 47.53 49.38C49.14 49.38 50.44 48.08 50.44 46.47C50.44 44.86 49.14 43.56 47.53 43.56C45.92 43.56 44.62 44.86 44.62 46.47ZM69.41 43.32C63.17 49.56 57.05 55.68 50.93 61.8C51.04 61.8 51.23 61.83 51.42 61.83C57.09 61.83 62.77 61.83 68.44 61.85C68.53 61.85 68.59 61.84 68.66 61.82C69.93 58.63 70.63 55.16 70.63 51.52C70.63 48.67 70.2 45.91 69.4 43.32H69.41ZM44.08 38.34C39.96 34.22 35.84 30.1 31.73 25.97C31.69 25.93 31.65 25.91 31.62 25.89C25.71 28.45 20.87 32.99 17.92 38.67H44.33C44.2 38.5 44.15 38.41 44.08 38.34ZM55.66 26.78V53.02C59.88 48.8 64.08 44.6 68.31 40.37C65.76 34.53 61.27 29.73 55.66 26.79V26.78ZM53.02 43.14C53.02 37.34 53.02 31.54 53.02 25.74C53.02 25.67 53.01 25.62 53 25.57C49.81 24.3 46.34 23.6 42.71 23.6C39.85 23.6 37.1 24.03 34.51 24.83C40.7 31.02 46.86 37.19 53 43.33C53 43.34 53.02 43.25 53.02 43.15V43.14ZM33.84 41.27C28.29 41.27 22.74 41.29 17.19 41.25C16.99 41.25 16.84 41.28 16.71 41.32C15.47 44.48 14.78 47.91 14.78 51.51C14.78 54.36 15.21 57.1 16 59.69C22.21 53.48 28.34 47.34 34.42 41.26C34.33 41.26 34.08 41.26 33.83 41.26L33.84 41.27ZM53.99 77.06C59.78 74.5 64.54 70.03 67.46 64.44H41.33C45.52 68.62 49.73 72.82 53.98 77.06H53.99ZM32.46 60.62C32.46 66.24 32.47 71.86 32.44 77.48C35.62 78.74 39.08 79.44 42.71 79.44C45.58 79.44 48.35 79.01 50.95 78.2C44.74 71.98 38.61 65.86 32.46 59.7V60.62ZM29.83 76.29V50.07C25.59 54.31 21.38 58.53 17.15 62.76C19.72 68.59 24.21 73.37 29.83 76.29Z" fill="white"/>
</g>
<defs>
<clipPath id="clip0_27_678">
<rect width="85" height="112" fill="white"/>
</clipPath>
</defs>
</svg>
