<svg xmlns="http://www.w3.org/2000/svg" width="408" height="299" viewBox="0 0 408 299"><g transform="translate(-51 403)"><rect width="404" height="299" transform="translate(55 -403)" fill="#f2f2f2"/><rect width="266" height="299" transform="translate(51 -403)" fill="#fff"/><g transform="translate(71.693 -456)"><g transform="translate(36 266.37)"><rect width="195.47" height="58.87" fill="none"/><g transform="translate(145.101 50.87) rotate(-90)"><ellipse cx="21.435" cy="21.27" rx="21.435" ry="21.27" transform="translate(0 0)" fill="#d8d8d8"/><path d="M9.948,11.3a.668.668,0,0,1-1.025,0L.211,1.4A.909.909,0,0,1,.211.24a.668.668,0,0,1,1.025,0l8.2,9.313L17.634.24a.668.668,0,0,1,1.025,0,.909.909,0,0,1,0,1.165Z" transform="translate(12 16)" fill="#4d4d4d"/></g><rect width="99.054" height="16" transform="translate(27 21.37)" fill="#888"/></g><g transform="translate(36 203.5)"><rect width="195.47" height="58.87" fill="none"/><g transform="translate(145.101 50.87) rotate(-90)"><ellipse cx="21.435" cy="21.27" rx="21.435" ry="21.27" transform="translate(0 0)" fill="#d8d8d8"/><path d="M9.948,11.3a.668.668,0,0,1-1.025,0L.211,1.4A.909.909,0,0,1,.211.24a.668.668,0,0,1,1.025,0l8.2,9.313L17.634.24a.668.668,0,0,1,1.025,0,.909.909,0,0,1,0,1.165Z" transform="translate(12 16)" fill="#4d4d4d"/></g><rect width="83" height="16" transform="translate(27 21.37)" fill="#888"/></g><g transform="translate(36.054 140.63)"><rect width="196.334" height="58.87" transform="translate(-0.746)" fill="none"/><g transform="translate(145.048 50.87) rotate(-90)"><ellipse cx="21.435" cy="21.27" rx="21.435" ry="21.27" transform="translate(0 0)" fill="#d8d8d8"/><path d="M9.948,11.3a.668.668,0,0,1-1.025,0L.211,1.4A.909.909,0,0,1,.211.24a.668.668,0,0,1,1.025,0l8.2,9.313L17.634.24a.668.668,0,0,1,1.025,0,.909.909,0,0,1,0,1.165Z" transform="translate(12 16)" fill="#4d4d4d"/></g><rect width="99" height="16" transform="translate(26.254 21.37)" fill="#888"/></g></g><path d="M54.106,119.8a1.2,1.2,0,1,0,1.69-1.69L45.887,108.2,55.8,98.288a1.2,1.2,0,1,0-1.69-1.69L44.2,106.507,34.288,96.6a1.2,1.2,0,0,0-1.69,1.69l9.909,9.909L32.6,118.106a1.2,1.2,0,0,0,1.69,1.69l9.909-9.909Z" transform="translate(42.053 -463.447)" stroke="#707070" stroke-width="1"/><rect width="46" height="46" transform="translate(74 -309)" fill="#bfbfbf"/><rect width="46" height="46" transform="translate(75 -246)" fill="#bfbfbf"/><rect width="46" height="46" transform="translate(75 -183)" fill="#bfbfbf"/></g></svg>