<svg xmlns="http://www.w3.org/2000/svg" width="500" height="493.827" viewBox="0 0 500 493.827"><g transform="translate(-86 -6.173)"><rect width="500" height="493.827" transform="translate(86 6.173)" fill="none"/><path d="M-16.082,0h-21.2L-93.14-85.946a38.11,38.11,0,0,1-3.506-6.768h-.489q.652,3.751.652,16.064V0h-18.755V-116.933h22.587l53.981,83.908q3.425,5.219,4.4,7.176h.326a103.9,103.9,0,0,1-.815-15.738v-75.346h18.673Zm82.15,1.957q-25.278,0-40.486-16.39T10.374-57.08q0-28.214,15.493-45.012t42.076-16.8q24.626,0,39.671,16.309t15.045,42.647q0,28.622-15.412,45.256T66.068,1.957Zm.9-103.8q-16.064,0-26.135,11.987T30.76-58.3q0,19.489,9.785,31.394T66.149-15q16.8,0,26.5-11.334t9.7-31.72q0-20.957-9.418-32.373T66.965-101.847ZM-175.493,222h-19.978V105.067h19.978Zm115.338-4.893q-13.21,6.85-32.862,6.85-25.441,0-40.771-16.064t-15.33-42.158q0-28.051,17.246-45.338t43.585-17.287q16.961,0,28.132,4.811v19.244a50.2,50.2,0,0,0-26.094-7.013q-19,0-30.782,12.15t-11.783,32.454q0,19.326,11.008,30.782T-88.859,207q16.553,0,28.7-7.828Zm73.261,6.85q-25.278,0-40.486-16.39T-42.588,164.92q0-28.214,15.493-45.012t42.076-16.8q24.626,0,39.671,16.309T69.7,162.066q0,28.622-15.412,45.256T13.106,223.957Zm.9-103.8q-16.064,0-26.135,11.987T-22.2,163.7q0,19.489,9.785,31.394T13.187,207q16.8,0,26.5-11.334t9.7-31.72q0-20.957-9.418-32.373T14,120.153ZM195.308,222h-21.2L118.25,136.054a38.11,38.11,0,0,1-3.506-6.768h-.489q.652,3.751.652,16.064V222H96.152V105.067H118.74l53.981,83.908q3.425,5.219,4.4,7.176h.326a103.9,103.9,0,0,1-.815-15.738V105.067h18.673Z" transform="translate(336 213.086)"/></g></svg>