<svg width="18" height="21" viewBox="0 0 18 21" fill="none" xmlns="http://www.w3.org/2000/svg">
<path d="M3.5 7.33332V6.41666C3.5 3.37909 5.96243 0.916656 9 0.916656C12.0376 0.916656 14.5 3.37909 14.5 6.41666V7.33332H16.3333C16.8396 7.33332 17.25 7.74373 17.25 8.24999V19.25C17.25 19.7563 16.8396 20.1667 16.3333 20.1667H1.66667C1.16041 20.1667 0.75 19.7563 0.75 19.25V8.24999C0.75 7.74373 1.16041 7.33332 1.66667 7.33332H3.5ZM15.4167 9.16666H2.58333V18.3333H15.4167V9.16666ZM8.08333 14.4214C7.53535 14.1044 7.16667 13.5119 7.16667 12.8333C7.16667 11.8208 7.98745 11 9 11C10.0126 11 10.8333 11.8208 10.8333 12.8333C10.8333 13.5119 10.4647 14.1044 9.91667 14.4214V16.5H8.08333V14.4214ZM5.33333 7.33332H12.6667V6.41666C12.6667 4.39161 11.025 2.74999 9 2.74999C6.97496 2.74999 5.33333 4.39161 5.33333 6.41666V7.33332Z" fill="#A57C2B"/>
</svg>
