<svg fill="none" height="32" stroke="#50f" stroke-linecap="round" stroke-linejoin="round" stroke-width="1.5" viewBox="0 0 24 24" width="32" xmlns="http://www.w3.org/2000/svg"><path d="m14.5 10c-.83 0-1.5-.67-1.5-1.5v-5c0-.83.67-1.5 1.5-1.5s1.5.67 1.5 1.5v5c0 .83-.67 1.5-1.5 1.5z"/><path d="m20.5 10h-1.5v-1.5c0-.83.67-1.5 1.5-1.5s1.5.67 1.5 1.5-.67 1.5-1.5 1.5z"/><path d="m9.5 14c.83 0 1.5.67 1.5 1.5v5c0 .83-.67 1.5-1.5 1.5s-1.5-.67-1.5-1.5v-5c0-.83.67-1.5 1.5-1.5z"/><path d="m3.5 14h1.5v1.5c0 .83-.67 1.5-1.5 1.5s-1.5-.67-1.5-1.5.67-1.5 1.5-1.5z"/><path d="m14 14.5c0-.83.67-1.5 1.5-1.5h5c.83 0 1.5.67 1.5 1.5s-.67 1.5-1.5 1.5h-5c-.83 0-1.5-.67-1.5-1.5z"/><path d="m15.5 19h-1.5v1.5c0 .83.67 1.5 1.5 1.5s1.5-.67 1.5-1.5-.67-1.5-1.5-1.5z"/><path d="m10 9.5c0-.83-.67-1.5-1.5-1.5h-5c-.83 0-1.5.67-1.5 1.5s.67 1.5 1.5 1.5h5c.83 0 1.5-.67 1.5-1.5z"/><path d="m8.5 5h1.5v-1.5c0-.83-.67-1.5-1.5-1.5s-1.5.67-1.5 1.5.67 1.5 1.5 1.5z"/></svg>