<svg width="22" height="16" viewBox="0 0 22 16" fill="none" xmlns="http://www.w3.org/2000/svg">
<path d="M8.21735 12.5C7.99495 14.0548 6.65781 15.25 5.0415 15.25C3.4252 15.25 2.08806 14.0548 1.86566 12.5H0.916504V1.50001C0.916504 0.993753 1.32691 0.583344 1.83317 0.583344H14.6665C15.1728 0.583344 15.5832 0.993753 15.5832 1.50001V3.33334H18.3332L21.0832 7.05107V12.5H19.2174C18.9949 14.0548 17.6578 15.25 16.0415 15.25C14.4252 15.25 13.0881 14.0548 12.8656 12.5H8.21735ZM13.7498 2.41668H2.74984V9.7963C3.33216 9.20203 4.14378 8.83334 5.0415 8.83334C6.32135 8.83334 7.42617 9.58272 7.94109 10.6667H13.1419C13.2956 10.3431 13.502 10.0492 13.7498 9.7963V2.41668ZM15.5832 7.91668H19.2498V7.65543L17.4089 5.16668H15.5832V7.91668ZM16.0415 13.4167C16.6402 13.4167 17.1495 13.0341 17.3382 12.5C17.3889 12.3566 17.4165 12.2024 17.4165 12.0417C17.4165 11.2823 16.8009 10.6667 16.0415 10.6667C15.2821 10.6667 14.6665 11.2823 14.6665 12.0417C14.6665 12.2024 14.6941 12.3566 14.7448 12.5C14.9335 13.0341 15.4428 13.4167 16.0415 13.4167ZM6.4165 12.0417C6.4165 11.2823 5.8009 10.6667 5.0415 10.6667C4.28211 10.6667 3.6665 11.2823 3.6665 12.0417C3.6665 12.2024 3.69408 12.3566 3.74474 12.5C3.9335 13.0341 4.44282 13.4167 5.0415 13.4167C5.64019 13.4167 6.14951 13.0341 6.33827 12.5C6.38893 12.3566 6.4165 12.2024 6.4165 12.0417Z" fill="#A57C2B"/>
</svg>
