<svg fill="none" height="32" stroke="#50f" stroke-linecap="round" stroke-linejoin="round" stroke-width="1.5" viewBox="0 0 24 24" width="32" xmlns="http://www.w3.org/2000/svg"><path d="m22.54 6.42a2.78 2.78 0 0 0 -1.94-2c-1.72-.42-8.6-.42-8.6-.42s-6.88 0-8.6.46a2.78 2.78 0 0 0 -1.94 2 29 29 0 0 0 -.46 5.29 29 29 0 0 0 .46 5.33 2.78 2.78 0 0 0 1.94 1.92c1.72.46 8.6.46 8.6.46s6.88 0 8.6-.46a2.78 2.78 0 0 0 1.94-2 29 29 0 0 0 .46-5.25 29 29 0 0 0 -.46-5.33z"/><path d="m9.75 15.02 5.75-3.27-5.75-3.27z"/></svg>