<svg xmlns="http://www.w3.org/2000/svg" xmlns:xlink="http://www.w3.org/1999/xlink" width="223" height="259" viewBox="0 0 223 259">
  <defs>
    <style>
      .cls-1 {
        clip-path: url(#clip-PDF);
      }

      .cls-2 {
        fill: #e2e5e7;
      }

      .cls-3 {
        fill: #cad1d8;
      }

      .cls-4 {
        fill: #b0b7bd;
      }

      .cls-5 {
        fill: #d60d01;
      }

      .cls-6 {
        fill: #fff;
      }
    </style>
    <clipPath id="clip-PDF">
      <rect width="223" height="259"/>
    </clipPath>
  </defs>
  <g id="PDF" class="cls-1">
    <g id="Group_10" data-name="Group 10">
      <path id="Path_10" data-name="Path 10" class="cls-2" d="M15,0,127.184.359c1.542,0,2.124,8.3,3.313,9.223,8.86,6.793-4.489,35.668,5.674,44.914,10.3,9.372,26.615,1.812,36.9,9.064,1.652,1.158,19.03.477,19.03,3.349L192,242a15,15,0,0,1-15,15H15A15,15,0,0,1,0,242V15A15,15,0,0,1,15,0Z" transform="translate(29 1)"/>
      <path id="Path_12" data-name="Path 12" class="cls-3" d="M0-4.362H0L59.907,51,0,49.871Z" transform="translate(221.098 117.224) rotate(180)"/>
      <path id="Path_14" data-name="Path 14" class="cls-4" d="M0-4.362H0l66.189,65.44H0Z" transform="matrix(1, 0.017, -0.017, 1, 155.999, 5.362)"/>
      <path id="Path_15" data-name="Path 15" class="cls-4" d="M0-4.362H0l66.189,65.44H0Z" transform="matrix(1, 0.017, -0.017, 1, 155.999, 5.362)"/>
      <path id="Path_11" data-name="Path 11" class="cls-2" d="M15,0,127.184.359c1.542,0,2.124,8.3,3.313,9.223,8.86,6.793-4.489,35.668,5.674,44.914,10.3,9.372,26.615,1.812,36.9,9.064,1.652,1.158,19.03.477,19.03,3.349L192,242a15,15,0,0,1-15,15H15A15,15,0,0,1,0,242V15A15,15,0,0,1,15,0Z" transform="translate(29 1)"/>
      <path id="Path_13" data-name="Path 13" class="cls-3" d="M0-4.362H0L59.907,51,0,49.871Z" transform="translate(221.098 117.224) rotate(180)"/>
      <path id="Path_16" data-name="Path 16" class="cls-4" d="M0-4.362H0l66.189,65.44H0Z" transform="matrix(1, 0.017, -0.017, 1, 155.999, 5.362)"/>
      <path id="Path_17" data-name="Path 17" class="cls-4" d="M0-4.362H0l66.189,65.44L7.783,54.417Z" transform="matrix(1, 0.017, -0.017, 1, 155.999, 5.362)"/>
      <path id="Rectangle_4" data-name="Rectangle 4" class="cls-3" d="M0,0H172a0,0,0,0,1,0,0V8a3,3,0,0,1-3,3H0a0,0,0,0,1,0,0V0A0,0,0,0,1,0,0Z" transform="translate(29 214)"/>
      <rect id="Rectangle_5" data-name="Rectangle 5" class="cls-5" width="200" height="100" rx="5" transform="translate(1 119)"/>
      <path id="Path_87" data-name="Path 87" class="cls-6" d="M61.82,45.88c8.76,0,14.52-5.94,14.52-14.4,0-8.58-5.7-14.34-14.52-14.34H44.48V61h7.68V45.88Zm-1.5-21.9c5.1,0,7.98,2.64,7.98,7.44s-2.82,7.62-8.1,7.62H52.16V23.98ZM98.6,61c12.72,0,21.48-8.94,21.48-21.84,0-13.08-8.94-22.02-21.9-22.02H82.82V61ZM97.46,24.22c9.06,0,14.52,5.64,14.52,14.94,0,9.12-5.34,14.76-14.1,14.76H90.5V24.22Zm53.76,18.84v-6.9H134.9V24.22h19.44V17.14H127.22V61h7.68V43.06Z" transform="translate(5 130)"/>
    </g>
  </g>
</svg>
