<svg xmlns="http://www.w3.org/2000/svg" xmlns:xlink="http://www.w3.org/1999/xlink" width="223" height="259" viewBox="0 0 223 259">
  <defs>
    <style>
      .cls-1 {
        clip-path: url(#clip-XLSX);
      }

      .cls-2 {
        fill: #e2e5e7;
      }

      .cls-3 {
        fill: #cad1d8;
      }

      .cls-4 {
        fill: #b0b7bd;
      }

      .cls-5 {
        fill: #0c7238;
      }

      .cls-6 {
        fill: #fff;
      }
    </style>
    <clipPath id="clip-XLSX">
      <rect width="223" height="259"/>
    </clipPath>
  </defs>
  <g id="XLSX" class="cls-1">
    <g id="Group_7" data-name="Group 7">
      <path id="Path_38" data-name="Path 38" class="cls-2" d="M15,0,127.184.359c1.542,0,2.124,8.3,3.313,9.223,8.86,6.793-4.489,35.668,5.674,44.914,10.3,9.372,26.615,1.812,36.9,9.064,1.652,1.158,19.03.477,19.03,3.349L192,242a15,15,0,0,1-15,15H15A15,15,0,0,1,0,242V15A15,15,0,0,1,15,0Z" transform="translate(29 1)"/>
      <path id="Path_40" data-name="Path 40" class="cls-3" d="M0-4.362H0L59.907,51,0,49.871Z" transform="translate(221.098 117.224) rotate(180)"/>
      <path id="Path_42" data-name="Path 42" class="cls-4" d="M0-4.362H0l66.189,65.44H0Z" transform="matrix(1, 0.017, -0.017, 1, 155.999, 5.362)"/>
      <path id="Path_43" data-name="Path 43" class="cls-4" d="M0-4.362H0l66.189,65.44H0Z" transform="matrix(1, 0.017, -0.017, 1, 155.999, 5.362)"/>
      <path id="Path_39" data-name="Path 39" class="cls-2" d="M15,0,127.184.359c1.542,0,2.124,8.3,3.313,9.223,8.86,6.793-4.489,35.668,5.674,44.914,10.3,9.372,26.615,1.812,36.9,9.064,1.652,1.158,19.03.477,19.03,3.349L192,242a15,15,0,0,1-15,15H15A15,15,0,0,1,0,242V15A15,15,0,0,1,15,0Z" transform="translate(29 1)"/>
      <path id="Path_41" data-name="Path 41" class="cls-3" d="M0-4.362H0L59.907,51,0,49.871Z" transform="translate(221.098 117.224) rotate(180)"/>
      <path id="Path_44" data-name="Path 44" class="cls-4" d="M0-4.362H0l66.189,65.44H0Z" transform="matrix(1, 0.017, -0.017, 1, 155.999, 5.362)"/>
      <path id="Path_45" data-name="Path 45" class="cls-4" d="M0-4.362H0l66.189,65.44L7.783,54.417Z" transform="matrix(1, 0.017, -0.017, 1, 155.999, 5.362)"/>
      <path id="Rectangle_12" data-name="Rectangle 12" class="cls-3" d="M0,0H172a0,0,0,0,1,0,0V8a3,3,0,0,1-3,3H0a0,0,0,0,1,0,0V0A0,0,0,0,1,0,0Z" transform="translate(29 214)"/>
      <rect id="Rectangle_13" data-name="Rectangle 13" class="cls-5" width="200" height="100" rx="5" transform="translate(1 119)"/>
      <path id="Path_90" data-name="Path 90" class="cls-6" d="M39.89,39.1,25.01,61h9L44.69,44.98c1.74,3.18,3.3,5.82,5.22,8.76L54.83,61h9.06L49.49,39.04l14.34-21.9H54.89L44.69,33.22c-1.62-3-3.12-5.52-4.92-8.22l-5.34-7.86H25.31Zm37.5-21.96H69.71V61H95.75V53.92H77.39ZM97.97,29.38c0,6.72,3.9,10.98,11.34,12.6l6.96,1.56c3.6.78,5.1,2.52,5.1,5.46,0,3.66-3.24,5.88-8.34,5.88-4.92,0-7.92-2.22-7.98-5.94H97.37c.18,7.86,6.3,12.84,15.66,12.84,9.66,0,16.02-5.28,16.02-13.44,0-6.54-3.66-10.38-11.16-12l-6.9-1.5c-3.66-.84-5.34-2.58-5.34-5.7,0-3.66,3.06-5.94,7.8-5.94,4.32,0,7.02,2.22,7.2,6h7.68c-.24-7.92-5.88-12.84-14.76-12.84C104.33,16.36,97.97,21.7,97.97,29.38Zm49.08,9.72L132.17,61h9l10.68-16.02c1.74,3.18,3.3,5.82,5.22,8.76L161.99,61h9.06l-14.4-21.96,14.34-21.9h-8.94l-10.2,16.08c-1.62-3-3.12-5.52-4.92-8.22l-5.34-7.86h-9.12Z" transform="translate(5 130)"/>
    </g>
  </g>
</svg>
