<svg version="1.1" xmlns="http://www.w3.org/2000/svg" xmlns:xlink="http://www.w3.org/1999/xlink" x="0px" y="0px" viewBox="0 0 251.1 96.3" style="enable-background:new 0 0 251.1 96.3;" xml:space="preserve">
<style type="text/css">
	.st0{fill:#F16932;}
	.st1{fill:currentColor;}
</style>
<path class="st1" d="M249.4,7.5c-0.5,0.7-1.4,1.1-2.3,1c-4.4,0-8.7,0-13.1,0c-1,0-1.2,0.2-1.2,1.2c0,14.5,0,29,0,43.5c0,2.1-0.5,2.6-2.6,2.6
	h-2.8c-1.9,0-2.4-0.5-2.4-2.4V25c0-5.1,0-10.3,0-15.4c0-0.8-0.2-1.1-1.1-1.1c-4.5,0-8.9,0-13.4,0c-1.7,0-2.3-0.5-2.3-2.3
	c0-0.9,0-1.8,0-2.6c-0.1-1,0.6-1.9,1.6-2c0.1,0,0.3,0,0.4,0c12.3,0,24.7,0,37,0c0.8,0,1.5,0.3,2,0.9L249.4,7.5z"></path>
<path class="st1" d="M94.4,57l-4.7-11.2l-4.8-11.1C81.6,42.3,78.3,49.6,75,57c-1.5-3.4-2.9-6.6-4.3-9.8c-0.1-0.3-0.1-0.7,0.1-1L89.9,1.4
	C90,1,90.2,0.6,90.8,0.6c2.7,0,5.3,0,8.1,0l-4,9.9c-1.7,4.2-3.5,8.4-5.2,12.6c-0.2,0.4-0.4,0.8-0.2,1.2c1.7,4.1,3.4,8.2,5.1,12.5
	l5.4-12.9c3.1-7.4,6.2-14.8,9.3-22.2c0.2-0.8,1-1.3,1.8-1.2c2.5,0.1,4.9,0,7.6,0L94.4,57z"></path>
<path class="st1" d="M21.7,56.6c-5.2,0-10.3-0.9-14.7-3.9c-3.5-2.2-5.8-5.8-6.3-9.8c-0.2-1.5,0.5-2.3,2-2.3c1.2,0,2.4,0,3.6,0
	c1-0.1,1.8,0.6,2.1,1.5c1.4,4.7,4.8,6.9,9.4,7.7c3.5,0.6,7.2,0.4,10.6-0.6c4-1.2,6.2-4,6.2-7.8c0-2.2-1.2-4.3-3.1-5.5
	c-2.4-1.4-5-2.5-7.7-3.2c-3.7-1.2-7.5-2.1-11.1-3.6c-0.9-0.4-1.8-0.8-2.6-1.2c-4.9-2.4-7.7-6.2-7.8-11.8S4.6,6.4,9.4,3.6
	C15.5-0.1,27.9-0.7,35,5c2.7,2,4.7,5,5.5,8.3c0.1,0.5,0.2,1,0.2,1.5c0.1,0.8-0.5,1.5-1.2,1.5c-0.1,0-0.2,0-0.2,0c-1.6,0-3.1,0-4.7,0
	c-0.8,0-1.5-0.6-1.6-1.4c-0.8-4.1-3.7-6.1-7.4-7.1C22,7,18.3,7.2,14.9,8.5c-3.7,1.1-5.8,5-4.8,8.8c0.4,1.6,1.4,3,2.8,3.9
	c2.2,1.4,4.6,2.5,7.1,3.2c4.4,1.5,9,2.4,13.3,4.3h0.1c5.5,2.3,8.9,6,8.9,12.3s-3,10.7-8.6,13.4C29.9,56,25.8,56.8,21.7,56.6z"></path>
<path class="st1" d="M161.7,28.7V4.2c0-2.1,0.5-2.6,2.6-2.6h30.1c2.3,0,2.7,0.4,2.7,2.7v1.9c0,1.5-0.6,2.1-2.1,2.1h-13.9c-3.5,0-7,0-10.5,0
	c-1.1,0-1.3,0.3-1.3,1.3c0.1,5.2,0.1,10.4,0,15.7c0,0.9,0.2,1.1,1.1,1.1c7.6,0,15.1,0,22.6,0c2,0,2.5,0.5,2.5,2.4c0,0.7,0,1.4,0,2.2
	c0,1.5-0.6,2.2-2.2,2.2c-3.9,0-7.8,0-11.6,0s-7.6,0-11.4,0c-0.9,0-1.1,0.2-1.1,1c0,6.4,0,12.8,0,19.3c0,1.9-0.5,2.4-2.4,2.4
	c-1,0-2,0-3,0c-1.6,0-2.1-0.6-2.2-2.2c0-4,0-8,0-12.1L161.7,28.7z"></path>
<path class="st0" d="M68.2,42.6L50.5,0.7c0.4,0,0.8,0,1.1,0h33.5c0.7,0,1.3-0.1,0.8,1c-5.8,13.5-11.7,27-17.4,40.5
	C68.4,42.2,68.3,42.3,68.2,42.6z"></path>
<path class="st1" d="M142,28.7v24.9c0,1.8-0.5,2.3-2.3,2.3c-1.1,0-2.2,0-3.4,0c-1.5,0-2.1-0.6-2.1-2.1c0-7,0-13.9,0-20.9V4
	c0-1.9,0.5-2.4,2.4-2.4c1.1,0,2.1,0,3.2,0c1.5,0,2.1,0.6,2.1,2.1C142,12,142,20.4,142,28.7z"></path>
<path class="st1" d="M1.2,90.5C1.1,90.4,1,90.3,1,90.1V71.7c0-0.2,0.1-0.3,0.2-0.5c0.1-0.1,0.3-0.2,0.4-0.2H9c1.5-0.1,3.1,0.4,4.2,1.4
	c0.9,1,1.4,2.3,1.4,3.6c0,1-0.2,1.9-0.7,2.7c-0.4,0.7-1,1.2-1.7,1.5c0.8,0.4,1.5,1.1,2,1.9c0.6,0.8,0.9,1.8,0.9,2.9
	c0,1-0.2,1.9-0.7,2.7c-0.5,0.8-1.2,1.5-2,2c-1,0.5-2,0.8-3.1,0.8H1.6C1.5,90.6,1.3,90.6,1.2,90.5z M8.6,79.6
	c1.1,0.1,2.2-0.2,3.1-0.9c0.7-0.6,1.1-1.6,1.1-2.6c0.1-1-0.3-1.9-1.1-2.5c-0.9-0.6-2-0.9-3.1-0.8H2.8v6.8L8.6,79.6z M8.9,89
	c1.2,0.1,2.3-0.3,3.2-1.1c1.5-1.6,1.5-4,0-5.6c-0.9-0.8-2-1.1-3.2-1.1H2.8V89H8.9z"></path>
<path class="st1" d="M25.2,95.8c-0.1-0.1-0.2-0.2-0.2-0.4c0-0.2,0.1-0.4,0.2-0.6l2.2-5L22,77.2c-0.1-0.2-0.1-0.4-0.2-0.6c0-0.3,0.3-0.5,0.6-0.6
	H23c0.3,0,0.5,0.2,0.6,0.4l4.7,11.1l4.8-11.1c0.1-0.3,0.4-0.4,0.7-0.4h0.6c0.3,0,0.5,0.3,0.6,0.6c0,0.2-0.1,0.4-0.2,0.6l-8,18.3
	c-0.1,0.3-0.4,0.4-0.7,0.4h-0.6C25.4,96,25.3,95.9,25.2,95.8z"></path>
<path class="st1" d="M53.4,90.5c-0.1-0.1-0.2-0.3-0.2-0.4V71.7c0-0.2,0.1-0.3,0.2-0.5c0.1-0.1,0.3-0.2,0.4-0.2h6c1.6-0.1,3.2,0.2,4.6,0.8
	c1.1,0.5,1.9,1.4,2.4,2.5c0.5,1.3,0.8,2.8,0.8,4.2c0,0.6,0,1.3,0,2.2s0,1.7,0,2.2c0,1.5-0.2,2.9-0.8,4.3c-0.5,1.1-1.3,1.9-2.4,2.4
	c-1.4,0.6-3,0.9-4.5,0.8h-6.1C53.7,90.7,53.5,90.6,53.4,90.5z M59.8,89c1.2,0.1,2.4-0.2,3.5-0.6c0.8-0.4,1.5-1.1,1.9-1.9
	c0.4-1.1,0.6-2.3,0.6-3.6c0-0.6,0-1.3,0-2.1c0-0.8,0-1.5,0-2.1c0.1-1.7-0.4-3.3-1.5-4.6c-0.9-1-2.5-1.4-4.7-1.4H55V89L59.8,89z"></path>
<path class="st1" d="M78,95.8c-0.1-0.1-0.2-0.2-0.2-0.4c0-0.2,0.1-0.4,0.2-0.6l2.2-5l-5.3-12.6c-0.1-0.2-0.1-0.4-0.2-0.6c0-0.1,0.1-0.3,0.2-0.4
	c0.1-0.1,0.2-0.2,0.4-0.2h0.6c0.3,0,0.5,0.2,0.6,0.4l4.7,11.1L86,76.5c0.1-0.3,0.4-0.4,0.6-0.4h0.6c0.2,0,0.3,0.1,0.4,0.2
	c0.1,0.1,0.2,0.2,0.2,0.4c0,0.2-0.1,0.4-0.2,0.6l-8,18.3C79.5,95.8,79.2,96,79,96h-0.6C78.2,96,78.1,95.9,78,95.8z"></path>
<path class="st1" d="M95.2,90.5c-0.1-0.1-0.2-0.2-0.2-0.4V76.7c0-0.3,0.2-0.6,0.5-0.6c0,0,0.1,0,0.1,0h0.5c0.2,0,0.3,0.1,0.4,0.2
	c0.1,0.1,0.2,0.3,0.2,0.4v1.3c0.5-0.7,1.2-1.3,1.9-1.7c0.9-0.4,1.8-0.6,2.8-0.6c1.6-0.1,3.2,0.5,4.2,1.8c1,1.3,1.6,2.9,1.5,4.5v8
	c0,0.2-0.1,0.3-0.2,0.4c-0.1,0.1-0.3,0.2-0.4,0.2h-0.5c-0.2,0-0.3,0-0.4-0.2c-0.1-0.1-0.2-0.3-0.2-0.4v-7.9c0.1-1.3-0.3-2.5-1.1-3.5
	c-0.8-0.9-2-1.3-3.2-1.2c-1.2-0.1-2.4,0.4-3.2,1.3c-0.9,1-1.3,2.2-1.2,3.5v7.9c0,0.2,0,0.3-0.2,0.4c-0.1,0.1-0.3,0.2-0.4,0.2h-0.5
	C95.5,90.7,95.3,90.6,95.2,90.5z"></path>
<path class="st1" d="M117.1,90.4c-0.7-0.3-1.4-0.9-1.8-1.5c-0.4-0.6-0.7-1.3-0.7-2.1c0-1.2,0.5-2.3,1.5-3c1.2-0.8,2.6-1.4,4-1.5l4.4-0.6v-1
	c0.1-0.9-0.3-1.8-0.9-2.4c-0.8-0.6-1.8-0.9-2.9-0.8c-0.8,0-1.6,0.2-2.3,0.6c-0.5,0.3-1,0.8-1.2,1.3c0,0.2-0.1,0.3-0.3,0.5
	c-0.1,0.1-0.3,0.1-0.4,0.1h-0.4c-0.3,0-0.6-0.3-0.6-0.6c0-0.5,0.2-1,0.6-1.4c0.5-0.6,1.1-1.1,1.7-1.4c0.9-0.4,1.9-0.6,2.9-0.6
	c2,0,3.4,0.5,4.3,1.4c0.8,1,1.3,2.2,1.3,3.5v9.4c0,0.2-0.1,0.3-0.2,0.4c-0.1,0.1-0.3,0.2-0.4,0.2h-0.5c-0.2,0-0.3,0-0.4-0.2
	c-0.1-0.1-0.2-0.3-0.2-0.4v-1.3c-0.5,0.7-1.1,1.2-1.8,1.6c-1,0.5-2.1,0.7-3.1,0.6C118.7,91,117.9,90.8,117.1,90.4z M123.3,88
	c0.9-1.1,1.4-2.5,1.3-3.9v-1l-3.6,0.5c-1.2,0.1-2.4,0.5-3.5,1.1c-0.7,0.4-1.2,1.1-1.2,1.9c0,0.8,0.4,1.6,1.1,2
	c0.8,0.5,1.6,0.7,2.5,0.7C121.2,89.4,122.4,88.9,123.3,88z"></path>
<path class="st1" d="M135.1,90.5c-0.1-0.1-0.2-0.3-0.2-0.4V76.7c0-0.3,0.2-0.6,0.5-0.6c0,0,0.1,0,0.1,0h0.5c0.2,0,0.3,0.1,0.4,0.2
	c0.1,0.1,0.2,0.3,0.2,0.4v1c0.5-0.6,1-1.1,1.7-1.4c0.7-0.3,1.5-0.5,2.3-0.5c1.9-0.1,3.7,0.9,4.5,2.6c0.4-0.8,1.1-1.5,1.9-1.9
	c0.9-0.5,1.9-0.7,2.9-0.7c1.4,0,2.8,0.5,3.8,1.6c1,1.3,1.6,2.9,1.4,4.5v8.2c0,0.3-0.2,0.6-0.5,0.6c0,0-0.1,0-0.1,0H154
	c-0.2,0-0.3-0.1-0.4-0.2c-0.1-0.1-0.2-0.3-0.2-0.4v-7.9c0.1-1.3-0.2-2.6-1-3.6c-0.7-0.7-1.7-1.1-2.8-1.1c-1,0-1.9,0.4-2.6,1.1
	c-0.8,1-1.2,2.3-1.1,3.6v7.9c0,0.2,0,0.3-0.2,0.4c-0.1,0.1-0.3,0.2-0.4,0.2h-0.5c-0.2,0-0.3-0.1-0.4-0.2c-0.1-0.1-0.2-0.3-0.2-0.4
	v-7.9c0.1-1.3-0.3-2.6-1.2-3.6c-0.7-0.7-1.7-1.1-2.7-1.1c-1,0-1.9,0.4-2.6,1.1c-0.8,1-1.2,2.3-1.1,3.6v7.9c0,0.2,0,0.3-0.2,0.4
	c-0.1,0.1-0.3,0.2-0.4,0.2h-0.5C135.3,90.7,135.2,90.6,135.1,90.5z"></path>
<path class="st1" d="M163.5,73c-0.1-0.1-0.2-0.3-0.2-0.4v-1.1c0-0.2,0.1-0.3,0.2-0.5c0.1-0.1,0.3-0.2,0.4-0.2h1c0.2,0,0.3,0.1,0.5,0.2
	c0.1,0.1,0.2,0.3,0.2,0.5v1.1c0,0.2-0.1,0.3-0.2,0.4c-0.1,0.1-0.3,0.2-0.5,0.2h-1C163.8,73.1,163.6,73.1,163.5,73z M163.8,90.5
	c-0.1-0.1-0.2-0.3-0.2-0.4V76.7c0-0.3,0.2-0.6,0.5-0.6c0,0,0.1,0,0.1,0h0.5c0.3,0,0.6,0.2,0.6,0.5c0,0,0,0.1,0,0.1v13.4
	c0,0.2-0.1,0.3-0.2,0.4c-0.1,0.1-0.3,0.2-0.4,0.2h-0.5C164.1,90.7,163.9,90.6,163.8,90.5L163.8,90.5z"></path>
<path class="st1" d="M175.1,89.3c-1.1-1.3-1.7-3-1.7-4.8v-1.1v-1.1c0-1.7,0.6-3.4,1.7-4.8c1.2-1.2,2.8-1.8,4.5-1.7c1.1,0,2.2,0.2,3.1,0.7
	c0.8,0.4,1.5,0.9,2,1.7c0.4,0.6,0.7,1.4,0.7,2.1c0,0.2,0,0.3-0.2,0.4c-0.1,0.1-0.3,0.2-0.4,0.2h-0.4c-0.1,0-0.3,0-0.4-0.1
	c-0.1-0.1-0.2-0.3-0.3-0.5c-0.3-0.9-0.8-1.7-1.6-2.2c-0.8-0.5-1.7-0.7-2.6-0.7c-1.2-0.1-2.3,0.4-3.2,1.2c-0.9,1-1.3,2.4-1.3,3.7v1v1
	c-0.1,1.4,0.4,2.7,1.3,3.7c0.8,0.8,2,1.3,3.2,1.2c0.9,0,1.8-0.2,2.6-0.7c0.7-0.5,1.3-1.3,1.6-2.2c0.1-0.2,0.1-0.3,0.3-0.5
	c0.1-0.1,0.3-0.1,0.4-0.1h0.4c0.2,0,0.3,0.1,0.4,0.2c0.1,0.1,0.2,0.3,0.2,0.4c0,0.8-0.3,1.5-0.7,2.1c-0.5,0.7-1.2,1.3-2,1.7
	c-1,0.5-2.1,0.7-3.1,0.7C177.9,91.1,176.3,90.5,175.1,89.3z"></path>
<path class="st1" d="M196.2,90.5c-0.2-0.1-0.3-0.3-0.3-0.5l-3.9-13l-0.1-0.3c0-0.1,0.1-0.3,0.2-0.4c0.1-0.1,0.2-0.2,0.4-0.2h0.6
	c0.2,0,0.3,0,0.4,0.1c0.1,0.1,0.2,0.2,0.2,0.3l3.4,11.7l3.7-11.5c0-0.2,0.1-0.3,0.3-0.4c0.1-0.1,0.3-0.2,0.5-0.2h0.6
	c0.2,0,0.4,0.1,0.5,0.2c0.1,0.1,0.2,0.2,0.3,0.4l3.7,11.5l3.4-11.7c0-0.1,0.1-0.2,0.2-0.3c0.1-0.1,0.3-0.1,0.4-0.1h0.5
	c0.3,0,0.5,0.3,0.6,0.6l-0.1,0.3l-3.9,13c-0.1,0.2-0.2,0.4-0.3,0.5c-0.2,0.1-0.4,0.2-0.6,0.2h-0.5c-0.5,0.1-0.9-0.2-1-0.7l-3.5-11
	l-3.5,11c-0.1,0.4-0.5,0.7-0.9,0.7h-0.5C196.5,90.7,196.3,90.6,196.2,90.5z"></path>
<path class="st1" d="M219.9,89.2c-1.1-1.3-1.8-3-1.9-4.7v-1.1v-1.1c0.1-1.7,0.7-3.4,1.8-4.7c1.1-1.2,2.7-1.8,4.3-1.8c1.7-0.1,3.4,0.6,4.6,1.9
	c1.2,1.5,1.8,3.4,1.6,5.3v0.4c0,0.2-0.1,0.3-0.2,0.4c-0.1,0.1-0.3,0.2-0.5,0.2h-10v0.3c0,0.8,0.2,1.7,0.6,2.4
	c0.3,0.7,0.9,1.4,1.5,1.8c0.7,0.5,1.5,0.7,2.3,0.7c0.9,0,1.7-0.2,2.5-0.6c0.5-0.3,1-0.7,1.4-1.2c0.1-0.2,0.2-0.3,0.4-0.4
	c0.1-0.1,0.3-0.1,0.5-0.1h0.4c0.2,0,0.3,0,0.4,0.1c0.1,0.1,0.2,0.2,0.2,0.4c-0.1,0.5-0.3,1-0.7,1.4c-0.6,0.6-1.3,1.1-2.1,1.4
	c-0.9,0.4-2,0.6-3,0.6C222.5,91,221,90.4,219.9,89.2z M228.7,82.5v-0.1c0-1.3-0.4-2.6-1.2-3.6c-0.8-0.9-2-1.4-3.3-1.4
	c-1.2-0.1-2.4,0.5-3.2,1.4c-0.8,1-1.2,2.3-1.2,3.6v0.1H228.7z"></path>
<path class="st1" d="M240,88.8v1.4c0,0.2-0.1,0.3-0.2,0.4c-0.1,0.1-0.3,0.2-0.5,0.2h-0.5c-0.2,0-0.3,0-0.5-0.2c-0.1-0.1-0.2-0.3-0.2-0.4V71.4
	c0-0.3,0.2-0.6,0.5-0.6c0,0,0.1,0,0.1,0h0.5c0.3,0,0.6,0.2,0.6,0.5c0,0,0,0.1,0,0.1v6.6c1.1-1.5,2.9-2.3,4.7-2.2
	c1.7-0.1,3.4,0.6,4.5,2c1,1.4,1.5,3.1,1.5,4.8c0,0.5,0,1,0,1.6c0,1.7-0.5,3.4-1.5,4.8c-1.1,1.4-2.7,2.1-4.5,2
	C242.9,91.1,241.1,90.3,240,88.8z M247.9,87.9c0.7-1.1,1.1-2.4,1.1-3.7c0-0.2,0-0.4,0-0.8c0.1-1.5-0.3-3-1-4.3
	c-0.8-1.2-2.1-1.8-3.5-1.7c-0.9,0-1.8,0.2-2.5,0.7c-0.7,0.4-1.2,1.1-1.5,1.8c-0.3,0.7-0.5,1.5-0.5,2.3v1.1v1.1
	c0,1.3,0.4,2.5,1.2,3.5c0.8,1,2,1.6,3.3,1.5C245.8,89.4,247.1,88.9,247.9,87.9L247.9,87.9z"></path>
</svg>