<svg xmlns="http://www.w3.org/2000/svg" viewBox="0 0 251.1 58">
	<style>
		.st1 {
		fill: currentColor
		}
	</style>
	<path class="st1" d="M248.733 7.013a2.515 2.515 0 01-2.3 1h-13.1c-1 0-1.2.2-1.2 1.2v43.5c0 2.1-.5 2.6-2.6 2.6h-2.8c-1.9 0-2.4-.5-2.4-2.4v-43.8c0-.8-.2-1.1-1.1-1.1h-13.4c-1.7 0-2.3-.5-2.3-2.3v-2.6a1.805 1.805 0 011.6-2h37.4a2.518 2.518 0 012 .9zM93.733 56.513l-4.7-11.2-4.8-11.1c-3.3 7.6-6.6 14.9-9.9 22.3-1.5-3.4-2.9-6.6-4.3-9.8a1.183 1.183 0 01.1-1l19.1-44.8a.882.882 0 01.9-.8h8.1l-4 9.9c-1.7 4.2-3.5 8.4-5.2 12.6a1.322 1.322 0 00-.2 1.2c1.7 4.1 3.4 8.2 5.1 12.5l5.4-12.9 9.3-22.2a1.645 1.645 0 011.8-1.2c2.5.1 4.9 0 7.6 0zM21.033 56.113c-5.2 0-10.3-.9-14.7-3.9a13.593 13.593 0 01-6.3-9.8 1.791 1.791 0 012-2.3h3.6a2.048 2.048 0 012.1 1.5c1.4 4.7 4.8 6.9 9.4 7.7a23.739 23.739 0 0010.6-.6c4-1.2 6.2-4 6.2-7.8a6.593 6.593 0 00-3.1-5.5 30.577 30.577 0 00-7.7-3.2c-3.7-1.2-7.5-2.1-11.1-3.6-.9-.4-1.8-.8-2.6-1.2-4.9-2.4-7.7-6.2-7.8-11.8a13.264 13.264 0 017.1-12.5c6.1-3.7 18.5-4.3 25.6 1.4a14.788 14.788 0 015.5 8.3 7.719 7.719 0 01.2 1.5 1.3 1.3 0 01-1.2 1.5h-4.9a1.617 1.617 0 01-1.6-1.4c-.8-4.1-3.7-6.1-7.4-7.1a18.572 18.572 0 00-10.7.7 7.2 7.2 0 00-4.8 8.8 6.524 6.524 0 002.8 3.9 26.693 26.693 0 007.1 3.2c4.4 1.5 9 2.4 13.3 4.3h.1c5.5 2.3 8.9 6 8.9 12.3s-3 10.7-8.6 13.4a27.534 27.534 0 01-12 2.2zM161.033 28.213v-24.5c0-2.1.5-2.6 2.6-2.6h30.1c2.3 0 2.7.4 2.7 2.7v1.9c0 1.5-.6 2.1-2.1 2.1h-24.4c-1.1 0-1.3.3-1.3 1.3.1 5.2.1 10.4 0 15.7 0 .9.2 1.1 1.1 1.1h22.6c2 0 2.5.5 2.5 2.4v2.2c0 1.5-.6 2.2-2.2 2.2h-23c-.9 0-1.1.2-1.1 1v19.3c0 1.9-.5 2.4-2.4 2.4h-3c-1.6 0-2.1-.6-2.2-2.2v-12.1z"/>
	<path d="M67.533 42.113l-17.7-41.9h34.6c.7 0 1.3-.1.8 1-5.8 13.5-11.7 27-17.4 40.5-.1 0-.2.1-.3.4z" fill="#f16932"/>
	<path class="st1" d="M141.333 28.213v24.9c0 1.8-.5 2.3-2.3 2.3h-3.4c-1.5 0-2.1-.6-2.1-2.1v-49.8c0-1.9.5-2.4 2.4-2.4h3.2c1.5 0 2.1.6 2.1 2.1.1 8.3.1 16.7.1 25z"/>
</svg>
