<svg version="1.1" id="Swift_logo_final_Image" xmlns="http://www.w3.org/2000/svg" xmlns:xlink="http://www.w3.org/1999/xlink"
	 x="0px" y="0px" viewBox="0 0 69.1 58" style="enable-background:new 0 0 69.1 58;" xml:space="preserve">
<style type="text/css">
	.st0{fill:#F16932;}
</style>
<path d="M44.4,57l-4.7-11.2l-4.8-11.1C31.6,42.3,28.3,49.6,25,57c-1.5-3.4-2.9-6.6-4.3-9.8c-0.1-0.3-0.1-0.7,0.1-1L39.9,1.4
	C40,1,40.2,0.6,40.8,0.6c2.7,0,5.3,0,8.1,0l-4,9.9c-1.7,4.2-3.5,8.4-5.2,12.6c-0.2,0.4-0.4,0.8-0.2,1.2c1.7,4.1,3.4,8.2,5.1,12.5
	L50,23.9c3.1-7.4,6.2-14.8,9.3-22.2c0.2-0.8,1-1.3,1.8-1.2c2.5,0.1,4.9,0,7.6,0L44.4,57z"/>
<path class="st0" d="M18.2,42.6L0.5,0.7c0.4,0,0.8,0,1.1,0h33.5c0.7,0,1.3-0.1,0.8,1c-5.8,13.5-11.7,27-17.4,40.5
	C18.4,42.2,18.3,42.3,18.2,42.6z"/>
</svg>
