<svg xmlns="http://www.w3.org/2000/svg" xmlns:xlink="http://www.w3.org/1999/xlink" width="223" height="259" viewBox="0 0 223 259">
  <defs>
    <style>
      .cls-1 {
        clip-path: url(#clip-DOCX);
      }

      .cls-2 {
        fill: #e2e5e7;
      }

      .cls-3 {
        fill: #cad1d8;
      }

      .cls-4 {
        fill: #b0b7bd;
      }

      .cls-5 {
        fill: #25559a;
      }

      .cls-6 {
        fill: #fff;
      }
    </style>
    <clipPath id="clip-DOCX">
      <rect width="223" height="259"/>
    </clipPath>
  </defs>
  <g id="DOCX" class="cls-1">
    <g id="Group_9" data-name="Group 9">
      <path id="Path_22" data-name="Path 22" class="cls-2" d="M15,0,127.184.359c1.542,0,2.124,8.3,3.313,9.223,8.86,6.793-4.489,35.668,5.674,44.914,10.3,9.372,26.615,1.812,36.9,9.064,1.652,1.158,19.03.477,19.03,3.349L192,242a15,15,0,0,1-15,15H15A15,15,0,0,1,0,242V15A15,15,0,0,1,15,0Z" transform="translate(29 1)"/>
      <path id="Path_24" data-name="Path 24" class="cls-3" d="M0-4.362H0L59.907,51,0,49.871Z" transform="translate(221.098 117.224) rotate(180)"/>
      <path id="Path_26" data-name="Path 26" class="cls-4" d="M0-4.362H0l66.189,65.44H0Z" transform="matrix(1, 0.017, -0.017, 1, 155.999, 5.362)"/>
      <path id="Path_27" data-name="Path 27" class="cls-4" d="M0-4.362H0l66.189,65.44H0Z" transform="matrix(1, 0.017, -0.017, 1, 155.999, 5.362)"/>
      <path id="Path_23" data-name="Path 23" class="cls-2" d="M15,0,127.184.359c1.542,0,2.124,8.3,3.313,9.223,8.86,6.793-4.489,35.668,5.674,44.914,10.3,9.372,26.615,1.812,36.9,9.064,1.652,1.158,19.03.477,19.03,3.349L192,242a15,15,0,0,1-15,15H15A15,15,0,0,1,0,242V15A15,15,0,0,1,15,0Z" transform="translate(29 1)"/>
      <path id="Path_25" data-name="Path 25" class="cls-3" d="M0-4.362H0L59.907,51,0,49.871Z" transform="translate(221.098 117.224) rotate(180)"/>
      <path id="Path_28" data-name="Path 28" class="cls-4" d="M0-4.362H0l66.189,65.44H0Z" transform="matrix(1, 0.017, -0.017, 1, 155.999, 5.362)"/>
      <path id="Path_29" data-name="Path 29" class="cls-4" d="M0-4.362H0l66.189,65.44L7.783,54.417Z" transform="matrix(1, 0.017, -0.017, 1, 155.999, 5.362)"/>
      <path id="Rectangle_8" data-name="Rectangle 8" class="cls-3" d="M0,0H172a0,0,0,0,1,0,0V8a3,3,0,0,1-3,3H0a0,0,0,0,1,0,0V0A0,0,0,0,1,0,0Z" transform="translate(29 214)"/>
      <rect id="Rectangle_9" data-name="Rectangle 9" class="cls-5" width="200" height="100" rx="5" transform="translate(1 119)"/>
      <path id="Path_88" data-name="Path 88" class="cls-6" d="M29.96,61c12.72,0,21.48-8.94,21.48-21.84,0-13.08-8.94-22.02-21.9-22.02H14.18V61ZM28.82,24.22c9.06,0,14.52,5.64,14.52,14.94,0,9.12-5.34,14.76-14.1,14.76H21.86V24.22ZM98.6,39.04c0-13.38-8.76-22.68-21.3-22.68S56.06,25.72,56.06,39.04c0,13.38,8.64,22.68,21.18,22.68C89.84,61.72,98.6,52.36,98.6,39.04Zm-8.1,0c0,9.24-5.16,15.3-13.2,15.3S64.1,48.4,64.1,39.04s5.16-15.3,13.2-15.3S90.5,29.68,90.5,39.04Zm33.78,22.68c10.38,0,18.42-6.12,20.1-15.36H136.4c-1.44,4.86-6,7.98-11.94,7.98-8.04,0-13.2-6-13.2-15.3,0-9.36,5.1-15.24,13.2-15.24,5.82,0,10.2,3,11.7,8.1h8.1c-1.5-9.42-9.24-15.48-19.62-15.48-12.84,0-21.42,9.06-21.42,22.68C103.22,52.84,111.5,61.72,124.28,61.72ZM161.72,39.1,146.84,61h9l10.68-16.02c1.74,3.18,3.3,5.82,5.22,8.76L176.66,61h9.06l-14.4-21.96,14.34-21.9h-8.94l-10.2,16.08c-1.62-3-3.12-5.52-4.92-8.22l-5.34-7.86h-9.12Z" transform="translate(5 130)"/>
    </g>
  </g>
</svg>
