<svg xmlns="http://www.w3.org/2000/svg" xmlns:xlink="http://www.w3.org/1999/xlink" width="223" height="259" viewBox="0 0 223 259">
  <defs>
    <style>
      .cls-1 {
        clip-path: url(#clip-PPT);
      }

      .cls-2 {
        fill: #e2e5e7;
      }

      .cls-3 {
        fill: #cad1d8;
      }

      .cls-4 {
        fill: #b0b7bd;
      }

      .cls-5 {
        fill: #c84724;
      }

      .cls-6 {
        fill: #fff;
      }
    </style>
    <clipPath id="clip-PPT">
      <rect width="223" height="259"/>
    </clipPath>
  </defs>
  <g id="PPT" class="cls-1">
    <g id="Group_8" data-name="Group 8">
      <path id="Path_30" data-name="Path 30" class="cls-2" d="M15,0,127.184.359c1.542,0,2.124,8.3,3.313,9.223,8.86,6.793-4.489,35.668,5.674,44.914,10.3,9.372,26.615,1.812,36.9,9.064,1.652,1.158,19.03.477,19.03,3.349L192,242a15,15,0,0,1-15,15H15A15,15,0,0,1,0,242V15A15,15,0,0,1,15,0Z" transform="translate(29 1)"/>
      <path id="Path_32" data-name="Path 32" class="cls-3" d="M0-4.362H0L59.907,51,0,49.871Z" transform="translate(221.098 117.224) rotate(180)"/>
      <path id="Path_34" data-name="Path 34" class="cls-4" d="M0-4.362H0l66.189,65.44H0Z" transform="matrix(1, 0.017, -0.017, 1, 155.999, 5.362)"/>
      <path id="Path_35" data-name="Path 35" class="cls-4" d="M0-4.362H0l66.189,65.44H0Z" transform="matrix(1, 0.017, -0.017, 1, 155.999, 5.362)"/>
      <path id="Path_31" data-name="Path 31" class="cls-2" d="M15,0,127.184.359c1.542,0,2.124,8.3,3.313,9.223,8.86,6.793-4.489,35.668,5.674,44.914,10.3,9.372,26.615,1.812,36.9,9.064,1.652,1.158,19.03.477,19.03,3.349L192,242a15,15,0,0,1-15,15H15A15,15,0,0,1,0,242V15A15,15,0,0,1,15,0Z" transform="translate(29 1)"/>
      <path id="Path_33" data-name="Path 33" class="cls-3" d="M0-4.362H0L59.907,51,0,49.871Z" transform="translate(221.098 117.224) rotate(180)"/>
      <path id="Path_36" data-name="Path 36" class="cls-4" d="M0-4.362H0l66.189,65.44H0Z" transform="matrix(1, 0.017, -0.017, 1, 155.999, 5.362)"/>
      <path id="Path_37" data-name="Path 37" class="cls-4" d="M0-4.362H0l66.189,65.44L7.783,54.417Z" transform="matrix(1, 0.017, -0.017, 1, 155.999, 5.362)"/>
      <path id="Rectangle_10" data-name="Rectangle 10" class="cls-3" d="M0,0H172a0,0,0,0,1,0,0V8a3,3,0,0,1-3,3H0a0,0,0,0,1,0,0V0A0,0,0,0,1,0,0Z" transform="translate(29 214)"/>
      <rect id="Rectangle_11" data-name="Rectangle 11" class="cls-5" width="200" height="100" rx="5" transform="translate(1 119)"/>
      <path id="Path_89" data-name="Path 89" class="cls-6" d="M64.16,45.88c8.76,0,14.52-5.94,14.52-14.4,0-8.58-5.7-14.34-14.52-14.34H46.82V61H54.5V45.88Zm-1.5-21.9c5.1,0,7.98,2.64,7.98,7.44s-2.82,7.62-8.1,7.62H54.5V23.98Zm39.84,21.9c8.76,0,14.52-5.94,14.52-14.4,0-8.58-5.7-14.34-14.52-14.34H85.16V61h7.68V45.88ZM101,23.98c5.1,0,7.98,2.64,7.98,7.44s-2.82,7.62-8.1,7.62H92.84V23.98Zm18.66.24H132.5V61h7.68V24.22h12.84V17.14H119.66Z" transform="translate(5 130)"/>
    </g>
  </g>
</svg>
