<svg xmlns="http://www.w3.org/2000/svg" width="80" height="80" viewBox="0 0 80 80"><rect width="80" height="80" fill="#f0f0f0"/><g transform="translate(1 -4)"><rect width="33" height="8" transform="translate(33 22)" fill="#4d4d4d"/><path d="M0,4.02.019,4,0,3.98,3.921,0,4,.08.138,4,4,7.92,3.921,8Z" transform="translate(15 28) rotate(-90)" fill="none" stroke="#4d4d4d" stroke-linecap="round" stroke-width="5"/></g><g transform="translate(1 14)"><rect width="33" height="8" transform="translate(33 22)" fill="#4d4d4d"/><path d="M0,4.02.019,4,0,3.98,3.921,0,4,.08.138,4,4,7.92,3.921,8Z" transform="translate(15 28) rotate(-90)" fill="none" stroke="#4d4d4d" stroke-linecap="round" stroke-width="5"/></g><g transform="translate(1 32)"><rect width="33" height="8" transform="translate(33 22)" fill="#4d4d4d"/><path d="M0,4.02.019,4,0,3.98,3.921,0,4,.08.138,4,4,7.92,3.921,8Z" transform="translate(15 28) rotate(-90)" fill="none" stroke="#4d4d4d" stroke-linecap="round" stroke-width="5"/></g></svg>