<svg xmlns="http://www.w3.org/2000/svg" width="80" height="80" viewBox="0 0 80 80"><g transform="translate(2 -1)"><rect width="80" height="80" transform="translate(-2 1)" fill="#f0f0f0"/><rect width="40" height="40" transform="translate(18 21)" fill="#4d4d4d"/><path d="M-5.093-8.59V0H-6.939V-6.5a2.21,2.21,0,0,1-.36.255,3.72,3.72,0,0,1-.442.217,3.95,3.95,0,0,1-.486.164,3.552,3.552,0,0,1-.5.1V-7.33a7.7,7.7,0,0,0,1.359-.539A7.736,7.736,0,0,0-6.212-8.59ZM-.021-4.143a1.087,1.087,0,0,1-.762-.278.9.9,0,0,1-.3-.688A.871.871,0,0,1-.773-5.8a1.158,1.158,0,0,1,.782-.27A1.114,1.114,0,0,1,.785-5.8a.888.888,0,0,1,.3.688.884.884,0,0,1-.308.7A1.169,1.169,0,0,1-.021-4.143Zm0,4.289A1.08,1.08,0,0,1-.782-.135a.9.9,0,0,1-.3-.691.871.871,0,0,1,.313-.691,1.158,1.158,0,0,1,.782-.27,1.114,1.114,0,0,1,.776.272.888.888,0,0,1,.3.688.893.893,0,0,1-.308.7A1.161,1.161,0,0,1-.021.146ZM7.941-8.59V0H6.1V-6.5a2.21,2.21,0,0,1-.36.255,3.72,3.72,0,0,1-.442.217,3.95,3.95,0,0,1-.486.164,3.552,3.552,0,0,1-.5.1V-7.33a7.7,7.7,0,0,0,1.359-.539A7.736,7.736,0,0,0,6.822-8.59Z" transform="translate(38 76)" fill="#4d4d4d"/></g></svg>