<svg xmlns="http://www.w3.org/2000/svg" width="80" height="80" viewBox="0 0 80 80"><g transform="translate(-1.5 -2)"><rect width="80" height="80" transform="translate(1.5 2)" fill="#f0f0f0"/><rect width="20" height="20" transform="translate(31.5 32)" fill="#4d4d4d"/><path d="M-13.463-1.535H-9.9V0h-5.59V-.633a2.945,2.945,0,0,1,.217-1.157,3.84,3.84,0,0,1,.545-.92,4.727,4.727,0,0,1,.718-.721q.39-.313.741-.565.369-.264.647-.5a3.69,3.69,0,0,0,.469-.478,1.816,1.816,0,0,0,.284-.48,1.429,1.429,0,0,0,.094-.519,1.042,1.042,0,0,0-.3-.814,1.355,1.355,0,0,0-.932-.275,3.129,3.129,0,0,0-2.074.861V-7.834a4.453,4.453,0,0,1,2.473-.709,3.652,3.652,0,0,1,1.146.167,2.423,2.423,0,0,1,.858.478,2.037,2.037,0,0,1,.536.753,2.541,2.541,0,0,1,.185.987,2.784,2.784,0,0,1-.179,1.031,3.169,3.169,0,0,1-.475.82,4.305,4.305,0,0,1-.683.677q-.387.308-.8.595-.281.2-.542.4a5.138,5.138,0,0,0-.46.387,2.1,2.1,0,0,0-.316.372A.642.642,0,0,0-13.463-1.535ZM-2.056-8.4v5.3h1.008v1.383H-2.056V0H-3.743V-1.723H-7.406V-3.17q.486-.545,1.008-1.192T-5.39-5.7q.486-.686.905-1.38A13.833,13.833,0,0,0-3.773-8.4Zm-3.691,5.3h2V-6.041q-.205.381-.445.771t-.5.768q-.264.378-.533.732T-5.747-3.105ZM3.363-.7H3.339V2.76H1.488V-6H3.339v.9h.023A2.177,2.177,0,0,1,5.29-6.146a2.169,2.169,0,0,1,1.8.8A3.405,3.405,0,0,1,7.728-3.17,3.691,3.691,0,0,1,6.987-.762,2.417,2.417,0,0,1,5.015.146,1.868,1.868,0,0,1,3.363-.7ZM3.31-3.158v.48a1.527,1.527,0,0,0,.328,1.014,1.068,1.068,0,0,0,.861.393,1.135,1.135,0,0,0,.981-.489,2.362,2.362,0,0,0,.349-1.386q0-1.582-1.23-1.582A1.155,1.155,0,0,0,3.67-4.3,1.718,1.718,0,0,0,3.31-3.158ZM15.924-6l-1.98,2.906L15.912,0H13.779l-.867-1.617q-.105-.193-.252-.545h-.023a3.8,3.8,0,0,1-.24.527L11.523,0H9.4l2.027-2.988L9.519-6h2.145l.855,1.682a3.688,3.688,0,0,1,.24.563h.023a3.964,3.964,0,0,1,.252-.574L13.908-6Z" transform="translate(41.5 77)" fill="#4d4d4d"/></g></svg>