<svg xmlns="http://www.w3.org/2000/svg" width="80" height="80" viewBox="0 0 80 80"><g transform="translate(-1 -0.63)"><rect width="80" height="80" transform="translate(1 0.63)" fill="#f0f0f0"/><rect width="40" height="11.667" transform="translate(21 34.63)" fill="#4d4d4d"/><path d="M-13.454-.275V-1.887a3.252,3.252,0,0,0,1.969.615,1.772,1.772,0,0,0,1.1-.3,1.012,1.012,0,0,0,.4-.85.966.966,0,0,0-.489-.867,2.535,2.535,0,0,0-1.345-.3H-12.6V-5.016h.721q1.641,0,1.641-1.09,0-1.025-1.26-1.025a2.872,2.872,0,0,0-1.641.545V-8.1a4.531,4.531,0,0,1,2.063-.445,3.113,3.113,0,0,1,2.007.58A1.846,1.846,0,0,1-8.35-6.457a1.958,1.958,0,0,1-1.67,2.063v.029a2.27,2.27,0,0,1,1.406.647A1.826,1.826,0,0,1-8.1-2.4,2.254,2.254,0,0,1-8.96-.539a3.724,3.724,0,0,1-2.379.686A4.6,4.6,0,0,1-13.454-.275Zm10.17-1.26H.279V0h-5.59V-.633A2.945,2.945,0,0,1-5.094-1.79a3.84,3.84,0,0,1,.545-.92,4.727,4.727,0,0,1,.718-.721q.39-.313.741-.565.369-.264.647-.5a3.689,3.689,0,0,0,.469-.478,1.816,1.816,0,0,0,.284-.48A1.429,1.429,0,0,0-1.6-5.977a1.042,1.042,0,0,0-.3-.814,1.355,1.355,0,0,0-.932-.275,3.129,3.129,0,0,0-2.074.861V-7.834a4.453,4.453,0,0,1,2.473-.709,3.652,3.652,0,0,1,1.146.167A2.423,2.423,0,0,1-.43-7.9a2.037,2.037,0,0,1,.536.753,2.541,2.541,0,0,1,.185.987A2.784,2.784,0,0,1,.112-5.127a3.169,3.169,0,0,1-.475.82,4.305,4.305,0,0,1-.683.677q-.387.308-.8.595-.281.2-.542.4a5.138,5.138,0,0,0-.46.387,2.1,2.1,0,0,0-.316.372A.642.642,0,0,0-3.283-1.535ZM4.151-4.143a1.087,1.087,0,0,1-.762-.278.9.9,0,0,1-.3-.688A.871.871,0,0,1,3.4-5.8a1.158,1.158,0,0,1,.782-.27,1.114,1.114,0,0,1,.776.272.888.888,0,0,1,.3.688.884.884,0,0,1-.308.7A1.169,1.169,0,0,1,4.151-4.143Zm0,4.289a1.08,1.08,0,0,1-.762-.281.9.9,0,0,1-.3-.691A.871.871,0,0,1,3.4-1.518a1.158,1.158,0,0,1,.782-.27,1.114,1.114,0,0,1,.776.272.888.888,0,0,1,.3.688.893.893,0,0,1-.308.7A1.161,1.161,0,0,1,4.151.146Zm9.456-4.752a7.453,7.453,0,0,1-.246,2,4.292,4.292,0,0,1-.718,1.491,3.17,3.17,0,0,1-1.151.935A3.527,3.527,0,0,1,9.95.146,4.379,4.379,0,0,1,8.175-.182V-1.705a2.845,2.845,0,0,0,1.594.434,1.835,1.835,0,0,0,1.494-.65A2.9,2.9,0,0,0,11.807-3.8l-.035-.012a1.9,1.9,0,0,1-1.693.826,2.324,2.324,0,0,1-.952-.193,2.288,2.288,0,0,1-.756-.536,2.45,2.45,0,0,1-.5-.817,2.938,2.938,0,0,1-.179-1.043,3.238,3.238,0,0,1,.217-1.207,2.763,2.763,0,0,1,.606-.937,2.676,2.676,0,0,1,.935-.606,3.278,3.278,0,0,1,1.207-.214,2.763,2.763,0,0,1,1.23.267,2.585,2.585,0,0,1,.929.771A3.6,3.6,0,0,1,13.4-6.27,6.264,6.264,0,0,1,13.606-4.605ZM11.737-5.59a2.177,2.177,0,0,0-.082-.606,1.6,1.6,0,0,0-.229-.489,1.112,1.112,0,0,0-.357-.325.919.919,0,0,0-.463-.12.942.942,0,0,0-.442.105,1.079,1.079,0,0,0-.349.29,1.374,1.374,0,0,0-.229.442,1.826,1.826,0,0,0-.082.557,1.9,1.9,0,0,0,.082.583,1.245,1.245,0,0,0,.231.431.971.971,0,0,0,.36.267,1.173,1.173,0,0,0,.469.091,1.007,1.007,0,0,0,.445-.1,1.073,1.073,0,0,0,.343-.261,1.18,1.18,0,0,0,.223-.387A1.425,1.425,0,0,0,11.737-5.59Z" transform="translate(41 75.63)" fill="#4d4d4d"/></g></svg>