<svg xmlns="http://www.w3.org/2000/svg" width="80" height="80" viewBox="0 0 80 80"><g transform="translate(2.5 -1)"><rect width="80" height="80" transform="translate(-2.5 1)" fill="#f0f0f0"/><rect width="40" height="20" transform="translate(17.5 27)" fill="none" stroke="#4d4d4d" stroke-linecap="square" stroke-linejoin="round" stroke-miterlimit="10" stroke-width="2" stroke-dasharray="1 4"/><path d="M6.572,12V3.813L9.829,7.07l1.414-1.414L7.036,1.449l.036-.036L5.657,0,5.622.036,5.586,0l-1,1H4.571v.015l-.4.4.035.035L0,5.656,1.415,7.07,4.571,3.914V12Z" transform="translate(42.743 55) rotate(180)" fill="#4d4d4d"/><path d="M-21.765-.322V-2.2a3.6,3.6,0,0,0,1.107.642,3.56,3.56,0,0,0,1.207.214,2.677,2.677,0,0,0,.624-.064,1.462,1.462,0,0,0,.445-.179.779.779,0,0,0,.267-.27.672.672,0,0,0,.088-.337.728.728,0,0,0-.141-.439,1.513,1.513,0,0,0-.384-.357,4.01,4.01,0,0,0-.577-.316q-.334-.152-.721-.311a3.678,3.678,0,0,1-1.468-1,2.187,2.187,0,0,1-.483-1.43,2.277,2.277,0,0,1,.264-1.128,2.239,2.239,0,0,1,.718-.776A3.218,3.218,0,0,1-19.767-8.4,5.4,5.4,0,0,1-18.5-8.543a7.612,7.612,0,0,1,1.163.079,4.574,4.574,0,0,1,.935.243v1.752a2.826,2.826,0,0,0-.46-.258,3.644,3.644,0,0,0-.513-.185A3.911,3.911,0,0,0-17.9-7.02a3.711,3.711,0,0,0-.5-.035,2.582,2.582,0,0,0-.586.062,1.5,1.5,0,0,0-.445.173.86.86,0,0,0-.281.267.632.632,0,0,0-.1.349.666.666,0,0,0,.111.378,1.277,1.277,0,0,0,.316.316,3.358,3.358,0,0,0,.5.293q.293.144.662.3a7.378,7.378,0,0,1,.905.448,3.218,3.218,0,0,1,.688.536,2.089,2.089,0,0,1,.439.683,2.412,2.412,0,0,1,.152.894A2.393,2.393,0,0,1-16.3-1.181a2.164,2.164,0,0,1-.724.773,3.138,3.138,0,0,1-1.063.425,6.146,6.146,0,0,1-1.28.129A7.119,7.119,0,0,1-20.684.029,3.971,3.971,0,0,1-21.765-.322ZM-3.637,0H-5.506V-5.027q0-.814.07-1.8h-.047a8.852,8.852,0,0,1-.264,1.113L-7.715,0H-9.262l-2-5.654a11,11,0,0,1-.264-1.172h-.053q.076,1.242.076,2.18V0h-1.705V-8.4h2.771l1.717,4.98a7.012,7.012,0,0,1,.3,1.2h.035a12.1,12.1,0,0,1,.334-1.213L-6.338-8.4h2.7ZM7.1,0H5.039l-.6-1.869H1.453L.861,0H-1.189L1.869-8.4H4.113ZM4.008-3.322l-.9-2.824A3.68,3.68,0,0,1,2.965-6.9H2.918a3.2,3.2,0,0,1-.146.732L1.857-3.322ZM14.594,0h-5V-8.4h1.893v6.867h3.111Zm7.575,0h-5V-8.4h1.893v6.867h3.111Z" transform="translate(37.5 76)" fill="#4d4d4d"/></g></svg>