<svg xmlns="http://www.w3.org/2000/svg" width="80" height="80" viewBox="0 0 80 80"><g transform="translate(2.45 -0.93)"><rect width="80" height="80" transform="translate(-2.45 0.93)" fill="#f0f0f0"/><rect width="30" height="40" transform="translate(22.55 20.93)" fill="#4d4d4d"/><path d="M-9.283-.275V-1.887a3.252,3.252,0,0,0,1.969.615,1.772,1.772,0,0,0,1.1-.3,1.012,1.012,0,0,0,.4-.85A.966.966,0,0,0-6.3-3.293a2.535,2.535,0,0,0-1.345-.3h-.779V-5.016h.721q1.641,0,1.641-1.09,0-1.025-1.26-1.025a2.872,2.872,0,0,0-1.641.545V-8.1A4.531,4.531,0,0,1-6.9-8.543a3.113,3.113,0,0,1,2.007.58,1.846,1.846,0,0,1,.718,1.506,1.958,1.958,0,0,1-1.67,2.063v.029a2.27,2.27,0,0,1,1.406.647A1.826,1.826,0,0,1-3.927-2.4,2.254,2.254,0,0,1-4.789-.539,3.724,3.724,0,0,1-7.168.146,4.6,4.6,0,0,1-9.283-.275ZM-.021-4.143a1.087,1.087,0,0,1-.762-.278.9.9,0,0,1-.3-.688A.871.871,0,0,1-.773-5.8a1.158,1.158,0,0,1,.782-.27A1.114,1.114,0,0,1,.785-5.8a.888.888,0,0,1,.3.688.884.884,0,0,1-.308.7A1.169,1.169,0,0,1-.021-4.143Zm0,4.289A1.08,1.08,0,0,1-.782-.135a.9.9,0,0,1-.3-.691.871.871,0,0,1,.313-.691,1.158,1.158,0,0,1,.782-.27,1.114,1.114,0,0,1,.776.272.888.888,0,0,1,.3.688.893.893,0,0,1-.308.7A1.161,1.161,0,0,1-.021.146ZM8.644-8.4v5.3H9.652v1.383H8.644V0H6.957V-1.723H3.294V-3.17Q3.781-3.715,4.3-4.362T5.31-5.7q.486-.686.905-1.38A13.833,13.833,0,0,0,6.927-8.4Zm-3.691,5.3h2V-6.041q-.205.381-.445.771t-.5.768q-.264.378-.533.732T4.953-3.105Z" transform="translate(37.55 75.93)" fill="#4d4d4d"/></g></svg>