<svg xmlns="http://www.w3.org/2000/svg" width="80" height="80" viewBox="0 0 80 80"><g transform="translate(2 -1)"><rect width="80" height="80" transform="translate(-2 1)" fill="#f0f0f0"/><rect width="40" height="40" transform="translate(18 16)" fill="none" stroke="#4d4d4d" stroke-linecap="square" stroke-linejoin="round" stroke-miterlimit="10" stroke-width="2" stroke-dasharray="1 4"/><path d="M-29.09.146a3.911,3.911,0,0,1-2.941-1.175A4.218,4.218,0,0,1-33.168-4.09a4.52,4.52,0,0,1,1.154-3.223,4,4,0,0,1,3.059-1.23,3.814,3.814,0,0,1,2.909,1.178,4.342,4.342,0,0,1,1.11,3.105,4.447,4.447,0,0,1-1.151,3.193A3.952,3.952,0,0,1-29.09.146Zm.082-7.061a1.905,1.905,0,0,0-1.582.747,3.115,3.115,0,0,0-.586,1.978,3.058,3.058,0,0,0,.586,1.975,1.877,1.877,0,0,0,1.535.727A1.9,1.9,0,0,0-27.5-2.194a3.024,3.024,0,0,0,.574-1.96,3.277,3.277,0,0,0-.557-2.033A1.815,1.815,0,0,0-29.008-6.914ZM-15.052,0h-2.174l-1.307-2.162q-.146-.246-.281-.439a2.441,2.441,0,0,0-.272-.331,1.083,1.083,0,0,0-.287-.211.729.729,0,0,0-.325-.073h-.51V0H-22.1V-8.4h3q3.059,0,3.059,2.285a2.366,2.366,0,0,1-.135.812,2.254,2.254,0,0,1-.381.671,2.414,2.414,0,0,1-.595.516,3.067,3.067,0,0,1-.776.34v.023a1.2,1.2,0,0,1,.363.19,2.6,2.6,0,0,1,.34.308,4.292,4.292,0,0,1,.313.378q.149.2.272.4Zm-5.156-6.984v2.338h.82A1.36,1.36,0,0,0-18.41-5a1.173,1.173,0,0,0,.375-.885q0-1.1-1.318-1.1ZM-10.934,0h-1.893V-8.4h1.893ZM-.688-.562A6.047,6.047,0,0,1-3.746.146a4.423,4.423,0,0,1-3.2-1.122A4.082,4.082,0,0,1-8.112-4.066,4.315,4.315,0,0,1-6.834-7.295a4.654,4.654,0,0,1,3.4-1.248,6.9,6.9,0,0,1,2.355.369V-6.4a4.682,4.682,0,0,0-2.379-.562A2.554,2.554,0,0,0-5.378-6.2a2.809,2.809,0,0,0-.741,2.042,2.817,2.817,0,0,0,.665,2,2.344,2.344,0,0,0,1.8.709A2.5,2.5,0,0,0-2.58-1.635V-3.275H-4.262V-4.787H-.688ZM4.28,0H2.387V-8.4H4.28ZM15.188,0h-1.91L9.815-5.279a7.634,7.634,0,0,1-.422-.7H9.37q.047.445.047,1.359V0H7.63V-8.4H9.669L13-3.287q.229.346.422.686h.023A8.984,8.984,0,0,1,13.4-3.756V-8.4h1.787ZM25.939,0H23.876l-.6-1.869H20.29L19.7,0H17.648l3.059-8.4h2.244ZM22.845-3.322l-.9-2.824A3.68,3.68,0,0,1,21.8-6.9h-.047a3.2,3.2,0,0,1-.146.732l-.914,2.848ZM33.432,0h-5V-8.4H30.32v6.867h3.111Z" transform="translate(38 76)" fill="#4d4d4d"/></g></svg>