<svg xmlns="http://www.w3.org/2000/svg" width="80" height="80" viewBox="0 0 80 80"><g transform="translate(2.5 -1)"><rect width="80" height="80" transform="translate(-2.5 1)" fill="#f0f0f0"/><rect width="40" height="40" transform="translate(17.5 14)" fill="none" stroke="#4d4d4d" stroke-linecap="square" stroke-linejoin="round" stroke-miterlimit="10" stroke-width="2" stroke-dasharray="1 4"/><path d="M6.572,12V3.813L9.829,7.07l1.414-1.414L7.036,1.449l.036-.036L5.657,0,5.622.036,5.586,0l-1,1H4.571v.015l-.4.4.035.035L0,5.656,1.415,7.07,4.571,3.914V12Z" transform="translate(42.121 62) rotate(180)" fill="#4d4d4d"/><path d="M-7.5-6.861h-2.965V-4.8h2.725v1.535h-2.725V0h-1.893V-8.4H-7.5ZM-2.782,0H-4.675V-8.4h1.893ZM5.572,0h-5V-8.4H2.46v6.867H5.572Zm7.575,0h-5V-8.4h1.893v6.867h3.111Z" transform="translate(37.5 76)" fill="#4d4d4d"/></g></svg>