<svg xmlns="http://www.w3.org/2000/svg" width="80" height="80" viewBox="0 0 80 80"><g transform="translate(-1 -1)"><rect width="80" height="80" transform="translate(1 1)" fill="#f0f0f0"/><path d="M-.359,0H-3.266L-5.641-6.281h-9.5L-17.375,0H-20.3L-11.7-22.406h2.719ZM-6.5-8.641l-3.516-9.547a9.141,9.141,0,0,1-.344-1.5h-.062a8.369,8.369,0,0,1-.359,1.5l-3.484,9.547ZM20.281,0H17.375L15-6.281H5.5L3.266,0H.344L8.938-22.406h2.719ZM14.141-8.641l-3.516-9.547a9.141,9.141,0,0,1-.344-1.5h-.062a8.369,8.369,0,0,1-.359,1.5L6.375-8.641Z" transform="translate(41 55)" fill="#4d4d4d"/></g></svg>