<svg xmlns="http://www.w3.org/2000/svg" width="80" height="80" viewBox="0 0 80 80"><g transform="translate(-86 -1)"><rect width="80" height="80" transform="translate(86 1)" fill="#f0f0f0"/><path d="M-27.817,0V-14.7h4.061q7.772,0,7.772,7.167a7.223,7.223,0,0,1-2.158,5.47A8.007,8.007,0,0,1-23.921,0Zm1.723-13.146V-1.559H-23.9a6.228,6.228,0,0,0,4.5-1.548A5.8,5.8,0,0,0-17.789-7.5q0-5.65-6.009-5.65ZM-6.139-4.83h-7.414a3.927,3.927,0,0,0,.943,2.707,3.252,3.252,0,0,0,2.481.954A5.159,5.159,0,0,0-6.867-2.338V-.759a6.094,6.094,0,0,1-3.661,1,4.438,4.438,0,0,1-3.5-1.43A5.855,5.855,0,0,1-15.3-5.209,5.742,5.742,0,0,1-13.907-9.2a4.455,4.455,0,0,1,3.45-1.543A3.948,3.948,0,0,1-7.267-9.413a5.558,5.558,0,0,1,1.128,3.7ZM-7.862-6.255a3.421,3.421,0,0,0-.7-2.266,2.393,2.393,0,0,0-1.923-.81,2.716,2.716,0,0,0-2.02.851,3.862,3.862,0,0,0-1.025,2.225ZM.332-14.068a2.24,2.24,0,0,0-1.118-.277q-1.764,0-1.764,2.225v1.62H-.088v1.436H-2.549V0H-4.221V-9.064H-6.015V-10.5h1.794v-1.7a3.537,3.537,0,0,1,.954-2.61,3.219,3.219,0,0,1,2.379-.959,3.3,3.3,0,0,1,1.22.185ZM7.972,0H6.291V-1.641H6.25A3.521,3.521,0,0,1,3.02.246,3.452,3.452,0,0,1,.564-.584a2.878,2.878,0,0,1-.887-2.2q0-2.943,3.466-3.425l3.148-.441q0-2.676-2.164-2.676A5.169,5.169,0,0,0,.7-8.039V-9.762a6.507,6.507,0,0,1,3.568-.984q3.7,0,3.7,3.917ZM6.291-5.312l-2.533.349a4.112,4.112,0,0,0-1.764.579A1.671,1.671,0,0,0,1.4-2.912a1.6,1.6,0,0,0,.549,1.256,2.12,2.12,0,0,0,1.461.487,2.7,2.7,0,0,0,2.066-.877,3.132,3.132,0,0,0,.815-2.22ZM18.371,0H16.689V-1.661h-.041A3.453,3.453,0,0,1,13.408.246q-3.753,0-3.753-4.471V-10.5h1.671v6.009q0,3.322,2.543,3.322a2.573,2.573,0,0,0,2.025-.907,3.472,3.472,0,0,0,.795-2.374V-10.5h1.682Zm3.816,0H20.505V-15.545h1.682ZM29.2-.1a3.242,3.242,0,0,1-1.569.328q-2.758,0-2.758-3.076V-9.064h-1.8V-10.5h1.8v-2.563l1.682-.543V-10.5H29.2v1.436H26.556v5.917a2.453,2.453,0,0,0,.359,1.507,1.432,1.432,0,0,0,1.189.451,1.768,1.768,0,0,0,1.1-.349Z" transform="translate(126 48.771)" fill="#4d4d4d"/></g></svg>