<svg xmlns="http://www.w3.org/2000/svg" width="80" height="80" viewBox="0 0 80 80"><g transform="translate(-0.682 -1)"><rect width="80" height="80" transform="translate(0.682 1)" fill="#f0f0f0"/><path d="M-15.993-1.488-26.071-6.551v-.691l10.078-5.648v1.758l-7.523,4.172v.047l7.523,3.68ZM-2.093,0H-4.015V-2.039h-.047A4.437,4.437,0,0,1-8.187.281,4.482,4.482,0,0,1-11.8-1.33a6.61,6.61,0,0,1-1.354-4.389,7.191,7.191,0,0,1,1.5-4.77,4.947,4.947,0,0,1,4-1.793,3.847,3.847,0,0,1,3.6,1.945h.047v-7.43h1.922ZM-4.015-5.426V-7.2a3.433,3.433,0,0,0-.961-2.461,3.223,3.223,0,0,0-2.437-1.008,3.319,3.319,0,0,0-2.766,1.289,5.649,5.649,0,0,0-1.008,3.563,5.08,5.08,0,0,0,.967,3.275,3.16,3.16,0,0,0,2.6,1.2A3.282,3.282,0,0,0-5.017-2.5,4.322,4.322,0,0,0-4.015-5.426Zm5.357-9.621A1.218,1.218,0,0,1,.463-15.4,1.187,1.187,0,0,1,.1-16.289a1.206,1.206,0,0,1,.363-.9,1.207,1.207,0,0,1,.879-.357,1.241,1.241,0,0,1,.9.357,1.2,1.2,0,0,1,.369.9,1.188,1.188,0,0,1-.369.879A1.231,1.231,0,0,1,1.342-15.047ZM2.279,0H.357V-12H2.279ZM14.164-12,9.382,0H7.5L2.949-12H5.058L8.1-3.281a7.826,7.826,0,0,1,.422,1.676h.047a7.924,7.924,0,0,1,.375-1.629L12.136-12ZM26.106-6.551,16.028-1.488V-3.234l7.547-3.656v-.07l-7.547-4.172v-1.758L26.106-7.242Z" transform="translate(40.682 51)" fill="#4d4d4d"/></g></svg>