<svg xmlns="http://www.w3.org/2000/svg" width="80" height="80" viewBox="0 0 80 80"><g transform="translate(-86 -1)"><rect width="80" height="80" transform="translate(86 1)" fill="#f0f0f0"/><g transform="translate(130.509 -26.239)"><path d="M7.008,53.538a26.332,26.332,0,0,0-.36-4.3h-21.4v8.542H-2.5a10.551,10.551,0,0,1-4.546,6.781v5.682H.265C4.546,66.285,7.008,60.451,7.008,53.538Z" transform="translate(10.728 8.94)" fill="#4285f4"/><path d="M-5.179,71.92A21.65,21.65,0,0,0,9.84,66.408L2.529,60.726a13.711,13.711,0,0,1-7.709,2.2,13.574,13.574,0,0,1-12.747-9.394h-7.538v5.852A22.694,22.694,0,0,0-5.179,71.92Z" transform="translate(1.153 12.775)" fill="#34a853"/><path d="M-16.773,60.386a13.188,13.188,0,0,1-.72-4.337,13.7,13.7,0,0,1,.72-4.337V45.859h-7.538a22.464,22.464,0,0,0-2.443,10.19,22.464,22.464,0,0,0,2.443,10.19Z" transform="translate(0 5.918)" fill="#fbbc05"/><path d="M-5.179,48.235a12.331,12.331,0,0,1,8.712,3.409l6.477-6.477a21.73,21.73,0,0,0-15.19-5.928A22.694,22.694,0,0,0-25.464,51.777l7.538,5.852A13.574,13.574,0,0,1-5.179,48.235Z" transform="translate(1.153 0)" fill="#ea4335"/></g><path d="M-16.351-6.861h-2.965V-4.8h2.725v1.535h-2.725V0h-1.893V-8.4h4.857ZM-9.977.146a3.911,3.911,0,0,1-2.941-1.175A4.218,4.218,0,0,1-14.055-4.09,4.52,4.52,0,0,1-12.9-7.312a4,4,0,0,1,3.059-1.23A3.814,3.814,0,0,1-6.933-7.365,4.342,4.342,0,0,1-5.823-4.26,4.447,4.447,0,0,1-6.974-1.066,3.952,3.952,0,0,1-9.977.146ZM-9.9-6.914a1.905,1.905,0,0,0-1.582.747,3.115,3.115,0,0,0-.586,1.978,3.058,3.058,0,0,0,.586,1.975,1.877,1.877,0,0,0,1.535.727,1.9,1.9,0,0,0,1.553-.706,3.024,3.024,0,0,0,.574-1.96,3.277,3.277,0,0,0-.557-2.033A1.815,1.815,0,0,0-9.9-6.914ZM4.57,0H2.66L-.8-5.279a7.634,7.634,0,0,1-.422-.7h-.023q.047.445.047,1.359V0H-2.988V-8.4H-.949L2.385-3.287q.229.346.422.686H2.83a8.984,8.984,0,0,1-.047-1.154V-8.4H4.57Zm9.262-6.861h-2.4V0h-1.9V-6.861H7.153V-8.4h6.68ZM16.017-.322V-2.2a3.6,3.6,0,0,0,1.107.642,3.56,3.56,0,0,0,1.207.214,2.677,2.677,0,0,0,.624-.064,1.462,1.462,0,0,0,.445-.179.779.779,0,0,0,.267-.27.672.672,0,0,0,.088-.337.728.728,0,0,0-.141-.439,1.513,1.513,0,0,0-.384-.357,4.01,4.01,0,0,0-.577-.316q-.334-.152-.721-.311a3.678,3.678,0,0,1-1.468-1,2.187,2.187,0,0,1-.483-1.43,2.277,2.277,0,0,1,.264-1.128,2.239,2.239,0,0,1,.718-.776A3.218,3.218,0,0,1,18.015-8.4a5.4,5.4,0,0,1,1.266-.144,7.612,7.612,0,0,1,1.163.079,4.574,4.574,0,0,1,.935.243v1.752a2.826,2.826,0,0,0-.46-.258,3.644,3.644,0,0,0-.513-.185,3.911,3.911,0,0,0-.524-.108,3.711,3.711,0,0,0-.5-.035,2.582,2.582,0,0,0-.586.062,1.5,1.5,0,0,0-.445.173.86.86,0,0,0-.281.267.632.632,0,0,0-.1.349.666.666,0,0,0,.111.378,1.277,1.277,0,0,0,.316.316,3.358,3.358,0,0,0,.5.293q.293.144.662.3a7.378,7.378,0,0,1,.905.448,3.218,3.218,0,0,1,.688.536,2.089,2.089,0,0,1,.439.683,2.412,2.412,0,0,1,.152.894,2.393,2.393,0,0,1-.267,1.181,2.164,2.164,0,0,1-.724.773,3.138,3.138,0,0,1-1.063.425,6.146,6.146,0,0,1-1.28.129A7.119,7.119,0,0,1,17.1.029,3.971,3.971,0,0,1,16.017-.322Z" transform="translate(126 76)" fill="#4d4d4d"/></g></svg>