<svg xmlns="http://www.w3.org/2000/svg" width="80" height="80" viewBox="0 0 80 80"><g transform="translate(-1 -1)"><rect width="80" height="80" transform="translate(1 1)" fill="#f0f0f0"/><rect width="8" height="8" transform="translate(17 17)" fill="#f0f0f0"/><rect width="8" height="8" transform="translate(17 33)" fill="#f0f0f0"/><rect width="8" height="8" transform="translate(17 49)" fill="#f0f0f0"/><rect width="8" height="8" transform="translate(25 25)" fill="#f0f0f0"/><rect width="8" height="8" transform="translate(25 41)" fill="#f0f0f0"/><rect width="8" height="8" transform="translate(25 57)" fill="#f0f0f0"/><rect width="8" height="8" transform="translate(33 17)" fill="#f0f0f0"/><rect width="8" height="8" transform="translate(33 33)" fill="#f0f0f0"/><rect width="8" height="8" transform="translate(33 49)" fill="#f0f0f0"/><rect width="8" height="8" transform="translate(41 25)" fill="#f0f0f0"/><rect width="8" height="8" transform="translate(41 41)" fill="#f0f0f0"/><rect width="8" height="8" transform="translate(41 57)" fill="#f0f0f0"/><rect width="8" height="8" transform="translate(49 17)" fill="#f0f0f0"/><rect width="8" height="8" transform="translate(49 33)" fill="#f0f0f0"/><rect width="8" height="8" transform="translate(49 49)" fill="#f0f0f0"/><rect width="8" height="8" transform="translate(57 25)" fill="#f0f0f0"/><rect width="8" height="8" transform="translate(57 41)" fill="#f0f0f0"/><rect width="8" height="8" transform="translate(57 57)" fill="#f0f0f0"/><rect width="8" height="8" transform="translate(25 17)" fill="#fff"/><rect width="8" height="8" transform="translate(25 33)" fill="#fff"/><rect width="8" height="8" transform="translate(25 49)" fill="#fff"/><rect width="8" height="8" transform="translate(17 25)" fill="#fff"/><rect width="8" height="8" transform="translate(17 41)" fill="#fff"/><rect width="8" height="8" transform="translate(17 57)" fill="#fff"/><rect width="8" height="8" transform="translate(41 17)" fill="#fff"/><rect width="8" height="8" transform="translate(41 33)" fill="#fff"/><rect width="8" height="8" transform="translate(41 49)" fill="#fff"/><rect width="8" height="8" transform="translate(33 25)" fill="#fff"/><rect width="8" height="8" transform="translate(33 41)" fill="#fff"/><rect width="8" height="8" transform="translate(33 57)" fill="#fff"/><rect width="8" height="8" transform="translate(57 17)" fill="#fff"/><rect width="8" height="8" transform="translate(57 33)" fill="#fff"/><rect width="8" height="8" transform="translate(57 49)" fill="#fff"/><rect width="8" height="8" transform="translate(49 25)" fill="#fff"/><rect width="8" height="8" transform="translate(49 41)" fill="#fff"/><rect width="8" height="8" transform="translate(49 57)" fill="#fff"/></g></svg>