<svg xmlns="http://www.w3.org/2000/svg" width="80" height="80" viewBox="0 0 80 80"><g transform="translate(-1 -1)"><rect width="80" height="80" transform="translate(1 1)" fill="#f0f0f0"/><path d="M-14.252-1.488-24.33-6.551v-.691l10.078-5.648v1.758l-7.523,4.172v.047l7.523,3.68ZM-.634,0H-2.555V-6.914q0-3.75-2.789-3.75A3.041,3.041,0,0,0-7.712-9.58,4.039,4.039,0,0,0-8.673-6.8V0h-1.922V-17.766h1.922v7.758h.047a4.365,4.365,0,0,1,3.938-2.273q4.055,0,4.055,4.887Zm8.72,0H6.165V-14.52a4.448,4.448,0,0,1-.65.51,10.6,10.6,0,0,1-.961.568q-.533.281-1.125.527a8.176,8.176,0,0,1-1.154.387v-1.945a11.173,11.173,0,0,0,1.342-.475q.709-.3,1.395-.668t1.295-.773A10.281,10.281,0,0,0,7.36-17.18h.727ZM24.365-6.551,14.287-1.488V-3.234l7.547-3.656v-.07l-7.547-4.172v-1.758L24.365-7.242Z" transform="translate(41 51)" fill="#4d4d4d"/></g></svg>