<svg xmlns="http://www.w3.org/2000/svg" width="80" height="80" viewBox="0 0 80 80"><g transform="translate(-1 -1)"><rect width="80" height="80" transform="translate(1 1)" fill="#f0f0f0"/><path d="M-14.252-1.488-24.33-6.551v-.691l10.078-5.648v1.758l-7.523,4.172v.047l7.523,3.68ZM-.634,0H-2.555V-6.914q0-3.75-2.789-3.75A3.041,3.041,0,0,0-7.712-9.58,4.039,4.039,0,0,0-8.673-6.8V0h-1.922V-17.766h1.922v7.758h.047a4.365,4.365,0,0,1,3.938-2.273q4.055,0,4.055,4.887Zm11.4-4.758a4.9,4.9,0,0,1-.428,2.068A4.567,4.567,0,0,1,9.135-1.1,5.571,5.571,0,0,1,7.266-.07a7.561,7.561,0,0,1-2.4.363,6.981,6.981,0,0,1-3.82-.914V-2.684A6.122,6.122,0,0,0,4.934-1.348,5.287,5.287,0,0,0,6.522-1.57a3.56,3.56,0,0,0,1.219-.645,2.863,2.863,0,0,0,.785-1.02A3.184,3.184,0,0,0,8.8-4.582q0-3.293-4.687-3.293H2.719V-9.5H4.044q4.148,0,4.148-3.094,0-2.859-3.164-2.859a5.388,5.388,0,0,0-3.34,1.2v-1.863a7.3,7.3,0,0,1,3.82-.961,5.87,5.87,0,0,1,1.91.293,4.377,4.377,0,0,1,1.465.82,3.635,3.635,0,0,1,.943,1.266,3.906,3.906,0,0,1,.334,1.629A4.1,4.1,0,0,1,6.809-8.812v.047a5.3,5.3,0,0,1,1.582.416,4.222,4.222,0,0,1,1.254.838A3.735,3.735,0,0,1,10.471-6.3,3.872,3.872,0,0,1,10.77-4.758Zm13.6-1.793L14.287-1.488V-3.234l7.547-3.656v-.07l-7.547-4.172v-1.758L24.365-7.242Z" transform="translate(41 51)" fill="#4d4d4d"/></g></svg>