<svg xmlns="http://www.w3.org/2000/svg" width="80" height="80" viewBox="0 0 80 80"><g transform="translate(-0.682 -1)"><rect width="80" height="80" transform="translate(0.682 1)" fill="#f0f0f0"/><path d="M-14.252-1.488-24.33-6.551v-.691l10.078-5.648v1.758l-7.523,4.172v.047l7.523,3.68ZM-.634,0H-2.555V-6.914q0-3.75-2.789-3.75A3.041,3.041,0,0,0-7.712-9.58,4.039,4.039,0,0,0-8.673-6.8V0h-1.922V-17.766h1.922v7.758h.047a4.365,4.365,0,0,1,3.938-2.273q4.055,0,4.055,4.887ZM8.649-12.4a3.475,3.475,0,0,0-.24-1.348,2.67,2.67,0,0,0-.656-.955,2.689,2.689,0,0,0-.979-.568,3.832,3.832,0,0,0-1.219-.187,4.031,4.031,0,0,0-1.1.152,5.355,5.355,0,0,0-1.049.422,6.452,6.452,0,0,0-.984.645,7.111,7.111,0,0,0-.885.832v-2.062a5.746,5.746,0,0,1,1.811-1.2,6.375,6.375,0,0,1,2.443-.416,5.9,5.9,0,0,1,1.91.3,4.38,4.38,0,0,1,1.523.873A4.036,4.036,0,0,1,10.237-14.5a4.782,4.782,0,0,1,.369,1.934,6.63,6.63,0,0,1-.229,1.8,5.581,5.581,0,0,1-.691,1.523A7.351,7.351,0,0,1,8.52-7.863,16.517,16.517,0,0,1,6.868-6.527q-1.184.844-1.951,1.441A8.625,8.625,0,0,0,3.7-3.967a3.248,3.248,0,0,0-.633,1.043,3.646,3.646,0,0,0-.182,1.2h8.367V0H.88V-.832a6.934,6.934,0,0,1,.234-1.9,4.93,4.93,0,0,1,.773-1.559A8.65,8.65,0,0,1,3.3-5.766Q4.173-6.5,5.438-7.43A13.521,13.521,0,0,0,6.967-8.684a6.519,6.519,0,0,0,.99-1.2,4.293,4.293,0,0,0,.533-1.213A5.23,5.23,0,0,0,8.649-12.4ZM24.365-6.551,14.287-1.488V-3.234l7.547-3.656v-.07l-7.547-4.172v-1.758L24.365-7.242Z" transform="translate(40.682 51)" fill="#4d4d4d"/></g></svg>