<svg xmlns="http://www.w3.org/2000/svg" width="80" height="80" viewBox="0 0 80 80"><g transform="translate(-0.682 -1)"><rect width="80" height="80" transform="translate(0.682 1)" fill="#f0f0f0"/><path d="M-8.767-1.488-18.845-6.551v-.691l10.078-5.648v1.758L-16.29-6.961v.047l7.523,3.68Zm5.626-.246h-.047V5.52H-5.109V-12h1.922v2.109h.047a4.545,4.545,0,0,1,4.148-2.391A4.394,4.394,0,0,1,4.629-10.67a6.674,6.674,0,0,1,1.3,4.318A7.438,7.438,0,0,1,4.465-1.529,4.877,4.877,0,0,1,.457.281,4.015,4.015,0,0,1-3.141-1.734Zm-.047-4.84V-4.9a3.568,3.568,0,0,0,.967,2.525A3.21,3.21,0,0,0,.234-1.336,3.217,3.217,0,0,0,2.971-2.672a6.129,6.129,0,0,0,.99-3.715,4.838,4.838,0,0,0-.926-3.141A3.064,3.064,0,0,0,.527-10.664,3.405,3.405,0,0,0-2.168-9.5,4.281,4.281,0,0,0-3.188-6.574Zm22.068.023L8.8-1.488V-3.234l7.547-3.656v-.07L8.8-11.133v-1.758L18.88-7.242Z" transform="translate(40.682 51)" fill="#4d4d4d"/></g></svg>