<svg xmlns="http://www.w3.org/2000/svg" width="80" height="80" viewBox="0 0 80 80"><g transform="translate(-1 -1)"><rect width="80" height="80" transform="translate(1 1)" fill="#f0f0f0"/><path d="M-7.226,0H-9.133l-1.559-4.122h-6.234L-18.392,0H-20.31l5.64-14.7h1.784Zm-4.03-5.67-2.307-6.265a6,6,0,0,1-.226-.984h-.041a5.492,5.492,0,0,1-.236.984L-16.352-5.67ZM1.942,0H.261V-1.661H.22A3.453,3.453,0,0,1-3.02.246q-3.753,0-3.753-4.471V-10.5H-5.1v6.009q0,3.322,2.543,3.322A2.573,2.573,0,0,0-.534-2.076,3.472,3.472,0,0,0,.261-4.45V-10.5H1.942Zm7-.1A3.242,3.242,0,0,1,7.378.226Q4.62.226,4.62-2.851V-9.064h-1.8V-10.5h1.8v-2.563L6.3-13.607V-10.5H8.947v1.436H6.3v5.917a2.453,2.453,0,0,0,.359,1.507,1.432,1.432,0,0,0,1.189.451,1.768,1.768,0,0,0,1.1-.349Zm5.374.349A4.87,4.87,0,0,1,10.6-1.225a5.45,5.45,0,0,1-1.389-3.9,5.678,5.678,0,0,1,1.446-4.132,5.2,5.2,0,0,1,3.907-1.487A4.709,4.709,0,0,1,18.233-9.3a5.733,5.733,0,0,1,1.318,4.009,5.641,5.641,0,0,1-1.42,4.025A4.976,4.976,0,0,1,14.321.246Zm.123-9.577a3.2,3.2,0,0,0-2.563,1.1,4.527,4.527,0,0,0-.943,3.04,4.281,4.281,0,0,0,.954,2.943,3.241,3.241,0,0,0,2.553,1.077,3.074,3.074,0,0,0,2.507-1.056,4.583,4.583,0,0,0,.877-3,4.662,4.662,0,0,0-.877-3.035A3.061,3.061,0,0,0,14.444-9.331Z" transform="translate(41 50)" fill="#4d4d4d"/></g></svg>