<svg xmlns="http://www.w3.org/2000/svg" width="80" height="80" viewBox="0 0 80 80"><g transform="translate(-0.682 -1)"><rect width="80" height="80" transform="translate(0.682 1)" fill="#f0f0f0"/><path d="M2.048,0h-3.27L-3.894-7.066H-14.581L-17.095,0h-3.287l9.668-25.207h3.059ZM-4.86-9.721l-3.955-10.74A10.284,10.284,0,0,1-9.2-22.148h-.07a9.415,9.415,0,0,1-.4,1.688L-13.6-9.721ZM18.255,0H15.372V-2.812H15.3A6.035,6.035,0,0,1,9.765.422,5.918,5.918,0,0,1,5.555-1,4.933,4.933,0,0,1,4.034-4.781q0-5.045,5.941-5.871l5.4-.756Q15.372-16,11.663-16a8.861,8.861,0,0,0-5.871,2.215v-2.953a11.155,11.155,0,0,1,6.117-1.687q6.346,0,6.346,6.715ZM15.372-9.105l-4.342.6a7.049,7.049,0,0,0-3.023.993,2.864,2.864,0,0,0-1.02,2.522,2.747,2.747,0,0,0,.94,2.153,3.634,3.634,0,0,0,2.5.835,4.627,4.627,0,0,0,3.542-1.5,5.37,5.37,0,0,0,1.4-3.806Z" transform="translate(40.682 62)" fill="#4d4d4d"/></g></svg>