<svg xmlns="http://www.w3.org/2000/svg" width="80" height="80" viewBox="0 0 80 80"><g transform="translate(-1 -1)"><rect width="80" height="80" transform="translate(1 1)" fill="#f0f0f0"/><path d="M1.365,0H-.814L-2.6-4.711H-9.721L-11.4,0h-2.191l6.445-16.8H-5.1ZM-3.24-6.48l-2.637-7.16a6.856,6.856,0,0,1-.258-1.125h-.047a6.277,6.277,0,0,1-.27,1.125L-9.064-6.48ZM12.17,0H10.248V-1.875H10.2A4.024,4.024,0,0,1,6.51.281,3.945,3.945,0,0,1,3.7-.668a3.289,3.289,0,0,1-1.014-2.52q0-3.363,3.961-3.914l3.6-.5q0-3.059-2.473-3.059A5.907,5.907,0,0,0,3.861-9.187v-1.969a7.437,7.437,0,0,1,4.078-1.125q4.23,0,4.23,4.477ZM10.248-6.07l-2.895.4a4.7,4.7,0,0,0-2.016.662,1.91,1.91,0,0,0-.68,1.682,1.832,1.832,0,0,0,.627,1.436,2.423,2.423,0,0,0,1.67.557,3.085,3.085,0,0,0,2.361-1,3.58,3.58,0,0,0,.932-2.537Z" transform="translate(41 62)" fill="#4d4d4d"/></g></svg>