<svg xmlns="http://www.w3.org/2000/svg" width="80" height="80" viewBox="0 0 80 80"><g transform="translate(-1 -1)"><rect width="80" height="80" transform="translate(1 1)" fill="#f0f0f0"/><path d="M3.072,0h-4.9L-5.84-10.6H-21.872L-25.642,0h-4.931l14.5-37.811h4.588ZM-7.291-14.581l-5.933-16.11a15.426,15.426,0,0,1-.58-2.531h-.105a14.123,14.123,0,0,1-.606,2.531l-5.88,16.11ZM27.382,0H23.058V-4.219h-.105A9.053,9.053,0,0,1,14.647.633,8.876,8.876,0,0,1,8.332-1.5,7.4,7.4,0,0,1,6.051-7.172q0-7.567,8.912-8.807l8.095-1.134q0-6.882-5.563-6.882a13.292,13.292,0,0,0-8.807,3.322V-25.1a16.732,16.732,0,0,1,9.176-2.531q9.519,0,9.519,10.072ZM23.058-13.658l-6.513.9a10.574,10.574,0,0,0-4.535,1.49Q10.481-10.2,10.481-7.488a4.121,4.121,0,0,0,1.411,3.23,5.451,5.451,0,0,0,3.757,1.252A6.941,6.941,0,0,0,20.962-5.26a8.055,8.055,0,0,0,2.1-5.708Z" transform="translate(41 63)" fill="#4d4d4d"/></g></svg>