<svg xmlns="http://www.w3.org/2000/svg" width="80" height="80" viewBox="0 0 80 80"><defs><style>.a{fill:#f0f0f0;}.b{fill:#fff;}.c{fill:#4d4d4d;fill-rule:evenodd;}</style></defs><g transform="translate(-1 9)"><rect class="a" width="80" height="80" transform="translate(1 -9)"/><circle class="b" cx="17" cy="17" r="17" transform="translate(24 14)"/><path class="c" d="M22.775,10.5A.778.778,0,0,0,22,9.722H3.655L8.55,4.829a.779.779,0,0,0-1.1-1.1L1.228,9.949a.778.778,0,0,0,0,1.1l6.221,6.221a.779.779,0,0,0,1.1-1.1L3.655,11.277H22A.778.778,0,0,0,22.775,10.5Z" transform="translate(52.775 41.499) rotate(180)"/></g></svg>