<svg xmlns="http://www.w3.org/2000/svg" width="80" height="80" viewBox="0 0 80 80"><g transform="translate(2 -1)"><rect width="80" height="80" transform="translate(-2 1)" fill="#f0f0f0"/><rect width="40" height="40" transform="translate(18 21)" fill="#d9d9d9"/><path d="M-14.151,0h-1.891l-.548-1.713h-2.739L-19.871,0h-1.88l2.8-7.7h2.057Zm-2.836-3.045-.827-2.589a3.374,3.374,0,0,1-.129-.693h-.043a2.938,2.938,0,0,1-.134.671l-.838,2.61ZM-7.5-.274a5.079,5.079,0,0,1-2.2.408A3.712,3.712,0,0,1-12.494-.908a3.809,3.809,0,0,1-1.015-2.777,4.069,4.069,0,0,1,1.141-3A3.992,3.992,0,0,1-9.406-7.831a5.54,5.54,0,0,1,1.9.285v1.67a3.369,3.369,0,0,0-1.762-.462,2.337,2.337,0,0,0-1.751.682,2.531,2.531,0,0,0-.666,1.848,2.483,2.483,0,0,0,.628,1.781,2.22,2.22,0,0,0,1.692.663A3.609,3.609,0,0,0-7.5-1.858Zm6.867,0a5.079,5.079,0,0,1-2.2.408A3.712,3.712,0,0,1-5.627-.908,3.809,3.809,0,0,1-6.643-3.685a4.069,4.069,0,0,1,1.141-3A3.992,3.992,0,0,1-2.539-7.831a5.54,5.54,0,0,1,1.9.285v1.67A3.369,3.369,0,0,0-2.4-6.338a2.337,2.337,0,0,0-1.751.682,2.531,2.531,0,0,0-.666,1.848,2.483,2.483,0,0,0,.628,1.781A2.22,2.22,0,0,0-2.5-1.364,3.609,3.609,0,0,0-.638-1.858ZM5.654,0H1.035V-7.7H5.477V-6.29H2.77v1.713H5.289v1.407H2.77v1.762H5.654Zm8.494,0H12.4L9.223-4.839a7,7,0,0,1-.387-.639H8.815q.043.408.043,1.246V0H7.22V-7.7H9.089l3.056,4.689q.209.317.387.628h.021a8.235,8.235,0,0,1-.043-1.058V-7.7h1.638Zm7.5-6.29h-2.2V0h-1.74V-6.29H15.526V-7.7h6.123Z" transform="translate(38 77)" fill="#4d4d4d"/><path d="M4.008-14.4a.968.968,0,0,0-.3-.708.968.968,0,0,0-.708-.3H-9a.968.968,0,0,0-.708.3.968.968,0,0,0-.3.708.968.968,0,0,0,.3.708.968.968,0,0,0,.708.3h4.992V-2.4a.968.968,0,0,0,.3.708.968.968,0,0,0,.708.3.968.968,0,0,0,.708-.3.968.968,0,0,0,.3-.708V-13.392H3a.968.968,0,0,0,.708-.3A.968.968,0,0,0,4.008-14.4ZM9-9.408H3a.968.968,0,0,0-.708.3.968.968,0,0,0-.3.708.968.968,0,0,0,.3.708.968.968,0,0,0,.708.3H4.992V-2.4a.968.968,0,0,0,.3.708.968.968,0,0,0,.708.3.968.968,0,0,0,.708-.3.968.968,0,0,0,.3-.708V-7.392H9a.968.968,0,0,0,.708-.3.968.968,0,0,0,.3-.708.968.968,0,0,0-.3-.708A.968.968,0,0,0,9-9.408Z" transform="translate(38 49)" fill="#1356f5"/></g></svg>