<svg xmlns="http://www.w3.org/2000/svg" width="80" height="80" viewBox="0 0 80 80"><g transform="translate(2 -1)"><rect width="80" height="80" transform="translate(-2 1)" fill="#f0f0f0"/><rect width="40" height="40" transform="translate(18 21)" fill="#d9d9d9"/><path d="M-33.7-6.29h-2.718V-4.4h2.5v1.407h-2.5V0h-1.735V-7.7H-33.7ZM-28.843.134a3.585,3.585,0,0,1-2.7-1.077,3.866,3.866,0,0,1-1.042-2.806A4.143,4.143,0,0,1-31.523-6.7a3.663,3.663,0,0,1,2.8-1.128,3.5,3.5,0,0,1,2.667,1.08A3.98,3.98,0,0,1-25.035-3.9,4.077,4.077,0,0,1-26.09-.978,3.622,3.622,0,0,1-28.843.134Zm.075-6.472a1.746,1.746,0,0,0-1.45.685,2.855,2.855,0,0,0-.537,1.813,2.8,2.8,0,0,0,.537,1.81,1.721,1.721,0,0,0,1.407.666,1.738,1.738,0,0,0,1.423-.647,2.772,2.772,0,0,0,.526-1.8,3,3,0,0,0-.51-1.864A1.664,1.664,0,0,0-28.768-6.338ZM-16.965,0h-1.993l-1.2-1.982q-.134-.226-.258-.4a2.238,2.238,0,0,0-.25-.3.993.993,0,0,0-.263-.193.668.668,0,0,0-.3-.067h-.467V0h-1.735V-7.7h2.75q2.8,0,2.8,2.095A2.169,2.169,0,0,1-18-4.864a2.067,2.067,0,0,1-.349.615,2.213,2.213,0,0,1-.545.473,2.812,2.812,0,0,1-.712.312v.021a1.1,1.1,0,0,1,.333.175,2.385,2.385,0,0,1,.312.282,3.934,3.934,0,0,1,.287.346q.137.185.25.363Zm-4.727-6.4v2.143h.752a1.247,1.247,0,0,0,.9-.322,1.075,1.075,0,0,0,.344-.811q0-1.01-1.208-1.01ZM-11.3,0h-4.619V-7.7h4.442V-6.29h-2.707v1.713h2.519v1.407h-2.519v1.762H-11.3Zm7.887-.516a5.543,5.543,0,0,1-2.8.65A4.055,4.055,0,0,1-9.143-.894a3.742,3.742,0,0,1-1.072-2.833A3.955,3.955,0,0,1-9.043-6.687,4.266,4.266,0,0,1-5.928-7.831a6.328,6.328,0,0,1,2.159.338v1.627A4.291,4.291,0,0,0-5.95-6.381a2.341,2.341,0,0,0-1.759.7,2.575,2.575,0,0,0-.679,1.872,2.583,2.583,0,0,0,.61,1.837,2.149,2.149,0,0,0,1.646.65A2.291,2.291,0,0,0-5.144-1.5V-3H-6.686V-4.388h3.276ZM4.881,0H2.888L1.69-1.982q-.134-.226-.258-.4a2.238,2.238,0,0,0-.25-.3A.993.993,0,0,0,.92-2.882a.668.668,0,0,0-.3-.067H.154V0H-1.581V-7.7h2.75q2.8,0,2.8,2.095a2.169,2.169,0,0,1-.124.744,2.067,2.067,0,0,1-.349.615,2.213,2.213,0,0,1-.545.473,2.812,2.812,0,0,1-.712.312v.021a1.1,1.1,0,0,1,.333.175,2.385,2.385,0,0,1,.312.282,3.934,3.934,0,0,1,.287.346q.137.185.25.363ZM.154-6.4v2.143H.906a1.247,1.247,0,0,0,.9-.322,1.075,1.075,0,0,0,.344-.811Q2.147-6.4.938-6.4ZM9.078.134a3.585,3.585,0,0,1-2.7-1.077A3.866,3.866,0,0,1,5.34-3.749,4.143,4.143,0,0,1,6.4-6.7,3.663,3.663,0,0,1,9.2-7.831a3.5,3.5,0,0,1,2.667,1.08A3.98,3.98,0,0,1,12.886-3.9,4.077,4.077,0,0,1,11.831-.978,3.622,3.622,0,0,1,9.078.134Zm.075-6.472a1.746,1.746,0,0,0-1.45.685A2.855,2.855,0,0,0,7.166-3.84,2.8,2.8,0,0,0,7.7-2.03a1.721,1.721,0,0,0,1.407.666,1.738,1.738,0,0,0,1.423-.647,2.772,2.772,0,0,0,.526-1.8,3,3,0,0,0-.51-1.864A1.664,1.664,0,0,0,9.153-6.338Zm11.62,3q0,3.47-3.233,3.47Q14.4.134,14.4-3.255V-7.7h1.74v4.469q0,1.869,1.461,1.869,1.434,0,1.434-1.8V-7.7h1.735ZM29.708,0H27.957L24.782-4.839a7,7,0,0,1-.387-.639h-.021q.043.408.043,1.246V0H22.779V-7.7h1.869L27.7-3.013q.209.317.387.628h.021a8.235,8.235,0,0,1-.043-1.058V-7.7h1.638ZM31.8,0V-7.7h2.729q4.1,0,4.1,3.754a3.8,3.8,0,0,1-1.12,2.874A4.129,4.129,0,0,1,34.528,0Zm1.735-6.29v4.882h.859a2.322,2.322,0,0,0,1.77-.677,2.568,2.568,0,0,0,.642-1.842,2.329,2.329,0,0,0-.636-1.732,2.427,2.427,0,0,0-1.786-.631Z" transform="translate(38 77)" fill="#4d4d4d"/><path d="M4.008-14.4a.968.968,0,0,0-.3-.708.968.968,0,0,0-.708-.3H-9a.968.968,0,0,0-.708.3.968.968,0,0,0-.3.708.968.968,0,0,0,.3.708.968.968,0,0,0,.708.3h4.992V-2.4a.968.968,0,0,0,.3.708.968.968,0,0,0,.708.3.968.968,0,0,0,.708-.3.968.968,0,0,0,.3-.708V-13.392H3a.968.968,0,0,0,.708-.3A.968.968,0,0,0,4.008-14.4ZM9-9.408H3a.968.968,0,0,0-.708.3.968.968,0,0,0-.3.708.968.968,0,0,0,.3.708.968.968,0,0,0,.708.3H4.992V-2.4a.968.968,0,0,0,.3.708.968.968,0,0,0,.708.3.968.968,0,0,0,.708-.3.968.968,0,0,0,.3-.708V-7.392H9a.968.968,0,0,0,.708-.3.968.968,0,0,0,.3-.708.968.968,0,0,0-.3-.708A.968.968,0,0,0,9-9.408Z" transform="translate(38 49)" fill="#4d4d4d"/></g></svg>