<svg xmlns="http://www.w3.org/2000/svg" width="80" height="80" viewBox="0 0 80 80"><g transform="translate(2 -1)"><rect width="80" height="80" transform="translate(-2 1)" fill="#f0f0f0"/><rect width="40" height="40" transform="translate(18 21)" fill="#4d4d4d"/><path d="M-12.357-2.262a2.237,2.237,0,0,1,.1-.677,2.051,2.051,0,0,1,.308-.6,2.264,2.264,0,0,1,.513-.5,2.754,2.754,0,0,1,.724-.36,2.6,2.6,0,0,1-.99-.812,1.854,1.854,0,0,1-.352-1.1,1.987,1.987,0,0,1,.2-.891,2.161,2.161,0,0,1,.56-.709,2.617,2.617,0,0,1,.853-.466,3.364,3.364,0,0,1,1.081-.167,3.429,3.429,0,0,1,1.1.167,2.679,2.679,0,0,1,.858.463,2.1,2.1,0,0,1,.56.7,1.961,1.961,0,0,1,.2.879,1.744,1.744,0,0,1-.375,1.087,2.792,2.792,0,0,1-1.037.806,2.827,2.827,0,0,1,.721.36,2.319,2.319,0,0,1,.521.5,2.052,2.052,0,0,1,.316.612,2.254,2.254,0,0,1,.105.688,2.2,2.2,0,0,1-.217.981,2.234,2.234,0,0,1-.612.762,2.889,2.889,0,0,1-.943.5,3.945,3.945,0,0,1-1.21.176,3.965,3.965,0,0,1-1.2-.173,2.88,2.88,0,0,1-.943-.489,2.269,2.269,0,0,1-.618-.759A2.139,2.139,0,0,1-12.357-2.262ZM-10.6-2.42a1.427,1.427,0,0,0,.088.516,1.055,1.055,0,0,0,.252.387,1.125,1.125,0,0,0,.39.243,1.429,1.429,0,0,0,.507.085,1.353,1.353,0,0,0,.5-.088,1.162,1.162,0,0,0,.39-.246,1.119,1.119,0,0,0,.258-.387,1.332,1.332,0,0,0,.094-.51A1.327,1.327,0,0,0-8.22-2.9a1.142,1.142,0,0,0-.252-.4,1.245,1.245,0,0,0-.39-.267,1.242,1.242,0,0,0-.507-.1,1.32,1.32,0,0,0-.492.091,1.126,1.126,0,0,0-.393.258,1.216,1.216,0,0,0-.258.4A1.3,1.3,0,0,0-10.6-2.42Zm.258-3.721a1.11,1.11,0,0,0,.079.419,1.081,1.081,0,0,0,.214.34.977.977,0,0,0,.319.226.949.949,0,0,0,.39.082.943.943,0,0,0,.393-.082,1,1,0,0,0,.319-.229,1.1,1.1,0,0,0,.217-.34,1.088,1.088,0,0,0,.079-.416,1.164,1.164,0,0,0-.076-.425,1.016,1.016,0,0,0-.214-.34,1.011,1.011,0,0,0-.322-.226.963.963,0,0,0-.4-.082.962.962,0,0,0-.407.085.982.982,0,0,0-.316.229,1.027,1.027,0,0,0-.205.34A1.189,1.189,0,0,0-10.347-6.141ZM-4.371-.217V-1.8a3.454,3.454,0,0,0,1.834.527A1.723,1.723,0,0,0-1.392-1.62a1.174,1.174,0,0,0,.413-.946q0-1.248-1.764-1.248a13.06,13.06,0,0,0-1.5.1L-3.926-8.4H.521v1.512H-2.514l-.117,1.682q.451-.035.779-.035a2.866,2.866,0,0,1,2.027.68A2.373,2.373,0,0,1,.908-2.736,2.7,2.7,0,0,1,.035-.659,3.354,3.354,0,0,1-2.332.146,5.065,5.065,0,0,1-4.371-.217Zm9.31-3.926a1.914,1.914,0,0,1-1.444-.568A2.111,2.111,0,0,1,2.947-6.24,2.32,2.32,0,0,1,3.53-7.9,2.042,2.042,0,0,1,5.085-8.52a1.9,1.9,0,0,1,1.456.557A2.193,2.193,0,0,1,7.066-6.4a2.289,2.289,0,0,1-.58,1.646A2.036,2.036,0,0,1,4.939-4.143ZM5.05-7.488q-.855,0-.855,1.189,0,1.125.814,1.125.832,0,.832-1.172Q5.841-7.488,5.05-7.488ZM11.074-8.4,5.6,0H4.171L9.632-8.4Zm-.9,8.52A1.914,1.914,0,0,1,8.727-.451,2.111,2.111,0,0,1,8.179-1.98a2.32,2.32,0,0,1,.583-1.664,2.042,2.042,0,0,1,1.556-.615,1.913,1.913,0,0,1,1.459.551A2.179,2.179,0,0,1,12.3-2.15,2.31,2.31,0,0,1,11.718-.5,2.026,2.026,0,0,1,10.171.117Zm.094-3.346q-.85,0-.85,1.189,0,1.125.826,1.125t.832-1.172a1.39,1.39,0,0,0-.223-.844A.7.7,0,0,0,10.265-3.229Z" transform="translate(38 76)" fill="#4d4d4d"/><g transform="translate(26 29)" opacity="0.5"><path d="M4,7V4H20V7" fill="none" stroke="#fff" stroke-linecap="round" stroke-linejoin="round" stroke-width="2"/><line x2="6" transform="translate(9 20)" fill="none" stroke="#fff" stroke-linecap="round" stroke-linejoin="round" stroke-width="2"/><line y2="16" transform="translate(12 4)" fill="none" stroke="#fff" stroke-linecap="round" stroke-linejoin="round" stroke-width="2"/></g></g></svg>