<svg xmlns="http://www.w3.org/2000/svg" width="80" height="80" viewBox="0 0 80 80"><g transform="translate(-0.682 -1)"><rect width="80" height="80" transform="translate(0.682 1)" fill="#f0f0f0"/><path d="M1.82,0H-1.086L-3.461-6.281h-9.5L-15.2,0h-2.922l8.594-22.406H-6.8ZM-4.32-8.641l-3.516-9.547a9.141,9.141,0,0,1-.344-1.5h-.062a8.369,8.369,0,0,1-.359,1.5l-3.484,9.547ZM16.227,0H13.664V-2.5H13.6A5.365,5.365,0,0,1,8.68.375,5.26,5.26,0,0,1,4.938-.891,4.385,4.385,0,0,1,3.586-4.25q0-4.484,5.281-5.219l4.8-.672q0-4.078-3.3-4.078A7.877,7.877,0,0,0,5.148-12.25v-2.625a9.915,9.915,0,0,1,5.438-1.5q5.641,0,5.641,5.969ZM13.664-8.094,9.8-7.562a6.266,6.266,0,0,0-2.687.883,2.546,2.546,0,0,0-.906,2.242,2.442,2.442,0,0,0,.836,1.914,3.23,3.23,0,0,0,2.227.742,4.113,4.113,0,0,0,3.148-1.336A4.773,4.773,0,0,0,13.664-6.5Z" transform="translate(40.682 55)" fill="#4d4d4d"/></g></svg>