<svg xmlns="http://www.w3.org/2000/svg" width="80" height="80" viewBox="0 0 80 80"><g transform="translate(-1 -1)"><rect width="80" height="80" transform="translate(1 1)" fill="#f0f0f0"/><path d="M-.5,0-3.062-6.969h-9.719L-15.344,0h-1.7l8.453-22.406h1.469L1.234,0ZM-7.375-18.75a8.415,8.415,0,0,1-.281-.922q-.109-.391-.234-.781h-.062a15.111,15.111,0,0,1-.516,1.672L-12.234-8.391h8.641ZM14.281,0V-3.2h-.062A6.27,6.27,0,0,1,11.992-.586,5.708,5.708,0,0,1,8.75.391,4.98,4.98,0,0,1,5.141-.891,4.3,4.3,0,0,1,3.813-4.125q0-4.188,5.547-5.062l4.922-.734q0-5.156-3.875-5.156a7.893,7.893,0,0,0-5.141,2.125v-1.734a7.836,7.836,0,0,1,2.414-1.2,9.213,9.213,0,0,1,2.867-.5,4.827,4.827,0,0,1,3.82,1.531,6.532,6.532,0,0,1,1.352,4.453V0ZM9.875-7.969A7.632,7.632,0,0,0,6.344-6.8,3.141,3.141,0,0,0,5.328-4.187a3.134,3.134,0,0,0,.945,2.344,3.612,3.612,0,0,0,2.633.922A4.941,4.941,0,0,0,12.75-2.633a6.369,6.369,0,0,0,1.531-4.414V-8.609Z" transform="translate(41 55)" fill="#4d4d4d"/></g></svg>