<svg xmlns="http://www.w3.org/2000/svg" width="80" height="80" viewBox="0 0 80 80"><g transform="translate(-1 -1)"><rect width="80" height="80" transform="translate(1 1)" fill="#f0f0f0"/><path d="M2.406,0h-5.5L-4.687-4.984h-7.969L-14.234,0H-19.7l8.156-22.406h5.984Zm-8.25-8.859L-8.25-16.391a9.814,9.814,0,0,1-.375-2.016H-8.75a8.546,8.546,0,0,1-.391,1.953l-2.437,7.594ZM18.031,0H13.359V-2.3H13.3A5.214,5.214,0,0,1,8.531.391,4.985,4.985,0,0,1,4.867-.93,4.731,4.731,0,0,1,3.531-4.453q0-4.656,5.516-5.375l4.344-.578q0-2.625-2.844-2.625a9.707,9.707,0,0,0-5.437,1.7v-3.719a12.233,12.233,0,0,1,2.82-.937,14.825,14.825,0,0,1,3.258-.406q6.844,0,6.844,6.828ZM13.391-6.5V-7.578L10.484-7.2q-2.406.313-2.406,2.172a1.8,1.8,0,0,0,.586,1.383,2.251,2.251,0,0,0,1.586.539,2.923,2.923,0,0,0,2.266-.961A3.471,3.471,0,0,0,13.391-6.5Z" transform="translate(41 55)" fill="#4d4d4d"/></g></svg>