<svg width="18" height="19" viewBox="0 0 18 19" fill="none" xmlns="http://www.w3.org/2000/svg">
<path d="M1 0.5C0.44772 0.5 0 0.94772 0 1.5V7.5C0 8.0523 0.44772 8.5 1 8.5H7C7.5523 8.5 8 8.0523 8 7.5V1.5C8 0.94772 7.5523 0.5 7 0.5H1ZM1 10.5C0.44772 10.5 0 10.9477 0 11.5V17.5C0 18.0523 0.44772 18.5 1 18.5H7C7.5523 18.5 8 18.0523 8 17.5V11.5C8 10.9477 7.5523 10.5 7 10.5H1ZM11 10.5C10.4477 10.5 10 10.9477 10 11.5V17.5C10 18.0523 10.4477 18.5 11 18.5H17C17.5523 18.5 18 18.0523 18 17.5V11.5C18 10.9477 17.5523 10.5 17 10.5H11ZM12 16.5V12.5H16V16.5H12ZM2 6.5V2.5H6V6.5H2ZM2 16.5V12.5H6V16.5H2ZM13 8.5V5.5H10V3.5H13V0.5H15V3.5H18V5.5H15V8.5H13Z" fill="#9599A0"/>
</svg>
