<svg xmlns="http://www.w3.org/2000/svg" width="1920" height="399.903" viewBox="0 0 1920 399.903"><defs><style>.a{fill:#ff006e;fill-rule:evenodd;}</style></defs><g transform="translate(0 -1354.362)"><path class="a" d="M1622.415,976.11c45.47-28.729,75.305-47.608,115.809-72.821,32.837-5.845,79.8-31.741,91.532-61.191l5.058,80.915c-20.229-11.8-36.412-21.749-36.412-21.749-121.372,47.2-175.988,74.846-175.988,74.846m-451.857,5.312c-15.106-1.354-54.537,34.518-75.859,32.871-33.388-2.579-89.763-21.747-118.84-41.975q122.071,47.068,202.285-30.343c49.532,51.123,81.086,74.194,83.443,73.329C1205.959,995.834,1170.558,981.422,1170.558,981.422Zm-386.113,66.5q34.924-13.31,91.029-5.058L807.2,1017.58q-58.157,7.584-58.156,7.586Zm-288.95-53.211Q372.51,1022.6,318.757,1038.376L503.812,976,555.8,988.474ZM1825.57,780.9l-108.333,45.011c-196.65,107.5-148.327,41.313-264.489,91.029l-2.588-.911,25.85,49.711L1388.115,894.2l-71.91-25.3c-239.373,59-343.888,50.572-343.888,50.572-54.83-26.436-96.12-28.3-121.1-25.225L805.938,953.1l3.651-47.483c-92.505,28.032-145.758,31.552-145.758,31.552L560.16,916.944q-134.015,68.267-134.015,68.27h-70.8l-172.622,84.153h1920c-40.6-41.2-82.732-94.256-131.406-149.4-13.161-14.912-39.394-10.871-52.3-26.426Z" transform="translate(-182.722 684.898)"/><g transform="translate(865.266 1412.197) rotate(-16)"><path class="a" d="M413.331,276.946a47.8,47.8,0,0,1,7.588.738,9.72,9.72,0,0,0-7.588-.738m10.458,3.072c-6.311-1.281-12.07,0-11.2,2.254-1.768-4.151-9.835-.685-13.908.494,2.586-2.9,9.38-5.226,16.026-3.873A31.908,31.908,0,0,0,423.789,280.017Zm-13.712-16.926a46.555,46.555,0,0,0-11.744-.262,17.7,17.7,0,0,1,8.742-2.3,71.719,71.719,0,0,0-15.605-10.088c-5.144-2.362-10.318-7.074-15.993-7.813,6.486,3.46,8.535,5.021,10.268,6.811,2.671,2.758,6.331,4.811,2.216,5.688,1.485,1.084,2.979,2.208,4.342,3.413,4.274-.64,8.99-.805,10.987-.119a22.128,22.128,0,0,0-7.888,3.384,14.286,14.286,0,0,1,1.2,1.852c.729,1.9-.144,4.241-2.392,6.155l11.5-5.687c.307,1.87-3.991,4.182-8.243,5.78,4.028.24,8.7-2.67,11.9-3.9,2.605-1.006.094,3.455-3.628,7.1,1.193-.665.539.345,2.165-1.2,4.562-4.321,9.88-.384,11.478,1.215-1.177-1.263-13.3,2.339-16.091,4.674,6.038-1.768,17.353-3.677,20.671-1.48C420.028,270.967,415.37,266.978,410.077,263.091ZM402.6,401.4l-1.7-.465a35.046,35.046,0,0,0,32.18,20.453A35.633,35.633,0,0,1,402.6,401.4Zm21.233-9.921-2.224.8-4.382,8.968a8.313,8.313,0,0,0-1.861,1.828l-30.991-8.458a9.088,9.088,0,0,0,3.386-4.145l7.285,1.753q.244,1.639.619,3.255a.3.3,0,0,0,.317.227l.93-.092q.095.388.2.774l-.728.311,3.181.868a35.089,35.089,0,0,1-1.408-5.761l1.331-.225A35.7,35.7,0,0,0,401.159,398l4.174,1.139a32.138,32.138,0,0,1-2.328-8.155l1.7-.286a30.387,30.387,0,0,0,2.8,9.035l1.784.487a28.988,28.988,0,0,1-3.244-9.748l16.539-2.792A10.709,10.709,0,0,0,423.832,391.477Zm-119.391,7.717a35.614,35.614,0,0,1-19.07-64.6,35.022,35.022,0,0,0,19.07,64.6Zm64.044-67.2-8.217-6.851c-.857-.649-2.379-.386-2.081,1.041l15.758,43.937q.833-.427,1.7-.93l-.081-.017c.875-3.444.367-8.273-1.125-15.687A154.477,154.477,0,0,1,368.485,331.994Zm-10.114-15.638,8.539,7.241q-.05-.294-.1-.59c-1.736-3.966-2.417-7.914,2.764-12.459,6.144-10.748,15.079-18.338,20.251-21.277,1.825.043,3.434-.117,2.712.9l-.246.574-.475.4a60.233,60.233,0,0,0-20.1,20.977l-.171.232-.216.19a8.361,8.361,0,0,0-2.694,3.458,42.1,42.1,0,0,1,11.432,7.054,21.42,21.42,0,0,0-3.594-5.329,65.434,65.434,0,0,0,21.893-8.667c-12.07,2.62-21.9,3.571-23.417,1.508a25.383,25.383,0,0,0,8.218-3.23c-.054-1.549-3.922-2.794,1.649-3.178,5.054-.349,10.151-1.919,9.507-2.545a19.945,19.945,0,0,1-7.588-.32c-2.084-.554-1.632-1.516,1.561-1.846,2.987-.309,4.7-.429,5.248-1.766-5.916.182-6.184-1-3.648-2.014,1.792-.368,11.515.27,19.571,1.721a122.342,122.342,0,0,0-14.431-3.572c.2-1.768,4.3-1.887,6.674-.523a20.219,20.219,0,0,0,9.736.658,38.2,38.2,0,0,1-8.345-2.722c-4.085-1.734-5.466-2.474-7.923-1.885,5.864-1.991,14.681-5.931,14.868-7.677-2.86,1.51-13.72,4.757-20.641,6.107-1.594-.949-5.323-1.54-7.634-2.964a50.841,50.841,0,0,0,8.422-11.827,44.662,44.662,0,0,1-12.145,12.045,31.9,31.9,0,0,0-4.633,2.925q-2.059,1.191-4.214,2.274c.314.247.619.512.889.766a28.767,28.767,0,0,0-4.693,6.572,8.705,8.705,0,0,1-3.81,2.9c2.931,2.682,2.572,2.479.123,5.277l-3.894,4.868C356.3,312.726,355.882,313.91,358.371,316.356Zm45.326,38.55,1.151-1.919,2.317,2c.122-.108.245-.215.368-.322a1.005,1.005,0,0,0,.941-.672q-.942-1.936-1.971-3.767l14.935-24.893q4.935.556,12.759-1.224,2.183-3.558-2.248-4.463a71.986,71.986,0,0,1-21.613-5.334l6.83-10.295.583-.643a30.848,30.848,0,0,0,7.538-6.624c5.065-6.113,7.882-15.131,3.034-22.189-3.261-4.748-8.9-9.926-15.221-14.794-9.751-8.553-23.4-16.162-28.985-18.436-12.663-5.153-17.1-1.436-19.6-.223a15.068,15.068,0,0,0-4.654,9.513c-.718-2.3.533-7.163,2.047-10.881-.49-.521-1.057-1.128-1.65-1.773a7.989,7.989,0,0,0-.546-4.88,28.475,28.475,0,0,0-1.805-9.812c-10.393-1.642-21.181,5.153-25.927,14.021a18.194,18.194,0,0,0-1.95,12.127,1.079,1.079,0,0,0,1.157.724l8.423-6.164,6.348-2.357-6.016,3.871-3.443,2.793,2.075,1.609,1.358.677,2.078,5.253q.19.867,1.966-.107a2.043,2.043,0,0,0,1.933.745,1.545,1.545,0,0,0,1.289,1.251l1.113-.141q1.078.014,1.377,1.947,1.522,2.128,5.619-1.417a35.366,35.366,0,0,0,1.472-5.135,36.134,36.134,0,0,1-.566,5.587,2.672,2.672,0,0,1,2.176.432,9.879,9.879,0,0,0-.216,8.807c1.128,1.945,3.129,10.644,3.722,12.115-.067,2.5-.483,3.437-2.247,6.183,1.421-1.153,2.569-2.117,3.071-2.609a71.651,71.651,0,0,1,5.8-8.817c-4.511-4.717-3.176-2.7-5.1-6.481,7.713,6.55,3.663,5.1,10.247-.343-3.2-3.212-5.194-4.9-6.378-7.433-1.441-3.082-1.838-7.4-.092-10.62-.53,5.3-.394,8.286,3.369,11.971,3.313,3.244,4.1,3.9,4.533,3.98.825.151.707-.161,4.732-1.709-2.353.515-15.021,19.044-15.3,20.788-1.45.978-5.3,3.737-8.653,5.817a4.128,4.128,0,0,0-.188.651l-4.838,5.189q-3.717-.773-5.683,4.481-1.145,2.816,2.456,1.528a2.577,2.577,0,0,1,2.7.083l2.4,2.242q.066.343.146.656l-9.19,10.913c.57.426,1.1.854,1.588,1.269-2.181-1.074-4.666-1-7.609,2.721L329.182,331.3q-.605-.444-1.227-.865a.294.294,0,0,0-.387.048l-.62.7q-.334-.22-.672-.434l.381-.853a.294.294,0,0,0-.115-.372q-1.435-.886-2.94-1.651a.294.294,0,0,0-.378.1l-.528.771q-.359-.177-.722-.347l.272-.894a.3.3,0,0,0-.161-.355q-1.535-.7-3.125-1.266a.294.294,0,0,0-.362.143l-.427.831q-.379-.13-.76-.254l.157-.921a.3.3,0,0,0-.2-.333q-1.611-.5-3.261-.859a.294.294,0,0,0-.341.188l-.319.877c-.261-.055-.523-.108-.785-.157l.04-.932a.294.294,0,0,0-.244-.3q-1.661-.292-3.344-.443a.294.294,0,0,0-.315.229l-.207.91q-.4-.032-.8-.057l-.077-.929a.294.294,0,0,0-.28-.271q-1.685-.082-3.373-.025a.294.294,0,0,0-.284.267l-.091.928q-.4.019-.8.046l-.193-.913a.294.294,0,0,0-.312-.234q-1.682.128-3.35.395a.294.294,0,0,0-.249.3l.026.934q-.393.068-.785.144l-.306-.882a.3.3,0,0,0-.339-.193q-1.653.337-3.274.812a.3.3,0,0,0-.209.329l.143.922q-.383.116-.763.24l-.415-.838a.294.294,0,0,0-.36-.149q-1.6.541-3.145,1.217a.3.3,0,0,0-.166.353l.257.9q-.366.163-.728.334l-.515-.777a.3.3,0,0,0-.376-.1q-1.517.738-2.967,1.6a.3.3,0,0,0-.121.371l.368.857q-.342.208-.68.424l-.608-.706a.294.294,0,0,0-.386-.055q-1.412.923-2.742,1.963a.3.3,0,0,0-.073.383l.472.8q-.312.25-.619.507l-.692-.625a.3.3,0,0,0-.39-.005q-1.284,1.094-2.474,2.293a.3.3,0,0,0-.024.389l.569.739q-.278.287-.55.579l-.765-.533a.3.3,0,0,0-.387.043c-.379.415-.752.836-1.114,1.267s-.713.87-1.056,1.316a.3.3,0,0,0,.024.389l.657.661c-.16.212-.319.426-.476.641l-.826-.433a.3.3,0,0,0-.379.091q-.974,1.378-1.832,2.832a.293.293,0,0,0,.072.383l.735.574q-.2.347-.393.7l-.874-.326a.3.3,0,0,0-.364.138q-.794,1.488-1.461,3.039a.294.294,0,0,0,.12.371l.8.477q-.154.37-.3.743l-.908-.214a.3.3,0,0,0-.344.183q-.6,1.577-1.066,3.2a.3.3,0,0,0,.166.352l.854.374q-.106.386-.2.775l-.927-.1a.3.3,0,0,0-.319.224q-.4,1.64-.657,3.308a.294.294,0,0,0,.209.328l.9.264q-.056.4-.1.793l-.933.019a.294.294,0,0,0-.288.262q-.188,1.676-.235,3.365a.294.294,0,0,0,.248.3l.922.15q-.007.4-.006.8l-.924.135a.3.3,0,0,0-.253.3q.024,1.687.189,3.368a.3.3,0,0,0,.284.267l.932.033q.042.4.092.793l-.9.249a.294.294,0,0,0-.214.326q.233,1.671.606,3.318a.3.3,0,0,0,.315.23l.928-.084q.093.389.193.776l-.86.36a.3.3,0,0,0-.171.35q.44,1.629,1.013,3.217a.294.294,0,0,0,.341.188l.911-.2q.141.375.29.746l-.809.466a.294.294,0,0,0-.126.368q.641,1.56,1.409,3.064a.294.294,0,0,0,.362.144l.88-.314q.186.354.381.705l-.745.564a.3.3,0,0,0-.078.382q.831,1.467,1.786,2.86a.294.294,0,0,0,.377.1l.834-.421q.229.328.466.651l-.668.653a.294.294,0,0,0-.03.389q1.011,1.351,2.134,2.612a.294.294,0,0,0,.386.048l.775-.522q.269.3.543.586l-.581.731a.294.294,0,0,0,.019.389q1.172,1.213,2.444,2.325a.294.294,0,0,0,.389,0l.7-.615q.151.131.3.259c.1.086.205.17.308.254l-.484.8a.294.294,0,0,0,.067.384q1.314,1.059,2.712,2.007a.294.294,0,0,0,.387-.049l.62-.7q.333.221.671.434l-.381.853a.294.294,0,0,0,.115.373q1.435.886,2.94,1.651a.3.3,0,0,0,.378-.1l.528-.771q.359.177.722.347l-.271.894a.294.294,0,0,0,.16.355q1.535.7,3.125,1.266a.3.3,0,0,0,.362-.143l.427-.831q.379.131.76.254l-.157.921a.3.3,0,0,0,.2.333q1.611.5,3.261.859a.294.294,0,0,0,.341-.188l.319-.877c.261.055.523.108.785.157l-.04.932a.294.294,0,0,0,.244.3q1.661.292,3.344.444a.294.294,0,0,0,.315-.229l.207-.91q.4.032.8.056l.077.929a.294.294,0,0,0,.28.271q1.685.082,3.373.025a.3.3,0,0,0,.284-.267l.091-.927q.4-.019.8-.046l.193.913a.3.3,0,0,0,.312.234q1.683-.129,3.351-.395a.3.3,0,0,0,.249-.3l-.026-.935q.393-.067.785-.143l.306.883a.294.294,0,0,0,.338.193q1.654-.337,3.274-.812a.3.3,0,0,0,.209-.329l-.143-.922q.383-.116.763-.24l.414.838a.3.3,0,0,0,.36.149q1.6-.542,3.145-1.217a.294.294,0,0,0,.166-.353l-.257-.9c.244-.109.487-.22.728-.334l.515.777a.3.3,0,0,0,.376.1q1.517-.738,2.968-1.6a.3.3,0,0,0,.12-.371l-.368-.857q.342-.208.68-.424l.608.706a.3.3,0,0,0,.386.055q1.411-.923,2.742-1.963a.294.294,0,0,0,.073-.382l-.472-.8q.312-.25.62-.507l.692.625a.3.3,0,0,0,.39.005q1.284-1.094,2.474-2.293a.294.294,0,0,0,.024-.389l-.569-.739q.278-.287.55-.58l.764.533a.3.3,0,0,0,.388-.043c.379-.415.752-.837,1.114-1.267s.712-.87,1.056-1.316a.3.3,0,0,0-.025-.389l-.657-.661c.161-.212.32-.426.476-.642l.826.433a.294.294,0,0,0,.379-.091q.974-1.377,1.832-2.832a.294.294,0,0,0-.073-.383l-.735-.574q.2-.347.392-.7l.874.326a.3.3,0,0,0,.364-.138q.794-1.489,1.461-3.04a.3.3,0,0,0-.12-.371l-.8-.478q.154-.37.3-.742l.908.214a.3.3,0,0,0,.345-.182q.6-1.577,1.066-3.2a.3.3,0,0,0-.166-.353l-.855-.373q.106-.386.2-.775l.928.1a.3.3,0,0,0,.319-.224c.264-1.093.485-2.2.657-3.308a.294.294,0,0,0-.209-.329l-.9-.264c.038-.264.072-.528.1-.793l.933-.018a.3.3,0,0,0,.288-.263q.187-1.677.235-3.365a.294.294,0,0,0-.248-.3l-.922-.149q.007-.4.006-.8l.924-.135a.294.294,0,0,0,.253-.3q-.024-1.687-.189-3.368a.3.3,0,0,0-.284-.267l-.932-.032q-.042-.4-.092-.793l.9-.25a.294.294,0,0,0,.214-.326q-.233-1.671-.606-3.319a.294.294,0,0,0-.315-.23l-.928.084q-.092-.388-.193-.775l.861-.36a.3.3,0,0,0,.171-.35q-.44-1.629-1.013-3.217a.294.294,0,0,0-.342-.188l-.911.2c-.094-.25-.191-.5-.289-.746l.809-.466a.294.294,0,0,0,.126-.369q-.64-1.56-1.409-3.064a.294.294,0,0,0-.362-.144l-.881.313q-.186-.354-.381-.7l.745-.564a.294.294,0,0,0,.079-.382q-.833-1.467-1.786-2.86a.294.294,0,0,0-.377-.1l-.835.421q-.23-.328-.465-.651l.668-.653a.3.3,0,0,0,.03-.389q-1.011-1.35-2.134-2.612a.294.294,0,0,0-.386-.049l-.657.443-4.392,5.639a32.192,32.192,0,1,1-5.864-5.441l-1.056,1.362a30.42,30.42,0,1,0,5.835,5.473l-.13.167-.728.934a29.1,29.1,0,1,1-5.811-5.5l-8.033,10.357a15.952,15.952,0,1,0,5.37,6.024l-1.849,2.375a13.337,13.337,0,1,1-5.159-6.286l-4.653,6a5.753,5.753,0,1,0,2.026,8.708,1.984,1.984,0,0,1-2.58-1.045c.956-.025,2.206-.682,3.708-2.362l29.813-38.283a12.452,12.452,0,0,1,7.109-4.854c4.429,7.511,16.83,40.643,20.982,51.35a18.528,18.528,0,0,1-7.989.682,12.46,12.46,0,0,0-3.354.035c-3.385,2.344-.172,5.023,2.205,6.4,4.6,2.653,7.557,3.182,13.286,3.738a27.386,27.386,0,0,1,7.76,1.494c.247.082.5.17.77.261a12.957,12.957,0,0,1,1.217.9l-1.7-.175a2.927,2.927,0,1,1-4.993,2.732v-.006l0-.006,0-.006h0l-.006-.024,0-.006v-.006l0-.006v-.006l0-.012,0-.006-.007-.031v-.012l-.007-.031v-.031l-.009-.05v-.018l-.01-.063h0c0-.025-.007-.05-.01-.075l-.006-.053-.005-.053h0l0-.053h0l0-.053h0l0-.053h0v-.053h0v-.052h0v-.052h0v-.052h0l0-.052h0l0-.051h0l0-.051h0l.005-.051h0l.006-.051h0l.007-.051h0l.008-.051h0l.008-.05h0l.01-.05h0l.01-.049h0l.011-.049h0l.012-.049h0l.013-.049h0l.013-.048h0l.014-.048h0l.015-.047h0l.016-.047h0l.017-.046h0l.018-.047h0l.019-.046h0l.019-.045h0l.02-.045h0l.021-.045h0l.021-.045h0l.022-.044h0l.023-.044h0l.024-.043h0l.024-.043h0l.025-.042h0l.026-.042h0l.026-.041h0l.027-.041h0l.028-.04h0l.028-.04h0l.029-.039h0l.03-.039h0l.031-.039h0l.031-.038h0l.032-.037h0l.032-.037h0l.033-.037.034-.036h0l.034-.035h0l.035-.034.027-.026.009-.009h0l.036-.033h0l.036-.033h0l.008-.007.067-.058h0l.038-.031h0l.039-.03h0l.039-.03.041-.03h0l.082-.057h0l-.013,0a56.735,56.735,0,0,0-9.253-.852c-1.148,2.688.351,3.241,2.108,3.452q.018.329.06.662a9.048,9.048,0,0,0,10.11,7.842,9.171,9.171,0,0,0,1.412-.293l15.034,4.1q.081.228.166.455a.3.3,0,0,0,.343.185l.911-.208q.143.374.294.745l-.806.473a.294.294,0,0,0-.123.37q.653,1.555,1.435,3.052a.3.3,0,0,0,.363.141l.878-.32q.189.353.386.7l-.741.57a.294.294,0,0,0-.076.382q.845,1.46,1.811,2.845a.294.294,0,0,0,.378.094l.83-.427q.232.327.47.648l-.662.657a.294.294,0,0,0-.027.389q1.021,1.343,2.154,2.6a.294.294,0,0,0,.387.046l.77-.527q.271.294.547.582l-.574.734a.294.294,0,0,0,.022.389q1.181,1.2,2.46,2.309a.294.294,0,0,0,.39,0l.7-.619q.3.257.617.507l-.478.8a.294.294,0,0,0,.07.383q1.322,1.048,2.728,1.985a.3.3,0,0,0,.386-.052l.615-.7q.335.217.674.427l-.375.856a.3.3,0,0,0,.118.372q1.442.875,2.955,1.627a.294.294,0,0,0,.377-.1l.521-.774q.36.175.723.342l-.265.9a.294.294,0,0,0,.163.354q1.541.688,3.136,1.241a.294.294,0,0,0,.361-.146l.42-.833q.379.128.761.25l-.15.92a.294.294,0,0,0,.206.331q1.614.488,3.266.839a.3.3,0,0,0,.34-.19l.312-.879q.393.079.787.15l-.033.932a.294.294,0,0,0,.246.3q1.663.281,3.346.42a.294.294,0,0,0,.313-.231l.2-.911q.4.028.8.048l.084.928a.3.3,0,0,0,.282.269q1.686.069,3.373,0a.294.294,0,0,0,.282-.269l.084-.929q.4-.022.8-.052l.2.91a.294.294,0,0,0,.314.232c.56-.047,1.12-.1,1.678-.174s1.114-.155,1.669-.249a.294.294,0,0,0,.246-.3l-.033-.932q.393-.07.785-.148l.312.879a.294.294,0,0,0,.34.19q1.65-.349,3.268-.835a.294.294,0,0,0,.207-.331l-.149-.92q.382-.119.762-.245l.42.832a.294.294,0,0,0,.361.146q1.594-.554,3.136-1.24a.294.294,0,0,0,.164-.354l-.264-.895q.364-.167.725-.341l.521.773a.3.3,0,0,0,.377.1q1.51-.75,2.955-1.625a.294.294,0,0,0,.117-.372l-.374-.854q.34-.212.675-.431l.614.7a.3.3,0,0,0,.387.051q1.4-.934,2.728-1.983a.3.3,0,0,0,.07-.383l-.479-.8q.31-.252.615-.511l.7.62a.294.294,0,0,0,.39,0q1.276-1.1,2.457-2.311a.294.294,0,0,0,.022-.389l-.576-.736q.276-.289.546-.582l.771.528a.3.3,0,0,0,.387-.046q1.128-1.255,2.148-2.6a.3.3,0,0,0-.027-.389l-.662-.657q.238-.32.471-.645l.829.426a.294.294,0,0,0,.378-.094q.964-1.385,1.809-2.848a.3.3,0,0,0-.076-.383l-.739-.568q.2-.348.385-.7l.876.319a.294.294,0,0,0,.363-.14q.783-1.494,1.44-3.05a.293.293,0,0,0-.123-.37l-.8-.471q.151-.371.294-.744l.91.207a.294.294,0,0,0,.343-.185q.589-1.581,1.046-3.206a.294.294,0,0,0-.168-.352l-.86-.368q.1-.387.2-.776l.93.092a.294.294,0,0,0,.317-.227q.385-1.642.631-3.313a.294.294,0,0,0-.211-.327l-.9-.257q.054-.4.1-.795l.934-.026a.294.294,0,0,0,.286-.265q.175-1.678.207-3.366a.294.294,0,0,0-.251-.3l-.923-.142q0-.4,0-.8l.923-.142a.3.3,0,0,0,.25-.3q-.037-1.687-.216-3.366a.294.294,0,0,0-.286-.264l-.933-.026q-.022-.2-.046-.4t-.054-.4l.9-.256a.294.294,0,0,0,.211-.327q-.245-1.669-.628-3.314a.3.3,0,0,0-.317-.227l-.93.092q-.095-.389-.2-.774l.859-.368a.294.294,0,0,0,.169-.351q-.452-1.625-1.038-3.209a.3.3,0,0,0-.343-.185l-.911.208q-.143-.375-.294-.745l.806-.473a.294.294,0,0,0,.124-.369q-.653-1.555-1.435-3.052a.3.3,0,0,0-.363-.141l-.878.32q-.189-.353-.386-.7l.741-.57a.294.294,0,0,0,.075-.382q-.844-1.46-1.81-2.845a.294.294,0,0,0-.378-.094l-.83.427c-.155-.218-.311-.434-.47-.648l.662-.657a.294.294,0,0,0,.027-.389q-1.021-1.343-2.154-2.6a.3.3,0,0,0-.387-.046l-.769.527q-.271-.294-.547-.582l.574-.734a.294.294,0,0,0-.022-.389q-1.181-1.2-2.46-2.309a.294.294,0,0,0-.39,0l-.7.619q-.305-.257-.616-.507l.478-.8a.294.294,0,0,0-.07-.383q-1.322-1.048-2.728-1.985a.294.294,0,0,0-.386.052l-.615.7q-.335-.218-.674-.428l.374-.856a.294.294,0,0,0-.117-.371q-1.443-.875-2.955-1.627a.294.294,0,0,0-.377.1l-.521.774q-.36-.175-.723-.342l.265-.9a.294.294,0,0,0-.163-.354q-1.54-.688-3.135-1.242a.294.294,0,0,0-.361.146l-.42.833q-.38-.129-.761-.25l.149-.92a.3.3,0,0,0-.206-.33q-1.614-.488-3.266-.839a.294.294,0,0,0-.34.19l-.312.879c-.262-.053-.524-.1-.787-.15l.033-.932a.3.3,0,0,0-.246-.3q-1.663-.281-3.346-.42a.294.294,0,0,0-.313.231l-.2.911q-.4-.028-.8-.048l-.084-.928a.294.294,0,0,0-.282-.269q-1.686-.069-3.373,0a.3.3,0,0,0-.282.269l-.084.929q-.4.022-.8.052l-.2-.91a.294.294,0,0,0-.314-.231c-.56.047-1.12.1-1.678.174s-1.114.155-1.669.249a.294.294,0,0,0-.246.3l.033.931c-.262.047-.524.1-.785.148l-.312-.879a.294.294,0,0,0-.34-.19q-1.65.349-3.268.835a.3.3,0,0,0-.207.331l.15.92q-.382.119-.762.246l-.42-.833a.3.3,0,0,0-.361-.146q-1.593.554-3.136,1.24a.3.3,0,0,0-.163.354l.264.894q-.364.167-.725.341l-.521-.773a.294.294,0,0,0-.377-.1q-1.511.75-2.955,1.624a.294.294,0,0,0-.117.372l.374.854q-.34.212-.675.431l-.614-.7a.294.294,0,0,0-.386-.052q-1.4.934-2.728,1.983a.3.3,0,0,0-.07.383l.479.8q-.31.252-.615.511l-.7-.62a.294.294,0,0,0-.39,0l-.2.173,3.029,2.619q1.276-.985,2.634-1.846-1.294.92-2.506,1.957l3.012,2.6a32.165,32.165,0,1,1-7.394,41.287l2.464.673a30.44,30.44,0,1,0,6.255-40.813l1.047.905a29.083,29.083,0,1,1-5.223,40.475l3.071.838a2.513,2.513,0,0,0,.056.73q5.552,3.661,5.5-2.888l3.516-6.313,4.194-.583a10.732,10.732,0,1,0,3.88-20.022q-.361.045-.712.115l1.772,1.533c2.331,2.857,2.767,4.254,2.513,5.087Zm-13.582,22.638.28-.466,3.57.522q.091-.428.191-.854a2,2,0,0,0,.434-1.693q.2-.711.424-1.415a15.882,15.882,0,0,1-3.261,1.178L400,361.075q.431.495.867,1.013a1.143,1.143,0,0,0,.7-1.049q.415-.547.847-1.081l1.2.975q-.415.513-.814,1.038a.3.3,0,0,0,.028.389l.662.657q-.238.32-.471.644l-.829-.426a.294.294,0,0,0-.378.094q-.963,1.385-1.808,2.848a.294.294,0,0,0,.076.383l.739.568q-.2.348-.385.7l-.876-.32a.3.3,0,0,0-.363.141q-.783,1.494-1.44,3.05a.294.294,0,0,0,.123.37l.8.472q-.151.371-.294.744l-.91-.207a.294.294,0,0,0-.343.185q-.589,1.58-1.046,3.206a.294.294,0,0,0,.168.352l.86.367q-.1.387-.2.776l-.93-.092a.294.294,0,0,0-.317.227q-.085.362-.163.725l3.175.464a34.861,34.861,0,0,1,7.267-14.442q.251-.3.509-.592l.383.312a35.414,35.414,0,0,0-7.047,14.885l3.71.542a32.186,32.186,0,0,1,6.355-12.965l1.2.975a30.656,30.656,0,0,0-6.017,12.215l.18.026,1.352.2,1.1.16a29.566,29.566,0,0,1,3.7-.217c2.547,0,6.425.325,6.831-2.3a13.043,13.043,0,0,0-.385-4.566l7.718,6.294a10.77,10.77,0,0,0-2.453,4l-5.185-.145-27.742-4.055Q390.144,378.085,390.114,377.544Zm-6.233-2.928-1.081,1.7a8.266,8.266,0,0,1-3.752-2.732,5.669,5.669,0,0,0-4.6-2.215c1.706-1.357,2.593-1.38,4.438-.491C381.174,371.986,381.906,374.388,383.882,374.616Zm11.595-18.261-8.455,13.315c-.466-6.18-.722-14.7-.557-22.713l2.233,1.821q-.059,1.024-.125,2.055A50.366,50.366,0,0,1,395.476,356.355Zm12.261-19.311a204.992,204.992,0,0,0-20.915.266,104.045,104.045,0,0,0-1.073-11.866c8.31-3.584,20.235-14.434,26.952-19.474a261.271,261.271,0,0,1-23.537,21.406q.065,3.77.018,7.668,4.919-.246,9.431-.285.351-1.648.733-3.879l9.287-14,7.864,6.365Zm-5.39,6.707q.531.042,1.074.091l-.474.746Q402.65,344.166,402.347,343.751Zm-11.6-.047q1.466-.153,3.131-.207l6.305,5.453-1.195,1.882Zm-7.2-6.182.01.011c-.054.615-.107,1.223-.144,1.816-.23,3.715.086,7.37.065,11.092l-6.694.846a173.757,173.757,0,0,1-7.063-28.77,2.8,2.8,0,0,0-.206-.692,13.416,13.416,0,0,1-.847-2.468c5.763,1.539,12.3,6.724,14.036,9.9,1.348,2.463,1.1,5.441.854,8.263Zm-.882,10.033a3.108,3.108,0,0,0-.706-.037c-1.408-8.393-.933-13.148-.3-16.132Z" transform="translate(-265.222 -223.033)"/><path class="a" d="M242.841,786.7a19.1,19.1,0,0,1,3.7,1.088l.35,1.64-2.558,2.294-.707-.851q-.052-2.213-.052-2.212l-1.09-1.17.357-.788" transform="translate(-29.417 -597)"/><path class="a" d="M230.419,799.946a9.632,9.632,0,0,1,2.1-.269l.306.942-.826,1.55-2.081-.643.5-1.58" transform="translate(-11.118 -605.609)"/><path class="a" d="M219.19,825.847q2.168.667,3.84,1.006.391,1.832.391,1.832l-1.081.6-5.3-1.184.023-1.37,2.124-.882" transform="translate(2.614 -622.975)"/><path class="a" d="M240.85,830.813a10.85,10.85,0,0,1,2.056-.463l.257,1.206-1.613.565-.7-1.308" transform="translate(-25.139 -625.963)"/><path class="a" d="M261.156,774.81a19.748,19.748,0,0,0-3.026,2.457l.277,1.655,3.208,1.12.343-1.065-.762-2.067.581-1.51-.619-.589" transform="translate(-49.749 -589.114)"/><path class="a" d="M270.557,794.419a9.708,9.708,0,0,0-2.039.572l.062.992,1.331,1.112,1.691-1.411-1.045-1.264" transform="translate(-62.89 -602.124)"/><path class="a" d="M264.056,820.773q-1.762,1.467-3.186,2.436.309,1.849.309,1.849l1.219.129,4.469-3.172-.523-1.259-2.288.016" transform="translate(-55.581 -619.598)"/><path class="a" d="M252.387,819.147a10.883,10.883,0,0,0-2.072.377l.2,1.217,1.7-.109q.169-1.485.168-1.485" transform="translate(-37.549 -618.53)"/><path class="a" d="M672.961,746.941a20.077,20.077,0,0,0-3.719,1.607q-.155,1.754-.155,1.754l2.96,2.065.629-.978-.229-2.313.987-1.359-.473-.776" transform="translate(-599.531 -570.624)"/><path class="a" d="M687.2,763.419a10.155,10.155,0,0,0-2.221-.014l-.2,1.021,1.058,1.511,2.088-.937-.727-1.582" transform="translate(-619.304 -581.513)"/><path class="a" d="M688,790.939q-2.175.972-3.876,1.538-.173,1.961-.173,1.961l1.2.485,5.372-1.909q-.2-1.426-.2-1.426L688,790.939" transform="translate(-621.63 -599.815)"/><path class="a" d="M674.149,794.318a11.443,11.443,0,0,0-2.2-.22q-.114,1.29-.114,1.29l1.754.383.562-1.453" transform="translate(-601.169 -601.909)"/><path class="a" d="M656.026,733.784a20.713,20.713,0,0,1,3.469,2.176q-.077,1.76-.077,1.761l-3.2,1.577-.493-1.067.531-2.253-.8-1.5.57-.693" transform="translate(-581.004 -561.895)"/><path class="a" d="M645.882,752.811a10.187,10.187,0,0,1,2.2.337q.062,1.042.063,1.042l-1.246,1.329-1.943-1.256.928-1.451" transform="translate(-566.118 -574.519)"/><path class="a" d="M642.788,780.627q2.024,1.3,3.632,2.134l-.086,1.968-1.255.29-5.064-2.737.385-1.379,2.388-.275" transform="translate(-562.732 -592.974)"/><path class="a" d="M664.173,781.3a11.43,11.43,0,0,1,2.208.129l-.057,1.294-1.786.1-.365-1.527" transform="translate(-590.824 -593.421)"/></g></g></svg>