<svg width="60" height="54" viewBox="0 0 60 54" fill="none" xmlns="http://www.w3.org/2000/svg">
<path d="M36.8201 31.42L35.4001 30L28.8201 36.58L24.9001 32.66L23.4801 34.08L28.8201 39.42L36.8201 31.42ZM31.0401 48.7L30.0001 45.5L28.9601 48.7H25.6001L28.3201 50.68L27.2801 53.88L30.0001 51.9L32.7201 53.88L31.6801 50.68L34.4001 48.7H31.0401ZM21.2401 48.7L20.2001 45.5L19.1601 48.7H15.8001L18.5201 50.68L17.4801 53.88L20.2001 51.9L22.9201 53.88L21.8801 50.68L24.6001 48.7H21.2401ZM11.4201 48.7L10.3801 45.5L9.3401 48.7H5.9801L8.7001 50.68L7.6601 53.88L10.3801 51.9L13.1001 53.88L12.0601 50.68L14.7801 48.7H11.4201ZM52.7201 21.02C54.7401 19.7 56.0801 17.44 56.0801 14.86C56.0801 10.8 52.7801 7.48002 48.7001 7.48002C44.6201 7.48002 41.3201 10.78 41.3201 14.86C41.3201 17.44 42.6601 19.72 44.6801 21.02C43.4001 21.54 42.2201 22.3 41.2201 23.3C39.5601 21.08 37.2601 19.36 34.5801 18.42C37.5401 16.8 39.5601 13.68 39.5601 10.08C39.5601 4.80002 35.2801 0.52002 30.0001 0.52002C24.7201 0.52002 20.4401 4.80002 20.4401 10.08C20.4401 13.68 22.4801 16.8 25.4201 18.42C22.7401 19.34 20.4401 21.06 18.7801 23.3C17.7801 22.32 16.6001 21.54 15.3201 21.02C17.3401 19.7 18.6801 17.44 18.6801 14.86C18.6801 10.8 15.3801 7.48002 11.3001 7.48002C7.2201 7.48002 3.9201 10.78 3.9201 14.86C3.9201 17.44 5.2601 19.72 7.2801 21.02C3.3801 22.62 0.600098 26.44 0.600098 30.9V37.86H2.6001V30.9C2.6001 26.1 6.5001 22.22 11.2801 22.22C13.7001 22.22 16.0001 23.26 17.6401 25.02C16.5801 27 15.9801 29.24 15.9801 31.64V41.22H17.9801V31.64C17.9801 25.02 23.3601 19.62 30.0001 19.62C36.6401 19.62 42.0201 25 42.0201 31.64V41.22H44.0201V31.64C44.0201 29.24 43.4201 27 42.3601 25.02C44.0001 23.24 46.2801 22.22 48.7201 22.22C53.5001 22.22 57.4001 26.12 57.4001 30.9V37.86H59.4001V30.9C59.4001 26.42 56.6401 22.6 52.7201 21.02ZM11.3001 20.22C8.3401 20.22 5.9201 17.82 5.9201 14.84C5.9201 11.86 8.3201 9.46002 11.3001 9.46002C14.2801 9.46002 16.6801 11.86 16.6801 14.84C16.6801 17.82 14.2801 20.22 11.3001 20.22ZM22.4401 10.08C22.4401 5.92002 25.8401 2.52002 30.0001 2.52002C34.1601 2.52002 37.5601 5.92002 37.5601 10.08C37.5601 14.24 34.1601 17.64 30.0001 17.64C25.8401 17.64 22.4401 14.24 22.4401 10.08ZM48.7001 20.22C45.7401 20.22 43.3201 17.82 43.3201 14.84C43.3201 11.86 45.7201 9.46002 48.7001 9.46002C51.6801 9.46002 54.0801 11.86 54.0801 14.84C54.0801 17.82 51.6801 20.22 48.7001 20.22ZM50.6401 48.7L49.6001 45.5L48.5601 48.7H45.2001L47.9201 50.68L46.8801 53.88L49.6001 51.9L52.3201 53.88L51.2801 50.68L54.0001 48.7H50.6401ZM40.8401 48.7L39.8001 45.5L38.7601 48.7H35.4001L38.1201 50.68L37.0801 53.88L39.8001 51.9L42.5201 53.88L41.4801 50.68L44.2001 48.7H40.8401Z" fill="white"/>
</svg>
