<svg width="157" height="24" viewBox="0 0 157 24" fill="none" xmlns="http://www.w3.org/2000/svg">
<path d="M10.0008 17.2167L4.12295 20.5069L5.43573 13.8999L0.490234 9.32652L7.17943 8.5334L10.0008 2.41669L12.8222 8.5334L19.5113 9.32652L14.5659 13.8999L15.8787 20.5069L10.0008 17.2167Z" fill="#D5352D"/>
<path d="M34.0008 17.2167L28.123 20.5069L29.4357 13.8999L24.4902 9.32652L31.1794 8.5334L34.0008 2.41669L36.8222 8.5334L43.5113 9.32652L38.5659 13.8999L39.8787 20.5069L34.0008 17.2167Z" fill="#D5352D"/>
<path d="M58.0008 17.2167L52.123 20.5069L53.4357 13.8999L48.4902 9.32652L55.1794 8.5334L58.0008 2.41669L60.8222 8.5334L67.5113 9.32652L62.5659 13.8999L63.8787 20.5069L58.0008 17.2167Z" fill="#D5352D"/>
<path d="M82.0008 17.2167L76.123 20.5069L77.4357 13.8999L72.4902 9.32652L79.1794 8.5334L82.0008 2.41669L84.8222 8.5334L91.5113 9.32652L86.5659 13.8999L87.8787 20.5069L82.0008 17.2167Z" fill="#D5352D"/>
<path d="M106.001 17.2167L100.123 20.5069L101.436 13.8999L96.4902 9.32652L103.179 8.5334L106.001 2.41669L108.822 8.5334L115.511 9.32652L110.566 13.8999L111.879 20.5069L106.001 17.2167Z" fill="#3B3E41" fill-opacity="0.12"/>
<path d="M124 12C124 5.64873 129.149 0.5 135.5 0.5H145.5C151.851 0.5 157 5.64873 157 12C157 18.3513 151.851 23.5 145.5 23.5H135.5C129.149 23.5 124 18.3513 124 12Z" fill="#3B3E41" fill-opacity="0.06"/>
<path d="M132.49 17.5V16.282L136.382 12.586C136.709 12.278 136.951 12.0073 137.11 11.774C137.269 11.5407 137.371 11.326 137.418 11.13C137.474 10.9247 137.502 10.7333 137.502 10.556C137.502 10.108 137.348 9.76267 137.04 9.52C136.732 9.268 136.279 9.142 135.682 9.142C135.206 9.142 134.772 9.226 134.38 9.394C133.997 9.562 133.666 9.81867 133.386 10.164L132.112 9.184C132.495 8.67067 133.008 8.274 133.652 7.994C134.305 7.70467 135.033 7.56 135.836 7.56C136.545 7.56 137.161 7.67667 137.684 7.91C138.216 8.134 138.622 8.456 138.902 8.876C139.191 9.296 139.336 9.79533 139.336 10.374C139.336 10.6913 139.294 11.0087 139.21 11.326C139.126 11.634 138.967 11.9607 138.734 12.306C138.501 12.6513 138.16 13.0387 137.712 13.468L134.366 16.646L133.988 15.96H139.714V17.5H132.49ZM144.068 7.56C144.964 7.56 145.725 7.75133 146.35 8.134C146.985 8.50733 147.47 9.05333 147.806 9.772C148.142 10.4907 148.31 11.3773 148.31 12.432C148.31 13.552 148.105 14.4993 147.694 15.274C147.293 16.0487 146.733 16.6367 146.014 17.038C145.296 17.4393 144.46 17.64 143.508 17.64C143.014 17.64 142.542 17.5887 142.094 17.486C141.646 17.3833 141.259 17.2247 140.932 17.01L141.604 15.638C141.875 15.8153 142.169 15.9413 142.486 16.016C142.804 16.0813 143.13 16.114 143.466 16.114C144.39 16.114 145.123 15.8293 145.664 15.26C146.206 14.6907 146.476 13.8507 146.476 12.74C146.476 12.5627 146.472 12.3573 146.462 12.124C146.453 11.8813 146.42 11.6387 146.364 11.396L146.924 12.012C146.766 12.3947 146.537 12.7167 146.238 12.978C145.94 13.23 145.59 13.4213 145.188 13.552C144.787 13.6827 144.344 13.748 143.858 13.748C143.224 13.748 142.65 13.6267 142.136 13.384C141.632 13.132 141.231 12.782 140.932 12.334C140.634 11.8767 140.484 11.3447 140.484 10.738C140.484 10.0847 140.643 9.52467 140.96 9.058C141.278 8.582 141.707 8.21333 142.248 7.952C142.799 7.69067 143.406 7.56 144.068 7.56ZM144.166 8.988C143.793 8.988 143.462 9.058 143.172 9.198C142.883 9.32867 142.654 9.52 142.486 9.772C142.328 10.0147 142.248 10.3087 142.248 10.654C142.248 11.1673 142.426 11.5733 142.78 11.872C143.135 12.1707 143.611 12.32 144.208 12.32C144.6 12.32 144.946 12.25 145.244 12.11C145.543 11.9607 145.776 11.76 145.944 11.508C146.112 11.2467 146.196 10.9573 146.196 10.64C146.196 10.332 146.117 10.0567 145.958 9.814C145.8 9.562 145.571 9.36133 145.272 9.212C144.974 9.06267 144.605 8.988 144.166 8.988Z" fill="#3B3E41"/>
</svg>
