<svg width="146" height="49" viewBox="0 0 146 49" fill="none" xmlns="http://www.w3.org/2000/svg">
<path d="M0 8C0 3.58172 3.58172 0 8 0H138C142.418 0 146 3.58172 146 8V41C146 45.4183 142.418 49 138 49H8C3.58173 49 0 45.4183 0 41V8Z" fill="#58595B"/>
<path d="M33 27.7454V34.6169C33 34.893 32.7761 35.117 32.5 35.117C32.4094 35.117 32.3205 35.0923 32.2428 35.0457L28 32.5L23.7572 35.0457C23.5205 35.1877 23.2133 35.1109 23.0712 34.8742C23.0246 34.7964 23 34.7075 23 34.6169V27.7454C21.1711 26.2793 20 24.0264 20 21.5C20 17.0817 23.5817 13.5 28 13.5C32.4183 13.5 36 17.0817 36 21.5C36 24.0264 34.8289 26.2793 33 27.7454ZM28 27.5C31.3137 27.5 34 24.8137 34 21.5C34 18.1863 31.3137 15.5 28 15.5C24.6863 15.5 22 18.1863 22 21.5C22 24.8137 24.6863 27.5 28 27.5ZM28 25.5C25.7909 25.5 24 23.7091 24 21.5C24 19.2909 25.7909 17.5 28 17.5C30.2091 17.5 32 19.2909 32 21.5C32 23.7091 30.2091 25.5 28 25.5Z" fill="white"/>
<path d="M51.98 35.36C50.52 35.36 49.07 35.17 47.63 34.79C46.19 34.39 44.97 33.83 43.97 33.11L45.86 29.39C46.66 29.97 47.59 30.43 48.65 30.77C49.71 31.11 50.78 31.28 51.86 31.28C53.08 31.28 54.04 31.04 54.74 30.56C55.44 30.08 55.79 29.42 55.79 28.58C55.79 27.78 55.48 27.15 54.86 26.69C54.24 26.23 53.24 26 51.86 26H49.64V22.79L55.49 16.16L56.03 17.9H45.02V14H59.72V17.15L53.9 23.78L51.44 22.37H52.85C55.43 22.37 57.38 22.95 58.7 24.11C60.02 25.27 60.68 26.76 60.68 28.58C60.68 29.76 60.37 30.87 59.75 31.91C59.13 32.93 58.18 33.76 56.9 34.4C55.62 35.04 53.98 35.36 51.98 35.36Z" fill="white"/>
<path d="M73.128 22.5V14.1H76.584C77.328 14.1 77.964 14.22 78.492 14.46C79.028 14.7 79.44 15.044 79.728 15.492C80.016 15.94 80.16 16.472 80.16 17.088C80.16 17.704 80.016 18.236 79.728 18.684C79.44 19.124 79.028 19.464 78.492 19.704C77.964 19.936 77.328 20.052 76.584 20.052H73.992L74.688 19.344V22.5H73.128ZM78.624 22.5L76.5 19.452H78.168L80.304 22.5H78.624ZM74.688 19.512L73.992 18.768H76.512C77.2 18.768 77.716 18.62 78.06 18.324C78.412 18.028 78.588 17.616 78.588 17.088C78.588 16.552 78.412 16.14 78.06 15.852C77.716 15.564 77.2 15.42 76.512 15.42H73.992L74.688 14.652V19.512ZM83.3453 17.592H87.5213V18.876H83.3453V17.592ZM83.4653 21.192H88.2053V22.5H81.9053V14.1H88.0373V15.408H83.4653V21.192ZM91.8072 22.5L89.0232 14.1H90.6432L93.1272 21.696H92.3232L94.9032 14.1H96.3432L98.8512 21.696H98.0712L100.615 14.1H102.103L99.3192 22.5H97.6632L95.3712 15.648H95.8032L93.4752 22.5H91.8072ZM101.917 22.5L105.697 14.1H107.233L111.025 22.5H109.393L106.141 14.928H106.765L103.525 22.5H101.917ZM103.657 20.556L104.077 19.332H108.613L109.033 20.556H103.657ZM112.093 22.5V14.1H115.549C116.293 14.1 116.929 14.22 117.457 14.46C117.993 14.7 118.405 15.044 118.693 15.492C118.981 15.94 119.125 16.472 119.125 17.088C119.125 17.704 118.981 18.236 118.693 18.684C118.405 19.124 117.993 19.464 117.457 19.704C116.929 19.936 116.293 20.052 115.549 20.052H112.957L113.653 19.344V22.5H112.093ZM117.589 22.5L115.465 19.452H117.133L119.269 22.5H117.589ZM113.653 19.512L112.957 18.768H115.477C116.165 18.768 116.681 18.62 117.025 18.324C117.377 18.028 117.553 17.616 117.553 17.088C117.553 16.552 117.377 16.14 117.025 15.852C116.681 15.564 116.165 15.42 115.477 15.42H112.957L113.653 14.652V19.512ZM120.87 22.5V14.1H124.542C125.454 14.1 126.254 14.276 126.942 14.628C127.63 14.98 128.166 15.468 128.55 16.092C128.934 16.716 129.126 17.452 129.126 18.3C129.126 19.14 128.934 19.876 128.55 20.508C128.166 21.132 127.63 21.62 126.942 21.972C126.254 22.324 125.454 22.5 124.542 22.5H120.87ZM122.43 21.18H124.47C125.102 21.18 125.646 21.06 126.102 20.82C126.566 20.58 126.922 20.244 127.17 19.812C127.426 19.38 127.554 18.876 127.554 18.3C127.554 17.716 127.426 17.212 127.17 16.788C126.922 16.356 126.566 16.02 126.102 15.78C125.646 15.54 125.102 15.42 124.47 15.42H122.43V21.18ZM73.128 34.5V26.1H76.584C77.328 26.1 77.964 26.22 78.492 26.46C79.028 26.7 79.44 27.044 79.728 27.492C80.016 27.94 80.16 28.472 80.16 29.088C80.16 29.704 80.016 30.236 79.728 30.684C79.44 31.132 79.028 31.476 78.492 31.716C77.964 31.956 77.328 32.076 76.584 32.076H73.992L74.688 31.344V34.5H73.128ZM74.688 31.512L73.992 30.756H76.512C77.2 30.756 77.716 30.612 78.06 30.324C78.412 30.028 78.588 29.616 78.588 29.088C78.588 28.552 78.412 28.14 78.06 27.852C77.716 27.564 77.2 27.42 76.512 27.42H73.992L74.688 26.652V31.512ZM85.771 34.62C85.115 34.62 84.511 34.512 83.959 34.296C83.407 34.08 82.927 33.78 82.519 33.396C82.111 33.004 81.795 32.548 81.571 32.028C81.347 31.5 81.235 30.924 81.235 30.3C81.235 29.676 81.347 29.104 81.571 28.584C81.795 28.056 82.111 27.6 82.519 27.216C82.927 26.824 83.407 26.52 83.959 26.304C84.511 26.088 85.111 25.98 85.759 25.98C86.415 25.98 87.015 26.088 87.559 26.304C88.111 26.52 88.591 26.824 88.999 27.216C89.407 27.6 89.723 28.056 89.947 28.584C90.171 29.104 90.283 29.676 90.283 30.3C90.283 30.924 90.171 31.5 89.947 32.028C89.723 32.556 89.407 33.012 88.999 33.396C88.591 33.78 88.111 34.08 87.559 34.296C87.015 34.512 86.419 34.62 85.771 34.62ZM85.759 33.252C86.183 33.252 86.575 33.18 86.935 33.036C87.295 32.892 87.607 32.688 87.871 32.424C88.135 32.152 88.339 31.84 88.483 31.488C88.635 31.128 88.711 30.732 88.711 30.3C88.711 29.868 88.635 29.476 88.483 29.124C88.339 28.764 88.135 28.452 87.871 28.188C87.607 27.916 87.295 27.708 86.935 27.564C86.575 27.42 86.183 27.348 85.759 27.348C85.335 27.348 84.943 27.42 84.583 27.564C84.231 27.708 83.919 27.916 83.647 28.188C83.383 28.452 83.175 28.764 83.023 29.124C82.879 29.476 82.807 29.868 82.807 30.3C82.807 30.724 82.879 31.116 83.023 31.476C83.175 31.836 83.383 32.152 83.647 32.424C83.911 32.688 84.223 32.892 84.583 33.036C84.943 33.18 85.335 33.252 85.759 33.252ZM91.9366 34.5V26.1H93.4966V34.5H91.9366ZM95.7686 34.5V26.1H97.0526L102.321 32.568H101.685V26.1H103.233V34.5H101.949L96.6806 28.032H97.3166V34.5H95.7686ZM107.187 34.5V27.42H104.403V26.1H111.531V27.42H108.747V34.5H107.187ZM115.224 34.62C114.568 34.62 113.94 34.528 113.34 34.344C112.74 34.152 112.264 33.908 111.912 33.612L112.452 32.4C112.788 32.664 113.204 32.884 113.7 33.06C114.196 33.236 114.704 33.324 115.224 33.324C115.664 33.324 116.02 33.276 116.292 33.18C116.564 33.084 116.764 32.956 116.892 32.796C117.02 32.628 117.084 32.44 117.084 32.232C117.084 31.976 116.992 31.772 116.808 31.62C116.624 31.46 116.384 31.336 116.088 31.248C115.8 31.152 115.476 31.064 115.116 30.984C114.764 30.904 114.408 30.812 114.048 30.708C113.696 30.596 113.372 30.456 113.076 30.288C112.788 30.112 112.552 29.88 112.368 29.592C112.184 29.304 112.092 28.936 112.092 28.488C112.092 28.032 112.212 27.616 112.452 27.24C112.7 26.856 113.072 26.552 113.568 26.328C114.072 26.096 114.708 25.98 115.476 25.98C115.98 25.98 116.48 26.044 116.976 26.172C117.472 26.3 117.904 26.484 118.272 26.724L117.78 27.936C117.404 27.712 117.016 27.548 116.616 27.444C116.216 27.332 115.832 27.276 115.464 27.276C115.032 27.276 114.68 27.328 114.408 27.432C114.144 27.536 113.948 27.672 113.82 27.84C113.7 28.008 113.64 28.2 113.64 28.416C113.64 28.672 113.728 28.88 113.904 29.04C114.088 29.192 114.324 29.312 114.612 29.4C114.908 29.488 115.236 29.576 115.596 29.664C115.956 29.744 116.312 29.836 116.664 29.94C117.024 30.044 117.348 30.18 117.636 30.348C117.932 30.516 118.168 30.744 118.344 31.032C118.528 31.32 118.62 31.684 118.62 32.124C118.62 32.572 118.496 32.988 118.248 33.372C118.008 33.748 117.636 34.052 117.132 34.284C116.628 34.508 115.992 34.62 115.224 34.62Z" fill="white"/>
</svg>
