<svg xmlns="http://www.w3.org/2000/svg" viewBox="0 0 536.434 58">
	<style>
		.st1 {
		fill: currentColor
		}
	</style>
	<path class="st1"
		d="M248.733 8.019a2.515 2.515 0 01-2.3 1h-13.1c-1 0-1.2.2-1.2 1.2v43.5c0 2.1-.5 2.6-2.6 2.6h-2.8c-1.9 0-2.4-.5-2.4-2.4v-43.8c0-.8-.2-1.1-1.1-1.1h-13.4c-1.7 0-2.3-.5-2.3-2.3v-2.6a1.805 1.805 0 011.6-2h37.4a2.518 2.518 0 012 .9zM93.733 57.519l-4.7-11.2-4.8-11.1c-3.3 7.6-6.6 14.9-9.9 22.3-1.5-3.4-2.9-6.6-4.3-9.8a1.183 1.183 0 01.1-1l19.1-44.8a.882.882 0 01.9-.8h8.1l-4 9.9c-1.7 4.2-3.5 8.4-5.2 12.6a1.322 1.322 0 00-.2 1.2c1.7 4.1 3.4 8.2 5.1 12.5l5.4-12.9 9.3-22.2a1.645 1.645 0 011.8-1.2c2.5.1 4.9 0 7.6 0zM21.033 57.119c-5.2 0-10.3-.9-14.7-3.9a13.593 13.593 0 01-6.3-9.8 1.791 1.791 0 012-2.3h3.6a2.048 2.048 0 012.1 1.5c1.4 4.7 4.8 6.9 9.4 7.7a23.739 23.739 0 0010.6-.6c4-1.2 6.2-4 6.2-7.8a6.593 6.593 0 00-3.1-5.5 30.577 30.577 0 00-7.7-3.2c-3.7-1.2-7.5-2.1-11.1-3.6-.9-.4-1.8-.8-2.6-1.2-4.9-2.4-7.7-6.2-7.8-11.8a13.264 13.264 0 017.1-12.5c6.1-3.7 18.5-4.3 25.6 1.4a14.788 14.788 0 015.5 8.3 7.719 7.719 0 01.2 1.5 1.3 1.3 0 01-1.2 1.5h-4.9a1.617 1.617 0 01-1.6-1.4c-.8-4.1-3.7-6.1-7.4-7.1a18.572 18.572 0 00-10.7.7 7.2 7.2 0 00-4.8 8.8 6.524 6.524 0 002.8 3.9 26.693 26.693 0 007.1 3.2c4.4 1.5 9 2.4 13.3 4.3h.1c5.5 2.3 8.9 6 8.9 12.3s-3 10.7-8.6 13.4a27.534 27.534 0 01-12 2.2zM161.033 29.219v-24.5c0-2.1.5-2.6 2.6-2.6h30.1c2.3 0 2.7.4 2.7 2.7v1.9c0 1.5-.6 2.1-2.1 2.1h-24.4c-1.1 0-1.3.3-1.3 1.3.1 5.2.1 10.4 0 15.7 0 .9.2 1.1 1.1 1.1h22.6c2 0 2.5.5 2.5 2.4v2.2c0 1.5-.6 2.2-2.2 2.2h-23c-.9 0-1.1.2-1.1 1v19.3c0 1.9-.5 2.4-2.4 2.4h-3c-1.6 0-2.1-.6-2.2-2.2v-12.1z" />
	<path d="M67.533 43.119l-17.7-41.9h34.6c.7 0 1.3-.1.8 1-5.8 13.5-11.7 27-17.4 40.5-.1 0-.2.1-.3.4z" fill="#f16932" />
	<path class="st1"
		d="M141.333 29.219v24.9c0 1.8-.5 2.3-2.3 2.3h-3.4c-1.5 0-2.1-.6-2.1-2.1v-49.8c0-1.9.5-2.4 2.4-2.4h3.2c1.5 0 2.1.6 2.1 2.1.1 8.3.1 16.7.1 25zM287.134 39.013a.52.52 0 01-.2-.4v-18.4c0-.2.1-.3.2-.5a.758.758 0 01.4-.2h7.4a5.8 5.8 0 014.2 1.4 5.426 5.426 0 011.4 3.6 4.953 4.953 0 01-.7 2.7 3.53 3.53 0 01-1.7 1.5 5.2 5.2 0 012 1.9 4.764 4.764 0 01.9 2.9 4.953 4.953 0 01-.7 2.7 6.365 6.365 0 01-2 2 6.806 6.806 0 01-3.1.8h-7.7a.3.3 0 01-.4 0zm7.4-10.9a4.369 4.369 0 003.1-.9 3.467 3.467 0 001.1-2.6 2.71 2.71 0 00-1.1-2.5 4.831 4.831 0 00-3.1-.8h-5.8v6.8zm.3 9.4a4.2 4.2 0 003.2-1.1 4.047 4.047 0 000-5.6 4.629 4.629 0 00-3.2-1.1h-6.1v7.8zM311.134 44.313a.52.52 0 01-.2-.4 1.421 1.421 0 01.2-.6l2.2-5-5.4-12.6c-.1-.2-.1-.4-.2-.6 0-.3.3-.5.6-.6h.6a.675.675 0 01.6.4l4.7 11.1 4.8-11.1a.67.67 0 01.7-.4h.6c.3 0 .5.3.6.6a1.421 1.421 0 01-.2.6l-8 18.3a.67.67 0 01-.7.4h-.6c-.1.1-.2 0-.3-.1zM339.334 39.013a.758.758 0 01-.2-.4v-18.4c0-.2.1-.3.2-.5a.758.758 0 01.4-.2h6a10.172 10.172 0 014.6.8 4.878 4.878 0 012.4 2.5 12.046 12.046 0 01.8 4.2v4.4a10.6 10.6 0 01-.8 4.3 4.685 4.685 0 01-2.4 2.4 9.986 9.986 0 01-4.5.8h-6.1c-.1.3-.3.2-.4.1zm6.4-1.5a8.342 8.342 0 003.5-.6 4.36 4.36 0 001.9-1.9 10.46 10.46 0 00.6-3.6v-4.2a6.406 6.406 0 00-1.5-4.6c-.9-1-2.5-1.4-4.7-1.4h-4.6v16.3zM363.934 44.313a.52.52 0 01-.2-.4 1.421 1.421 0 01.2-.6l2.2-5-5.3-12.6c-.1-.2-.1-.4-.2-.6a.758.758 0 01.2-.4.52.52 0 01.4-.2h.6a.675.675 0 01.6.4l4.7 11.1 4.8-11a.622.622 0 01.6-.4h.6a.707.707 0 01.6.6 1.421 1.421 0 01-.2.6l-8 18.3a.822.822 0 01-.6.4h-.6a.52.52 0 01-.4-.2zM381.134 39.013a.52.52 0 01-.2-.4v-13.4a.56.56 0 01.5-.6h.6a.52.52 0 01.4.2.758.758 0 01.2.4v1.3a6.136 6.136 0 011.9-1.7 6.71 6.71 0 012.8-.6 4.855 4.855 0 014.2 1.8 6.8 6.8 0 011.5 4.5v8a.52.52 0 01-.2.4.758.758 0 01-.4.2h-.5c-.2 0-.3 0-.4-.2a.758.758 0 01-.2-.4v-7.9a4.908 4.908 0 00-1.1-3.5 3.818 3.818 0 00-3.2-1.2 3.894 3.894 0 00-3.2 1.3 4.569 4.569 0 00-1.2 3.5v7.9c0 .2 0 .3-.2.4a.758.758 0 01-.4.2h-.5a.758.758 0 01-.4-.2zM403.034 38.913a4.41 4.41 0 01-1.8-1.5 3.771 3.771 0 01-.7-2.1 3.564 3.564 0 011.5-3 8.518 8.518 0 014-1.5l4.4-.6v-1a3.021 3.021 0 00-.9-2.4 4.137 4.137 0 00-2.9-.8 4.645 4.645 0 00-2.3.6 3 3 0 00-1.2 1.3c0 .2-.1.3-.3.5a.6.6 0 01-.4.1h-.4a.645.645 0 01-.6-.6 1.974 1.974 0 01.6-1.4 5.525 5.525 0 011.7-1.4 7.173 7.173 0 012.9-.6 5.837 5.837 0 014.3 1.4 5.6 5.6 0 011.3 3.5v9.4a.52.52 0 01-.2.4.758.758 0 01-.4.2h-.5c-.2 0-.3 0-.4-.2a.758.758 0 01-.2-.4v-1.3a5.48 5.48 0 01-1.8 1.6 5.748 5.748 0 01-3.1.6 9.9 9.9 0 01-2.6-.8zm6.2-2.4a5.594 5.594 0 001.3-3.9v-1l-3.6.5a8.944 8.944 0 00-3.5 1.1 2.241 2.241 0 00-1.2 1.9 2.305 2.305 0 001.1 2 4.514 4.514 0 002.5.7 4.3 4.3 0 003.4-1.3zM421.034 39.013a.758.758 0 01-.2-.4v-13.4a.56.56 0 01.5-.6h.6a.52.52 0 01.4.2.758.758 0 01.2.4v1a4.573 4.573 0 011.7-1.4 5.932 5.932 0 012.3-.5 4.665 4.665 0 014.5 2.6 4.361 4.361 0 011.9-1.9 5.918 5.918 0 012.9-.7 5.066 5.066 0 013.8 1.6 6.226 6.226 0 011.4 4.5v8.2a.56.56 0 01-.5.6h-.6a.52.52 0 01-.4-.2.758.758 0 01-.2-.4v-7.9a5.089 5.089 0 00-1-3.6 3.928 3.928 0 00-2.8-1.1 3.631 3.631 0 00-2.6 1.1 5.158 5.158 0 00-1.1 3.6v7.9c0 .2 0 .3-.2.4a.758.758 0 01-.4.2h-.5a.52.52 0 01-.4-.2.758.758 0 01-.2-.4v-7.9a4.8 4.8 0 00-1.2-3.6 3.864 3.864 0 00-2.7-1.1 3.631 3.631 0 00-2.6 1.1 5.158 5.158 0 00-1.1 3.6v7.9c0 .2 0 .3-.2.4a.758.758 0 01-.4.2h-.5a.519.519 0 01-.4-.2zM449.434 21.513a.758.758 0 01-.2-.4v-1.1c0-.2.1-.3.2-.5a.758.758 0 01.4-.2h1c.2 0 .3.1.5.2a.764.764 0 01.2.5v1.1a.52.52 0 01-.2.4.764.764 0 01-.5.2h-1c-.1-.1-.3-.1-.4-.2zm.3 17.5a.758.758 0 01-.2-.4v-13.4a.56.56 0 01.5-.6h.6a.56.56 0 01.6.5v13.5a.52.52 0 01-.2.4.758.758 0 01-.4.2h-.5a.758.758 0 01-.4-.2zM461.034 37.813a7.4 7.4 0 01-1.7-4.8v-2.2a7.814 7.814 0 011.7-4.8 5.8 5.8 0 014.5-1.7 6.428 6.428 0 013.1.7 4.7 4.7 0 012 1.7 4.05 4.05 0 01.7 2.1c0 .2 0 .3-.2.4a.758.758 0 01-.4.2h-.4a.6.6 0 01-.4-.1 2.186 2.186 0 01-.3-.5 3.976 3.976 0 00-1.6-2.2 4.845 4.845 0 00-2.6-.7 4.284 4.284 0 00-3.2 1.2 5.583 5.583 0 00-1.3 3.7v2a4.966 4.966 0 001.3 3.7 4.144 4.144 0 003.2 1.2 4.845 4.845 0 002.6-.7 4.517 4.517 0 001.6-2.2 1.332 1.332 0 01.3-.5.6.6 0 01.4-.1h.4a.52.52 0 01.4.2.758.758 0 01.2.4 3.771 3.771 0 01-.7 2.1 5.51 5.51 0 01-2 1.7 6.99 6.99 0 01-3.1.7 5.04 5.04 0 01-4.5-1.5zM482.134 39.013a.55.55 0 01-.3-.5l-3.9-13-.1-.3a.758.758 0 01.2-.4.52.52 0 01.4-.2h.6c.2 0 .3 0 .4.1s.2.2.2.3l3.4 11.7 3.7-11.5c0-.2.1-.3.3-.4a.764.764 0 01.5-.2h.6a.764.764 0 01.5.2 1.38 1.38 0 01.3.4l3.7 11.5 3.4-11.7c0-.1.1-.2.2-.3a.6.6 0 01.4-.1h.5c.3 0 .5.3.6.6l-.1.3-3.9 13a2.186 2.186 0 01-.3.5 1.421 1.421 0 01-.6.2h-.5a.824.824 0 01-1-.7l-3.5-11-3.5 11a.961.961 0 01-.9.7h-.5c-.5 0-.7-.1-.8-.2zM505.834 37.713a8.156 8.156 0 01-1.9-4.7v-2.2a8.042 8.042 0 011.8-4.7 6.276 6.276 0 018.9.1 7.291 7.291 0 011.6 5.3v.4a.52.52 0 01-.2.4.764.764 0 01-.5.2h-10v.3a5.025 5.025 0 00.6 2.4 4.41 4.41 0 001.5 1.8 3.891 3.891 0 002.3.7 5.421 5.421 0 002.5-.6 5.263 5.263 0 001.4-1.2.781.781 0 01.4-.4.749.749 0 01.5-.1h.4c.2 0 .3 0 .4.1a.52.52 0 01.2.4 2.666 2.666 0 01-.7 1.4 5.957 5.957 0 01-2.1 1.4 7.653 7.653 0 01-3 .6 4.724 4.724 0 01-4.1-1.6zm8.8-6.7v-.1a5.782 5.782 0 00-1.2-3.6 4.374 4.374 0 00-3.3-1.4 3.979 3.979 0 00-3.2 1.4 5.782 5.782 0 00-1.2 3.6v.1zM525.934 37.313v1.4a.52.52 0 01-.2.4.764.764 0 01-.5.2h-.5a.551.551 0 01-.5-.2.758.758 0 01-.2-.4v-18.8a.56.56 0 01.5-.6h.6a.56.56 0 01.6.5v6.7a5.469 5.469 0 014.7-2.2 5.309 5.309 0 014.5 2 8.271 8.271 0 011.5 4.8v1.6a8.271 8.271 0 01-1.5 4.8 5.194 5.194 0 01-4.5 2 5.352 5.352 0 01-4.5-2.2zm7.9-.9a6.959 6.959 0 001.1-3.7v-.8a8.034 8.034 0 00-1-4.3 3.794 3.794 0 00-3.5-1.7 4.3 4.3 0 00-2.5.7 3.758 3.758 0 00-1.5 1.8 5.932 5.932 0 00-.5 2.3v2.2a5.5 5.5 0 001.2 3.5 3.851 3.851 0 003.3 1.5 4.331 4.331 0 003.4-1.5zM261.101 0a1.5 1.5 0 011.5 1.5v55a1.5 1.5 0 01-3 0v-55a1.5 1.5 0 011.5-1.5z" />
</svg>
