<svg version="1.1" xmlns="http://www.w3.org/2000/svg" viewBox="0 0 251.1 96.3">
	<style>
		.st1 {
		fill: currentColor
		}
	</style>
	<path class="st1"
		d="M249.4 7.5c-.5.7-1.4 1.1-2.3 1H234c-1 0-1.2.2-1.2 1.2v43.5c0 2.1-.5 2.6-2.6 2.6h-2.8c-1.9 0-2.4-.5-2.4-2.4V25 9.6c0-.8-.2-1.1-1.1-1.1h-13.4c-1.7 0-2.3-.5-2.3-2.3V3.6c-.1-1 .6-1.9 1.6-2h37.4c.8 0 1.5.3 2 .9l.2 5zM94.4 57l-4.7-11.2-4.8-11.1C81.6 42.3 78.3 49.6 75 57c-1.5-3.4-2.9-6.6-4.3-9.8-.1-.3-.1-.7.1-1L89.9 1.4c.1-.4.3-.8.9-.8h8.1l-4 9.9c-1.7 4.2-3.5 8.4-5.2 12.6-.2.4-.4.8-.2 1.2 1.7 4.1 3.4 8.2 5.1 12.5l5.4-12.9 9.3-22.2c.2-.8 1-1.3 1.8-1.2 2.5.1 4.9 0 7.6 0L94.4 57zM21.7 56.6c-5.2 0-10.3-.9-14.7-3.9-3.5-2.2-5.8-5.8-6.3-9.8-.2-1.5.5-2.3 2-2.3h3.6c1-.1 1.8.6 2.1 1.5 1.4 4.7 4.8 6.9 9.4 7.7 3.5.6 7.2.4 10.6-.6 4-1.2 6.2-4 6.2-7.8 0-2.2-1.2-4.3-3.1-5.5-2.4-1.4-5-2.5-7.7-3.2-3.7-1.2-7.5-2.1-11.1-3.6-.9-.4-1.8-.8-2.6-1.2-4.9-2.4-7.7-6.2-7.8-11.8S4.6 6.4 9.4 3.6C15.5-.1 27.9-.7 35 5c2.7 2 4.7 5 5.5 8.3.1.5.2 1 .2 1.5.1.8-.5 1.5-1.2 1.5h-4.9c-.8 0-1.5-.6-1.6-1.4-.8-4.1-3.7-6.1-7.4-7.1-3.6-.8-7.3-.6-10.7.7-3.7 1.1-5.8 5-4.8 8.8.4 1.6 1.4 3 2.8 3.9 2.2 1.4 4.6 2.5 7.1 3.2 4.4 1.5 9 2.4 13.3 4.3h.1c5.5 2.3 8.9 6 8.9 12.3s-3 10.7-8.6 13.4c-3.8 1.6-7.9 2.4-12 2.2zM161.7 28.7V4.2c0-2.1.5-2.6 2.6-2.6h30.1c2.3 0 2.7.4 2.7 2.7v1.9c0 1.5-.6 2.1-2.1 2.1h-24.4c-1.1 0-1.3.3-1.3 1.3.1 5.2.1 10.4 0 15.7 0 .9.2 1.1 1.1 1.1H193c2 0 2.5.5 2.5 2.4V31c0 1.5-.6 2.2-2.2 2.2h-23c-.9 0-1.1.2-1.1 1v19.3c0 1.9-.5 2.4-2.4 2.4h-3c-1.6 0-2.1-.6-2.2-2.2V41.6l.1-12.9z" />
	<path d="M68.2 42.6L50.5.7h34.6c.7 0 1.3-.1.8 1-5.8 13.5-11.7 27-17.4 40.5-.1 0-.2.1-.3.4z" fill="#f16932" />
	<path class="st1"
		d="M142 28.7v24.9c0 1.8-.5 2.3-2.3 2.3h-3.4c-1.5 0-2.1-.6-2.1-2.1V4c0-1.9.5-2.4 2.4-2.4h3.2c1.5 0 2.1.6 2.1 2.1.1 8.3.1 16.7.1 25zM1.2 90.5c-.1-.1-.2-.2-.2-.4V71.7c0-.2.1-.3.2-.5.1-.1.3-.2.4-.2H9c1.5-.1 3.1.4 4.2 1.4.9 1 1.4 2.3 1.4 3.6 0 1-.2 1.9-.7 2.7-.4.7-1 1.2-1.7 1.5.8.4 1.5 1.1 2 1.9.6.8.9 1.8.9 2.9 0 1-.2 1.9-.7 2.7-.5.8-1.2 1.5-2 2-1 .5-2 .8-3.1.8H1.6c-.1.1-.3.1-.4 0zm7.4-10.9c1.1.1 2.2-.2 3.1-.9.7-.6 1.1-1.6 1.1-2.6.1-1-.3-1.9-1.1-2.5-.9-.6-2-.9-3.1-.8H2.8v6.8h5.8zm.3 9.4c1.2.1 2.3-.3 3.2-1.1 1.5-1.6 1.5-4 0-5.6-.9-.8-2-1.1-3.2-1.1H2.8V89h6.1zM25.2 95.8c-.1-.1-.2-.2-.2-.4s.1-.4.2-.6l2.2-5L22 77.2c-.1-.2-.1-.4-.2-.6 0-.3.3-.5.6-.6h.6c.3 0 .5.2.6.4l4.7 11.1 4.8-11.1c.1-.3.4-.4.7-.4h.6c.3 0 .5.3.6.6 0 .2-.1.4-.2.6l-8 18.3c-.1.3-.4.4-.7.4h-.6c-.1.1-.2 0-.3-.1zM53.4 90.5c-.1-.1-.2-.3-.2-.4V71.7c0-.2.1-.3.2-.5.1-.1.3-.2.4-.2h6c1.6-.1 3.2.2 4.6.8 1.1.5 1.9 1.4 2.4 2.5.5 1.3.8 2.8.8 4.2v4.4c0 1.5-.2 2.9-.8 4.3-.5 1.1-1.3 1.9-2.4 2.4-1.4.6-3 .9-4.5.8h-6.1c-.1.3-.3.2-.4.1zm6.4-1.5c1.2.1 2.4-.2 3.5-.6.8-.4 1.5-1.1 1.9-1.9.4-1.1.6-2.3.6-3.6v-2.1-2.1c.1-1.7-.4-3.3-1.5-4.6-.9-1-2.5-1.4-4.7-1.4H55V89h4.8zM78 95.8c-.1-.1-.2-.2-.2-.4s.1-.4.2-.6l2.2-5-5.3-12.6c-.1-.2-.1-.4-.2-.6 0-.1.1-.3.2-.4.1-.1.2-.2.4-.2h.6c.3 0 .5.2.6.4l4.7 11.1 4.8-11c.1-.3.4-.4.6-.4h.6c.2 0 .3.1.4.2.1.1.2.2.2.4s-.1.4-.2.6l-8 18.3c-.1.2-.4.4-.6.4h-.6c-.2 0-.3-.1-.4-.2zM95.2 90.5c-.1-.1-.2-.2-.2-.4V76.7c0-.3.2-.6.5-.6h.6c.2 0 .3.1.4.2.1.1.2.3.2.4V78c.5-.7 1.2-1.3 1.9-1.7.9-.4 1.8-.6 2.8-.6 1.6-.1 3.2.5 4.2 1.8s1.6 2.9 1.5 4.5v8c0 .2-.1.3-.2.4-.1.1-.3.2-.4.2h-.5c-.2 0-.3 0-.4-.2-.1-.1-.2-.3-.2-.4v-7.9c.1-1.3-.3-2.5-1.1-3.5-.8-.9-2-1.3-3.2-1.2-1.2-.1-2.4.4-3.2 1.3-.9 1-1.3 2.2-1.2 3.5v7.9c0 .2 0 .3-.2.4-.1.1-.3.2-.4.2h-.5c-.1 0-.3-.1-.4-.2zM117.1 90.4c-.7-.3-1.4-.9-1.8-1.5-.4-.6-.7-1.3-.7-2.1 0-1.2.5-2.3 1.5-3 1.2-.8 2.6-1.4 4-1.5l4.4-.6v-1c.1-.9-.3-1.8-.9-2.4-.8-.6-1.8-.9-2.9-.8-.8 0-1.6.2-2.3.6-.5.3-1 .8-1.2 1.3 0 .2-.1.3-.3.5-.1.1-.3.1-.4.1h-.4c-.3 0-.6-.3-.6-.6 0-.5.2-1 .6-1.4.5-.6 1.1-1.1 1.7-1.4.9-.4 1.9-.6 2.9-.6 2 0 3.4.5 4.3 1.4.8 1 1.3 2.2 1.3 3.5v9.4c0 .2-.1.3-.2.4-.1.1-.3.2-.4.2h-.5c-.2 0-.3 0-.4-.2-.1-.1-.2-.3-.2-.4V89c-.5.7-1.1 1.2-1.8 1.6-1 .5-2.1.7-3.1.6-1-.2-1.8-.4-2.6-.8zm6.2-2.4c.9-1.1 1.4-2.5 1.3-3.9v-1l-3.6.5c-1.2.1-2.4.5-3.5 1.1-.7.4-1.2 1.1-1.2 1.9 0 .8.4 1.6 1.1 2 .8.5 1.6.7 2.5.7 1.3.1 2.5-.4 3.4-1.3zM135.1 90.5c-.1-.1-.2-.3-.2-.4V76.7c0-.3.2-.6.5-.6h.6c.2 0 .3.1.4.2.1.1.2.3.2.4v1c.5-.6 1-1.1 1.7-1.4.7-.3 1.5-.5 2.3-.5 1.9-.1 3.7.9 4.5 2.6.4-.8 1.1-1.5 1.9-1.9.9-.5 1.9-.7 2.9-.7 1.4 0 2.8.5 3.8 1.6 1 1.3 1.6 2.9 1.4 4.5v8.2c0 .3-.2.6-.5.6h-.6c-.2 0-.3-.1-.4-.2-.1-.1-.2-.3-.2-.4v-7.9c.1-1.3-.2-2.6-1-3.6-.7-.7-1.7-1.1-2.8-1.1-1 0-1.9.4-2.6 1.1-.8 1-1.2 2.3-1.1 3.6v7.9c0 .2 0 .3-.2.4-.1.1-.3.2-.4.2h-.5c-.2 0-.3-.1-.4-.2-.1-.1-.2-.3-.2-.4v-7.9c.1-1.3-.3-2.6-1.2-3.6-.7-.7-1.7-1.1-2.7-1.1-1 0-1.9.4-2.6 1.1-.8 1-1.2 2.3-1.1 3.6v7.9c0 .2 0 .3-.2.4-.1.1-.3.2-.4.2h-.5c-.2 0-.3-.1-.4-.2zM163.5 73c-.1-.1-.2-.3-.2-.4v-1.1c0-.2.1-.3.2-.5.1-.1.3-.2.4-.2h1c.2 0 .3.1.5.2.1.1.2.3.2.5v1.1c0 .2-.1.3-.2.4-.1.1-.3.2-.5.2h-1c-.1-.1-.3-.1-.4-.2zm.3 17.5c-.1-.1-.2-.3-.2-.4V76.7c0-.3.2-.6.5-.6h.6c.3 0 .6.2.6.5v13.5c0 .2-.1.3-.2.4-.1.1-.3.2-.4.2h-.5c-.1 0-.3-.1-.4-.2zM175.1 89.3c-1.1-1.3-1.7-3-1.7-4.8v-2.2c0-1.7.6-3.4 1.7-4.8a5.8 5.8 0 014.5-1.7c1.1 0 2.2.2 3.1.7.8.4 1.5.9 2 1.7.4.6.7 1.4.7 2.1 0 .2 0 .3-.2.4-.1.1-.3.2-.4.2h-.4c-.1 0-.3 0-.4-.1-.1-.1-.2-.3-.3-.5-.3-.9-.8-1.7-1.6-2.2-.8-.5-1.7-.7-2.6-.7-1.2-.1-2.3.4-3.2 1.2-.9 1-1.3 2.4-1.3 3.7v2c-.1 1.4.4 2.7 1.3 3.7.8.8 2 1.3 3.2 1.2.9 0 1.8-.2 2.6-.7.7-.5 1.3-1.3 1.6-2.2.1-.2.1-.3.3-.5.1-.1.3-.1.4-.1h.4c.2 0 .3.1.4.2.1.1.2.3.2.4 0 .8-.3 1.5-.7 2.1-.5.7-1.2 1.3-2 1.7-1 .5-2.1.7-3.1.7-1.7.3-3.3-.3-4.5-1.5zM196.2 90.5c-.2-.1-.3-.3-.3-.5L192 77l-.1-.3c0-.1.1-.3.2-.4.1-.1.2-.2.4-.2h.6c.2 0 .3 0 .4.1.1.1.2.2.2.3l3.4 11.7 3.7-11.5c0-.2.1-.3.3-.4.1-.1.3-.2.5-.2h.6c.2 0 .4.1.5.2.1.1.2.2.3.4l3.7 11.5 3.4-11.7c0-.1.1-.2.2-.3.1-.1.3-.1.4-.1h.5c.3 0 .5.3.6.6l-.1.3-3.9 13c-.1.2-.2.4-.3.5-.2.1-.4.2-.6.2h-.5c-.5.1-.9-.2-1-.7l-3.5-11-3.5 11c-.1.4-.5.7-.9.7h-.5c-.5 0-.7-.1-.8-.2zM219.9 89.2c-1.1-1.3-1.8-3-1.9-4.7v-2.2c.1-1.7.7-3.4 1.8-4.7 1.1-1.2 2.7-1.8 4.3-1.8 1.7-.1 3.4.6 4.6 1.9 1.2 1.5 1.8 3.4 1.6 5.3v.4c0 .2-.1.3-.2.4-.1.1-.3.2-.5.2h-10v.3c0 .8.2 1.7.6 2.4.3.7.9 1.4 1.5 1.8.7.5 1.5.7 2.3.7.9 0 1.7-.2 2.5-.6.5-.3 1-.7 1.4-1.2.1-.2.2-.3.4-.4.1-.1.3-.1.5-.1h.4c.2 0 .3 0 .4.1.1.1.2.2.2.4-.1.5-.3 1-.7 1.4-.6.6-1.3 1.1-2.1 1.4-.9.4-2 .6-3 .6-1.5.2-3-.4-4.1-1.6zm8.8-6.7v-.1c0-1.3-.4-2.6-1.2-3.6-.8-.9-2-1.4-3.3-1.4-1.2-.1-2.4.5-3.2 1.4-.8 1-1.2 2.3-1.2 3.6v.1h8.9zM240 88.8v1.4c0 .2-.1.3-.2.4-.1.1-.3.2-.5.2h-.5c-.2 0-.3 0-.5-.2-.1-.1-.2-.3-.2-.4V71.4c0-.3.2-.6.5-.6h.6c.3 0 .6.2.6.5V78c1.1-1.5 2.9-2.3 4.7-2.2 1.7-.1 3.4.6 4.5 2 1 1.4 1.5 3.1 1.5 4.8v1.6c0 1.7-.5 3.4-1.5 4.8-1.1 1.4-2.7 2.1-4.5 2-1.6.1-3.4-.7-4.5-2.2zm7.9-.9c.7-1.1 1.1-2.4 1.1-3.7v-.8c.1-1.5-.3-3-1-4.3-.8-1.2-2.1-1.8-3.5-1.7-.9 0-1.8.2-2.5.7-.7.4-1.2 1.1-1.5 1.8-.3.7-.5 1.5-.5 2.3v2.2c0 1.3.4 2.5 1.2 3.5.8 1 2 1.6 3.3 1.5 1.3 0 2.6-.5 3.4-1.5z" />
</svg>
