<svg enable-background="new 0 0 164 22" viewBox="0 0 164 22" xmlns="http://www.w3.org/2000/svg"><path clip-rule="evenodd" d="m-572-21.4c-1.1-.8-2.6-1.3-4.3-1.3-1.4 0-2.6.3-3.5 1-.5.4-1.1.9-1.6 1.7v-2.3h-4.4v15.7h4.5v-8.5c0-1 .1-1.8.4-2.4.6-1.2 1.6-1.8 3.1-1.8 1.2 0 2.1.4 2.5 1.2.2.4.4 1.1.4 1.9v9.5h4.6v-10.6c0-1.9-.6-3.3-1.7-4.1zm11.6-1.5c-3 0-5.2.8-6.6 2.5s-2.2 3.6-2.2 5.9.7 4.3 2.2 5.9 3.7 2.4 6.6 2.4c3 0 5.2-.8 6.6-2.5 1.4-1.6 2.2-3.6 2.2-5.9s-.7-4.2-2.2-5.9c-1.4-1.5-3.6-2.4-6.6-2.4zm3.1 12.1c-.7.9-1.7 1.3-3 1.3s-2.3-.4-3-1.3-1.1-2.1-1.1-3.6c0-1.6.4-2.8 1.1-3.6s1.7-1.3 3-1.3 2.3.4 3 1.3c.7.8 1.1 2.1 1.1 3.6-.1 1.5-.4 2.7-1.1 3.6zm-72.5-8.3c1.1 0 1.9.3 2.4.9.4.5.6 1 .7 1.6h4.6c-.3-2.2-1.1-3.8-2.4-4.7-1.4-.9-3.1-1.3-5.3-1.3-2.5 0-4.5.8-6 2.3-1.4 1.5-2.2 3.6-2.2 6.3 0 2.4.7 4.3 2 5.8s3.3 2.2 6.1 2.2 4.9-.9 6.3-2.7c.9-1.1 1.4-2.3 1.5-3.5h-4.6c-.1.8-.4 1.5-.8 2s-1.2.8-2.2.8c-1.5 0-2.5-.6-3-2-.3-.7-.4-1.6-.4-2.8s.1-2.2.4-2.9c.4-1.3 1.4-2 2.9-2zm40-2.3c-1.1-.8-2.6-1.3-4.3-1.3-1.4 0-2.6.3-3.5 1-.5.4-1.1.9-1.6 1.7v-2.3h-4.4v15.7h4.5v-8.5c0-1 .1-1.8.4-2.4.6-1.2 1.6-1.8 3.1-1.8 1.2 0 2.1.4 2.5 1.2.2.4.4 1.1.4 1.9v9.5h4.6v-10.6c0-1.8-.6-3.3-1.7-4.1zm53.3-.1c-1.1-.8-2.6-1.3-4.3-1.3-1.4 0-2.6.3-3.5 1-.5.4-1.1.9-1.6 1.7v-2.3h-4.4v15.7h4.5v-8.5c0-1 .1-1.8.4-2.4.6-1.2 1.6-1.8 3.1-1.8 1.2 0 2.1.4 2.5 1.2.2.4.4 1.1.4 1.9v9.5h4.6v-10.6c0-1.8-.5-3.2-1.7-4.1zm34.9-.3c-1.5-.7-3.1-1-5-1-2.9 0-5 .7-6.1 2.1-.7.9-1.2 2-1.3 3.4h4.3c.1-.6.3-1.1.6-1.4.4-.5 1.2-.7 2.3-.7 1 0 1.7.1 2.2.4.5.2.7.7.7 1.3 0 .5-.3.9-1 1.2-.4.1-1 .3-1.8.4l-1.5.2c-1.7.2-3.1.5-4 1-1.6.9-2.5 2.3-2.5 4.2 0 1.5.5 2.6 1.5 3.4s2.3 1.2 3.9 1.2c1.2 0 2.3-.3 3.3-.8.8-.4 1.5-1 2.2-1.6v1.8h4.3v-11.2c.1-1.9-.6-3.2-2.1-3.9zm-4.2 11.8c-.8.5-1.7.8-2.7.8-.6 0-1.1-.2-1.6-.5-.4-.3-.7-.8-.7-1.5 0-.8.4-1.4 1.1-1.7.4-.2 1.1-.4 2.1-.6l1-.2c.5-.1.9-.2 1.2-.3s.9-.2 1.2-.4v1.5c0 1.4-.8 2.4-1.6 2.9zm31.6-6.6c-.2-1.2-.7-2.3-1.4-3.2-.8-1.1-1.8-1.8-3-2.3s-2.5-.7-4-.7c-2.5 0-4.6.7-6.1 2.2-1.6 1.5-2.4 3.5-2.4 6.3 0 2.9.9 5 2.6 6.3 1.8 1.3 3.8 1.9 6.1 1.9 2.8 0 4.9-.8 6.5-2.3 1-1 1.5-1.9 1.7-2.8h-4.6c-.3.5-.6.8-.9 1.1-.6.5-1.5.7-2.5.7s-1.8-.2-2.5-.6c-1.1-.6-1.7-1.7-1.8-3.3h12.5c0-1.6-.1-2.6-.2-3.3zm-12.2.4c.2-1 .6-1.8 1.2-2.4s1.5-.9 2.7-.9c1.1 0 1.9.3 2.7.8.7.6 1.1 1.4 1.2 2.5zm-10.9-11.8v21.2h4.5v-21.2zm-23.5.1v7.1c-.5-.5-1-1-1.7-1.3-.8-.4-2.1-.6-3.1-.6-2.3 0-4.1.8-5.4 2.3s-2 3.6-2 6.3c0 2.3.7 4.2 2.1 5.7s3.1 2.2 5.1 2.2c1.2 0 2.6-.2 3.4-.6.7-.4 1.3-.9 1.9-1.6v1.7h4.4v-21.2zm-1.4 16.9c-.7.9-1.6 1.3-2.9 1.3s-2.2-.4-2.8-1.3-.9-2-.9-3.5c0-1.3.3-2.5.9-3.4s1.6-1.4 2.9-1.4c.9 0 1.6.2 2.3.7 1.1.8 1.6 2.2 1.6 4.1-.1 1.5-.4 2.6-1.1 3.5zm-85.7-10.6c-1.5-.7-3.1-1-5-1-2.9 0-5 .7-6.1 2.1-.7.9-1.2 2-1.3 3.4h4.3c.1-.6.3-1.1.6-1.4.4-.5 1.2-.7 2.3-.7 1 0 1.7.1 2.2.4.5.2.7.7.7 1.3 0 .5-.3.9-1 1.2-.4.1-1 .3-1.8.4l-1.5.2c-1.7.2-3.1.5-4 1-1.6.9-2.5 2.3-2.5 4.2 0 1.5.5 2.6 1.5 3.4s2.3 1.2 3.9 1.2c1.2 0 2.3-.3 3.3-.8.8-.4 1.5-1 2.2-1.6v1.8h4.3v-11.2c.1-2-.6-3.2-2.1-3.9zm-4.2 11.8c-.8.5-1.7.8-2.7.8-.6 0-1.1-.2-1.6-.5-.4-.3-.7-.8-.7-1.5 0-.8.4-1.4 1.1-1.7.4-.2 1.1-.4 2.1-.6l1-.2c.5-.1.9-.2 1.2-.3s.9-.2 1.2-.4v1.5c0 1.4-.7 2.3-1.6 2.9zm136.8-13.7h.2c.1 0 .2 0 .2-.2 0-.1-.1-.2-.2-.2h-.2zm-.2-.5h.4c.3 0 .5.1.5.4 0 .2-.1.3-.3.3l.3.5h-.2l-.3-.5h-.1v.5h-.2v-1.2zm.4 1.5c.4 0 .8-.4.8-.9s-.4-.8-.8-.8-.8.4-.8.8c0 .5.4.9.8.9zm0-1.9c.6 0 1.1.4 1.1 1.1s-.5 1.1-1.1 1.1-1.1-.4-1.1-1.1.5-1.1 1.1-1.1z" fill-rule="evenodd" transform="translate(638 28)"/></svg>