<?xml version="1.0" encoding="utf-8"?>
<!-- Generator: Adobe Illustrator 23.0.1, SVG Export Plug-In . SVG Version: 6.00 Build 0)  -->
<svg version="1.1" id="Layer_1" xmlns="http://www.w3.org/2000/svg" xmlns:xlink="http://www.w3.org/1999/xlink" x="0px" y="0px"
	 viewBox="0 0 164 22" style="enable-background:new 0 0 164 22;" xml:space="preserve">
<style type="text/css">
	.st0{fill-rule:evenodd;clip-rule:evenodd;}
</style>
<title>Logo/Black</title>
<desc>Created with Sketch.</desc>
<g transform="translate(638.000000, 28.000000)">
	<path id="Cannondale-logo" class="st0" d="M-572-21.4c-1.1-0.8-2.6-1.3-4.3-1.3c-1.4,0-2.6,0.3-3.5,1c-0.5,0.4-1.1,0.9-1.6,1.7
		l0-2.3l-4.4,0l0,15.7l4.5,0l0-8.5c0-1,0.1-1.8,0.4-2.4c0.6-1.2,1.6-1.8,3.1-1.8c1.2,0,2.1,0.4,2.5,1.2c0.2,0.4,0.4,1.1,0.4,1.9
		l0,9.5l4.6,0l0-10.6C-570.3-19.2-570.9-20.6-572-21.4z M-560.4-22.9c-3,0-5.2,0.8-6.6,2.5c-1.4,1.7-2.2,3.6-2.2,5.9
		c0,2.3,0.7,4.3,2.2,5.9c1.5,1.6,3.7,2.4,6.6,2.4c3,0,5.2-0.8,6.6-2.5c1.4-1.6,2.2-3.6,2.2-5.9c0-2.3-0.7-4.2-2.2-5.9
		C-555.2-22-557.4-22.9-560.4-22.9z M-557.3-10.8c-0.7,0.9-1.7,1.3-3,1.3c-1.3,0-2.3-0.4-3-1.3c-0.7-0.9-1.1-2.1-1.1-3.6
		c0-1.6,0.4-2.8,1.1-3.6c0.7-0.8,1.7-1.3,3-1.3c1.3,0,2.3,0.4,3,1.3c0.7,0.8,1.1,2.1,1.1,3.6C-556.3-12.9-556.6-11.7-557.3-10.8z
		 M-629.8-19.1c1.1,0,1.9,0.3,2.4,0.9c0.4,0.5,0.6,1,0.7,1.6l4.6,0c-0.3-2.2-1.1-3.8-2.4-4.7c-1.4-0.9-3.1-1.3-5.3-1.3
		c-2.5,0-4.5,0.8-6,2.3c-1.4,1.5-2.2,3.6-2.2,6.3c0,2.4,0.7,4.3,2,5.8c1.3,1.5,3.3,2.2,6.1,2.2c2.8,0,4.9-0.9,6.3-2.7
		c0.9-1.1,1.4-2.3,1.5-3.5l-4.6,0c-0.1,0.8-0.4,1.5-0.8,2c-0.4,0.5-1.2,0.8-2.2,0.8c-1.5,0-2.5-0.6-3-2c-0.3-0.7-0.4-1.6-0.4-2.8
		c0-1.2,0.1-2.2,0.4-2.9C-632.3-18.4-631.3-19.1-629.8-19.1z M-589.8-21.4c-1.1-0.8-2.6-1.3-4.3-1.3c-1.4,0-2.6,0.3-3.5,1
		c-0.5,0.4-1.1,0.9-1.6,1.7v-2.3l-4.4,0l0,15.7l4.5,0l0-8.5c0-1,0.1-1.8,0.4-2.4c0.6-1.2,1.6-1.8,3.1-1.8c1.2,0,2.1,0.4,2.5,1.2
		c0.2,0.4,0.4,1.1,0.4,1.9l0,9.5l4.6,0l0-10.6C-588.1-19.1-588.7-20.6-589.8-21.4z M-536.5-21.5c-1.1-0.8-2.6-1.3-4.3-1.3
		c-1.4,0-2.6,0.3-3.5,1c-0.5,0.4-1.1,0.9-1.6,1.7l0-2.3l-4.4,0l0,15.7l4.5,0l0-8.5c0-1,0.1-1.8,0.4-2.4c0.6-1.2,1.6-1.8,3.1-1.8
		c1.2,0,2.1,0.4,2.5,1.2c0.2,0.4,0.4,1.1,0.4,1.9l0,9.5l4.6,0l0-10.6C-534.8-19.2-535.3-20.6-536.5-21.5z M-501.6-21.8
		c-1.5-0.7-3.1-1-5-1c-2.9,0-5,0.7-6.1,2.1c-0.7,0.9-1.2,2-1.3,3.4l4.3,0c0.1-0.6,0.3-1.1,0.6-1.4c0.4-0.5,1.2-0.7,2.3-0.7
		c1,0,1.7,0.1,2.2,0.4c0.5,0.2,0.7,0.7,0.7,1.3c0,0.5-0.3,0.9-1,1.2c-0.4,0.1-1,0.3-1.8,0.4l-1.5,0.2c-1.7,0.2-3.1,0.5-4,1
		c-1.6,0.9-2.5,2.3-2.5,4.2c0,1.5,0.5,2.6,1.5,3.4c1,0.8,2.3,1.2,3.9,1.2c1.2,0,2.3-0.3,3.3-0.8c0.8-0.4,1.5-1,2.2-1.6l0,0l0,1.8
		l4.3,0l0-11.2C-499.4-19.8-500.1-21.1-501.6-21.8z M-505.8-10c-0.8,0.5-1.7,0.8-2.7,0.8c-0.6,0-1.1-0.2-1.6-0.5
		c-0.4-0.3-0.7-0.8-0.7-1.5c0-0.8,0.4-1.4,1.1-1.7c0.4-0.2,1.1-0.4,2.1-0.6l1-0.2c0.5-0.1,0.9-0.2,1.2-0.3c0.3-0.1,0.9-0.2,1.2-0.4
		l0,1.5C-504.2-11.5-505-10.5-505.8-10z M-474.2-16.6c-0.2-1.2-0.7-2.3-1.4-3.2c-0.8-1.1-1.8-1.8-3-2.3c-1.2-0.5-2.5-0.7-4-0.7
		c-2.5,0-4.6,0.7-6.1,2.2c-1.6,1.5-2.4,3.5-2.4,6.3c0,2.9,0.9,5,2.6,6.3c1.8,1.3,3.8,1.9,6.1,1.9c2.8,0,4.9-0.8,6.5-2.3
		c1-1,1.5-1.9,1.7-2.8l-4.6,0c-0.3,0.5-0.6,0.8-0.9,1.1c-0.6,0.5-1.5,0.7-2.5,0.7c-1,0-1.8-0.2-2.5-0.6c-1.1-0.6-1.7-1.7-1.8-3.3
		l12.5,0C-474-14.9-474.1-15.9-474.2-16.6z M-486.4-16.2c0.2-1,0.6-1.8,1.2-2.4c0.6-0.6,1.5-0.9,2.7-0.9c1.1,0,1.9,0.3,2.7,0.8
		c0.7,0.6,1.1,1.4,1.2,2.5L-486.4-16.2z M-497.3-28l0,21.2l4.5,0l0-21.2L-497.3-28z M-520.8-27.9l0,7.1c-0.5-0.5-1-1-1.7-1.3
		c-0.8-0.4-2.1-0.6-3.1-0.6c-2.3,0-4.1,0.8-5.4,2.3c-1.3,1.5-2,3.6-2,6.3c0,2.3,0.7,4.2,2.1,5.7c1.4,1.5,3.1,2.2,5.1,2.2
		c1.2,0,2.6-0.2,3.4-0.6c0.7-0.4,1.3-0.9,1.9-1.6l0,1.7l4.4,0l0-21.2L-520.8-27.9z M-522.2-11c-0.7,0.9-1.6,1.3-2.9,1.3
		c-1.3,0-2.2-0.4-2.8-1.3c-0.6-0.9-0.9-2-0.9-3.5c0-1.3,0.3-2.5,0.9-3.4c0.6-0.9,1.6-1.4,2.9-1.4c0.9,0,1.6,0.2,2.3,0.7
		c1.1,0.8,1.6,2.2,1.6,4.1C-521.2-13-521.5-11.9-522.2-11z M-607.9-21.6c-1.5-0.7-3.1-1-5-1c-2.9,0-5,0.7-6.1,2.1
		c-0.7,0.9-1.2,2-1.3,3.4l4.3,0c0.1-0.6,0.3-1.1,0.6-1.4c0.4-0.5,1.2-0.7,2.3-0.7c1,0,1.7,0.1,2.2,0.4c0.5,0.2,0.7,0.7,0.7,1.3
		c0,0.5-0.3,0.9-1,1.2c-0.4,0.1-1,0.3-1.8,0.4l-1.5,0.2c-1.7,0.2-3.1,0.5-4,1c-1.6,0.9-2.5,2.3-2.5,4.2c0,1.5,0.5,2.6,1.5,3.4
		c1,0.8,2.3,1.2,3.9,1.2c1.2,0,2.3-0.3,3.3-0.8c0.8-0.4,1.5-1,2.2-1.6l0,0l0,1.8l4.3,0l0-11.2C-605.7-19.7-606.4-20.9-607.9-21.6z
		 M-612.1-9.8c-0.8,0.5-1.7,0.8-2.7,0.8c-0.6,0-1.1-0.2-1.6-0.5c-0.4-0.3-0.7-0.8-0.7-1.5c0-0.8,0.4-1.4,1.1-1.7
		c0.4-0.2,1.1-0.4,2.1-0.6l1-0.2c0.5-0.1,0.9-0.2,1.2-0.3c0.3-0.1,0.9-0.2,1.2-0.4l0,1.5C-610.5-11.3-611.2-10.4-612.1-9.8z
		 M-475.3-23.5h0.2c0.1,0,0.2,0,0.2-0.2c0-0.1-0.1-0.2-0.2-0.2h-0.2V-23.5z M-475.5-24h0.4c0.3,0,0.5,0.1,0.5,0.4
		c0,0.2-0.1,0.3-0.3,0.3l0.3,0.5h-0.2l-0.3-0.5h-0.1v0.5h-0.2V-24z M-475.1-22.5c0.4,0,0.8-0.4,0.8-0.9c0-0.5-0.4-0.8-0.8-0.8
		c-0.4,0-0.8,0.4-0.8,0.8C-475.9-22.9-475.5-22.5-475.1-22.5z M-475.1-24.4c0.6,0,1.1,0.4,1.1,1.1c0,0.7-0.5,1.1-1.1,1.1
		c-0.6,0-1.1-0.4-1.1-1.1C-476.2-24-475.7-24.4-475.1-24.4z"/>
</g>
</svg>
