<svg xmlns="http://www.w3.org/2000/svg" width="536.434" height="58" viewBox="0 0 536.434 58">
  <style type="text/css">
    .st0{fill:#F16932;}
    .st1{fill:currentColor;}
  </style>
  <g transform="translate(285.934 -51.487)">
    <path class="st1" d="M249.4,7.5a2.515,2.515,0,0,1-2.3,1H234c-1,0-1.2.2-1.2,1.2V53.2c0,2.1-.5,2.6-2.6,2.6h-2.8c-1.9,0-2.4-.5-2.4-2.4V9.6c0-.8-.2-1.1-1.1-1.1H210.5c-1.7,0-2.3-.5-2.3-2.3V3.6a1.805,1.805,0,0,1,1.6-2h37.4a2.518,2.518,0,0,1,2,.9Z" transform="translate(-286.601 52.006)"/>
    <path class="st1" d="M94.4,57,89.7,45.8,84.9,34.7C81.6,42.3,78.3,49.6,75,57c-1.5-3.4-2.9-6.6-4.3-9.8a1.183,1.183,0,0,1,.1-1L89.9,1.4a.882.882,0,0,1,.9-.8h8.1l-4,9.9c-1.7,4.2-3.5,8.4-5.2,12.6a1.322,1.322,0,0,0-.2,1.2c1.7,4.1,3.4,8.2,5.1,12.5L100,23.9l9.3-22.2A1.645,1.645,0,0,1,111.1.5c2.5.1,4.9,0,7.6,0Z" transform="translate(-286.601 52.006)"/>
    <path class="st1" d="M21.7,56.6c-5.2,0-10.3-.9-14.7-3.9A13.593,13.593,0,0,1,.7,42.9a1.791,1.791,0,0,1,2-2.3H6.3a2.048,2.048,0,0,1,2.1,1.5c1.4,4.7,4.8,6.9,9.4,7.7a23.739,23.739,0,0,0,10.6-.6c4-1.2,6.2-4,6.2-7.8a6.593,6.593,0,0,0-3.1-5.5,30.577,30.577,0,0,0-7.7-3.2c-3.7-1.2-7.5-2.1-11.1-3.6-.9-.4-1.8-.8-2.6-1.2-4.9-2.4-7.7-6.2-7.8-11.8A13.264,13.264,0,0,1,9.4,3.6C15.5-.1,27.9-.7,35,5a14.788,14.788,0,0,1,5.5,8.3,7.719,7.719,0,0,1,.2,1.5,1.3,1.3,0,0,1-1.2,1.5H34.6A1.617,1.617,0,0,1,33,14.9c-.8-4.1-3.7-6.1-7.4-7.1a18.572,18.572,0,0,0-10.7.7,7.2,7.2,0,0,0-4.8,8.8,6.524,6.524,0,0,0,2.8,3.9A26.693,26.693,0,0,0,20,24.4c4.4,1.5,9,2.4,13.3,4.3h.1c5.5,2.3,8.9,6,8.9,12.3s-3,10.7-8.6,13.4A27.534,27.534,0,0,1,21.7,56.6Z" transform="translate(-286.601 52.006)"/>
    <path class="st1" d="M161.7,28.7V4.2c0-2.1.5-2.6,2.6-2.6h30.1c2.3,0,2.7.4,2.7,2.7V6.2c0,1.5-.6,2.1-2.1,2.1H170.6c-1.1,0-1.3.3-1.3,1.3.1,5.2.1,10.4,0,15.7,0,.9.2,1.1,1.1,1.1H193c2,0,2.5.5,2.5,2.4V31c0,1.5-.6,2.2-2.2,2.2h-23c-.9,0-1.1.2-1.1,1V53.5c0,1.9-.5,2.4-2.4,2.4h-3c-1.6,0-2.1-.6-2.2-2.2V41.6Z" transform="translate(-286.601 52.006)"/>
    <path class="st0" d="M68.2,42.6,50.5.7H85.1c.7,0,1.3-.1.8,1-5.8,13.5-11.7,27-17.4,40.5C68.4,42.2,68.3,42.3,68.2,42.6Z" transform="translate(-286.601 52.006)" />
    <path class="st1" d="M142,28.7V53.6c0,1.8-.5,2.3-2.3,2.3h-3.4c-1.5,0-2.1-.6-2.1-2.1V4c0-1.9.5-2.4,2.4-2.4h3.2c1.5,0,2.1.6,2.1,2.1C142,12,142,20.4,142,28.7Z" transform="translate(-286.601 52.006)"/>
    <path class="st1" d="M1.2,90.5a.52.52,0,0,1-.2-.4V71.7c0-.2.1-.3.2-.5a.758.758,0,0,1,.4-.2H9a5.8,5.8,0,0,1,4.2,1.4A5.426,5.426,0,0,1,14.6,76a4.953,4.953,0,0,1-.7,2.7,3.53,3.53,0,0,1-1.7,1.5,5.2,5.2,0,0,1,2,1.9,4.764,4.764,0,0,1,.9,2.9,4.953,4.953,0,0,1-.7,2.7,6.365,6.365,0,0,1-2,2,6.806,6.806,0,0,1-3.1.8H1.6A.3.3,0,0,1,1.2,90.5ZM8.6,79.6a4.369,4.369,0,0,0,3.1-.9,3.467,3.467,0,0,0,1.1-2.6,2.71,2.71,0,0,0-1.1-2.5,4.831,4.831,0,0,0-3.1-.8H2.8v6.8ZM8.9,89a4.2,4.2,0,0,0,3.2-1.1,4.047,4.047,0,0,0,0-5.6,4.629,4.629,0,0,0-3.2-1.1H2.8V89Z"/>
    <path class="st1" d="M25.2,95.8a.52.52,0,0,1-.2-.4,1.421,1.421,0,0,1,.2-.6l2.2-5L22,77.2c-.1-.2-.1-.4-.2-.6,0-.3.3-.5.6-.6H23a.675.675,0,0,1,.6.4l4.7,11.1,4.8-11.1a.67.67,0,0,1,.7-.4h.6c.3,0,.5.3.6.6a1.421,1.421,0,0,1-.2.6l-8,18.3a.67.67,0,0,1-.7.4h-.6C25.4,96,25.3,95.9,25.2,95.8Z"/>
    <path class="st1" d="M53.4,90.5a.758.758,0,0,1-.2-.4V71.7c0-.2.1-.3.2-.5a.758.758,0,0,1,.4-.2h6a10.172,10.172,0,0,1,4.6.8,4.878,4.878,0,0,1,2.4,2.5,12.046,12.046,0,0,1,.8,4.2v4.4a10.6,10.6,0,0,1-.8,4.3,4.685,4.685,0,0,1-2.4,2.4,9.986,9.986,0,0,1-4.5.8H53.8C53.7,90.7,53.5,90.6,53.4,90.5ZM59.8,89a8.342,8.342,0,0,0,3.5-.6,4.36,4.36,0,0,0,1.9-1.9,10.46,10.46,0,0,0,.6-3.6V78.7a6.406,6.406,0,0,0-1.5-4.6c-.9-1-2.5-1.4-4.7-1.4H55V89Z"/>
    <path class="st1" d="M78,95.8a.52.52,0,0,1-.2-.4,1.421,1.421,0,0,1,.2-.6l2.2-5L74.9,77.2c-.1-.2-.1-.4-.2-.6a.758.758,0,0,1,.2-.4.52.52,0,0,1,.4-.2h.6a.675.675,0,0,1,.6.4l4.7,11.1,4.8-11a.622.622,0,0,1,.6-.4h.6a.707.707,0,0,1,.6.6,1.421,1.421,0,0,1-.2.6l-8,18.3a.822.822,0,0,1-.6.4h-.6A.52.52,0,0,1,78,95.8Z"/>
    <path class="st1" d="M95.2,90.5a.52.52,0,0,1-.2-.4V76.7a.56.56,0,0,1,.5-.6h.6a.52.52,0,0,1,.4.2.758.758,0,0,1,.2.4V78a6.136,6.136,0,0,1,1.9-1.7,6.71,6.71,0,0,1,2.8-.6,4.855,4.855,0,0,1,4.2,1.8,6.8,6.8,0,0,1,1.5,4.5v8a.52.52,0,0,1-.2.4.758.758,0,0,1-.4.2H106c-.2,0-.3,0-.4-.2a.758.758,0,0,1-.2-.4V82.1a4.908,4.908,0,0,0-1.1-3.5,3.818,3.818,0,0,0-3.2-1.2,3.894,3.894,0,0,0-3.2,1.3,4.569,4.569,0,0,0-1.2,3.5v7.9c0,.2,0,.3-.2.4a.758.758,0,0,1-.4.2h-.5A.758.758,0,0,1,95.2,90.5Z"/>
    <path class="st1" d="M117.1,90.4a4.41,4.41,0,0,1-1.8-1.5,3.771,3.771,0,0,1-.7-2.1,3.564,3.564,0,0,1,1.5-3,8.518,8.518,0,0,1,4-1.5l4.4-.6v-1a3.021,3.021,0,0,0-.9-2.4,4.137,4.137,0,0,0-2.9-.8,4.645,4.645,0,0,0-2.3.6,3,3,0,0,0-1.2,1.3c0,.2-.1.3-.3.5a.6.6,0,0,1-.4.1h-.4a.645.645,0,0,1-.6-.6,1.974,1.974,0,0,1,.6-1.4,5.525,5.525,0,0,1,1.7-1.4,7.173,7.173,0,0,1,2.9-.6,5.837,5.837,0,0,1,4.3,1.4,5.6,5.6,0,0,1,1.3,3.5v9.4a.52.52,0,0,1-.2.4.758.758,0,0,1-.4.2h-.5c-.2,0-.3,0-.4-.2a.758.758,0,0,1-.2-.4V89a5.48,5.48,0,0,1-1.8,1.6,5.748,5.748,0,0,1-3.1.6A9.9,9.9,0,0,1,117.1,90.4Zm6.2-2.4a5.594,5.594,0,0,0,1.3-3.9v-1l-3.6.5a8.944,8.944,0,0,0-3.5,1.1,2.241,2.241,0,0,0-1.2,1.9,2.305,2.305,0,0,0,1.1,2,4.514,4.514,0,0,0,2.5.7A4.3,4.3,0,0,0,123.3,88Z"/>
    <path class="st1" d="M135.1,90.5a.758.758,0,0,1-.2-.4V76.7a.56.56,0,0,1,.5-.6h.6a.52.52,0,0,1,.4.2.758.758,0,0,1,.2.4v1a4.573,4.573,0,0,1,1.7-1.4,5.932,5.932,0,0,1,2.3-.5,4.665,4.665,0,0,1,4.5,2.6,4.361,4.361,0,0,1,1.9-1.9,5.918,5.918,0,0,1,2.9-.7,5.066,5.066,0,0,1,3.8,1.6,6.226,6.226,0,0,1,1.4,4.5v8.2a.56.56,0,0,1-.5.6H154a.52.52,0,0,1-.4-.2.758.758,0,0,1-.2-.4V82.2a5.089,5.089,0,0,0-1-3.6,3.928,3.928,0,0,0-2.8-1.1,3.631,3.631,0,0,0-2.6,1.1,5.158,5.158,0,0,0-1.1,3.6v7.9c0,.2,0,.3-.2.4a.758.758,0,0,1-.4.2h-.5a.52.52,0,0,1-.4-.2.758.758,0,0,1-.2-.4V82.2a4.8,4.8,0,0,0-1.2-3.6,3.864,3.864,0,0,0-2.7-1.1,3.631,3.631,0,0,0-2.6,1.1,5.158,5.158,0,0,0-1.1,3.6v7.9c0,.2,0,.3-.2.4a.758.758,0,0,1-.4.2h-.5A.519.519,0,0,1,135.1,90.5Z"/>
    <path class="st1" d="M163.5,73a.758.758,0,0,1-.2-.4V71.5c0-.2.1-.3.2-.5a.758.758,0,0,1,.4-.2h1c.2,0,.3.1.5.2a.764.764,0,0,1,.2.5v1.1a.52.52,0,0,1-.2.4.764.764,0,0,1-.5.2h-1C163.8,73.1,163.6,73.1,163.5,73Zm.3,17.5a.758.758,0,0,1-.2-.4V76.7a.56.56,0,0,1,.5-.6h.6a.56.56,0,0,1,.6.5V90.1a.52.52,0,0,1-.2.4.758.758,0,0,1-.4.2h-.5a.758.758,0,0,1-.4-.2Z"/>
    <path class="st1" d="M175.1,89.3a7.4,7.4,0,0,1-1.7-4.8V82.3a7.814,7.814,0,0,1,1.7-4.8,5.8,5.8,0,0,1,4.5-1.7,6.428,6.428,0,0,1,3.1.7,4.7,4.7,0,0,1,2,1.7,4.05,4.05,0,0,1,.7,2.1c0,.2,0,.3-.2.4a.758.758,0,0,1-.4.2h-.4a.6.6,0,0,1-.4-.1,2.186,2.186,0,0,1-.3-.5,3.976,3.976,0,0,0-1.6-2.2,4.845,4.845,0,0,0-2.6-.7,4.284,4.284,0,0,0-3.2,1.2,5.583,5.583,0,0,0-1.3,3.7v2a4.966,4.966,0,0,0,1.3,3.7,4.144,4.144,0,0,0,3.2,1.2,4.845,4.845,0,0,0,2.6-.7,4.517,4.517,0,0,0,1.6-2.2,1.332,1.332,0,0,1,.3-.5.6.6,0,0,1,.4-.1h.4a.52.52,0,0,1,.4.2.758.758,0,0,1,.2.4,3.771,3.771,0,0,1-.7,2.1,5.51,5.51,0,0,1-2,1.7,6.99,6.99,0,0,1-3.1.7A5.04,5.04,0,0,1,175.1,89.3Z"/>
    <path class="st1" d="M196.2,90.5a.55.55,0,0,1-.3-.5L192,77l-.1-.3a.758.758,0,0,1,.2-.4.52.52,0,0,1,.4-.2h.6c.2,0,.3,0,.4.1s.2.2.2.3l3.4,11.7,3.7-11.5c0-.2.1-.3.3-.4a.764.764,0,0,1,.5-.2h.6a.764.764,0,0,1,.5.2,1.38,1.38,0,0,1,.3.4l3.7,11.5,3.4-11.7c0-.1.1-.2.2-.3a.6.6,0,0,1,.4-.1h.5c.3,0,.5.3.6.6l-.1.3-3.9,13a2.186,2.186,0,0,1-.3.5,1.421,1.421,0,0,1-.6.2h-.5a.824.824,0,0,1-1-.7l-3.5-11-3.5,11a.961.961,0,0,1-.9.7H197C196.5,90.7,196.3,90.6,196.2,90.5Z"/>
    <path class="st1" d="M219.9,89.2a8.156,8.156,0,0,1-1.9-4.7V82.3a8.042,8.042,0,0,1,1.8-4.7,6.276,6.276,0,0,1,8.9.1,7.291,7.291,0,0,1,1.6,5.3v.4a.52.52,0,0,1-.2.4.764.764,0,0,1-.5.2h-10v.3a5.025,5.025,0,0,0,.6,2.4,4.41,4.41,0,0,0,1.5,1.8,3.891,3.891,0,0,0,2.3.7,5.421,5.421,0,0,0,2.5-.6,5.263,5.263,0,0,0,1.4-1.2.781.781,0,0,1,.4-.4.749.749,0,0,1,.5-.1h.4c.2,0,.3,0,.4.1a.52.52,0,0,1,.2.4,2.666,2.666,0,0,1-.7,1.4,5.957,5.957,0,0,1-2.1,1.4,7.653,7.653,0,0,1-3,.6A4.724,4.724,0,0,1,219.9,89.2Zm8.8-6.7v-.1a5.782,5.782,0,0,0-1.2-3.6,4.374,4.374,0,0,0-3.3-1.4,3.979,3.979,0,0,0-3.2,1.4,5.782,5.782,0,0,0-1.2,3.6v.1Z"/>
    <path class="st1" d="M240,88.8v1.4a.52.52,0,0,1-.2.4.764.764,0,0,1-.5.2h-.5a.551.551,0,0,1-.5-.2.758.758,0,0,1-.2-.4V71.4a.56.56,0,0,1,.5-.6h.6a.56.56,0,0,1,.6.5V78a5.469,5.469,0,0,1,4.7-2.2,5.309,5.309,0,0,1,4.5,2,8.271,8.271,0,0,1,1.5,4.8v1.6A8.271,8.271,0,0,1,249,89a5.194,5.194,0,0,1-4.5,2A5.352,5.352,0,0,1,240,88.8Zm7.9-.9a6.959,6.959,0,0,0,1.1-3.7v-.8a8.034,8.034,0,0,0-1-4.3,3.794,3.794,0,0,0-3.5-1.7,4.3,4.3,0,0,0-2.5.7,3.758,3.758,0,0,0-1.5,1.8,5.932,5.932,0,0,0-.5,2.3v2.2a5.5,5.5,0,0,0,1.2,3.5,3.851,3.851,0,0,0,3.3,1.5,4.331,4.331,0,0,0,3.4-1.5Z"/>
    <path class="st1" d="M1.5,0A1.5,1.5,0,0,1,3,1.5v55a1.5,1.5,0,0,1-3,0V1.5A1.5,1.5,0,0,1,1.5,0Z" transform="translate(-26.333 51.487)" />
  </g>
</svg>