<svg version="1.1" id="Swift_logo_final_Image" xmlns="http://www.w3.org/2000/svg" xmlns:xlink="http://www.w3.org/1999/xlink"
	 x="0px" y="0px" viewBox="0 0 251.1 58" style="enable-background:new 0 0 251.1 58;" xml:space="preserve">
<style type="text/css">
	.st0{fill:#F16932;}
</style>
<path d="M249.4,7.5c-0.5,0.7-1.4,1.1-2.3,1c-4.4,0-8.7,0-13.1,0c-1,0-1.2,0.2-1.2,1.2c0,14.5,0,29,0,43.5c0,2.1-0.5,2.6-2.6,2.6
	h-2.8c-1.9,0-2.4-0.5-2.4-2.4V25c0-5.1,0-10.3,0-15.4c0-0.8-0.2-1.1-1.1-1.1c-4.5,0-8.9,0-13.4,0c-1.7,0-2.3-0.5-2.3-2.3
	c0-0.9,0-1.8,0-2.6c-0.1-1,0.6-1.9,1.6-2c0.1,0,0.3,0,0.4,0c12.3,0,24.7,0,37,0c0.8,0,1.5,0.3,2,0.9L249.4,7.5z"/>
<path d="M94.4,57l-4.7-11.2l-4.8-11.1C81.6,42.3,78.3,49.6,75,57c-1.5-3.4-2.9-6.6-4.3-9.8c-0.1-0.3-0.1-0.7,0.1-1L89.9,1.4
	C90,1,90.2,0.6,90.8,0.6c2.7,0,5.3,0,8.1,0l-4,9.9c-1.7,4.2-3.5,8.4-5.2,12.6c-0.2,0.4-0.4,0.8-0.2,1.2c1.7,4.1,3.4,8.2,5.1,12.5
	l5.4-12.9c3.1-7.4,6.2-14.8,9.3-22.2c0.2-0.8,1-1.3,1.8-1.2c2.5,0.1,4.9,0,7.6,0L94.4,57z"/>
<path d="M21.7,56.6c-5.2,0-10.3-0.9-14.7-3.9c-3.5-2.2-5.8-5.8-6.3-9.8c-0.2-1.5,0.5-2.3,2-2.3c1.2,0,2.4,0,3.6,0
	c1-0.1,1.8,0.6,2.1,1.5c1.4,4.7,4.8,6.9,9.4,7.7c3.5,0.6,7.2,0.4,10.6-0.6c4-1.2,6.2-4,6.2-7.8c0-2.2-1.2-4.3-3.1-5.5
	c-2.4-1.4-5-2.5-7.7-3.2c-3.7-1.2-7.5-2.1-11.1-3.6c-0.9-0.4-1.8-0.8-2.6-1.2c-4.9-2.4-7.7-6.2-7.8-11.8S4.6,6.4,9.4,3.6
	C15.5-0.1,27.9-0.7,35,5c2.7,2,4.7,5,5.5,8.3c0.1,0.5,0.2,1,0.2,1.5c0.1,0.8-0.5,1.5-1.2,1.5c-0.1,0-0.2,0-0.2,0c-1.6,0-3.1,0-4.7,0
	c-0.8,0-1.5-0.6-1.6-1.4c-0.8-4.1-3.7-6.1-7.4-7.1C22,7,18.3,7.2,14.9,8.5c-3.7,1.1-5.8,5-4.8,8.8c0.4,1.6,1.4,3,2.8,3.9
	c2.2,1.4,4.6,2.5,7.1,3.2c4.4,1.5,9,2.4,13.3,4.3h0.1c5.5,2.3,8.9,6,8.9,12.3s-3,10.7-8.6,13.4C29.9,56,25.8,56.8,21.7,56.6z"/>
<path d="M161.7,28.7V4.2c0-2.1,0.5-2.6,2.6-2.6h30.1c2.3,0,2.7,0.4,2.7,2.7v1.9c0,1.5-0.6,2.1-2.1,2.1h-13.9c-3.5,0-7,0-10.5,0
	c-1.1,0-1.3,0.3-1.3,1.3c0.1,5.2,0.1,10.4,0,15.7c0,0.9,0.2,1.1,1.1,1.1c7.6,0,15.1,0,22.6,0c2,0,2.5,0.5,2.5,2.4c0,0.7,0,1.4,0,2.2
	c0,1.5-0.6,2.2-2.2,2.2c-3.9,0-7.8,0-11.6,0s-7.6,0-11.4,0c-0.9,0-1.1,0.2-1.1,1c0,6.4,0,12.8,0,19.3c0,1.9-0.5,2.4-2.4,2.4
	c-1,0-2,0-3,0c-1.6,0-2.1-0.6-2.2-2.2c0-4,0-8,0-12.1L161.7,28.7z"/>
<path class="st0" d="M68.2,42.6L50.5,0.7c0.4,0,0.8,0,1.1,0h33.5c0.7,0,1.3-0.1,0.8,1c-5.8,13.5-11.7,27-17.4,40.5
	C68.4,42.2,68.3,42.3,68.2,42.6z"/>
<path d="M142,28.7v24.9c0,1.8-0.5,2.3-2.3,2.3c-1.1,0-2.2,0-3.4,0c-1.5,0-2.1-0.6-2.1-2.1c0-7,0-13.9,0-20.9V4
	c0-1.9,0.5-2.4,2.4-2.4c1.1,0,2.1,0,3.2,0c1.5,0,2.1,0.6,2.1,2.1C142,12,142,20.4,142,28.7z"/>
</svg>
