<svg xmlns="http://www.w3.org/2000/svg" width="404" height="299" viewBox="0 0 404 299">
  <g id="BasicPlus" transform="translate(-51 403)">
    <rect id="bg" width="404" height="299" transform="translate(51 -403)" fill="none"/>
    <g id="accordion" transform="translate(0 26)">
      <g id="item" transform="translate(103 -251)" fill="none" stroke="#bfbfbf" stroke-width="1">
        <path d="M0,0H300a0,0,0,0,1,0,0V55a3,3,0,0,1-3,3H3a3,3,0,0,1-3-3V0A0,0,0,0,1,0,0Z" stroke="none"/>
        <path d="M.5.5h299a0,0,0,0,1,0,0V55a2.5,2.5,0,0,1-2.5,2.5H3A2.5,2.5,0,0,1,.5,55V.5A0,0,0,0,1,.5.5Z" fill="none"/>
      </g>
      <path id="plus" d="M25.692,48.692a.692.692,0,0,0-1.385,0v7.615H16.692a.692.692,0,1,0,0,1.385h7.615v7.615a.692.692,0,0,0,1.385,0V57.692h7.615a.692.692,0,0,0,0-1.385H25.692Z" transform="translate(354 -278.5)" stroke="#4d4d4d" stroke-width="1"/>
      <g id="item-2" data-name="item" transform="translate(103 -308)" fill="none" stroke="#bfbfbf" stroke-width="1">
        <rect width="300" height="58" stroke="none"/>
        <rect x="0.5" y="0.5" width="299" height="57" fill="none"/>
      </g>
      <path id="plus-2" data-name="plus" d="M25.692,48.692a.692.692,0,0,0-1.385,0v7.615H16.692a.692.692,0,1,0,0,1.385h7.615v7.615a.692.692,0,0,0,1.385,0V57.692h7.615a.692.692,0,0,0,0-1.385H25.692Z" transform="translate(354 -335.5)" stroke="#4d4d4d" stroke-width="1"/>
      <g id="item-3" data-name="item" transform="translate(103 -365)" fill="none" stroke="#bfbfbf" stroke-width="1">
        <path d="M3,0H297a3,3,0,0,1,3,3V58a0,0,0,0,1,0,0H0a0,0,0,0,1,0,0V3A3,3,0,0,1,3,0Z" stroke="none"/>
        <path d="M3,.5H297A2.5,2.5,0,0,1,299.5,3V57.5a0,0,0,0,1,0,0H.5a0,0,0,0,1,0,0V3A2.5,2.5,0,0,1,3,.5Z" fill="none"/>
      </g>
      <path id="plus-3" data-name="plus" d="M25.692,48.692a.692.692,0,0,0-1.385,0v7.615H16.692a.692.692,0,1,0,0,1.385h7.615v7.615a.692.692,0,0,0,1.385,0V57.692h7.615a.692.692,0,0,0,0-1.385H25.692Z" transform="translate(355 -392.5)" stroke="#4d4d4d" stroke-width="1"/>
    </g>
  </g>
</svg>
