<svg xmlns="http://www.w3.org/2000/svg" width="404" height="299" viewBox="0 0 404 299">
  <g id="FlushPlus" transform="translate(-51 403)">
    <rect id="bg" width="404" height="299" transform="translate(51 -403)" fill="none"/>
    <g id="accordion" transform="translate(0 141)">
      <line id="Border" x2="300" transform="translate(103 -307)" fill="none" stroke="#d8d8d8" stroke-width="3"/>
      <path id="item" d="M3,0H297a3,3,0,0,1,3,3V58a0,0,0,0,1,0,0H0a0,0,0,0,1,0,0V3A3,3,0,0,1,3,0Z" transform="translate(103 -365)" fill="#fff"/>
      <rect id="Text" width="160" height="11" transform="translate(137 -341)" fill="#d8d8d8"/>
      <path id="plus" d="M25.692,48.692a.692.692,0,0,0-1.385,0v7.615H16.692a.692.692,0,1,0,0,1.385h7.615v7.615a.692.692,0,0,0,1.385,0V57.692h7.615a.692.692,0,0,0,0-1.385H25.692Z" transform="translate(349 -392.5)" stroke="#4d4d4d" stroke-width="1"/>
    </g>
    <g id="accordion-2" data-name="accordion" transform="translate(0 83)">
      <line id="Border-2" data-name="Border" x2="300" transform="translate(103 -307)" fill="none" stroke="#d8d8d8" stroke-width="3"/>
      <path id="item-2" data-name="item" d="M3,0H297a3,3,0,0,1,3,3V58a0,0,0,0,1,0,0H0a0,0,0,0,1,0,0V3A3,3,0,0,1,3,0Z" transform="translate(103 -365)" fill="#fff"/>
      <rect id="Text-2" data-name="Text" width="160" height="11" transform="translate(137 -341)" fill="#d8d8d8"/>
      <path id="plus-2" data-name="plus" d="M25.692,48.692a.692.692,0,0,0-1.385,0v7.615H16.692a.692.692,0,1,0,0,1.385h7.615v7.615a.692.692,0,0,0,1.385,0V57.692h7.615a.692.692,0,0,0,0-1.385H25.692Z" transform="translate(349 -392.5)" stroke="#4d4d4d" stroke-width="1"/>
    </g>
    <g id="accordion-3" data-name="accordion" transform="translate(0 25)">
      <line id="Border-3" data-name="Border" x2="300" transform="translate(103 -307)" fill="none" stroke="#d8d8d8" stroke-width="3"/>
      <path id="item-3" data-name="item" d="M3,0H297a3,3,0,0,1,3,3V58a0,0,0,0,1,0,0H0a0,0,0,0,1,0,0V3A3,3,0,0,1,3,0Z" transform="translate(103 -365)" fill="#fff"/>
      <rect id="Text-3" data-name="Text" width="160" height="11" transform="translate(137 -341)" fill="#d8d8d8"/>
      <path id="plus-3" data-name="plus" d="M25.692,48.692a.692.692,0,0,0-1.385,0v7.615H16.692a.692.692,0,1,0,0,1.385h7.615v7.615a.692.692,0,0,0,1.385,0V57.692h7.615a.692.692,0,0,0,0-1.385H25.692Z" transform="translate(350 -392.5)" stroke="#4d4d4d" stroke-width="1"/>
    </g>
  </g>
</svg>
