<svg xmlns="http://www.w3.org/2000/svg" width="404" height="299" viewBox="0 0 404 299">
  <g id="Flush" transform="translate(-51 403)">
    <rect id="bg" width="404" height="299" transform="translate(51 -403)" fill="none"/>
    <g id="accordion" transform="translate(0 141)">
      <line id="Border" x2="300" transform="translate(103 -307)" fill="none" stroke="#d8d8d8" stroke-width="3"/>
      <path id="item" d="M3,0H297a3,3,0,0,1,3,3V58a0,0,0,0,1,0,0H0a0,0,0,0,1,0,0V3A3,3,0,0,1,3,0Z" transform="translate(103 -365)" fill="#fff"/>
      <rect id="Text" width="160" height="11" transform="translate(136 -341)" fill="#d8d8d8"/>
      <g id="btn" transform="translate(364.5 -341.5)">
        <path id="chevron-down" d="M58,187.35a.668.668,0,0,1-1.025,0l-8.711-9.9a.909.909,0,0,1,0-1.165.668.668,0,0,1,1.025,0l8.2,9.313,8.2-9.313a.668.668,0,0,1,1.025,0,.909.909,0,0,1,0,1.165Z" transform="translate(-48.05 -176.05)" fill="#4d4d4d" stroke="#4d4d4d" stroke-width="1"/>
      </g>
    </g>
    <g id="accordion-2" data-name="accordion" transform="translate(0 83)">
      <line id="Border-2" data-name="Border" x2="300" transform="translate(103 -307)" fill="none" stroke="#d8d8d8" stroke-width="3"/>
      <path id="item-2" data-name="item" d="M3,0H297a3,3,0,0,1,3,3V58a0,0,0,0,1,0,0H0a0,0,0,0,1,0,0V3A3,3,0,0,1,3,0Z" transform="translate(103 -365)" fill="#fff"/>
      <rect id="Text-2" data-name="Text" width="160" height="11" transform="translate(136 -341)" fill="#d8d8d8"/>
      <g id="btn-2" data-name="btn" transform="translate(364.5 -341.5)">
        <path id="chevron-down-2" data-name="chevron-down" d="M58,187.35a.668.668,0,0,1-1.025,0l-8.711-9.9a.909.909,0,0,1,0-1.165.668.668,0,0,1,1.025,0l8.2,9.313,8.2-9.313a.668.668,0,0,1,1.025,0,.909.909,0,0,1,0,1.165Z" transform="translate(-48.05 -176.05)" fill="#4d4d4d" stroke="#4d4d4d" stroke-width="1"/>
      </g>
    </g>
    <g id="accordion-3" data-name="accordion" transform="translate(0 25)">
      <line id="Border-3" data-name="Border" x2="300" transform="translate(103 -307)" fill="none" stroke="#d8d8d8" stroke-width="3"/>
      <path id="item-3" data-name="item" d="M3,0H297a3,3,0,0,1,3,3V58a0,0,0,0,1,0,0H0a0,0,0,0,1,0,0V3A3,3,0,0,1,3,0Z" transform="translate(103 -365)" fill="#fff"/>
      <rect id="Text-3" data-name="Text" width="160" height="11" transform="translate(136 -341)" fill="#d8d8d8"/>
      <g id="btn-3" data-name="btn" transform="translate(364.5 -341.5)">
        <path id="chevron-down-3" data-name="chevron-down" d="M58,187.35a.668.668,0,0,1-1.025,0l-8.711-9.9a.909.909,0,0,1,0-1.165.668.668,0,0,1,1.025,0l8.2,9.313,8.2-9.313a.668.668,0,0,1,1.025,0,.909.909,0,0,1,0,1.165Z" transform="translate(-48.05 -176.05)" fill="#4d4d4d" stroke="#4d4d4d" stroke-width="1"/>
      </g>
    </g>
  </g>
</svg>
