<svg xmlns="http://www.w3.org/2000/svg" width="404" height="299" viewBox="0 0 404 299">
  <g id="Shadow" transform="translate(-51 403)">
    <rect id="bg" width="404" height="299" transform="translate(51 -403)" fill="none"/>
    <g id="accordion" transform="translate(0 9)">
      <rect id="item" width="300" height="58" rx="3" transform="translate(103 -215)" fill="#f2f2f2"/>
      <g id="btn" transform="translate(-9.054 143.946)">
        <circle id="Ellipse_1" data-name="Ellipse 1" cx="21" cy="21" r="21" transform="translate(362.054 -350.946)" fill="#d8d8d8"/>
        <path id="chevron-down" d="M58,187.35a.668.668,0,0,1-1.025,0l-8.711-9.9a.909.909,0,0,1,0-1.165.668.668,0,0,1,1.025,0l8.2,9.313,8.2-9.313a.668.668,0,0,1,1.025,0,.909.909,0,0,1,0,1.165Z" transform="translate(325.504 -511.496)" fill="#4d4d4d" stroke="#4d4d4d" stroke-width="1"/>
      </g>
      <rect id="item-2" data-name="item" width="300" height="58" rx="3" transform="translate(103 -291)" fill="#f2f2f2"/>
      <g id="btn-2" data-name="btn" transform="translate(-9.054 67.946)">
        <circle id="Ellipse_1-2" data-name="Ellipse 1" cx="21" cy="21" r="21" transform="translate(362.054 -350.946)" fill="#d8d8d8"/>
        <path id="chevron-down-2" data-name="chevron-down" d="M58,187.35a.668.668,0,0,1-1.025,0l-8.711-9.9a.909.909,0,0,1,0-1.165.668.668,0,0,1,1.025,0l8.2,9.313,8.2-9.313a.668.668,0,0,1,1.025,0,.909.909,0,0,1,0,1.165Z" transform="translate(325.504 -511.496)" fill="#4d4d4d" stroke="#4d4d4d" stroke-width="1"/>
      </g>
      <rect id="item-3" data-name="item" width="300" height="58" rx="3" transform="translate(103 -368)" fill="#f2f2f2"/>
      <g id="btn-3" data-name="btn" transform="translate(-9.054 -9.054)">
        <circle id="Ellipse_1-3" data-name="Ellipse 1" cx="21" cy="21" r="21" transform="translate(362.054 -350.946)" fill="#d8d8d8"/>
        <path id="chevron-down-3" data-name="chevron-down" d="M58,187.35a.668.668,0,0,1-1.025,0l-8.711-9.9a.909.909,0,0,1,0-1.165.668.668,0,0,1,1.025,0l8.2,9.313,8.2-9.313a.668.668,0,0,1,1.025,0,.909.909,0,0,1,0,1.165Z" transform="translate(325.504 -511.496)" fill="#4d4d4d" stroke="#4d4d4d" stroke-width="1"/>
      </g>
    </g>
  </g>
</svg>
