<?xml version="1.0" encoding="utf-8"?>
<!-- Generator: Adobe Illustrator 25.0.1, SVG Export Plug-In . SVG Version: 6.00 Build 0)  -->
<svg version="1.1" id="Layer_1" xmlns="http://www.w3.org/2000/svg" xmlns:xlink="http://www.w3.org/1999/xlink" x="0px" y="0px"
	 viewBox="0 0 448 512" style="enable-background:new 0 0 448 512;" xml:space="preserve">
<style type="text/css">
	.st0{fill:#666766;}
</style>
<g>
	
		<rect x="70.6" y="167.8" transform="matrix(0.7071 0.7071 -0.7071 0.7071 211.2721 -98.0559)" class="st0" width="306.8" height="76.5"/>
	
		<rect x="70.6" y="167.8" transform="matrix(-0.7071 0.7071 -0.7071 -0.7071 528.0559 193.2721)" class="st0" width="306.8" height="76.5"/>
</g>
<g>
	<path class="st0" d="M94.4,449.5v-67.1h13.2l27.5,44.8v-44.8h12.6v67.1H134l-27-43.8v43.8H94.4z"/>
	<path class="st0" d="M159.2,416.4c0-6.8,1-12.6,3.1-17.2c1.5-3.4,3.6-6.5,6.2-9.2c2.6-2.7,5.5-4.7,8.7-6c4.2-1.8,9-2.7,14.5-2.7
		c9.9,0,17.8,3.1,23.7,9.2c5.9,6.1,8.9,14.7,8.9,25.6c0,10.8-2.9,19.3-8.8,25.4c-5.9,6.1-13.8,9.2-23.6,9.2c-10,0-17.9-3-23.8-9.1
		C162.2,435.5,159.2,427.1,159.2,416.4z M173.2,416c0,7.6,1.8,13.4,5.3,17.3c3.5,3.9,8,5.9,13.4,5.9s9.8-1.9,13.3-5.8
		c3.5-3.9,5.2-9.7,5.2-17.5c0-7.7-1.7-13.4-5.1-17.2c-3.4-3.8-7.8-5.7-13.4-5.7c-5.6,0-10.1,1.9-13.5,5.7
		C174.9,402.5,173.2,408.2,173.2,416z"/>
	<path class="st0" d="M235,449.5v-67.1h13.2l27.5,44.8v-44.8h12.6v67.1h-13.6l-27-43.8v43.8H235z"/>
	<path class="st0" d="M302.6,449.5v-67.1h49.7v11.4h-36.2v14.9h33.7V420h-33.7v18.3h37.5v11.3H302.6z"/>
</g>
</svg>
