<svg width="24" height="25" viewBox="0 0 24 25" fill="none" xmlns="http://www.w3.org/2000/svg">
<path d="M14 7.5H8V9.5H14V7.5ZM4 15.5H6V13.5H8V11.5H6V9.5H4V11.5H2V13.5H4V15.5ZM14 13.5V11.5H10V13.5H14ZM18 15.5V3.5C18 2.95 17.55 2.5 17 2.5H3C2.45 2.5 2 2.95 2 3.5V7.5H4V4.5H16V20.5H5C4.45 20.5 4 20.05 4 19.5V17.5H2V19.5C2 21.16 3.34 22.5 5 22.5H19C20.66 22.5 22 21.16 22 19.5V15.5H18ZM20 19.5C20 20.05 19.55 20.5 19 20.5C18.45 20.5 18 20.05 18 19.5V17.5H20V19.5ZM8 17.5H14V15.5H8V17.5Z" fill="#9599A0"/>
</svg>
