<svg width="48" height="54" viewBox="0 0 48 54" fill="none" xmlns="http://www.w3.org/2000/svg">
<path d="M31.9066 8.18005C32.5666 8.18005 33.1066 7.64005 33.1066 6.96005C33.1066 6.28005 32.5666 5.78005 31.9066 5.78005C31.2466 5.78005 30.7066 6.30005 30.7066 6.96005C30.7066 7.62005 31.2466 8.18005 31.9066 8.18005ZM23.6666 8.18005C24.3266 8.18005 24.8666 7.64005 24.8666 6.96005C24.8666 6.28005 24.3266 5.78005 23.6666 5.78005C23.0066 5.78005 22.4666 6.30005 22.4666 6.96005C22.4666 7.62005 23.0066 8.18005 23.6666 8.18005ZM27.7866 8.18005C28.4466 8.18005 28.9866 7.64005 28.9866 6.96005C28.9866 6.28005 28.4466 5.78005 27.7866 5.78005C27.1266 5.78005 26.5866 6.30005 26.5866 6.96005C26.5866 7.62005 27.1266 8.18005 27.7866 8.18005ZM40.1466 8.18005C40.4466 8.18005 40.7666 8.04005 40.9866 7.82005C41.2066 7.60005 41.3466 7.28005 41.3466 6.96005C41.3466 6.66005 41.2066 6.34005 40.9866 6.12005C40.5466 5.68005 39.7266 5.68005 39.2866 6.12005C39.0666 6.34005 38.9466 6.66005 38.9466 6.96005C38.9466 7.28005 39.0666 7.60005 39.2866 7.82005C39.5066 8.04005 39.8266 8.18005 40.1466 8.18005ZM36.0266 8.18005C36.6866 8.18005 37.2266 7.64005 37.2266 6.96005C37.2266 6.28005 36.6866 5.78005 36.0266 5.78005C35.3666 5.78005 34.8266 6.30005 34.8266 6.96005C34.8266 7.62005 35.3666 8.18005 36.0266 8.18005ZM0.306641 0.180054V29.7601C0.306641 34.5601 2.68664 39.0201 6.66664 41.7001L23.6666 53.1601L40.6666 41.7001C44.6466 39.0201 47.0266 34.5601 47.0266 29.7601V0.180054H0.306641ZM45.0266 29.7601C45.0266 33.9001 42.9866 37.7401 39.5466 40.0401L23.6666 50.7401L7.78664 40.0401C4.36664 37.7401 2.30664 33.8801 2.30664 29.7601V2.18005H45.0266V29.7601ZM11.3066 8.18005C11.9866 8.18005 12.5066 7.64005 12.5066 6.96005C12.5066 6.28005 11.9866 5.78005 11.3066 5.78005C10.6266 5.78005 10.1066 6.30005 10.1066 6.96005C10.1066 7.62005 10.6466 8.18005 11.3066 8.18005ZM11.4266 25.9801L21.7866 36.3401L36.3266 21.7801L31.5666 17.0201L21.7866 26.8001L16.1866 21.2001L11.4266 25.9601V25.9801ZM31.5666 19.8601L33.5066 21.8001L21.7866 33.5201L14.2466 25.9801L16.1866 24.0401L21.7866 29.6401L31.5666 19.8601ZM6.34664 7.82005C6.56664 8.04005 6.88664 8.18005 7.18664 8.18005C7.34664 8.18005 7.50664 8.14005 7.64664 8.08005C7.80664 8.02005 7.92664 7.92005 8.04664 7.82005C8.26664 7.60005 8.38664 7.28005 8.38664 6.96005C8.38664 6.66005 8.26664 6.34005 8.04664 6.12005C7.92664 6.02005 7.80664 5.92005 7.64664 5.86005C7.20664 5.68005 6.68664 5.78005 6.34664 6.12005C6.12664 6.34005 6.00664 6.66005 6.00664 6.96005C6.00664 7.12005 6.00664 7.28005 6.08664 7.42005C6.14664 7.58005 6.22664 7.70005 6.34664 7.82005ZM15.4266 8.18005C16.0866 8.18005 16.6266 7.64005 16.6266 6.96005C16.6266 6.28005 16.0866 5.78005 15.4266 5.78005C14.7666 5.78005 14.2266 6.30005 14.2266 6.96005C14.2266 7.62005 14.7666 8.18005 15.4266 8.18005ZM19.5466 8.18005C20.2066 8.18005 20.7466 7.64005 20.7466 6.96005C20.7466 6.28005 20.2066 5.78005 19.5466 5.78005C18.8866 5.78005 18.3466 6.30005 18.3466 6.96005C18.3466 7.62005 18.8866 8.18005 19.5466 8.18005Z" fill="#D5352D"/>
</svg>
