<svg width="55" height="54" viewBox="0 0 55 54" fill="none" xmlns="http://www.w3.org/2000/svg">
<path d="M14.0932 42.06C13.6932 42.58 13.7732 43.34 14.3132 43.74C14.5332 43.92 14.7932 44 15.0332 44C15.3932 44 15.7532 43.84 15.9932 43.54C16.3932 43 16.2932 42.26 15.7732 41.84C15.2532 41.44 14.5132 41.54 14.0932 42.06ZM7.31316 26.14H7.43316C8.03316 26.14 8.55316 25.68 8.61316 25.06C8.69316 24.4 8.21316 23.82 7.55316 23.74C6.89316 23.68 6.29316 24.16 6.23316 24.82C6.17316 25.48 6.65316 26.06 7.31316 26.14ZM9.37317 32.6C9.17317 31.96 8.49316 31.6 7.87316 31.8C7.23316 32 6.87316 32.68 7.07316 33.3C7.23316 33.82 7.71316 34.14 8.21316 34.14C8.33316 34.14 8.45316 34.14 8.57316 34.1C9.21316 33.9 9.57316 33.22 9.37317 32.6ZM10.8532 36.1C10.5332 35.52 9.81316 35.3 9.23316 35.62C8.65316 35.94 8.43316 36.68 8.75316 37.26C8.97316 37.66 9.39316 37.88 9.81316 37.88C10.0132 37.88 10.2132 37.82 10.3932 37.72C10.9732 37.4 11.1732 36.68 10.8532 36.1ZM9.25316 18.3C9.45316 18.42 9.65316 18.46 9.85316 18.46C10.2732 18.46 10.6732 18.24 10.8932 17.84C11.2132 17.26 11.0132 16.54 10.4332 16.2C9.85316 15.88 9.11316 16.1 8.79316 16.68C8.47316 17.26 8.69316 17.98 9.25316 18.3ZM11.2532 13.16C10.8332 13.66 10.8732 14.42 11.3932 14.86C11.6132 15.04 11.8932 15.14 12.1732 15.14C12.5132 15.14 12.8332 15 13.0732 14.72C13.5132 14.22 13.4532 13.46 12.9532 13.04C12.4532 12.6 11.6932 12.66 11.2532 13.16ZM11.3332 39.08C10.8332 39.52 10.7732 40.28 11.2132 40.78C11.4332 41.06 11.7732 41.2 12.1132 41.2C12.3932 41.2 12.6732 41.1 12.8932 40.92C13.3932 40.48 13.4532 39.72 13.0332 39.22C12.5932 38.72 11.8332 38.66 11.3332 39.08ZM7.53316 30.18C8.19316 30.12 8.67316 29.52 8.61316 28.86C8.55316 28.2 7.95316 27.72 7.29316 27.78C6.63316 27.86 6.15316 28.44 6.21316 29.1C6.27316 29.72 6.81316 30.18 7.41316 30.18H7.53316ZM44.6332 19.58C44.8332 20.04 45.2732 20.32 45.7332 20.32C45.8932 20.32 46.0532 20.28 46.2132 20.22C46.8132 19.96 47.0932 19.24 46.8332 18.64C46.5732 18.04 45.8732 17.74 45.2532 18C44.6532 18.28 44.3732 18.98 44.6332 19.58ZM43.7732 16.78C44.0132 16.78 44.2332 16.7 44.4532 16.56C44.9932 16.18 45.1332 15.44 44.7532 14.88C44.3732 14.34 43.6332 14.2 43.0732 14.6C42.5332 14.96 42.3932 15.72 42.7932 16.26C43.0132 16.6 43.3932 16.78 43.7732 16.78ZM45.7732 23.22C45.8732 23.78 46.3732 24.18 46.9332 24.18C47.0132 24.18 47.0932 24.16 47.1732 24.14C47.8332 24.02 48.2532 23.38 48.1132 22.74C47.9932 22.08 47.3532 21.66 46.6932 21.8C46.0532 21.94 45.6332 22.56 45.7732 23.22ZM33.8932 9.36003C34.0332 9.42004 34.1732 9.44003 34.3132 9.44003C34.8132 9.44003 35.2732 9.14003 35.4532 8.66003C35.6732 8.04003 35.3532 7.34003 34.7332 7.12003C34.1132 6.88003 33.4332 7.20003 33.1932 7.82003C32.9732 8.44003 33.2732 9.12004 33.9132 9.36003H33.8932ZM18.5532 10.22C18.7132 10.22 18.8932 10.18 19.0732 10.1C19.6732 9.80003 19.9132 9.08003 19.6132 8.48003C19.3332 7.90003 18.6132 7.64003 18.0132 7.94003C17.4132 8.24003 17.1732 8.96004 17.4732 9.54004C17.6732 9.98003 18.0932 10.22 18.5532 10.22ZM22.3332 8.82003C22.3332 8.82003 22.5332 8.82003 22.6332 8.78003C23.2732 8.62003 23.6732 7.96003 23.4932 7.32003C23.3332 6.68003 22.6932 6.30003 22.0332 6.46003C21.3932 6.62003 21.0132 7.28003 21.1732 7.92003C21.3132 8.46003 21.8132 8.82003 22.3332 8.82003ZM30.1932 8.40003C30.1932 8.40003 30.3332 8.42003 30.3932 8.42003C30.9732 8.42003 31.4732 8.00003 31.5732 7.40003C31.6732 6.74003 31.2132 6.14003 30.5532 6.04003C29.9132 5.94003 29.2932 6.38003 29.1932 7.04003C29.0932 7.68003 29.5532 8.30003 30.1932 8.40003ZM26.3332 8.22003H26.3932C27.0532 8.18003 27.5732 7.62003 27.5332 6.96003C27.5332 6.30003 26.9532 5.78003 26.2732 5.82003C25.6132 5.84003 25.1132 6.40003 25.1532 7.08003C25.1732 7.72003 25.7132 8.22003 26.3332 8.22003ZM7.89316 22.12C8.01316 22.16 8.13316 22.18 8.25316 22.18C8.75316 22.18 9.23316 21.84 9.39316 21.34C9.59316 20.7 9.23316 20.02 8.61316 19.84C7.97316 19.62 7.29316 19.98 7.09316 20.62C6.89316 21.24 7.25316 21.92 7.89316 22.12ZM42.7332 37.8C42.3532 38.34 42.4932 39.1 43.0332 39.48C43.2332 39.62 43.4732 39.7 43.7132 39.7C44.0932 39.7 44.4732 39.52 44.6932 39.18C45.0732 38.64 44.9532 37.9 44.4132 37.52C43.8732 37.14 43.1132 37.26 42.7332 37.8ZM40.2532 11.68C39.7932 12.16 39.8132 12.92 40.2932 13.38C40.5332 13.6 40.8332 13.7 41.1332 13.7C41.4532 13.7 41.7732 13.58 41.9932 13.34C42.4532 12.84 42.4332 12.1 41.9532 11.64C41.4732 11.18 40.7132 11.2 40.2532 11.68ZM40.2532 40.68C39.7732 41.14 39.7332 41.9 40.1932 42.38C40.4332 42.62 40.7532 42.76 41.0732 42.76C41.3732 42.76 41.6732 42.64 41.8932 42.42C42.3732 41.98 42.3932 41.22 41.9532 40.74C41.4932 40.26 40.7332 40.22 40.2532 40.68ZM46.1732 33.86C45.5732 33.6 44.8532 33.88 44.5932 34.48C44.3332 35.1 44.5932 35.8 45.2132 36.06C45.3732 36.14 45.5332 36.16 45.6932 36.16C46.1732 36.16 46.6132 35.9 46.7932 35.44C47.0732 34.84 46.7932 34.12 46.1732 33.86ZM27.3332 0.160034C12.5332 0.160034 0.493164 12.2 0.493164 27C0.493164 41.8 12.5332 53.84 27.3332 53.84C42.1332 53.84 54.1732 41.8 54.1732 27C54.1732 12.2 42.1332 0.160034 27.3332 0.160034ZM27.3332 51.84C13.6332 51.84 2.49316 40.7 2.49316 27C2.49316 13.3 13.6332 2.16003 27.3332 2.16003C41.0332 2.16003 52.1732 13.3 52.1732 27C52.1732 40.7 41.0332 51.84 27.3332 51.84ZM14.3732 10.2C13.8532 10.62 13.7532 11.36 14.1532 11.9C14.3932 12.2 14.7532 12.36 15.1132 12.36C15.3532 12.36 15.6132 12.28 15.8332 12.1C16.3732 11.7 16.4532 10.94 16.0532 10.42C15.6532 9.90003 14.8932 9.80004 14.3732 10.2ZM38.5732 9.00003C38.0132 8.66003 37.2732 8.82003 36.9132 9.38003C36.5732 9.94003 36.7332 10.68 37.2932 11.04C37.4932 11.16 37.7132 11.22 37.9332 11.22C38.3332 11.22 38.7132 11.02 38.9532 10.66C39.2932 10.1 39.1332 9.36003 38.5732 9.00003ZM47.3532 25.8C46.6932 25.8 46.1532 26.34 46.1532 27V27.08C46.1532 27.74 46.6732 28.28 47.3332 28.28C47.9932 28.28 48.5332 27.74 48.5332 27.08V27C48.5332 26.34 47.9932 25.8 47.3332 25.8H47.3532ZM47.1732 29.94C46.5332 29.8 45.8932 30.22 45.7532 30.86C45.6132 31.52 46.0332 32.14 46.6732 32.28C46.7532 32.3 46.8332 32.3 46.9132 32.3C47.4732 32.3 47.9732 31.92 48.0932 31.36C48.2332 30.7 47.8132 30.08 47.1732 29.94ZM22.5732 45.2C21.9132 45.04 21.2732 45.42 21.0932 46.06C20.9332 46.7 21.3132 47.36 21.9532 47.52C22.0532 47.56 22.1532 47.56 22.2732 47.56C22.7932 47.56 23.2732 47.2 23.4132 46.66C23.5932 46.02 23.2132 45.38 22.5732 45.2ZM26.3332 45.78C25.6532 45.78 25.0932 46.26 25.0732 46.92C25.0332 47.58 25.5332 48.14 26.1932 48.18H26.2532C26.8932 48.18 27.4132 47.68 27.4532 47.04C27.4932 46.38 26.9932 45.82 26.3332 45.78ZM18.9932 43.88C18.4132 43.58 17.6932 43.82 17.3932 44.42C17.0932 45 17.3332 45.72 17.9332 46.02C18.1132 46.1 18.2932 46.14 18.4732 46.14C18.9132 46.14 19.3332 45.9 19.5532 45.48C19.8332 44.88 19.5932 44.16 18.9932 43.88ZM30.1332 45.6C29.4732 45.7 29.0132 46.32 29.1132 46.98C29.2132 47.56 29.7132 48 30.2932 48C30.3532 48 30.4132 48 30.4732 47.98C31.1332 47.88 31.5932 47.28 31.4932 46.62C31.3932 45.96 30.7932 45.5 30.1332 45.6ZM37.2332 43C36.6732 43.36 36.4932 44.08 36.8332 44.66C37.0732 45.02 37.4532 45.22 37.8532 45.22C38.0732 45.22 38.2932 45.16 38.4932 45.04C39.0532 44.7 39.2332 43.96 38.8732 43.4C38.5332 42.82 37.7932 42.66 37.2332 43ZM22.0932 27.12H32.4532V25.12H22.0932V22.94C22.0932 20.3 23.3332 18.22 25.4732 17.24C27.7732 16.18 30.6132 16.64 32.7132 18.42L33.4732 19.06L34.7732 17.54L34.0132 16.9C31.3132 14.62 27.6332 14.04 24.6332 15.42C21.7932 16.74 20.0932 19.54 20.0932 22.94V34.7H18.1132V36.7H36.5932V34.7H22.1132V27.12H22.0932ZM33.8132 44.66C33.1932 44.9 32.8732 45.58 33.0932 46.2C33.2732 46.7 33.7332 47 34.2332 47C34.3532 47 34.4932 46.98 34.6332 46.92C35.2532 46.7 35.5732 46 35.3532 45.38C35.1132 44.76 34.4332 44.44 33.8132 44.66Z" fill="#D5352D"/>
</svg>
