<svg width="116" height="21" viewBox="0 0 116 21" fill="none" xmlns="http://www.w3.org/2000/svg">
<g clip-path="url(#clip0_398_6190)">
<path d="M10.0003 15.7167L4.12246 19.0069L5.43524 12.3999L0.489746 7.82652L7.17895 7.0334L10.0003 0.916687L12.8217 7.0334L19.5108 7.82652L14.5654 12.3999L15.8782 19.0069L10.0003 15.7167Z" fill="white"/>
</g>
<g clip-path="url(#clip1_398_6190)">
<path d="M34.0003 15.7167L28.1225 19.0069L29.4352 12.3999L24.4897 7.82652L31.1789 7.0334L34.0003 0.916687L36.8217 7.0334L43.5108 7.82652L38.5654 12.3999L39.8782 19.0069L34.0003 15.7167Z" fill="white"/>
</g>
<g clip-path="url(#clip2_398_6190)">
<path d="M58.0003 15.7167L52.1225 19.0069L53.4352 12.3999L48.4897 7.82652L55.1789 7.0334L58.0003 0.916687L60.8217 7.0334L67.5108 7.82652L62.5654 12.3999L63.8782 19.0069L58.0003 15.7167Z" fill="white"/>
</g>
<g clip-path="url(#clip3_398_6190)">
<path d="M82.0003 15.7167L76.1225 19.0069L77.4352 12.3999L72.4897 7.82652L79.1789 7.0334L82.0003 0.916687L84.8217 7.0334L91.5108 7.82652L86.5654 12.3999L87.8782 19.0069L82.0003 15.7167Z" fill="white"/>
</g>
<g clip-path="url(#clip4_398_6190)">
<path d="M106 15.7167L100.122 19.0069L101.435 12.3999L96.4897 7.82652L103.179 7.0334L106 0.916687L108.822 7.0334L115.511 7.82652L110.565 12.3999L111.878 19.0069L106 15.7167Z" fill="white"/>
</g>
<defs>
<clipPath id="clip0_398_6190">
<rect width="20" height="20" fill="white" transform="translate(0 0.5)"/>
</clipPath>
<clipPath id="clip1_398_6190">
<rect width="20" height="20" fill="white" transform="translate(24 0.5)"/>
</clipPath>
<clipPath id="clip2_398_6190">
<rect width="20" height="20" fill="white" transform="translate(48 0.5)"/>
</clipPath>
<clipPath id="clip3_398_6190">
<rect width="20" height="20" fill="white" transform="translate(72 0.5)"/>
</clipPath>
<clipPath id="clip4_398_6190">
<rect width="20" height="20" fill="white" transform="translate(96 0.5)"/>
</clipPath>
</defs>
</svg>
