<?xml version="1.0" encoding="iso-8859-1"?>
<!-- Uploaded to: SVG Repo, www.svgrepo.com, Generator: SVG Repo Mixer Tools -->
<svg fill="#000000" height="800px" width="800px" version="1.1" id="Capa_1" xmlns="http://www.w3.org/2000/svg" xmlns:xlink="http://www.w3.org/1999/xlink" 
	 viewBox="0 0 512.001 512.001" xml:space="preserve">
<g>
	<g>
		<path d="M395.636,232.727H116.364c-38.498,0-69.818-31.32-69.818-69.818c0-38.498,31.32-69.818,69.818-69.818h116.364v23.273
			c0,12.853,10.42,23.273,23.273,23.273h139.636c12.853,0,23.273-10.42,23.273-23.273V93.091h69.818
			c12.853,0,23.273-10.42,23.273-23.273c0-12.853-10.42-23.273-23.273-23.273H418.91V23.273C418.909,10.42,408.489,0,395.636,0H256
			c-12.853,0-23.273,10.42-23.273,23.273v23.273H116.364C52.201,46.545,0,98.746,0,162.909s52.201,116.364,116.364,116.364h279.273
			c38.499,0,69.818,31.32,69.818,69.818s-31.319,69.818-69.818,69.818H279.273v-23.273c0-12.853-10.42-23.273-23.273-23.273H116.364
			c-12.853,0-23.273,10.42-23.273,23.273v23.273H23.273C10.42,418.909,0,429.329,0,442.182c0,12.853,10.42,23.273,23.273,23.273
			h69.818v23.273c0,12.853,10.42,23.273,23.273,23.273H256c12.853,0,23.273-10.42,23.273-23.273v-23.273h116.364
			c64.163,0,116.364-52.201,116.364-116.364S459.799,232.727,395.636,232.727z M279.273,46.545h93.091V93.09h-93.091V46.545z
			 M232.727,465.455h-93.091V418.91h93.091V465.455z"/>
	</g>
</g>
</svg>