<?xml version="1.0" encoding="UTF-8" standalone="no"?>
<svg
   viewBox="0 0 514.94629 353.99149"
   version="1.1"
   id="svg1"
   sodipodi:docname="arrow-turn-down-right.svg"
   width="514.94629"
   height="353.99149"
   inkscape:version="1.3.2 (091e20e, 2023-11-25, custom)"
   xmlns:inkscape="http://www.inkscape.org/namespaces/inkscape"
   xmlns:sodipodi="http://sodipodi.sourceforge.net/DTD/sodipodi-0.dtd"
   xmlns="http://www.w3.org/2000/svg"
   xmlns:svg="http://www.w3.org/2000/svg">
  <defs
     id="defs1" />
  <sodipodi:namedview
     id="namedview1"
     pagecolor="#ffffff"
     bordercolor="#000000"
     borderopacity="0.25"
     inkscape:showpageshadow="2"
     inkscape:pageopacity="0.0"
     inkscape:pagecheckerboard="0"
     inkscape:deskcolor="#d1d1d1"
     inkscape:zoom="1.1455078"
     inkscape:cx="111.74084"
     inkscape:cy="223.91816"
     inkscape:window-width="2560"
     inkscape:window-height="1369"
     inkscape:window-x="1912"
     inkscape:window-y="-8"
     inkscape:window-maximized="1"
     inkscape:current-layer="svg1">
    <inkscape:page
       x="0"
       y="0"
       width="514.94629"
       height="353.99149"
       id="page1"
       margin="0 0 0 0"
       bleed="0" />
  </sodipodi:namedview>
  <!--! Font Awesome Free 6.5.2 by @fontawesome - https://fontawesome.com License - https://fontawesome.com/license/free (Icons: CC BY 4.0, Fonts: SIL OFL 1.1, Code: MIT License) Copyright 2024 Fonticons, Inc. -->
  <path
     d="m 65.236699,33.407228 c 0,-17.7 -14.3,-31.9999999 -32,-31.9999999 -17.7,0 -32.0000001,14.2999999 -32.0000001,31.9999999 v 96.000002 c 0,53 43.0000001,96 96.0000001,96 H 403.9367 l -73.4,73.4 c -12.5,12.5 -12.5,32.8 0,45.3 12.5,12.5 32.8,12.5 45.3,0 l 128,-128 c 12.5,-12.5 12.5,-32.8 0,-45.3 l -128,-128.000002 c -12.5,-12.5 -32.8,-12.5 -45.3,0 -12.5,12.5 -12.5,32.8 0,45.3 l 73.4,73.300002 H 97.236699 c -17.7,0 -32,-14.3 -32,-32 z"
     id="path1" />
</svg>
