<svg xmlns="http://www.w3.org/2000/svg" viewBox="0 0 512 512"><!--! Font Awesome Pro 7.2.0 by @fontawesome - https://fontawesome.com License - https://fontawesome.com/license (Commercial License) Copyright 2026 Fonticons, Inc. --><path fill="currentColor" d="M176 64c8.8 0 16-7.2 16-16s-7.2-16-16-16L96 32C43 32 0 75 0 128L0 384c0 53 43 96 96 96l80 0c8.8 0 16-7.2 16-16s-7.2-16-16-16l-80 0c-35.3 0-64-28.7-64-64l0-256c0-35.3 28.7-64 64-64l80 0zM507.3 267.3c6.2-6.2 6.2-16.4 0-22.6l-144-144c-6.2-6.2-16.4-6.2-22.6 0s-6.2 16.4 0 22.6L457.4 240 176 240c-8.8 0-16 7.2-16 16s7.2 16 16 16l281.4 0-116.7 116.7c-6.2 6.2-6.2 16.4 0 22.6s16.4 6.2 22.6 0l144-144z"/></svg>