<svg xmlns="http://www.w3.org/2000/svg" viewBox="0 0 448 512"><!--! Font Awesome Pro 7.2.0 by @fontawesome - https://fontawesome.com License - https://fontawesome.com/license (Commercial License) Copyright 2026 Fonticons, Inc. --><path fill="currentColor" d="M379.3 308.7l-144-144c-6.2-6.2-16.4-6.2-22.6 0l-144 144c-6.2 6.2-6.2 16.4 0 22.6s16.4 6.2 22.6 0L208 214.6 208 496c0 8.8 7.2 16 16 16s16-7.2 16-16l0-281.4 116.7 116.7c6.2 6.2 16.4 6.2 22.6 0s6.2-16.4 0-22.6zM32 176l0-80c0-35.3 28.7-64 64-64l256 0c35.3 0 64 28.7 64 64l0 80c0 8.8 7.2 16 16 16s16-7.2 16-16l0-80c0-53-43-96-96-96L96 0C43 0 0 43 0 96l0 80c0 8.8 7.2 16 16 16s16-7.2 16-16z"/></svg>