<svg xmlns="http://www.w3.org/2000/svg" viewBox="0 0 512 512"><!--! Font Awesome Pro 7.2.0 by @fontawesome - https://fontawesome.com License - https://fontawesome.com/license (Commercial License) Copyright 2026 Fonticons, Inc. --><path fill="currentColor" d="M164.7 267.3c-3-3-4.7-7.1-4.7-11.3s1.7-8.3 4.7-11.3l144-144c6.2-6.2 16.4-6.2 22.6 0s6.2 16.4 0 22.6L214.6 240 496 240c8.8 0 16 7.2 16 16s-7.2 16-16 16l-281.4 0 116.7 116.7c6.2 6.2 6.2 16.4 0 22.6s-16.4 6.2-22.6 0l-144-144zM176 448c8.8 0 16 7.2 16 16s-7.2 16-16 16l-80 0c-53 0-96-43-96-96L0 128C0 75 43 32 96 32l80 0c8.8 0 16 7.2 16 16s-7.2 16-16 16L96 64c-35.3 0-64 28.7-64 64l0 256c0 35.3 28.7 64 64 64l80 0z"/></svg>