<svg xmlns="http://www.w3.org/2000/svg" viewBox="0 0 512 512"><!--! Font Awesome Pro 7.2.0 by @fontawesome - https://fontawesome.com License - https://fontawesome.com/license (Commercial License) Copyright 2026 Fonticons, Inc. --><path fill="currentColor" d="M32 80c0-8.8-7.2-16-16-16S0 71.2 0 80l0 96c0 53 43 96 96 96l361.4 0-116.7 116.7c-6.2 6.2-6.2 16.4 0 22.6s16.4 6.2 22.6 0l144-144c3-3 4.7-7.1 4.7-11.3s-1.7-8.3-4.7-11.3l-144-144c-6.2-6.2-16.4-6.2-22.6 0s-6.2 16.4 0 22.6L457.4 240 96 240c-35.3 0-64-28.7-64-64l0-96z"/></svg>