<svg xmlns="http://www.w3.org/2000/svg" viewBox="0 0 448 512"><!--! Font Awesome Pro 7.2.0 by @fontawesome - https://fontawesome.com License - https://fontawesome.com/license (Commercial License) Copyright 2026 Fonticons, Inc. --><path fill="currentColor" d="M235.3 4.7c-6.2-6.2-16.4-6.2-22.6 0l-144 144c-6.2 6.2-6.2 16.4 0 22.6s16.4 6.2 22.6 0L208 54.6 208 336c0 8.8 7.2 16 16 16s16-7.2 16-16l0-281.4 116.7 116.7c6.2 6.2 16.4 6.2 22.6 0s6.2-16.4 0-22.6l-144-144zM32 336c0-8.8-7.2-16-16-16S0 327.2 0 336l0 80c0 53 43 96 96 96l256 0c53 0 96-43 96-96l0-80c0-8.8-7.2-16-16-16s-16 7.2-16 16l0 80c0 35.3-28.7 64-64 64L96 480c-35.3 0-64-28.7-64-64l0-80z"/></svg>