<svg xmlns="http://www.w3.org/2000/svg" viewBox="0 0 576 512"><!--! Font Awesome Pro 7.2.0 by @fontawesome - https://fontawesome.com License - https://fontawesome.com/license (Commercial License) Copyright 2026 Fonticons, Inc. --><path fill="currentColor" d="M288 0c4.6 0 8.9 1.9 11.9 5.3L438.3 160 544 160c8.8 0 16 7.2 16 16s-7.2 16-16 16l-6.4 0-47.3 236.6c-6 29.9-32.2 51.4-62.8 51.4l-279.1 0c-30.5 0-56.8-21.5-62.8-51.4L38.4 192 32 192c-8.8 0-16-7.2-16-16s7.2-16 16-16l0 0 105.7 0 138.4-154.7c3-3.4 7.4-5.3 11.9-5.3zm0 40L180.6 160 395.4 160 288 40zM71 192l46.1 230.3c3 15 16.1 25.7 31.4 25.7l279.1 0c15.3 0 28.4-10.8 31.4-25.7L505 192 71 192zM208 304l160 0c8.8 0 16 7.2 16 16s-7.2 16-16 16l-160 0c-8.8 0-16-7.2-16-16s7.2-16 16-16z"/></svg>