<svg xmlns="http://www.w3.org/2000/svg" viewBox="0 0 512 512"><!--! Font Awesome Pro 7.2.0 by @fontawesome - https://fontawesome.com License - https://fontawesome.com/license (Commercial License) Copyright 2026 Fonticons, Inc. --><path fill="currentColor" d="M232.6 480c2.5 1.4 5.2 2.6 7.8 3.6l0-218.3-191.2-109.2c-.6 3-.9 6-.9 9.1l0 181.7c0 17.2 9.2 33.1 24.2 41.7l160 91.4zm47.7 0l160-91.4c15-8.6 24.2-24.5 24.2-41.7l0-181.7c0-3.1-.3-6.1-.9-9.1l-191.2 109.2 0 218.3c2.7-1 5.3-2.1 7.8-3.6zm88.2-306.4l79-45.1c-2.2-1.9-4.6-3.5-7.2-5L280.3 32c-14.8-8.4-32.9-8.4-47.7 0l-56 32 191.8 109.6zM336.3 192l-191.8-109.6-71.8 41c-2.6 1.5-5 3.1-7.2 5l191 109.1 79.8-45.6zM296.1 507.7c-24.6 14.1-54.8 14-79.4 0l-160-91.4c-24.9-14.2-40.3-40.7-40.3-69.4l0-181.7c0-28.7 15.4-55.2 40.3-69.4l160-91.4c24.6-14.1 54.8-14.1 79.4 0l160 91.4c24.9 14.2 40.3 40.7 40.3 69.4l0 181.7c0 28.7-15.4 55.2-40.3 69.4l-160 91.4z"/></svg>