<svg xmlns="http://www.w3.org/2000/svg" viewBox="0 0 576 512"><!--! Font Awesome Pro 7.2.0 by @fontawesome - https://fontawesome.com License - https://fontawesome.com/license (Commercial License) Copyright 2026 Fonticons, Inc. --><path fill="currentColor" d="M261.8 357.8l10.2-23.9 0 149.6c-2.7-1-5.3-2.1-7.8-3.6l-160-91.4C89.2 380 80 364.1 80 346.9l0-51.9 136.5 78c16.6 9.5 37.8 2.4 45.3-15.2zm5.9-95l-35.3 82.4-196-112 35.3-82.4 196 112zM96.2 128l168-96c14.8-8.4 32.9-8.4 47.6 0L479.8 128 288 237.6 96.2 128zM528 185.7l18.3 30.5c4.5 7.6 14.4 10 21.9 5.5s10-14.4 5.5-22l-41.5-69.2c-5.6-9.4-13.6-17.2-23.1-22.6L327.7 4.3c-24.6-14.1-54.8-14.1-79.4 0L70 106.1C57.9 113 48.4 123.7 43 136.5l-36 84.1C.5 235.5 6.3 252.9 20.5 261l27.6 15.8 0 70.1c0 28.7 15.4 55.2 40.3 69.4l160 91.4c24.6 14.1 54.8 14.1 79.4 0l160-91.4c24.9-14.2 40.3-40.7 40.3-69.4l0-161.1zM304 265.3L496 155.5 496 346.9c0 17.2-9.2 33.1-24.2 41.7L311.8 480c-2.5 1.4-5.2 2.6-7.8 3.6l0-218.3z"/></svg>