<svg xmlns="http://www.w3.org/2000/svg" viewBox="0 0 576 512"><!--! Font Awesome Pro 7.2.0 by @fontawesome - https://fontawesome.com License - https://fontawesome.com/license (Commercial License) Copyright 2026 Fonticons, Inc. --><path fill="currentColor" d="M320 128c0-53-43-96-96-96-41.2 0-76.3 25.9-89.9 62.3L106 78.3C125.4 32.3 170.9 0 224 0 262.9 0 297.7 17.3 321.2 44.7 326.4 19.2 349 0 376 0l48 0c30.9 0 56 25.1 56 56l0 16.6-32 18.3 0-34.9c0-13.3-10.7-24-24-24l-48 0c-13.3 0-24 10.7-24 24l0 72c0 6.3-.5 12.4-1.3 18.5l-40 22.9c6-12.5 9.3-26.5 9.3-41.3zM216.5 373L80 295 80 346.9c0 17.2 9.2 33.1 24.2 41.7l160 91.4c2.5 1.4 5.2 2.6 7.8 3.6l0-149.6-10.2 23.9c-7.5 17.6-28.7 24.7-45.3 15.2zM304 483.6c2.7-1 5.3-2.1 7.8-3.6l160-91.4c15-8.5 24.2-24.5 24.2-41.7l0-191.3-192.1 109.7 0 218.3zM546.3 216.2l-18.3-30.5 0 161.1c0 28.7-15.4 55.2-40.3 69.4l-160 91.4c-24.6 14-54.8 14-79.4 0l-160-91.4C63.4 402.1 48 375.6 48 346.9l0-70.1-27.6-15.8C6.3 252.9 .5 235.5 6.9 220.6l42.4-98.9c1.8-4.2 5.3-7.4 9.6-8.9s9.1-1 13 1.3L288 237.6 504.1 114.1c7.6-4.3 17.2-1.8 21.7 5.7l48 80c4.5 7.6 2.1 17.4-5.5 22s-17.4 2.1-21.9-5.5zM267.7 262.8l-196-112-35.3 82.4 196 112 35.3-82.4z"/></svg>