<svg xmlns="http://www.w3.org/2000/svg" viewBox="0 0 512 512"><!--! Font Awesome Pro 7.2.0 by @fontawesome - https://fontawesome.com License - https://fontawesome.com/license (Commercial License) Copyright 2026 Fonticons, Inc. --><path fill="currentColor" d="M464 64c8.8 0 16 7.2 16 16l0 32c0 8.8-7.2 16-16 16L48 128c-8.8 0-16-7.2-16-16l0-32c0-8.8 7.2-16 16-16l416 0zM0 112c0 20.9 13.4 38.7 32 45.3L32 416c0 35.3 28.7 64 64 64l320 0c35.3 0 64-28.7 64-64l0-258.7c18.6-6.6 32-24.4 32-45.3l0-32c0-26.5-21.5-48-48-48L48 32C21.5 32 0 53.5 0 80l0 32zM64 416l0-256 384 0 0 256c0 17.7-14.3 32-32 32L96 448c-17.7 0-32-14.3-32-32zM176 224c-8.8 0-16 7.2-16 16s7.2 16 16 16l160 0c8.8 0 16-7.2 16-16s-7.2-16-16-16l-160 0z"/></svg>