<svg xmlns="http://www.w3.org/2000/svg" viewBox="0 0 448 512"><!--! Font Awesome Pro 7.2.0 by @fontawesome - https://fontawesome.com License - https://fontawesome.com/license (Commercial License) Copyright 2026 Fonticons, Inc. --><path fill="currentColor" d="M416 416c0 17.7-14.3 32-32 32L64 448c-17.7 0-32-14.3-32-32l0-256 384 0 0 256zM39.3 128L86.9 61.4c6-8.4 15.7-13.4 26-13.4l95.1 0 0 80-168.7 0zM240 128l0-80 95.1 0c10.3 0 20 5 26 13.4L408.7 128 240 128zM11.9 111.3C4.2 122.2 0 135.2 0 148.5L0 416c0 35.3 28.7 64 64 64l320 0c35.3 0 64-28.7 64-64l0-267.5c0-13.3-4.2-26.3-11.9-37.2L387.1 42.8C375.1 26 355.7 16 335.1 16L112.9 16C92.3 16 72.9 26 60.9 42.8L11.9 111.3z"/></svg>