<svg xmlns="http://www.w3.org/2000/svg" viewBox="0 0 640 512"><!--! Font Awesome Pro 7.2.0 by @fontawesome - https://fontawesome.com License - https://fontawesome.com/license (Commercial License) Copyright 2026 Fonticons, Inc. --><path fill="currentColor" d="M16 0C7.2 0 0 7.2 0 16S7.2 32 16 32l45.3 0C69 32 75.7 37.5 77 45.1l50.9 279.7c6.2 34.2 36 59.1 70.8 59.1L464 384c8.8 0 16-7.2 16-16s-7.2-16-16-16l-265.3 0c-19.3 0-35.9-13.8-39.4-32.8l-5.7-31.2 313 0c33.9 0 63.3-23.7 70.4-56.9L569.4 80.4C574.8 55.5 555.8 32 530.3 32L106.6 32C99.9 13.1 81.9 0 61.3 0L16 0zm97 64l417.3 0c5.1 0 8.9 4.7 7.8 9.7L505.8 224.4c-4 18.4-20.2 31.6-39.1 31.6L147.9 256 113 64zm75 396a20 20 0 1 1 40 0 20 20 0 1 1 -40 0zm72 0a52 52 0 1 0 -104 0 52 52 0 1 0 104 0zm172-20a20 20 0 1 1 0 40 20 20 0 1 1 0-40zm0 72a52 52 0 1 0 0-104 52 52 0 1 0 0 104z"/></svg>