<svg xmlns="http://www.w3.org/2000/svg" viewBox="0 0 640 512"><!--! Font Awesome Pro 7.2.0 by @fontawesome - https://fontawesome.com License - https://fontawesome.com/license (Commercial License) Copyright 2026 Fonticons, Inc. --><path fill="currentColor" d="M0 16C0 7.2 7.2 0 16 0L61.3 0c23.2 0 43.1 16.6 47.2 39.4l39.4 216.6 318.8 0c18.9 0 35.2-13.2 39.1-31.6L544.4 44.6c1.9-8.6 10.4-14.1 19-12.3s14.1 10.4 12.3 19L537.1 231.1C530 264.3 500.7 288 466.7 288l-313 0 5.7 31.2c3.5 19 20 32.8 39.4 32.8L464 352c8.8 0 16 7.2 16 16s-7.2 16-16 16l-265.3 0c-34.8 0-64.6-24.9-70.8-59.1L77 45.1C75.7 37.5 69 32 61.3 32L16 32C7.2 32 0 24.8 0 16zM208 480a20 20 0 1 0 0-40 20 20 0 1 0 0 40zm0-72a52 52 0 1 1 0 104 52 52 0 1 1 0-104zm244 52a20 20 0 1 0 -40 0 20 20 0 1 0 40 0zm-72 0a52 52 0 1 1 104 0 52 52 0 1 1 -104 0zM304 168l0-56-56 0c-8.8 0-16-7.2-16-16s7.2-16 16-16l56 0 0-56c0-8.8 7.2-16 16-16s16 7.2 16 16l0 56 56 0c8.8 0 16 7.2 16 16s-7.2 16-16 16l-56 0 0 56c0 8.8-7.2 16-16 16s-16-7.2-16-16z"/></svg>