<svg xmlns="http://www.w3.org/2000/svg" viewBox="0 0 512 512"><!--! Font Awesome Pro 7.2.0 by @fontawesome - https://fontawesome.com License - https://fontawesome.com/license (Commercial License) Copyright 2026 Fonticons, Inc. --><path fill="currentColor" d="M480 256a224 224 0 1 0 -448 0 224 224 0 1 0 448 0zM0 256a256 256 0 1 1 512 0 256 256 0 1 1 -512 0zM279.9 128l33 0c8.8 0 16 7.2 16 16s-7.2 16-16 16l-33 0c-35.7 0-66.8 19.3-83.6 48l59.7 0c8.8 0 16 7.2 16 16s-7.2 16-16 16l-71.4 0c-1 5.4-1.4 11-1.4 16.8 0 5.2 .4 10.3 1.2 15.2l71.7 0c8.8 0 16 7.2 16 16s-7.2 16-16 16l-60.6 0c16.6 29.5 48.2 49.5 84.5 49.5l33 0c8.8 0 16 7.2 16 16s-7.2 16-16 16l-33 0c-54.4 0-101-33.8-119.8-81.5L136 304c-8.8 0-16-7.2-16-16s7.2-16 16-16l16 0c-.6-5-.9-10.1-.9-15.2 0-5.7 .4-11.3 1.1-16.8L136 240c-8.8 0-16-7.2-16-16s7.2-16 16-16l24.7 0c19.2-46.9 65.4-80 119.2-80z"/></svg>