<svg xmlns="http://www.w3.org/2000/svg" viewBox="0 0 512 512"><!--! Font Awesome Pro 7.2.0 by @fontawesome - https://fontawesome.com License - https://fontawesome.com/license (Commercial License) Copyright 2026 Fonticons, Inc. --><path fill="currentColor" d="M256 32a224 224 0 1 1 0 448 224 224 0 1 1 0-448zm0 480a256 256 0 1 0 0-512 256 256 0 1 0 0 512zM240 352c0 8.8 7.2 16 16 16s16-7.2 16-16l0-80 80 0c8.8 0 16-7.2 16-16s-7.2-16-16-16l-80 0 0-80c0-8.8-7.2-16-16-16s-16 7.2-16 16l0 80-80 0c-8.8 0-16 7.2-16 16s7.2 16 16 16l80 0 0 80z"/></svg>