<svg xmlns="http://www.w3.org/2000/svg" viewBox="0 0 640 640"><!--! Font Awesome Pro 7.2.0 by @fontawesome - https://fontawesome.com License - https://fontawesome.com/license (Commercial License) Copyright 2026 Fonticons, Inc. --><path fill="currentColor" d="M320 576C178.6 576 64 461.4 64 320C64 178.6 178.6 64 320 64C461.4 64 576 178.6 576 320C576 461.4 461.4 576 320 576zM320 96C196.3 96 96 196.3 96 320C96 443.7 196.3 544 320 544C443.7 544 544 443.7 544 320C544 196.3 443.7 96 320 96zM320 448C306.7 448 296 437.3 296 424C296 410.7 306.7 400 320 400C333.3 400 344 410.7 344 424C344 437.3 333.3 448 320 448zM320 192C333.5 192 344.3 203.4 343.5 216.9L335.9 352.9C335.4 361.4 328.4 368 319.9 368C311.4 368 304.4 361.4 303.9 352.9L296.3 216.9C295.5 203.4 306.3 192 319.8 192z"/></svg>