<svg xmlns="http://www.w3.org/2000/svg" viewBox="0 0 384 512"><!--! Font Awesome Pro 7.2.0 by @fontawesome - https://fontawesome.com License - https://fontawesome.com/license (Commercial License) Copyright 2026 Fonticons, Inc. --><path fill="currentColor" d="M248 0c22.3 0 41.6 13.1 50.6 32L320 32c35.3 0 64 28.7 64 64l0 352c0 35.3-28.7 64-64 64L64 512c-35.3 0-64-28.7-64-64L0 96C0 60.7 28.7 32 64 32l21.4 0c9-18.9 28.3-32 50.6-32L248 0zM64 64C46.3 64 32 78.3 32 96l0 352c0 17.7 14.3 32 32 32l256 0c17.7 0 32-14.3 32-32l0-352c0-17.7-14.3-32-32-32l-16.6 0c-3.9 27.1-27.2 48-55.4 48l-112 0c-28.2 0-51.6-20.9-55.4-48L64 64zM259.1 218.2c5.2-7.1 15.2-8.7 22.3-3.5s8.7 15.2 3.5 22.3L179.3 382.2c-2.8 3.8-7.1 6.2-11.8 6.5s-9.3-1.4-12.6-4.8l-54.4-56.3c-6.1-6.4-6-16.5 .4-22.6s16.5-5.9 22.6 .4l41.2 42.6 94.4-129.8zM136 32c-13.3 0-24 10.7-24 24s10.7 24 24 24l112 0c13.3 0 24-10.7 24-24s-10.7-24-24-24L136 32z"/></svg>