<svg xmlns="http://www.w3.org/2000/svg" viewBox="0 0 384 512"><!--! Font Awesome Pro 7.2.0 by @fontawesome - https://fontawesome.com License - https://fontawesome.com/license (Commercial License) Copyright 2026 Fonticons, Inc. --><path fill="currentColor" d="M136 80l112 0c13.3 0 24-10.7 24-24s-10.7-24-24-24L136 32c-13.3 0-24 10.7-24 24s10.7 24 24 24zm0 32c-28.2 0-51.6-20.9-55.4-48L64 64C46.3 64 32 78.3 32 96l0 352c0 17.7 14.3 32 32 32l256 0c17.7 0 32-14.3 32-32l0-352c0-17.7-14.3-32-32-32l-16.6 0c-3.9 27.1-27.2 48-55.4 48l-112 0zM248 0c22.3 0 41.6 13.1 50.6 32L320 32c35.3 0 64 28.7 64 64l0 352c0 35.3-28.7 64-64 64L64 512c-35.3 0-64-28.7-64-64L0 96C0 60.7 28.7 32 64 32l21.4 0c9-18.9 28.3-32 50.6-32L248 0zM192 224c-8.8 0-16-7.2-16-16s7.2-16 16-16l96 0c8.8 0 16 7.2 16 16s-7.2 16-16 16l-96 0zm0 160l96 0c8.8 0 16 7.2 16 16s-7.2 16-16 16l-96 0c-8.8 0-16-7.2-16-16s7.2-16 16-16zm-56 16c0 13.3-10.7 24-24 24s-24-10.7-24-24 10.7-24 24-24 24 10.7 24 24zM112 280a24 24 0 1 1 0 48 24 24 0 1 1 0-48zM88 208a24 24 0 1 1 48 0 24 24 0 1 1 -48 0zM192 320c-8.8 0-16-7.2-16-16s7.2-16 16-16l96 0c8.8 0 16 7.2 16 16s-7.2 16-16 16l-96 0z"/></svg>