<svg xmlns="http://www.w3.org/2000/svg" viewBox="0 0 512 512"><!--! Font Awesome Pro 7.2.0 by @fontawesome - https://fontawesome.com License - https://fontawesome.com/license (Commercial License) Copyright 2026 Fonticons, Inc. --><path fill="currentColor" d="M288 480L64 480c-17.7 0-32-14.3-32-32l0-224c0-17.7 14.3-32 32-32l48 0 0-32-48 0c-35.3 0-64 28.7-64 64L0 448c0 35.3 28.7 64 64 64l224 0c35.3 0 64-28.7 64-64l0-48-32 0 0 48c0 17.7-14.3 32-32 32zM224 320c-17.7 0-32-14.3-32-32l0-224c0-17.7 14.3-32 32-32l224 0c17.7 0 32 14.3 32 32l0 224c0 17.7-14.3 32-32 32l-224 0zm-64-32c0 35.3 28.7 64 64 64l224 0c35.3 0 64-28.7 64-64l0-224c0-35.3-28.7-64-64-64L224 0c-35.3 0-64 28.7-64 64l0 224z"/></svg>