<svg xmlns="http://www.w3.org/2000/svg" viewBox="0 0 512 512"><!--! Font Awesome Pro 7.2.0 by @fontawesome - https://fontawesome.com License - https://fontawesome.com/license (Commercial License) Copyright 2026 Fonticons, Inc. --><path fill="currentColor" d="M448 96c17.7 0 32 14.3 32 32l0 64-448 0 0-64c0-17.7 14.3-32 32-32l384 0zm32 128l0 160c0 17.7-14.3 32-32 32L64 416c-17.7 0-32-14.3-32-32l0-160 448 0zM64 64C28.7 64 0 92.7 0 128L0 384c0 35.3 28.7 64 64 64l384 0c35.3 0 64-28.7 64-64l0-256c0-35.3-28.7-64-64-64L64 64zM96 336c0 8.8 7.2 16 16 16l32 0c8.8 0 16-7.2 16-16s-7.2-16-16-16l-32 0c-8.8 0-16 7.2-16 16zm96 0c0 8.8 7.2 16 16 16l32 0c8.8 0 16-7.2 16-16s-7.2-16-16-16l-32 0c-8.8 0-16 7.2-16 16z"/></svg>