<svg xmlns="http://www.w3.org/2000/svg" viewBox="0 0 512 512"><!--! Font Awesome Pro 7.2.0 by @fontawesome - https://fontawesome.com License - https://fontawesome.com/license (Commercial License) Copyright 2026 Fonticons, Inc. --><path fill="currentColor" d="M280.5-2.4c-14.9-8.6-33.1-8.6-48 0L144.2 48.5c-14.9 8.6-24 24.4-24 41.6l0 111.1-96.2 55.6C9.1 265.4 0 281.2 0 298.3L0 400.2c0 17.1 9.1 33 24 41.6l88.2 50.9c14.9 8.6 33.1 8.6 48 0l96.2-55.6 96.2 55.6c14.9 8.6 33.1 8.6 48 0L489 441.8c14.9-8.6 24-24.4 24-41.6l0-101.9c0-17.1-9.1-33-24-41.6l-96.2-55.6 0-111.1c0-17.1-9.1-33-24-41.6L280.5-2.4zM48 279.9l88.2-50.9 88.2 50.9-88.2 50.9-88.2-50.9zM32 307.6l88.2 50.9 0 101.9-80.2-46.3c-5-2.9-8-8.1-8-13.9l0-92.7zM152.2 460.4l0-101.9 88.2-50.9 0 101.9-88.2 50.9zM272.5 307.6l88.2 50.9 0 101.9-88.2-50.9 0-101.9zM392.7 460.4l0-101.9 88.2-50.9 0 92.7c0 5.7-3 11-8 13.9l-80.2 46.3zM465 279.9l-88.2 50.9-88.2-50.9 88.2-50.9 88.2 50.9zM272.5 252.2l0-101.9 88.2-50.9 0 101.9-88.2 50.9zM344.7 71.6l-88.2 50.9-88.2-50.9 80.2-46.3c5-2.9 11-2.9 16 0l80.2 46.3zM152.2 99.3l88.2 50.9 0 101.9-88.2-50.9 0-101.9z"/></svg>