<svg xmlns="http://www.w3.org/2000/svg" viewBox="0 0 640 640"><!--! Font Awesome Pro 7.2.0 by @fontawesome - https://fontawesome.com License - https://fontawesome.com/license (Commercial License) Copyright 2026 Fonticons, Inc. --><path fill="currentColor" d="M304 80C304 71.2 311.2 64 320 64C328.8 64 336 71.2 336 80L336 128L416 128C424.8 128 432 135.2 432 144C432 152.8 424.8 160 416 160L273.9 160C237.5 160 208 189.5 208 225.9C208 258.4 231.6 286 263.7 291L377.5 308.8C427.3 316.6 463.9 359.4 463.9 409.8C463.9 466.3 418.1 512 361.7 512L335.9 512L335.9 560C335.9 568.8 328.7 576 319.9 576C311.1 576 303.9 568.8 303.9 560L303.9 512L207.9 512C199.1 512 191.9 504.8 191.9 496C191.9 487.2 199.1 480 207.9 480L361.7 480C400.5 480 431.9 448.6 431.9 409.8C431.9 375.2 406.7 345.8 372.5 340.4L258.8 322.6C211.1 315.2 176 274.1 176 225.9C176 171.8 219.8 128 273.9 128L304 128L304 80z"/></svg>