<svg xmlns="http://www.w3.org/2000/svg" viewBox="0 0 512 512"><!--! Font Awesome Pro 7.2.0 by @fontawesome - https://fontawesome.com License - https://fontawesome.com/license (Commercial License) Copyright 2026 Fonticons, Inc. --><path fill="currentColor" d="M48 256a32 32 0 1 0 64 0 32 32 0 1 0 -64 0zm96 0a64 64 0 1 1 -128 0 64 64 0 1 1 128 0zm112-32a32 32 0 1 0 0 64 32 32 0 1 0 0-64zm0 96a64 64 0 1 1 0-128 64 64 0 1 1 0 128zm176-96a32 32 0 1 0 0 64 32 32 0 1 0 0-64zm0 96a64 64 0 1 1 0-128 64 64 0 1 1 0 128z"/></svg>