<svg xmlns="http://www.w3.org/2000/svg" viewBox="0 0 512 512"><!--! Font Awesome Pro 7.2.0 by @fontawesome - https://fontawesome.com License - https://fontawesome.com/license (Commercial License) Copyright 2026 Fonticons, Inc. --><path fill="currentColor" d="M512 424c0 30.9-24.9 56-55.9 56L55.9 480C24.9 480 0 454.9 0 424L0 152c.2-15.5 8.1-29.9 21-38.5L211.6-13.6c26.9-17.9 61.9-17.9 88.8 0L491 113.5c12.9 8.6 20.8 23 21 38.5l0 272zM55.9 448l400.2 0c13.2 0 23.9-10.7 23.9-24l0-223.6-175.3 134.4c-28.7 22-68.6 22-97.3 0L32 200.4 32 424c0 13.3 10.7 24 23.9 24zM480 152.6c0-5.1-2.5-9.8-6.7-12.6L282.6 13c-16.1-10.7-37.1-10.7-53.3 0L38.7 140.1c-4.2 2.8-6.7 7.5-6.7 12.6 0 4.7 2.2 9.1 5.9 12L226.8 309.4c17.2 13.2 41.2 13.2 58.4 0L474.1 164.6c3.7-2.9 5.9-7.3 5.9-12z"/></svg>