<svg xmlns="http://www.w3.org/2000/svg" viewBox="0 0 384 512"><!--! Font Awesome Pro 7.2.0 by @fontawesome - https://fontawesome.com License - https://fontawesome.com/license (Commercial License) Copyright 2026 Fonticons, Inc. --><path fill="currentColor" d="M57.3 192C84.8 99.5 170.5 32 272 32l48 0c8.8 0 16 7.2 16 16s-7.2 16-16 16l-48 0c-83.6 0-154.7 53.4-181.1 128L240 192c8.8 0 16 7.2 16 16s-7.2 16-16 16L82.7 224c-1.7 10.4-2.7 21.1-2.7 32s.9 21.6 2.7 32L240 288c8.8 0 16 7.2 16 16s-7.2 16-16 16L90.9 320c26.4 74.6 97.5 128 181.1 128l48 0c8.8 0 16 7.2 16 16s-7.2 16-16 16l-48 0C170.5 480 84.8 412.5 57.3 320L16 320c-8.8 0-16-7.2-16-16s7.2-16 16-16l34.3 0c-1.5-10.5-2.3-21.1-2.3-32s.8-21.5 2.3-32L16 224c-8.8 0-16-7.2-16-16s7.2-16 16-16l41.3 0z"/></svg>