<svg xmlns="http://www.w3.org/2000/svg" viewBox="0 0 576 512"><!--! Font Awesome Pro 7.2.0 by @fontawesome - https://fontawesome.com License - https://fontawesome.com/license (Commercial License) Copyright 2026 Fonticons, Inc. --><path fill="currentColor" d="M547.5 246c5.6-6.9 15.7-7.9 22.5-2.3s7.9 15.7 2.3 22.5c-6.2 7.5-13.2 14.6-20.2 21.4-11.1 10.7-26.6 24.4-46.1 38.5l43.9 76c4.4 7.6 1.8 17.4-5.8 21.8-7.7 4.4-17.5 1.8-21.9-5.8l-42.8-74.2c-20.6 12.6-44.3 24.8-71 34.5l23 85.9c2.3 8.5-2.8 17.3-11.3 19.6s-17.3-2.8-19.6-11.3L377.9 388c-22.9 6.1-47.6 10.3-73.9 11.6l0 96.4c0 8.8-7.2 16-16 16s-16-7.2-16-16l0-96.4c-26.3-1.2-51-5.4-73.9-11.6l-22.6 84.6c-2.3 8.5-11.1 13.6-19.6 11.3s-13.6-11.1-11.3-19.6l23-85.9c-26.6-9.7-50.4-21.8-70.9-34.4L53.9 418.1c-4.4 7.6-14.2 10.3-21.9 5.8-7.6-4.4-10.3-14.2-5.8-21.8L70 326.1c-19.6-14.2-35.1-27.9-46.2-38.6-7-6.8-14-13.9-20.2-21.4-5.6-6.9-4.5-17 2.3-22.5 6.9-5.6 17-4.5 22.5 2.3 1.1 1.3 7.2 8.6 17.6 18.6 11.8 11.5 29.4 26.9 52 42.3 45.3 30.8 110.2 61.2 190 61.2s144.7-30.4 190-61.2c22.6-15.4 40.2-30.8 52-42.3 10.3-10 16.4-17.2 17.6-18.6z"/></svg>