<svg xmlns="http://www.w3.org/2000/svg" viewBox="0 0 384 512"><!--! Font Awesome Pro 7.2.0 by @fontawesome - https://fontawesome.com License - https://fontawesome.com/license (Commercial License) Copyright 2026 Fonticons, Inc. --><path fill="currentColor" d="M192 32L64 32C46.3 32 32 46.3 32 64l0 384c0 17.7 14.3 32 32 32l256 0c17.7 0 32-14.3 32-32l0-256-96 0c-35.3 0-64-28.7-64-64l0-96zM338.7 160L224 45.3 224 128c0 17.7 14.3 32 32 32l82.7 0zM0 64C0 28.7 28.7 0 64 0L197.5 0c17 0 33.3 6.7 45.3 18.7L365.3 141.3c12 12 18.7 28.3 18.7 45.3L384 448c0 35.3-28.7 64-64 64L64 512c-35.3 0-64-28.7-64-64L0 64z"/></svg>