<svg xmlns="http://www.w3.org/2000/svg" viewBox="0 0 384 512"><!--! Font Awesome Pro 7.2.0 by @fontawesome - https://fontawesome.com License - https://fontawesome.com/license (Commercial License) Copyright 2026 Fonticons, Inc. --><path fill="currentColor" d="M192 32L64 32C46.3 32 32 46.3 32 64l0 384c0 17.7 14.3 32 32 32l256 0c17.7 0 32-14.3 32-32l0-256-96 0c-35.3 0-64-28.7-64-64l0-96zM338.7 160L224 45.3 224 128c0 17.7 14.3 32 32 32l82.7 0zM0 64C0 28.7 28.7 0 64 0L197.5 0c17 0 33.3 6.7 45.3 18.7L365.3 141.3c12 12 18.7 28.3 18.7 45.3L384 448c0 35.3-28.7 64-64 64L64 512c-35.3 0-64-28.7-64-64L0 64zM176 248c0-8.8 7.2-16 16-16s16 7.2 16 16l0 8 16 0c8.8 0 16 7.2 16 16s-7.2 16-16 16l-49.7 0c-7.9 0-14.3 6.4-14.3 14.3 0 7 5.1 13 12 14.1l45.3 7.6c22.3 3.7 38.7 23 38.7 45.7 0 25.6-20.7 46.3-46.3 46.3l-1.7 0 0 8c0 8.8-7.2 16-16 16s-16-7.2-16-16l0-8-24 0c-8.8 0-16-7.2-16-16s7.2-16 16-16l57.7 0c7.9 0 14.3-6.4 14.3-14.3 0-7-5.1-13-12-14.1L166.7 348c-22.3-3.7-38.7-23-38.7-45.7 0-25.6 20.7-46.3 46.3-46.3l1.7 0 0-8zM80 96l64 0c8.8 0 16 7.2 16 16s-7.2 16-16 16l-64 0c-8.8 0-16-7.2-16-16s7.2-16 16-16zm0 64l64 0c8.8 0 16 7.2 16 16s-7.2 16-16 16l-64 0c-8.8 0-16-7.2-16-16s7.2-16 16-16z"/></svg>