<svg xmlns="http://www.w3.org/2000/svg" viewBox="0 0 384 512"><!--! Font Awesome Pro 7.2.0 by @fontawesome - https://fontawesome.com License - https://fontawesome.com/license (Commercial License) Copyright 2026 Fonticons, Inc. --><path fill="currentColor" d="M192 32L64 32C46.3 32 32 46.3 32 64l0 384c0 17.7 14.3 32 32 32l256 0c17.7 0 32-14.3 32-32l0-256-96 0c-35.3 0-64-28.7-64-64l0-96zM338.7 160L224 45.3 224 128c0 17.7 14.3 32 32 32l82.7 0zM0 64C0 28.7 28.7 0 64 0L197.5 0c17 0 33.3 6.7 45.3 18.7L365.3 141.3c12 12 18.7 28.3 18.7 45.3L384 448c0 35.3-28.7 64-64 64L64 512c-35.3 0-64-28.7-64-64L0 64zM96 296l0 80c0 4.4 3.6 8 8 8l176 0c4.4 0 8-3.6 8-8l0-80c0-4.4-3.6-8-8-8l-176 0c-4.4 0-8 3.6-8 8zm-32 0c0-22.1 17.9-40 40-40l176 0c22.1 0 40 17.9 40 40l0 80c0 22.1-17.9 40-40 40l-176 0c-22.1 0-40-17.9-40-40l0-80zM80 96l64 0c8.8 0 16 7.2 16 16s-7.2 16-16 16l-64 0c-8.8 0-16-7.2-16-16s7.2-16 16-16zm0 64l64 0c8.8 0 16 7.2 16 16s-7.2 16-16 16l-64 0c-8.8 0-16-7.2-16-16s7.2-16 16-16z"/></svg>