<svg xmlns="http://www.w3.org/2000/svg" viewBox="0 0 384 512"><!--! Font Awesome Pro 7.2.0 by @fontawesome - https://fontawesome.com License - https://fontawesome.com/license (Commercial License) Copyright 2026 Fonticons, Inc. --><path fill="currentColor" d="M64 32l128 0 0 96c0 35.3 28.7 64 64 64l96 0 0 256c0 17.7-14.3 32-32 32L64 480c-17.7 0-32-14.3-32-32L32 64c0-17.7 14.3-32 32-32zM224 45.3L338.7 160 256 160c-17.7 0-32-14.3-32-32l0-82.7zM64 0C28.7 0 0 28.7 0 64L0 448c0 35.3 28.7 64 64 64l256 0c35.3 0 64-28.7 64-64l0-261.5c0-17-6.7-33.3-18.7-45.3L242.7 18.7C230.7 6.7 214.5 0 197.5 0L64 0zM275.3 316.7l-72-72c-6.2-6.2-16.4-6.2-22.6 0l-72 72c-6.2 6.2-6.2 16.4 0 22.6s16.4 6.2 22.6 0L176 294.6 176 416c0 8.8 7.2 16 16 16s16-7.2 16-16l0-121.4 44.7 44.7c6.2 6.2 16.4 6.2 22.6 0s6.2-16.4 0-22.6z"/></svg>