<svg xmlns="http://www.w3.org/2000/svg" viewBox="0 0 576 512"><!--! Font Awesome Pro 7.2.0 by @fontawesome - https://fontawesome.com License - https://fontawesome.com/license (Commercial License) Copyright 2026 Fonticons, Inc. --><path fill="currentColor" d="M409.4 195.3L540.7 64 211.3 64 342.6 195.3c6 6 9.4 14.1 9.4 22.6l0 114.7 48 48 0-162.7c0-8.5 3.4-16.6 9.4-22.6zM567.3 82.6L432 217.9 432 386.3c0 16.4-13.3 29.7-29.7 29.7-7.9 0-15.4-3.1-21-8.7L327 353c-4.5-4.5-7-10.6-7-17l0-118.1-135.3-135.3c-5.6-5.6-8.7-13.1-8.7-21 0-16.4 13.3-29.7 29.7-29.7l340.7 0c16.4 0 29.7 13.3 29.7 29.7 0 7.9-3.1 15.4-8.7 21zM29.7 128l132.5 0 32 32-158.9 0 131.3 131.3c6 6 9.4 14.1 9.4 22.6l0 114.7 48 48 0-162.7c0-8.5 3.4-16.6 9.4-22.6l38.6-38.6 0 45.3-16 16 0 168.4c0 16.4-13.3 29.7-29.7 29.7-7.9 0-15.4-3.1-21-8.7L151 449c-4.5-4.5-7-10.6-7-17L144 313.9 8.7 178.6C3.1 173.1 0 165.5 0 157.7 0 141.3 13.3 128 29.7 128z"/></svg>