<svg xmlns="http://www.w3.org/2000/svg" viewBox="0 0 576 512"><!--! Font Awesome Pro 7.2.0 by @fontawesome - https://fontawesome.com License - https://fontawesome.com/license (Commercial License) Copyright 2026 Fonticons, Inc. --><path fill="currentColor" d="M233.4 203.3L340.7 96 43.3 96 150.6 203.3c6 6 9.4 14.1 9.4 22.6l0 114.7 64 64 0-178.7c0-8.5 3.4-16.6 9.4-22.6zM377 105l-121 121 0 198.1c0 9.7-5.8 18.5-14.8 22.2s-19.3 1.7-26.2-5.2l-80-80c-4.5-4.5-7-10.6-7-17L128 225.9 7 105C.2 98.1-1.9 87.8 1.8 78.8S14.3 64 24 64l336 0c9.7 0 18.5 5.8 22.2 14.8s1.7 19.3-5.2 26.2zm87-41l64 0c8.8 0 16 7.2 16 16s-7.2 16-16 16l-64 0c-8.8 0-16-7.2-16-16s7.2-16 16-16zM336 240l192 0c8.8 0 16 7.2 16 16s-7.2 16-16 16l-192 0c-8.8 0-16-7.2-16-16s7.2-16 16-16zm0 176l192 0c8.8 0 16 7.2 16 16s-7.2 16-16 16l-192 0c-8.8 0-16-7.2-16-16s7.2-16 16-16z"/></svg>