<svg xmlns="http://www.w3.org/2000/svg" viewBox="0 0 576 512"><!--! Font Awesome Pro 7.2.0 by @fontawesome - https://fontawesome.com License - https://fontawesome.com/license (Commercial License) Copyright 2026 Fonticons, Inc. --><path fill="currentColor" d="M512 352l-352 0c-17.7 0-32-14.3-32-32l0-256c0-17.7 14.3-32 32-32l117.5 0c8.5 0 16.6 3.4 22.6 9.4L336 77.3c12 12 28.3 18.7 45.3 18.7L512 96c17.7 0 32 14.3 32 32l0 192c0 17.7-14.3 32-32 32zM160 384l352 0c35.3 0 64-28.7 64-64l0-192c0-35.3-28.7-64-64-64L381.3 64c-8.5 0-16.6-3.4-22.6-9.4L322.7 18.7C310.7 6.7 294.5 0 277.5 0L160 0C124.7 0 96 28.7 96 64l0 256c0 35.3 28.7 64 64 64zM32 112c0-8.8-7.2-16-16-16S0 103.2 0 112L0 416c0 35.3 28.7 64 64 64l400 0c8.8 0 16-7.2 16-16s-7.2-16-16-16L64 448c-17.7 0-32-14.3-32-32l0-304z"/></svg>