<svg xmlns="http://www.w3.org/2000/svg" viewBox="0 0 448 512"><!--! Font Awesome Pro 7.2.0 by @fontawesome - https://fontawesome.com License - https://fontawesome.com/license (Commercial License) Copyright 2026 Fonticons, Inc. --><path fill="currentColor" d="M48 64c-8.8 0-16 7.2-16 16l0 96c0 8.8 7.2 16 16 16l96 0c8.8 0 16-7.2 16-16l0-96c0-8.8-7.2-16-16-16L48 64zM0 80C0 53.5 21.5 32 48 32l96 0c26.5 0 48 21.5 48 48l0 96c0 26.5-21.5 48-48 48l-96 0c-26.5 0-48-21.5-48-48L0 80zM48 320c-8.8 0-16 7.2-16 16l0 96c0 8.8 7.2 16 16 16l96 0c8.8 0 16-7.2 16-16l0-96c0-8.8-7.2-16-16-16l-96 0zM0 336c0-26.5 21.5-48 48-48l96 0c26.5 0 48 21.5 48 48l0 96c0 26.5-21.5 48-48 48l-96 0c-26.5 0-48-21.5-48-48l0-96zM400 64l-96 0c-8.8 0-16 7.2-16 16l0 96c0 8.8 7.2 16 16 16l96 0c8.8 0 16-7.2 16-16l0-96c0-8.8-7.2-16-16-16zM304 32l96 0c26.5 0 48 21.5 48 48l0 96c0 26.5-21.5 48-48 48l-96 0c-26.5 0-48-21.5-48-48l0-96c0-26.5 21.5-48 48-48zm64 272l0 64 64 0c8.8 0 16 7.2 16 16s-7.2 16-16 16l-64 0 0 64c0 8.8-7.2 16-16 16s-16-7.2-16-16l0-64-64 0c-8.8 0-16-7.2-16-16s7.2-16 16-16l64 0 0-64c0-8.8 7.2-16 16-16s16 7.2 16 16z"/></svg>