<svg xmlns="http://www.w3.org/2000/svg" viewBox="0 0 448 512"><!--! Font Awesome Pro 7.2.0 by @fontawesome - https://fontawesome.com License - https://fontawesome.com/license (Commercial License) Copyright 2026 Fonticons, Inc. --><path fill="currentColor" d="M80 64l0 48-48 0 0-48 48 0zM32 32C14.3 32 0 46.3 0 64l0 48c0 17.7 14.3 32 32 32l48 0c17.7 0 32-14.3 32-32l0-48c0-17.7-14.3-32-32-32L32 32zM80 232l0 48-48 0 0-48 48 0zM32 200c-17.7 0-32 14.3-32 32l0 48c0 17.7 14.3 32 32 32l48 0c17.7 0 32-14.3 32-32l0-48c0-17.7-14.3-32-32-32l-48 0zm0 200l48 0 0 48-48 0 0-48zM0 400l0 48c0 17.7 14.3 32 32 32l48 0c17.7 0 32-14.3 32-32l0-48c0-17.7-14.3-32-32-32l-48 0c-17.7 0-32 14.3-32 32zM248 64l0 48-48 0 0-48 48 0zM200 32c-17.7 0-32 14.3-32 32l0 48c0 17.7 14.3 32 32 32l48 0c17.7 0 32-14.3 32-32l0-48c0-17.7-14.3-32-32-32l-48 0zm0 200l48 0 0 48-48 0 0-48zm-32 0l0 48c0 17.7 14.3 32 32 32l48 0c17.7 0 32-14.3 32-32l0-48c0-17.7-14.3-32-32-32l-48 0c-17.7 0-32 14.3-32 32zm80 168l0 48-48 0 0-48 48 0zm-48-32c-17.7 0-32 14.3-32 32l0 48c0 17.7 14.3 32 32 32l48 0c17.7 0 32-14.3 32-32l0-48c0-17.7-14.3-32-32-32l-48 0zM368 64l48 0 0 48-48 0 0-48zm-32 0l0 48c0 17.7 14.3 32 32 32l48 0c17.7 0 32-14.3 32-32l0-48c0-17.7-14.3-32-32-32l-48 0c-17.7 0-32 14.3-32 32zm80 168l0 48-48 0 0-48 48 0zm-48-32c-17.7 0-32 14.3-32 32l0 48c0 17.7 14.3 32 32 32l48 0c17.7 0 32-14.3 32-32l0-48c0-17.7-14.3-32-32-32l-48 0zm0 200l48 0 0 48-48 0 0-48zm-32 0l0 48c0 17.7 14.3 32 32 32l48 0c17.7 0 32-14.3 32-32l0-48c0-17.7-14.3-32-32-32l-48 0c-17.7 0-32 14.3-32 32z"/></svg>