<svg xmlns="http://www.w3.org/2000/svg" viewBox="0 0 320 512"><!--! Font Awesome Pro 7.2.0 by @fontawesome - https://fontawesome.com License - https://fontawesome.com/license (Commercial License) Copyright 2026 Fonticons, Inc. --><path fill="currentColor" d="M40 32c-4.4 0-8 3.6-8 8l0 48c0 4.4 3.6 8 8 8l48 0c4.4 0 8-3.6 8-8l0-48c0-4.4-3.6-8-8-8L40 32zM0 40C0 17.9 17.9 0 40 0L88 0c22.1 0 40 17.9 40 40l0 48c0 22.1-17.9 40-40 40l-48 0C17.9 128 0 110.1 0 88L0 40zM40 224c-4.4 0-8 3.6-8 8l0 48c0 4.4 3.6 8 8 8l48 0c4.4 0 8-3.6 8-8l0-48c0-4.4-3.6-8-8-8l-48 0zM0 232c0-22.1 17.9-40 40-40l48 0c22.1 0 40 17.9 40 40l0 48c0 22.1-17.9 40-40 40l-48 0c-22.1 0-40-17.9-40-40l0-48zM88 416l-48 0c-4.4 0-8 3.6-8 8l0 48c0 4.4 3.6 8 8 8l48 0c4.4 0 8-3.6 8-8l0-48c0-4.4-3.6-8-8-8zM40 384l48 0c22.1 0 40 17.9 40 40l0 48c0 22.1-17.9 40-40 40l-48 0c-22.1 0-40-17.9-40-40l0-48c0-22.1 17.9-40 40-40zM232 32c-4.4 0-8 3.6-8 8l0 48c0 4.4 3.6 8 8 8l48 0c4.4 0 8-3.6 8-8l0-48c0-4.4-3.6-8-8-8l-48 0zm-40 8c0-22.1 17.9-40 40-40l48 0c22.1 0 40 17.9 40 40l0 48c0 22.1-17.9 40-40 40l-48 0c-22.1 0-40-17.9-40-40l0-48zm88 184l-48 0c-4.4 0-8 3.6-8 8l0 48c0 4.4 3.6 8 8 8l48 0c4.4 0 8-3.6 8-8l0-48c0-4.4-3.6-8-8-8zm-48-32l48 0c22.1 0 40 17.9 40 40l0 48c0 22.1-17.9 40-40 40l-48 0c-22.1 0-40-17.9-40-40l0-48c0-22.1 17.9-40 40-40zm0 224c-4.4 0-8 3.6-8 8l0 48c0 4.4 3.6 8 8 8l48 0c4.4 0 8-3.6 8-8l0-48c0-4.4-3.6-8-8-8l-48 0zm-40 8c0-22.1 17.9-40 40-40l48 0c22.1 0 40 17.9 40 40l0 48c0 22.1-17.9 40-40 40l-48 0c-22.1 0-40-17.9-40-40l0-48z"/></svg>