<svg xmlns="http://www.w3.org/2000/svg" viewBox="0 0 576 512"><!--! Font Awesome Pro 7.2.0 by @fontawesome - https://fontawesome.com License - https://fontawesome.com/license (Commercial License) Copyright 2026 Fonticons, Inc. --><path fill="currentColor" d="M281.8 52.5c39.5-3.5 74.4 25.8 77.8 65.3 .5 5.3 .5 10.6 .1 15.9 10.6 5.6 20.5 12.4 29.5 20.3 2.5-12.7 3.5-25.7 2.3-39-5-57.1-55.4-99.4-112.5-94.4-33.2 2.9-63 21.6-80.1 50.2l-7 11.7-8.9-10.3c-21.8-25.2-54.4-38.4-87.6-35.5-57.1 5-99.4 55.4-94.4 112.5 4.5 51.9 40.5 94.8 71.5 126.4 25.2 25.7 53.4 48.5 78 66.4-5.7-15.6-10.1-32.2-12.2-49.7-14.5-11.9-29.3-25-43-39-30.8-31.4-59-67.2-62.5-106.8-3.5-39.5 25.8-74.4 65.3-77.8 23-2 45.5 7.1 60.6 24.6l23.4 27.1c3.4 3.9 8.4 5.9 13.5 5.5s9.7-3.3 12.3-7.7l18.4-30.7c11.8-19.8 32.4-32.7 55.4-34.7zM418.3 237.1c15.1-17.4 37.6-26.6 60.6-24.6 39.5 3.5 68.8 38.3 65.3 77.8-3.5 39.6-31.6 75.4-62.5 106.8-34.5 35.2-75.5 65.2-103.3 82.8-4.2 2.6-9.6 4-15.7 3.5s-11.2-2.8-14.9-6.1c-24.3-22.2-59.5-58.8-87.4-99.5-24.9-36.3-46.4-76.4-43-116 3.5-39.5 38.3-68.8 77.8-65.3 23 2 43.6 14.9 55.4 34.7L369 261.9c2.6 4.4 7.2 7.3 12.3 7.7s10.1-1.6 13.5-5.5l23.4-27.1zm63.4-56.4c-33.2-2.9-65.8 10.3-87.6 35.5l-8.9 10.3-7-11.7c-17.1-28.6-46.9-47.3-80.1-50.2-57.1-5-107.5 37.3-112.5 94.4-4.5 51.9 23.4 100.4 48.5 136.9 29.7 43.2 66.6 81.7 92.2 105 18.5 16.9 48.1 19.5 69.3 6.1 29.3-18.6 72.3-50 109-87.4 31-31.6 67-74.5 71.5-126.4 5-57.1-37.3-107.5-94.4-112.5z"/></svg>