<svg xmlns="http://www.w3.org/2000/svg" viewBox="0 0 512 512"><!--! Font Awesome Pro 7.2.0 by @fontawesome - https://fontawesome.com License - https://fontawesome.com/license (Commercial License) Copyright 2026 Fonticons, Inc. --><path fill="currentColor" d="M245.6 4.3c6.1-5.7 15.7-5.7 21.8 0l240 224c6.5 6 6.8 16.2 .8 22.6s-16.2 6.8-22.6 .8l-21.1-19.7 0 216c0 35.3-28.7 64-64 64l-288 0c-35.3 0-64-28.7-64-64l0-216-21.1 19.7c-6.5 6-16.6 5.7-22.6-.8s-5.7-16.6 .8-22.6l240-224zm10.9 33.6l-176 164.3 0 245.8c0 17.7 14.3 32 32 32l64 0 0-112c0-35.3 28.7-64 64-64l32 0c35.3 0 64 28.7 64 64l0 112 64 0c17.7 0 32-14.3 32-32l0-245.8-176-164.3zM208.5 480l96 0 0-112c0-17.7-14.3-32-32-32l-32 0c-17.7 0-32 14.3-32 32l0 112z"/></svg>