<svg xmlns="http://www.w3.org/2000/svg" viewBox="0 0 640 512"><!--! Font Awesome Pro 7.2.0 by @fontawesome - https://fontawesome.com License - https://fontawesome.com/license (Commercial License) Copyright 2026 Fonticons, Inc. --><path fill="currentColor" d="M576 32L352 32c-17.7 0-32 14.3-32 32l0 61-32-28 0-33c0-35.3 28.7-64 64-64L576 0c35.3 0 64 28.7 64 64l0 384c0 35.3-28.7 64-64 64l-164.1 0c6.7-9.7 12-20.4 15.4-32L576 480c17.7 0 32-14.3 32-32l0-384c0-17.7-14.3-32-32-32zm-88 88c0-8.8 7.2-16 16-16l16 0c8.8 0 16 7.2 16 16l0 16c0 8.8-7.2 16-16 16l-16 0c-8.8 0-16-7.2-16-16l0-16zm16 80l16 0c8.8 0 16 7.2 16 16l0 16c0 8.8-7.2 16-16 16l-16 0c-8.8 0-16-7.2-16-16l0-16c0-8.8 7.2-16 16-16zM488 312c0-8.8 7.2-16 16-16l16 0c8.8 0 16 7.2 16 16l0 16c0 8.8-7.2 16-16 16l-16 0c-8.8 0-16-7.2-16-16l0-16zM408 104l16 0c8.8 0 16 7.2 16 16l0 16c0 8.8-7.2 16-16 16l-16 0c-8.8 0-16-7.2-16-16l0-16c0-8.8 7.2-16 16-16zm-189.5-4l192 168c6.6 5.8 7.3 15.9 1.5 22.6s-15.9 7.3-22.6 1.5l-5.5-4.8 0 160.7c0 35.3-28.7 64-64 64L96 512c-35.3 0-64-28.7-64-64l0-160.7-5.5 4.8c-6.7 5.8-16.8 5.1-22.6-1.5S-1.2 273.8 5.5 268l192-168c6-5.3 15-5.3 21.1 0zM352 259.3l-144-126-144 126 0 188.7c0 17.7 14.3 32 32 32l224 0c17.7 0 32-14.3 32-32l0-188.7zM152 296c0-17.7 14.3-32 32-32l48 0c17.7 0 32 14.3 32 32l0 48c0 17.7-14.3 32-32 32l-48 0c-17.7 0-32-14.3-32-32l0-48zm32 0l0 48 48 0 0-48-48 0z"/></svg>