<svg xmlns="http://www.w3.org/2000/svg" viewBox="0 0 384 512"><!--! Font Awesome Pro 7.2.0 by @fontawesome - https://fontawesome.com License - https://fontawesome.com/license (Commercial License) Copyright 2026 Fonticons, Inc. --><path fill="currentColor" d="M320 32c17.7 0 32 14.3 32 32l0 384c0 17.7-14.3 32-32 32L64 480c-17.7 0-32-14.3-32-32L32 64c0-17.7 14.3-32 32-32l256 0zM64 0C28.7 0 0 28.7 0 64L0 448c0 35.3 28.7 64 64 64l256 0c35.3 0 64-28.7 64-64l0-384c0-35.3-28.7-64-64-64L64 0zM192 160a32 32 0 1 1 0 64 32 32 0 1 1 0-64zm0 96a64 64 0 1 0 0-128 64 64 0 1 0 0 128zM112 368c0-26.5 21.5-48 48-48l64 0c26.5 0 48 21.5 48 48 0 8.8 7.2 16 16 16s16-7.2 16-16c0-44.2-35.8-80-80-80l-64 0c-44.2 0-80 35.8-80 80 0 8.8 7.2 16 16 16s16-7.2 16-16z"/></svg>