<svg xmlns="http://www.w3.org/2000/svg" viewBox="0 0 576 512"><!--! Font Awesome Pro 7.2.0 by @fontawesome - https://fontawesome.com License - https://fontawesome.com/license (Commercial License) Copyright 2026 Fonticons, Inc. --><path fill="currentColor" d="M160 64c-17.7 0-32 14.3-32 32l0 256c0 17.7 14.3 32 32 32l48 0 0-16c0-44.2 35.8-80 80-80l64 0c44.2 0 80 35.8 80 80l0 16 48 0c17.7 0 32-14.3 32-32l0-256c0-17.7-14.3-32-32-32L160 64zm80 320l160 0 0-16c0-26.5-21.5-48-48-48l-64 0c-26.5 0-48 21.5-48 48l0 16zM96 96c0-35.3 28.7-64 64-64l320 0c35.3 0 64 28.7 64 64l0 256c0 35.3-28.7 64-64 64l-320 0c-35.3 0-64-28.7-64-64L96 96zM32 144l0 304c0 17.7 14.3 32 32 32l368 0c8.8 0 16 7.2 16 16s-7.2 16-16 16L64 512c-35.3 0-64-28.7-64-64L0 144c0-8.8 7.2-16 16-16s16 7.2 16 16zm288 80a32 32 0 1 0 0-64 32 32 0 1 0 0 64zm0-96a64 64 0 1 1 0 128 64 64 0 1 1 0-128z"/></svg>