<svg xmlns="http://www.w3.org/2000/svg" viewBox="0 0 576 512"><!--! Font Awesome Pro 7.2.0 by @fontawesome - https://fontawesome.com License - https://fontawesome.com/license (Commercial License) Copyright 2026 Fonticons, Inc. --><path fill="currentColor" d="M512 96c17.7 0 32 14.3 32 32l0 256c0 17.7-14.3 32-32 32L64 416c-17.7 0-32-14.3-32-32l0-256c0-17.7 14.3-32 32-32l448 0zM64 64C28.7 64 0 92.7 0 128L0 384c0 35.3 28.7 64 64 64l448 0c35.3 0 64-28.7 64-64l0-256c0-35.3-28.7-64-64-64L64 64zm48 128a16 16 0 1 1 0-32 16 16 0 1 1 0 32zM64 176a48 48 0 1 0 96 0 48 48 0 1 0 -96 0zm268.4 36c1.5-1.9 3.8-3 6.2-3s4.7 1.1 6.2 3L445.8 338c1.9 2.4 2.3 5.7 1 8.5-1.9 3.9-5.3 5.6-7.2 5.6l-302.8 0c-2 0-5.5-1.8-7.3-5.7-1.3-2.9-.8-6.2 1.3-8.6l55.2-63c1.4-1.6 3.4-2.6 5.5-2.7s4.2 .6 5.8 2l37 33.3c3.3 2.9 7.6 4.4 12 4s8.4-2.5 11.2-5.9L332.4 212zm6.2-35c-12.1 0-23.6 5.5-31.2 15l-64.3 80.2-24.4-22c-8-7.1-18.4-10.8-29.1-10.2s-20.6 5.5-27.7 13.6l-55.2 63c-10.4 11.8-12.8 28.6-6.4 42.9 6 13.2 19.6 24.5 36.4 24.5l302.8 0c16.6 0 30-11 36.1-23.7 6.7-13.9 4.8-30.3-4.9-42.3L369.9 192c-7.6-9.5-19.1-15-31.2-15z"/></svg>