<svg xmlns="http://www.w3.org/2000/svg" viewBox="0 0 512 512"><!--! Font Awesome Pro 7.2.0 by @fontawesome - https://fontawesome.com License - https://fontawesome.com/license (Commercial License) Copyright 2026 Fonticons, Inc. --><path fill="currentColor" d="M0 64c0 8.8 7.2 16 16 16l40 0 0 112-40 0c-8.8 0-16 7.2-16 16s7.2 16 16 16l112 0c8.8 0 16-7.2 16-16s-7.2-16-16-16l-40 0 0-128c0-8.8-7.2-16-16-16L16 48C7.2 48 0 55.2 0 64zM192 96c0 8.8 7.2 16 16 16l288 0c8.8 0 16-7.2 16-16s-7.2-16-16-16L208 80c-8.8 0-16 7.2-16 16zm0 160c0 8.8 7.2 16 16 16l288 0c8.8 0 16-7.2 16-16s-7.2-16-16-16l-288 0c-8.8 0-16 7.2-16 16zm0 160c0 8.8 7.2 16 16 16l288 0c8.8 0 16-7.2 16-16s-7.2-16-16-16l-288 0c-8.8 0-16 7.2-16 16zM77 288c-11.6 0-23 3.4-32.7 9.9L7.1 322.7c-7.4 4.9-9.3 14.8-4.4 22.2s14.8 9.3 22.2 4.4L62 324.5c4.4-3 9.6-4.5 15-4.5l1.9 0c13.8 0 25.1 11.2 25.1 25.1 0 8.7-4.5 16.8-11.9 21.3l-79.6 49C4.7 420.1 0 428.6 0 437.7 0 452.2 11.8 464 26.3 464L128 464c8.8 0 16-7.2 16-16s-7.2-16-16-16l-81.5 0 62.3-38.3c16.9-10.4 27.2-28.8 27.2-48.6 0-31.5-25.5-57.1-57.1-57.1L77 288z"/></svg>