<svg xmlns="http://www.w3.org/2000/svg" viewBox="0 0 512 512"><!--! Font Awesome Pro 7.2.0 by @fontawesome - https://fontawesome.com License - https://fontawesome.com/license (Commercial License) Copyright 2026 Fonticons, Inc. --><path fill="currentColor" d="M24 72a24 24 0 1 0 0 48 24 24 0 1 0 0-48zm120 8c-8.8 0-16 7.2-16 16s7.2 16 16 16l352 0c8.8 0 16-7.2 16-16s-7.2-16-16-16L144 80zm0 160c-8.8 0-16 7.2-16 16s7.2 16 16 16l352 0c8.8 0 16-7.2 16-16s-7.2-16-16-16l-352 0zm0 160c-8.8 0-16 7.2-16 16s7.2 16 16 16l352 0c8.8 0 16-7.2 16-16s-7.2-16-16-16l-352 0zM48 256a24 24 0 1 0 -48 0 24 24 0 1 0 48 0zM24 392a24 24 0 1 0 0 48 24 24 0 1 0 0-48z"/></svg>