<svg xmlns="http://www.w3.org/2000/svg" viewBox="0 0 512 512"><!--! Font Awesome Pro 7.2.0 by @fontawesome - https://fontawesome.com License - https://fontawesome.com/license (Commercial License) Copyright 2026 Fonticons, Inc. --><path fill="currentColor" d="M76.5 66.5l-42 42c-1.6-3.8-2.5-8.1-2.5-12.5 0-17.7 14.3-32 32-32 4.4 0 8.7 .9 12.5 2.5zm17 17c1.6 3.8 2.5 8.1 2.5 12.5 0 17.7-14.3 32-32 32-4.4 0-8.7-.9-12.5-2.5l42-42zM128 96A64 64 0 1 0 0 96 64 64 0 1 0 128 96zm64 0c0 8.8 7.2 16 16 16l288 0c8.8 0 16-7.2 16-16s-7.2-16-16-16L208 80c-8.8 0-16 7.2-16 16zm0 160c0 8.8 7.2 16 16 16l288 0c8.8 0 16-7.2 16-16s-7.2-16-16-16l-288 0c-8.8 0-16 7.2-16 16zm0 160c0 8.8 7.2 16 16 16l288 0c8.8 0 16-7.2 16-16s-7.2-16-16-16l-288 0c-8.8 0-16 7.2-16 16zM64 288a32 32 0 1 1 0-64 32 32 0 1 1 0 64zm0-96a64 64 0 1 0 0 128 64 64 0 1 0 0-128zm0 256a32 32 0 1 1 0-64 32 32 0 1 1 0 64zm0-96a64 64 0 1 0 0 128 64 64 0 1 0 0-128z"/></svg>