<svg xmlns="http://www.w3.org/2000/svg" viewBox="0 0 448 512"><!--! Font Awesome Pro 7.2.0 by @fontawesome - https://fontawesome.com License - https://fontawesome.com/license (Commercial License) Copyright 2026 Fonticons, Inc. --><path fill="currentColor" d="M64 64l320 0c17.7 0 32 14.3 32 32l0 64-384 0 0-64c0-17.7 14.3-32 32-32zM32 192l384 0 0 224c0 17.7-14.3 32-32 32L64 448c-17.7 0-32-14.3-32-32l0-224zM0 96L0 416c0 35.3 28.7 64 64 64l320 0c35.3 0 64-28.7 64-64l0-320c0-35.3-28.7-64-64-64L64 32C28.7 32 0 60.7 0 96zM112 256c-8.8 0-16 7.2-16 16s7.2 16 16 16l224 0c8.8 0 16-7.2 16-16s-7.2-16-16-16l-224 0zm0 96c-8.8 0-16 7.2-16 16s7.2 16 16 16l224 0c8.8 0 16-7.2 16-16s-7.2-16-16-16l-224 0zM312 92c-4.9 0-9.2 2.9-11.1 7.4s-.8 9.6 2.6 13.1l24 24c4.7 4.7 12.3 4.7 17 0l24-24c3.4-3.4 4.5-8.6 2.6-13.1S364.9 92 360 92l-48 0z"/></svg>