<svg xmlns="http://www.w3.org/2000/svg" viewBox="0 0 384 512"><!--! Font Awesome Pro 7.2.0 by @fontawesome - https://fontawesome.com License - https://fontawesome.com/license (Commercial License) Copyright 2026 Fonticons, Inc. --><path fill="currentColor" d="M192 0c106 0 192 84.4 192 188.6 0 119.3-120.2 262.3-170.4 316.8l0 0c-11.8 12.8-31.4 12.8-43.3 0l0 0C120.1 450.8 0 307.9 0 188.6 0 84.4 86 0 192 0zm0 32c-88.9 0-160 70.6-160 156.6 0 50.3 25.9 109.4 61.4 165.6 34 53.8 73.9 100.4 98.6 127.4 24.6-26.9 64.6-73.6 98.6-127.4 35.5-56.2 61.4-115.3 61.4-165.6 0-85.9-71.1-156.6-160-156.6zm67.1 106.2c5.2-7.1 15.2-8.7 22.3-3.5s8.7 15.2 3.5 22.3L179.3 302.2c-2.8 3.8-7.1 6.2-11.8 6.5s-9.3-1.4-12.6-4.8l-54.4-56.3c-6.1-6.4-6-16.5 .4-22.6s16.5-5.9 22.6 .4l41.2 42.6 94.4-129.8z"/></svg>