<svg xmlns="http://www.w3.org/2000/svg" viewBox="0 0 384 512"><!--! Font Awesome Pro 7.2.0 by @fontawesome - https://fontawesome.com License - https://fontawesome.com/license (Commercial License) Copyright 2026 Fonticons, Inc. --><path fill="currentColor" d="M192 32c-88.9 0-160 70.6-160 156.6 0 50.3 25.9 109.4 61.4 165.6 34 53.8 74 100.5 98.6 127.4 24.6-26.9 64.6-73.7 98.6-127.4 35.5-56.2 61.4-115.3 61.4-165.6 0-85.9-71.1-156.6-160-156.6zM0 188.6C0 84.4 86 0 192 0S384 84.4 384 188.6c0 119.3-120.2 262.3-170.4 316.8-11.8 12.8-31.5 12.8-43.3 0-50.2-54.5-170.4-197.5-170.4-316.8z"/></svg>