<svg xmlns="http://www.w3.org/2000/svg" viewBox="0 0 384 512"><!--! Font Awesome Pro 7.2.0 by @fontawesome - https://fontawesome.com License - https://fontawesome.com/license (Commercial License) Copyright 2026 Fonticons, Inc. --><path fill="currentColor" d="M192 0c53 0 96 43 96 96l0 64-192 0 0-64c0-53 43-96 96-96zM64 96l0 64c-35.3 0-64 28.7-64 64L0 448c0 35.3 28.7 64 64 64l256 0c35.3 0 64-28.7 64-64l0-224c0-35.3-28.7-64-64-64l0-64c0-70.7-57.3-128-128-128S64 25.3 64 96zm0 96l256 0c17.7 0 32 14.3 32 32l0 224c0 17.7-14.3 32-32 32L64 480c-17.7 0-32-14.3-32-32l0-224c0-17.7 14.3-32 32-32zm144 96c0-8.8-7.2-16-16-16s-16 7.2-16 16l0 96c0 8.8 7.2 16 16 16s16-7.2 16-16l0-96z"/></svg>