<svg xmlns="http://www.w3.org/2000/svg" viewBox="0 0 576 512"><!--! Font Awesome Pro 7.2.0 by @fontawesome - https://fontawesome.com License - https://fontawesome.com/license (Commercial License) Copyright 2026 Fonticons, Inc. --><path fill="currentColor" d="M448 0c-53 0-96 43-96 96l0 64 64 0c35.3 0 64 28.7 64 64l0 224c0 35.3-28.7 64-64 64l-256 0c-35.3 0-64-28.7-64-64l0-224c0-35.3 28.7-64 64-64l160 0 0-64c0-70.7 57.3-128 128-128S576 25.3 576 96l0 48c0 8.8-7.2 16-16 16s-16-7.2-16-16l0-48c0-53-43-96-96-96zM416 192l-256 0c-17.7 0-32 14.3-32 32l0 224c0 17.7 14.3 32 32 32l256 0c17.7 0 32-14.3 32-32l0-224c0-17.7-14.3-32-32-32zM336 352l-96 0c-8.8 0-16-7.2-16-16s7.2-16 16-16l96 0c8.8 0 16 7.2 16 16s-7.2 16-16 16z"/></svg>