<svg xmlns="http://www.w3.org/2000/svg" viewBox="0 0 384 512"><!--! Font Awesome Pro 7.2.0 by @fontawesome - https://fontawesome.com License - https://fontawesome.com/license (Commercial License) Copyright 2026 Fonticons, Inc. --><path fill="currentColor" d="M96 96l0 64 192 0 0-64c0-53-43-96-96-96S96 43 96 96zM64 160l0-64C64 25.3 121.3-32 192-32S320 25.3 320 96l0 64c35.3 0 64 28.7 64 64l0 224c0 35.3-28.7 64-64 64L64 512c-35.3 0-64-28.7-64-64L0 224c0-35.3 28.7-64 64-64zM32 224l0 224c0 17.7 14.3 32 32 32l256 0c17.7 0 32-14.3 32-32l0-224c0-17.7-14.3-32-32-32L64 192c-17.7 0-32 14.3-32 32z"/></svg>