<svg xmlns="http://www.w3.org/2000/svg" viewBox="0 0 640 512"><!--! Font Awesome Pro 7.2.0 by @fontawesome - https://fontawesome.com License - https://fontawesome.com/license (Commercial License) Copyright 2026 Fonticons, Inc. --><path fill="currentColor" d="M576 26.7c0-5.6-2.9-10.7-7.6-13.6s-10.6-3.2-15.6-.7L416.9 80.7 242.6 22.6c-11.5-3.8-24-3.2-35 1.8L73.4 85.3C67.7 87.9 64 93.6 64 99.9l0 385.4c0 5.6 2.9 10.7 7.6 13.6s10.6 3.2 15.6 .7l135.9-68.4 174.3 58.1 .6 .2c-3.7-5.6-7.3-11.3-10.8-17.1-4.7-7.8-9.4-16.1-13.8-24.8l-133.4-44.5 0-347.7 160 53.3 0 109.4c9.7-8.6 20.5-16.1 32-22.2l0-87 112-56.4 0 126.4c11.1 2.1 21.8 5.3 32 9.5l0-161.8zM208 403L96 459.4 96 110.2 208 59.4 208 403zM512 256c49.1 0 88 39 88 85.9 0 25.6-12.4 57.1-31.8 89.4-18 29.9-39.9 57.1-56.2 75.8-16.4-18.7-38.2-45.8-56.2-75.8-19.4-32.3-31.8-63.8-31.8-89.4 0-46.9 38.9-85.9 88-85.9zM392 341.9c0 68.9 64.1 150.4 98.6 189.3 11.6 13 31.3 13 42.9 0 34.5-38.9 98.6-120.4 98.6-189.3 0-65.1-53.7-117.9-120-117.9S392 276.8 392 341.9zM512 368a24 24 0 1 1 0-48 24 24 0 1 1 0 48zm-56-24a56 56 0 1 0 112 0 56 56 0 1 0 -112 0z"/></svg>