<svg xmlns="http://www.w3.org/2000/svg" viewBox="0 0 320 512"><!--! Font Awesome Pro 7.2.0 by @fontawesome - https://fontawesome.com License - https://fontawesome.com/license (Commercial License) Copyright 2026 Fonticons, Inc. --><path fill="currentColor" d="M160 256a112 112 0 1 0 0-224 112 112 0 1 0 0 224zM304 144c0 74.1-56 135.2-128 143.1L176 496c0 8.8-7.2 16-16 16s-16-7.2-16-16l0-208.9C72 279.2 16 218.1 16 144 16 64.5 80.5 0 160 0S304 64.5 304 144zm-192 0c0 8.8-7.2 16-16 16s-16-7.2-16-16c0-44.2 35.8-80 80-80 8.8 0 16 7.2 16 16s-7.2 16-16 16c-26.5 0-48 21.5-48 48z"/></svg>