<svg xmlns="http://www.w3.org/2000/svg" viewBox="0 0 512 512"><!--! Font Awesome Pro 7.2.0 by @fontawesome - https://fontawesome.com License - https://fontawesome.com/license (Commercial License) Copyright 2026 Fonticons, Inc. --><path fill="currentColor" d="M512 26.7c0-5.6-2.9-10.7-7.6-13.6s-10.6-3.2-15.6-.7L352.9 80.7 178.6 22.6c-11.5-3.8-24-3.2-35 1.8L9.4 85.3C3.7 87.9 0 93.6 0 99.9L0 485.3C0 490.9 2.9 496 7.6 499s10.6 3.2 15.6 .7l135.9-68.4 174.3 58.1c11.5 3.8 24 3.2 35-1.8l134.2-60.9c5.7-2.6 9.4-8.3 9.4-14.6l0-385.4zM368 109l112-56.4 0 349.2-112 50.8 0-343.6zm-32-.2l0 347.7-160-53.3 0-347.7 160 53.3zM144 403L32 459.4 32 110.2 144 59.4 144 403z"/></svg>