<svg xmlns="http://www.w3.org/2000/svg" viewBox="0 0 512 512"><!--! Font Awesome Pro 7.2.0 by @fontawesome - https://fontawesome.com License - https://fontawesome.com/license (Commercial License) Copyright 2026 Fonticons, Inc. --><path fill="currentColor" d="M256 32a224 224 0 1 1 0 448 224 224 0 1 1 0-448zm0 480a256 256 0 1 0 0-512 256 256 0 1 0 0 512zm75.5-348.7l17.4 17.4c6.2 6.2 6.2 16.4 0 22.6l-21.4 21.4-40-40 21.4-21.4c6.2-6.2 16.4-6.2 22.6 0zm-149 126.4l82.3-82.3 40 40-82.3 82.3c-2.1 2.1-4.6 3.5-7.4 4.2l-49 12.3 12.3-49c.7-2.8 2.2-5.4 4.2-7.4zm103.8-149L159.8 267.1c-6.2 6.2-10.5 13.9-12.6 22.3l-18.7 74.9c-1.4 5.5 .2 11.2 4.2 15.2s9.7 5.6 15.2 4.2L222.8 365c8.4-2.1 16.1-6.5 22.3-12.6L371.4 225.9c18.7-18.7 18.7-49.1 0-67.9l-17.4-17.4c-18.7-18.7-49.1-18.7-67.9 0z"/></svg>