<svg xmlns="http://www.w3.org/2000/svg" viewBox="0 0 640 512"><!--! Font Awesome Pro 7.2.0 by @fontawesome - https://fontawesome.com License - https://fontawesome.com/license (Commercial License) Copyright 2026 Fonticons, Inc. --><path fill="currentColor" d="M537.7 389.5c22.9 9.4 49.3 .4 61.6-21.1l3.4-6c33.4-58.5 29-143.9-38.5-188.2-147.9-96.9-340.5-96.9-488.3 0-67.6 44.3-71.9 129.7-38.5 188.2l3.4 6c12.3 21.5 38.7 30.6 61.6 21.1L195.9 351c20.2-8.3 32.5-28.8 30.3-50.5l-4.5-44.8c63.9-19.9 133-18.7 196.3 3.5l-4.1 41.3c-2.2 21.7 10.2 42.2 30.3 50.5l93.5 38.5zm33.8-37c-4.3 7.6-13.6 10.7-21.6 7.4l-93.5-38.5c-7.1-2.9-11.4-10.1-10.6-17.8l5.4-53.5c.7-7.1-3.4-13.8-10-16.5-77.4-30.6-163.7-32-241.9-4.2-6.9 2.5-11.3 9.3-10.6 16.7l5.8 57.5c.8 7.6-3.6 14.8-10.6 17.8L90.2 359.9c-8.1 3.3-17.3 .1-21.6-7.4l-3.4-6c-27.4-47.9-21.5-113 28.3-145.6 137.2-89.9 316-89.9 453.2 0 49.8 32.6 55.7 97.7 28.3 145.6l-3.4 6z"/></svg>