<svg xmlns="http://www.w3.org/2000/svg" viewBox="0 0 384 512"><!--! Font Awesome Pro 7.2.0 by @fontawesome - https://fontawesome.com License - https://fontawesome.com/license (Commercial License) Copyright 2026 Fonticons, Inc. --><path fill="currentColor" d="M135.2 1.7c-4.8-2.4-10.4-2.2-15.1 .4L72 29.6 23.9 2.1C19-.7 12.9-.7 8 2.2S0 10.3 0 16L0 496c0 5.7 3 11 8 13.8s11 2.9 16 .1l48.1-27.5 48.1 27.5c4.6 2.7 10.3 2.8 15.1 .4l56.8-28.4 56.8 28.4c4.8 2.4 10.4 2.2 15.1-.4l48.1-27.5 48.1 27.5c5 2.8 11 2.8 16-.1s8-8.1 8-13.8l0-480c0-5.7-3-11-8-13.8s-11-2.9-16-.1L312 29.6 263.9 2.1c-4.6-2.7-10.3-2.8-15.1-.4L192 30.1 135.2 1.7zM79.9 61.9l48.6-27.8 56.3 28.2c4.5 2.3 9.8 2.3 14.3 0l56.3-28.2 48.6 27.8c4.9 2.8 11 2.8 15.9 0l32.1-18.3 0 424.9-32.1-18.3c-4.9-2.8-11-2.8-15.9 0l-48.6 27.8-56.3-28.2c-4.5-2.3-9.8-2.3-14.3 0l-56.3 28.2-48.6-27.8c-4.9-2.8-11-2.8-15.9 0L32 468.4 32 43.6 64.1 61.9c4.9 2.8 11 2.8 15.9 0zM96 144c-8.8 0-16 7.2-16 16s7.2 16 16 16l192 0c8.8 0 16-7.2 16-16s-7.2-16-16-16L96 144zM80 352c0 8.8 7.2 16 16 16l192 0c8.8 0 16-7.2 16-16s-7.2-16-16-16L96 336c-8.8 0-16 7.2-16 16zM96 240c-8.8 0-16 7.2-16 16s7.2 16 16 16l192 0c8.8 0 16-7.2 16-16s-7.2-16-16-16L96 240z"/></svg>