<svg xmlns="http://www.w3.org/2000/svg" viewBox="0 0 512 512"><!--! Font Awesome Pro 7.2.0 by @fontawesome - https://fontawesome.com License - https://fontawesome.com/license (Commercial License) Copyright 2026 Fonticons, Inc. --><path fill="currentColor" d="M240 96c8.8 0 16 7.2 16 16l0 96c0 8.8-7.2 16-16 16L48 224c-8.8 0-16-7.2-16-16l0-96c0-8.8 7.2-16 16-16l192 0zM48 64C21.5 64 0 85.5 0 112l0 96c0 26.5 21.5 48 48 48l192 0c26.5 0 48-21.5 48-48l0-96c0-26.5-21.5-48-48-48L48 64zM464 96c8.8 0 16 7.2 16 16l0 256c0 8.8-7.2 16-16 16l-64 0c-8.8 0-16-7.2-16-16l0-256c0-8.8 7.2-16 16-16l64 0zM400 64c-26.5 0-48 21.5-48 48l0 256c0 26.5 21.5 48 48 48l64 0c26.5 0 48-21.5 48-48l0-256c0-26.5-21.5-48-48-48l-64 0zM112 352l128 0c8.8 0 16 7.2 16 16l0 64c0 8.8-7.2 16-16 16l-128 0c-8.8 0-16-7.2-16-16l0-64c0-8.8 7.2-16 16-16zM64 368l0 64c0 26.5 21.5 48 48 48l128 0c26.5 0 48-21.5 48-48l0-64c0-26.5-21.5-48-48-48l-128 0c-26.5 0-48 21.5-48 48z"/></svg>