<svg xmlns="http://www.w3.org/2000/svg" viewBox="0 0 512 512"><!--! Font Awesome Pro 7.2.0 by @fontawesome - https://fontawesome.com License - https://fontawesome.com/license (Commercial License) Copyright 2026 Fonticons, Inc. --><path fill="currentColor" d="M332.5 76C298.6 17.3 213.9 17.3 180 76L166.8 99c-4.4 7.7-14.2 10.3-21.9 5.9S134.6 90.7 139 83l13.3-23C198.5-20 314-20 360.2 60l66 114.3 13.4-50.1c2.3-8.5 11.1-13.6 19.6-11.3s13.6 11.1 11.3 19.6L447 219.9c-2.3 8.5-11.1 13.6-19.6 11.3L340 207.7c-8.5-2.3-13.6-11.1-11.3-19.6s11.1-13.6 19.6-11.3l50.1 13.4-66-114.3zM463.6 271.1c7.7-4.4 17.4-1.8 21.9 5.9l13.3 23c46.2 80-11.5 180-103.9 180l-131.9 0 36.7 36.7c6.2 6.2 6.2 16.4 0 22.6s-16.4 6.2-22.6 0l-64-64c-6.2-6.2-6.2-16.4 0-22.6l64-64c6.2-6.2 16.4-6.2 22.6 0s6.2 16.4 0 22.6l-36.7 36.7 131.9 0c67.7 0 110.1-73.3 76.2-132l-13.3-23c-4.4-7.7-1.8-17.4 5.9-21.9zM120.9 251.9l-13.4-50.1-66 114.3c-33.9 58.7 8.5 132 76.2 132l26.6 0c8.8 0 16 7.2 16 16s-7.2 16-16 16l-26.6 0C25.3 480-32.4 380 13.8 300l66-114.3-50.1 13.4c-8.5 2.3-17.3-2.8-19.6-11.3s2.8-17.3 11.3-19.6l87.4-23.4c8.5-2.3 17.3 2.8 19.6 11.3l23.4 87.4c2.3 8.5-2.8 17.3-11.3 19.6s-17.3-2.8-19.6-11.3z"/></svg>