<svg xmlns="http://www.w3.org/2000/svg" viewBox="0 0 512 512"><!--! Font Awesome Pro 7.2.0 by @fontawesome - https://fontawesome.com License - https://fontawesome.com/license (Commercial License) Copyright 2026 Fonticons, Inc. --><path fill="currentColor" d="M80 416a48 48 0 1 1 0-96 48 48 0 1 1 0 96zm78.4-64c-7.4-36.5-39.7-64-78.4-64-44.2 0-80 35.8-80 80s35.8 80 80 80c38.7 0 71-27.5 78.4-64L496 384c8.8 0 16-7.2 16-16s-7.2-16-16-16l-337.6 0zM480 144a48 48 0 1 1 -96 0 48 48 0 1 1 96 0zM353.6 128L16 128c-8.8 0-16 7.2-16 16s7.2 16 16 16l337.6 0c7.4 36.5 39.7 64 78.4 64 44.2 0 80-35.8 80-80s-35.8-80-80-80c-38.7 0-71 27.5-78.4 64z"/></svg>