<svg xmlns="http://www.w3.org/2000/svg" viewBox="0 0 576 512"><!--! Font Awesome Pro 7.2.0 by @fontawesome - https://fontawesome.com License - https://fontawesome.com/license (Commercial License) Copyright 2026 Fonticons, Inc. --><path fill="currentColor" d="M384 128c17.7 0 32 14.3 32 32l0 192c0 17.7-14.3 32-32 32l-32 0c-17.7 0-32-14.3-32-32l0-192c0-17.7 14.3-32 32-32l32 0zM352 96c-35.3 0-64 28.7-64 64l0 192c0 35.3 28.7 64 64 64l32 0c35.3 0 64-28.7 64-64l0-80 112 0c8.8 0 16-7.2 16-16s-7.2-16-16-16l-112 0 0-80c0-35.3-28.7-64-64-64l-32 0zM0 256c0 8.8 7.2 16 16 16l224 0 0-32-224 0c-8.8 0-16 7.2-16 16z"/></svg>