<svg xmlns="http://www.w3.org/2000/svg" viewBox="0 0 640 512"><!--! Font Awesome Pro 7.2.0 by @fontawesome - https://fontawesome.com License - https://fontawesome.com/license (Commercial License) Copyright 2026 Fonticons, Inc. --><path fill="currentColor" d="M416 64L128 64c-17.7 0-32 14.3-32 32l0 16-32 0 0-16c0-35.3 28.7-64 64-64l288 0c35.3 0 64 28.7 64 64l0 32 60.1 0c17 0 33.3 6.7 45.3 18.7l35.9 35.9c12 12 18.7 28.3 18.7 45.3L640 384c0 35.3-28.7 64-64 64l-3.3 0c-10.4 36.9-44.4 64-84.7 64s-74.2-27.1-84.7-64l-102.6 0c-10.4 36.9-44.4 64-84.7 64s-74.2-27.1-84.7-64l-3.3 0c-35.3 0-64-28.7-64-64l0-96-48 0c-8.8 0-16-7.2-16-16s7.2-16 16-16l128 0c8.8 0 16 7.2 16 16s-7.2 16-16 16l-48 0 0 96c0 17.7 14.3 32 32 32l.4 0c4-44.9 41.7-80 87.6-80s83.6 35.1 87.6 80l96.7 0c2.8-30.8 21.4-57 47.6-70.4L448 96c0-17.7-14.3-32-32-32zm64 272.4c2.6-.2 5.3-.4 8-.4 45.9 0 83.6 35.1 87.6 80l.4 0c17.7 0 32-14.3 32-32l0-96-128 0 0 48.4zM608 227.9c0-8.5-3.4-16.6-9.4-22.6l-35.9-35.9c-6-6-14.1-9.4-22.6-9.4l-60.1 0 0 96 128 0 0-28.1zM64 192l-48 0c-8.8 0-16-7.2-16-16s7.2-16 16-16l192 0c8.8 0 16 7.2 16 16s-7.2 16-16 16L64 192zM272 424a56 56 0 1 0 -112 0 56 56 0 1 0 112 0zm272 0a56 56 0 1 0 -112 0 56 56 0 1 0 112 0z"/></svg>