<svg xmlns="http://www.w3.org/2000/svg" viewBox="0 0 576 512"><!--! Font Awesome Pro 7.2.0 by @fontawesome - https://fontawesome.com License - https://fontawesome.com/license (Commercial License) Copyright 2026 Fonticons, Inc. --><path fill="currentColor" d="M352 64c17.7 0 32 14.3 32 32l0 249.6c-26.2 13.4-44.9 39.6-47.6 70.4l-96.7 0c-4-44.9-41.7-80-87.6-80s-83.6 35.1-87.6 80l-.4 0c-17.7 0-32-14.3-32-32L32 96c0-17.7 14.3-32 32-32l288 0zm64 272.4l0-48.4 128 0 0 96c0 17.7-14.3 32-32 32l-.4 0c-4-44.9-41.7-80-87.6-80-2.7 0-5.4 .1-8 .4zM544 227.9l0 28.1-128 0 0-96 60.1 0c8.5 0 16.6 3.4 22.6 9.4l35.9 35.9c6 6 9.4 14.1 9.4 22.6zM64 448l3.3 0c10.4 36.9 44.4 64 84.7 64s74.2-27.1 84.7-64l102.6 0c10.4 36.9 44.4 64 84.7 64s74.2-27.1 84.7-64l3.3 0c35.3 0 64-28.7 64-64l0-156.1c0-17-6.7-33.3-18.7-45.3l-35.9-35.9c-12-12-28.3-18.7-45.3-18.7l-60.1 0 0-32c0-35.3-28.7-64-64-64L64 32C28.7 32 0 60.7 0 96L0 384c0 35.3 28.7 64 64 64zm32-24a56 56 0 1 1 112 0 56 56 0 1 1 -112 0zm272 0a56 56 0 1 1 112 0 56 56 0 1 1 -112 0zM299.3 219.3c6.2-6.2 6.2-16.4 0-22.6l-72-72c-6.2-6.2-16.4-6.2-22.6 0s-6.2 16.4 0 22.6L249.4 192 128 192c-8.8 0-16 7.2-16 16s7.2 16 16 16l121.4 0-44.7 44.7c-6.2 6.2-6.2 16.4 0 22.6s16.4 6.2 22.6 0l72-72z"/></svg>