<svg xmlns="http://www.w3.org/2000/svg" viewBox="0 0 448 512"><!--! Font Awesome Pro 7.2.0 by @fontawesome - https://fontawesome.com License - https://fontawesome.com/license (Commercial License) Copyright 2026 Fonticons, Inc. --><path fill="currentColor" d="M224 256c14.7 0 28.9-2.5 42.1-7.1l-16.4-28.4c-8.2 2.3-16.8 3.5-25.7 3.5s-17.5-1.2-25.7-3.5l-16.4 28.4c13.2 4.6 27.4 7.1 42.1 7.1zm-83.7-31.1l16.4-28.4c-12.3-12-21.3-27.3-25.7-44.5l-32.8 0c5.5 28.9 20.7 54.4 42.1 72.9zM317 104l32.8 0c-5.5-28.9-20.7-54.4-42.1-72.9L291.3 59.5c12.3 12 21.3 27.3 25.7 44.5zM249.7 35.5L266.1 7.1C252.9 2.5 238.7 0 224 0s-28.9 2.5-42.1 7.1l16.4 28.4c8.2-2.3 16.8-3.5 25.7-3.5s17.5 1.2 25.7 3.5zM98.2 104l32.8 0c4.4-17.2 13.5-32.5 25.7-44.5L140.3 31.1c-21.4 18.5-36.6 44-42.1 72.9zM307.7 224.9c21.4-18.5 36.6-44 42.1-72.9L317 152c-4.4 17.2-13.5 32.5-25.7 44.5l16.4 28.4zM272 336c14.6 0 28.7 2.2 42 6.2l14.5-29c-17.7-6-36.8-9.3-56.5-9.3l-24 0 0 32 24 0zm-96-32c-19.8 0-38.8 3.3-56.5 9.3l14.5 29c13.3-4.1 27.4-6.2 42-6.2l24 0 0-32-24 0zM91 363.7l-14.5-29c-21.1 14.5-38.9 33.5-52 55.6l30.2 12.1c9.6-15 22-28.2 36.4-38.7zM0 480l0 16c0 8.8 7.2 16 16 16s16-7.2 16-16l0-16c0-11.5 1.3-22.7 3.9-33.4l-30-12C2.1 449.1 0 464.3 0 480zM357 363.7c14.4 10.5 26.7 23.7 36.4 38.7l30.2-12.1c-13.1-22.1-30.9-41.1-52-55.6l-14.5 29zm55.1 82.9c2.5 10.7 3.9 21.9 3.9 33.4l0 16c0 8.8 7.2 16 16 16s16-7.2 16-16l0-16c0-15.7-2.1-30.9-5.9-45.4l-30 12z"/></svg>