<svg xmlns="http://www.w3.org/2000/svg" viewBox="0 0 640 512"><!--! Font Awesome Pro 7.2.0 by @fontawesome - https://fontawesome.com License - https://fontawesome.com/license (Commercial License) Copyright 2026 Fonticons, Inc. --><path fill="currentColor" d="M304 304c97.2 0 176 78.8 176 176l0 16c0 8.8-7.2 16-16 16s-16-7.2-16-16l0-16c0-79.5-64.5-144-144-144l-96 0c-79.5 0-144 64.5-144 144l0 16c0 8.8-7.2 16-16 16s-16-7.2-16-16l0-16c0-97.2 78.8-176 176-176l96 0zm-48-48a128 128 0 1 1 0-256 128 128 0 1 1 0 256zm0-224a96 96 0 1 0 0 192 96 96 0 1 0 0-192zM608 160c8.8 0 16 7.2 16 16s-7.2 16-16 16l-160 0c-8.8 0-16-7.2-16-16s7.2-16 16-16l160 0z"/></svg>