<svg xmlns="http://www.w3.org/2000/svg" viewBox="0 0 576 512"><!--! Font Awesome Pro 7.2.0 by @fontawesome - https://fontawesome.com License - https://fontawesome.com/license (Commercial License) Copyright 2026 Fonticons, Inc. --><path fill="currentColor" d="M208 224a96 96 0 1 0 0-192 96 96 0 1 0 0 192zM208 0a128 128 0 1 1 0 256 128 128 0 1 1 0-256zM176 336C96.5 336 32 400.5 32 480l0 16c0 8.8-7.2 16-16 16S0 504.8 0 496l0-16c0-97.2 78.8-176 176-176l64 0c97.2 0 176 78.8 176 176l0 16c0 8.8-7.2 16-16 16s-16-7.2-16-16l0-16c0-79.5-64.5-144-144-144l-64 0zm167.3-95.4c6.8-8.2 13-17.1 18.2-26.4 11.4 6.3 24.5 9.9 38.5 9.9 44.2 0 80-35.8 80-80s-35.8-80-80-80c-9.2 0-18.1 1.6-26.3 4.4-3.7-10.2-8.2-19.9-13.6-29.1 12.4-4.7 25.9-7.3 39.9-7.3 61.9 0 112 50.1 112 112S461.9 256 400 256c-20.7 0-40.1-5.6-56.7-15.4zm82.1 113.6c-8.4-12.3-18-23.8-28.6-34.2l3.2 0c97.2 0 176 78.8 176 176 0 8.8-7.2 16-16 16s-16-7.2-16-16c0-70.9-51.2-129.8-118.6-141.8z"/></svg>