<svg xmlns="http://www.w3.org/2000/svg" viewBox="0 0 640 512"><!--! Font Awesome Pro 7.2.0 by @fontawesome - https://fontawesome.com License - https://fontawesome.com/license (Commercial License) Copyright 2026 Fonticons, Inc. --><path fill="currentColor" d="M304.5 304c97.2 0 176 78.8 176 176l0 16c0 8.8-7.2 16-16 16s-16-7.2-16-16l0-16c0-79.5-64.5-144-144-144l-96 0c-79.5 0-144 64.5-144 144l0 16c0 8.8-7.2 16-16 16s-16-7.2-16-16l0-16c0-97.2 78.8-176 176-176l96 0zM595.6 106.2c5.2-7.1 15.2-8.7 22.3-3.5s8.7 15.2 3.5 22.3L515.8 270.2c-2.8 3.8-7.1 6.2-11.8 6.5s-9.3-1.4-12.6-4.8L437 215.6c-6.1-6.4-6-16.5 .4-22.6s16.5-5.9 22.6 .4l41.2 42.6 94.4-129.8zM256.5 256a128 128 0 1 1 0-256 128 128 0 1 1 0 256zm0-224a96 96 0 1 0 0 192 96 96 0 1 0 0-192z"/></svg>