<svg xmlns="http://www.w3.org/2000/svg" viewBox="0 0 640 512"><!--! Font Awesome Pro 7.2.0 by @fontawesome - https://fontawesome.com License - https://fontawesome.com/license (Commercial License) Copyright 2026 Fonticons, Inc. --><path fill="currentColor" d="M464 208a80 80 0 1 0 0-160 80 80 0 1 0 0 160zm0-192a112 112 0 1 1 0 224 112 112 0 1 1 0-224zM400 443c10.6 3.3 21.9 5 33.5 5l61 0c62.7 0 113.5-50.8 113.5-113.5 0-8-6.5-14.5-14.5-14.5L360 320c-8.8-11.7-18.8-22.3-29.8-31.8 1.4-.1 2.8-.2 4.3-.2l259 0c25.7 0 46.5 20.8 46.5 46.5 0 80.4-65.2 145.5-145.5 145.5l-61 0c-11.9 0-23.5-1.4-34.6-4.1 .7-3.8 1.1-7.8 1.1-11.9l0-21zM176 208a80 80 0 1 0 0-160 80 80 0 1 0 0 160zm0-192a112 112 0 1 1 0 224 112 112 0 1 1 0-224zM152 320C85.7 320 32 373.7 32 440l0 24c0 8.8-7.2 16-16 16S0 472.8 0 464l0-24c0-83.9 68.1-152 152-152l48 0c83.9 0 152 68.1 152 152l0 24c0 8.8-7.2 16-16 16s-16-7.2-16-16l0-24c0-66.3-53.7-120-120-120l-48 0z"/></svg>