<svg xmlns="http://www.w3.org/2000/svg" viewBox="0 0 576 512"><!--! Font Awesome Pro 7.2.0 by @fontawesome - https://fontawesome.com License - https://fontawesome.com/license (Commercial License) Copyright 2026 Fonticons, Inc. --><path fill="currentColor" d="M128 128a96 96 0 1 1 192 0 96 96 0 1 1 -192 0zm224 0a128 128 0 1 0 -256 0 128 128 0 1 0 256 0zM32 480c0-79.5 64.5-144 144-144l74.9 0c4-11.2 8.9-21.9 14.8-32L176 304C78.8 304 0 382.8 0 480l0 16c0 8.8 7.2 16 16 16s16-7.2 16-16l0-16zM432 288a112 112 0 1 1 0 224 112 112 0 1 1 0-224zm0 256a144 144 0 1 0 0-288 144 144 0 1 0 0 288zm80-144c0-8.8-7.2-16-16-16l-128 0c-8.8 0-16 7.2-16 16s7.2 16 16 16l128 0c8.8 0 16-7.2 16-16z"/></svg>