<svg xmlns="http://www.w3.org/2000/svg" viewBox="0 0 576 512"><!--! Font Awesome Pro 7.2.0 by @fontawesome - https://fontawesome.com License - https://fontawesome.com/license (Commercial License) Copyright 2026 Fonticons, Inc. --><path fill="currentColor" d="M320 128a96 96 0 1 0 -192 0 96 96 0 1 0 192 0zM96 128a128 128 0 1 1 256 0 128 128 0 1 1 -256 0zM32 480l0 16c0 8.8-7.2 16-16 16S0 504.8 0 496l0-16c0-97.2 78.8-176 176-176l89.7 0c-5.9 10.1-10.8 20.8-14.8 32L176 336C96.5 336 32 400.5 32 480zm512-80a112 112 0 1 0 -224 0 112 112 0 1 0 224 0zm-256 0a144 144 0 1 1 288 0 144 144 0 1 1 -288 0zm160-64l0 48 48 0c8.8 0 16 7.2 16 16s-7.2 16-16 16l-48 0 0 48c0 8.8-7.2 16-16 16s-16-7.2-16-16l0-48-48 0c-8.8 0-16-7.2-16-16s7.2-16 16-16l48 0 0-48c0-8.8 7.2-16 16-16s16 7.2 16 16z"/></svg>