<svg xmlns="http://www.w3.org/2000/svg" viewBox="0 0 640 512"><!--! Font Awesome Pro 7.2.0 by @fontawesome - https://fontawesome.com License - https://fontawesome.com/license (Commercial License) Copyright 2026 Fonticons, Inc. --><path fill="currentColor" d="M400 128a80 80 0 1 0 -160 0 80 80 0 1 0 160 0zm-192 0a112 112 0 1 1 224 0 112 112 0 1 1 -224 0zM176 440l0 24c0 8.8-7.2 16-16 16s-16-7.2-16-16l0-24c0-83.9 68.1-152 152-152l48 0c15 0 29.5 2.2 43.2 6.2-4.2 3.1-8.1 6.8-11.7 11.2-4.2 5.2-8.1 10.6-11.7 16.2-6.5-1.1-13.1-1.6-19.8-1.6l-48 0c-66.3 0-120 53.7-120 120zM531.5 241c-11.1-1.2-27.2-1.9-46.3 1.1-10.6 1.6-19.7 5.7-27.3 11.3-9.4-2.2-18.3-5.8-26.4-10.6 7.8-7.6 14.9-16 21-25 8.3 4 17.7 6.2 27.6 6.2 35.3 0 64-28.7 64-64s-28.7-64-64-64c-1.1 0-2.1 0-3.2 .1-2.2-10.8-5.5-21.3-9.8-31.2 4.2-.6 8.6-.9 12.9-.9 53 0 96 43 96 96 0 34.1-17.7 64-44.5 81zM172.9 64.9c-4.3 9.9-7.6 20.4-9.8 31.2-1.1-.1-2.1-.1-3.2-.1-35.3 0-64 28.7-64 64s28.7 64 64 64c9.9 0 19.2-2.2 27.5-6.2 6.1 9.1 13.2 17.4 21 25-14.2 8.4-30.8 13.2-48.6 13.2-53 0-96-43-96-96s43-96 96-96c4.4 0 8.7 .3 12.9 .9zM144 304l5.4 0c-9.6 10.3-18.1 21.6-25.3 33.8-52.3 9.4-92.1 55.2-92.1 110.2l0 16c0 8.8-7.2 16-16 16S0 472.8 0 464l0-16c0-79.5 64.5-144 144-144zm320 16c0-17.7 14.3-32 32-32l32 0c17.7 0 32 14.3 32 32 0 5 6.8 8.9 11.1 6.4 15.3-8.8 34.9-3.6 43.7 11.7l16 27.7c8.8 15.3 3.6 34.9-11.7 43.7-4.3 2.5-4.3 10.4 0 12.9 15.3 8.8 20.6 28.4 11.7 43.7l-16 27.7c-8.8 15.3-28.4 20.6-43.7 11.7-4.3-2.5-11.1 1.4-11.1 6.4 0 17.7-14.3 32-32 32l-32 0c-17.7 0-32-14.3-32-32 0-5-6.8-8.9-11.1-6.4-15.3 8.8-34.9 3.6-43.7-11.7l-16-27.7c-8.8-15.3-3.6-34.9 11.7-43.7 4.3-2.5 4.3-10.4 0-12.9-15.3-8.8-20.6-28.4-11.7-43.7l16-27.7c8.8-15.3 28.4-20.6 43.7-11.7 4.3 2.5 11.1-1.5 11.1-6.4zm64 0l-32 0 0 .7c0 28.9-34.5 47.7-59.1 33.5l-16 27.7c25.3 14.6 25.2 53.7 0 68.3l16 27.7c25.2-14.6 59.1 5 59.1 34.1l32 0c0-29.2 33.9-48.7 59.1-34.1l16-27.7c-25.3-14.6-25.3-53.7 0-68.3l-16-27.7c-25.2 14.6-59.1-5-59.1-34.1zm-40 96a24 24 0 1 1 48 0 24 24 0 1 1 -48 0z"/></svg>