<svg xmlns="http://www.w3.org/2000/svg" viewBox="0 0 448 512"><!--! Font Awesome Pro 7.2.0 by @fontawesome - https://fontawesome.com License - https://fontawesome.com/license (Commercial License) Copyright 2026 Fonticons, Inc. --><path fill="currentColor" d="M128 128a96 96 0 1 1 192 0 96 96 0 1 1 -192 0zm224 0a128 128 0 1 0 -256 0 128 128 0 1 0 256 0zM32 480c0-79.5 64.5-144 144-144l96 0c79.5 0 144 64.5 144 144l0 16c0 8.8 7.2 16 16 16s16-7.2 16-16l0-16c0-97.2-78.8-176-176-176l-96 0C78.8 304 0 382.8 0 480l0 16c0 8.8 7.2 16 16 16s16-7.2 16-16l0-16z"/></svg>