<svg xmlns="http://www.w3.org/2000/svg" viewBox="0 0 576 512"><!--! Font Awesome Pro 7.2.0 by @fontawesome - https://fontawesome.com License - https://fontawesome.com/license (Commercial License) Copyright 2026 Fonticons, Inc. --><path fill="currentColor" d="M128.4 128a96 96 0 1 1 192 0 96 96 0 1 1 -192 0zm224 0a128 128 0 1 0 -256 0 128 128 0 1 0 256 0zM32.4 480c0-79.5 64.5-144 144-144l96 0c17.9 0 35 3.3 50.8 9.2l24.4-24.4C324.7 310 299.3 304 272.4 304l-96 0C79.2 304 .4 382.8 .4 480l0 16c0 8.8 7.2 16 16 16s16-7.2 16-16l0-16zm309.1-39.9l102.2-102.2 50.7 50.7-102.2 102.2c-4.7 4.7-10.8 7.8-17.4 8.9l-50.8 8.5 8.5-50.8c1.1-6.6 4.2-12.6 8.9-17.4zM466.3 315.3L487 294.6c14-14 36.7-14 50.7 0s14 36.7 0 50.7l-20.7 20.7-50.7-50.7zM301 452.2l-12.4 74.6c-1.6 9.8 7.2 18.6 17 17l74.6-12.4c13.2-2.2 25.3-8.4 34.7-17.9L560.4 368c26.5-26.5 26.5-69.5 0-96s-69.5-26.5-96 0L318.9 417.5c-9.4 9.4-15.7 21.6-17.9 34.7z"/></svg>