<svg xmlns="http://www.w3.org/2000/svg" viewBox="0 0 640 512"><!--! Font Awesome Pro 7.2.0 by @fontawesome - https://fontawesome.com License - https://fontawesome.com/license (Commercial License) Copyright 2026 Fonticons, Inc. --><path fill="currentColor" d="M160.4 128a96 96 0 1 1 192 0 96 96 0 1 1 -192 0zm224 0a128 128 0 1 0 -256 0 128 128 0 1 0 256 0zM64.4 480c0-79.5 64.5-144 144-144l72.1 0c-.1-10.8 2.2-21.7 7.1-32l-79.2 0c-97.2 0-176 78.8-176 176l0 16c0 8.8 7.2 16 16 16s16-7.2 16-16l0-16zM456.6 255.6l48 0 0 10.6c0 16.6 9.3 30.4 21.9 37.7 12.7 7.4 29.4 8.5 43.7 .2l9.2-5.3 24 41.6-9.3 5.4c-14.3 8.3-21.7 23.2-21.7 37.8s7.4 29.6 21.7 37.8l9.3 5.4-24 41.6-9.2-5.3c-14.3-8.3-31-7.2-43.7 .2-12.6 7.3-21.9 21.1-21.9 37.7l0 10.6-48 0 0-10.4c0-16.7-9.4-30.6-22.1-37.9-12.7-7.3-29.4-8.5-43.8-.2l-9 5.2-24-41.6 8.9-5.1c14.4-8.3 21.8-23.4 21.8-38.1s-7.4-29.8-21.8-38.1l-8.9-5.1 24-41.6 9 5.2c14.4 8.3 31.1 7.2 43.8-.2 12.7-7.3 22.1-21.2 22.1-37.9l0-10.4zm-8-32c-13.3 0-24 10.7-24 24l0 18.4c0 4.2-2.4 8-6.1 10.2s-8.2 2.3-11.8 .2l-15.9-9.2c-11.5-6.6-26.2-2.7-32.8 8.8l-32 55.4c-6.6 11.5-2.7 26.2 8.8 32.8l15.8 9.1c3.7 2.1 5.8 6.1 5.8 10.4s-2.1 8.2-5.8 10.4l-15.8 9.1c-11.5 6.6-15.4 21.3-8.8 32.8l32 55.4c6.6 11.5 21.3 15.4 32.8 8.8l15.9-9.2c3.7-2.1 8.2-2 11.8 .2s6.1 5.9 6.1 10.2l0 18.4c0 13.3 10.7 24 24 24l64 0c13.3 0 24-10.7 24-24l0-18.6c0-4.2 2.4-7.9 6-10 3.6-2.1 8.1-2.3 11.7-.2l16.1 9.3c11.5 6.6 26.2 2.7 32.8-8.8l32-55.4c6.6-11.5 2.7-26.2-8.8-32.8l-16.3-9.4c-3.6-2.1-5.7-6-5.7-10.1s2.1-8 5.7-10.1l16.3-9.4c11.5-6.6 15.4-21.3 8.8-32.8l-32-55.4c-6.6-11.5-21.3-15.4-32.8-8.8l-16.1 9.3c-3.6 2.1-8.1 1.9-11.7-.2-3.6-2.1-6-5.9-6-10l0-18.6c0-13.3-10.7-24-24-24l-64 0zm87.8 160.2a56 56 0 1 0 -112 0 56 56 0 1 0 112 0zm-56-24a24 24 0 1 1 0 48 24 24 0 1 1 0-48z"/></svg>