<svg width="16" height="21" viewBox="0 0 16 21" fill="none" xmlns="http://www.w3.org/2000/svg">
<path d="M7.99984 5.41665C12.0499 5.41665 15.3332 8.69988 15.3332 12.75C15.3332 16.8001 12.0499 20.0833 7.99984 20.0833C3.94975 20.0833 0.666504 16.8001 0.666504 12.75C0.666504 8.69988 3.94975 5.41665 7.99984 5.41665ZM7.99984 7.24998C4.96227 7.24998 2.49984 9.71243 2.49984 12.75C2.49984 15.7875 4.96227 18.25 7.99984 18.25C11.0374 18.25 13.4998 15.7875 13.4998 12.75C13.4998 9.71243 11.0374 7.24998 7.99984 7.24998ZM7.99984 8.62499L9.21213 11.0814L11.923 11.4753L9.96141 13.3873L10.4244 16.0872L7.99984 14.8125L5.57523 16.0872L6.03828 13.3873L4.07673 11.4753L6.78755 11.0814L7.99984 8.62499ZM13.4998 0.833314V3.58331L12.2501 4.62608C11.2361 4.09455 10.1105 3.74726 8.91751 3.62868L8.9165 0.832397L13.4998 0.833314ZM7.08317 0.832397L7.0829 3.6286C5.89004 3.74707 4.76443 4.09423 3.75055 4.6256L2.49984 3.58331V0.833314L7.08317 0.832397Z" fill="#A57C2B"/>
</svg>
