<?xml version="1.0" encoding="utf-8"?>
<svg version="1.1" " xmlns="http://www.w3.org/2000/svg" xmlns:xlink="http://www.w3.org/1999/xlink" x="0px" y="0px"
	 viewBox="0 0 464.5 85" enable-background="new 0 0 464.5 85" xml:space="preserve">
     	<style>
		.st1 {
		fill: currentColor
		}
	</style>
<g>
	<path class="st1"
    	d="M43.6,30.7c-0.2-2.2-1.2-4-3-5.2c-1.8-1.2-4.1-1.9-6.9-1.9c-2,0-3.7,0.3-5.1,0.9s-2.5,1.4-3.2,2.4c-0.8,1-1.1,2.2-1.2,3.5
		c0,1.1,0.3,2,0.8,2.8c0.5,0.8,1.2,1.5,2.1,2s1.8,1,2.9,1.4c1.1,0.4,2.1,0.7,3.2,0.9l4.9,1.2c2,0.5,3.9,1.1,5.7,1.9
		c1.8,0.8,3.5,1.8,4.9,3c1.5,1.2,2.6,2.6,3.5,4.3c0.9,1.7,1.3,3.7,1.3,5.9c0,3.1-0.8,5.8-2.4,8.1c-1.6,2.3-3.8,4.1-6.8,5.4
		c-3,1.3-6.5,2-10.7,2c-4.1,0-7.6-0.6-10.6-1.9c-3-1.3-5.3-3.1-7-5.5c-1.7-2.4-2.6-5.4-2.7-8.8h9.3c0.1,1.8,0.7,3.3,1.7,4.6
		c1,1.2,2.3,2.1,3.9,2.7c1.6,0.6,3.4,0.9,5.4,0.9c2.1,0,3.9-0.3,5.4-0.9s2.8-1.5,3.7-2.6c0.9-1.1,1.3-2.4,1.4-3.9
		c0-1.4-0.4-2.5-1.2-3.4c-0.8-0.9-1.9-1.6-3.3-2.2s-3-1.1-4.9-1.6l-6-1.5c-4.3-1.1-7.7-2.8-10.2-5c-2.5-2.3-3.7-5.3-3.7-9
		c0-3.1,0.8-5.8,2.5-8.1c1.7-2.3,4-4.1,6.9-5.4c2.9-1.3,6.2-1.9,9.8-1.9c3.7,0,7,0.6,9.8,1.9c2.8,1.3,5,3.1,6.6,5.3
		c1.6,2.3,2.4,4.9,2.5,7.8H43.6z"/>
	<path class="st1"
    	d="M73.2,68.7L62.1,29.4h9.4L78.4,57h0.4l7.1-27.6h9.3l7.1,27.5h0.4l6.8-27.5h9.5l-11.1,39.3h-9.6l-7.4-26.5h-0.5l-7.4,26.5
		H73.2z"/>
	<path class="st1"
    	d="M133.6,23.8c-1.5,0-2.7-0.5-3.8-1.5c-1-1-1.6-2.2-1.6-3.6c0-1.4,0.5-2.6,1.6-3.5c1.1-1,2.3-1.5,3.8-1.5
		c1.5,0,2.7,0.5,3.8,1.5c1,1,1.6,2.2,1.6,3.6s-0.5,2.6-1.6,3.5C136.3,23.4,135,23.8,133.6,23.8z M128.9,68.7V29.4h9.3v39.3H128.9z"
		/>
	<path class="st1"
    	d="M171.2,29.4v7.2H148v-7.2H171.2z M153.8,68.7v-43c0-2.6,0.5-4.8,1.6-6.6c1.1-1.8,2.6-3.1,4.4-3.9s3.9-1.3,6.2-1.3
		c1.6,0,3,0.1,4.3,0.4c1.2,0.3,2.2,0.5,2.8,0.7l-1.8,7.2c-0.4-0.1-0.9-0.2-1.5-0.4s-1.3-0.2-2-0.2c-1.7,0-2.9,0.4-3.6,1.2
		c-0.7,0.8-1.1,2-1.1,3.5v42.4H153.8z"/>
	<path class="st1"
    	d="M201.7,29.4v7.2h-22.6v-7.2H201.7z M184.7,20h9.3v36.9c0,1.2,0.2,2.2,0.6,2.9c0.4,0.7,0.9,1.1,1.5,1.3
		c0.6,0.2,1.3,0.4,2.1,0.4c0.6,0,1.1,0,1.6-0.1c0.5-0.1,0.9-0.2,1.1-0.2l1.6,7.2c-0.5,0.2-1.2,0.4-2.1,0.6c-0.9,0.2-2,0.3-3.3,0.4
		c-2.3,0.1-4.4-0.3-6.3-1.1c-1.9-0.8-3.3-2-4.4-3.6s-1.6-3.7-1.6-6.1V20z"/>
	<path class="st1"
    	d="M231.6,68.7l8.7-52.4h20c3.8,0,6.8,0.6,9.2,1.8s3.9,2.8,4.8,4.8c0.9,2,1.1,4.4,0.7,7c-0.4,2.1-1.1,3.9-2.1,5.4
		s-2.4,2.7-3.9,3.7c-1.5,0.9-3.2,1.6-4.9,2l-0.1,0.5c1.8,0.1,3.5,0.7,5.1,1.7c1.5,1,2.7,2.5,3.5,4.4c0.8,1.9,1,4.1,0.5,6.8
		c-0.5,2.7-1.5,5.1-3.2,7.3c-1.7,2.2-3.9,3.9-6.8,5.1c-2.8,1.2-6.3,1.9-10.3,1.9H231.6z M242.4,60.8h10.2c3.4,0,6-0.7,7.8-2
		c1.8-1.3,2.8-3,3.1-5.1c0.3-1.6,0.1-3-0.5-4.2s-1.5-2.2-2.8-3c-1.3-0.7-2.9-1.1-4.9-1.1H245L242.4,60.8z M246.1,38.6h9.4
		c1.6,0,3.1-0.3,4.6-0.9c1.4-0.6,2.6-1.5,3.5-2.6c0.9-1.1,1.5-2.4,1.7-4c0.4-2-0.1-3.7-1.3-5c-1.2-1.3-3.2-2-6-2h-9.6L246.1,38.6z"
		/>
	<path class="st1"
    	d="M282.1,68.7l6.5-39.3h9.3l-6.5,39.3H282.1z M294.6,23.8c-1.5,0-2.7-0.5-3.7-1.5c-1-1-1.4-2.2-1.3-3.6
		c0.1-1.4,0.8-2.6,1.9-3.5c1.1-1,2.4-1.5,3.9-1.5c1.5,0,2.7,0.5,3.6,1.5c1,1,1.4,2.2,1.3,3.6c-0.1,1.4-0.7,2.6-1.9,3.5
		S296.1,23.8,294.6,23.8z"/>
	<path class="st1"
    	d="M304.5,68.7l8.7-52.4h9.3l-8.7,52.4H304.5z M315,56.4l1.8-11.2h1.5l16.8-15.8h10.8l-20.6,19.3h-1.9L315,56.4z M329.2,68.7
		l-9.8-17.9l7.3-6.5l13.6,24.4H329.2z"/>
	<path class="st1"
    	d="M364.7,69.5c-3.9,0-7.2-0.8-9.8-2.5s-4.4-4-5.4-7c-1-3-1.2-6.6-0.5-10.7c0.7-4,2-7.6,4.1-10.6c2-3.1,4.6-5.4,7.7-7.2
		c3.1-1.7,6.5-2.6,10.2-2.6c2.4,0,4.6,0.4,6.7,1.2c2,0.8,3.7,2,5.1,3.6c1.4,1.6,2.4,3.7,2.9,6.2c0.5,2.5,0.5,5.5-0.1,8.9l-0.4,2.8
		H353l1-6.2h23.3c0.3-1.8,0.2-3.4-0.3-4.7s-1.4-2.5-2.5-3.3s-2.7-1.2-4.5-1.2c-1.8,0-3.5,0.5-5.1,1.4c-1.6,0.9-2.9,2.1-4,3.6
		s-1.8,3-2,4.6l-1,6c-0.4,2.5-0.3,4.5,0.2,6c0.6,1.6,1.5,2.7,2.9,3.4c1.4,0.7,3.1,1.1,5.2,1.1c1.4,0,2.6-0.2,3.8-0.6
		c1.2-0.4,2.2-0.9,3.1-1.7c0.9-0.8,1.7-1.7,2.3-2.8l8.5,1c-0.9,2.3-2.3,4.3-4.1,6c-1.8,1.7-4,3-6.5,3.9
		C370.6,69,367.8,69.5,364.7,69.5z"/>
	<path class="st1"
    	d="M429.6,39.8l-8.5,0.9c-0.1-0.9-0.4-1.7-0.8-2.4s-1.1-1.4-2-1.8s-2-0.7-3.4-0.7c-2,0-3.8,0.5-5.3,1.4
		c-1.5,0.9-2.4,2.1-2.6,3.5c-0.2,1.1,0.1,1.9,0.8,2.6c0.7,0.7,2,1.2,3.9,1.7l6.5,1.4c3.6,0.8,6.2,2.1,7.7,3.9c1.6,1.8,2.1,4.1,1.7,7
		c-0.4,2.4-1.5,4.5-3.2,6.4c-1.7,1.8-3.9,3.3-6.5,4.3c-2.7,1-5.6,1.5-8.8,1.5c-4.9,0-8.7-1-11.3-3c-2.6-2-3.9-4.8-3.9-8.4l9.1-0.9
		c0.1,1.8,0.7,3.1,1.9,4s2.7,1.4,4.8,1.4c2.3,0,4.2-0.5,5.8-1.5c1.6-1,2.5-2.2,2.7-3.6c0.2-1.1-0.1-1.9-0.8-2.6
		c-0.7-0.7-1.9-1.2-3.7-1.6l-6.4-1.4c-3.6-0.8-6.2-2.1-7.8-4.1c-1.5-1.9-2.1-4.4-1.6-7.3c0.4-2.4,1.4-4.4,3-6.1
		c1.6-1.7,3.7-3.1,6.2-4c2.5-0.9,5.3-1.4,8.4-1.4c4.7,0,8.2,1,10.6,2.9C428.3,33.8,429.5,36.5,429.6,39.8z"/>
	<path class="st1"
    	d="M443.1,69.2c-1.6,0-2.9-0.5-3.9-1.6c-1-1.1-1.5-2.4-1.4-4c0.1-1.6,0.7-2.9,1.9-3.9c1.2-1.1,2.6-1.6,4.1-1.6
		c1.5,0,2.8,0.5,3.8,1.6c1.1,1.1,1.5,2.4,1.5,3.9c-0.1,1.1-0.4,2-1,2.9c-0.6,0.9-1.3,1.5-2.2,2C445,69,444.1,69.2,443.1,69.2z"/>
</g>
</svg>
