<svg width="24" height="21" viewBox="0 0 24 21" fill="none" xmlns="http://www.w3.org/2000/svg">
<path d="M15.9326 0.0131836L19.6787 6.50218L23.6722 6.50239V8.83575L22.3107 8.83552L21.428 19.4326C21.3776 20.0373 20.8721 20.5024 20.2653 20.5024H3.7457C3.13893 20.5024 2.63344 20.0373 2.58306 19.4326L1.6992 8.83552L0.338867 8.83575V6.50239L4.3312 6.50218L8.07851 0.0131836L10.0992 1.17985L7.0262 6.50218H16.9837L13.9119 1.17985L15.9326 0.0131836ZM19.9692 8.83552L4.0407 8.83575L4.81887 18.1691H19.1911L19.9692 8.83552ZM13.1722 11.1691V15.8357H10.8389V11.1691H13.1722ZM8.50553 11.1691V15.8357H6.1722V11.1691H8.50553ZM17.8389 11.1691V15.8357H15.5056V11.1691H17.8389Z" fill="#D5352D"/>
</svg>
