<svg width="18" height="16" viewBox="0 0 18 16" fill="none" xmlns="http://www.w3.org/2000/svg">
<path d="M1.50033 0.5C1.04009 0.5 0.666992 0.8731 0.666992 1.33333V6.33333C0.666992 6.79358 1.04009 7.16667 1.50033 7.16667H7.33366C7.79391 7.16667 8.16699 6.79358 8.16699 6.33333V1.33333C8.16699 0.8731 7.79391 0.5 7.33366 0.5H1.50033ZM2.33366 5.5V2.16667H6.50033V5.5H2.33366ZM1.50033 8.83333C1.04009 8.83333 0.666992 9.20642 0.666992 9.66667V14.6667C0.666992 15.1269 1.04009 15.5 1.50033 15.5H7.33366C7.79391 15.5 8.16699 15.1269 8.16699 14.6667V9.66667C8.16699 9.20642 7.79391 8.83333 7.33366 8.83333H1.50033ZM2.33366 13.8333V10.5H6.50033V13.8333H2.33366ZM9.83366 1.33333C9.83366 0.8731 10.2067 0.5 10.667 0.5H16.5003C16.9606 0.5 17.3337 0.8731 17.3337 1.33333V6.33333C17.3337 6.79358 16.9606 7.16667 16.5003 7.16667H10.667C10.2067 7.16667 9.83366 6.79358 9.83366 6.33333V1.33333ZM11.5003 2.16667V5.5H15.667V2.16667H11.5003ZM10.667 8.83333C10.2067 8.83333 9.83366 9.20642 9.83366 9.66667V14.6667C9.83366 15.1269 10.2067 15.5 10.667 15.5H16.5003C16.9606 15.5 17.3337 15.1269 17.3337 14.6667V9.66667C17.3337 9.20642 16.9606 8.83333 16.5003 8.83333H10.667ZM11.5003 13.8333V10.5H15.667V13.8333H11.5003Z" fill="#9599A0"/>
</svg>
