<svg width="80" height="80" viewBox="0 0 80 80" fill="none" xmlns="http://www.w3.org/2000/svg">
<g opacity="0.5">
<path d="M20 26.6668V23.3335C20 12.2878 28.9543 3.3335 40 3.3335C51.0457 3.3335 60 12.2878 60 23.3335V26.6668H66.6667C68.5077 26.6668 70 28.1592 70 30.0002V70.0002C70 71.8412 68.5077 73.3335 66.6667 73.3335H13.3333C11.4924 73.3335 10 71.8412 10 70.0002V30.0002C10 28.1592 11.4924 26.6668 13.3333 26.6668H20ZM63.3333 33.3335H16.6667V66.6668H63.3333V33.3335ZM36.6667 52.4415C34.674 51.2888 33.3333 49.1345 33.3333 46.6668C33.3333 42.9848 36.318 40.0002 40 40.0002C43.682 40.0002 46.6667 42.9848 46.6667 46.6668C46.6667 49.1345 45.326 51.2888 43.3333 52.4415V60.0002H36.6667V52.4415ZM26.6667 26.6668H53.3333V23.3335C53.3333 15.9697 47.3637 10.0002 40 10.0002C32.6362 10.0002 26.6667 15.9697 26.6667 23.3335V26.6668Z" fill="#19C07A"/>
</g>
</svg>
