<?xml version="1.0" encoding="iso-8859-1"?>
<!-- Generator: Adobe Illustrator 19.0.0, SVG Export Plug-In . SVG Version: 6.00 Build 0)  -->
<svg version="1.1" id="Layer_1" xmlns="http://www.w3.org/2000/svg" xmlns:xlink="http://www.w3.org/1999/xlink" x="0px" y="0px"
	 viewBox="0 0 330 330" style="enable-background:new 0 0 330 330;" xml:space="preserve">
<g id="XMLID_12_">
	<path id="XMLID_13_" d="M315,42.857H15c-8.284,0-15,6.716-15,15v214.285c0,8.284,6.716,15,15,15h300c8.284,0,15-6.716,15-15V57.857
		C330,49.573,323.284,42.857,315,42.857z M300,257.143H30V72.857h270V257.143z"/>
	<path id="XMLID_16_" d="M127.5,222.5c14.32,0,27.424-5.274,37.5-13.966c10.076,8.691,23.18,13.966,37.5,13.966
		c31.706,0,57.5-25.794,57.5-57.5s-25.794-57.5-57.5-57.5c-14.32,0-27.424,5.274-37.5,13.966
		c-10.076-8.691-23.18-13.966-37.5-13.966C95.794,107.5,70,133.294,70,165S95.794,222.5,127.5,222.5z M245,165
		c0,23.435-19.065,42.5-42.5,42.5c-10.482,0-20.084-3.822-27.502-10.136C181.304,188.138,185,176.994,185,165
		s-3.696-23.138-10.002-32.364c7.418-6.314,17.02-10.136,27.502-10.136C225.935,122.5,245,141.565,245,165z"/>
</g>
<g>
</g>
<g>
</g>
<g>
</g>
<g>
</g>
<g>
</g>
<g>
</g>
<g>
</g>
<g>
</g>
<g>
</g>
<g>
</g>
<g>
</g>
<g>
</g>
<g>
</g>
<g>
</g>
<g>
</g>
</svg>
