<svg width="26" height="20" viewBox="0 0 26 20" fill="none" xmlns="http://www.w3.org/2000/svg">
<path d="M9.45849 16.0002C9.17543 17.9789 7.47362 19.5002 5.4165 19.5002C3.35939 19.5002 1.65757 17.9789 1.37452 16.0002H0.166504V2.00016C0.166504 1.35584 0.688844 0.833496 1.33317 0.833496H17.6665C18.3109 0.833496 18.8332 1.35584 18.8332 2.00016V4.3335H22.3332L25.8332 9.06515V16.0002H23.4585C23.1754 17.9789 21.4736 19.5002 19.4165 19.5002C17.3594 19.5002 15.6576 17.9789 15.3745 16.0002H9.45849ZM16.4998 3.16683H2.49984V12.5591C3.24097 11.8027 4.27394 11.3335 5.4165 11.3335C7.0454 11.3335 8.45153 12.2872 9.10688 13.6668H15.7261C15.9218 13.255 16.1844 12.881 16.4998 12.5591V3.16683ZM18.8332 10.1668H23.4998V9.83433L21.1568 6.66683H18.8332V10.1668ZM19.4165 17.1668C20.1785 17.1668 20.8267 16.6799 21.0669 16.0002C21.1314 15.8177 21.1665 15.6213 21.1665 15.4168C21.1665 14.4504 20.383 13.6668 19.4165 13.6668C18.45 13.6668 17.6665 14.4504 17.6665 15.4168C17.6665 15.6213 17.7016 15.8177 17.7661 16.0002C18.0064 16.6799 18.6546 17.1668 19.4165 17.1668ZM7.1665 15.4168C7.1665 14.4504 6.38301 13.6668 5.4165 13.6668C4.45 13.6668 3.6665 14.4504 3.6665 15.4168C3.6665 15.6213 3.7016 15.8177 3.76608 16.0002C4.00632 16.6799 4.65454 17.1668 5.4165 17.1668C6.17847 17.1668 6.82669 16.6799 7.06693 16.0002C7.13141 15.8177 7.1665 15.6213 7.1665 15.4168Z" fill="#D5352D"/>
</svg>
