<?xml version="1.0" encoding="UTF-8"?>
<svg xmlns="http://www.w3.org/2000/svg" version="1.1" viewBox="0 0 80 50">
  <defs>
    <style>
      .cls-1 {
        fill: gray;
      }

      .cls-2 {
        fill: #666;
      }

      .cls-3 {
        fill: #f2f2f2;
      }

      .cls-4, .cls-5 {
        fill: #b3b3b3;
      }

      .cls-5 {
        opacity: .2;
      }

      .cls-6 {
        fill: #999;
      }
    </style>
  </defs>
  <!-- Generator: Adobe Illustrator 28.7.1, SVG Export Plug-In . SVG Version: 1.2.0 Build 142)  -->
  <g>
    <g id="Layer_2">
      <g>
        <g>
          <polygon class="cls-3" points="20.2 33.1 28.7 22.5 32.5 28.4 32.5 13 9.2 13 9.2 37 16.2 27.9 20.2 33.1"/>
          <polygon class="cls-3" points="9.2 37 32.5 37 32.5 37 9.2 37"/>
          <polygon class="cls-3" points="32.5 28.4 28.7 22.5 20.2 33.1 16.2 27.9 9.2 37 32.5 37 32.5 28.4"/>
          <polygon class="cls-5" points="32.5 28.4 28.7 22.5 20.2 33.1 16.2 27.9 9.2 37 32.5 37 32.5 28.4"/>
        </g>
        <g>
          <rect class="cls-1" x="11.7" y="30.7" width="8" height="1.6"/>
          <rect class="cls-6" x="11.7" y="33.1" width="6" height="1.2"/>
        </g>
      </g>
      <g>
        <circle class="cls-2" cx="35.6" cy="44" r=".8"/>
        <circle class="cls-4" cx="41.5" cy="44" r=".8"/>
        <circle class="cls-4" cx="44.4" cy="44" r=".8"/>
        <circle class="cls-4" cx="38.5" cy="44" r=".8"/>
      </g>
      <g>
        <g>
          <polygon class="cls-3" points="46.6 33.1 55.1 22.5 58.9 28.4 58.9 13 35.6 13 35.6 37 42.7 27.9 46.6 33.1"/>
          <polygon class="cls-3" points="35.6 37 58.9 37 58.9 37 35.6 37"/>
          <polygon class="cls-3" points="58.9 28.4 55.1 22.5 46.6 33.1 42.7 27.9 35.6 37 58.9 37 58.9 28.4"/>
          <polygon class="cls-5" points="58.9 28.4 55.1 22.5 46.6 33.1 42.7 27.9 35.6 37 58.9 37 58.9 28.4"/>
        </g>
        <g>
          <rect class="cls-1" x="38.2" y="30.7" width="8" height="1.6"/>
          <rect class="cls-6" x="38.2" y="33.1" width="6" height="1.2"/>
        </g>
      </g>
      <g>
        <g>
          <polygon class="cls-3" points="73 33.1 81.6 22.5 85.4 28.4 85.4 13 62 13 62 37 69.1 27.9 73 33.1"/>
          <polygon class="cls-3" points="62 37 85.4 37 85.4 37 62 37"/>
          <polygon class="cls-3" points="85.4 28.4 81.6 22.5 73 33.1 69.1 27.9 62 37 85.4 37 85.4 28.4"/>
          <polygon class="cls-5" points="85.4 28.4 81.6 22.5 73 33.1 69.1 27.9 62 37 85.4 37 85.4 28.4"/>
        </g>
        <g>
          <rect class="cls-1" x="64.6" y="30.7" width="8" height="1.6"/>
          <rect class="cls-6" x="64.6" y="33.1" width="6" height="1.2"/>
        </g>
      </g>
    </g>
  </g>
</svg>