<?xml version="1.0" encoding="UTF-8"?>
<svg xmlns="http://www.w3.org/2000/svg" version="1.1" viewBox="0 0 80 50">
  <defs>
    <style>
      .cls-1 {
        fill: gray;
      }

      .cls-2 {
        fill: #e6e6e6;
      }

      .cls-3 {
        fill: #666;
      }

      .cls-4 {
        fill: #f2f2f2;
      }

      .cls-5 {
        fill: #b3b3b3;
      }

      .cls-6 {
        fill: #999;
      }
    </style>
  </defs>
  <!-- Generator: Adobe Illustrator 28.7.1, SVG Export Plug-In . SVG Version: 1.2.0 Build 142)  -->
  <g>
    <g id="Layer_2">
      <g>
        <polygon class="cls-4" points="20 34.5 28.5 24 32.3 29.8 32.3 14.4 9 14.4 9 38.5 16.1 29.3 20 34.5"/>
        <polygon class="cls-4" points="9 38.5 32.3 38.5 32.3 38.5 9 38.5"/>
        <polygon class="cls-4" points="32.3 29.8 28.5 24 20 34.5 16.1 29.3 9 38.5 32.3 38.5 32.3 29.8"/>
        <g>
          <rect class="cls-1" x="11.6" y="32.1" width="8" height="1.6"/>
          <rect class="cls-6" x="11.6" y="34.5" width="6" height="1.2"/>
        </g>
      </g>
      <g>
        <circle class="cls-3" cx="35.5" cy="45.4" r=".8"/>
        <circle class="cls-5" cx="41.3" cy="45.4" r=".8"/>
        <circle class="cls-5" cx="44.2" cy="45.4" r=".8"/>
        <circle class="cls-5" cx="38.4" cy="45.4" r=".8"/>
      </g>
      <g>
        <path class="cls-6" d="M32.3,14.4v13H9v-13h23.3Z"/>
        <path class="cls-2" d="M14.8,24.5l2.8-4.6,1.6,2.6,3.4-5.3,3.8,7.3h-11.7Z"/>
      </g>
      <g>
        <polygon class="cls-4" points="48.6 34.5 57.2 24 61 29.8 61 14.4 37.6 14.4 37.6 38.5 44.7 29.3 48.6 34.5"/>
        <polygon class="cls-4" points="37.6 38.5 61 38.5 61 38.5 37.6 38.5"/>
        <polygon class="cls-4" points="61 29.8 57.2 24 48.6 34.5 44.7 29.3 37.6 38.5 61 38.5 61 29.8"/>
        <g>
          <rect class="cls-1" x="40.2" y="32.1" width="8" height="1.6"/>
          <rect class="cls-6" x="40.2" y="34.5" width="6" height="1.2"/>
        </g>
      </g>
      <g>
        <path class="cls-6" d="M61,14.4v13h-23.3v-13h23.3Z"/>
        <path class="cls-2" d="M43.5,24.5l2.8-4.6,1.6,2.6,3.4-5.3,3.8,7.3h-11.7Z"/>
      </g>
      <g>
        <polygon class="cls-4" points="77.2 34.5 85.8 24 89.6 29.8 89.6 14.4 66.2 14.4 66.2 38.5 73.3 29.3 77.2 34.5"/>
        <polygon class="cls-4" points="66.2 38.5 89.6 38.5 89.6 38.5 66.2 38.5"/>
        <polygon class="cls-4" points="89.6 29.8 85.8 24 77.2 34.5 73.3 29.3 66.2 38.5 89.6 38.5 89.6 29.8"/>
        <g>
          <rect class="cls-1" x="68.8" y="32.1" width="8" height="1.6"/>
          <rect class="cls-6" x="68.8" y="34.5" width="6" height="1.2"/>
        </g>
      </g>
      <g>
        <path class="cls-6" d="M89.6,14.4v13h-23.3v-13h23.3Z"/>
        <path class="cls-2" d="M72.1,24.5l2.8-4.6,1.6,2.6,3.4-5.3,3.8,7.3h-11.7Z"/>
      </g>
    </g>
  </g>
</svg>