<?xml version="1.0" encoding="UTF-8"?>
<svg xmlns="http://www.w3.org/2000/svg" version="1.1" viewBox="0 0 80 50">
  <defs>
    <style>
      .cls-1 {
        fill: gray;
      }

      .cls-2 {
        fill: #ccc;
      }

      .cls-3 {
        fill: #666;
      }

      .cls-4 {
        fill: #f2f2f2;
      }

      .cls-5, .cls-6 {
        fill: #b3b3b3;
      }

      .cls-6 {
        opacity: .2;
      }

      .cls-7 {
        fill: #999;
      }
    </style>
  </defs>
  <!-- Generator: Adobe Illustrator 28.7.1, SVG Export Plug-In . SVG Version: 1.2.0 Build 142)  -->
  <g>
    <g id="Layer_2">
      <g>
        <g>
          <polygon class="cls-4" points="18.6 33.1 27.1 22.5 30.9 28.4 30.9 12.9 7.5 12.9 7.5 37 14.6 27.9 18.6 33.1"/>
          <polygon class="cls-4" points="7.5 37 30.9 37 30.9 37 7.5 37"/>
          <polygon class="cls-4" points="30.9 28.4 27.1 22.5 18.6 33.1 14.6 27.9 7.5 37 30.9 37 30.9 28.4"/>
          <polygon class="cls-6" points="30.9 28.4 27.1 22.5 18.6 33.1 14.6 27.9 7.5 37 30.9 37 30.9 28.4"/>
        </g>
        <g>
          <rect class="cls-1" x="15.2" y="31.3" width="8" height="1.6"/>
          <rect class="cls-7" x="16.2" y="33.7" width="6" height="1.2"/>
        </g>
      </g>
      <g>
        <g>
          <polygon class="cls-4" points="45.4 33.1 53.9 22.5 57.7 28.4 57.7 12.9 34.4 12.9 34.4 37 41.4 27.9 45.4 33.1"/>
          <polygon class="cls-4" points="34.4 37 57.7 37 57.7 37 34.4 37"/>
          <polygon class="cls-4" points="57.7 28.4 53.9 22.5 45.4 33.1 41.4 27.9 34.4 37 57.7 37 57.7 28.4"/>
          <polygon class="cls-6" points="57.7 28.4 53.9 22.5 45.4 33.1 41.4 27.9 34.4 37 57.7 37 57.7 28.4"/>
        </g>
        <g>
          <rect class="cls-1" x="42.1" y="31.3" width="8" height="1.6"/>
          <rect class="cls-7" x="43" y="33.7" width="6" height="1.2"/>
        </g>
      </g>
      <g>
        <g>
          <polygon class="cls-4" points="72.2 33.1 80.7 22.5 84.5 28.4 84.5 12.9 61.2 12.9 61.2 37 68.3 27.9 72.2 33.1"/>
          <polygon class="cls-4" points="61.2 37 84.5 37 84.5 37 61.2 37"/>
          <polygon class="cls-4" points="84.5 28.4 80.7 22.5 72.2 33.1 68.3 27.9 61.2 37 84.5 37 84.5 28.4"/>
          <polygon class="cls-6" points="84.5 28.4 80.7 22.5 72.2 33.1 68.3 27.9 61.2 37 84.5 37 84.5 28.4"/>
        </g>
        <g>
          <rect class="cls-1" x="68.9" y="31.3" width="8" height="1.6"/>
          <rect class="cls-7" x="69.9" y="33.7" width="6" height="1.2"/>
        </g>
      </g>
      <g>
        <circle class="cls-3" cx="34" cy="44" r=".8"/>
        <circle class="cls-5" cx="39.9" cy="44" r=".8"/>
        <circle class="cls-5" cx="42.8" cy="44" r=".8"/>
        <circle class="cls-5" cx="36.9" cy="44" r=".8"/>
      </g>
      <circle class="cls-2" cx="67.9" cy="44" r="2"/>
      <circle class="cls-2" cx="73.1" cy="44" r="2"/>
    </g>
  </g>
</svg>