<svg id="Bold" enable-background="new 0 0 24 24" height="512" viewBox="0 0 24 24" width="512" xmlns="http://www.w3.org/2000/svg"><path d="m12 20.628c-1.35 1.51-3.098 3.017-5.127 3.262l-.002-.009c-.099.042-.204.066-.314.058-3.038.365-5.536-2.073-5.536-5.06 0-2.49 3.197-8.004 6.581-15.119.891-1.848 1.814-3.76 4.388-3.76 2.593 0 3.476 1.827 4.562 4.079 6.427 12.813 6.427 13.52 6.427 14.801 0 1.511-.643 2.935-1.763 3.906-2.076 1.8-5.553 1.94-9.216-2.158zm9.48-1.748c0-1.966-3.004-7.264-6.274-14.142-.886-1.752-1.369-3.238-3.196-3.238-1.58 0-2.134.999-3.058 2.912-3.295 6.927-6.432 12.41-6.432 14.468 0 1.952 1.469 3.848 4.174 3.521 1.665-.201 3.2-1.651 4.312-2.913-11.062-14.284 13.096-14.341 1.987 0 4.518 5.122 8.487 2.626 8.487-.608zm-11.98-5.97c0 1.375.863 3.241 2.5 5.408 1.637-2.167 2.5-4.033 2.5-5.408 0-3.571-5-3.571-5 0z"/></svg>