<svg id="Bold" enable-background="new 0 0 24 24" height="512" viewBox="0 0 24 24" width="512" xmlns="http://www.w3.org/2000/svg"><path d="m10.521 20.5c2.631 0 3.287-1.222 3.287-2.334.005-.775-.544-1.887-2.518-1.887h-3.178l-.878 4.221z"/><path d="m6.685 11.61c0-.775-.548-1.887-2.523-1.887v.001h-3.178l-.984 4.22h3.287c2.63 0 3.398-1.113 3.398-2.334z"/><path d="m7.783 5.389c0-.78-.549-1.887-2.522-1.887h-3.18l-.984 4.221h3.287c2.629 0 3.398-1.222 3.399-2.334z"/><path d="m15.125 11.61c0-.775-.548-1.887-2.518-1.887v.001h-3.178l-.877 4.221h3.287c2.522-.001 3.286-1.114 3.286-2.335z"/><path d="m24 9.053c.005-.775-.544-1.887-2.517-1.887h-3.179l-.877 4.222h3.287c2.522 0 3.286-1.113 3.286-2.335z"/><path d="m19.401 17.943c2.631 0 3.287-1.112 3.287-2.334 0-.775-.544-1.887-2.518-1.887h-3.179l-.877 4.222h3.287z"/><path d="m16.217 5.387c.005-.78-.544-1.887-2.517-1.887v.001h-3.179l-.877 4.221h3.287c2.522 0 3.286-1.222 3.286-2.335z"/></svg>