<svg id="Bold" enable-background="new 0 0 24 24" height="512" viewBox="0 0 24 24" width="512" xmlns="http://www.w3.org/2000/svg"><path d="m11.795 1.322c8.482-.906 14.444 7.283 11.435 14.656-2.727 6.795-11.569 8.992-17.177 4.216-.915-.74-.905-.97-2.234-.97-1.542-.009-3.853.37-3.817-.258-.073-.896 3.235-1.531 2.918-2.915-.199-.874-.445-1.74-.597-2.624-.95-5.747 3.42-11.427 9.472-12.105zm-2.246 4.226c-.339.06-.711-.013-1.025.155.4 3.924.324 9.709.106 11.686-.053.237.258.247.417.256.863-.003 1.731.029 2.59-.044.16-.191.168-.462.283-.679.338.208.636.489 1.025.607 1.319.443 2.912.14 3.887-.877 2.493-2.448 1.186-8.314-3.405-7.466-.559.101-1.028.436-1.432.815-.186.002-.159-.207-.169-.336.016-3.376.216-3.467.122-4.235-.797-.083-1.601.07-2.399.118z"/><path d="m12.976 11.734c1.791-.359 2.538 1.8 1.501 2.907-.66.691-1.999.565-2.457-.296-.511-.907-.168-2.376.956-2.611z"/></svg>