<svg id="Bold" enable-background="new 0 0 24 24" height="512" viewBox="0 0 24 24" width="512" xmlns="http://www.w3.org/2000/svg"><path d="m12 24c6.617 0 12-5.384 12-12s-5.384-12-12-12-12 5.383-12 12 5.383 12 12 12zm0-22.5c5.788 0 10.5 4.71 10.5 10.5 0 5.788-4.712 10.5-10.5 10.5-5.79 0-10.5-4.712-10.5-10.5 0-5.79 4.71-10.5 10.5-10.5z"/><path d="m17.742 5.071c-1.558-1.294-3.559-2.071-5.742-2.071-.63 0-1.245.066-1.839.189 1.092 1.548 2.084 3.159 2.957 4.829 1.651-.77 3.205-1.763 4.624-2.947z"/><path d="m14.866 11.852c1.992-.41 4.065-.448 6.12-.107-.06-2.145-.867-4.101-2.175-5.616-1.544 1.301-3.242 2.379-5.045 3.222.394.822.76 1.655 1.1 2.501z"/><path d="m11.718 8.585c-.902-1.711-1.923-3.361-3.063-4.936-2.702 1.083-4.75 3.435-5.417 6.322 2.913.124 5.796-.361 8.48-1.386z"/><path d="m13.404 12.225c-.313-.771-.652-1.53-1.014-2.281-2.598 1.012-5.373 1.564-8.195 1.564-.388 0-.778-.024-1.168-.045-.01.178-.027.356-.027.537 0 2.21.8 4.232 2.121 5.798 2.161-2.684 5.067-4.607 8.283-5.573z"/><path d="m15.417 13.271c.715 1.996 1.276 4.047 1.688 6.137 2.028-1.399 3.444-3.609 3.799-6.162-1.839-.325-3.698-.311-5.487.025z"/><path d="m6.185 18.864c1.57 1.331 3.596 2.136 5.815 2.136 1.332 0 2.593-.297 3.73-.817-.412-2.241-1.012-4.434-1.787-6.563-3.024.883-5.755 2.698-7.758 5.244z"/></svg>