<svg id="Bold" enable-background="new 0 0 24 24" height="512" viewBox="0 0 24 24" width="512" xmlns="http://www.w3.org/2000/svg"><path d="m2.795 6.727c.415-.171.459-.18 1.883-.18 2.924-.018 3.563.302 3.608-1.155 0-4.162-.041-4.033.175-4.576.088-.179-.204.193-5.685 5.891-.02.02-.02.039.019.02z"/><path d="m2.582 12.338c.504 2.288 1.475 3.104 1.475 3.104 1.912 2.015 5.2 2.403 6.344 1.81 1.203-.756 1.804-3.541 1.804-3.541.137 1.85 2.174 2.506 2.989 2.606.101.015.326.04.582.099 2.564.661 2.518 3.077 2.483 2.977 0 2.07-2.439 3.179-3.705 1.879-.395-.404-.448-1.073.039-1.473.241-.219.682-.161.969-.338l.004-.002c.479-.273.471-.874.442-.774 0-1.778-3.819-.816-3.822 2.109v.001c.01 4.278 8.498 5.069 9.546-2.627.058 0 .776-6.288-.408-12.775-.503-2.726-3.143-2.905-4.21-3.104-1.126-.199-3.357-.597-3.357-.597s-.252-1.234-1.435-1.532c-.792-.204-.815-.142-1.63-.16-.95 0-1.592.617-1.687 1.354-.063 4.163.206 4.919-.408 5.511-.743.705-1.895.298-5.278.419-.737.099-1.319.755-1.319 1.73.091 1.156.406 2.477.582 3.324zm14.046-1.413c.429-1.095 2.433-.856 2.562.318 0 .101.037.359-.137.359-.323.051-2.385-.1-2.483-.399-.019-.059.019-.178.058-.278z"/></svg>