<svg id="Bold" enable-background="new 0 0 24 24" height="512" viewBox="0 0 24 24" width="512" xmlns="http://www.w3.org/2000/svg"><path d="m13.5 19.47v4.53h8.25l-9.75-24-9.75 24h8.25v-4.907c-.189-.005-.375-.075-.518-.221l-1.935-1.951c-.291-.293-.289-.77.005-1.061s.769-.288 1.061.006l1.387 1.399v-3.767h3v1.978l1.024-.683c.341-.228.808-.138 1.04.209.229.343.136.81-.209 1.039l-1.44.96c-.128.086-.271.126-.415.126v.752l2.557-1.287c.366-.191.819-.039 1.006.333.186.37.038.821-.333 1.007l.001.002-2.895 1.457c-.106.056-.222.079-.336.079z"/></svg>