<svg id="Bold" enable-background="new 0 0 24 24" height="512" viewBox="0 0 24 24" width="512" xmlns="http://www.w3.org/2000/svg"><path d="m12 20.182v3.818c11.054-5.526 10.539-13.742 10.5-13.642 0-5.721-4.698-10.358-10.495-10.358-.002 0-.004 0-.005 0v.001c-.002 0-.004 0-.006 0-5.796 0-10.494 4.637-10.494 10.357v.006c0 5.427 5.014 9.818 10.5 9.818zm4.379-14.235c1.061 1.047 1.713 2.512 1.713 4.105 0 3.644-3.288 3.922-4.201 2.059-1.453 2.174-5.165 1.04-5.165-1.966.02-.103-.065-1.325.885-2.262 1.02-1.062 2.86-1.248 3.883-.041h.097v-.613h1.312v3.832c0 .478.271.98.857.98 1.236 0 1.196-2.523.663-3.792-2.078-4.627-9.143-3.232-9.143 1.817 0 3.682 4 5.611 6.755 4.159l.483 1.199c-3.793 1.729-8.594-.844-8.594-5.331 0-5.36 6.735-7.824 10.455-4.146z"/><path d="m15.429 6.789v.001h.001z"/><path d="m11.834 8.4v.001c-.879 0-1.712.615-1.712 1.758 0 2.348 3.425 2.346 3.425-.001-.001-1.099-.798-1.756-1.713-1.758z"/><path d="m12.495 11.791-.01.003-.002.001z"/></svg>