<svg id="Bold" enable-background="new 0 0 24 24" height="512" viewBox="0 0 24 24" width="512" xmlns="http://www.w3.org/2000/svg"><path d="m23.679 9.289c-1.513-6.445-7.708-10.364-14.185-9.028-7.756 1.599-11.897 10.428-8.024 17.337.224.399.224.014-1.47 6.387.647-.146 2.923-.779 5.723-1.51.154-.04.362-.03.5.043 2.634 1.403 5.409 1.829 8.33 1.197 6.481-1.402 10.67-7.85 9.126-14.426zm-9.537-2.64c.853-.004 1.501.637 1.502 1.485.001.847-.648 1.499-1.492 1.499-1.957-.002-1.989-2.974-.01-2.984zm-6.076 1.096c.807.012 1.487.694 1.498 1.501.011.806-.694 1.517-1.508 1.521-.811.003-1.514-.702-1.51-1.516.003-.816.712-1.518 1.52-1.506zm11.789 4.963c-3.862 5.4-9.965 6.01-14.904 2.752-1.063-.701-.04-2.254 1.041-1.561 4.617 2.959 9.515 1.831 12.354-2.253.781-1.121 2.292-.032 1.509 1.062z"/></svg>