<svg id="Bold" enable-background="new 0 0 24 24" height="512" viewBox="0 0 24 24" width="512" xmlns="http://www.w3.org/2000/svg"><path d="m12 .5c-6.616 0-12 5.329-12 11.878 0 4.886 3.094 9.336 7.698 11.072.396.156.854-.064.983-.472l2.25-7.112c.107-.337-.04-.702-.352-.872-.974-.532-1.579-1.534-1.579-2.616 0-1.638 1.345-2.97 3-2.97 1.654 0 3 1.332 3 2.97 0 1.082-.604 2.085-1.578 2.618-.312.169-.46.534-.352.872l2.25 7.112c.129.411.584.625.983.472 4.604-1.738 7.697-6.188 7.697-11.074 0-6.549-5.383-11.878-12-11.878z"/></svg>