<svg id="Bold" enable-background="new 0 0 24 24" height="512" viewBox="0 0 24 24" width="512" xmlns="http://www.w3.org/2000/svg"><path d="m.058 11.438c.253-.188.602-.141 1.045.141v-11.579h21.705v11.578c.43-.318 1.259-.452 1.187.047-.202.597-.782 1.292-1.211 1.688-.695.64-3.411 2.067-4.108 2.297 2.234 7.125-3.867 10.187-6.032 7.172-.405-.639-.169-.992-.237-5.625-.174 0-.829-.234-.855-.234v5.062c0 2.036-3.376 2.941-5.319.703-1.67-1.924-1.74-4.584-.95-6.984-1.931-.844-3.594-1.953-4.987-3.328-.285-.501-.364-.814-.238-.938zm2.28.937c.419.207.882.47 1.235.609l17.003-.188c.475-.219.792-.375.95-.469v-11.061h-19.188zm3.467-2.391c0-1.577 1.308-2.859 2.897-2.859 2.537 0 3.803 3.09 2.018 4.852-1.798 1.774-4.915.491-4.915-1.993zm6.792 0c0-2.494 3.107-3.852 4.916-2.016 1.775 1.802.542 4.828-2.018 4.828-1.569.001-2.898-1.216-2.898-2.812z"/></svg>