<svg id="Bold" enable-background="new 0 0 24 24" height="512" viewBox="0 0 24 24" width="512" xmlns="http://www.w3.org/2000/svg"><path d="m20.779 19.685c.912-.143 2.799-.473 3.16-1.304.182-.428-.078-.776-.41-.829v-.001c-3.208-.528-4.654-3.814-4.713-3.954-.889-1.594 1.524-1.326 2.473-2.298.926-.953-.559-1.985-1.488-1.547-.381.179-.952.387-1.332.213.09-1.509.339-4.011-.272-5.377-2.055-4.603-8.115-4.769-10.931-2.097-2.219 2.104-1.947 4.267-1.739 7.474-.69.301-1.372-.297-1.869-.297-.522 0-1.129.339-1.227.85-.124.671.605 1.103 1.236 1.352 1.075.422 2.097.547 1.53 1.699-.005.009-.009.018-.012.027-.803 1.834-2.556 3.597-4.714 3.953-.348.057-.586.424-.412.829v.002c.357.832 2.262 1.165 3.161 1.305.278.52.065 1.547.926 1.547.335 0 .983-.219 1.81-.219 1.205 0 1.616.263 2.582.945.992.701 2.082 1.386 3.437 1.287 1.411.088 2.459-.561 3.487-1.285l.001-.002c1.002-.705 1.718-1.226 3.84-.809 1.57.304 1.112-.759 1.476-1.464z"/></svg>