<svg id="Bold" enable-background="new 0 0 24 24" height="512" viewBox="0 0 24 24" width="512" xmlns="http://www.w3.org/2000/svg"><path d="m12.367 9.062c-.033-.033-.133-.297-.167-.363-3.364-6.892-10.884-6.663-12.07-3.562-.924 2.374 3.068 8.015 12.237 3.925z"/><path d="m13.884 8.435c5.177-2.309 4.452-6.299 3.099-6.827-1.782-.693-5.08 1.98-3.2 6.629.033.033.101.165.101.198z"/><path d="m8.937 14.649c-1.246 1.934-2.408 4.505-2.672 5.312-.132.328.033.726.396.856 1.539.59 3.113 1.139 5.675 1.583-2.093-2.023-3.334-4.842-3.399-7.751z"/><path d="m23.414 12.835c-1.082-2.391-3.443-3.726-4.419-3.726-.858 0-1.715.726-1.781 1.617-.263 3.023 1.246 6.264 3.563 8.112.774.602 2.233.384 2.672-.658.723-1.619.758-3.565-.035-5.345z"/><path d="m16.092 16.167c-.862-1.934-1.544-5.189-.561-7.026-.032 0-.099.031-.132.031-.193.097-4.16 1.122-4.484 4.521-.257 2.855.947 5.948 3.429 7.916.693.561 1.913.891 2.937.891 1.12 0 2.024-.206 3.264-1.023.171-.113.296-.229.329-.229-2.036-.516-3.933-3.141-4.782-5.081z"/></svg>