<svg id="Bold" enable-background="new 0 0 24 24" height="512" viewBox="0 0 24 24" width="512" xmlns="http://www.w3.org/2000/svg"><path d="m12.379 0c.53.114.989.411 1.452.677 8.433 4.84 8.282 4.655 8.488 5.128.088.312-.19.611-.507.564-5.068.004-10.135-.003-15.204.003-.931.008-1.766.776-1.884 1.69-.175 1.084.735 2.176 1.833 2.224 1.007.02 2.017-.005 3.024.008.694-.01 1.313.623 1.296 1.313.042.448.169.05-4.172 8.357-.122.223-.218.468-.391.66-.215.206-.561.173-.794.015-1.078-.626-2.166-1.235-3.24-1.868-.587-.331-.982-.943-1.031-1.615v-10.398c.089-.659.499-1.241 1.071-1.574 11.323-6.525 8.409-4.933 10.059-5.184z"/><path d="m14.966 12.634c.723-1.413 2.275-2.364 3.87-2.343 1.304.005 2.608 0 3.914.003 0 7.096.109 7.222-.328 7.837-.391.555-.237.377-8.818 5.303-1.923 1.113-2.181.478-4.034-.466 1.784-3.454 3.603-6.888 5.396-10.334z"/></svg>