<svg id="Bold" enable-background="new 0 0 24 24" height="512" viewBox="0 0 24 24" width="512" xmlns="http://www.w3.org/2000/svg"><path d="m10.117 16.919c.064-.054.129-.11.189-.169-3.341 3.278-8.789 1.748-10.066-2.875v-.007c-1.713-6.29 5.51-11.068 10.064-6.668.095.101 6.386 6.81 5.986 6.383h.018c.939.968 2.297.862 3.105.016.869-.908.9-2.39.047-3.313-1.347-1.551-3.992-.392-3.739 1.907l-1.514-1.542-1.756-1.679c.362-.719.837-1.348 1.432-1.892-.064.055-.129.112-.189.169 3.354-3.29 8.798-1.724 10.066 2.879v.006c1.717 6.289-5.514 11.067-10.064 6.667-.093-.1-6.38-6.851-5.982-6.423l-.004-.015c-.016 0-.016-.015-.016-.015-.986-1.017-2.323-.864-3.105-.031-.87.908-.9 2.39-.045 3.299 1.288 1.515 3.99.392 3.736-1.953.098.101 3.489 3.582 3.273 3.361-.549 1.095-1.163 1.598-1.436 1.895z"/></svg>