<svg id="Bold" enable-background="new 0 0 24 24" height="512" viewBox="0 0 24 24" width="512" xmlns="http://www.w3.org/2000/svg"><path d="m9.351 3.182c.077-.201.13-.322.171-.447 1.221-3.794 6.69-3.634 7.517.432.213 1.046-.054 1.742-.493 3.213-.068.227-.021.348.231.418.789.22 1.365.719 1.734 1.443.121.236.266.314.529.31 1.664-.028 2.924.978 3.268 2.589.265 1.238-.178 2.272-.722 4.147-.623 2.146-1.697 2.007-1.888 2.575-2.543 7.588-12.689 8.031-16.348 1.967-1.417-2.349-1.176-4.287-1.177-7.211 0-.881.262-1.677.81-2.365.29-.364.251-.121-1.221-5.308-.615-2.165.741-4.413 2.95-4.866 1.882-.387 3.794.7 4.454 2.568.053.149.104.299.185.535zm1.892 12.17c.154.509.508.668.436 2.398-.033.796-1.137.793-1.172-.004-.01-.226.003-.452-.008-.678-.045-.916-.592-1.59-1.435-1.746-.22-.041-.451-.015-.675-.035-.754-.066-.8-1.091-.022-1.178.296-.033 2.194-.01 3.614-.055 1.722-.054 1.667-2.734.032-2.76-2.012-.032-4.024-.045-6.035-.021-.944.011-1.387.529-1.394 1.489-.007.947-.02 1.894.003 2.841.094 3.898 3.974 7.195 8.956 5.542 1.949-.646 3.241-2.013 3.831-4.01.09-.304.081-.511-.262-.627-.512-.174-.499-.683-.976-.238-1.225 1.143-3.115.871-3.935-.549-.275-.473-.376-.514-.958-.369zm-7.216-11.468c.205 1.08-.236-.754 1.581 5.783.079.284.205.395.514.393 4.744-.036 5.935-.05 6.447.1.281.082.394.023.474-.266 1.554-5.605 1.696-5.698 1.627-6.193-.1-.723-.584-1.203-1.225-1.262-1.486-.137-1.655 1.137-2.026 2.404-.347 1.187-.687 2.377-1.043 3.561-.186.619-.638.917-1.211.813-.501-.091-.724-.456-.855-.907-1.346-4.647-1.388-4.83-1.568-5.15-.327-.582-1.009-.86-1.633-.692-.644.172-1.056.723-1.082 1.416zm10.371 5.815c-.154.4-.263.818-.37 1.233-.026.1.006.241.063.331.776 1.241.231 2.805-.72 3.489-.57.41.826 1.539 1.776.745.206-.172.412-.412.487-.66.448-1.48.885-2.964 1.271-4.461.394-1.523-1.911-2.227-2.507-.677zm4.712 1.224c-.543-.098-1.133.284-1.325.897-.234.747-.447 1.502-.65 2.258-.398 1.482 1.811 2.272 2.34.545.217-.708.412-1.422.612-2.135.177-.628-.143-1.415-.977-1.565z"/></svg>