<svg id="Bold" enable-background="new 0 0 24 24" height="512" viewBox="0 0 24 24" width="512" xmlns="http://www.w3.org/2000/svg"><path d="m13.471 3.086c.371.056.764.081 1.089.286 1.682.854 1.729 3.628 1.415 5.497 1.332-1.865 4.845-5.905 7.017-5.126.462.143.879.524.963 1.014.306 1.278-.749 2.088-2.713 5.291-3.24 5.286-3.464 8.568-6.556 8.704-1.502.07-3.175-1.317-3.412-3.674-.118-.839-.125-1.69-.058-2.533-2.518 4.116-3.141 9.135-7.4 8.289-3.948-1.07-4.269-9.22-3.54-13.182.083-.663.317-1.43.714-2.249 1.059-2.049 3.513-2.062 4.559-.846 1.073 1.248.76 3.81.595 5.487 1.383-2.408 4.557-7.19 7.327-6.958z"/></svg>