<svg id="Bold" enable-background="new 0 0 24 24" height="512" viewBox="0 0 24 24" width="512" xmlns="http://www.w3.org/2000/svg"><path d="m5.032 19.625c-.571 1.742.8 3.524 2.611 3.366 1.285-.113 2.257-1.181 2.307-2.453.152-2.941-4.002-3.734-4.918-.913zm3.132.779c0 .459-.318.833-.708.833-.512 0-.829-.613-.666-1.111.259-.858 1.339-.665 1.374.244z"/><path d="m18.445 19.511c-.39-1.04-1.427-1.74-2.575-1.638-1.43.125-2.432 1.427-2.299 2.779.12 1.411 1.343 2.459 2.731 2.337 1.672-.145 2.747-1.881 2.143-3.478zm-2.329 1.726c-.944 0-.94-1.663 0-1.663.934 0 .935 1.663 0 1.663z"/><path d="m6.617 3.462c-5.751 4.623-1.826 10.652-5.358 10.652-1.041 0-1.627 1.209-1.006 2.048 1.108 1.495 2.506 2.488 4.002 3.148 1.263-3.713 6.716-2.638 6.529 1.259.355.009 1.593.01 1.949.009-.087-1.962 1.437-3.565 3.359-3.565 1.345 0 2.572.837 3.091 2.092 1.927-1.161 3.608-3.031 4.325-5.244 3.082-9.488-8.741-16.94-16.891-10.399zm9.373 3.771c.669 0 1.209.55 1.209 1.23 0 .677-.541 1.227-1.209 1.227-.666 0-1.209-.55-1.209-1.227 0-.681.543-1.23 1.209-1.23zm-5.77.192c.666 0 1.209.55 1.209 1.227 0 .68-.543 1.23-1.209 1.23s-1.209-.55-1.209-1.23c0-.677.543-1.227 1.209-1.227zm7.306 4.732c-.371 1.584-2.001 3.021-4.277 3.082-1.968.133-4.161-1.368-4.386-3.369-.1-.84 1.154-.986 1.248-.147.153 1.363 1.755 2.275 3.104 2.238 1.716-.045 2.85-1.091 3.084-2.099.081-.343.418-.555.758-.476.338.082.547.425.469.771z"/></svg>