<svg id="Bold" enable-background="new 0 0 24 24" height="512" viewBox="0 0 24 24" width="512" xmlns="http://www.w3.org/2000/svg"><path d="m12 19.5c3.621 0 6.651-2.581 7.349-6h-14.697c.697 3.419 3.728 6 7.348 6z"/><path d="m12 0c-6.627 0-12 5.373-12 12s5.373 12 12 12 12-5.373 12-12-5.373-12-12-12zm3.75 5.25c.828 0 1.5.672 1.5 1.5s-.672 1.5-1.5 1.5-1.5-.672-1.5-1.5.672-1.5 1.5-1.5zm-7.5 0c.828 0 1.5.672 1.5 1.5s-.672 1.5-1.5 1.5-1.5-.672-1.5-1.5.672-1.5 1.5-1.5zm12.75 6.75c0 4.964-4.036 9-9 9-4.963 0-9-4.036-9-9v-1.5h18z"/></svg>