<svg xmlns="http://www.w3.org/2000/svg" width="50" height="50" viewBox="0 0 50 50"><g transform="translate(0.3)"><rect width="48" height="48" transform="translate(0.7 1)" fill="#d9d9d9" stroke="#bfbfbf" stroke-miterlimit="10" stroke-width="2"/><path d="M2.851.089a2.45,2.45,0,0,1-.805-.153,1.921,1.921,0,0,1-.735-.5A2.526,2.526,0,0,1,.777-1.51a4.8,4.8,0,0,1-.2-1.507,4.759,4.759,0,0,1,.636-2.677,2,2,0,0,1,1.742-.941,2.128,2.128,0,0,1,.98.219,1.882,1.882,0,0,1,.7.609,2.125,2.125,0,0,1,.352.9h-.78a1.446,1.446,0,0,0-.422-.732,1.172,1.172,0,0,0-.831-.291,1.362,1.362,0,0,0-1.2.662,3.374,3.374,0,0,0-.439,1.857h.051a1.94,1.94,0,0,1,.687-.638,1.875,1.875,0,0,1,.924-.232A1.964,1.964,0,0,1,4.008-4a2.093,2.093,0,0,1,.748.77,2.218,2.218,0,0,1,.281,1.123A2.3,2.3,0,0,1,4.765-1,2.058,2.058,0,0,1,4-.2,2.148,2.148,0,0,1,2.851.089Zm0-.7a1.335,1.335,0,0,0,.724-.2,1.457,1.457,0,0,0,.508-.54,1.535,1.535,0,0,0,.187-.754,1.53,1.53,0,0,0-.181-.74,1.409,1.409,0,0,0-.5-.532,1.318,1.318,0,0,0-.718-.2,1.333,1.333,0,0,0-.732.208,1.538,1.538,0,0,0-.518.545,1.478,1.478,0,0,0-.195.73,1.5,1.5,0,0,0,.184.729,1.482,1.482,0,0,0,.5.547A1.315,1.315,0,0,0,2.851-.614Zm4-.224a.554.554,0,0,1-.406-.169.554.554,0,0,1-.169-.406.554.554,0,0,1,.169-.406.554.554,0,0,1,.406-.169.554.554,0,0,1,.406.169.554.554,0,0,1,.169.406.554.554,0,0,1-.169.406A.554.554,0,0,1,6.852-.837Zm0-3.311a.554.554,0,0,1-.406-.169.554.554,0,0,1-.169-.406.554.554,0,0,1,.169-.406A.554.554,0,0,1,6.852-5.3a.554.554,0,0,1,.406.169.554.554,0,0,1,.169.406.554.554,0,0,1-.169.406A.554.554,0,0,1,6.852-4.148Zm4.219-2.4V0h-.793V-5.714H10.24l-1.6,1.061v-.805l1.636-1.087Z" transform="translate(18.39 46)" fill="#616161"/><rect width="24" height="4" rx="2" transform="translate(12.7 23)" fill="#666"/></g></svg>