<svg xmlns="http://www.w3.org/2000/svg" width="50" height="50" viewBox="0 0 50 50"><rect width="48" height="48" transform="translate(1 1)" fill="#d9d9d9" stroke="#bfbfbf" stroke-miterlimit="10" stroke-width="2"/><path d="M2.979-6.545V0H2.186V-5.714H2.148L.55-4.653v-.805L2.186-6.545ZM5.42-.837a.554.554,0,0,1-.406-.169.554.554,0,0,1-.169-.406.554.554,0,0,1,.169-.406.554.554,0,0,1,.406-.169.554.554,0,0,1,.406.169A.554.554,0,0,1,6-1.413a.554.554,0,0,1-.169.406A.554.554,0,0,1,5.42-.837Zm0-3.311a.554.554,0,0,1-.406-.169.554.554,0,0,1-.169-.406.554.554,0,0,1,.169-.406A.554.554,0,0,1,5.42-5.3a.554.554,0,0,1,.406.169A.554.554,0,0,1,6-4.724a.554.554,0,0,1-.169.406A.554.554,0,0,1,5.42-4.148Zm4.219-2.4V0H8.847V-5.714H8.808L7.21-4.653v-.805L8.847-6.545Z" transform="translate(20.93 46)" fill="#616161"/><rect width="24" height="24" rx="2" transform="translate(13 10)" fill="#666"/></svg>