<svg xmlns="http://www.w3.org/2000/svg" width="48" height="48" viewBox="0 0 48 48"><g transform="translate(-1 -1)"><path d="M0 0h48v48H0z" transform="translate(1 1)" fill="#dee2e6"/><rect width="24" height="24" rx="2" transform="translate(13.5 5)" fill="none" stroke="#6c757d" stroke-miterlimit="10" stroke-width="2" stroke-dasharray="4 2"/><text transform="translate(19 46.7)" fill="#616161" font-size="10" font-family="ArialMT, Arial"><tspan x="0" y="0">Fill</tspan></text><path d="M23.7 25.4h2.6a.65.65.0 0 1 .65.66v5.42h2.82a.65.65.0 0 1 .46 1.11l-4.77 4.78a.64.64.0 0 1-.92.0l-4.77-4.78a.65.65.0 0 1 .46-1.11h2.82V26.06a.65.65.0 0 1 .65-.66z" transform="translate(0.421)" fill="#6c757d"/></g></svg>