<svg xmlns="http://www.w3.org/2000/svg" width="50" height="50" viewBox="0 0 50 50"><g transform="translate(0.45 0.07)"><g transform="translate(0.55 0.93)"><rect width="48" height="48" fill="#d9d9d9" stroke="#bfbfbf" stroke-miterlimit="10" stroke-width="2"/><rect width="18" height="24" rx="2" transform="translate(14.7 12)" fill="#666"/></g><path d="M2.889.089A2.771,2.771,0,0,1,1.763-.128,1.913,1.913,0,0,1,.98-.733a1.609,1.609,0,0,1-.315-.9H1.47a.953.953,0,0,0,.436.748,1.674,1.674,0,0,0,.97.275A1.624,1.624,0,0,0,3.914-.935a1.021,1.021,0,0,0,.407-.842,1.109,1.109,0,0,0-.4-.885A1.717,1.717,0,0,0,2.774-3H2.25v-.7h.524a1.422,1.422,0,0,0,.949-.31,1.028,1.028,0,0,0,.368-.828,1.041,1.041,0,0,0-.323-.8,1.217,1.217,0,0,0-.866-.3,1.658,1.658,0,0,0-.638.123,1.208,1.208,0,0,0-.487.355.931.931,0,0,0-.2.558H.805a1.566,1.566,0,0,1,.31-.9,1.955,1.955,0,0,1,.762-.606,2.447,2.447,0,0,1,1.037-.217,2.093,2.093,0,0,1,1.042.244,1.743,1.743,0,0,1,.668.644,1.682,1.682,0,0,1,.233.863,1.538,1.538,0,0,1-.289.943,1.482,1.482,0,0,1-.785.54v.051a1.523,1.523,0,0,1,.968.526A1.593,1.593,0,0,1,5.1-1.777a1.658,1.658,0,0,1-.289.957,1.983,1.983,0,0,1-.788.666A2.558,2.558,0,0,1,2.889.089ZM6.967-.837a.554.554,0,0,1-.406-.169.554.554,0,0,1-.169-.406.554.554,0,0,1,.169-.406.554.554,0,0,1,.406-.169.554.554,0,0,1,.406.169.554.554,0,0,1,.169.406.554.554,0,0,1-.169.406A.554.554,0,0,1,6.967-.837Zm0-3.311a.554.554,0,0,1-.406-.169.554.554,0,0,1-.169-.406.554.554,0,0,1,.169-.406A.554.554,0,0,1,6.967-5.3a.554.554,0,0,1,.406.169.554.554,0,0,1,.169.406.554.554,0,0,1-.169.406A.554.554,0,0,1,6.967-4.148ZM8.732-1.342v-.652l2.876-4.551h.959v4.5h.895v.7h-.895V0h-.754V-1.342Zm3.081-.7v-3.49h-.051L9.588-2.1v.051Z" transform="translate(17.55 45.93)" fill="#616161"/></g></svg>