<svg xmlns="http://www.w3.org/2000/svg" width="50" height="50" viewBox="0 0 50 50"><g transform="translate(-0.27 0.07)"><rect width="48" height="48" transform="translate(1.27 0.93)" fill="#d9d9d9" stroke="#bfbfbf" stroke-miterlimit="10" stroke-width="2"/><rect width="13.5" height="24" rx="2" transform="translate(18.52 12.93)" fill="#666"/><path d="M4.9-3.921a6.974,6.974,0,0,1-.19,1.711A3.818,3.818,0,0,1,4.155-.94a2.464,2.464,0,0,1-.894.791,2.59,2.59,0,0,1-1.2.271A2.877,2.877,0,0,1,.84-.122V-.889a2.488,2.488,0,0,0,1.24.327,1.8,1.8,0,0,0,.847-.2,1.754,1.754,0,0,0,.632-.569,2.793,2.793,0,0,0,.4-.92A5.2,5.2,0,0,0,4.092-3.5h-.02a1.6,1.6,0,0,1-1.562.9,2.1,2.1,0,0,1-.825-.159,1.89,1.89,0,0,1-.649-.449A2.056,2.056,0,0,1,.61-3.9,2.481,2.481,0,0,1,.459-4.78a2.574,2.574,0,0,1,.168-.947,2.208,2.208,0,0,1,.469-.74,2.1,2.1,0,0,1,.713-.481,2.331,2.331,0,0,1,.9-.171,1.994,1.994,0,0,1,.935.212,1.874,1.874,0,0,1,.686.62,3.064,3.064,0,0,1,.425,1A5.729,5.729,0,0,1,4.9-3.921Zm-.864-.718a2.438,2.438,0,0,0-.1-.737,1.785,1.785,0,0,0-.291-.569A1.3,1.3,0,0,0,3.2-6.311a1.223,1.223,0,0,0-.559-.129,1.268,1.268,0,0,0-.537.115A1.291,1.291,0,0,0,1.672-6a1.539,1.539,0,0,0-.288.493,1.792,1.792,0,0,0-.1.623,2.048,2.048,0,0,0,.1.664,1.387,1.387,0,0,0,.286.5,1.233,1.233,0,0,0,.447.31,1.508,1.508,0,0,0,.579.107,1.326,1.326,0,0,0,.525-.1,1.39,1.39,0,0,0,.43-.283,1.3,1.3,0,0,0,.288-.42A1.291,1.291,0,0,0,4.038-4.639Zm2.441.615A.518.518,0,0,1,6.1-4.185a.53.53,0,0,1-.159-.386A.514.514,0,0,1,6.1-4.951a.526.526,0,0,1,.383-.156.54.54,0,0,1,.391.156.51.51,0,0,1,.161.381.526.526,0,0,1-.161.386A.532.532,0,0,1,6.479-4.023Zm0,4.131A.518.518,0,0,1,6.1-.054a.53.53,0,0,1-.159-.386A.539.539,0,0,1,6.1-.828a.515.515,0,0,1,.383-.164.528.528,0,0,1,.391.164.534.534,0,0,1,.161.388.526.526,0,0,1-.161.386A.532.532,0,0,1,6.479.107ZM11.094,0h-.8V-6.05a1.854,1.854,0,0,1-.271.212,4.417,4.417,0,0,1-.4.237q-.222.117-.469.22a3.407,3.407,0,0,1-.481.161V-6.03a4.655,4.655,0,0,0,.559-.2q.3-.125.581-.278t.54-.322a4.284,4.284,0,0,0,.439-.33h.3Zm6.846-2.222a2.594,2.594,0,0,1-.166.942,2.265,2.265,0,0,1-.459.742,2.05,2.05,0,0,1-.7.486,2.211,2.211,0,0,1-.879.173,2,2,0,0,1-.945-.22,2,2,0,0,1-.708-.632,3.033,3.033,0,0,1-.442-1.008,5.463,5.463,0,0,1-.151-1.343,6.31,6.31,0,0,1,.2-1.658,4.027,4.027,0,0,1,.576-1.274,2.656,2.656,0,0,1,.9-.818,2.414,2.414,0,0,1,1.177-.288,2.834,2.834,0,0,1,1.162.2v.757a2.468,2.468,0,0,0-1.143-.278,1.7,1.7,0,0,0-.845.21,1.94,1.94,0,0,0-.645.593,2.894,2.894,0,0,0-.413.925,4.7,4.7,0,0,0-.144,1.206h.02a1.681,1.681,0,0,1,1.6-.874,2.1,2.1,0,0,1,.828.156,1.787,1.787,0,0,1,.63.442,1.99,1.99,0,0,1,.4.681A2.593,2.593,0,0,1,17.939-2.222Zm-.82.1a2.179,2.179,0,0,0-.093-.659,1.43,1.43,0,0,0-.266-.5,1.147,1.147,0,0,0-.427-.315,1.438,1.438,0,0,0-.576-.11,1.349,1.349,0,0,0-.552.112,1.374,1.374,0,0,0-.439.305,1.414,1.414,0,0,0-.291.449,1.423,1.423,0,0,0-.1.544,2.172,2.172,0,0,0,.1.676,1.747,1.747,0,0,0,.288.549A1.37,1.37,0,0,0,15.2-.7a1.207,1.207,0,0,0,.569.134,1.3,1.3,0,0,0,.552-.115A1.231,1.231,0,0,0,16.748-1a1.481,1.481,0,0,0,.273-.491A1.945,1.945,0,0,0,17.119-2.119Z" transform="translate(15.27 45.93)" fill="#616161"/></g></svg>