<svg xmlns="http://www.w3.org/2000/svg" width="48" height="47.865" viewBox="0 0 48 47.865"><defs><style>.a{fill:#d9d9d9;}.b{fill:#616161;font-size:9px;font-family:Inter-Regular, Inter;}.c{fill:none;stroke:#666;stroke-miterlimit:10;stroke-width:2px;stroke-dasharray:4 2;}.d{fill:#666;}</style></defs><g transform="translate(-0.5 -1)"><rect class="a" width="48" height="47.865" transform="translate(0.5 1)"/><text class="b" transform="translate(18.486 46)"><tspan x="0" y="0">Fill</tspan></text><rect class="c" width="24" height="24" rx="2" transform="translate(12.98 5)"/><path class="d" d="M23.7,25.4h2.6a.65.65,0,0,1,.65.66v5.42h2.82a.65.65,0,0,1,.46,1.11l-4.77,4.78a.64.64,0,0,1-.92,0l-4.77-4.78a.65.65,0,0,1,.46-1.11h2.82V26.06a.65.65,0,0,1,.65-.66Z" transform="translate(-0.099)"/></g></svg>