<svg xmlns="http://www.w3.org/2000/svg" width="120" height="48" viewBox="0 0 120 48"><g transform="translate(-4 5)"><rect width="120" height="48" transform="translate(4 -5)" fill="#d9d9d9"/><path d="M-33.8,0h6.69c4.057,0,5.889-2.02,5.889-4.7a4.058,4.058,0,0,0-3.622-4.321v-.17a3.571,3.571,0,0,0,2.94-3.682c0-2.582-1.79-4.585-5.506-4.585H-33.8Zm2.633-2.258V-7.849h3.895a3.125,3.125,0,0,1,3.435,3.026c0,1.466-1,2.565-3.528,2.565Zm0-7.645v-5.31h3.6c2.088,0,3.085,1.1,3.085,2.548A2.857,2.857,0,0,1-27.639-9.9ZM-12.793.264c3.69,0,6.1-2.7,6.1-6.75,0-4.074-2.412-6.775-6.1-6.775s-6.1,2.7-6.1,6.775C-18.895-2.437-16.483.264-12.793.264Zm.009-2.139c-2.412,0-3.537-2.105-3.537-4.619s1.125-4.636,3.537-4.636c2.395,0,3.52,2.131,3.52,4.636S-10.389-1.875-12.784-1.875ZM-2.369-13.091h-2.8l4.023,6.545L-5.216,0h2.8L.52-4.892,3.469,0H6.255L2.139-6.545l4.082-6.545H3.435L.52-7.994ZM13.96.264c2.855,0,4.875-1.406,5.454-3.537L17-3.707a2.961,2.961,0,0,1-3.017,1.866c-2.182,0-3.648-1.415-3.716-3.937h9.307v-.9c0-4.73-2.83-6.579-5.8-6.579-3.648,0-6.051,2.778-6.051,6.8C7.73-2.395,10.1.264,13.96.264ZM10.278-7.687a3.516,3.516,0,0,1,3.52-3.469,3.233,3.233,0,0,1,3.281,3.469ZM27.315.256A4,4,0,0,0,31.1-2.037h.213V0H33.8V-17.454H31.253v6.486H31.1a3.945,3.945,0,0,0-3.767-2.293c-3.162,0-5.489,2.5-5.489,6.741S24.136.256,27.315.256Zm.562-2.173c-2.276,0-3.46-2-3.46-4.628,0-2.6,1.159-4.551,3.46-4.551C30.1-11.1,31.3-9.281,31.3-6.545,31.3-3.793,30.077-1.918,27.878-1.918Z" transform="translate(64 28)" fill="#666"/></g></svg>