<svg xmlns="http://www.w3.org/2000/svg" width="120" height="48" viewBox="0 0 120 48"><g transform="translate(-1 -1)"><rect width="120" height="48" transform="translate(1 1)" fill="#d9d9d9"/><path d="M-26.984-17.454V-6.187a3.954,3.954,0,0,1-4.3,4.074,3.959,3.959,0,0,1-4.3-4.074V-17.454h-2.633v11.48C-38.209-2.31-35.464.29-31.28.29s6.937-2.6,6.937-6.264v-11.48ZM-20.027,0h2.633V-6.136h3.579c4.048,0,6.051-2.446,6.051-5.668s-1.986-5.65-6.043-5.65h-6.221Zm2.633-8.369V-15.2h3.307c2.608,0,3.673,1.415,3.673,3.392s-1.065,3.435-3.639,3.435ZM-4.206,0h2.633V-6.136H2.007c4.048,0,6.051-2.446,6.051-5.668s-1.986-5.65-6.043-5.65H-4.206Zm2.633-8.369V-15.2H1.734c2.608,0,3.673,1.415,3.673,3.392S4.342-8.369,1.768-8.369ZM11.615,0H22.66V-2.267H14.248V-7.611h7.739V-9.869H14.248v-5.318h8.31v-2.267H11.615ZM26.567,0H29.2V-6.605h3.75L36.5,0h3L35.626-7.065a4.845,4.845,0,0,0,3.2-4.918c0-3.213-1.994-5.472-6.043-5.472H26.567ZM29.2-8.872V-15.2h3.307c2.6,0,3.673,1.236,3.673,3.213s-1.074,3.111-3.639,3.111Z" transform="translate(61 34)" fill="#666"/></g></svg>