<svg xmlns="http://www.w3.org/2000/svg" width="120" height="48" viewBox="0 0 120 48"><g transform="translate(-1 -1)"><rect width="120" height="48" transform="translate(1 1)" fill="#d9d9d9"/><path d="M-15.652-17.454H-18.2V0h2.548ZM-6.712.264c3.69,0,6.1-2.7,6.1-6.75,0-4.074-2.412-6.775-6.1-6.775s-6.1,2.7-6.1,6.775C-12.814-2.437-10.4.264-6.712.264ZM-6.7-1.875c-2.412,0-3.537-2.105-3.537-4.619s1.125-4.636,3.537-4.636c2.395,0,3.52,2.131,3.52,4.636S-4.308-1.875-6.7-1.875ZM4.666,0H7.257L9.916-9.452h.2L12.771,0h2.6l3.844-13.091H16.581L14.032-3.52H13.9l-2.557-9.571H8.714L6.141-3.477H6.013L3.447-13.091H.814Z" transform="translate(61 34)" fill="#666"/></g></svg>