<svg xmlns="http://www.w3.org/2000/svg" width="120" height="48" viewBox="0 0 120 48"><g transform="translate(0 6)"><rect width="120" height="48" rx="4" transform="translate(0 -6)" fill="#d9d9d9"/><path d="M-49.334,0H-46.7V-6.605h3.75L-39.405,0h3l-3.869-7.065a4.845,4.845,0,0,0,3.2-4.918c0-3.213-1.994-5.472-6.043-5.472h-6.221ZM-46.7-8.872V-15.2h3.307c2.6,0,3.673,1.236,3.673,3.213s-1.074,3.111-3.639,3.111ZM-28.709.264c3.69,0,6.1-2.7,6.1-6.75,0-4.074-2.412-6.775-6.1-6.775s-6.1,2.7-6.1,6.775C-34.811-2.437-32.4.264-28.709.264Zm.009-2.139c-2.412,0-3.537-2.105-3.537-4.619s1.125-4.636,3.537-4.636c2.395,0,3.52,2.131,3.52,4.636S-26.306-1.875-28.7-1.875Zm17.224-3.554a3.084,3.084,0,0,1-3.077,3.281A2.647,2.647,0,0,1-17.22-5.071v-8.02h-2.548v8.327c0,3.247,1.781,4.935,4.3,4.935a4.056,4.056,0,0,0,3.912-2.437h.136V0h2.506V-13.091h-2.557Zm8.523-2.344A2.965,2.965,0,0,1,.1-11.054c1.73,0,2.778,1.134,2.778,3.034V0H5.425V-8.327c0-3.239-1.781-4.935-4.457-4.935a3.9,3.9,0,0,0-3.861,2.3h-.162v-2.131H-5.5V0h2.548ZM13.734.256a4,4,0,0,0,3.784-2.293h.213V0H20.22V-17.454H17.672v6.486h-.153a3.945,3.945,0,0,0-3.767-2.293c-3.162,0-5.489,2.5-5.489,6.741S10.555.256,13.734.256ZM14.3-1.918c-2.276,0-3.46-2-3.46-4.628,0-2.6,1.159-4.551,3.46-4.551,2.224,0,3.418,1.815,3.418,4.551C17.714-3.793,16.5-1.918,14.3-1.918ZM29.493.264c2.855,0,4.875-1.406,5.454-3.537l-2.412-.435a2.961,2.961,0,0,1-3.017,1.866c-2.182,0-3.648-1.415-3.716-3.937h9.307v-.9c0-4.73-2.83-6.579-5.8-6.579-3.648,0-6.051,2.778-6.051,6.8C23.263-2.395,25.632.264,29.493.264ZM25.811-7.687a3.516,3.516,0,0,1,3.52-3.469,3.233,3.233,0,0,1,3.281,3.469ZM42.848.256a4,4,0,0,0,3.784-2.293h.213V0h2.489V-17.454H46.785v6.486h-.153a3.945,3.945,0,0,0-3.767-2.293c-3.162,0-5.489,2.5-5.489,6.741S39.669.256,42.848.256Zm.562-2.173c-2.276,0-3.46-2-3.46-4.628,0-2.6,1.159-4.551,3.46-4.551,2.224,0,3.418,1.815,3.418,4.551C46.828-3.793,45.609-1.918,43.41-1.918Z" transform="translate(60 27)" fill="#666"/></g></svg>