<svg xmlns="http://www.w3.org/2000/svg" width="120" height="48" viewBox="0 0 120 48"><g transform="translate(-1 -1)"><rect width="120" height="48" transform="translate(1 1)" fill="#d9d9d9"/><path d="M-41.757,0h2.633V-6.605h3.75L-31.828,0h3L-32.7-7.065a4.845,4.845,0,0,0,3.2-4.918c0-3.213-1.994-5.472-6.043-5.472h-6.221Zm2.633-8.872V-15.2h3.307c2.6,0,3.673,1.236,3.673,3.213s-1.074,3.111-3.639,3.111ZM-21,.264c2.855,0,4.875-1.406,5.454-3.537l-2.412-.435a2.961,2.961,0,0,1-3.017,1.866c-2.182,0-3.648-1.415-3.716-3.937h9.307v-.9c0-4.73-2.83-6.579-5.8-6.579-3.648,0-6.051,2.778-6.051,6.8C-27.234-2.395-24.865.264-21,.264Zm-3.682-7.952a3.516,3.516,0,0,1,3.52-3.469,3.233,3.233,0,0,1,3.281,3.469ZM-7.061,5.182c3.332,0,5.906-1.526,5.906-4.892v-13.38h-2.5v2.122H-3.84a3.979,3.979,0,0,0-3.793-2.293c-3.162,0-5.489,2.5-5.489,6.665S-10.743-.2-7.649-.2a3.941,3.941,0,0,0,3.793-2.19h.162V.187c0,2.054-1.406,2.94-3.341,2.94a3.554,3.554,0,0,1-3.4-1.815l-2.19.9C-11.936,3.818-10.189,5.182-7.061,5.182ZM-7.087-2.31c-2.276,0-3.46-1.747-3.46-4.321,0-2.514,1.159-4.466,3.46-4.466,2.224,0,3.418,1.815,3.418,4.466C-3.669-3.929-4.888-2.31-7.087-2.31ZM10.555-5.429A3.084,3.084,0,0,1,7.479-2.148,2.647,2.647,0,0,1,4.811-5.071v-8.02H2.263v8.327C2.263-1.517,4.044.17,6.558.17A4.056,4.056,0,0,0,10.47-2.267h.136V0h2.506V-13.091H10.555Zm8.523-12.025H16.53V0h2.548ZM26.314.29a4.091,4.091,0,0,0,3.869-2.08h.1V0h2.489V-8.693c0-3.81-3-4.568-5.079-4.568-2.369,0-4.551.955-5.4,3.341l2.395.545A3.057,3.057,0,0,1,27.729-11.2a2.177,2.177,0,0,1,2.489,2.344v.06c0,.929-.955.912-3.307,1.185-2.48.29-5.02.937-5.02,3.912C21.891-1.125,23.825.29,26.314.29Zm.554-2.045c-1.44,0-2.48-.648-2.48-1.909,0-1.364,1.21-1.849,2.685-2.045.827-.111,2.787-.332,3.153-.7v1.687A3.071,3.071,0,0,1,26.868-1.756ZM36.166,0h2.548V-7.994a2.943,2.943,0,0,1,3.128-2.949,6.021,6.021,0,0,1,1.33.153v-2.437a10.35,10.35,0,0,0-1.082-.06,3.407,3.407,0,0,0-3.324,2.276h-.136v-2.08H36.166Z" transform="translate(61 34)" fill="#666"/></g></svg>