<svg xmlns="http://www.w3.org/2000/svg" width="120" height="48" viewBox="0 0 120 48"><g transform="translate(0 6)"><rect width="120" height="48" rx="24" transform="translate(0 -6)" fill="#d9d9d9"/><path d="M-14.715,0h2.633V-6.136H-8.5c4.048,0,6.051-2.446,6.051-5.668s-1.986-5.65-6.043-5.65h-6.221Zm2.633-8.369V-15.2h3.307C-6.166-15.2-5.1-13.781-5.1-11.8S-6.166-8.369-8.74-8.369ZM.422,0H2.97V-13.091H.422ZM1.709-15.111A1.575,1.575,0,0,0,3.32-16.628a1.582,1.582,0,0,0-1.611-1.526A1.577,1.577,0,0,0,.1-16.628,1.57,1.57,0,0,0,1.709-15.111Zm7.236-2.344H6.4V0H8.945Zm5.974,0H12.371V0h2.548Z" transform="translate(60 27)" fill="#666"/></g></svg>