<svg xmlns="http://www.w3.org/2000/svg" width="80" height="48" viewBox="0 0 80 48"><g transform="translate(-1 -1)"><g transform="translate(1 1)" fill="#d9d9d9" stroke="#9e9e9e" stroke-miterlimit="10" stroke-width="2"><rect width="80" height="48" stroke="none"/><rect x="1" y="1" width="78" height="46" fill="none"/></g><path d="M-21.682,0l1.6-4.619h6.818L-11.668,0h2.8l-6.281-17.454H-18.2L-24.477,0Zm2.369-6.835,2.574-7.449h.136l2.574,7.449ZM-6.358,0H.332C4.389,0,6.221-2.02,6.221-4.7A4.058,4.058,0,0,0,2.6-9.017v-.17a3.571,3.571,0,0,0,2.94-3.682c0-2.582-1.79-4.585-5.506-4.585H-6.358Zm2.633-2.258V-7.849H.17A3.125,3.125,0,0,1,3.6-4.824c0,1.466-1,2.565-3.528,2.565Zm0-7.645v-5.31h3.6c2.088,0,3.085,1.1,3.085,2.548A2.857,2.857,0,0,1-.2-9.9Zm27.562-1.875a6.889,6.889,0,0,0-7.21-5.915c-4.517,0-7.849,3.383-7.849,8.966S12.094.239,16.628.239a6.955,6.955,0,0,0,7.21-5.855l-2.659-.009a4.35,4.35,0,0,1-4.534,3.46c-2.991,0-5.25-2.293-5.25-6.562,0-4.236,2.25-6.562,5.258-6.562a4.336,4.336,0,0,1,4.525,3.511Z" transform="translate(41 34)" fill="#666"/></g></svg>