<svg xmlns="http://www.w3.org/2000/svg" width="80" height="48" viewBox="0 0 80 48"><g transform="translate(-0.682 -1)"><g transform="translate(0.682 1)" fill="#d9d9d9" stroke="#9e9e9e" stroke-miterlimit="10" stroke-width="2"><rect width="80" height="48" stroke="none"/><rect x="1" y="1" width="78" height="46" fill="none"/></g><path d="M-19.33,0l1.6-4.619h6.818L-9.316,0h2.8L-12.8-17.454h-3.043L-22.125,0Zm2.369-6.835,2.574-7.449h.136l2.574,7.449ZM-4.006,0h2.489V-2.037H-1.3A4,4,0,0,0,2.48.256c3.17,0,5.472-2.54,5.472-6.775s-2.335-6.741-5.5-6.741A3.931,3.931,0,0,0-1.3-10.969h-.153v-6.486H-4.006Zm2.5-6.545c0-2.736,1.193-4.551,3.418-4.551,2.31,0,3.469,1.952,3.469,4.551,0,2.625-1.193,4.628-3.469,4.628C-.281-1.918-1.509-3.793-1.509-6.545ZM16.321.264c3.094,0,5.1-1.858,5.378-4.406h-2.48a2.8,2.8,0,0,1-2.881,2.25c-2.156,0-3.545-1.8-3.545-4.653,0-2.8,1.415-4.568,3.545-4.568a2.809,2.809,0,0,1,2.881,2.25H21.7c-.273-2.642-2.429-4.4-5.4-4.4-3.69,0-6.077,2.778-6.077,6.775C10.219-2.54,12.52.264,16.321.264Z" transform="translate(40.682 34)" fill="#666"/></g></svg>