<svg xmlns="http://www.w3.org/2000/svg" width="80" height="48" viewBox="0 0 80 48"><g transform="translate(-1 -1)"><g transform="translate(1 1)" fill="#d9d9d9" stroke="#9e9e9e" stroke-miterlimit="10" stroke-width="2"><rect width="80" height="48" stroke="none"/><rect x="1" y="1" width="78" height="46" fill="none"/></g><path d="M-15.631.29a4.091,4.091,0,0,0,3.869-2.08h.1V0h2.489V-8.693c0-3.81-3-4.568-5.079-4.568-2.369,0-4.551.955-5.4,3.341l2.395.545A3.057,3.057,0,0,1-14.216-11.2a2.177,2.177,0,0,1,2.489,2.344v.06c0,.929-.955.912-3.307,1.185-2.48.29-5.02.937-5.02,3.912C-20.054-1.125-18.119.29-15.631.29Zm.554-2.045c-1.44,0-2.48-.648-2.48-1.909,0-1.364,1.21-1.849,2.685-2.045.827-.111,2.787-.332,3.153-.7v1.687A3.071,3.071,0,0,1-15.077-1.756ZM-5.574,0h2.489V-2.037h.213A4,4,0,0,0,.912.256c3.17,0,5.472-2.54,5.472-6.775s-2.335-6.741-5.5-6.741a3.931,3.931,0,0,0-3.758,2.293h-.153v-6.486H-5.574Zm2.5-6.545c0-2.736,1.193-4.551,3.418-4.551,2.31,0,3.469,1.952,3.469,4.551,0,2.625-1.193,4.628-3.469,4.628C-1.85-1.918-3.077-3.793-3.077-6.545ZM14.753.264c3.094,0,5.1-1.858,5.378-4.406H17.65a2.8,2.8,0,0,1-2.881,2.25c-2.156,0-3.545-1.8-3.545-4.653,0-2.8,1.415-4.568,3.545-4.568a2.809,2.809,0,0,1,2.881,2.25h2.48c-.273-2.642-2.429-4.4-5.4-4.4-3.69,0-6.077,2.778-6.077,6.775C8.651-2.54,10.952.264,14.753.264Z" transform="translate(41 34)" fill="#666"/></g></svg>