<svg xmlns="http://www.w3.org/2000/svg" width="210" height="80" viewBox="0 0 210 80"><g fill="#d9d9d9" stroke="#bfbfbf" stroke-width="2"><rect width="210" height="80" stroke="none"/><rect x="1" y="1" width="208" height="78" fill="none"/></g><path d="M2.114-30.375H12.988V0h5.25V-30.375H29.13v-4.534H2.114ZM34.67,0h5.1V-26.181h-5.1Zm2.574-30.221a3.151,3.151,0,0,0,3.222-3.034,3.165,3.165,0,0,0-3.222-3.051,3.154,3.154,0,0,0-3.222,3.051A3.14,3.14,0,0,0,37.244-30.221Zm21.6,4.04H53.471v-6.273h-5.1v6.273H44.54v4.091h3.835v15.46C48.358-1.875,51.989.426,56.011.341A9.758,9.758,0,0,0,59.318-.2l-.92-4.21a8.287,8.287,0,0,1-1.79.222c-1.653,0-3.136-.545-3.136-3.494v-14.4h5.369Zm11.267-8.727h-5.1V0h5.1ZM88.244.528c5.71,0,9.75-2.812,10.909-7.074l-4.824-.869c-.92,2.472-3.136,3.733-6.034,3.733-4.364,0-7.3-2.83-7.432-7.875H99.477v-1.807c0-9.46-5.659-13.159-11.591-13.159-7.3,0-12.1,5.557-12.1,13.6C75.784-4.79,80.523.528,88.244.528Zm-7.364-15.9a7.032,7.032,0,0,1,7.04-6.937c3.954,0,6.545,2.932,6.562,6.937Zm36.188,8.557h16.551V0h5.028V-6.818h4.619v-4.466h-4.619V-34.909h-6.494L117.068-11.079Zm16.585-4.466H122.591v-.273l10.79-17.079h.273Z" transform="translate(10 58)" fill="#666"/></svg>