<svg xmlns="http://www.w3.org/2000/svg" width="142" height="75" viewBox="0 0 142 75"><rect width="142" height="75" fill="#d9d9d9"/><path d="M3.509,14.619V11.636H29.876v2.983H18.353V48h-3.32V14.619ZM36.712,48V20.727h3.178V48Zm1.616-31.96a2.305,2.305,0,0,1-1.669-.675,2.2,2.2,0,0,1,0-3.2,2.321,2.321,0,0,1,1.669-.666,2.352,2.352,0,0,1,1.678.666,2.181,2.181,0,0,1,0,3.2A2.335,2.335,0,0,1,38.328,16.04Zm20.685,4.688v2.752H53.243v17.4q0,2.575,1.252,3.507a4.675,4.675,0,0,0,2.868.932,6.111,6.111,0,0,0,1.065-.08q.444-.08.781-.169l.675,2.859a7.39,7.39,0,0,1-1.127.328,7.927,7.927,0,0,1-1.678.151,7.767,7.767,0,0,1-3.356-.763,6.3,6.3,0,0,1-3.658-6.019V23.479H46V20.727h4.066V14.193h3.178v6.534Zm10.9-9.091V48H66.755V11.636ZM89.287,48.568a11.986,11.986,0,0,1-6.605-1.784,11.769,11.769,0,0,1-4.306-4.954,16.723,16.723,0,0,1-1.518-7.306,16.9,16.9,0,0,1,1.518-7.333,12.243,12.243,0,0,1,4.208-5.016,10.841,10.841,0,0,1,6.223-1.82,11.47,11.47,0,0,1,5.6,1.447A10.935,10.935,0,0,1,98.7,26.214a15.345,15.345,0,0,1,1.651,7.528V35.3H80.036a11.417,11.417,0,0,0,2.592,7.546,8.428,8.428,0,0,0,6.658,2.823,7.98,7.98,0,0,0,4.759-1.323A7.5,7.5,0,0,0,96.673,41.2l3,.977a9.459,9.459,0,0,1-3.6,4.483A11.41,11.41,0,0,1,89.287,48.568ZM80.054,32.517H97.117a10.4,10.4,0,0,0-1.056-4.732,8.385,8.385,0,0,0-2.93-3.329,8.266,8.266,0,0,0-8.718.036,9.165,9.165,0,0,0-3.045,3.374A11.377,11.377,0,0,0,80.054,32.517Z" transform="translate(10 12)" fill="#666"/></svg>