<svg xmlns="http://www.w3.org/2000/svg" width="210" height="80" viewBox="0 0 210 80"><g fill="#d9d9d9" stroke="#bfbfbf" stroke-width="2"><rect width="210" height="80" stroke="none"/><rect x="1" y="1" width="208" height="78" fill="none"/></g><path d="M2.29-32.906H14.071V0h5.687V-32.906h11.8v-4.912H2.29ZM37.56,0h5.521V-28.363H37.56Zm2.788-32.74a3.413,3.413,0,0,0,3.49-3.287,3.428,3.428,0,0,0-3.49-3.305,3.416,3.416,0,0,0-3.49,3.305A3.4,3.4,0,0,0,40.348-32.74Zm23.4,4.376H57.927v-6.8H52.406v6.8H48.251v4.432h4.155V-7.183C52.388-2.031,56.321.462,60.679.369a10.571,10.571,0,0,0,3.582-.591l-1-4.561a8.978,8.978,0,0,1-1.939.24c-1.791,0-3.4-.591-3.4-3.785v-15.6h5.817ZM75.95-37.818H70.429V0H75.95ZM95.6.572c6.186,0,10.562-3.047,11.818-7.663l-5.226-.942c-1,2.678-3.4,4.044-6.537,4.044-4.727,0-7.9-3.065-8.051-8.531h20.164v-1.957c0-10.248-6.131-14.255-12.557-14.255-7.9,0-13.111,6.02-13.111,14.736C82.1-5.189,87.233.572,95.6.572ZM87.621-16.656a7.618,7.618,0,0,1,7.626-7.516c4.284,0,7.091,3.176,7.109,7.516ZM140.784.517c7.719,0,13.388-4.616,13.369-10.895.018-4.783-2.881-8.217-7.9-8.993v-.3a8.269,8.269,0,0,0,6.5-8.365c.018-5.558-4.543-10.3-11.818-10.3-6.943,0-12.52,4.192-12.7,10.341h5.521c.129-3.472,3.4-5.577,7.109-5.577,3.859,0,6.389,2.345,6.371,5.835.018,3.656-2.918,6.057-7.109,6.057h-3.195v4.653h3.195c5.244,0,8.273,2.659,8.273,6.463,0,3.675-3.195,6.168-7.645,6.168-4.1,0-7.294-2.105-7.516-5.466h-5.8C127.673-3.693,133.139.517,140.784.517Z" transform="translate(10 59)" fill="#666"/></svg>