<svg xmlns="http://www.w3.org/2000/svg" width="210" height="80" viewBox="0 0 210 80"><g transform="translate(42 13)"><g transform="translate(-42 -13)" fill="#d9d9d9" stroke="#bfbfbf" stroke-width="2"><rect width="210" height="80" stroke="none"/><rect x="1" y="1" width="208" height="78" fill="none"/></g><path d="M2.642-37.968H16.236V0H22.8V-37.968H36.413v-5.668H2.642ZM43.338,0h6.371V-32.727H43.338Zm3.217-37.776a3.938,3.938,0,0,0,4.027-3.793,3.956,3.956,0,0,0-4.027-3.814,3.942,3.942,0,0,0-4.027,3.814A3.924,3.924,0,0,0,46.555-37.776Zm27,5.05H66.839v-7.841H60.469v7.841H55.675v5.114h4.794V-8.288C60.447-2.344,64.986.533,70.014.426a12.2,12.2,0,0,0,4.133-.682L73-5.518a10.359,10.359,0,0,1-2.237.277c-2.067,0-3.92-.682-3.92-4.368v-18h6.712ZM87.635-43.636H81.264V0h6.371Zm22.67,44.3c7.138,0,12.187-3.516,13.636-8.842l-6.03-1.087c-1.151,3.089-3.92,4.666-7.543,4.666-5.454,0-9.119-3.537-9.29-9.844h23.267V-16.7c0-11.825-7.074-16.449-14.488-16.449-9.119,0-15.128,6.946-15.128,17C94.73-5.987,100.653.661,110.305.661Zm-9.2-19.879c.256-4.645,3.622-8.672,8.8-8.672,4.943,0,8.182,3.665,8.2,8.672Zm62.706-24.417h-6.413l-10.888,7.116v6.307l10.44-6.818h.256V0h6.605Z" transform="translate(-32 49)" fill="#666"/></g></svg>