<svg xmlns="http://www.w3.org/2000/svg" width="142" height="75" viewBox="0 0 142 75"><g transform="translate(42 13)"><rect width="142" height="75" transform="translate(-42 -13)" fill="#d9d9d9"/><path d="M-58.189-40.057v-3.58h31.641v3.58H-40.376V0h-3.984V-40.057ZM-18.345,0V-32.727h3.814V0Zm1.939-38.352a2.766,2.766,0,0,1-2-.81,2.588,2.588,0,0,1-.831-1.918,2.578,2.578,0,0,1,.831-1.928,2.786,2.786,0,0,1,2-.8,2.822,2.822,0,0,1,2.013.8,2.563,2.563,0,0,1,.842,1.928,2.573,2.573,0,0,1-.842,1.918A2.8,2.8,0,0,1-16.406-38.352ZM8.416-32.727v3.3H1.491V-8.544q0,3.089,1.5,4.208A5.61,5.61,0,0,0,6.435-3.217a7.334,7.334,0,0,0,1.278-.1q.533-.1.938-.2l.81,3.43A8.868,8.868,0,0,1,8.107.309,9.512,9.512,0,0,1,6.094.49,9.32,9.32,0,0,1,2.067-.426,7.77,7.77,0,0,1-1.1-3.153a7.844,7.844,0,0,1-1.225-4.5V-29.425H-7.2v-3.3h4.879v-7.841H1.491v7.841ZM21.5-43.636V0H17.706V-43.636ZM44.744.682A14.384,14.384,0,0,1,36.818-1.46,14.123,14.123,0,0,1,31.651-7.4a20.068,20.068,0,0,1-1.822-8.768,20.278,20.278,0,0,1,1.822-8.8,14.692,14.692,0,0,1,5.05-6.019,13.009,13.009,0,0,1,7.468-2.184,13.764,13.764,0,0,1,6.722,1.737,13.122,13.122,0,0,1,5.146,5.295,18.414,18.414,0,0,1,1.982,9.034v1.875H33.643a13.7,13.7,0,0,0,3.111,9.055,10.114,10.114,0,0,0,7.99,3.388,9.576,9.576,0,0,0,5.71-1.587,9,9,0,0,0,3.153-3.782l3.6,1.172a11.351,11.351,0,0,1-4.325,5.38A13.692,13.692,0,0,1,44.744.682ZM33.665-18.58H54.141a12.478,12.478,0,0,0-1.268-5.678,10.062,10.062,0,0,0-3.516-4,9.264,9.264,0,0,0-5.188-1.47A9.349,9.349,0,0,0,38.9-28.21a11,11,0,0,0-3.654,4.048A13.653,13.653,0,0,0,33.665-18.58Z" transform="translate(29 47)" fill="#666"/></g></svg>