<svg xmlns="http://www.w3.org/2000/svg" width="142" height="75" viewBox="0 0 142 75"><rect width="142" height="75" fill="#d9d9d9"/><path d="M-33.944-23.366v-2.088h18.457v2.088h-8.066V0h-2.324V-23.366ZM-10.7,0V-19.091h2.225V0ZM-9.57-22.372a1.614,1.614,0,0,1-1.168-.472,1.51,1.51,0,0,1-.485-1.119,1.5,1.5,0,0,1,.485-1.125,1.625,1.625,0,0,1,1.168-.466,1.646,1.646,0,0,1,1.175.466A1.5,1.5,0,0,1-7.9-23.963,1.5,1.5,0,0,1-8.4-22.844,1.635,1.635,0,0,1-9.57-22.372Zm14.48,3.281v1.926H.87v12.18a2.9,2.9,0,0,0,.876,2.455,3.272,3.272,0,0,0,2.007.653A4.278,4.278,0,0,0,4.5-1.933q.311-.056.547-.118l.472,2a5.173,5.173,0,0,1-.789.23A5.549,5.549,0,0,1,3.555.286,5.437,5.437,0,0,1,1.206-.249,4.533,4.533,0,0,1-.64-1.839a4.575,4.575,0,0,1-.715-2.623v-12.7H-4.2v-1.926h2.846v-4.574H.87v4.574Zm7.631-6.364V0H10.328V-25.455ZM26.1.4A8.39,8.39,0,0,1,21.477-.851a8.239,8.239,0,0,1-3.014-3.468A11.706,11.706,0,0,1,17.4-9.434a11.829,11.829,0,0,1,1.063-5.133,8.57,8.57,0,0,1,2.946-3.511,7.588,7.588,0,0,1,4.356-1.274,8.029,8.029,0,0,1,3.921,1.013,7.655,7.655,0,0,1,3,3.089,10.741,10.741,0,0,1,1.156,5.27v1.094H19.625A7.992,7.992,0,0,0,21.44-3.6,5.9,5.9,0,0,0,26.1-1.628a5.586,5.586,0,0,0,3.331-.926A5.253,5.253,0,0,0,31.271-4.76l2.1.684A6.621,6.621,0,0,1,30.849-.938,7.987,7.987,0,0,1,26.1.4ZM19.638-10.838H31.582a7.279,7.279,0,0,0-.74-3.312,5.869,5.869,0,0,0-2.051-2.33,5.4,5.4,0,0,0-3.026-.858,5.454,5.454,0,0,0-3.076.882,6.416,6.416,0,0,0-2.132,2.362A7.964,7.964,0,0,0,19.638-10.838Z" transform="translate(46 60)" fill="#666"/></svg>