<svg xmlns="http://www.w3.org/2000/svg" width="142" height="75" viewBox="0 0 142 75"><rect width="142" height="75" fill="#d9d9d9"/><path d="M3.358,13.957V11.273h23.73v2.685H16.718V44H13.729V13.957ZM33.241,44V19.455H36.1V44ZM34.7,15.236a2.075,2.075,0,0,1-1.5-.607,1.98,1.98,0,0,1,0-2.884,2.089,2.089,0,0,1,1.5-.6,2.117,2.117,0,0,1,1.51.6,1.963,1.963,0,0,1,0,2.884A2.1,2.1,0,0,1,34.7,15.236Zm18.617,4.219v2.477H48.119V37.592q0,2.317,1.127,3.156a4.207,4.207,0,0,0,2.581.839,5.5,5.5,0,0,0,.959-.072q.4-.072.7-.152l.607,2.573a6.651,6.651,0,0,1-1.015.3,7.134,7.134,0,0,1-1.51.136,6.99,6.99,0,0,1-3.02-.687,5.669,5.669,0,0,1-3.292-5.417V21.931H41.6V19.455h3.659V13.574h2.86v5.881Zm9.812-8.182V44H60.279V11.273ZM80.558,44.511a10.788,10.788,0,0,1-5.945-1.606,10.592,10.592,0,0,1-3.875-4.458,15.051,15.051,0,0,1-1.366-6.576,15.209,15.209,0,0,1,1.366-6.6,11.019,11.019,0,0,1,3.787-4.514,9.756,9.756,0,0,1,5.6-1.638,10.323,10.323,0,0,1,5.042,1.3,9.842,9.842,0,0,1,3.859,3.971,13.81,13.81,0,0,1,1.486,6.776v1.406H72.233a10.275,10.275,0,0,0,2.333,6.792,7.585,7.585,0,0,0,5.993,2.541,7.182,7.182,0,0,0,4.283-1.191,6.754,6.754,0,0,0,2.365-2.836l2.7.879a8.513,8.513,0,0,1-3.244,4.035A10.269,10.269,0,0,1,80.558,44.511Zm-8.31-14.446H87.605a9.358,9.358,0,0,0-.951-4.259,7.546,7.546,0,0,0-2.637-3,7.439,7.439,0,0,0-7.846.032,8.249,8.249,0,0,0-2.741,3.036A10.24,10.24,0,0,0,72.249,30.065Z" transform="translate(9 16)" fill="#666"/></svg>