<svg xmlns="http://www.w3.org/2000/svg" width="142" height="75" viewBox="0 0 142 75"><rect width="142" height="75" fill="#d9d9d9"/><path d="M3.66,16.281V13h29v3.281H19.988V53H16.336V16.281ZM40.184,53V23h3.5V53Zm1.777-35.156a2.536,2.536,0,0,1-1.836-.742,2.42,2.42,0,0,1,0-3.525,2.553,2.553,0,0,1,1.836-.732,2.587,2.587,0,0,1,1.846.732,2.4,2.4,0,0,1,0,3.525A2.569,2.569,0,0,1,41.961,17.844ZM64.715,23v3.027H58.367V45.168q0,2.832,1.377,3.857A5.142,5.142,0,0,0,62.9,50.051a6.723,6.723,0,0,0,1.172-.088q.488-.088.859-.186l.742,3.145a8.129,8.129,0,0,1-1.24.361,8.719,8.719,0,0,1-1.846.166,8.544,8.544,0,0,1-3.691-.84,6.928,6.928,0,0,1-4.023-6.621V26.027H50.4V23h4.473V15.813h3.5V23ZM76.707,13V53H73.23V13ZM98.016,53.625a13.185,13.185,0,0,1-7.266-1.963,12.946,12.946,0,0,1-4.736-5.449,18.4,18.4,0,0,1-1.67-8.037,18.589,18.589,0,0,1,1.67-8.066,13.468,13.468,0,0,1,4.629-5.518,11.925,11.925,0,0,1,6.846-2,12.617,12.617,0,0,1,6.162,1.592,12.029,12.029,0,0,1,4.717,4.854,16.879,16.879,0,0,1,1.816,8.281v1.719H87.84a12.559,12.559,0,0,0,2.852,8.3,9.271,9.271,0,0,0,7.324,3.105,8.778,8.778,0,0,0,5.234-1.455,8.255,8.255,0,0,0,2.891-3.467l3.3,1.074a10.4,10.4,0,0,1-3.965,4.932A12.551,12.551,0,0,1,98.016,53.625ZM87.859,35.969h18.77a11.438,11.438,0,0,0-1.162-5.205,9.223,9.223,0,0,0-3.223-3.662,9.092,9.092,0,0,0-9.59.039,10.082,10.082,0,0,0-3.35,3.711A12.515,12.515,0,0,0,87.859,35.969Z" transform="translate(10 7)" fill="#666"/></svg>