<svg xmlns="http://www.w3.org/2000/svg" width="210" height="80" viewBox="0 0 210 80"><g fill="#d9d9d9" stroke="#bfbfbf" stroke-width="2"><rect width="210" height="80" stroke="none"/><rect x="1" y="1" width="208" height="78" fill="none"/></g><path d="M1.761-25.312h9.062V0H15.2V-25.312h9.077V-29.09H1.761ZM28.892,0h4.247V-21.818H28.892Zm2.145-25.184a2.625,2.625,0,0,0,2.685-2.528,2.637,2.637,0,0,0-2.685-2.543,2.628,2.628,0,0,0-2.685,2.543A2.616,2.616,0,0,0,31.037-25.184Zm18,3.366H44.56v-5.227H40.312v5.227h-3.2v3.409h3.2V-5.525C40.3-1.562,43.324.355,46.676.284A8.132,8.132,0,0,0,49.432-.17l-.767-3.508a6.906,6.906,0,0,1-1.491.185c-1.378,0-2.614-.455-2.614-2.912v-12h4.474Zm9.389-7.273H54.176V0h4.247ZM73.537.44C78.3.44,81.662-1.9,82.628-5.454l-4.02-.724c-.767,2.06-2.614,3.111-5.028,3.111-3.636,0-6.079-2.358-6.193-6.562H82.9v-1.506c0-7.883-4.716-10.966-9.659-10.966-6.079,0-10.085,4.631-10.085,11.335C63.153-3.991,67.1.44,73.537.44ZM67.4-12.812a5.86,5.86,0,0,1,5.866-5.781c3.3,0,5.454,2.443,5.469,5.781ZM108.324.4a9.592,9.592,0,0,0,10.1-9.9c.014-5.568-4.034-9.56-9.077-9.56a8.275,8.275,0,0,0-7.216,3.935h-.213c.014-6.605,2.514-10.525,6.775-10.525a5.062,5.062,0,0,1,5.156,4.119h4.332a9.139,9.139,0,0,0-9.488-7.954c-6.761,0-10.98,5.81-10.98,15.923C97.7-2.855,103.153.355,108.324.4ZM108.309-3.3A5.955,5.955,0,0,1,102.457-9.4a6.063,6.063,0,0,1,5.952-6.094,5.791,5.791,0,0,1,5.753,6.051A5.915,5.915,0,0,1,108.309-3.3Z" transform="translate(10 55)" fill="#666"/></svg>