<svg xmlns="http://www.w3.org/2000/svg" width="142" height="75" viewBox="0 0 142 75"><rect width="142" height="75" fill="#d9d9d9"/><path d="M-38.793-26.7v-2.386H-17.7V-26.7h-9.219V0h-2.656V-26.7ZM-12.23,0V-21.818h2.543V0Zm1.293-25.568a1.844,1.844,0,0,1-1.335-.54,1.726,1.726,0,0,1-.554-1.278,1.719,1.719,0,0,1,.554-1.286,1.857,1.857,0,0,1,1.335-.533,1.881,1.881,0,0,1,1.342.533,1.708,1.708,0,0,1,.561,1.286A1.715,1.715,0,0,1-9.6-26.108,1.868,1.868,0,0,1-10.937-25.568Zm16.548,3.75v2.2H.994V-5.7A3.311,3.311,0,0,0,2-2.891a3.74,3.74,0,0,0,2.294.746,4.889,4.889,0,0,0,.852-.064q.355-.064.625-.135l.54,2.287a5.912,5.912,0,0,1-.9.263A6.341,6.341,0,0,1,4.063.327,6.214,6.214,0,0,1,1.378-.284,5.18,5.18,0,0,1-.732-2.1a5.229,5.229,0,0,1-.817-3V-19.616H-4.8v-2.2h3.253v-5.227H.994v5.227Zm8.722-7.273V0H11.8V-29.091ZM29.83.455A9.589,9.589,0,0,1,24.545-.973,9.416,9.416,0,0,1,21.1-4.936a13.379,13.379,0,0,1-1.214-5.845A13.519,13.519,0,0,1,21.1-16.648a9.8,9.8,0,0,1,3.366-4.013,8.672,8.672,0,0,1,4.979-1.456,9.176,9.176,0,0,1,4.482,1.158,8.748,8.748,0,0,1,3.43,3.53,12.276,12.276,0,0,1,1.321,6.023v1.25H22.429A9.134,9.134,0,0,0,24.5-4.119,6.742,6.742,0,0,0,29.83-1.861a6.384,6.384,0,0,0,3.807-1.058,6,6,0,0,0,2.1-2.521l2.4.781a7.567,7.567,0,0,1-2.884,3.587A9.128,9.128,0,0,1,29.83.455ZM22.443-12.386H36.094a8.318,8.318,0,0,0-.845-3.786A6.708,6.708,0,0,0,32.9-18.835a6.176,6.176,0,0,0-3.459-.98,6.233,6.233,0,0,0-3.516,1.009,7.332,7.332,0,0,0-2.436,2.7A9.1,9.1,0,0,0,22.443-12.386Z" transform="translate(51 60)" fill="#666"/></svg>