<svg xmlns="http://www.w3.org/2000/svg" width="80" height="48" viewBox="0 0 80 48"><g transform="translate(-0.682 -1)"><rect width="80" height="48" transform="translate(0.682 1)" fill="#d9d9d9"/><path d="M-19.432,0h-2.216l6.409-17.455h2.182L-6.648,0H-8.864l-1.756-4.943h-7.057Zm2.42-6.818h5.727l-2.8-7.875h-.136ZM-3.92,0V-17.455h2.011v6.443h.17q.222-.341.618-.874a3.607,3.607,0,0,1,1.142-.955,4.119,4.119,0,0,1,2.024-.422,5.2,5.2,0,0,1,2.915.827,5.5,5.5,0,0,1,1.969,2.344,8.4,8.4,0,0,1,.707,3.58,8.473,8.473,0,0,1-.707,3.6A5.548,5.548,0,0,1,4.969-.558,5.106,5.106,0,0,1,2.08.273,4.154,4.154,0,0,1,.06-.149a3.668,3.668,0,0,1-1.168-.963q-.409-.541-.631-.9h-.239V0Zm1.977-6.545A6.214,6.214,0,0,0-.976-2.928,3.181,3.181,0,0,0,1.807-1.534,3.3,3.3,0,0,0,3.916-2.2,4.077,4.077,0,0,0,5.195-4.01a7.118,7.118,0,0,0,.43-2.536A6.985,6.985,0,0,0,5.2-9.038,3.917,3.917,0,0,0,3.933-10.8a3.386,3.386,0,0,0-2.126-.652A3.2,3.2,0,0,0-.989-10.1,6.045,6.045,0,0,0-1.943-6.545ZM16.023.273A5.663,5.663,0,0,1,12.852-.6a5.665,5.665,0,0,1-2.045-2.395,8.114,8.114,0,0,1-.716-3.486A8.025,8.025,0,0,1,10.828-10,5.788,5.788,0,0,1,12.891-12.4a5.539,5.539,0,0,1,3.1-.865,5.87,5.87,0,0,1,2.489.511,4.765,4.765,0,0,1,1.815,1.432A4.466,4.466,0,0,1,21.17-9.17H19.159a3.151,3.151,0,0,0-1.018-1.589,3.089,3.089,0,0,0-2.118-.695,3.467,3.467,0,0,0-2.842,1.342A5.528,5.528,0,0,0,12.1-6.545,5.77,5.77,0,0,0,13.168-2.9a3.433,3.433,0,0,0,2.855,1.368,3.355,3.355,0,0,0,2.016-.605,2.9,2.9,0,0,0,1.121-1.679H21.17a4.656,4.656,0,0,1-.839,2.084A4.706,4.706,0,0,1,18.567-.268,5.674,5.674,0,0,1,16.023.273Z" transform="translate(40.682 34)" fill="#666"/></g></svg>