<svg xmlns="http://www.w3.org/2000/svg" width="80" height="48" viewBox="0 0 80 48"><g transform="translate(-1 -1)"><rect width="80" height="48" transform="translate(1 1)" fill="#d9d9d9"/><path d="M-21.818,0h-2.216l6.409-17.455h2.182L-9.034,0H-11.25l-1.756-4.943h-7.057Zm2.42-6.818h5.727l-2.8-7.875H-16.6ZM-6.307,0V-17.455H-.2a6.4,6.4,0,0,1,3.009.626,4.173,4.173,0,0,1,1.764,1.679,4.752,4.752,0,0,1,.58,2.331,3.88,3.88,0,0,1-.4,1.858A3.165,3.165,0,0,1,3.712-9.8a4.79,4.79,0,0,1-1.393.631V-9a3.419,3.419,0,0,1,1.611.563A4.083,4.083,0,0,1,5.284-6.972,4.64,4.64,0,0,1,5.83-4.636a4.688,4.688,0,0,1-.6,2.361A4.121,4.121,0,0,1,3.349-.614,7.822,7.822,0,0,1,0,0Zm2.114-1.875H0A4.305,4.305,0,0,0,2.945-2.68a2.562,2.562,0,0,0,.874-1.956,3.136,3.136,0,0,0-.452-1.641A3.309,3.309,0,0,0,2.08-7.487,4.066,4.066,0,0,0,.1-7.943h-4.3Zm0-7.909h3.92a3.647,3.647,0,0,0,2.42-.827,2.731,2.731,0,0,0,.989-2.207,2.67,2.67,0,0,0-.8-1.956A3.462,3.462,0,0,0-.2-15.58H-4.193ZM23.352-12H21.239a4.409,4.409,0,0,0-.98-2.037,4.691,4.691,0,0,0-1.747-1.253,5.615,5.615,0,0,0-2.182-.426,5.3,5.3,0,0,0-2.868.8,5.533,5.533,0,0,0-2.037,2.361,8.743,8.743,0,0,0-.754,3.827A8.743,8.743,0,0,0,11.425-4.9,5.533,5.533,0,0,0,13.462-2.54a5.3,5.3,0,0,0,2.868.8,5.615,5.615,0,0,0,2.182-.426,4.691,4.691,0,0,0,1.747-1.253,4.409,4.409,0,0,0,.98-2.037h2.114a6.865,6.865,0,0,1-1.321,3.064A6.586,6.586,0,0,1,19.56-.439a7.642,7.642,0,0,1-3.23.678A7.315,7.315,0,0,1,12.358-.852a7.485,7.485,0,0,1-2.736-3.1,10.635,10.635,0,0,1-1-4.773,10.635,10.635,0,0,1,1-4.773,7.485,7.485,0,0,1,2.736-3.1,7.315,7.315,0,0,1,3.972-1.091,7.642,7.642,0,0,1,3.23.678,6.586,6.586,0,0,1,2.472,1.952A6.865,6.865,0,0,1,23.352-12Z" transform="translate(41 34)" fill="#666"/></g></svg>