<svg xmlns="http://www.w3.org/2000/svg" width="80" height="48" viewBox="0 0 80 48"><g transform="translate(-1 -1)"><rect width="80" height="48" transform="translate(1 1)" fill="#d9d9d9"/><path d="M-15.222.307A5.279,5.279,0,0,1-17.48-.166a3.835,3.835,0,0,1-1.611-1.372,3.849,3.849,0,0,1-.6-2.178,3.383,3.383,0,0,1,.443-1.828,3.139,3.139,0,0,1,1.185-1.1,6.327,6.327,0,0,1,1.641-.6q.9-.2,1.811-.32,1.193-.153,1.939-.234a2.965,2.965,0,0,0,1.091-.277.718.718,0,0,0,.345-.682V-8.83a2.679,2.679,0,0,0-.686-1.96,2.789,2.789,0,0,0-2.075-.7,3.617,3.617,0,0,0-2.259.631A3.728,3.728,0,0,0-17.4-9.511l-1.909-.682a4.6,4.6,0,0,1,1.368-1.862,5.155,5.155,0,0,1,1.875-.937,7.852,7.852,0,0,1,2.007-.268,8.259,8.259,0,0,1,1.453.149,4.751,4.751,0,0,1,1.594.609,3.569,3.569,0,0,1,1.283,1.389,5.168,5.168,0,0,1,.511,2.489V0h-2.011V-1.773h-.1a3.541,3.541,0,0,1-.682.912,3.934,3.934,0,0,1-1.27.827A4.892,4.892,0,0,1-15.222.307Zm.307-1.807A4.014,4.014,0,0,0-12.9-1.969a3.23,3.23,0,0,0,1.244-1.21,3.108,3.108,0,0,0,.422-1.56V-6.58a1.175,1.175,0,0,1-.558.277,8.466,8.466,0,0,1-.989.213q-.558.089-1.082.153t-.848.107a7.81,7.81,0,0,0-1.462.328,2.547,2.547,0,0,0-1.091.673,1.72,1.72,0,0,0-.413,1.214,1.79,1.79,0,0,0,.78,1.581A3.438,3.438,0,0,0-14.915-1.5ZM-5.267,0V-17.455h2.011v6.443h.17q.222-.341.618-.874a3.607,3.607,0,0,1,1.142-.955A4.119,4.119,0,0,1,.7-13.261a5.2,5.2,0,0,1,2.915.827,5.5,5.5,0,0,1,1.969,2.344,8.4,8.4,0,0,1,.707,3.58,8.473,8.473,0,0,1-.707,3.6A5.548,5.548,0,0,1,3.622-.558,5.106,5.106,0,0,1,.733.273a4.154,4.154,0,0,1-2.02-.422,3.668,3.668,0,0,1-1.168-.963q-.409-.541-.631-.9h-.239V0ZM-3.29-6.545a6.214,6.214,0,0,0,.967,3.618A3.181,3.181,0,0,0,.46-1.534,3.3,3.3,0,0,0,2.57-2.2,4.077,4.077,0,0,0,3.848-4.01a7.118,7.118,0,0,0,.43-2.536,6.985,6.985,0,0,0-.422-2.493A3.917,3.917,0,0,0,2.587-10.8,3.386,3.386,0,0,0,.46-11.455a3.2,3.2,0,0,0-2.8,1.355A6.045,6.045,0,0,0-3.29-6.545ZM14.676.273A5.663,5.663,0,0,1,11.506-.6,5.665,5.665,0,0,1,9.46-2.991a8.114,8.114,0,0,1-.716-3.486A8.025,8.025,0,0,1,9.482-10,5.788,5.788,0,0,1,11.544-12.4a5.539,5.539,0,0,1,3.1-.865,5.87,5.87,0,0,1,2.489.511,4.765,4.765,0,0,1,1.815,1.432,4.466,4.466,0,0,1,.878,2.148H17.813a3.151,3.151,0,0,0-1.018-1.589,3.089,3.089,0,0,0-2.118-.695,3.467,3.467,0,0,0-2.842,1.342,5.528,5.528,0,0,0-1.078,3.567A5.77,5.77,0,0,0,11.821-2.9a3.433,3.433,0,0,0,2.855,1.368,3.355,3.355,0,0,0,2.016-.605,2.9,2.9,0,0,0,1.121-1.679h2.011a4.656,4.656,0,0,1-.839,2.084A4.706,4.706,0,0,1,17.22-.268,5.674,5.674,0,0,1,14.676.273Z" transform="translate(40 34)" fill="#666"/></g></svg>