<svg id="Layer_1" data-name="Layer 1" xmlns="http://www.w3.org/2000/svg" viewBox="0 0 50 50"><defs><style>.cls-1{fill:#fff;stroke:#9e9e9e;stroke-miterlimit:10;}.cls-2{fill:#a1a1a1;}.cls-3{fill:#d5d3d2;}</style></defs><rect class="cls-1" x="1" y="1" width="48" height="48" rx="2"/><path class="cls-2" d="M20.84,14h0A2.12,2.12,0,0,1,23,16.1V30.21a2.12,2.12,0,0,1-2.11,2.12h0a2.12,2.12,0,0,1-2.12-2.12V16.1A2.12,2.12,0,0,1,20.84,14Z"/><path class="cls-3" d="M29.31,18.26h0a2.11,2.11,0,0,1,2.11,2.12v9.83a2.11,2.11,0,0,1-2.11,2.12h0a2.11,2.11,0,0,1-2.11-2.12V20.38A2.11,2.11,0,0,1,29.31,18.26Z"/><rect class="cls-2" x="13" y="34.18" width="24" height="1.85"/></svg>