<svg id="Layer_1" data-name="Layer 1" xmlns="http://www.w3.org/2000/svg" viewBox="0 0 50 50"><defs><style>.cls-1{fill:#fff;stroke:#9e9e9e;stroke-miterlimit:10;}.cls-2{fill:#a1a1a1;}.cls-3{fill:#d5d3d2;}</style></defs><rect class="cls-1" x="1" y="1" width="48" height="48" rx="2"/><path class="cls-2" d="M20.76,15.82h0A2.13,2.13,0,0,1,22.88,18v14.1a2.13,2.13,0,0,1-2.12,2.13h0a2.13,2.13,0,0,1-2.11-2.13V18A2.13,2.13,0,0,1,20.76,15.82Z"/><path class="cls-3" d="M29.24,15.82h0A2.13,2.13,0,0,1,31.35,18v14.1a2.13,2.13,0,0,1-2.11,2.13h0a2.13,2.13,0,0,1-2.12-2.13V18A2.13,2.13,0,0,1,29.24,15.82Z"/><rect class="cls-2" x="13" y="12.78" width="24" height="1.85"/><rect class="cls-2" x="13" y="35.38" width="24" height="1.85"/></svg>