<svg id="Layer_1" data-name="Layer 1" xmlns="http://www.w3.org/2000/svg" viewBox="0 0 50 50"><defs><style>.cls-1{fill:#fff;stroke:#9e9e9e;stroke-miterlimit:10;}.cls-2{fill:#a1a1a1;}.cls-3{fill:#d5d3d2;}</style></defs><rect class="cls-1" x="1" y="1" width="48" height="48" rx="2"/><rect class="cls-2" x="13" y="24.16" width="24" height="1.85"/><path class="cls-2" d="M20.21,15.9h0A2.12,2.12,0,0,1,22.32,18v14.1a2.12,2.12,0,0,1-2.11,2.13h0a2.12,2.12,0,0,1-2.11-2.13V18A2.12,2.12,0,0,1,20.21,15.9Z"/><path class="cls-3" d="M28.66,18.05h0a2.12,2.12,0,0,1,2.12,2.12V30a2.12,2.12,0,0,1-2.12,2.12h0A2.12,2.12,0,0,1,26.55,30V20.17A2.12,2.12,0,0,1,28.66,18.05Z"/></svg>