<svg viewBox="0 0 112 80" fill="none" xmlns="http://www.w3.org/2000/svg">
<g clip-path="url(#clip0)">
<rect x="1" y="1" width="110" height="78" rx="1" stroke="black" stroke-opacity="0.35" stroke-width="2"/>
<g opacity="0.05">
<path d="M57 -20C24.474 -20 -3 7.474 -3 40C-3 59.134 6.552 76.468 21 87.544V88H21.612C31.62 95.47 43.878 100 57 100C70.122 100 82.38 95.47 92.388 88H93V87.544C107.448 76.468 117 59.14 117 40C117 7.474 89.526 -20 57 -20ZM33.444 81.562C34.3282 77.5624 36.5492 73.9836 39.7408 71.4159C42.9324 68.8483 46.9038 67.4451 51 67.438H63C67.0959 67.4462 71.0668 68.8498 74.2581 71.4172C77.4495 73.9847 79.6708 77.5629 80.556 81.562C73.548 85.624 65.496 88 57 88C48.504 88 40.452 85.624 33.444 81.562ZM90.66 73.846C88.3713 68.3972 84.5264 63.7445 79.6064 60.4702C74.6864 57.1959 68.9099 55.4455 63 55.438H51C45.0901 55.4455 39.3136 57.1959 34.3936 60.4702C29.4736 63.7445 25.6287 68.3972 23.34 73.846C14.538 65.092 9 53.056 9 40C9 13.978 30.978 -8 57 -8C83.022 -8 105 13.978 105 40C105 53.056 99.462 65.092 90.66 73.846Z" fill="black"/>
<path d="M57 4C43.32 4 33 14.32 33 28C33 41.68 43.32 52 57 52C70.68 52 81 41.68 81 28C81 14.32 70.68 4 57 4ZM57 40C49.932 40 45 35.068 45 28C45 20.932 49.932 16 57 16C64.068 16 69 20.932 69 28C69 35.068 64.068 40 57 40Z" fill="black"/>
</g>
<path d="M80 46H32V50H80V46Z" fill="black" fill-opacity="0.35"/>
<path d="M72 54H40V58H72V54Z" fill="black" fill-opacity="0.35"/>
<path d="M80 38H32V42H80V38Z" fill="black" fill-opacity="0.35"/>
<path d="M84 22H28V30H84V22Z" fill="black" fill-opacity="0.35"/>
</g>
<defs>
<clipPath id="clip0">
<rect width="112" height="80" fill="white"/>
</clipPath>
</defs>
</svg>
