<svg xmlns="http://www.w3.org/2000/svg" width="210" height="80" viewBox="0 0 210 80"><g fill="#d9d9d9" stroke="#bfbfbf" stroke-width="2"><rect width="210" height="80" stroke="none"/><rect x="1" y="1" width="208" height="78" fill="none"/></g><path d="M1.585-22.781H9.741V0h3.937V-22.781h8.169v-3.4H1.585ZM26,0h3.822V-19.636H26Zm1.93-22.666a2.363,2.363,0,0,0,2.416-2.276,2.373,2.373,0,0,0-2.416-2.288,2.365,2.365,0,0,0-2.416,2.288A2.355,2.355,0,0,0,27.933-22.666Zm16.2,3.03H40.1v-4.7H36.281v4.7H33.4v3.068h2.876V-4.973C36.268-1.406,38.991.32,42.008.256a7.319,7.319,0,0,0,2.48-.409L43.8-3.311a6.215,6.215,0,0,1-1.342.166c-1.24,0-2.352-.409-2.352-2.621v-10.8h4.027Zm8.45-6.545H48.758V0h3.822ZM66.183.4c4.283,0,7.312-2.109,8.182-5.305l-3.618-.652a4.442,4.442,0,0,1-4.525,2.8c-3.273,0-5.472-2.122-5.574-5.906h13.96v-1.355c0-7.1-4.244-9.869-8.693-9.869-5.472,0-9.077,4.168-9.077,10.2C56.838-3.592,60.392.4,66.183.4ZM60.66-11.531a5.274,5.274,0,0,1,5.28-5.2c2.966,0,4.909,2.2,4.922,5.2ZM89.233,0h4.129l11.39-22.679v-3.5H87.443v3.388h13.219v.192Z" transform="translate(10 53)" fill="#666"/></svg>