<svg xmlns="http://www.w3.org/2000/svg" width="142" height="75" viewBox="0 0 142 75"><rect width="142" height="75" fill="#d9d9d9"/><path d="M-26.693-17.527v-2.109h14.727v2.109h-6.175V0h-2.378V-17.527ZM-8.591,0V-14.727h2.263V0ZM-7.44-17.182a1.592,1.592,0,0,1-1.136-.451,1.441,1.441,0,0,1-.475-1.083A1.441,1.441,0,0,1-8.577-19.8,1.592,1.592,0,0,1-7.44-20.25,1.592,1.592,0,0,1-6.3-19.8a1.441,1.441,0,0,1,.475,1.083A1.441,1.441,0,0,1-6.3-17.632,1.592,1.592,0,0,1-7.44-17.182ZM4.219-14.727v1.918H1.074v8.591a2.864,2.864,0,0,0,.283,1.433,1.388,1.388,0,0,0,.729.633,2.8,2.8,0,0,0,.944.158,3.573,3.573,0,0,0,.614-.043q.24-.043.384-.072l.46,2.033A4.979,4.979,0,0,1,3.845.1,4.97,4.97,0,0,1,2.8.192,4.522,4.522,0,0,1,.925-.221,3.692,3.692,0,0,1-.59-1.477a3.586,3.586,0,0,1-.6-2.129v-9.2H-3.413v-1.918h2.224v-3.528H1.074v3.528ZM10.2-19.636V0H7.939V-19.636ZM20.518.307a6.875,6.875,0,0,1-3.667-.944,6.228,6.228,0,0,1-2.368-2.646,8.95,8.95,0,0,1-.829-3.965,9.137,9.137,0,0,1,.829-3.993,6.5,6.5,0,0,1,2.32-2.7,6.232,6.232,0,0,1,3.485-.973,6.981,6.981,0,0,1,2.272.384A5.661,5.661,0,0,1,24.6-13.294a6.009,6.009,0,0,1,1.467,2.268,9.646,9.646,0,0,1,.547,3.471V-6.6H15.926a5.131,5.131,0,0,0,1.338,3.615,4.414,4.414,0,0,0,3.255,1.256A4.372,4.372,0,0,0,22.81-2.3,3.277,3.277,0,0,0,24.2-4.027l2.186.614A4.912,4.912,0,0,1,24.315-.719,6.738,6.738,0,0,1,20.518.307ZM15.926-8.553h8.39a4.5,4.5,0,0,0-1.093-3.1,3.726,3.726,0,0,0-2.934-1.232,4.089,4.089,0,0,0-2.244.6,4.348,4.348,0,0,0-1.5,1.6A5.075,5.075,0,0,0,15.926-8.553Z" transform="translate(37 60)" fill="#666"/></svg>