<svg xmlns="http://www.w3.org/2000/svg" width="142" height="75" viewBox="0 0 142 75"><rect width="142" height="75" fill="#d9d9d9"/><path d="M-18.784-12.334v-1.484H-8.42v1.484h-4.345V0h-1.673V-12.334ZM-6.045,0V-10.364h1.592V0Zm.81-12.091a1.12,1.12,0,0,1-.8-.317,1.014,1.014,0,0,1-.334-.762,1.014,1.014,0,0,1,.334-.762,1.12,1.12,0,0,1,.8-.317,1.12,1.12,0,0,1,.8.317,1.014,1.014,0,0,1,.334.762,1.014,1.014,0,0,1-.334.762A1.12,1.12,0,0,1-5.236-12.091Zm8.2,1.727v1.349H.756v6.045a2.015,2.015,0,0,0,.2,1.009.977.977,0,0,0,.513.445,1.973,1.973,0,0,0,.665.111,2.514,2.514,0,0,0,.432-.03l.27-.051.324,1.43a3.5,3.5,0,0,1-.452.125A3.5,3.5,0,0,1,1.97.135,3.182,3.182,0,0,1,.651-.155,2.6,2.6,0,0,1-.415-1.039a2.524,2.524,0,0,1-.422-1.5V-9.014H-2.4v-1.349H-.837v-2.483H.756v2.483Zm4.21-3.455V0H5.587V-13.818ZM14.439.216a4.838,4.838,0,0,1-2.581-.665,4.382,4.382,0,0,1-1.667-1.862A6.3,6.3,0,0,1,9.608-5.1a6.43,6.43,0,0,1,.584-2.81,4.573,4.573,0,0,1,1.633-1.9,4.385,4.385,0,0,1,2.453-.685,4.913,4.913,0,0,1,1.6.27,3.984,3.984,0,0,1,1.437.874,4.228,4.228,0,0,1,1.032,1.6,6.788,6.788,0,0,1,.385,2.442v.675H11.207A3.611,3.611,0,0,0,12.148-2.1a3.106,3.106,0,0,0,2.291.884,3.077,3.077,0,0,0,1.613-.4,2.306,2.306,0,0,0,.978-1.214l1.538.432a3.457,3.457,0,0,1-1.457,1.9A4.742,4.742,0,0,1,14.439.216ZM11.207-6.018h5.9A3.168,3.168,0,0,0,16.342-8.2a2.622,2.622,0,0,0-2.065-.867,2.878,2.878,0,0,0-1.579.425A3.06,3.06,0,0,0,11.646-7.52,3.571,3.571,0,0,0,11.207-6.018Z" transform="translate(29 60)" fill="#666"/></svg>