<svg xmlns="http://www.w3.org/2000/svg" width="142" height="75" viewBox="0 0 142 75"><rect width="142" height="75" fill="#d9d9d9"/><path d="M-14.83-9.737v-1.172h8.182v1.172h-3.43V0H-11.4V-9.737ZM-4.773,0V-8.182h1.257V0Zm.639-9.545a.885.885,0,0,1-.631-.25.8.8,0,0,1-.264-.6.8.8,0,0,1,.264-.6.885.885,0,0,1,.631-.25A.885.885,0,0,1-3.5-11a.8.8,0,0,1,.264.6.8.8,0,0,1-.264.6A.885.885,0,0,1-4.134-9.545ZM2.344-8.182v1.065H.6v4.773a1.591,1.591,0,0,0,.157.8.771.771,0,0,0,.4.352,1.557,1.557,0,0,0,.525.088,1.985,1.985,0,0,0,.341-.024l.213-.04L2.493-.043a2.766,2.766,0,0,1-.357.1,2.761,2.761,0,0,1-.581.051A2.512,2.512,0,0,1,.514-.123a2.051,2.051,0,0,1-.842-.7A1.992,1.992,0,0,1-.661-2V-7.116H-1.9V-8.182H-.661v-1.96H.6v1.96Zm3.324-2.727V0H4.411V-10.909ZM11.4.17A3.819,3.819,0,0,1,9.362-.354a3.46,3.46,0,0,1-1.316-1.47,4.972,4.972,0,0,1-.461-2.2,5.076,5.076,0,0,1,.461-2.219,3.611,3.611,0,0,1,1.289-1.5,3.462,3.462,0,0,1,1.936-.541,3.879,3.879,0,0,1,1.262.213,3.145,3.145,0,0,1,1.135.69,3.338,3.338,0,0,1,.815,1.26,5.359,5.359,0,0,1,.3,1.928v.533H8.848a2.85,2.85,0,0,0,.743,2.008,2.452,2.452,0,0,0,1.808.7,2.429,2.429,0,0,0,1.273-.32,1.821,1.821,0,0,0,.772-.959l1.214.341A2.729,2.729,0,0,1,13.509-.4,3.743,3.743,0,0,1,11.4.17ZM8.848-4.751h4.661A2.5,2.5,0,0,0,12.9-6.475a2.07,2.07,0,0,0-1.63-.684,2.272,2.272,0,0,0-1.246.336,2.415,2.415,0,0,0-.831.887A2.819,2.819,0,0,0,8.848-4.751Z" transform="translate(25 60)" fill="#666"/></svg>