<svg xmlns="http://www.w3.org/2000/svg" width="142" height="75" viewBox="0 0 142 75"><g transform="translate(8 -6)"><rect width="142" height="75" transform="translate(-8 6)" fill="#d9d9d9"/><path d="M-34.6-22.72v-2.734h19.091v2.734h-8V0H-26.6V-22.72ZM-11.136,0V-19.091H-8.2V0Zm1.491-22.273a2.064,2.064,0,0,1-1.473-.584,1.868,1.868,0,0,1-.615-1.4,1.868,1.868,0,0,1,.615-1.4,2.064,2.064,0,0,1,1.473-.584,2.064,2.064,0,0,1,1.473.584,1.868,1.868,0,0,1,.615,1.4,1.868,1.868,0,0,1-.615,1.4A2.064,2.064,0,0,1-9.645-22.273ZM5.469-19.091v2.486H1.392V-5.469a3.713,3.713,0,0,0,.367,1.858,1.8,1.8,0,0,0,.945.82,3.634,3.634,0,0,0,1.224.205,4.632,4.632,0,0,0,.8-.056q.311-.056.5-.093L5.817-.1a6.454,6.454,0,0,1-.833.23A6.443,6.443,0,0,1,3.629.249,5.862,5.862,0,0,1,1.2-.286,4.786,4.786,0,0,1-.764-1.914a4.649,4.649,0,0,1-.777-2.759V-16.605H-4.425v-2.486h2.884v-4.574H1.392v4.574Zm7.756-6.364V0H10.291V-25.455ZM26.6.4A8.912,8.912,0,0,1,21.844-.827a8.073,8.073,0,0,1-3.07-3.43A11.6,11.6,0,0,1,17.7-9.4a11.844,11.844,0,0,1,1.075-5.177,8.425,8.425,0,0,1,3.008-3.5A8.078,8.078,0,0,1,26.3-19.339a9.05,9.05,0,0,1,2.946.5,7.339,7.339,0,0,1,2.647,1.61,7.789,7.789,0,0,1,1.9,2.939,12.5,12.5,0,0,1,.708,4.5v1.243H20.645a6.651,6.651,0,0,0,1.734,4.686A5.722,5.722,0,0,0,26.6-2.237a5.668,5.668,0,0,0,2.971-.746,4.248,4.248,0,0,0,1.8-2.237l2.834.8A6.368,6.368,0,0,1,31.52-.932,8.734,8.734,0,0,1,26.6.4ZM20.645-11.087H31.52A5.835,5.835,0,0,0,30.1-15.107a4.83,4.83,0,0,0-3.8-1.6,5.3,5.3,0,0,0-2.908.783,5.636,5.636,0,0,0-1.939,2.069A6.579,6.579,0,0,0,20.645-11.087Z" transform="translate(37 66)" fill="#666"/></g></svg>