<svg xmlns="http://www.w3.org/2000/svg" width="210" height="80" viewBox="0 0 210 80"><g fill="#d9d9d9" stroke="#bfbfbf" stroke-width="2"><rect width="210" height="80" stroke="none"/><rect x="1" y="1" width="208" height="78" fill="none"/></g><path d="M.7-10.125H4.329V0h1.75V-10.125H9.71v-1.511H.7ZM11.557,0h1.7V-8.727h-1.7Zm.858-10.074a1.05,1.05,0,0,0,1.074-1.011A1.055,1.055,0,0,0,12.415-12.1a1.051,1.051,0,0,0-1.074,1.017A1.047,1.047,0,0,0,12.415-10.074Zm7.2,1.347h-1.79v-2.091h-1.7v2.091H14.847v1.364h1.278V-2.21A2.279,2.279,0,0,0,18.67.114a3.253,3.253,0,0,0,1.1-.182l-.307-1.4a2.762,2.762,0,0,1-.6.074c-.551,0-1.045-.182-1.045-1.165v-4.8h1.79Zm3.756-2.909h-1.7V0h1.7ZM29.415.176a3.464,3.464,0,0,0,3.636-2.358l-1.608-.29a1.974,1.974,0,0,1-2.011,1.244,2.4,2.4,0,0,1-2.477-2.625h6.2v-.6c0-3.153-1.886-4.386-3.864-4.386-2.432,0-4.034,1.852-4.034,4.534C25.261-1.6,26.841.176,29.415.176Zm-2.455-5.3a2.344,2.344,0,0,1,2.347-2.312,2.156,2.156,0,0,1,2.187,2.312Zm16.722-6.511h-1.71l-2.9,1.9v1.682l2.784-1.818h.068V0h1.761ZM46.83,0h7.659V-1.506H49.25v-.085l2.312-2.42C53.693-6.165,54.3-7.193,54.3-8.494a3.413,3.413,0,0,0-3.716-3.3,3.5,3.5,0,0,0-3.767,3.534h1.676a1.93,1.93,0,0,1,2.057-2.068,1.9,1.9,0,0,1,2.08,1.886c0,1.028-.614,1.767-1.864,3.091L46.83-1.273Z" transform="translate(10 46)" fill="#666"/></svg>