<svg xmlns="http://www.w3.org/2000/svg" width="144" height="84" viewBox="0 0 144 84"><g transform="translate(1 1)"><g transform="translate(1 1)" fill="#d9d9d9" stroke="#bfbfbf" stroke-miterlimit="10" stroke-width="2"><rect width="140" height="80" stroke="none"/><rect x="-1" y="-1" width="142" height="82" fill="none"/></g><g transform="translate(-5 -11)"><rect width="105" height="80" transform="translate(23 12)" fill="#fff"/><g transform="translate(33 22)" fill="none"><path d="M3.953,0H81.047C83.23,0,85,2.621,85,5.854V54.146C85,57.379,83.23,60,81.047,60H3.953C1.77,60,0,57.379,0,54.146V5.854C0,2.621,1.77,0,3.953,0Z" stroke="none"/><path d="M 4.439018249511719 4 C 4.245773315429688 4.311985015869141 4 4.956687927246094 4 5.853656768798828 L 4 54.14634323120117 C 4 55.04331207275391 4.245773315429688 55.68801116943359 4.439018249511719 56 L 80.56097412109375 56 C 80.75421142578125 55.68801116943359 81 55.04330062866211 81 54.14634323120117 L 81 5.853656768798828 C 81 4.956699371337891 80.75421142578125 4.311988830566406 80.56097412109375 4 L 4.439018249511719 4 M 3.953483581542969 0 L 81.04650115966797 0 C 83.22995758056641 0 85 2.620773315429688 85 5.853656768798828 L 85 54.14634323120117 C 85 57.37922668457031 83.22995758056641 60 81.04650115966797 60 L 3.953483581542969 60 C 1.770027160644531 60 0 57.37922668457031 0 54.14634323120117 L 0 5.853656768798828 C 0 2.620773315429688 1.770027160644531 0 3.953483581542969 0 Z" stroke="none" fill="#707070"/></g><path d="M46.046,15.045A3.729,3.729,0,0,0,42.622,17a2.9,2.9,0,0,0,.771,3.5A4.082,4.082,0,0,0,47.4,21.2a3.229,3.229,0,0,0,2.279-2.958A3.446,3.446,0,0,0,46.046,15.045Zm-2.92,16h29.2V24.64l-8.781-7.284L51.887,27.2c-3.81-3.344-4.381-3.446-4.381-3.446s-.571.1-4.381,3.446Z" transform="translate(18.416 28.895)" fill="#666"/></g><rect width="140" height="30" transform="translate(1 1)" fill="#666" opacity="0.7"/></g></svg>