<svg xmlns="http://www.w3.org/2000/svg" width="142" height="75" viewBox="0 0 142 75"><rect width="142" height="75" fill="#d9d9d9"/><path d="M-22.739-14.93v-1.8h12.545v1.8h-5.26V0h-2.026V-14.93ZM-7.318,0V-12.545h1.928V0Zm.98-14.636a1.356,1.356,0,0,1-.968-.384,1.227,1.227,0,0,1-.4-.923,1.227,1.227,0,0,1,.4-.923,1.356,1.356,0,0,1,.968-.384,1.356,1.356,0,0,1,.968.384,1.227,1.227,0,0,1,.4.923,1.227,1.227,0,0,1-.4.923A1.356,1.356,0,0,1-6.338-14.636Zm9.932,2.091v1.634H.915v7.318a2.44,2.44,0,0,0,.241,1.221,1.182,1.182,0,0,0,.621.539,2.388,2.388,0,0,0,.8.135A3.044,3.044,0,0,0,3.1-1.736q.2-.037.327-.061L3.822-.065a4.241,4.241,0,0,1-.547.151,4.234,4.234,0,0,1-.89.078,3.852,3.852,0,0,1-1.6-.351A3.145,3.145,0,0,1-.5-1.258a3.055,3.055,0,0,1-.51-1.813v-7.841H-2.908v-1.634h1.895v-3.006H.915v3.006Zm5.1-4.182V0H6.763V-16.727ZM17.479.261a5.856,5.856,0,0,1-3.124-.8A5.305,5.305,0,0,1,12.337-2.8a7.624,7.624,0,0,1-.706-3.377,7.783,7.783,0,0,1,.706-3.4,5.536,5.536,0,0,1,1.977-2.3,5.309,5.309,0,0,1,2.969-.829,5.947,5.947,0,0,1,1.936.327,4.823,4.823,0,0,1,1.74,1.058,5.118,5.118,0,0,1,1.25,1.932,8.217,8.217,0,0,1,.466,2.957v.817H13.566A4.371,4.371,0,0,0,14.706-2.54a3.76,3.76,0,0,0,2.773,1.07,3.725,3.725,0,0,0,1.952-.49,2.792,2.792,0,0,0,1.184-1.47l1.862.523a4.185,4.185,0,0,1-1.764,2.3A5.74,5.74,0,0,1,17.479.261ZM13.566-7.286h7.147a3.834,3.834,0,0,0-.931-2.642,3.174,3.174,0,0,0-2.5-1.05,3.484,3.484,0,0,0-1.911.515A3.7,3.7,0,0,0,14.1-9.1,4.323,4.323,0,0,0,13.566-7.286Z" transform="translate(33 60)" fill="#666"/></svg>