<svg xmlns="http://www.w3.org/2000/svg" width="210" height="80" viewBox="0 0 210 80"><g fill="#d9d9d9" stroke="#bfbfbf" stroke-width="2"><rect width="210" height="80" stroke="none"/><rect x="1" y="1" width="208" height="78" fill="none"/></g><path d="M1.233-17.718H7.577V0h3.062V-17.718h6.354v-2.645H1.233ZM20.224,0H23.2V-15.272H20.224Zm1.5-17.629a1.838,1.838,0,0,0,1.879-1.77,1.846,1.846,0,0,0-1.879-1.78,1.84,1.84,0,0,0-1.879,1.78A1.831,1.831,0,0,0,21.726-17.629Zm12.6,2.356H31.192v-3.659H28.219v3.659H25.982v2.386h2.237v9.018C28.209-1.094,30.327.249,32.673.2A5.692,5.692,0,0,0,34.6-.119l-.537-2.456a4.834,4.834,0,0,1-1.044.129c-.964,0-1.83-.318-1.83-2.038v-8.4h3.132ZM40.9-20.363H37.923V0H40.9ZM51.476.308c3.331,0,5.687-1.641,6.364-4.126l-2.814-.507a3.455,3.455,0,0,1-3.52,2.178c-2.545,0-4.256-1.651-4.335-4.594H58.028V-7.8c0-5.518-3.3-7.676-6.761-7.676-4.256,0-7.06,3.241-7.06,7.935C44.207-2.794,46.972.308,51.476.308Zm-4.3-9.277a4.1,4.1,0,0,1,4.106-4.047,3.772,3.772,0,0,1,3.828,4.047ZM75.488-20.642a6.705,6.705,0,0,0-7.069,6.891A6.4,6.4,0,0,0,74.773-7.06a5.811,5.811,0,0,0,5.051-2.764h.159c-.01,4.683-1.77,7.418-4.753,7.418a3.522,3.522,0,0,1-3.6-2.933H68.6A6.36,6.36,0,0,0,75.23.278c4.733,0,7.7-4.067,7.7-11.2C82.916-18.355,79.118-20.612,75.488-20.642Zm.01,2.585a4.171,4.171,0,0,1,4.1,4.236,4.233,4.233,0,0,1-4.156,4.256A4.06,4.06,0,0,1,71.4-13.791,4.13,4.13,0,0,1,75.5-18.057Z" transform="translate(10 50)" fill="#666"/></svg>