<svg xmlns="http://www.w3.org/2000/svg" width="142" height="75" viewBox="0 0 142 75"><rect width="142" height="75" fill="#d9d9d9"/><path d="M-30.648-20.124v-2.422h16.909v2.422h-7.089V0h-2.73V-20.124ZM-9.864,0V-16.909h2.6V0Zm1.321-19.727a1.828,1.828,0,0,1-1.3-.517,1.654,1.654,0,0,1-.545-1.244,1.654,1.654,0,0,1,.545-1.244,1.828,1.828,0,0,1,1.3-.517,1.828,1.828,0,0,1,1.3.517,1.654,1.654,0,0,1,.545,1.244,1.654,1.654,0,0,1-.545,1.244A1.828,1.828,0,0,1-8.543-19.727ZM4.844-16.909v2.2H1.233v9.864A3.288,3.288,0,0,0,1.558-3.2a1.593,1.593,0,0,0,.837.727,3.218,3.218,0,0,0,1.084.182,4.1,4.1,0,0,0,.7-.05q.275-.05.44-.083L5.152-.088a5.717,5.717,0,0,1-.738.2,5.707,5.707,0,0,1-1.2.1A5.192,5.192,0,0,1,1.062-.253,4.239,4.239,0,0,1-.677-1.7a4.118,4.118,0,0,1-.688-2.444V-14.707H-3.919v-2.2h2.554V-20.96h2.6v4.051Zm6.869-5.636V0h-2.6V-22.545ZM23.558.352A7.893,7.893,0,0,1,19.347-.732,7.15,7.15,0,0,1,16.628-3.77a10.275,10.275,0,0,1-.952-4.552,10.491,10.491,0,0,1,.952-4.585,7.462,7.462,0,0,1,2.664-3.1,7.155,7.155,0,0,1,4-1.117,8.016,8.016,0,0,1,2.609.44,6.5,6.5,0,0,1,2.345,1.426,6.9,6.9,0,0,1,1.684,2.6,11.075,11.075,0,0,1,.627,3.985v1.1H18.285a5.891,5.891,0,0,0,1.536,4.15,5.068,5.068,0,0,0,3.737,1.442,5.02,5.02,0,0,0,2.631-.661,3.763,3.763,0,0,0,1.6-1.982l2.51.7A5.64,5.64,0,0,1,27.918-.826,7.736,7.736,0,0,1,23.558.352ZM18.285-9.82h9.632a5.168,5.168,0,0,0-1.255-3.561A4.278,4.278,0,0,0,23.294-14.8a4.7,4.7,0,0,0-2.576.694A4.992,4.992,0,0,0,19-12.269,5.827,5.827,0,0,0,18.285-9.82Z" transform="translate(41 60)" fill="#666"/></svg>