<svg xmlns="http://www.w3.org/2000/svg" width="120" height="48" viewBox="0 0 120 48"><g transform="translate(-5329 295.055)"><rect width="120" height="48" transform="translate(5329 -295.055)" fill="#d9d9d9"/><path d="M-39.955,0V-23.273h2.818V-2.5h10.818V0Zm22.773.409a7.038,7.038,0,0,1-3.011-.631,5.114,5.114,0,0,1-2.148-1.83,5.133,5.133,0,0,1-.8-2.9,4.51,4.51,0,0,1,.591-2.437,4.186,4.186,0,0,1,1.58-1.472,8.436,8.436,0,0,1,2.188-.8q1.2-.267,2.415-.426,1.591-.2,2.585-.312a3.954,3.954,0,0,0,1.455-.369.957.957,0,0,0,.46-.909v-.091a3.572,3.572,0,0,0-.915-2.614,3.719,3.719,0,0,0-2.767-.932,4.823,4.823,0,0,0-3.011.841,4.971,4.971,0,0,0-1.534,1.8l-2.545-.909a6.133,6.133,0,0,1,1.824-2.483,6.874,6.874,0,0,1,2.5-1.25,10.469,10.469,0,0,1,2.676-.358,11.012,11.012,0,0,1,1.938.2,6.334,6.334,0,0,1,2.125.813,4.759,4.759,0,0,1,1.71,1.852A6.89,6.89,0,0,1-9.182-11.5V0h-2.682V-2.364H-12a4.721,4.721,0,0,1-.909,1.216A5.246,5.246,0,0,1-14.6-.045,6.523,6.523,0,0,1-17.182.409ZM-16.773-2a5.352,5.352,0,0,0,2.688-.625,4.307,4.307,0,0,0,1.659-1.614,4.144,4.144,0,0,0,.563-2.08V-8.773a1.567,1.567,0,0,1-.744.369,11.288,11.288,0,0,1-1.318.284q-.744.119-1.443.2t-1.131.142a10.413,10.413,0,0,0-1.949.438,3.4,3.4,0,0,0-1.455.9,2.293,2.293,0,0,0-.551,1.619,2.386,2.386,0,0,0,1.04,2.108A4.584,4.584,0,0,0-16.773-2Zm12.5,2V-17.455h2.591v2.636H-1.5a4.192,4.192,0,0,1,1.727-2.1,5.084,5.084,0,0,1,2.818-.807q.3,0,.739.011t.67.034v2.727q-.136-.034-.619-.108a6.726,6.726,0,0,0-1.017-.074A4.465,4.465,0,0,0-.341-13.977a3.826,3.826,0,0,0-1.25,2.932V0ZM14.136,6.909A8.66,8.66,0,0,1,9.517,5.847,7.412,7.412,0,0,1,7,3.409l2.136-1.5q.364.477.92,1.1a4.767,4.767,0,0,0,1.528,1.08,6,6,0,0,0,2.551.46,5.688,5.688,0,0,0,3.489-1.023A3.731,3.731,0,0,0,19,.318V-3.227h-.227q-.3.477-.835,1.176A4.752,4.752,0,0,1,16.392-.812a5.756,5.756,0,0,1-2.71.54,7.254,7.254,0,0,1-3.79-1A6.966,6.966,0,0,1,7.244-4.182a10.13,10.13,0,0,1-.972-4.636,10.834,10.834,0,0,1,.943-4.676,7.325,7.325,0,0,1,2.625-3.091,6.955,6.955,0,0,1,3.886-1.1,5.559,5.559,0,0,1,2.71.563,4.916,4.916,0,0,1,1.545,1.273q.54.71.835,1.165h.273v-2.773h2.591V.5a6.133,6.133,0,0,1-1.017,3.665,5.911,5.911,0,0,1-2.727,2.08A10.413,10.413,0,0,1,14.136,6.909Zm-.091-9.591a4.438,4.438,0,0,0,3.71-1.642,7.175,7.175,0,0,0,1.29-4.54,7.789,7.789,0,0,0-1.273-4.619,4.284,4.284,0,0,0-3.727-1.79,4.535,4.535,0,0,0-2.835.864,5.2,5.2,0,0,0-1.693,2.318,8.881,8.881,0,0,0-.562,3.227,7.273,7.273,0,0,0,1.284,4.455A4.443,4.443,0,0,0,14.045-2.682ZM33.909.364A8.148,8.148,0,0,1,29.562-.756a7.381,7.381,0,0,1-2.807-3.136,10.607,10.607,0,0,1-.983-4.7,10.829,10.829,0,0,1,.983-4.733,7.7,7.7,0,0,1,2.75-3.2,7.386,7.386,0,0,1,4.131-1.153,8.274,8.274,0,0,1,2.693.455,6.71,6.71,0,0,1,2.42,1.472,7.121,7.121,0,0,1,1.739,2.688,11.432,11.432,0,0,1,.648,4.114v1.136H28.466a6.081,6.081,0,0,0,1.585,4.284,5.232,5.232,0,0,0,3.858,1.489,5.182,5.182,0,0,0,2.716-.682,3.884,3.884,0,0,0,1.648-2.045l2.591.727A5.822,5.822,0,0,1,38.409-.852,7.986,7.986,0,0,1,33.909.364Zm-5.443-10.5h9.943a5.335,5.335,0,0,0-1.3-3.676,4.416,4.416,0,0,0-3.477-1.46,4.847,4.847,0,0,0-2.659.716A5.153,5.153,0,0,0,29.2-12.665,6.015,6.015,0,0,0,28.466-10.136Z" transform="translate(5389 -259.055)" fill="#666"/></g></svg>