<svg xmlns="http://www.w3.org/2000/svg" width="120" height="48" viewBox="0 0 120 48"><g transform="translate(-5316 293.055)"><rect width="120" height="48" transform="translate(5316 -293.055)" fill="#d9d9d9"/><path d="M-43.244-17.455h2.523L-34.79-2.966h.2l5.932-14.489h2.523V0h-1.977V-13.261h-.17L-33.733,0h-1.909L-41.1-13.261h-.17V0h-1.977ZM-16.688.273a6.111,6.111,0,0,1-3.26-.839,5.536,5.536,0,0,1-2.105-2.352,7.955,7.955,0,0,1-.737-3.524,8.122,8.122,0,0,1,.737-3.55,5.777,5.777,0,0,1,2.063-2.4,5.539,5.539,0,0,1,3.1-.865,6.206,6.206,0,0,1,2.02.341,5.032,5.032,0,0,1,1.815,1.1,5.341,5.341,0,0,1,1.3,2.016,8.574,8.574,0,0,1,.486,3.085v.852h-9.5a4.561,4.561,0,0,0,1.189,3.213,3.924,3.924,0,0,0,2.893,1.116,3.887,3.887,0,0,0,2.037-.511A2.913,2.913,0,0,0-13.415-3.58l1.943.545A4.366,4.366,0,0,1-13.313-.639,5.989,5.989,0,0,1-16.688.273ZM-20.77-7.6h7.457a4,4,0,0,0-.972-2.757,3.312,3.312,0,0,0-2.608-1.1,3.635,3.635,0,0,0-1.994.537A3.865,3.865,0,0,0-20.216-9.5,4.511,4.511,0,0,0-20.77-7.6ZM-3.256.273A5.106,5.106,0,0,1-6.145-.558a5.548,5.548,0,0,1-1.96-2.352,8.473,8.473,0,0,1-.707-3.6,8.4,8.4,0,0,1,.707-3.58,5.5,5.5,0,0,1,1.969-2.344,5.2,5.2,0,0,1,2.915-.827,4.119,4.119,0,0,1,2.024.422,3.607,3.607,0,0,1,1.142.955q.4.533.618.874h.17v-6.443H2.744V0H.8V-2.011H.562q-.222.358-.631.9a3.668,3.668,0,0,1-1.168.963A4.154,4.154,0,0,1-3.256.273Zm.273-1.807A3.181,3.181,0,0,0-.2-2.928,6.214,6.214,0,0,0,.767-6.545,6.045,6.045,0,0,0-.188-10.1a3.2,3.2,0,0,0-2.8-1.355,3.386,3.386,0,0,0-2.126.652,3.917,3.917,0,0,0-1.27,1.764A6.985,6.985,0,0,0-6.8-6.545a7.118,7.118,0,0,0,.43,2.536A4.077,4.077,0,0,0-5.092-2.2,3.3,3.3,0,0,0-2.983-1.534ZM6.7,0V-13.091H8.71V0ZM7.722-15.273a1.415,1.415,0,0,1-1.01-.4,1.281,1.281,0,0,1-.422-.963,1.281,1.281,0,0,1,.422-.963,1.415,1.415,0,0,1,1.01-.4,1.415,1.415,0,0,1,1.01.4,1.281,1.281,0,0,1,.422.963,1.281,1.281,0,0,1-.422.963A1.415,1.415,0,0,1,7.722-15.273Zm12.92,9.92v-7.739h2.011V0H20.642V-2.216h-.136A4.264,4.264,0,0,1,19.074-.524,4.116,4.116,0,0,1,16.619.17a4.065,4.065,0,0,1-3.034-1.219,5.137,5.137,0,0,1-1.193-3.724v-8.318H14.4v8.182a3.189,3.189,0,0,0,.805,2.284,2.707,2.707,0,0,0,2.058.852,3.45,3.45,0,0,0,1.53-.384,3.364,3.364,0,0,0,1.313-1.176A3.549,3.549,0,0,0,20.642-5.352ZM26.335,0V-13.091h1.943v2.045h.17a3.312,3.312,0,0,1,1.321-1.632,3.976,3.976,0,0,1,2.19-.584,3.778,3.778,0,0,1,2.161.584,3.885,3.885,0,0,1,1.351,1.632h.136a3.84,3.84,0,0,1,1.509-1.615,4.618,4.618,0,0,1,2.412-.6,3.929,3.929,0,0,1,2.872,1.1,4.588,4.588,0,0,1,1.116,3.4V0H41.506V-8.761a2.477,2.477,0,0,0-.793-2.071,2.934,2.934,0,0,0-1.866-.622,2.75,2.75,0,0,0-2.139.831,3,3,0,0,0-.759,2.1V0H33.9V-8.966a2.368,2.368,0,0,0-.724-1.8,2.6,2.6,0,0,0-1.866-.686,2.736,2.736,0,0,0-1.462.418A3.117,3.117,0,0,0,28.76-9.882a3.418,3.418,0,0,0-.413,1.7V0Z" transform="translate(5376 -260.055)" fill="#666"/></g></svg>