<svg xmlns="http://www.w3.org/2000/svg" width="120" height="48" viewBox="0 0 120 48"><g transform="translate(-5364 276.055)"><rect width="120" height="48" transform="translate(5364 -276.055)" fill="#d9d9d9"/><path d="M-12.591-8.727a1.784,1.784,0,0,0-.83-1.341,3.182,3.182,0,0,0-1.784-.477A2.951,2.951,0,0,0-17.068-10a1.684,1.684,0,0,0-.7,1.384,1.364,1.364,0,0,0,.384,1.009,2.709,2.709,0,0,0,.909.6,8,8,0,0,0,.957.327l1.182.318a10.5,10.5,0,0,1,1.014.33,4.813,4.813,0,0,1,1.074.571,2.967,2.967,0,0,1,.849.923,2.654,2.654,0,0,1,.335,1.381,3.076,3.076,0,0,1-.491,1.7,3.387,3.387,0,0,1-1.432,1.21A5.263,5.263,0,0,1-15.273.2,4.617,4.617,0,0,1-18.25-.682,3.139,3.139,0,0,1-19.455-3H-18a1.8,1.8,0,0,0,.446,1.088,2.339,2.339,0,0,0,.989.636,3.927,3.927,0,0,0,1.293.207,3.777,3.777,0,0,0,1.449-.264,2.453,2.453,0,0,0,1.017-.739,1.739,1.739,0,0,0,.375-1.111,1.365,1.365,0,0,0-.324-.943,2.377,2.377,0,0,0-.852-.591,8.956,8.956,0,0,0-1.142-.4l-1.432-.409a5.332,5.332,0,0,1-2.159-1.119,2.458,2.458,0,0,1-.8-1.9,2.824,2.824,0,0,1,.531-1.707,3.516,3.516,0,0,1,1.432-1.136,4.844,4.844,0,0,1,2.014-.406,4.755,4.755,0,0,1,2,.4A3.5,3.5,0,0,1-11.77-10.3a2.728,2.728,0,0,1,.543,1.574ZM-8.932,0V-8.727h1.3v1.364h.114a2.208,2.208,0,0,1,.881-1.088,2.651,2.651,0,0,1,1.46-.389,2.518,2.518,0,0,1,1.44.389,2.59,2.59,0,0,1,.9,1.088h.091A2.56,2.56,0,0,1-1.744-8.44a3.079,3.079,0,0,1,1.608-.4,2.619,2.619,0,0,1,1.915.73,3.059,3.059,0,0,1,.744,2.27V0H1.182V-5.841A1.652,1.652,0,0,0,.653-7.222,1.956,1.956,0,0,0-.591-7.636a1.833,1.833,0,0,0-1.426.554,2,2,0,0,0-.506,1.4V0H-3.886V-5.977a1.579,1.579,0,0,0-.483-1.2,1.736,1.736,0,0,0-1.244-.457,1.824,1.824,0,0,0-.974.278,2.078,2.078,0,0,0-.727.77,2.278,2.278,0,0,0-.276,1.134V0ZM7.545.2A3.519,3.519,0,0,1,6.04-.111a2.557,2.557,0,0,1-1.074-.915,2.566,2.566,0,0,1-.4-1.452,2.255,2.255,0,0,1,.3-1.219,2.093,2.093,0,0,1,.79-.736,4.218,4.218,0,0,1,1.094-.4q.6-.134,1.207-.213.8-.1,1.293-.156a1.977,1.977,0,0,0,.727-.185.478.478,0,0,0,.23-.455v-.045a1.786,1.786,0,0,0-.457-1.307,1.86,1.86,0,0,0-1.384-.466,2.411,2.411,0,0,0-1.506.42,2.486,2.486,0,0,0-.767.9L4.818-6.8A3.067,3.067,0,0,1,5.73-8.037a3.437,3.437,0,0,1,1.25-.625,5.235,5.235,0,0,1,1.338-.179,5.506,5.506,0,0,1,.969.1,3.167,3.167,0,0,1,1.063.406,2.379,2.379,0,0,1,.855.926,3.445,3.445,0,0,1,.341,1.659V0H10.2V-1.182h-.068a2.361,2.361,0,0,1-.455.608,2.623,2.623,0,0,1-.847.551A3.262,3.262,0,0,1,7.545.2ZM7.75-1a2.676,2.676,0,0,0,1.344-.312,2.153,2.153,0,0,0,.83-.807,2.072,2.072,0,0,0,.281-1.04V-4.386a.783.783,0,0,1-.372.185,5.644,5.644,0,0,1-.659.142q-.372.06-.722.1l-.565.071a5.206,5.206,0,0,0-.974.219,1.7,1.7,0,0,0-.727.449,1.147,1.147,0,0,0-.276.81,1.193,1.193,0,0,0,.52,1.054A2.292,2.292,0,0,0,7.75-1Zm7.591-10.636V0H14V-11.636Zm3.8,0V0H17.8V-11.636Z" transform="translate(5424 -246.055)" fill="#666"/></g></svg>