<svg xmlns="http://www.w3.org/2000/svg" width="120" height="48" viewBox="0 0 120 48"><g transform="translate(-1 -1)"><rect width="120" height="48" transform="translate(1 1)" fill="#d9d9d9"/><path d="M-25.726,0V-17.455h1.594V-1.432h8.318V0Zm13.2,0V-13.091H-11V0Zm.776-15.341a1.106,1.106,0,0,1-.8-.324,1.035,1.035,0,0,1-.332-.767,1.031,1.031,0,0,1,.332-.771,1.114,1.114,0,0,1,.8-.32,1.129,1.129,0,0,1,.805.32,1.025,1.025,0,0,1,.337.771,1.029,1.029,0,0,1-.337.767A1.121,1.121,0,0,1-11.749-15.341ZM-1.982,5.182a6.347,6.347,0,0,1-3.268-.75A4.688,4.688,0,0,1-7.1,2.557l1.244-.818a4.778,4.778,0,0,0,.754.976,3.621,3.621,0,0,0,1.236.793,4.991,4.991,0,0,0,1.879.311A4.3,4.3,0,0,0,.827,2.945,3.279,3.279,0,0,0,1.9.247V-2.7H1.76a4.857,4.857,0,0,1-.75,1.189,3.873,3.873,0,0,1-1.3.984,4.475,4.475,0,0,1-1.977.392A5.058,5.058,0,0,1-5.045-.912a5.262,5.262,0,0,1-1.909-2.22A7.889,7.889,0,0,1-7.649-6.58a8.447,8.447,0,0,1,.678-3.5,5.548,5.548,0,0,1,1.9-2.348,4.862,4.862,0,0,1,2.838-.844,4.18,4.18,0,0,1,1.994.426A4.014,4.014,0,0,1,1.036-11.8a5.856,5.856,0,0,1,.75,1.206h.153v-2.5H3.422V.341a4.881,4.881,0,0,1-.7,2.732A4.225,4.225,0,0,1,.793,4.662,7.031,7.031,0,0,1-1.982,5.182Zm-.1-6.707A3.528,3.528,0,0,0,.865-2.881,5.912,5.912,0,0,0,1.922-6.605a7.417,7.417,0,0,0-.469-2.727A4.254,4.254,0,0,0,.094-11.207a3.476,3.476,0,0,0-2.178-.682,3.466,3.466,0,0,0-2.212.707,4.372,4.372,0,0,0-1.364,1.9,7.335,7.335,0,0,0-.464,2.672A6.017,6.017,0,0,0-5.08-2.94,3.5,3.5,0,0,0-2.084-1.526ZM8.962-8.182V0H7.445V-17.455H8.962v6.418H9.1a3.661,3.661,0,0,1,1.428-1.619,4.547,4.547,0,0,1,2.45-.605,4.4,4.4,0,0,1,3.23,1.219A4.787,4.787,0,0,1,17.442-8.48V0H15.916V-8.386a3.525,3.525,0,0,0-.9-2.553,3.21,3.21,0,0,0-2.425-.933,3.606,3.606,0,0,0-2.6.989A3.566,3.566,0,0,0,8.962-8.182ZM26.6-13.091v1.321h-2.77v8.352a1.987,1.987,0,0,0,.6,1.683,2.244,2.244,0,0,0,1.376.447,2.934,2.934,0,0,0,.511-.038q.213-.038.375-.081l.324,1.372a3.547,3.547,0,0,1-.541.158A3.8,3.8,0,0,1,25.675.2,3.728,3.728,0,0,1,24.064-.17,3.108,3.108,0,0,1,22.8-1.261a3.137,3.137,0,0,1-.49-1.8v-8.71H20.357v-1.321h1.952v-3.136h1.526v3.136Z" transform="translate(61 34)" fill="#666"/></g></svg>