<svg xmlns="http://www.w3.org/2000/svg" width="140" height="80" viewBox="0 0 140 80"><g transform="translate(-1 -1)"><g transform="translate(1 1)" fill="#d9d9d9" stroke="#bfbfbf" stroke-width="2"><rect width="140" height="80" stroke="none"/><rect x="1" y="1" width="138" height="78" fill="none"/></g><g transform="translate(-23.759 -12.882)"><g transform="translate(33 22)" fill="none"><path d="M2.233,0H45.767C47,0,48,1.48,48,3.306V30.577c0,1.826-1,3.306-2.233,3.306H2.233C1,33.882,0,32.4,0,30.577V3.306C0,1.48,1,0,2.233,0Z" stroke="none"/><path d="M 4 3.999998092651367 L 4 29.88235664367676 L 44 29.88235664367676 L 44 3.999998092651367 L 4 3.999998092651367 M 2.232559204101562 -3.814697265625e-06 L 45.76744079589844 -3.814697265625e-06 C 47.00045013427734 -3.814697265625e-06 48 1.479969024658203 48 3.305597305297852 L 48 30.57675743103027 C 48 32.40238571166992 47.00045013427734 33.88235855102539 45.76744079589844 33.88235855102539 L 2.232559204101562 33.88235855102539 C 0.9995498657226562 33.88235855102539 0 32.40238571166992 0 30.57675743103027 L 0 3.305597305297852 C 0 1.479969024658203 0.9995498657226562 -3.814697265625e-06 2.232559204101562 -3.814697265625e-06 Z" stroke="none" fill="#707070"/></g><path d="M46.046,15.045A3.729,3.729,0,0,0,42.622,17a2.9,2.9,0,0,0,.771,3.5A4.082,4.082,0,0,0,47.4,21.2a3.229,3.229,0,0,0,2.279-2.958A3.446,3.446,0,0,0,46.046,15.045Zm-2.92,16h29.2V24.64l-8.781-7.284L51.887,27.2c-3.81-3.344-4.381-3.446-4.381-3.446s-.571.1-4.381,3.446Z" transform="translate(-0.249 15.872)" fill="#666"/></g></g></svg>