<svg xmlns="http://www.w3.org/2000/svg" width="120" height="80" viewBox="0 0 120 80"><g transform="translate(-1 -1)"><path d="M0 0h120v80H0z" transform="translate(1 1)" fill="#dee2e6"/><g transform="translate(17 2)"><path d="M0 0h20v5H0z" transform="translate(31 64)" fill="#6c757d"/><path d="M0 0h40v5H0z" transform="translate(21 54)" fill="#6c757d"/><path d="M0 0h30v5H0z" transform="translate(26 44)" fill="#6c757d"/><path d="M73.033 7.71H40.527a3.753 3.753.0 0 0-3.747 3.751v22.5a3.753 3.753.0 0 0 3.747 3.751H73.033a3.753 3.753.0 0 0 3.747-3.751v-22.5A3.753 3.753.0 0 0 73.033 7.71zm-.474 26.249H41a.472.472.0 0 1-.474-.463V11.932A.472.472.0 0 1 41 11.461H72.559a.472.472.0 0 1 .474.471V33.5a.472.472.0 0 1-.474.462zM46.78 14.587a3.144 3.144.0 0 0-2.929 1.906 3.113 3.113.0 0 0 .659 3.418 3.135 3.135.0 1 0 2.27-5.324zm-2.5 15.638H69.261v-6.26l-6.839-6.851a.943.943.0 0 0-1.318.0l-9.328 9.352-3.084-3.092a.934.934.0 0 0-1.326.0l-3.084 3.092z" transform="translate(-15.78 1.29)" fill="#6c757d"/></g></g></svg>