<svg xmlns="http://www.w3.org/2000/svg" width="140" height="100" viewBox="0 0 140 100"><g transform="translate(-1 7.5)"><g transform="translate(1 -7.5)" fill="#d9d9d9" stroke="#bfbfbf" stroke-width="2"><rect width="140" height="100" stroke="none"/><rect x="1" y="1" width="138" height="98" fill="none"/></g><rect width="20" height="5" transform="translate(31.361 69.5)" fill="#666"/><rect width="44.98" height="5" transform="translate(31.361 59.5)" fill="#666"/><rect width="79.639" height="10" transform="translate(31.361 44.5)" fill="#666"/><path d="M92.11,7.71H21.089a4.168,4.168,0,0,0-4.309,4v24a4.168,4.168,0,0,0,4.309,4H92.11a4.168,4.168,0,0,0,4.309-4v-24a4.168,4.168,0,0,0-4.309-4Zm-.545,28H21.633a.526.526,0,0,1-.545-.493v-23a.525.525,0,0,1,.545-.5H91.566a.525.525,0,0,1,.545.5v23a.526.526,0,0,1-.545.493ZM45.985,15.045a3.637,3.637,0,0,0-3.368,2.033,3.146,3.146,0,0,0,.758,3.646,3.839,3.839,0,0,0,3.945.739,3.344,3.344,0,0,0,2.241-3.084A3.47,3.47,0,0,0,45.985,15.045ZM43.113,31.726H71.837V25.048L63.973,17.74a1.146,1.146,0,0,0-1.515,0L51.73,27.716l-3.546-3.3a1.134,1.134,0,0,0-1.525,0l-3.546,3.3Z" transform="translate(14.22 -0.21)" fill="#666"/></g></svg>