<svg id="Layer_1" data-name="Layer 1" xmlns="http://www.w3.org/2000/svg" viewBox="0 0 120 80"><defs><style>.cls-1{fill:#fff;stroke:#9e9e9e;stroke-miterlimit:10;}.cls-2{fill:#9e9e9e;}.cls-3{fill:#a1a1a1;}</style></defs><rect class="cls-1" x="1" y="1" width="118" height="78.5" rx="2"/><path class="cls-2" d="M78.87,7.71H41.13a4.37,4.37,0,0,0-4.35,4.38V38.36a4.37,4.37,0,0,0,4.35,4.38H78.87a4.37,4.37,0,0,0,4.35-4.38V12.09A4.37,4.37,0,0,0,78.87,7.71Zm-.55,30.65H41.68a.55.55,0,0,1-.55-.54V12.64a.55.55,0,0,1,.55-.55H78.32a.55.55,0,0,1,.55.55V37.82A.55.55,0,0,1,78.32,38.36ZM48.39,15.74A3.65,3.65,0,1,0,52,19.39,3.64,3.64,0,0,0,48.39,15.74ZM45.49,34h29V26.69l-7.94-8a1.09,1.09,0,0,0-1.53,0L54.19,29.61,50.61,26a1.08,1.08,0,0,0-1.54,0l-3.58,3.61Z"/><rect class="cls-3" x="42.73" y="48.37" width="37.15" height="4.67"/><rect class="cls-3" x="50.52" y="68.7" width="21.57" height="4.67"/><rect class="cls-3" x="38.09" y="58.58" width="46.44" height="4.67"/></svg>