<svg xmlns="http://www.w3.org/2000/svg" width="120" height="80" viewBox="0 0 120 80"><g transform="translate(-1 -1)"><rect width="120" height="80" transform="translate(1 1)" fill="#dee2e6"/><g transform="translate(13.361 2.985)"><rect width="20" height="5" transform="translate(8 66.515)" fill="#6c757d"/><rect width="44.98" height="5" transform="translate(8 56.515)" fill="#6c757d"/><path d="M92.452,7.71H21.108a4.179,4.179,0,0,0-4.328,4v24a4.179,4.179,0,0,0,4.328,4H92.452a4.179,4.179,0,0,0,4.328-4v-24a4.179,4.179,0,0,0-4.328-4Zm-.547,28H21.655a.527.527,0,0,1-.547-.493v-23a.526.526,0,0,1,.547-.5H91.9a.526.526,0,0,1,.547.5v23a.527.527,0,0,1-.547.493ZM46.117,15.045a3.656,3.656,0,0,0-3.384,2.033,3.136,3.136,0,0,0,.762,3.646,3.87,3.87,0,0,0,3.963.739,3.346,3.346,0,0,0,2.251-3.084A3.479,3.479,0,0,0,46.117,15.045ZM43.232,31.726H72.087V25.048l-7.9-7.308a1.155,1.155,0,0,0-1.522,0L51.888,27.716l-3.562-3.3a1.143,1.143,0,0,0-1.532,0l-3.562,3.3Z" transform="translate(-9.141 11.805)" fill="#6c757d"/><rect width="79.639" height="10" transform="translate(8 4.515)" fill="#6c757d"/></g></g></svg>