<svg id="Layer_1" data-name="Layer 1" xmlns="http://www.w3.org/2000/svg" viewBox="0 0 50 50"><defs><style>.cls-1{fill:#fff;stroke:#9e9e9e;stroke-miterlimit:10;}.cls-2{fill:#9e9e9e;}.cls-3{fill:#a1a1a1;}</style></defs><rect class="cls-1" x="1" y="1" width="48" height="48" rx="2"/><path class="cls-2" d="M34.75,8H15.25A2.25,2.25,0,0,0,13,10.25v13.5A2.25,2.25,0,0,0,15.25,26h19.5A2.25,2.25,0,0,0,37,23.75V10.25A2.25,2.25,0,0,0,34.75,8Zm-.28,15.75H15.53a.29.29,0,0,1-.28-.28V10.53a.29.29,0,0,1,.28-.28H34.47a.29.29,0,0,1,.28.28V23.47A.29.29,0,0,1,34.47,23.75ZM19,12.13A1.88,1.88,0,1,0,20.88,14,1.86,1.86,0,0,0,19,12.13ZM17.5,21.5h15V17.75l-4.1-4.1a.57.57,0,0,0-.8,0L22,19.25,20.15,17.4a.57.57,0,0,0-.8,0L17.5,19.25Z"/><rect class="cls-3" x="13" y="29.2" width="19.2" height="2.4"/><rect class="cls-3" x="13" y="39.2" width="11.15" height="2.4"/><rect class="cls-3" x="13" y="34" width="24" height="2.4"/></svg>