<svg xmlns="http://www.w3.org/2000/svg" width="119" height="79.5" viewBox="0 0 119 79.5">
  <g id="ParagraphInfoImageBottom" transform="translate(-0.5 -0.5)">
    <rect id="Rectangle_260" data-name="Rectangle 260" width="118" height="78.5" rx="2" transform="translate(1 1)" fill="#fff" stroke="#9e9e9e" stroke-miterlimit="10" stroke-width="1"/>
    <path id="Path_634" data-name="Path 634" d="M78.87,7.71H41.13a4.37,4.37,0,0,0-4.35,4.38V38.36a4.37,4.37,0,0,0,4.35,4.38H78.87a4.37,4.37,0,0,0,4.35-4.38V12.09a4.37,4.37,0,0,0-4.35-4.38Zm-.55,30.65H41.68a.55.55,0,0,1-.55-.54V12.64a.55.55,0,0,1,.55-.55H78.32a.55.55,0,0,1,.55.55V37.82a.55.55,0,0,1-.55.54ZM48.39,15.74A3.65,3.65,0,1,0,52,19.39a3.65,3.65,0,0,0-3.61-3.65ZM45.49,34h29V26.69l-7.94-8a1.09,1.09,0,0,0-1.53,0L54.19,29.61,50.61,26a1.08,1.08,0,0,0-1.54,0l-3.58,3.61Z" transform="translate(0 30)" fill="#9e9e9e"/>
    <rect id="Rectangle_261" data-name="Rectangle 261" width="37.15" height="4.67" transform="translate(36.78 8.37)" fill="#a1a1a1"/>
    <rect id="Rectangle_262" data-name="Rectangle 262" width="21.57" height="4.67" transform="translate(36.78 28.7)" fill="#a1a1a1"/>
    <rect id="Rectangle_263" data-name="Rectangle 263" width="46.44" height="4.67" transform="translate(36.78 18.58)" fill="#a1a1a1"/>
  </g>
</svg>
