<svg xmlns="http://www.w3.org/2000/svg" width="118" height="78" viewBox="0 0 118 78">
  <g id="poster-small" transform="translate(-1 -1)">
    <rect id="Rectangle_206" data-name="Rectangle 206" width="118" height="78" transform="translate(1 1)" fill="#ced4da"/>
    <path id="Path_633" data-name="Path 633" d="M5.4,29.72a1.6,1.6,0,0,0-.608-.128H-1.6a1.6,1.6,0,0,0-1.6,1.6,1.6,1.6,0,0,0,1.6,1.6H.942l-8.475,8.459a1.6,1.6,0,0,0-.473,1.135,1.6,1.6,0,0,0,.473,1.135,1.6,1.6,0,0,0,1.135.473,1.6,1.6,0,0,0,1.135-.473L3.2,35.045v2.543a1.6,1.6,0,0,0,3.2,0v-6.4A1.624,1.624,0,0,0,5.4,29.72ZM4.8-3.2A1.6,1.6,0,0,0,3.2-1.6V.941L-5.262-7.534a1.606,1.606,0,0,0-2.271,0,1.606,1.606,0,0,0,0,2.271L.942,3.2H-1.6A1.6,1.6,0,0,0-3.2,4.8a1.6,1.6,0,0,0,1.6,1.6H4.8A1.624,1.624,0,0,0,6.4,4.8V-1.6A1.6,1.6,0,0,0,4.8-3.2ZM30.585,6.266a1.6,1.6,0,0,0,.608.128h6.4a1.6,1.6,0,0,0,0-3.2H35.046l8.475-8.459a1.606,1.606,0,0,0,0-2.271,1.606,1.606,0,0,0-2.271,0L32.791.941V-1.6a1.6,1.6,0,0,0-1.6-1.6,1.6,1.6,0,0,0-1.6,1.6V4.8a1.624,1.624,0,0,0,.991,1.471ZM35.046,32.79h2.543a1.6,1.6,0,0,0,0-3.2h-6.4a1.624,1.624,0,0,0-1.6,1.6v6.4a1.6,1.6,0,0,0,3.2,0V35.045l8.459,8.475a1.606,1.606,0,1,0,2.271-2.271Z" transform="translate(42.006 22.005)" fill="#6c757d"/>
  </g>
</svg>
