<svg xmlns="http://www.w3.org/2000/svg" width="118" height="78" viewBox="0 0 118 78">
  <g id="poster-large" transform="translate(-1 -1)">
    <rect id="Rectangle_206" data-name="Rectangle 206" width="118" height="78" transform="translate(1 1)" fill="#ced4da"/>
    <path id="Path_632" data-name="Path 632" d="M-22.336,36.064l-8.464,8.48V42a1.6,1.6,0,0,0-1.6-1.6A1.6,1.6,0,0,0-34,42v6.4a1.6,1.6,0,0,0,.128.608,1.6,1.6,0,0,0,.864.864A1.6,1.6,0,0,0-32.4,50H-26a1.6,1.6,0,0,0,1.6-1.6A1.6,1.6,0,0,0-26,46.8h-2.544l8.48-8.464a1.607,1.607,0,0,0,0-2.272A1.607,1.607,0,0,0-22.336,36.064ZM-28.544-10.8H-26a1.6,1.6,0,0,0,1.6-1.6A1.6,1.6,0,0,0-26-14h-6.4a1.6,1.6,0,0,0-.608.128,1.6,1.6,0,0,0-.864.864A1.6,1.6,0,0,0-34-12.4V-6a1.6,1.6,0,0,0,1.6,1.6A1.6,1.6,0,0,0-30.8-6V-8.544l8.464,8.48A1.6,1.6,0,0,0-21.2.409a1.6,1.6,0,0,0,1.136-.473A1.6,1.6,0,0,0-19.591-1.2a1.6,1.6,0,0,0-.473-1.136ZM68.4,40.4A1.6,1.6,0,0,0,66.8,42v2.544l-8.464-8.48a1.607,1.607,0,0,0-2.272,2.272l8.48,8.464H62A1.6,1.6,0,0,0,62,50h6.4A1.625,1.625,0,0,0,70,48.4V42A1.6,1.6,0,0,0,68.4,40.4Zm1.472-53.408a1.6,1.6,0,0,0-.864-.864A1.6,1.6,0,0,0,68.4-14H62a1.6,1.6,0,0,0-1.6,1.6A1.6,1.6,0,0,0,62-10.8h2.544l-8.48,8.464A1.6,1.6,0,0,0,55.591-1.2a1.6,1.6,0,0,0,.473,1.136A1.6,1.6,0,0,0,57.2.409a1.6,1.6,0,0,0,1.136-.473L66.8-8.544V-6a1.6,1.6,0,0,0,1.6,1.6A1.6,1.6,0,0,0,70-6v-6.4A1.6,1.6,0,0,0,69.872-13.008Z" transform="translate(42 22)" fill="#6c757d"/>
  </g>
</svg>
