<svg id="Layer_1" data-name="Layer 1" xmlns="http://www.w3.org/2000/svg" viewBox="0 0 50 50"><defs><style>.cls-1{fill:#fff;}.cls-1,.cls-3,.cls-4{stroke:#9e9e9e;stroke-miterlimit:10;}.cls-2{fill:#d5d3d2;}.cls-3,.cls-4{fill:none;}.cls-4{stroke-dasharray:4 4;}</style></defs><rect class="cls-1" x="1" y="1" width="48" height="48" rx="2" transform="translate(50) rotate(90)"/><rect class="cls-2" x="13" y="1.65" width="24" height="16.49"/><rect class="cls-2" x="13" y="31.65" width="24" height="16.49"/><polyline class="cls-3" points="15 19.25 13 19.25 13 18.25 15 18.25"/><line class="cls-4" x1="19" y1="18.25" x2="33" y2="18.25"/><polyline class="cls-3" points="35 18.25 37 18.25 37 19.25 35 19.25"/><line class="cls-4" x1="31" y1="19.25" x2="17" y2="19.25"/><polyline class="cls-3" points="15.1 31.75 13.1 31.75 13.1 30.75 15.1 30.75"/><line class="cls-4" x1="19.1" y1="30.75" x2="33.1" y2="30.75"/><polyline class="cls-3" points="35.1 30.75 37.1 30.75 37.1 31.75 35.1 31.75"/><line class="cls-4" x1="31.1" y1="31.75" x2="17.1" y2="31.75"/></svg>