<svg id="Layer_1" data-name="Layer 1" xmlns="http://www.w3.org/2000/svg" viewBox="0 0 50 50"><defs><style>.cls-1{fill:#fff;}.cls-1,.cls-3,.cls-4{stroke:#9e9e9e;stroke-miterlimit:10;}.cls-2{fill:#d5d3d2;}.cls-3,.cls-4{fill:none;}.cls-4{stroke-dasharray:4 4;}</style></defs><rect class="cls-1" x="1" y="1" width="48" height="48" rx="2"/><rect class="cls-2" x="1.65" y="13" width="16.49" height="24"/><rect class="cls-2" x="31.65" y="13" width="16.49" height="24"/><polyline class="cls-3" points="19.25 35 19.25 37 18.25 37 18.25 35"/><line class="cls-4" x1="18.25" y1="31" x2="18.25" y2="17"/><polyline class="cls-3" points="18.25 15 18.25 13 19.25 13 19.25 15"/><line class="cls-4" x1="19.25" y1="19" x2="19.25" y2="33"/><polyline class="cls-3" points="31.75 34.9 31.75 36.9 30.75 36.9 30.75 34.9"/><line class="cls-4" x1="30.75" y1="30.9" x2="30.75" y2="16.9"/><polyline class="cls-3" points="30.75 14.9 30.75 12.9 31.75 12.9 31.75 14.9"/><line class="cls-4" x1="31.75" y1="18.9" x2="31.75" y2="32.9"/></svg>