<svg xmlns="http://www.w3.org/2000/svg" width="147" height="65" viewBox="0 0 147 65"><g transform="translate(-5338 317)"><rect width="147" height="65" transform="translate(5338 -317)" fill="#d9d9d9"/><path d="M11.173-12.545a2.564,2.564,0,0,0-1.192-1.928,4.574,4.574,0,0,0-2.565-.686,4.243,4.243,0,0,0-2.679.788,2.421,2.421,0,0,0-1.013,1.989,1.96,1.96,0,0,0,.551,1.45,3.894,3.894,0,0,0,1.307.858,11.494,11.494,0,0,0,1.376.47l1.7.457a15.1,15.1,0,0,1,1.458.474,6.918,6.918,0,0,1,1.544.821A4.265,4.265,0,0,1,12.88-6.526a3.814,3.814,0,0,1,.482,1.985,4.422,4.422,0,0,1-.706,2.45A4.869,4.869,0,0,1,10.6-.351,7.565,7.565,0,0,1,7.318.294,6.637,6.637,0,0,1,3.038-.98,4.512,4.512,0,0,1,1.307-4.312H3.4a2.585,2.585,0,0,0,.641,1.564,3.363,3.363,0,0,0,1.421.915,5.646,5.646,0,0,0,1.858.3A5.429,5.429,0,0,0,9.4-1.915a3.527,3.527,0,0,0,1.462-1.062,2.5,2.5,0,0,0,.539-1.6,1.962,1.962,0,0,0-.466-1.356,3.416,3.416,0,0,0-1.225-.849A12.874,12.874,0,0,0,8.07-7.351L6.011-7.939a7.665,7.665,0,0,1-3.1-1.609,3.533,3.533,0,0,1-1.143-2.736,4.06,4.06,0,0,1,.764-2.454,5.054,5.054,0,0,1,2.058-1.634,6.964,6.964,0,0,1,2.9-.584,6.836,6.836,0,0,1,2.875.576,5.036,5.036,0,0,1,2,1.572,3.921,3.921,0,0,1,.78,2.262ZM24.339-5.129v-7.416h1.928V0H24.339V-2.124h-.131A4.086,4.086,0,0,1,22.837-.5a3.945,3.945,0,0,1-2.352.666A3.9,3.9,0,0,1,17.577-1a4.923,4.923,0,0,1-1.143-3.569v-7.972h1.928V-4.7a3.057,3.057,0,0,0,.772,2.189,2.6,2.6,0,0,0,1.972.817,3.307,3.307,0,0,0,1.466-.368,3.223,3.223,0,0,0,1.258-1.127A3.4,3.4,0,0,0,24.339-5.129ZM30.057,0V-16.727h1.928v6.175h.163q.212-.327.592-.837a3.457,3.457,0,0,1,1.094-.915,3.947,3.947,0,0,1,1.94-.4,4.98,4.98,0,0,1,2.793.792A5.271,5.271,0,0,1,40.454-9.67a8.05,8.05,0,0,1,.678,3.43,8.12,8.12,0,0,1-.678,3.451A5.317,5.317,0,0,1,38.576-.535a4.893,4.893,0,0,1-2.769.8,3.98,3.98,0,0,1-1.936-.4,3.515,3.515,0,0,1-1.119-.923q-.392-.519-.6-.862h-.229V0Zm1.895-6.273a5.955,5.955,0,0,0,.927,3.467A3.048,3.048,0,0,0,35.545-1.47a3.163,3.163,0,0,0,2.021-.641,3.907,3.907,0,0,0,1.225-1.732,6.822,6.822,0,0,0,.412-2.43,6.693,6.693,0,0,0-.4-2.389,3.754,3.754,0,0,0-1.217-1.691,3.245,3.245,0,0,0-2.038-.625,3.069,3.069,0,0,0-2.679,1.3A5.793,5.793,0,0,0,31.952-6.273Zm17.577-6.273v1.634H46.849v7.318a2.44,2.44,0,0,0,.241,1.221,1.182,1.182,0,0,0,.621.539,2.388,2.388,0,0,0,.8.135,3.044,3.044,0,0,0,.523-.037q.2-.037.327-.061l.392,1.732a4.242,4.242,0,0,1-.547.151,4.234,4.234,0,0,1-.89.078,3.852,3.852,0,0,1-1.6-.351,3.145,3.145,0,0,1-1.29-1.07,3.055,3.055,0,0,1-.51-1.813v-7.841H43.027v-1.634h1.895v-3.006h1.928v3.006ZM52.436,0V-12.545h1.928V0Zm.98-14.636a1.356,1.356,0,0,1-.968-.384,1.227,1.227,0,0,1-.4-.923,1.227,1.227,0,0,1,.4-.923,1.356,1.356,0,0,1,.968-.384,1.356,1.356,0,0,1,.968.384,1.227,1.227,0,0,1,.4.923,1.227,1.227,0,0,1-.4.923A1.356,1.356,0,0,1,53.416-14.636Zm9.932,2.091v1.634H60.669v7.318a2.44,2.44,0,0,0,.241,1.221,1.182,1.182,0,0,0,.621.539,2.388,2.388,0,0,0,.8.135,3.044,3.044,0,0,0,.523-.037q.2-.037.327-.061l.392,1.732a4.242,4.242,0,0,1-.547.151,4.234,4.234,0,0,1-.89.078,3.852,3.852,0,0,1-1.6-.351,3.145,3.145,0,0,1-1.29-1.07,3.055,3.055,0,0,1-.51-1.813v-7.841H56.847v-1.634h1.895v-3.006h1.928v3.006Zm5.1-4.182V0H66.517V-16.727ZM77.233.261a5.856,5.856,0,0,1-3.124-.8A5.305,5.305,0,0,1,72.091-2.8a7.624,7.624,0,0,1-.706-3.377,7.783,7.783,0,0,1,.706-3.4,5.536,5.536,0,0,1,1.977-2.3,5.309,5.309,0,0,1,2.969-.829,5.947,5.947,0,0,1,1.936.327,4.823,4.823,0,0,1,1.74,1.058,5.118,5.118,0,0,1,1.25,1.932,8.217,8.217,0,0,1,.466,2.957v.817H73.321A4.371,4.371,0,0,0,74.46-2.54a3.76,3.76,0,0,0,2.773,1.07,3.725,3.725,0,0,0,1.952-.49,2.792,2.792,0,0,0,1.184-1.47l1.862.523a4.185,4.185,0,0,1-1.764,2.3A5.74,5.74,0,0,1,77.233.261ZM73.321-7.286h7.147a3.834,3.834,0,0,0-.931-2.642,3.174,3.174,0,0,0-2.5-1.05,3.484,3.484,0,0,0-1.911.515A3.7,3.7,0,0,0,73.852-9.1,4.323,4.323,0,0,0,73.321-7.286Z" transform="translate(5348 -270)" fill="#666"/></g></svg>