<svg xmlns="http://www.w3.org/2000/svg" width="147" height="65" viewBox="0 0 147 65"><g transform="translate(-5336 350)"><rect width="147" height="65" transform="translate(5336 -350)" fill="#d9d9d9"/><path d="M13.116-14.727a3.01,3.01,0,0,0-1.4-2.263A5.37,5.37,0,0,0,8.706-17.8a4.98,4.98,0,0,0-3.145.925,2.842,2.842,0,0,0-1.189,2.335,2.3,2.3,0,0,0,.647,1.7,4.571,4.571,0,0,0,1.534,1.007,13.493,13.493,0,0,0,1.616.551l1.994.537a17.724,17.724,0,0,1,1.711.556,8.121,8.121,0,0,1,1.812.964A5.006,5.006,0,0,1,15.12-7.661a4.478,4.478,0,0,1,.566,2.33,5.191,5.191,0,0,1-.829,2.876A5.716,5.716,0,0,1,12.441-.412a8.881,8.881,0,0,1-3.85.757,7.791,7.791,0,0,1-5.024-1.5A5.3,5.3,0,0,1,1.534-5.062H3.989a3.035,3.035,0,0,0,.753,1.836A3.948,3.948,0,0,0,6.41-2.153a6.627,6.627,0,0,0,2.181.35,6.374,6.374,0,0,0,2.445-.446,4.14,4.14,0,0,0,1.716-1.246,2.934,2.934,0,0,0,.633-1.874,2.3,2.3,0,0,0-.547-1.592,4.01,4.01,0,0,0-1.438-1,15.113,15.113,0,0,0-1.927-.671L7.057-9.32a9,9,0,0,1-3.643-1.889A4.148,4.148,0,0,1,2.071-14.42a4.766,4.766,0,0,1,.9-2.881,5.933,5.933,0,0,1,2.416-1.918,8.175,8.175,0,0,1,3.4-.686,8.025,8.025,0,0,1,3.375.676A5.912,5.912,0,0,1,14.5-17.383a4.6,4.6,0,0,1,.916,2.656ZM28.572-6.021v-8.706h2.263V0H28.572V-2.493h-.153a4.8,4.8,0,0,1-1.611,1.9,4.631,4.631,0,0,1-2.761.781,4.573,4.573,0,0,1-3.413-1.371,5.779,5.779,0,0,1-1.342-4.19v-9.358h2.263v9.2a3.588,3.588,0,0,0,.906,2.57,3.046,3.046,0,0,0,2.316.959A3.882,3.882,0,0,0,26.5-2.426a3.784,3.784,0,0,0,1.477-1.323A3.992,3.992,0,0,0,28.572-6.021ZM35.284,0V-19.636h2.263v7.249h.192q.249-.384.7-.983a4.058,4.058,0,0,1,1.285-1.074A4.633,4.633,0,0,1,42-14.919a5.846,5.846,0,0,1,3.279.93,6.188,6.188,0,0,1,2.215,2.637,9.45,9.45,0,0,1,.8,4.027,9.532,9.532,0,0,1-.8,4.051A6.241,6.241,0,0,1,45.284-.628a5.744,5.744,0,0,1-3.25.935,4.673,4.673,0,0,1-2.272-.475,4.126,4.126,0,0,1-1.314-1.083q-.46-.609-.71-1.012H37.47V0Zm2.224-7.364A6.991,6.991,0,0,0,38.6-3.294a3.578,3.578,0,0,0,3.131,1.568A3.713,3.713,0,0,0,44.1-2.479a4.587,4.587,0,0,0,1.438-2.033,8.008,8.008,0,0,0,.484-2.852,7.858,7.858,0,0,0-.475-2.8,4.407,4.407,0,0,0-1.429-1.985,3.809,3.809,0,0,0-2.392-.733,3.6,3.6,0,0,0-3.145,1.525A6.8,6.8,0,0,0,37.509-7.364Zm20.634-7.364v1.918H55v8.591a2.864,2.864,0,0,0,.283,1.433,1.388,1.388,0,0,0,.729.633,2.8,2.8,0,0,0,.944.158,3.573,3.573,0,0,0,.614-.043q.24-.043.384-.072l.46,2.033A4.979,4.979,0,0,1,57.768.1a4.97,4.97,0,0,1-1.045.091,4.522,4.522,0,0,1-1.874-.412,3.692,3.692,0,0,1-1.515-1.256,3.586,3.586,0,0,1-.6-2.129v-9.2H50.51v-1.918h2.224v-3.528H55v3.528ZM61.555,0V-14.727h2.263V0Zm1.151-17.182a1.592,1.592,0,0,1-1.136-.451,1.441,1.441,0,0,1-.475-1.083A1.441,1.441,0,0,1,61.57-19.8a1.592,1.592,0,0,1,1.136-.451,1.592,1.592,0,0,1,1.136.451,1.441,1.441,0,0,1,.475,1.083,1.441,1.441,0,0,1-.475,1.083A1.592,1.592,0,0,1,62.706-17.182Zm11.659,2.455v1.918H71.22v8.591A2.864,2.864,0,0,0,71.5-2.785a1.388,1.388,0,0,0,.729.633,2.8,2.8,0,0,0,.944.158,3.573,3.573,0,0,0,.614-.043q.24-.043.384-.072l.46,2.033A4.979,4.979,0,0,1,73.991.1a4.971,4.971,0,0,1-1.045.091,4.522,4.522,0,0,1-1.874-.412,3.692,3.692,0,0,1-1.515-1.256,3.586,3.586,0,0,1-.6-2.129v-9.2H66.733v-1.918h2.224v-3.528H71.22v3.528Zm5.983-4.909V0H78.085V-19.636ZM90.665.307A6.875,6.875,0,0,1,87-.638a6.228,6.228,0,0,1-2.368-2.646A8.95,8.95,0,0,1,83.8-7.249a9.137,9.137,0,0,1,.829-3.993,6.5,6.5,0,0,1,2.32-2.7,6.232,6.232,0,0,1,3.485-.973,6.981,6.981,0,0,1,2.272.384,5.661,5.661,0,0,1,2.042,1.242,6.009,6.009,0,0,1,1.467,2.268,9.646,9.646,0,0,1,.547,3.471V-6.6H86.072A5.131,5.131,0,0,0,87.41-2.982a4.414,4.414,0,0,0,3.255,1.256A4.372,4.372,0,0,0,92.956-2.3a3.277,3.277,0,0,0,1.39-1.726l2.186.614A4.912,4.912,0,0,1,94.462-.719,6.738,6.738,0,0,1,90.665.307ZM86.072-8.553h8.39a4.5,4.5,0,0,0-1.093-3.1,3.726,3.726,0,0,0-2.934-1.232,4.089,4.089,0,0,0-2.244.6,4.348,4.348,0,0,0-1.5,1.6A5.075,5.075,0,0,0,86.072-8.553Z" transform="translate(5346 -303)" fill="#666"/></g></svg>