<svg xmlns="http://www.w3.org/2000/svg" width="147" height="65" viewBox="0 0 147 65"><g transform="translate(-5338 264)"><rect width="147" height="65" transform="translate(5338 -264)" fill="#d9d9d9"/><path d="M7.287-8.182a1.672,1.672,0,0,0-.778-1.257,2.983,2.983,0,0,0-1.673-.447,2.767,2.767,0,0,0-1.747.514,1.579,1.579,0,0,0-.661,1.3,1.278,1.278,0,0,0,.36.945,2.54,2.54,0,0,0,.852.559,7.5,7.5,0,0,0,.9.306l1.108.3a9.847,9.847,0,0,1,.951.309A4.512,4.512,0,0,1,7.6-5.122a2.781,2.781,0,0,1,.8.866,2.488,2.488,0,0,1,.314,1.294,2.884,2.884,0,0,1-.461,1.6A3.176,3.176,0,0,1,6.911-.229,4.934,4.934,0,0,1,4.773.192,4.328,4.328,0,0,1,1.982-.639,2.943,2.943,0,0,1,.852-2.812H2.216a1.686,1.686,0,0,0,.418,1.02,2.193,2.193,0,0,0,.927.6A3.682,3.682,0,0,0,4.773-1a3.541,3.541,0,0,0,1.358-.248,2.3,2.3,0,0,0,.953-.692,1.63,1.63,0,0,0,.352-1.041,1.28,1.28,0,0,0-.3-.884,2.228,2.228,0,0,0-.8-.554,8.4,8.4,0,0,0-1.071-.373L3.92-5.178A5,5,0,0,1,1.9-6.227a2.3,2.3,0,0,1-.746-1.784,2.648,2.648,0,0,1,.5-1.6,3.3,3.3,0,0,1,1.342-1.065,4.542,4.542,0,0,1,1.888-.381,4.458,4.458,0,0,1,1.875.376,3.285,3.285,0,0,1,1.3,1.025,2.557,2.557,0,0,1,.509,1.475Zm8.587,4.837V-8.182h1.257V0H15.874V-1.385h-.085a2.665,2.665,0,0,1-.895,1.057,2.573,2.573,0,0,1-1.534.434,2.541,2.541,0,0,1-1.9-.762,3.211,3.211,0,0,1-.746-2.328v-5.2h1.257v5.114a1.993,1.993,0,0,0,.5,1.428,1.692,1.692,0,0,0,1.286.533,2.156,2.156,0,0,0,.956-.24,2.1,2.1,0,0,0,.82-.735A2.218,2.218,0,0,0,15.874-3.345ZM19.6,0V-10.909h1.257v4.027h.107q.138-.213.386-.546a2.254,2.254,0,0,1,.714-.6,2.574,2.574,0,0,1,1.265-.264,3.248,3.248,0,0,1,1.822.517,3.438,3.438,0,0,1,1.23,1.465,5.25,5.25,0,0,1,.442,2.237,5.3,5.3,0,0,1-.442,2.251,3.467,3.467,0,0,1-1.225,1.47A3.191,3.191,0,0,1,23.352.17,2.6,2.6,0,0,1,22.09-.093a2.292,2.292,0,0,1-.73-.6q-.256-.338-.394-.562h-.149V0Zm1.236-4.091a3.884,3.884,0,0,0,.6,2.261,1.988,1.988,0,0,0,1.739.871A2.063,2.063,0,0,0,24.5-1.377a2.548,2.548,0,0,0,.8-1.129,4.449,4.449,0,0,0,.269-1.585A4.365,4.365,0,0,0,25.3-5.649a2.448,2.448,0,0,0-.794-1.1,2.116,2.116,0,0,0-1.329-.407,2,2,0,0,0-1.747.847A3.778,3.778,0,0,0,20.838-4.091ZM32.3-8.182v1.065H30.554v4.773a1.591,1.591,0,0,0,.157.8.771.771,0,0,0,.4.352,1.557,1.557,0,0,0,.525.088,1.985,1.985,0,0,0,.341-.024l.213-.04L32.45-.043a2.766,2.766,0,0,1-.357.1,2.761,2.761,0,0,1-.581.051,2.512,2.512,0,0,1-1.041-.229,2.051,2.051,0,0,1-.842-.7A1.992,1.992,0,0,1,29.3-2V-7.116H28.061V-8.182H29.3v-1.96h1.257v1.96ZM34.2,0V-8.182h1.257V0Zm.639-9.545a.885.885,0,0,1-.631-.25.8.8,0,0,1-.264-.6.8.8,0,0,1,.264-.6.885.885,0,0,1,.631-.25.885.885,0,0,1,.631.25.8.8,0,0,1,.264.6.8.8,0,0,1-.264.6A.885.885,0,0,1,34.837-9.545Zm6.477,1.364v1.065H39.567v4.773a1.591,1.591,0,0,0,.157.8.771.771,0,0,0,.4.352,1.557,1.557,0,0,0,.525.088,1.985,1.985,0,0,0,.341-.024l.213-.04.256,1.129a2.766,2.766,0,0,1-.357.1,2.761,2.761,0,0,1-.581.051,2.512,2.512,0,0,1-1.041-.229,2.051,2.051,0,0,1-.842-.7A1.992,1.992,0,0,1,38.31-2V-7.116H37.074V-8.182H38.31v-1.96h1.257v1.96Zm3.324-2.727V0H43.381V-10.909ZM50.369.17a3.819,3.819,0,0,1-2.037-.525,3.46,3.46,0,0,1-1.316-1.47,4.972,4.972,0,0,1-.461-2.2,5.076,5.076,0,0,1,.461-2.219,3.61,3.61,0,0,1,1.289-1.5,3.462,3.462,0,0,1,1.936-.541,3.878,3.878,0,0,1,1.262.213,3.145,3.145,0,0,1,1.135.69,3.338,3.338,0,0,1,.815,1.26,5.359,5.359,0,0,1,.3,1.928v.533H47.818a2.85,2.85,0,0,0,.743,2.008,2.452,2.452,0,0,0,1.808.7,2.429,2.429,0,0,0,1.273-.32,1.821,1.821,0,0,0,.772-.959l1.214.341A2.729,2.729,0,0,1,52.479-.4,3.743,3.743,0,0,1,50.369.17ZM47.818-4.751h4.661a2.5,2.5,0,0,0-.607-1.723,2.07,2.07,0,0,0-1.63-.684A2.272,2.272,0,0,0,49-6.824a2.415,2.415,0,0,0-.831.887A2.819,2.819,0,0,0,47.818-4.751Z" transform="translate(5348 -217)" fill="#666"/></g></svg>