<svg xmlns="http://www.w3.org/2000/svg" width="147" height="65" viewBox="0 0 147 65"><g transform="translate(-5338 456.732)"><rect width="147" height="65" transform="translate(5338 -456.732)" fill="#d9d9d9"/><path d="M17-19.091a3.9,3.9,0,0,0-1.815-2.933,6.961,6.961,0,0,0-3.9-1.044,6.456,6.456,0,0,0-4.077,1.2,3.684,3.684,0,0,0-1.541,3.026,2.983,2.983,0,0,0,.839,2.206A5.926,5.926,0,0,0,8.5-15.331a17.491,17.491,0,0,0,2.094.715l2.585.7a22.976,22.976,0,0,1,2.219.721,10.527,10.527,0,0,1,2.349,1.249A6.49,6.49,0,0,1,19.6-9.931a5.8,5.8,0,0,1,.733,3.02,6.728,6.728,0,0,1-1.075,3.729A7.41,7.41,0,0,1,16.127-.534a11.512,11.512,0,0,1-4.99.982A10.1,10.1,0,0,1,4.624-1.491,6.866,6.866,0,0,1,1.989-6.562H5.17a3.934,3.934,0,0,0,.976,2.38A5.117,5.117,0,0,0,8.309-2.79a8.591,8.591,0,0,0,2.828.454,8.262,8.262,0,0,0,3.169-.578A5.367,5.367,0,0,0,16.531-4.53a3.8,3.8,0,0,0,.82-2.43,2.986,2.986,0,0,0-.708-2.063,5.2,5.2,0,0,0-1.864-1.293,19.591,19.591,0,0,0-2.5-.87l-3.132-.895a11.665,11.665,0,0,1-4.723-2.449,5.377,5.377,0,0,1-1.74-4.164,6.178,6.178,0,0,1,1.162-3.735,7.69,7.69,0,0,1,3.132-2.486,10.6,10.6,0,0,1,4.406-.889,10.4,10.4,0,0,1,4.375.876A7.664,7.664,0,0,1,18.8-22.534a5.967,5.967,0,0,1,1.187,3.443ZM37.038-7.805V-19.091h2.933V0H37.038V-3.232h-.2A6.218,6.218,0,0,1,34.751-.764,6,6,0,0,1,31.172.249a5.928,5.928,0,0,1-4.425-1.777q-1.74-1.777-1.74-5.431V-19.091H27.94V-7.159a4.651,4.651,0,0,0,1.175,3.331,3.948,3.948,0,0,0,3,1.243,5.032,5.032,0,0,0,2.231-.559A4.905,4.905,0,0,0,36.262-4.86,5.175,5.175,0,0,0,37.038-7.805ZM45.739,0V-25.455h2.933v9.4h.249q.323-.5.9-1.274a5.26,5.26,0,0,1,1.665-1.392,6.006,6.006,0,0,1,2.952-.615,7.578,7.578,0,0,1,4.251,1.206,8.021,8.021,0,0,1,2.871,3.418A12.25,12.25,0,0,1,62.592-9.5a12.356,12.356,0,0,1-1.032,5.251A8.091,8.091,0,0,1,58.7-.814,7.446,7.446,0,0,1,54.489.4a6.057,6.057,0,0,1-2.946-.615,5.349,5.349,0,0,1-1.7-1.4q-.6-.789-.92-1.311h-.348V0Zm2.884-9.545a9.062,9.062,0,0,0,1.411,5.276,4.639,4.639,0,0,0,4.058,2.032,4.813,4.813,0,0,0,3.076-.976,5.946,5.946,0,0,0,1.864-2.635,10.381,10.381,0,0,0,.628-3.7,10.186,10.186,0,0,0-.615-3.635,5.712,5.712,0,0,0-1.852-2.573,4.938,4.938,0,0,0-3.1-.951,4.67,4.67,0,0,0-4.077,1.976A8.815,8.815,0,0,0,48.622-9.545Zm26.747-9.545v2.486H71.293V-5.469a3.713,3.713,0,0,0,.367,1.858,1.8,1.8,0,0,0,.945.82,3.634,3.634,0,0,0,1.224.205,4.631,4.631,0,0,0,.8-.056q.311-.056.5-.093l.6,2.635a6.454,6.454,0,0,1-.833.23A6.443,6.443,0,0,1,73.53.249,5.862,5.862,0,0,1,71.1-.286a4.786,4.786,0,0,1-1.964-1.628,4.649,4.649,0,0,1-.777-2.759V-16.605H65.476v-2.486h2.884v-4.574h2.933v4.574ZM79.794,0V-19.091h2.933V0Zm1.491-22.273a2.064,2.064,0,0,1-1.473-.584,1.868,1.868,0,0,1-.615-1.4,1.868,1.868,0,0,1,.615-1.4,2.064,2.064,0,0,1,1.473-.584,2.064,2.064,0,0,1,1.473.584,1.868,1.868,0,0,1,.615,1.4,1.868,1.868,0,0,1-.615,1.4A2.064,2.064,0,0,1,81.286-22.273ZM96.4-19.091v2.486H92.322V-5.469a3.713,3.713,0,0,0,.367,1.858,1.8,1.8,0,0,0,.945.82,3.634,3.634,0,0,0,1.224.205,4.631,4.631,0,0,0,.8-.056q.311-.056.5-.093l.6,2.635a6.454,6.454,0,0,1-.833.23A6.443,6.443,0,0,1,94.56.249a5.862,5.862,0,0,1-2.43-.534,4.786,4.786,0,0,1-1.964-1.628,4.649,4.649,0,0,1-.777-2.759V-16.605H86.506v-2.486h2.884v-4.574h2.933v4.574Zm7.756-6.364V0h-2.933V-25.455ZM117.528.4a8.912,8.912,0,0,1-4.754-1.224,8.073,8.073,0,0,1-3.07-3.43A11.6,11.6,0,0,1,108.629-9.4a11.844,11.844,0,0,1,1.075-5.177,8.425,8.425,0,0,1,3.008-3.5,8.078,8.078,0,0,1,4.518-1.262,9.05,9.05,0,0,1,2.946.5,7.339,7.339,0,0,1,2.647,1.61,7.789,7.789,0,0,1,1.9,2.939,12.5,12.5,0,0,1,.708,4.5v1.243H111.575a6.651,6.651,0,0,0,1.734,4.686,5.722,5.722,0,0,0,4.22,1.628,5.668,5.668,0,0,0,2.971-.746,4.248,4.248,0,0,0,1.8-2.237l2.834.8A6.368,6.368,0,0,1,122.45-.932,8.734,8.734,0,0,1,117.528.4Zm-5.953-11.484H122.45a5.835,5.835,0,0,0-1.417-4.021,4.83,4.83,0,0,0-3.8-1.6,5.3,5.3,0,0,0-2.908.783,5.636,5.636,0,0,0-1.939,2.069A6.578,6.578,0,0,0,111.575-11.087Z" transform="translate(5348 -412.732)" fill="#666"/></g></svg>