<svg xmlns="http://www.w3.org/2000/svg" width="147" height="65" viewBox="0 0 147 65"><g transform="translate(-5338 288)"><rect width="147" height="65" transform="translate(5338 -288)" fill="#d9d9d9"/><path d="M9.23-10.364a2.118,2.118,0,0,0-.985-1.592,3.779,3.779,0,0,0-2.119-.567,3.5,3.5,0,0,0-2.213.651,2,2,0,0,0-.837,1.643,1.619,1.619,0,0,0,.455,1.2,3.217,3.217,0,0,0,1.08.708,9.5,9.5,0,0,0,1.137.388l1.4.378a12.473,12.473,0,0,1,1.2.391,5.715,5.715,0,0,1,1.275.678,3.523,3.523,0,0,1,1.009,1.1,3.151,3.151,0,0,1,.4,1.64,3.653,3.653,0,0,1-.584,2.024A4.022,4.022,0,0,1,8.754-.29,6.25,6.25,0,0,1,6.045.243,5.482,5.482,0,0,1,2.51-.81,3.727,3.727,0,0,1,1.08-3.562H2.807a2.135,2.135,0,0,0,.53,1.292,2.778,2.778,0,0,0,1.174.756,4.664,4.664,0,0,0,1.535.246,4.485,4.485,0,0,0,1.721-.314,2.913,2.913,0,0,0,1.208-.877,2.065,2.065,0,0,0,.445-1.319A1.621,1.621,0,0,0,9.034-4.9a2.822,2.822,0,0,0-1.012-.7,10.635,10.635,0,0,0-1.356-.472l-1.7-.486A6.332,6.332,0,0,1,2.4-7.887a2.919,2.919,0,0,1-.945-2.26,3.354,3.354,0,0,1,.631-2.028,4.175,4.175,0,0,1,1.7-1.349,5.753,5.753,0,0,1,2.392-.482,5.647,5.647,0,0,1,2.375.476,4.161,4.161,0,0,1,1.65,1.3,3.239,3.239,0,0,1,.644,1.869ZM20.107-4.237v-6.126H21.7V0H20.107V-1.754H20A3.376,3.376,0,0,1,18.865-.415a3.259,3.259,0,0,1-1.943.55,3.218,3.218,0,0,1-2.4-.965,4.067,4.067,0,0,1-.945-2.949v-6.585h1.592v6.477a2.525,2.525,0,0,0,.638,1.808,2.143,2.143,0,0,0,1.629.675,2.732,2.732,0,0,0,1.211-.3,2.663,2.663,0,0,0,1.039-.931A2.809,2.809,0,0,0,20.107-4.237ZM24.83,0V-13.818h1.592v5.1h.135q.175-.27.489-.692a2.855,2.855,0,0,1,.9-.756,3.261,3.261,0,0,1,1.6-.334,4.114,4.114,0,0,1,2.308.654,4.354,4.354,0,0,1,1.559,1.855,6.65,6.65,0,0,1,.56,2.834,6.708,6.708,0,0,1-.56,2.851A4.392,4.392,0,0,1,31.867-.442,4.042,4.042,0,0,1,29.58.216a3.288,3.288,0,0,1-1.6-.334,2.9,2.9,0,0,1-.924-.762q-.324-.428-.5-.712h-.189V0Zm1.565-5.182a4.92,4.92,0,0,0,.766,2.864,2.518,2.518,0,0,0,2.2,1.1,2.613,2.613,0,0,0,1.67-.53,3.228,3.228,0,0,0,1.012-1.43,5.635,5.635,0,0,0,.341-2.007,5.529,5.529,0,0,0-.334-1.974,3.1,3.1,0,0,0-1.005-1.4,2.681,2.681,0,0,0-1.683-.516A2.535,2.535,0,0,0,27.151-8,4.785,4.785,0,0,0,26.395-5.182Zm14.52-5.182v1.349H38.7v6.045a2.015,2.015,0,0,0,.2,1.009.977.977,0,0,0,.513.445,1.973,1.973,0,0,0,.665.111,2.514,2.514,0,0,0,.432-.03l.27-.051L41.1-.054a3.5,3.5,0,0,1-.452.125,3.5,3.5,0,0,1-.735.064A3.182,3.182,0,0,1,38.6-.155a2.6,2.6,0,0,1-1.066-.884,2.524,2.524,0,0,1-.422-1.5V-9.014H35.544v-1.349h1.565v-2.483H38.7v2.483ZM43.317,0V-10.364h1.592V0Zm.81-12.091a1.12,1.12,0,0,1-.8-.317,1.014,1.014,0,0,1-.334-.762,1.014,1.014,0,0,1,.334-.762,1.12,1.12,0,0,1,.8-.317,1.12,1.12,0,0,1,.8.317,1.014,1.014,0,0,1,.334.762,1.014,1.014,0,0,1-.334.762A1.12,1.12,0,0,1,44.126-12.091Zm8.2,1.727v1.349H50.118v6.045a2.015,2.015,0,0,0,.2,1.009.977.977,0,0,0,.513.445,1.973,1.973,0,0,0,.665.111,2.514,2.514,0,0,0,.432-.03l.27-.051.324,1.43a3.5,3.5,0,0,1-.452.125,3.5,3.5,0,0,1-.735.064,3.182,3.182,0,0,1-1.319-.29,2.6,2.6,0,0,1-1.066-.884,2.524,2.524,0,0,1-.422-1.5V-9.014H46.96v-1.349h1.565v-2.483h1.592v2.483Zm4.21-3.455V0H54.949V-13.818ZM63.8.216A4.838,4.838,0,0,1,61.22-.449a4.382,4.382,0,0,1-1.667-1.862A6.3,6.3,0,0,1,58.97-5.1a6.43,6.43,0,0,1,.584-2.81,4.573,4.573,0,0,1,1.633-1.9,4.385,4.385,0,0,1,2.453-.685,4.913,4.913,0,0,1,1.6.27,3.984,3.984,0,0,1,1.437.874,4.228,4.228,0,0,1,1.032,1.6,6.788,6.788,0,0,1,.385,2.442v.675H60.569A3.611,3.611,0,0,0,61.51-2.1a3.106,3.106,0,0,0,2.291.884,3.077,3.077,0,0,0,1.613-.4,2.306,2.306,0,0,0,.978-1.214L67.93-2.4a3.457,3.457,0,0,1-1.457,1.9A4.742,4.742,0,0,1,63.8.216ZM60.569-6.018h5.9A3.168,3.168,0,0,0,65.7-8.2a2.622,2.622,0,0,0-2.065-.867,2.878,2.878,0,0,0-1.579.425A3.06,3.06,0,0,0,61.008-7.52,3.571,3.571,0,0,0,60.569-6.018Z" transform="translate(5348 -241)" fill="#666"/></g></svg>