<svg xmlns="http://www.w3.org/2000/svg" width="80" height="48" viewBox="0 0 80 48"><g transform="translate(-1 -1)"><g transform="translate(1 1)" fill="#d9d9d9" stroke="#bfbfbf" stroke-miterlimit="10" stroke-width="2"><rect width="80" height="48" stroke="none"/><rect x="1" y="1" width="78" height="46" fill="none"/></g><path d="M-18.9,0-17.9-3.341h5.761L-11.131,0h5.114l-5.761-17.454h-6.477L-24.017,0Zm2.08-6.886,1.739-5.761h.136l1.739,5.761ZM-4.347,0H.324V-2.148h.1A3.755,3.755,0,0,0,4.074.17c2.8,0,5.148-2.182,5.148-6.716,0-4.739-2.523-6.716-5.114-6.716A3.774,3.774,0,0,0,.426-10.807H.358v-6.648h-4.7Zm4.6-6.545c0-1.943.784-3.1,2.08-3.1s2.045,1.159,2.045,3.1-.75,3.1-2.045,3.1S.256-4.636.256-6.545ZM17.506.239c3.878,0,6.256-2.224,6.307-5.693H19.449c-.1,1.372-.844,2.114-1.875,2.114-1.236,0-2.045-1.057-2.045-3.2s.81-3.2,2.045-3.2c1.04,0,1.747.741,1.875,2.114h4.364c-.026-3.409-2.455-5.625-6.307-5.625-4.261,0-6.784,2.727-6.784,6.75S13.244.239,17.506.239Z" transform="translate(41 34)" fill="#666"/></g></svg>