<svg xmlns="http://www.w3.org/2000/svg" width="150.159" height="40.398"><defs><clipPath id="a"><path fill="none" d="M0 0h150.159v40.398H0z"/></clipPath></defs><g data-name="GLS-ATOMS/Logo"><g data-name="Group 9" clip-path="url(#a)"><path data-name="Fill 1" d="M115.489 6.808l-6.441 33.4 15.518.017 1.553-8.353h-7L124 6.808z" fill="#141b4d"/><g data-name="Group 8"><path data-name="Fill 2" d="M144.094 14.2a16.094 16.094 0 014.618.766l1.447-7.7a36.011 36.011 0 00-5.781-.476c-9.236 0-13.574 5.5-13.574 11.664 0 8.079 8.209 7.985 8.209 11.427 0 1.721-1.211 2.677-3.823 2.677a18.941 18.941 0 01-5.833-1l-1.579 8.254a36.621 36.621 0 006.571.586c8.254 0 14.036-5.5 14.036-12.142 0-7.842-8.252-7.984-8.252-11.427 0-1.529 1.025-2.629 3.961-2.629" fill="#141b4d"/><path data-name="Fill 4" d="M102.356 6.816c-12.685 0-20.827 9.5-20.827 21.156 0 7.293 3.837 12.329 13.527 12.329a29.064 29.064 0 0011.113-2.1l3.112-16.132h-8.517l-1.825 9.837a9.931 9.931 0 01-2.341.239c-4.257 0-5.8-2.348-5.8-5.467 0-5.8 3.556-11.8 10.81-11.8a21.752 21.752 0 016.266 1c.2.059.412.124.629.2a11.93 11.93 0 011.778.75l1.728-8.728a38.291 38.291 0 00-9.653-1.284" fill="#141b4d"/><path data-name="Fill 6" d="M38.62 6.917L36.336 18h15.758C39.039 37.342 13.125 34.058 6.271 26.038.372 19.13 5.469 7.306 22.957 0 5.647 5.267-4.071 19.1 1.638 28.417c6.471 10.558 26.648 14.962 44.582 9.837C58.2 34.042 63.317 28.141 65.186 24.96L62.252 40.3h11.779L80.42 6.917z" fill="#fcbf00"/></g></g></g></svg>