<svg fill="none" height="32" stroke="#50f" stroke-linecap="round" stroke-linejoin="round" stroke-width="1.5" viewBox="0 0 24 24" width="32" xmlns="http://www.w3.org/2000/svg"><circle cx="12" cy="12" r="3"/><path d="m19.4 15a1.65 1.65 0 0 0 .33 1.82l.06.06a2 2 0 0 1 0 2.83 2 2 0 0 1 -2.83 0l-.06-.06a1.65 1.65 0 0 0 -1.82-.33 1.65 1.65 0 0 0 -1 1.51v.17a2 2 0 0 1 -2 2 2 2 0 0 1 -2-2v-.09a1.65 1.65 0 0 0 -1.08-1.51 1.65 1.65 0 0 0 -1.82.33l-.06.06a2 2 0 0 1 -2.83 0 2 2 0 0 1 0-2.83l.06-.06a1.65 1.65 0 0 0 .33-1.82 1.65 1.65 0 0 0 -1.51-1h-.17a2 2 0 0 1 -2-2 2 2 0 0 1 2-2h.09a1.65 1.65 0 0 0 1.51-1.08 1.65 1.65 0 0 0 -.33-1.82l-.06-.06a2 2 0 0 1 0-2.83 2 2 0 0 1 2.83 0l.06.06a1.65 1.65 0 0 0 1.82.33h.08a1.65 1.65 0 0 0 1-1.51v-.17a2 2 0 0 1 2-2 2 2 0 0 1 2 2v.09a1.65 1.65 0 0 0 1 1.51 1.65 1.65 0 0 0 1.82-.33l.06-.06a2 2 0 0 1 2.83 0 2 2 0 0 1 0 2.83l-.06.06a1.65 1.65 0 0 0 -.33 1.82v.08a1.65 1.65 0 0 0 1.51 1h.17a2 2 0 0 1 2 2 2 2 0 0 1 -2 2h-.09a1.65 1.65 0 0 0 -1.51 1z"/></svg>